<svg xmlns="http://www.w3.org/2000/svg" xmlns:xlink="http://www.w3.org/1999/xlink" width="119" height="118" viewBox="0 0 119 118"><defs><path id="i85ya" d="M926 656V538h33v118z"/><path id="i85yc" d="M958.93 654.27c-2-4.9-4-9.75-5.6-14.8-1.41-4.49-2.12-9.26-3.92-13.6-.41-1-1.96-.44-1.95.55.11 7.64 3.16 16.1 6.5 23.5-5.07-4.9-9.5-9.9-12.97-16.52-4.42-8.43-7.2-17.71-9.07-27.04-4.48-22.2-4.68-45.27-2.48-67.75.06-.7-1.11-.86-1.21-.16-3.31 23.23-3.09 47.4 1.7 70.41 2.9 13.98 8.6 31 19.6 41.3a81.84 81.84 0 0 0-11.16-3.51c-.65-.14-1.1.78-.47 1.13 6.07 3.4 12.97 5.52 19.39 8.15.89.36 2-.75 1.64-1.66"/><clipPath id="i85yb"><use xlink:href="#i85ya"/></clipPath></defs><g><g transform="rotate(-60 35.08 1092.7)"><g/><g clip-path="url(#i85yb)"><use fill="#ffba00" xlink:href="#i85yc"/></g></g></g></svg>