<svg xmlns="http://www.w3.org/2000/svg" width="303.905" height="124.175" version="1"><g style="line-height:normal;text-transform:uppercase" font-weight="300" font-size="16" font-family="Roboto" text-anchor="middle"><path d="M98.63 9.02h-5.2l-1.18 3.17h-.97L95.6.8h.88l4.3 11.4h-.98L98.63 9zm-4.9-.84h4.6l-2.27-6.16H96l-2.27 6.16zM105.4 11.56q.92 0 1.63-.53.72-.53.72-1.48h.82l.02.05q.02 1.17-.96 1.96-.98.8-2.26.8-1.73 0-2.68-1.2-.94-1.18-.94-3.04V7.8q0-1.85.95-3.03.95-1.2 2.67-1.2 1.38 0 2.3.83.93.82.9 2.15l-.02.05h-.83q0-1-.7-1.62-.67-.6-1.66-.6-1.37 0-2.03.97-.65.97-.65 2.45v.33q0 1.5.65 2.46t2.02.95zM115.9 12.2q-.1-.44-.14-.75-.04-.32-.04-.64-.47.7-1.25 1.1-.78.46-1.76.46-1.2 0-1.9-.65t-.7-1.75q0-1.17 1.03-1.88 1.02-.7 2.73-.7h1.87V6.3q0-.9-.58-1.4-.58-.53-1.63-.53-.97 0-1.6.5-.65.5-.65 1.2h-.86l-.02-.05q-.05-.95.86-1.7.9-.74 2.32-.74 1.4 0 2.25.7.86.72.86 2.05v4.15q0 .45.05.87t.18.84h-.98zm-3.08-.68q1 0 1.78-.47t1.12-1.2V8.07h-1.88q-1.27 0-2.04.54-.76.55-.76 1.36 0 .7.47 1.12.5.42 1.33.42zM118.77 8.03q0-2.02.85-3.23.86-1.22 2.4-1.22.87 0 1.52.37.65.38 1.08 1.07V0h.93v12.2h-.83l-.08-1.24q-.42.67-1.08 1.03-.67.34-1.56.34-1.52 0-2.38-1.12-.85-1.14-.85-3.03V8zm.94.17q0 1.53.63 2.43.6.9 1.85.9.9 0 1.5-.4t.95-1.12V6.06q-.32-.74-.9-1.2-.6-.45-1.54-.45-1.24 0-1.87 1-.6 1-.6 2.63v.17zM131.2 12.35q-1.57 0-2.63-1.17-1.04-1.17-1.04-2.97v-.4q0-1.8 1.04-3t2.53-1.2q1.55 0 2.44.98.9 1 .9 2.63V8h-5.98v.22q0 1.44.76 2.4t2 .96q.87 0 1.5-.24.6-.24 1.04-.7l.4.65q-.48.5-1.2.8-.74.27-1.75.27zm-.1-7.97q-1.04 0-1.75.8-.7.78-.82 1.98l.02.04h4.95v-.24q0-1.1-.65-1.84-.64-.75-1.75-.75zM137.08 3.73l.1 1.4q.4-.74 1.07-1.15.67-.4 1.6-.4.98 0 1.63.47.66.47.94 1.43.38-.9 1.08-1.4.7-.5 1.73-.5 1.35 0 2.1.9.72.9.72 2.78v4.93h-.94V7.22q0-1.56-.53-2.2-.55-.65-1.53-.65-1.1 0-1.68.67-.6.68-.74 1.74 0 .06 0 .16.02.1.02.15v5.08h-.95V7.23q0-1.53-.57-2.2-.54-.65-1.52-.65-1 0-1.57.5-.58.5-.8 1.35v5.94h-.95V3.72h.83zM151.53 12.2h-.93V3.72h.93v8.46zm0-10.9h-.93V0h.93v1.3zM157.24 11.56q.93 0 1.64-.53.7-.53.7-1.48h.84v.05q.05 1.17-.92 1.96-.98.8-2.26.8-1.73 0-2.67-1.2-.94-1.18-.94-3.04V7.8q0-1.85.94-3.03.95-1.2 2.66-1.2 1.4 0 2.3.83.94.82.9 2.15v.05h-.84q0-1-.7-1.62-.7-.6-1.68-.6-1.36 0-2.02.97-.63.97-.63 2.45v.33q0 1.5.64 2.46.67.95 2.05.95zM168.1 9.45l.33 1.5h.05l.4-1.5 1.8-5.72h.8l1.8 5.72.4 1.54h.05l.35-1.56 1.54-5.72h.97l-2.48 8.46h-.8l-1.87-5.8-.37-1.45h-.06l-.37 1.46-1.85 5.8h-.8l-2.45-8.48h.96l1.6 5.72zM182.3 4.54l-.7-.05q-.87 0-1.44.5-.56.47-.8 1.34v5.84h-.94V3.72h.82l.1 1.4v.1q.38-.78 1-1.2.62-.45 1.47-.45.2 0 .36.03.17.03.28.06l-.12.88zM184.9 12.2h-.93V3.72h.93v8.46zm0-10.9h-.93V0h.93v1.3zM188.95 1.57v2.16h1.86v.77h-1.84V10q0 .84.3 1.2.3.33.8.33.23 0 .44 0 .2-.04.5-.08l.13.7q-.24.1-.57.15-.34.05-.67.05-.9 0-1.4-.56-.5-.58-.5-1.8V4.5h-1.47v-.77H188V1.57h.95zM193.84 12.2h-.93V3.72h.95v8.46zm0-10.9h-.93V0h.95v1.3zM197.25 3.73l.08 1.48q.4-.76 1.1-1.2.7-.4 1.64-.4 1.37 0 2.1.83.7.84.7 2.62v5.15h-.93V7.04q0-1.46-.55-2.06-.56-.6-1.56-.6-.98 0-1.6.5-.62.53-.9 1.4v5.9h-.93V3.72h.84zM204.96 8.03q0-2.02.86-3.23.86-1.22 2.4-1.22.9 0 1.56.4.65.4 1.08 1.1l.1-1.35h.8v8.35q0 1.63-.9 2.58-.9.94-2.5.94-.62 0-1.3-.15-.7-.15-1.2-.4l.23-.8q.5.26 1.03.38.56.14 1.2.14 1.23 0 1.85-.72.62-.7.62-1.97v-1.06q-.43.64-1.08 1-.66.33-1.53.33-1.53 0-2.4-1.13-.85-1.13-.85-3.02v-.17zm.93.17q0 1.52.6 2.43.63.9 1.87.9.9 0 1.5-.4.62-.42.94-1.15V6.06q-.3-.73-.9-1.2-.57-.47-1.52-.47-1.24 0-1.87 1-.63 1-.63 2.62v.17z"/></g><g fill="#929292" font-weight="300" font-size="14" font-family="Roboto" text-anchor="middle"><path d="M2.65 38.37l.3 1.53H3l.37-1.53 2.1-7.14h.78l2.1 7.14.37 1.54h.04l.32-1.52 1.8-7.14h.83L9.17 41.2H8.4l-2.24-7.65-.26-1.04h-.06l-.25 1.06-2.27 7.64h-.78L0 31.22h.84l1.8 7.14zM15.8 41.33q-1.4 0-2.3-1.02-.93-1-.93-2.6v-.36q0-1.58.9-2.63.93-1.04 2.23-1.04 1.36 0 2.13.87.78.86.78 2.3v.7h-5.2v.2q0 1.24.66 2.08.67.85 1.75.85.77 0 1.3-.2.55-.22.94-.62l.34.56q-.4.43-1.05.7-.64.24-1.52.24zm-.1-6.98q-.9 0-1.53.7-.6.7-.72 1.74h4.35v-.2q0-.96-.57-1.6-.56-.66-1.53-.66zM23.2 37.38q0-1.63.9-2.68.9-1.05 2.37-1.05 1.48 0 2.38 1.05.9 1.05.9 2.68v.23q0 1.66-.9 2.7-.9 1.04-2.37 1.04-1.5 0-2.38-1.04-.9-1.05-.9-2.7v-.22zm.82.23q0 1.3.65 2.18.65.87 1.8.87t1.8-.87q.66-.88.66-2.16v-.22q0-1.26-.66-2.15-.65-.88-1.8-.88t-1.8.88q-.65.9-.65 2.15v.23zM32.05 41.2v-6.74h-1.23v-.67h1.23v-1.1q0-1.1.55-1.7.56-.63 1.57-.63.22 0 .45.03.24.05.48.1l-.1.7q-.17-.05-.35-.08-.17-.02-.4-.02-.67 0-1.03.42-.35.43-.35 1.2v1.07h1.76v.65h-1.76v6.73h-.82zM36.64 41.2v-6.74h-1.22v-.67h1.22v-1.1q0-1.1.55-1.7.54-.63 1.55-.63.23 0 .46.03.24.05.48.1l-.1.7q-.18-.05-.35-.08-.18-.02-.4-.02-.68 0-1.03.42-.36.43-.36 1.2v1.07h1.76v.65h-1.76v6.73h-.82zM43.25 41.33q-1.4 0-2.3-1.02-.95-1-.95-2.6v-.37q0-1.58.9-2.63.93-1.05 2.23-1.05 1.36 0 2.14.87.77.86.77 2.3v.7H40.8v.2q0 1.24.68 2.08.67.84 1.75.84.77 0 1.3-.2.55-.22.93-.62l.35.56q-.4.44-1.05.7-.64.25-1.52.25zm-.1-6.98q-.9 0-1.53.7-.6.7-.7 1.74h4.33v-.2q0-.96-.56-1.6-.6-.66-1.56-.66zM51.1 34.5l-.6-.05q-.78 0-1.28.44-.5.4-.7 1.17v5.1h-.83v-7.4h.7l.1 1.24v.1q.33-.7.87-1.07.54-.4 1.28-.4.16 0 .3.04.15.02.25.05l-.1.77zM57.46 38.8l.28 1.3h.04l.35-1.3 1.58-5h.7l1.6 5 .35 1.34h.04l.3-1.35 1.34-5h.85l-2.16 7.4h-.7L60.4 36.1l-.33-1.28h-.04l-.33 1.28-1.62 5.06h-.7l-2.15-7.4h.85l1.38 5zM67.4 41.2h-.82v-7.4h.82v7.4zm0-9.53h-.82v-1.15h.82v1.15zM69.33 37.55q0-1.77.75-2.83.75-1.07 2.1-1.07.76 0 1.33.33.58.33.96.93v-4.37h.8V41.2h-.7l-.08-1.1q-.37.6-.95.92-.58.3-1.37.3-1.32 0-2.07-.97-.76-1-.76-2.66v-.16zm.82.14q0 1.32.53 2.12.54.8 1.62.8.8 0 1.32-.37.54-.35.83-.98V35.8q-.28-.63-.8-1.03-.5-.4-1.33-.4-1.08 0-1.63.88-.56.9-.56 2.3v.14zM80.22 41.33q-1.4 0-2.3-1.02-.93-1-.93-2.6v-.36q0-1.58.9-2.63.9-1.04 2.2-1.04 1.37 0 2.15.87.78.86.78 2.3v.7H77.8v.2q0 1.24.68 2.08.66.85 1.74.85.77 0 1.3-.2.55-.22.93-.62l.35.56q-.42.43-1.06.7-.64.24-1.52.24zm-.1-6.98q-.9 0-1.53.7t-.73 1.74h4.34v-.2q0-.96-.55-1.6-.57-.66-1.54-.66zM90.82 40.64q.82 0 1.44-.46.62-.47.62-1.3h.72l.02.04q.03 1.03-.82 1.72-.86.7-1.98.7-1.5 0-2.34-1.04-.82-1.04-.82-2.67v-.28q0-1.62.83-2.66.8-1.06 2.3-1.06 1.2 0 2.03.72.8.72.78 1.9v.03h-.73q0-.9-.6-1.43-.6-.53-1.46-.53-1.2 0-1.76.86-.57.85-.57 2.15v.28q0 1.32.57 2.16.57.83 1.77.83zM96.15 35.06q.37-.67.98-1.04.62-.37 1.44-.37 1.17 0 1.8.73.62.72.62 2.25v4.56h-.84v-4.6q0-1.2-.48-1.7-.48-.54-1.32-.54-.84 0-1.4.44-.57.45-.83 1.18v5.2h-.82V30.53h.83v4.54zM102.66 37.38q0-1.63.9-2.68.9-1.05 2.37-1.05 1.48 0 2.38 1.05.9 1.05.9 2.68v.23q0 1.66-.9 2.7-.87 1.04-2.35 1.04-1.5 0-2.38-1.04-.9-1.05-.9-2.7v-.22zm.82.23q0 1.3.65 2.18.65.87 1.8.87t1.8-.87q.66-.88.66-2.16v-.22q0-1.26-.68-2.15-.65-.88-1.8-.88t-1.8.88q-.65.9-.65 2.15v.23zM111.83 41.2h-.8v-7.4h.8v7.4zm0-9.53h-.8v-1.15h.8v1.15zM116.83 40.64q.8 0 1.43-.46.62-.47.62-1.3h.73l.03.04q.04 1.03-.82 1.72-.84.7-1.96.7-1.5 0-2.34-1.04-.83-1.04-.83-2.67v-.28q0-1.62.83-2.66.82-1.06 2.32-1.06 1.22 0 2.02.72.82.72.8 1.9l-.02.03h-.74q0-.9-.6-1.43-.6-.53-1.46-.53-1.2 0-1.76.86-.57.85-.57 2.15v.28q0 1.32.55 2.16.56.83 1.77.83zM124.1 41.33q-1.38 0-2.3-1.02-.92-1-.92-2.6v-.36q0-1.58.9-2.63.93-1.04 2.22-1.04 1.36 0 2.14.87.78.86.78 2.3v.7h-5.22v.2q0 1.24.66 2.08.67.85 1.75.85.78 0 1.3-.2.56-.22.94-.62l.35.56q-.4.43-1.07.7-.63.24-1.5.24zm-.1-6.98q-.9 0-1.52.7t-.72 1.74h4.35v-.2q0-.96-.55-1.6-.57-.66-1.54-.66zM131.5 37.38q0-1.63.9-2.68.9-1.05 2.38-1.05t2.38 1.05q.9 1.05.9 2.68v.23q0 1.66-.9 2.7-.9 1.04-2.37 1.04-1.5 0-2.4-1.04-.9-1.05-.9-2.7v-.22zm.83.23q0 1.3.65 2.18.65.87 1.8.87t1.8-.87q.66-.88.66-2.16v-.22q0-1.26-.66-2.15-.65-.88-1.8-.88t-1.8.88q-.65.9-.65 2.15v.23zM140.36 41.2v-6.74h-1.23v-.67h1.23v-1.1q0-1.1.55-1.7.58-.63 1.58-.63.23 0 .46.03.24.05.47.1l-.1.7q-.15-.05-.33-.08-.17-.02-.4-.02-.67 0-1.03.42-.35.43-.35 1.2v1.07h1.75v.65h-1.76v6.73h-.83zM152.2 39.3q0-.5-.43-.9-.42-.4-1.54-.64-1.32-.28-1.96-.76-.63-.47-.63-1.33 0-.85.7-1.43.73-.6 1.9-.6 1.26 0 2 .64.72.6.7 1.54l-.03.04h-.74q0-.6-.52-1.06-.5-.45-1.38-.45-.9 0-1.35.4-.43.37-.43.9 0 .5.38.84.4.32 1.54.57 1.3.3 1.97.8.66.5.66 1.4 0 .9-.76 1.48-.74.57-1.97.57-1.36 0-2.13-.64-.77-.65-.73-1.54l.02-.04h.75q.07.8.67 1.16.6.36 1.43.36.88 0 1.4-.4.5-.38.5-.93zM159.76 39.98q-.36.65-.96 1t-1.42.35q-1.17 0-1.84-.8-.66-.78-.66-2.45v-4.3h.82v4.3q0 1.36.46 1.95.47.6 1.3.6.94 0 1.5-.43.55-.4.77-1.15V33.8h.82v7.4h-.73l-.06-1.22zM168.66 37.7q0 1.66-.75 2.65-.73.98-2.05.98-.8 0-1.4-.32-.6-.3-.95-.92l-.1 1.12h-.7V30.5h.82v4.43q.36-.62.94-.95.57-.35 1.37-.35 1.33 0 2.08 1.07.77 1.06.77 2.83v.14zm-.82-.15q0-1.4-.55-2.3-.57-.88-1.64-.88-.86 0-1.38.42-.53.4-.78 1.07v3.34q.27.65.8 1.03.56.38 1.36.38 1.08 0 1.62-.8t.54-2.12v-.15zM171.46 33.8v8q0 1.14-.55 1.75-.52.62-1.5.62-.2 0-.4-.03-.16-.03-.36-.1l.1-.7q.1.05.3.08.18.04.32.04.6 0 .95-.43.36-.4.36-1.23v-8h.8zm-.04-2.16h-.82v-1.12h.82v1.12zM176.58 41.33q-1.4 0-2.3-1.02-.93-1-.93-2.6v-.36q0-1.58.9-2.63.93-1.04 2.23-1.04 1.36 0 2.14.87.78.86.78 2.3v.7h-5.23v.2q0 1.24.67 2.08.66.85 1.74.85.76 0 1.3-.2.54-.22.93-.62l.37.56q-.42.43-1.06.7-.63.24-1.5.24zm-.1-6.98q-.9 0-1.53.7-.6.7-.72 1.74h4.35v-.2q0-.96-.57-1.6-.54-.66-1.5-.66zM183.76 40.64q.82 0 1.44-.46.62-.47.62-1.3h.73v.04q.04 1.03-.8 1.72-.87.7-2 .7-1.5 0-2.32-1.04-.82-1.04-.82-2.67v-.28q0-1.62.84-2.66.83-1.06 2.33-1.06 1.2 0 2.02.72.8.72.8 1.9l-.04.03h-.73q0-.9-.6-1.43-.6-.53-1.46-.53-1.2 0-1.77.86-.57.85-.57 2.15v.28q0 1.32.56 2.16.55.83 1.75.83zM189.55 31.9v1.9h1.63v.66h-1.63v4.82q0 .72.26 1.03.3.3.73.3.2 0 .38 0 .2 0 .45-.05l.12.6q-.2.1-.5.14-.3.04-.6.04-.77 0-1.2-.5-.43-.48-.43-1.55v-4.83h-1.28v-.67h1.28v-1.9h.82zM197.35 39.3q0-.5-.43-.9t-1.54-.64q-1.33-.28-1.96-.76-.63-.47-.63-1.33 0-.85.7-1.43.7-.6 1.9-.6 1.23 0 1.96.64.74.6.7 1.54v.04h-.77q0-.6-.53-1.06-.5-.45-1.4-.45-.88 0-1.34.4-.44.37-.44.9 0 .5.37.84.4.32 1.55.57 1.32.3 1.97.8.65.5.65 1.4 0 .9-.75 1.48-.74.57-1.97.57-1.34 0-2.12-.64-.74-.65-.7-1.54v-.04h.76q.05.8.65 1.16.6.36 1.44.36.9 0 1.4-.4.52-.38.52-.93zM208.15 41.2q-.08-.4-.1-.66-.05-.28-.05-.56-.4.6-1.1.97-.67.38-1.53.38-1.08 0-1.68-.57-.6-.58-.6-1.54 0-1.03.87-1.64.9-.62 2.4-.62H208v-.9q0-.8-.5-1.26-.5-.45-1.43-.45-.86 0-1.42.43-.56.43-.56 1.05h-.78v-.04q-.05-.85.74-1.5.8-.66 2.03-.66 1.22 0 1.96.63.75.62.75 1.78v3.64q0 .4.05.75.05.37.15.73h-.85zm-2.68-.6q.88 0 1.56-.4.67-.42.97-1.06V37.6h-1.64q-1.12 0-1.8.47-.65.47-.65 1.18 0 .6.43.98t1.15.38zM211.72 33.8l.07 1.28q.34-.68.94-1.05.6-.38 1.43-.38 1.2 0 1.84.74.63.7.63 2.27v4.5h-.82v-4.5q0-1.26-.46-1.8-.48-.5-1.35-.5-.87 0-1.4.44-.56.46-.8 1.2v5.18h-.8v-7.4h.7zM218.46 37.55q0-1.77.75-2.83.77-1.07 2.1-1.07.78 0 1.35.33.57.33.94.93v-4.37h.8V41.2h-.72l-.07-1.1q-.36.6-.94.92-.58.3-1.36.3-1.34 0-2.1-.97-.74-1-.74-2.66v-.16zm.82.14q0 1.32.54 2.12t1.62.8q.8 0 1.32-.37.53-.35.82-.98V35.8q-.28-.63-.8-1.03-.5-.4-1.33-.4-1.08 0-1.63.88-.54.9-.54 2.3v.14zM235.95 37.7q0 1.66-.75 2.65-.75.98-2.07.98-.78 0-1.37-.3-.58-.3-.95-.83v3.83h-.8V33.8h.7l.1 1.14q.36-.62.94-.95.6-.36 1.38-.36 1.35 0 2.1 1.07t.75 2.84v.14zm-.82-.15q0-1.4-.56-2.3-.56-.88-1.64-.88-.83 0-1.35.4-.5.38-.77 1v3.56q.3.6.83.96.53.33 1.32.33 1.07 0 1.63-.8.56-.8.56-2.15v-.15zM242.47 41.2q-.08-.4-.12-.66-.03-.28-.03-.56-.4.6-1.1.97-.68.38-1.53.38-1.1 0-1.7-.57-.6-.58-.6-1.54 0-1.03.9-1.64.87-.62 2.4-.62h1.6v-.9q0-.8-.5-1.26-.5-.45-1.42-.45-.87 0-1.44.43-.56.43-.56 1.05h-.75v-.04q-.05-.85.74-1.5.8-.66 2.02-.66t1.96.63q.73.62.73 1.78v3.64q0 .4.03.75.05.37.16.73h-.87zm-2.7-.6q.9 0 1.57-.4.68-.42.98-1.06V37.6h-1.65q-1.1 0-1.78.47-.68.47-.68 1.18 0 .6.4.98.42.38 1.15.38zM251.26 37.7q0 1.66-.75 2.65-.73.98-2.05.98-.78 0-1.37-.3-.58-.3-.95-.83v3.83h-.82V33.8h.7l.1 1.14q.37-.62.95-.95.6-.36 1.38-.36 1.34 0 2.1 1.07.74 1.07.74 2.84v.14zm-.82-.15q0-1.4-.56-2.3-.56-.88-1.64-.88-.83 0-1.35.4-.53.38-.8 1v3.56q.3.6.8.96.55.33 1.34.33 1.08 0 1.63-.8.56-.8.56-2.15v-.15zM255.88 41.33q-1.4 0-2.3-1.02-.93-1-.93-2.6v-.36q0-1.58.9-2.63.92-1.04 2.22-1.04 1.36 0 2.14.87.8.86.8 2.3v.7h-5.22v.2q0 1.24.66 2.08.67.85 1.75.85.75 0 1.3-.2.53-.22.9-.62l.36.56q-.4.43-1.06.7-.64.24-1.52.24zm-.1-6.98q-.92 0-1.53.7-.62.7-.72 1.74h4.35v-.2q0-.96-.57-1.6-.55-.66-1.52-.66zM263.72 34.5l-.6-.05q-.78 0-1.28.44-.5.4-.7 1.17v5.1h-.82v-7.4h.72l.1 1.24v.1q.32-.7.86-1.07.54-.4 1.3-.4.14 0 .3.04.14.02.23.05l-.1.77zM269.78 31.9v1.9h1.63v.66h-1.6v4.82q0 .72.25 1.03.27.3.7.3.2 0 .4 0 .18 0 .42-.05l.13.6q-.22.1-.5.14-.3.04-.6.04-.78 0-1.22-.5-.43-.48-.43-1.55v-4.83h-1.28v-.67h1.28v-1.9h.83zM275.24 39.18l.26.9h.04l2.24-6.3h.9l-3.2 8.6q-.3.74-.74 1.27-.46.52-1.34.52-.15 0-.35-.03-.2-.03-.3-.06l.1-.68q.07 0 .25.02.2.02.27.02.53 0 .85-.38.32-.38.55-.97l.4-1-2.87-7.3h.9l2.04 5.37zM285.96 37.7q0 1.66-.75 2.65-.73.98-2.05.98-.78 0-1.37-.3-.58-.3-.95-.83v3.83H280V33.8h.7l.1 1.14q.36-.62.94-.95.6-.36 1.38-.36 1.34 0 2.1 1.07.74 1.07.74 2.84v.14zm-.82-.15q0-1.4-.56-2.3-.56-.88-1.64-.88-.83 0-1.35.4-.53.38-.8 1v3.56q.3.6.8.96.55.33 1.34.33 1.08 0 1.63-.8.56-.8.56-2.15v-.15zM290.58 41.33q-1.4 0-2.32-1.02-.9-1-.9-2.6v-.36q0-1.58.9-2.63.9-1.04 2.2-1.04 1.37 0 2.15.87.8.86.8 2.3v.7h-5.22v.2q0 1.24.66 2.08.67.85 1.75.85.75 0 1.3-.2.53-.22.9-.62l.36.56q-.4.43-1.06.7-.64.24-1.52.24zm-.1-6.98q-.92 0-1.53.7-.62.7-.72 1.74h4.35v-.2q0-.96-.57-1.6-.55-.66-1.52-.66zM299.45 39.3q0-.5-.43-.9t-1.54-.64q-1.33-.28-1.96-.76-.63-.47-.63-1.33 0-.85.7-1.43.7-.6 1.9-.6 1.23 0 1.97.64.73.6.7 1.54l-.02.04h-.76q0-.6-.53-1.06-.5-.45-1.4-.45-.88 0-1.33.4-.45.37-.45.9 0 .5.37.84.4.32 1.55.57 1.32.3 1.98.8.66.5.66 1.4 0 .9-.75 1.48-.73.57-1.96.57-1.34 0-2.1-.64-.78-.65-.74-1.54v-.04h.76q.04.8.65 1.16.6.36 1.44.36.9 0 1.4-.4.52-.38.52-.93zM303.15 41.2h-.93v-1.13h.93v1.12zM5.55 58.37l.3 1.53h.04l.36-1.53 2.1-7.14h.78l2.1 7.14.36 1.54h.06l.32-1.52 1.8-7.14h.83l-2.54 9.96h-.77l-2.25-7.65-.26-1.04h-.05l-.25 1.06-2.27 7.64h-.77L2.9 51.22h.84l1.8 7.14zM18.7 61.33q-1.4 0-2.3-1.02-.93-1-.93-2.6v-.36q0-1.58.9-2.63.92-1.04 2.22-1.04 1.34 0 2.12.87.78.86.78 2.3v.7h-5.2v.2q0 1.24.65 2.08.67.85 1.75.85.76 0 1.3-.2.54-.22.92-.62l.35.56q-.4.43-1.06.7-.6.24-1.5.24zm-.1-6.98q-.92 0-1.53.7-.62.7-.72 1.74h4.35v-.2q0-.96-.57-1.6-.57-.66-1.54-.66zM29.3 60.64q.8 0 1.43-.46.63-.47.63-1.3h.72v.04q.05 1.03-.8 1.72-.86.7-1.98.7-1.5 0-2.34-1.04-.82-1.04-.82-2.67v-.28q0-1.62.83-2.66.82-1.06 2.32-1.06 1.2 0 2 .72t.8 1.9v.03h-.75q0-.9-.6-1.43-.6-.53-1.47-.53-1.2 0-1.77.86-.56.85-.56 2.15v.28q0 1.32.57 2.16.58.83 1.78.83zM38.5 61.2q-.1-.4-.13-.66-.03-.28-.03-.56-.4.6-1.1.97-.68.38-1.54.38-1.08 0-1.68-.57-.6-.58-.6-1.54 0-1.03.9-1.64.88-.62 2.38-.62h1.64v-.9q0-.8-.52-1.26-.5-.45-1.42-.45-.85 0-1.42.43-.56.43-.56 1.05h-.75l-.02-.04q-.04-.85.76-1.5.8-.66 2.05-.66 1.22 0 1.96.63.76.62.76 1.78v3.64q0 .4.04.75.04.37.14.73h-.85zm-2.7-.6q.88 0 1.56-.4.68-.42.98-1.06V57.6H36.7q-1.13 0-1.8.47-.66.47-.66 1.18 0 .6.4.98.43.38 1.16.38zM42.05 53.8l.07 1.28q.36-.68.96-1.05.6-.38 1.44-.38 1.2 0 1.83.74.63.7.63 2.27v4.5h-.82v-4.5q0-1.26-.48-1.8-.47-.5-1.35-.5-.86 0-1.4.44-.55.46-.8 1.2v5.18h-.8v-7.4h.72zM58.5 57.7q0 1.66-.76 2.65-.76.98-2.07.98-.78 0-1.37-.3-.58-.3-.95-.83v3.83h-.82V53.8h.7l.1 1.14q.36-.62.94-.95.6-.36 1.38-.36 1.33 0 2.1 1.07.74 1.07.74 2.84v.14zm-.83-.15q0-1.4-.56-2.3-.54-.88-1.62-.88-.83 0-1.35.4-.5.38-.77 1v3.56q.28.6.8.96.54.33 1.33.33 1.06 0 1.62-.8.57-.8.57-2.15v-.15zM63.73 54.5l-.6-.05q-.78 0-1.28.44-.5.4-.7 1.17v5.1h-.82v-7.4h.7l.12 1.24v.1q.32-.7.86-1.07.56-.4 1.3-.4.16 0 .3.04.16.02.25.05l-.1.77zM64.5 57.38q0-1.63.9-2.68.88-1.05 2.36-1.05t2.38 1.05q.9 1.05.9 2.68v.23q0 1.66-.9 2.7-.9 1.04-2.37 1.04-1.5 0-2.38-1.04-.9-1.05-.9-2.7v-.22zm.8.23q0 1.3.66 2.18.65.87 1.8.87t1.8-.87q.66-.88.66-2.16v-.22q0-1.26-.66-2.15-.65-.88-1.8-.88t-1.8.88q-.65.9-.65 2.15v.23zM72.42 57.55q0-1.77.75-2.83.75-1.07 2.1-1.07.76 0 1.33.33.56.33.94.93v-4.37h.8V61.2h-.7l-.08-1.1q-.37.6-.95.92-.56.3-1.35.3-1.32 0-2.07-.97-.75-1-.75-2.66v-.16zm.82.14q0 1.32.53 2.12.54.8 1.62.8.8 0 1.3-.37.54-.35.83-.98V55.8q-.28-.63-.8-1.03-.5-.4-1.33-.4-1.07 0-1.62.88-.54.9-.54 2.3v.14zM85.38 59.98q-.35.65-.96 1-.6.35-1.42.35-1.17 0-1.83-.8-.66-.78-.66-2.45v-4.3h.84v4.3q0 1.36.46 1.95.45.6 1.3.6.93 0 1.48-.43.55-.4.77-1.15V53.8h.82v7.4h-.72l-.07-1.22zM91.07 60.64q.8 0 1.43-.46.63-.47.63-1.3h.72v.04q.05 1.03-.8 1.72-.86.7-1.98.7-1.5 0-2.34-1.04-.82-1.04-.82-2.67v-.28q0-1.62.85-2.66.82-1.06 2.32-1.06 1.22 0 2.02.72t.8 1.9l-.03.03h-.73q0-.9-.6-1.43-.6-.53-1.47-.53-1.2 0-1.76.86-.56.85-.56 2.15v.28q0 1.32.57 2.16.58.83 1.78.83zM98.35 61.33q-1.4 0-2.3-1.02-.93-1-.93-2.6v-.36q0-1.58.9-2.63.93-1.04 2.23-1.04 1.36 0 2.14.87.76.86.76 2.3v.7h-5.23v.2q0 1.24.67 2.08.67.85 1.75.85.76 0 1.3-.2.54-.22.93-.62l.35.56q-.42.43-1.06.7-.64.24-1.52.24zm-.1-6.98q-.9 0-1.53.7-.6.7-.72 1.74h4.35v-.2q0-.96-.57-1.6-.56-.66-1.53-.66zM110.9 61.2q-.1-.4-.12-.66-.04-.28-.04-.56-.4.6-1.1.97-.68.38-1.53.38-1.06 0-1.66-.57-.6-.58-.6-1.54 0-1.03.9-1.64.87-.62 2.38-.62h1.64v-.9q0-.8-.5-1.26-.52-.45-1.43-.45-.85 0-1.4.43-.57.43-.57 1.05h-.76v-.04q-.05-.85.74-1.5.8-.66 2.04-.66 1.23 0 1.97.63.76.62.76 1.78v3.64q0 .4.05.75.04.37.15.73h-.86zm-2.7-.6q.9 0 1.56-.4.68-.42.98-1.06V57.6h-1.65q-1.13 0-1.8.47-.66.47-.66 1.18 0 .6.4.98.42.38 1.16.38zM114.45 53.8l.08 1.28q.35-.68.96-1.05.6-.38 1.4-.38 1.2 0 1.84.74.63.7.63 2.27v4.5h-.82v-4.5q0-1.26-.48-1.8-.47-.5-1.34-.5-.86 0-1.4.44-.55.46-.8 1.2v5.18h-.8v-7.4h.7zM123.62 59.18l.26.9h.04l2.24-6.3h.9l-3.2 8.6q-.3.74-.74 1.27-.46.52-1.34.52-.15 0-.35-.03-.2-.03-.3-.06l.1-.68q.07 0 .25.02.2.02.27.02.53 0 .85-.38.32-.38.55-.97l.4-1-2.87-7.3h.9l2.04 5.37zM129.67 51.9v1.9h1.63v.66h-1.63v4.82q0 .72.26 1.03.27.3.7.3.2 0 .4 0 .18 0 .43-.05l.12.6q-.2.1-.5.14-.3.04-.6.04-.77 0-1.2-.5-.44-.48-.44-1.55v-4.83h-1.27v-.67h1.27v-1.9h.83zM133.85 55.06q.37-.67 1-1.04.6-.37 1.42-.37 1.17 0 1.8.73.62.72.62 2.25v4.56h-.84v-4.6q0-1.2-.47-1.7-.5-.54-1.3-.54-.86 0-1.43.44-.56.45-.83 1.18v5.2h-.82V50.53h.82v4.54zM141.74 61.2h-.8v-7.4h.8v7.4zm0-9.53h-.8v-1.15h.8v1.15zM144.72 53.8l.08 1.28q.35-.68.96-1.05.6-.38 1.43-.38 1.2 0 1.8.74.64.7.64 2.27v4.5h-.82v-4.5q0-1.26-.48-1.8-.47-.5-1.34-.5-.85 0-1.4.44-.54.46-.78 1.2v5.18H144v-7.4h.72zM151.47 57.55q0-1.77.75-2.83.76-1.07 2.1-1.07.8 0 1.37.35.55.34.93.97l.1-1.18h.68v7.3q0 1.4-.8 2.24-.76.82-2.17.82-.54 0-1.14-.13-.6-.12-1.06-.35l.2-.7q.45.22.93.33.5.1 1.04.1 1.1 0 1.64-.6.55-.62.55-1.73v-.94q-.38.56-.96.87-.57.3-1.34.3-1.32 0-2.08-1-.75-.98-.75-2.64v-.15zm.82.14q0 1.32.53 2.12.54.8 1.62.8.8 0 1.32-.37.54-.36.82-1v-3.43q-.27-.64-.8-1.05-.5-.4-1.33-.4-1.08 0-1.64.87-.55.9-.55 2.3v.14zM163.6 61.2v-6.74h-1.23v-.67h1.23v-1.1q0-1.1.55-1.7.56-.63 1.57-.63.22 0 .45.03.24.05.48.1l-.1.7q-.17-.05-.35-.08-.17-.02-.4-.02-.67 0-1.03.42-.35.43-.35 1.2v1.07h1.76v.65h-1.76v6.73h-.82zM171 54.5l-.6-.05q-.78 0-1.28.44-.5.4-.7 1.17v5.1h-.82v-7.4h.7l.12 1.24v.1q.32-.7.86-1.07.54-.4 1.28-.4.16 0 .3.04.15.02.25.05l-.1.77zM171.76 57.38q0-1.63.9-2.68.9-1.05 2.37-1.05 1.48 0 2.38 1.05.9 1.05.9 2.68v.23q0 1.66-.9 2.7-.87 1.04-2.35 1.04-1.5 0-2.38-1.04-.9-1.05-.9-2.7v-.22zm.82.23q0 1.3.65 2.18.65.87 1.8.87t1.8-.87q.66-.88.66-2.16v-.22q0-1.26-.68-2.15-.65-.88-1.8-.88t-1.8.88q-.65.9-.65 2.15v.23zM180.7 53.8l.08 1.2q.35-.63.94-1 .6-.35 1.4-.35.86 0 1.43.4.57.42.82 1.27.34-.78.95-1.22.62-.45 1.5-.45 1.2 0 1.84.8.64.78.64 2.42v4.32h-.82v-4.35q0-1.37-.5-1.93-.47-.56-1.33-.56-.95 0-1.47.6-.52.58-.64 1.5 0 .06 0 .15 0 .1 0 .14v4.44h-.82v-4.34q0-1.34-.5-1.9-.48-.6-1.33-.6-.9 0-1.4.45-.5.44-.7 1.2v5.2h-.84v-7.4h.73zM200.53 61.2q-.1-.4-.12-.66-.02-.28-.02-.56-.4.6-1.1.97-.67.38-1.53.38-1.08 0-1.68-.57-.6-.58-.6-1.54 0-1.03.9-1.64.88-.62 2.38-.62h1.63v-.9q0-.8-.5-1.26-.5-.45-1.43-.45-.85 0-1.42.43-.56.43-.56 1.05h-.75v-.04q-.05-.85.74-1.5.8-.66 2.03-.66 1.22 0 1.96.63.75.62.75 1.78v3.64q0 .4.04.75.05.37.15.73h-.86zm-2.7-.6q.9 0 1.57-.4.67-.42.97-1.06V57.6h-1.64q-1.12 0-1.8.47-.65.47-.65 1.18 0 .6.4.98.43.38 1.16.38zM211.2 59.3q0-.5-.42-.9t-1.54-.64q-1.32-.28-1.96-.76-.63-.47-.63-1.33 0-.85.7-1.43.73-.6 1.9-.6 1.26 0 2 .64.72.6.68 1.54v.04h-.77q0-.6-.52-1.06-.5-.45-1.4-.45-.88 0-1.33.4-.43.37-.43.9 0 .5.4.84.38.32 1.53.57 1.3.3 1.97.8.65.5.65 1.4 0 .9-.75 1.48-.74.57-1.97.57-1.35 0-2.12-.64-.77-.65-.73-1.54l.02-.04h.75q.05.8.65 1.16.6.36 1.43.36.88 0 1.4-.4.5-.38.5-.93zM214.83 61.2h-.8v-7.4h.8v7.4zm0-9.53h-.8v-1.15h.8v1.15zM217.78 53.8l.07 1.2q.36-.63.95-1 .6-.35 1.4-.35.86 0 1.43.4.57.42.82 1.27.33-.78.95-1.22.62-.45 1.5-.45 1.2 0 1.83.8.65.78.65 2.42v4.32h-.82v-4.35q0-1.37-.5-1.93-.47-.56-1.33-.56-.95 0-1.47.6-.52.58-.64 1.5 0 .06 0 .15 0 .1 0 .14v4.44h-.82v-4.34q0-1.34-.5-1.9-.48-.6-1.33-.6-.87 0-1.38.45-.53.44-.73 1.2v5.2h-.83v-7.4h.73zM235.46 57.7q0 1.66-.75 2.65-.74.98-2.06.98-.78 0-1.36-.3-.58-.3-.95-.83v3.83h-.82V53.8h.7l.1 1.14q.37-.62.95-.95.6-.36 1.38-.36 1.33 0 2.1 1.07.74 1.07.74 2.84v.14zm-.82-.15q0-1.4-.56-2.3-.56-.88-1.64-.88-.83 0-1.35.4-.53.38-.8 1v3.56q.3.6.8.96.55.33 1.34.33 1.07 0 1.63-.8.56-.8.56-2.15v-.15zM238.2 61.2h-.8V50.5h.8v10.7zM243.24 61.33q-1.38 0-2.3-1.02-.92-1-.92-2.6v-.36q0-1.58.9-2.63.92-1.04 2.22-1.04 1.36 0 2.14.87.78.86.78 2.3v.7h-5.22v.2q0 1.24.66 2.08.66.85 1.74.85.77 0 1.3-.2.55-.22.93-.62l.35.56q-.42.43-1.06.7-.63.24-1.52.24zm-.1-6.98q-.9 0-1.52.7t-.72 1.74h4.35v-.2q0-.96-.57-1.6-.57-.66-1.54-.66zM253.88 61.33q-1.4 0-2.3-1.02-.93-1-.93-2.6v-.36q0-1.58.9-2.63.93-1.04 2.23-1.04 1.36 0 2.14.87.78.86.78 2.3v.7h-5.23v.2q0 1.24.67 2.08.66.85 1.74.85.77 0 1.3-.2.55-.22.93-.62l.37.56q-.42.43-1.06.7-.63.24-1.5.24zm-.1-6.98q-.9 0-1.53.7-.6.7-.7 1.74h4.33v-.2q0-.96-.56-1.6-.57-.66-1.54-.66zM262.75 59.3q0-.5-.43-.9-.42-.4-1.54-.64-1.32-.28-1.96-.76-.63-.47-.63-1.33 0-.85.7-1.43.7-.6 1.9-.6 1.24 0 1.97.64.73.6.7 1.54l-.02.04h-.75q0-.6-.5-1.06-.53-.45-1.4-.45-.9 0-1.35.4-.44.37-.44.9 0 .5.4.84.4.32 1.54.57 1.32.3 1.98.8.67.5.67 1.4 0 .9-.77 1.48-.73.57-1.96.57-1.35 0-2.12-.64-.77-.65-.72-1.54v-.04h.76q.04.8.64 1.16.62.36 1.44.36.9 0 1.4-.4.5-.38.5-.93zM269.9 59.3q0-.5-.44-.9-.42-.4-1.54-.64-1.33-.28-1.96-.76-.63-.47-.63-1.33 0-.85.7-1.43.73-.6 1.9-.6 1.26 0 2 .64.72.6.68 1.54v.04h-.75q0-.6-.52-1.06-.5-.45-1.4-.45-.88 0-1.33.4-.46.37-.46.9 0 .5.4.84.38.32 1.53.57 1.32.3 1.98.8.65.5.65 1.4 0 .9-.75 1.48-.74.57-1.97.57-1.35 0-2.12-.64-.77-.65-.73-1.54l.02-.04h.75q.05.8.65 1.16.6.36 1.43.36.88 0 1.4-.4.5-.38.5-.93zM277.28 61.2q-.08-.4-.12-.66-.03-.28-.03-.56-.4.6-1.1.97-.68.38-1.53.38-1.08 0-1.68-.57-.6-.58-.6-1.54 0-1.03.88-1.64.9-.62 2.4-.62h1.63v-.9q0-.8-.5-1.26-.52-.45-1.44-.45-.87 0-1.44.43-.56.43-.56 1.05h-.74v-.04q-.05-.85.74-1.5.8-.66 2.03-.66 1.22 0 1.97.63.74.62.74 1.78v3.64q0 .4.04.75.05.37.15.73h-.85zm-2.7-.6q.9 0 1.57-.4.68-.42.98-1.06V57.6h-1.65q-1.1 0-1.78.47-.67.47-.67 1.18 0 .6.4.98.43.38 1.16.38zM282.1 59.18l.27.9h.04l2.25-6.3h.92l-3.22 8.6q-.28.74-.74 1.27-.45.52-1.33.52-.14 0-.35-.03-.2-.03-.3-.06l.1-.68q.1 0 .27.02t.25.02q.54 0 .86-.38.3-.38.54-.97l.4-1-2.86-7.3h.9l2.04 5.37zM291.57 51.9v1.9h1.63v.66h-1.63v4.82q0 .72.26 1.03.27.3.7.3.2 0 .4 0 .18 0 .43-.05l.12.6q-.2.1-.5.14-.3.04-.6.04-.77 0-1.2-.5-.43-.48-.43-1.55v-4.83h-1.28v-.67h1.28v-1.9h.82zM294.34 57.38q0-1.63.9-2.68.9-1.05 2.37-1.05 1.5 0 2.4 1.05.9 1.05.9 2.68v.23q0 1.66-.9 2.7-.9 1.04-2.37 1.04-1.5 0-2.38-1.04-.9-1.05-.9-2.7v-.22zm.82.23q0 1.3.65 2.18.67.87 1.83.87 1.14 0 1.8-.87.65-.88.65-2.16v-.22q0-1.26-.66-2.15-.64-.88-1.8-.88-1.14 0-1.8.88-.64.9-.64 2.15v.23zM11.92 77.55q0-1.77.75-2.83.75-1.07 2.1-1.07.76 0 1.33.33.57.33.94.93v-4.37h.82V81.2h-.73l-.07-1.1q-.37.6-.95.92-.56.3-1.34.3-1.33 0-2.08-.97-.75-1-.75-2.66v-.16zm.82.14q0 1.32.54 2.12t1.62.8q.8 0 1.3-.37.55-.35.84-.98V75.8q-.28-.63-.8-1.03-.5-.4-1.33-.4-1.06 0-1.6.88-.55.9-.55 2.3v.14zM20.95 81.2h-.8v-7.4h.8v7.4zm0-9.53h-.8v-1.15h.8v1.15zM27.64 79.3q0-.5-.43-.9-.4-.4-1.52-.64-1.33-.28-1.96-.76-.62-.47-.62-1.33 0-.85.7-1.43.73-.6 1.9-.6 1.25 0 2 .64.72.6.68 1.54v.04h-.77q0-.6-.52-1.06-.5-.45-1.4-.45-.88 0-1.33.4-.45.37-.45.9 0 .5.37.84.4.32 1.55.57 1.32.3 1.97.8.64.5.64 1.4 0 .9-.75 1.48-.76.57-2 .57-1.33 0-2.1-.64-.77-.65-.73-1.54v-.04h.77q.04.8.64 1.16.6.36 1.42.36.9 0 1.4-.4.52-.38.52-.93zM34.77 79.3q0-.5-.43-.9-.42-.4-1.53-.64-1.3-.28-1.95-.76-.63-.47-.63-1.33 0-.85.73-1.43.7-.6 1.9-.6 1.24 0 1.97.64.73.6.7 1.54v.04h-.77q0-.6-.52-1.06-.5-.45-1.38-.45-.9 0-1.35.4-.44.37-.44.9 0 .5.38.84.4.32 1.56.57 1.32.3 1.97.8.66.5.66 1.4 0 .9-.76 1.48-.75.57-1.98.57-1.36 0-2.13-.64-.76-.65-.72-1.54v-.04h.76q.06.8.66 1.16.6.36 1.43.36.9 0 1.4-.4.5-.38.5-.93zM40.26 81.33q-1.4 0-2.3-1.02-.93-1-.93-2.6v-.36q0-1.58.9-2.63.93-1.04 2.22-1.04 1.36 0 2.14.87.76.86.76 2.3v.7h-5.22v.2q0 1.24.66 2.08.68.85 1.76.85.76 0 1.3-.2.54-.22.93-.62l.32.56q-.4.43-1.06.7-.63.24-1.5.24zm-.1-6.98q-.9 0-1.53.7-.62.7-.72 1.74h4.37v-.2q0-.96-.57-1.6-.58-.66-1.55-.66zM48.1 74.5l-.6-.05q-.78 0-1.28.44-.5.4-.7 1.17v5.1h-.82v-7.4h.72l.1 1.24v.1q.32-.7.86-1.07.54-.4 1.3-.4.14 0 .3.04.14.02.23.05l-.1.77zM50.96 71.9v1.9h1.63v.66h-1.65v4.82q0 .72.26 1.03.28.3.7.3.2 0 .4 0t.44-.05l.12.6q-.2.1-.5.14-.3.04-.6.04-.77 0-1.2-.5-.44-.48-.44-1.55v-4.83h-1.27v-.67h1.27v-1.9h.83zM59 81.2q-.07-.4-.1-.66-.04-.28-.04-.56-.4.6-1.1.97-.68.38-1.53.38-1.08 0-1.7-.57-.58-.58-.58-1.54 0-1.03.88-1.64.9-.62 2.4-.62h1.63v-.9q0-.8-.52-1.26-.5-.45-1.42-.45-.85 0-1.42.43-.56.43-.56 1.05h-.75l-.04-.04q-.04-.85.76-1.5.8-.66 2.03-.66 1.22 0 1.97.63.74.62.74 1.78v3.64q0 .4.04.75.06.37.16.73H59zm-2.68-.6q.88 0 1.56-.4.68-.42.98-1.06V77.6H57.2q-1.1 0-1.77.47-.67.47-.67 1.18 0 .6.4.98.43.38 1.16.38zM63.13 71.9v1.9h1.63v.66h-1.63v4.82q0 .72.26 1.03.25.3.7.3.2 0 .37 0 .2 0 .43-.05l.14.6q-.2.1-.5.14-.3.04-.6.04-.77 0-1.2-.5-.44-.48-.44-1.55v-4.83h-1.28v-.67h1.28v-1.9h.83zM67.4 81.2h-.8v-7.4h.8v7.4zm0-9.53h-.8v-1.15h.8v1.15zM69.2 77.38q0-1.63.9-2.68.9-1.05 2.37-1.05 1.5 0 2.38 1.05.9 1.05.9 2.68v.23q0 1.66-.9 2.7-.9 1.04-2.36 1.04-1.5 0-2.4-1.04-.9-1.05-.9-2.7v-.22zm.83.23q0 1.3.65 2.18.65.87 1.8.87t1.8-.87q.66-.88.66-2.16v-.22q0-1.26-.66-2.15-.66-.88-1.8-.88-1.15 0-1.8.88-.65.9-.65 2.15v.23zM78.18 73.8l.08 1.28q.35-.68.95-1.05.63-.38 1.46-.38 1.2 0 1.83.74.62.7.62 2.27v4.5h-.8v-4.5q0-1.26-.5-1.8-.46-.5-1.33-.5-.88 0-1.4.44-.56.46-.8 1.2v5.18h-.8v-7.4h.7zM86.25 81.2h-.94v-1.13h.96v1.12zM99.56 81.2h-.8l-5.67-8.57h-.06v8.56h-.82V71.2h.82l5.65 8.55h.04v-8.55h.8v9.96zM101.5 77.38q0-1.63.9-2.68.9-1.05 2.37-1.05 1.48 0 2.38 1.05.9 1.05.9 2.68v.23q0 1.66-.9 2.7-.9 1.04-2.37 1.04-1.5 0-2.38-1.04-.9-1.05-.9-2.7v-.22zm.82.23q0 1.3.65 2.18.65.87 1.8.87t1.8-.87q.66-.88.66-2.16v-.22q0-1.26-.66-2.15-.65-.88-1.8-.88t-1.8.88q-.65.9-.65 2.15v.23zM113.86 73.8l.07 1.2q.36-.63.95-1 .6-.35 1.4-.35.86 0 1.43.4.6.42.84 1.27.33-.78.95-1.22.6-.45 1.5-.45 1.2 0 1.82.8.66.78.66 2.42v4.32h-.82v-4.35q0-1.37-.5-1.93-.47-.56-1.33-.56-.94 0-1.46.6-.52.58-.64 1.5 0 .06 0 .15 0 .1 0 .14v4.44h-.82v-4.34q0-1.34-.5-1.9-.47-.6-1.32-.6-.87 0-1.38.45-.5.44-.7 1.2v5.2h-.84v-7.4h.73zM130.27 81.2q-.1-.4-.12-.66-.03-.28-.03-.56-.4.6-1.1.97-.68.38-1.54.38-1.08 0-1.68-.57-.6-.58-.6-1.54 0-1.03.9-1.64.88-.62 2.38-.62h1.64v-.9q0-.8-.52-1.26-.5-.45-1.42-.45-.85 0-1.42.43-.56.43-.56 1.05h-.75l-.02-.04q-.04-.85.75-1.5.8-.66 2.03-.66 1.25 0 2 .63.74.62.74 1.78v3.64q0 .4.04.75.05.37.15.73h-.85zm-2.7-.6q.9 0 1.57-.4.67-.42.98-1.06V77.6h-1.65q-1.12 0-1.8.47-.65.47-.65 1.18 0 .6.4.98.43.38 1.16.38zM134.4 71.9v1.9h1.6v.66h-1.6v4.82q0 .72.25 1.03.26.3.7.3.2 0 .38 0 .2 0 .44-.05l.12.6q-.2.1-.5.14-.3.04-.6.04-.78 0-1.2-.5-.45-.48-.45-1.55v-4.83h-1.28v-.67h1.28v-1.9h.83zM139.04 71.9v1.9h1.62v.66h-1.62v4.82q0 .72.26 1.03.26.3.7.3.2 0 .38 0 .2 0 .44-.05l.12.6q-.2.1-.5.14-.3.04-.58.04-.78 0-1.22-.5-.43-.48-.43-1.55v-4.83h-1.26v-.67h1.28v-1.9h.84zM145.17 81.33q-1.38 0-2.3-1.02-.92-1-.92-2.6v-.36q0-1.58.9-2.63.92-1.04 2.22-1.04 1.36 0 2.14.87.8.86.8 2.3v.7h-5.22v.2q0 1.24.66 2.08.66.85 1.74.85.77 0 1.3-.2.55-.22.93-.62l.36.56q-.42.43-1.06.7-.64.24-1.53.24zm-.1-6.98q-.9 0-1.52.7t-.72 1.74h4.35v-.2q0-.96-.57-1.6-.55-.66-1.52-.66zM153.02 74.5l-.6-.05q-.78 0-1.28.44-.5.4-.7 1.17v5.1h-.82v-7.4h.72l.1 1.24v.1q.32-.7.86-1.07.54-.4 1.28-.4.16 0 .3.04.16.02.25.05l-.1.77zM158.6 75.06q.38-.67 1-1.04.6-.37 1.43-.37 1.17 0 1.8.73.62.72.62 2.25v4.56h-.82v-4.6q0-1.2-.47-1.7-.48-.54-1.3-.54-.85 0-1.42.44-.56.45-.83 1.18v5.2h-.8V70.53h.8v4.54zM165.13 77.38q0-1.63.9-2.68.9-1.05 2.37-1.05 1.48 0 2.38 1.05.9 1.05.9 2.68v.23q0 1.66-.9 2.7-.9 1.04-2.37 1.04-1.47 0-2.37-1.04-.9-1.05-.9-2.7v-.22zm.82.23q0 1.3.65 2.18.65.87 1.8.87t1.8-.87q.66-.88.66-2.16v-.22q0-1.26-.66-2.15-.66-.88-1.8-.88-1.15 0-1.8.88-.65.9-.65 2.15v.23zM174.97 78.8l.28 1.3h.04l.33-1.3 1.57-5h.72l1.57 5 .34 1.34h.04l.3-1.35 1.34-5h.85l-2.16 7.4h-.7l-1.63-5.08-.32-1.28h-.04l-.32 1.28-1.6 5.06h-.7l-2.16-7.4h.85l1.37 5zM190.15 80.64q.8 0 1.43-.46.63-.47.63-1.3h.74v.04q.05 1.03-.8 1.72-.86.7-1.98.7-1.5 0-2.34-1.04-.8-1.04-.8-2.67v-.28q0-1.62.82-2.66.82-1.06 2.32-1.06 1.22 0 2.03.72.8.72.77 1.9v.03h-.74q0-.9-.6-1.43-.6-.53-1.46-.53-1.2 0-1.76.86-.56.85-.56 2.15v.28q0 1.32.58 2.16.57.83 1.77.83zM194.2 77.38q0-1.63.9-2.68.9-1.05 2.36-1.05 1.5 0 2.38 1.05.9 1.05.9 2.68v.23q0 1.66-.9 2.7-.9 1.04-2.36 1.04-1.5 0-2.4-1.04-.88-1.05-.88-2.7v-.22zm.82.23q0 1.3.65 2.18.64.87 1.8.87 1.15 0 1.8-.87.65-.88.65-2.16v-.22q0-1.26-.65-2.15-.66-.88-1.8-.88-1.16 0-1.8.88-.65.9-.65 2.15v.23zM203.14 73.8l.07 1.2q.38-.63.97-1 .6-.35 1.4-.35.86 0 1.43.4.56.42.8 1.27.34-.78.96-1.22.62-.45 1.5-.45 1.2 0 1.83.8.62.78.62 2.42v4.32h-.82v-4.35q0-1.37-.47-1.93-.48-.56-1.34-.56-.97 0-1.5.6-.5.58-.63 1.5 0 .06 0 .15 0 .1 0 .14v4.44h-.82v-4.34q0-1.34-.5-1.9-.48-.6-1.34-.6-.85 0-1.37.45-.5.44-.7 1.2v5.2h-.83v-7.4h.74zM220.8 77.7q0 1.66-.74 2.65-.75.98-2.07.98-.8 0-1.4-.3-.57-.3-.94-.83v3.83h-.82V73.8h.7l.1 1.14q.37-.62.95-.95.57-.36 1.37-.36 1.33 0 2.08 1.07t.75 2.84v.14zm-.8-.15q0-1.4-.57-2.3-.56-.88-1.64-.88-.84 0-1.36.4-.52.38-.78 1v3.56q.28.6.8.96.54.33 1.34.33 1.08 0 1.63-.8.56-.8.56-2.15v-.15zM223.57 81.2h-.8V70.5h.8v10.7zM226.74 81.2h-.8v-7.4h.8v7.4zm0-9.53h-.8v-1.15h.8v1.15zM231.74 80.64q.8 0 1.43-.46.63-.47.63-1.3h.72v.04q.05 1.03-.8 1.72-.86.7-1.98.7-1.5 0-2.34-1.04-.82-1.04-.82-2.67v-.28q0-1.62.83-2.66.84-1.06 2.34-1.06 1.22 0 2.02.72.82.72.8 1.9l-.02.03h-.73q0-.9-.6-1.43-.6-.53-1.46-.53-1.2 0-1.76.86-.57.85-.57 2.15v.28q0 1.32.58 2.16.57.83 1.77.83zM240.93 81.2q-.1-.4-.12-.66 0-.28 0-.56-.4.6-1.1.97-.7.38-1.55.38-1.08 0-1.68-.57-.6-.58-.6-1.54 0-1.03.9-1.64.88-.62 2.38-.62h1.64v-.9q0-.8-.53-1.26-.5-.45-1.42-.45-.85 0-1.42.43-.56.43-.56 1.05h-.75v-.04q-.05-.85.74-1.5.8-.66 2.03-.66 1.22 0 1.96.63.75.62.75 1.78v3.64q0 .4.04.75.05.37.15.73h-.86zm-2.7-.6q.9 0 1.57-.4.67-.42.98-1.06V77.6h-1.65q-1.12 0-1.8.47-.65.47-.65 1.18 0 .6.4.98.43.38 1.16.38zM245.05 71.9v1.9h1.62v.66h-1.62v4.82q0 .72.26 1.03.28.3.7.3.2 0 .4 0t.44-.05l.13.6q-.2.1-.5.14-.3.04-.6.04-.77 0-1.2-.5-.44-.48-.44-1.55v-4.83h-1.28v-.67h1.28v-1.9h.83zM251.2 81.33q-1.4 0-2.32-1.02-.92-1-.92-2.6v-.36q0-1.58.9-2.63.93-1.04 2.22-1.04 1.36 0 2.14.87.78.86.78 2.3v.7h-5.22v.2q0 1.24.66 2.08.67.85 1.75.85.74 0 1.3-.2.52-.22.9-.62l.35.56q-.4.43-1.06.7-.64.24-1.5.24zm-.12-6.98q-.9 0-1.52.7t-.72 1.74h4.35v-.2q0-.96-.6-1.6-.56-.66-1.53-.66zM255.3 77.55q0-1.77.75-2.83.76-1.07 2.1-1.07.77 0 1.34.33.54.33.92.93v-4.37h.8V81.2h-.7l-.08-1.1q-.37.6-.95.92-.6.3-1.38.3-1.32 0-2.08-.97-.74-1-.74-2.66v-.16zm.83.14q0 1.32.53 2.12.54.8 1.62.8.8 0 1.32-.37.53-.35.83-.98V75.8q-.28-.63-.8-1.03-.5-.4-1.33-.4-1.08 0-1.63.88-.54.9-.54 2.3v.14zM268.94 79.18l.26.9h.04l2.24-6.3h.9l-3.2 8.6q-.3.74-.75 1.27-.45.52-1.34.52-.16 0-.36-.03-.2-.03-.3-.06l.1-.68q.07 0 .25.02t.26.02q.53 0 .85-.38.33-.38.56-.97l.4-1-2.87-7.3h.9l2.03 5.37zM273.14 77.38q0-1.63.9-2.68.9-1.05 2.36-1.05 1.5 0 2.38 1.05.9 1.05.9 2.68v.23q0 1.66-.9 2.7-.9 1.04-2.36 1.04-1.5 0-2.4-1.04-.88-1.05-.88-2.7v-.22zm.82.23q0 1.3.65 2.18.67.87 1.83.87 1.14 0 1.8-.87.65-.88.65-2.16v-.22q0-1.26-.66-2.15-.65-.88-1.8-.88-1.14 0-1.8.88-.64.9-.64 2.15v.23zM286.23 79.98q-.35.65-.95 1t-1.42.35q-1.17 0-1.84-.8-.66-.78-.66-2.45v-4.3h.82v4.3q0 1.36.46 1.95.46.6 1.3.6.94 0 1.5-.43.55-.4.77-1.15V73.8h.84v7.4h-.73l-.06-1.22zM292.58 74.5l-.6-.05q-.78 0-1.27.44-.5.4-.7 1.17v5.1h-.8v-7.4h.7L290 75v.1q.33-.7.87-1.07.54-.4 1.3-.4.14 0 .3.04.14.02.23.05l-.12.77zM5.47 101.2q-.08-.4-.12-.66-.03-.28-.03-.56-.4.6-1.1.97-.68.38-1.53.38-1.1 0-1.7-.57-.6-.58-.6-1.54 0-1.03.9-1.64.87-.62 2.37-.62H5.3v-.9q0-.8-.5-1.26-.5-.45-1.43-.45-.85 0-1.42.43-.56.43-.56 1.05H.64v-.04q-.06-.85.74-1.5.8-.66 2-.66t1.98.63q.73.62.73 1.78v3.64q0 .4.05.75.05.37.15.73h-.85zm-2.7-.6q.9 0 1.57-.4.68-.42.98-1.06V97.6H3.67q-1.1 0-1.78.47-.7.47-.7 1.18 0 .6.4.98.44.38 1.17.38zM12.74 99.3q0-.5-.44-.9-.42-.4-1.53-.64-1.33-.28-1.97-.76-.62-.47-.62-1.33 0-.85.7-1.43.72-.6 1.9-.6 1.25 0 1.98.64.73.6.7 1.54v.04h-.77q0-.6-.54-1.06-.5-.45-1.4-.45-.9 0-1.34.4-.44.37-.44.9 0 .5.37.84.4.32 1.55.57 1.32.3 1.97.8.65.5.65 1.4 0 .9-.75 1.48-.75.57-1.98.57-1.36 0-2.13-.64-.76-.65-.72-1.54v-.04h.76q.06.8.66 1.16.6.36 1.42.36.9 0 1.4-.4.52-.38.52-.93zM19.87 99.3q0-.5-.43-.9-.42-.4-1.54-.64-1.32-.28-1.96-.76-.63-.47-.63-1.33 0-.85.73-1.43.72-.6 1.9-.6 1.25 0 1.98.64.74.6.7 1.54v.04h-.77q0-.6-.52-1.06-.5-.45-1.37-.45-.9 0-1.35.4-.44.37-.44.9 0 .5.38.84.4.32 1.55.57 1.32.3 1.98.8.66.5.66 1.4 0 .9-.76 1.48-.74.57-1.97.57-1.35 0-2.12-.64-.77-.65-.73-1.54l.03-.04h.75q.05.8.65 1.16.6.36 1.43.36.9 0 1.4-.4.5-.38.5-.93zM23.5 101.2h-.82v-7.4h.82v7.4zm0-9.53h-.82v-1.15h.82v1.15zM25.43 97.55q0-1.77.75-2.83.76-1.07 2.1-1.07.8 0 1.37.35.57.34.95.97l.1-1.18h.68v7.3q0 1.4-.8 2.24-.78.82-2.18.82-.54 0-1.14-.13-.6-.12-1.05-.35l.23-.7q.44.22.92.33.5.1 1.04.1 1.07 0 1.62-.6.56-.62.56-1.73v-.94q-.37.56-.95.87-.56.3-1.33.3-1.33 0-2.1-1-.74-.98-.74-2.64v-.15zm.82.14q0 1.32.55 2.12.54.8 1.62.8.8 0 1.32-.37.54-.36.82-1v-3.43q-.26-.64-.78-1.05-.52-.4-1.34-.4-1.08 0-1.64.87-.55.9-.55 2.3v.14zM34.27 93.8l.07 1.28q.36-.68.96-1.05.6-.38 1.44-.38 1.2 0 1.83.74.63.7.63 2.27v4.5h-.82v-4.5q0-1.26-.48-1.8-.47-.5-1.35-.5-.86 0-1.4.44-.55.46-.8 1.2v5.18h-.8v-7.4h.72zM42.03 93.8l.07 1.2q.36-.63.95-1 .6-.35 1.4-.35.86 0 1.43.4.57.42.82 1.27.33-.78.95-1.22.62-.45 1.5-.45 1.2 0 1.83.8.65.78.65 2.42v4.32h-.83v-4.35q0-1.37-.48-1.93-.48-.56-1.34-.56-.95 0-1.47.6-.5.58-.62 1.5 0 .06 0 .15 0 .1 0 .14v4.44h-.82v-4.34q0-1.34-.5-1.9-.48-.6-1.34-.6-.85 0-1.37.45-.5.44-.7 1.2v5.2h-.83v-7.4h.73zM56.53 101.33q-1.4 0-2.3-1.02-.93-1-.93-2.6v-.36q0-1.58.9-2.63.92-1.04 2.22-1.04 1.36 0 2.14.87.78.86.78 2.3v.7h-5.22v.2q0 1.24.66 2.08.67.85 1.75.85.76 0 1.3-.2.54-.22.92-.62l.35.56q-.4.43-1.06.7-.63.24-1.5.24zm-.1-6.98q-.92 0-1.53.7-.62.7-.72 1.74h4.35v-.2q0-.96-.57-1.6-.57-.66-1.54-.66zM61.7 93.8l.07 1.28q.36-.68.96-1.05.6-.38 1.43-.38 1.2 0 1.83.74.6.7.6 2.27v4.5h-.8v-4.5q0-1.26-.5-1.8-.46-.5-1.33-.5-.86 0-1.4.44-.55.46-.8 1.2v5.18H61v-7.4h.7zM70.05 91.9v1.9h1.62v.66h-1.62v4.82q0 .72.26 1.03.28.3.7.3.2 0 .4 0t.44-.05l.13.6q-.2.1-.5.14-.3.04-.6.04-.77 0-1.2-.5-.44-.48-.44-1.55v-4.83h-1.28v-.67h1.28v-1.9h.83zM77.75 101.2h-.82v-7.4h.82v7.4zm0-9.53h-.82v-1.15h.82v1.15zM84.43 99.3q0-.5-.43-.9-.42-.4-1.54-.64-1.32-.28-1.96-.76-.63-.47-.63-1.33 0-.85.7-1.43.73-.6 1.9-.6 1.26 0 2 .64.72.6.7 1.54l-.03.04h-.76q0-.6-.52-1.06-.5-.45-1.38-.45-.9 0-1.35.4-.45.37-.45.9 0 .5.4.84.38.32 1.53.57 1.34.3 2 .8.65.5.65 1.4 0 .9-.75 1.48-.75.57-1.98.57-1.35 0-2.12-.64-.77-.65-.73-1.54l.02-.04h.73q.05.8.65 1.16.6.36 1.42.36.9 0 1.4-.4.5-.38.5-.93zM90.1 97.38q0-1.63.9-2.68.9-1.05 2.37-1.05 1.48 0 2.37 1.05.9 1.05.9 2.68v.23q0 1.66-.9 2.7-.88 1.04-2.36 1.04-1.5 0-2.4-1.04-.88-1.05-.88-2.7v-.22zm.82.23q0 1.3.65 2.18.65.87 1.8.87t1.8-.87q.66-.88.66-2.16v-.22q0-1.26-.66-2.15-.66-.88-1.8-.88-1.15 0-1.8.88-.65.9-.65 2.15v.23zM101.75 94.5l-.6-.05q-.78 0-1.28.44-.5.4-.7 1.17v5.1h-.82v-7.4h.72l.1 1.24v.1q.32-.7.86-1.07.54-.4 1.3-.4.14 0 .3.04.14.02.23.05l-.1.77zM108.12 98.8l.28 1.3h.04l.35-1.3 1.55-5h.7l1.58 5 .35 1.34h.03l.3-1.35 1.37-5h.83l-2.15 7.4h-.7L111 96.1l-.3-1.28h-.05l-.33 1.28-1.6 5.06h-.7l-2.16-7.4h.84l1.38 5zM117.95 95.06q.37-.67 1-1.04.6-.37 1.42-.37 1.17 0 1.8.73.62.72.62 2.25v4.56h-.84v-4.6q0-1.2-.47-1.7-.5-.54-1.3-.54-.86 0-1.43.44-.56.45-.83 1.18v5.2h-.82V90.53h.82v4.54zM129.6 101.2q-.07-.4-.1-.66-.04-.28-.04-.56-.4.6-1.1.97-.68.38-1.53.38-1.08 0-1.68-.57-.6-.58-.6-1.54 0-1.03.88-1.64.9-.62 2.4-.62h1.63v-.9q0-.8-.5-1.26-.52-.45-1.44-.45-.85 0-1.42.43-.56.43-.56 1.05h-.75l-.03-.04q-.04-.85.75-1.5.8-.66 2.03-.66 1.22 0 1.97.63.74.62.74 1.78v3.64q0 .4.04.75.06.37.16.73h-.85zm-2.68-.6q.88 0 1.56-.4.68-.42.98-1.06V97.6h-1.65q-1.1 0-1.76.47-.67.47-.67 1.18 0 .6.4.98.43.38 1.16.38zM133.73 91.9v1.9h1.63v.66h-1.63v4.82q0 .72.26 1.03.25.3.7.3.2 0 .37 0 .2 0 .44-.05l.13.6q-.2.1-.5.14-.3.04-.6.04-.77 0-1.2-.5-.44-.48-.44-1.55v-4.83h-1.28v-.67h1.27v-1.9h.82zM141.8 91.9v1.9h1.62v.66h-1.62v4.82q0 .72.26 1.03.26.3.7.3.2 0 .38 0 .2 0 .44-.05l.13.6q-.2.1-.5.14-.3.04-.57.04-.78 0-1.22-.5-.42-.48-.42-1.55v-4.83h-1.28v-.67h1.27v-1.9h.83zM144.57 97.38q0-1.63.9-2.68.9-1.05 2.36-1.05 1.5 0 2.38 1.05.9 1.05.9 2.68v.23q0 1.66-.9 2.7-.87 1.04-2.34 1.04-1.5 0-2.4-1.04-.88-1.05-.88-2.7v-.22zm.82.23q0 1.3.63 2.18.65.87 1.8.87t1.8-.87q.65-.88.65-2.16v-.22q0-1.26-.66-2.15-.66-.88-1.8-.88-1.15 0-1.8.88-.65.9-.65 2.15v.23zM158.77 97.7q0 1.66-.75 2.65-.75.98-2.07.98-.78 0-1.37-.3-.58-.3-.95-.83v3.83h-.82V93.8h.7l.1 1.14q.38-.62.96-.95.6-.36 1.38-.36 1.34 0 2.1 1.07.74 1.07.74 2.84v.14zm-.82-.15q0-1.4-.56-2.3-.58-.88-1.66-.88-.83 0-1.35.4-.5.38-.78 1v3.56q.28.6.8.96.54.33 1.33.33 1.08 0 1.63-.8.55-.8.55-2.15v-.15zM161.53 101.2h-.82v-7.4h.84v7.4zm0-9.53h-.82v-1.15h.84v1.15zM166.52 100.64q.82 0 1.44-.46.62-.47.62-1.3h.73l.03.04q.03 1.03-.82 1.72-.85.7-1.97.7-1.5 0-2.33-1.04-.83-1.04-.83-2.67v-.28q0-1.62.82-2.66.8-1.06 2.3-1.06 1.2 0 2.03.72.8.72.8 1.9l-.03.03h-.72q0-.9-.6-1.43-.6-.53-1.46-.53-1.2 0-1.77.86-.56.85-.56 2.15v.28q0 1.32.54 2.16.57.83 1.77.83zM176.54 99.18l.26.9h.05l2.23-6.3h.92l-3.22 8.6q-.28.74-.74 1.27-.46.52-1.34.52-.14 0-.35-.03-.2-.03-.3-.06l.1-.68q.08 0 .26.02.2.02.28.02.54 0 .86-.38.32-.38.54-.97l.4-1-2.86-7.3h.9l2.04 5.37zM180.74 97.38q0-1.63.9-2.68.9-1.05 2.37-1.05 1.5 0 2.4 1.05.9 1.05.9 2.68v.23q0 1.66-.9 2.7-.9 1.04-2.37 1.04-1.5 0-2.38-1.04-.9-1.05-.9-2.7v-.22zm.82.23q0 1.3.65 2.18.67.87 1.83.87 1.15 0 1.8-.87.65-.88.65-2.16v-.22q0-1.26-.66-2.15-.64-.88-1.8-.88-1.14 0-1.8.88-.64.9-.64 2.15v.23zM193.84 99.98q-.36.65-.96 1t-1.42.35q-1.17 0-1.83-.8-.66-.78-.66-2.45v-4.3h.82v4.3q0 1.36.43 1.95.47.6 1.32.6.93 0 1.48-.43.55-.4.77-1.15V93.8h.83v7.4h-.72l-.05-1.22zM201.02 95.06q.37-.67 1-1.04.6-.37 1.42-.37 1.17 0 1.8.73.62.72.62 2.25v4.56h-.82v-4.6q0-1.2-.47-1.7-.48-.54-1.3-.54-.85 0-1.42.44-.56.45-.83 1.18v5.2h-.82V90.53h.82v4.54zM212.68 101.2q-.08-.4-.12-.66-.03-.28-.03-.56-.4.6-1.1.97-.68.38-1.53.38-1.08 0-1.68-.57-.6-.58-.6-1.54 0-1.03.88-1.64.9-.62 2.4-.62h1.63v-.9q0-.8-.5-1.26-.52-.45-1.44-.45-.87 0-1.44.43-.56.43-.56 1.05h-.74v-.04q-.05-.85.74-1.5.8-.66 2.03-.66 1.22 0 1.97.63.74.62.74 1.78v3.64q0 .4.04.75.05.37.15.73h-.85zm-2.7-.6q.9 0 1.57-.4.68-.42.98-1.06V97.6h-1.65q-1.1 0-1.78.47-.67.47-.67 1.18 0 .6.4.98.43.38 1.16.38zM217.5 99.33l.25.87h.04l.24-.87 2-5.54h.86l-2.8 7.4h-.66l-2.8-7.4h.84l2.03 5.52zM224.96 101.33q-1.38 0-2.3-1.02-.92-1-.92-2.6v-.36q0-1.58.9-2.63.92-1.04 2.22-1.04 1.36 0 2.14.87.78.86.78 2.3v.7h-5.22v.2q0 1.24.66 2.08.66.85 1.74.85.77 0 1.3-.2.55-.22.93-.62l.33.56q-.42.43-1.06.7-.63.24-1.52.24zm-.1-6.98q-.9 0-1.52.7t-.72 1.74h4.35v-.2q0-.96-.57-1.6-.57-.66-1.54-.66zM234.1 91.9v1.9h1.64v.66h-1.63v4.82q0 .72.28 1.03.27.3.7.3.2 0 .4 0 .18 0 .42-.05l.12.6q-.2.1-.5.14-.3.04-.6.04-.77 0-1.2-.5-.44-.48-.44-1.55v-4.83H232v-.67h1.28v-1.9h.83zM236.88 97.38q0-1.63.9-2.68.9-1.05 2.37-1.05 1.48 0 2.38 1.05.9 1.05.9 2.68v.23q0 1.66-.9 2.7-.9 1.04-2.37 1.04-1.5 0-2.4-1.04-.88-1.05-.88-2.7v-.22zm.82.23q0 1.3.65 2.18.65.87 1.8.87t1.8-.87q.66-.88.66-2.16v-.22q0-1.26-.64-2.15-.66-.88-1.8-.88-1.15 0-1.8.88-.65.9-.65 2.15v.23zM250.14 98.8l.28 1.3h.04l.35-1.3 1.6-5h.7l1.57 5 .35 1.34h.06l.3-1.35 1.35-5h.86l-2.17 7.4h-.7l-1.63-5.08-.32-1.28h-.05l-.32 1.28-1.6 5.06h-.7l-2.16-7.4h.86l1.38 5zM262.56 94.5l-.6-.05q-.78 0-1.28.44-.5.4-.7 1.17v5.1h-.82v-7.4h.7l.12 1.24v.1q.32-.7.86-1.07.54-.4 1.28-.4.16 0 .3.04.16.02.25.05l-.1.77zM264.83 101.2h-.8v-7.4h.8v7.4zm0-9.53h-.8v-1.15h.8v1.15zM268.37 91.9v1.9H270v.66h-1.63v4.82q0 .72.26 1.03.27.3.7.3.2 0 .4 0 .18 0 .43-.05l.12.6q-.2.1-.5.14-.3.04-.6.04-.77 0-1.2-.5-.44-.48-.44-1.55v-4.83h-1.27v-.67h1.27v-1.9h.83zM274.5 101.33q-1.38 0-2.3-1.02-.92-1-.92-2.6v-.36q0-1.58.9-2.63.93-1.04 2.23-1.04 1.38 0 2.16.87.78.86.78 2.3v.7h-5.23v.2q0 1.24.68 2.08.66.85 1.74.85.78 0 1.32-.2.54-.22.92-.62l.35.56q-.42.43-1.06.7-.64.24-1.52.24zm-.1-6.98q-.9 0-1.52.7-.6.7-.7 1.74h4.33v-.2q0-.96-.54-1.6-.57-.66-1.54-.66zM281.9 97.38q0-1.63.9-2.68.9-1.05 2.38-1.05 1.5 0 2.38 1.05.9 1.05.9 2.68v.23q0 1.66-.9 2.7-.9 1.04-2.36 1.04-1.5 0-2.4-1.04-.9-1.05-.9-2.7v-.22zm.83.23q0 1.3.65 2.18.65.87 1.82.87 1.14 0 1.8-.87.64-.88.64-2.16v-.22q0-1.26-.65-2.15-.68-.88-1.83-.88t-1.8.88q-.65.9-.65 2.15v.23zM290.9 93.8l.06 1.28q.36-.68.96-1.05.6-.38 1.44-.38 1.2 0 1.83.74.6.7.6 2.27v4.5h-.8v-4.5q0-1.26-.48-1.8-.47-.5-1.35-.5-.86 0-1.4.44-.55.46-.78 1.2v5.18h-.84v-7.4h.72zM303.9 97.3h-3.27v-.7h3.28v.7zM93.88 117.55q0-1.77.75-2.83.75-1.07 2.1-1.07.75 0 1.32.33.57.3.94.9l.06-1.1h.7v10.25h-.8v-3.8q-.38.53-.94.8-.57.3-1.32.3-1.32 0-2.07-.98-.75-1-.75-2.66v-.16zm.83.14q0 1.32.55 2.13.54.8 1.62.8.76 0 1.28-.34.53-.36.83-.95v-3.63q-.28-.6-.8-1-.5-.38-1.3-.38-1.08 0-1.62.9t-.54 2.3v.14zM106.85 119.98q-.36.65-.96 1t-1.44.35q-1.17 0-1.84-.8-.66-.78-.66-2.45v-4.3h.82v4.3q0 1.36.45 1.95.46.6 1.3.6.94 0 1.5-.43.55-.4.77-1.15v-5.26h.82v7.4h-.73l-.06-1.23zM114.47 121.2q-.08-.4-.1-.66-.05-.28-.05-.56-.4.6-1.1.97-.67.38-1.53.38-1.1 0-1.7-.57-.6-.58-.6-1.54 0-1.03.9-1.64.9-.62 2.4-.62h1.6v-.9q0-.8-.5-1.26-.5-.45-1.42-.45-.86 0-1.43.43-.56.43-.56 1.05h-.75l-.02-.04q-.04-.85.75-1.5.8-.66 2.02-.66 1.23 0 1.97.63.74.62.74 1.78v3.64q0 .4.05.75.05.37.15.73h-.86zm-2.68-.6q.86 0 1.54-.4.67-.42.97-1.06v-1.55h-1.63q-1.12 0-1.8.46-.65.47-.65 1.18 0 .6.4.98.43.38 1.16.38zM118.23 121.2h-.82v-10.7h.84v10.67zM121.4 121.2h-.8v-7.4h.8v7.4zm0-9.53h-.8v-1.15h.8v1.15zM124.94 111.9v1.9h1.63v.66h-1.63v4.82q0 .72.26 1.03.27.3.7.3.2 0 .4 0 .18 0 .42-.05l.13.6q-.2.1-.5.14-.3.04-.6.04-.77 0-1.2-.5-.44-.48-.44-1.55v-4.83h-1.26v-.67h1.28v-1.9h.84zM130.4 119.18l.26.9h.04l2.24-6.3h.9l-3.2 8.6q-.3.74-.74 1.27-.46.52-1.34.52-.15 0-.35-.03-.2-.03-.3-.06l.1-.68q.1 0 .27.02.2.02.27.02.53 0 .85-.38.32-.38.54-.97l.4-1-2.87-7.3h.9l2.04 5.37zM138.26 117.55q0-1.77.76-2.83.75-1.07 2.1-1.07.8 0 1.36.35.58.34.95.97l.1-1.18h.7v7.3q0 1.4-.8 2.24-.8.82-2.2.82-.53 0-1.13-.13-.6-.12-1.06-.35l.2-.7q.45.22.94.33.48.1 1.04.1 1.08 0 1.62-.6.56-.62.56-1.73v-.94q-.38.56-.95.87-.58.3-1.34.3-1.32 0-2.07-1-.76-.98-.76-2.64v-.15zm.82.14q0 1.32.55 2.12t1.63.8q.8 0 1.32-.37.53-.36.82-1v-3.43q-.27-.64-.8-1.05-.5-.4-1.33-.4-1.08 0-1.63.87-.56.9-.56 2.3v.14zM151.22 119.98q-.35.65-.95 1t-1.42.35q-1.17 0-1.84-.8-.64-.78-.64-2.45v-4.3h.82v4.3q0 1.36.46 1.95.46.6 1.3.6.94 0 1.5-.43.55-.4.77-1.15v-5.26h.83v7.4h-.73l-.08-1.23zM158.85 121.2q-.08-.4-.1-.66-.05-.28-.05-.56-.4.6-1.1.97-.67.38-1.53.38-1.08 0-1.68-.57-.6-.58-.6-1.54 0-1.03.87-1.64.9-.62 2.4-.62h1.62v-.9q0-.8-.5-1.26-.53-.45-1.44-.45-.86 0-1.42.43-.56.43-.56 1.05H154v-.04q-.04-.85.75-1.5.8-.66 2.03-.66 1.23 0 1.97.63.75.62.75 1.78v3.64q0 .4.04.75.05.37.15.73h-.86zm-2.68-.6q.88 0 1.56-.4.67-.42.97-1.06v-1.55h-1.64q-1.12 0-1.8.46-.65.47-.65 1.18 0 .6.43.98t1.15.38zM165.1 114.5l-.6-.05q-.8 0-1.3.44-.48.4-.7 1.17v5.1h-.8v-7.4h.7l.1 1.24v.1q.33-.7.87-1.07.54-.4 1.3-.4.14 0 .3.04.14.02.23.05l-.1.77zM171.13 121.2q-.08-.4-.12-.66 0-.28 0-.56-.4.6-1.1.97-.7.38-1.54.38-1.08 0-1.68-.57-.6-.58-.6-1.54 0-1.03.88-1.64.9-.62 2.4-.62H171v-.9q0-.8-.5-1.26-.53-.45-1.44-.45-.86 0-1.43.43-.56.43-.56 1.05h-.75v-.04q-.04-.85.75-1.5.8-.66 2.03-.66 1.22 0 1.97.63.74.62.74 1.78v3.64q0 .4.04.75.05.37.16.73h-.87zm-2.7-.6q.9 0 1.57-.4.68-.42.98-1.06v-1.55h-1.65q-1.1 0-1.78.46-.66.47-.66 1.18 0 .6.4.98t1.13.38zM174.7 113.8l.07 1.28q.35-.68.95-1.05.6-.38 1.44-.38 1.2 0 1.83.74.6.7.6 2.27v4.5h-.8v-4.5q0-1.26-.5-1.8-.46-.5-1.33-.5-.87 0-1.4.44-.55.46-.8 1.2v5.18h-.8v-7.4h.7zM183.05 111.9v1.9h1.62v.66h-1.62v4.82q0 .72.26 1.03.28.3.7.3.2 0 .4 0t.44-.05l.12.6q-.2.1-.5.14-.3.04-.58.04-.78 0-1.22-.5-.43-.48-.43-1.55v-4.83h-1.28v-.67h1.28v-1.9h.83zM189.18 121.33q-1.38 0-2.3-1.02-.92-1-.92-2.6v-.36q0-1.58.9-2.63.92-1.04 2.22-1.04 1.36 0 2.14.87.78.86.78 2.3v.7h-5.22v.2q0 1.24.66 2.08.66.85 1.74.85.77 0 1.3-.2.55-.22.93-.62l.37.56q-.42.43-1.06.7-.62.24-1.5.24zm-.1-6.98q-.9 0-1.52.7t-.72 1.74h4.35v-.2q0-.96-.6-1.6-.56-.66-1.53-.66zM196.4 121.33q-1.38 0-2.3-1.02-.92-1-.92-2.6v-.36q0-1.58.9-2.63.92-1.04 2.22-1.04 1.36 0 2.14.87.78.86.78 2.3v.7H194v.2q0 1.24.66 2.08.66.85 1.74.85.77 0 1.3-.2.55-.22.93-.62l.35.56q-.42.43-1.06.7-.63.24-1.52.24zm-.1-6.98q-.9 0-1.52.7t-.72 1.74h4.35v-.2q0-.96-.55-1.6-.57-.66-1.54-.66zM200.53 117.55q0-1.77.74-2.83.75-1.07 2.1-1.07.76 0 1.33.33.57.33.95.93v-4.37h.8v10.67h-.72l-.06-1.1q-.37.6-.95.92-.6.3-1.37.3-1.33 0-2.08-.97-.74-1-.74-2.66v-.16zm.82.14q0 1.32.53 2.12.54.8 1.62.8.8 0 1.32-.37.53-.35.83-.98v-3.47q-.28-.63-.8-1.03-.5-.4-1.34-.4-1.06 0-1.6.88-.54.9-.54 2.3v.14zM209.64 121.2h-.94v-1.13h.94v1.12z" style="line-height:normal"/></g></svg>