<svg xmlns="http://www.w3.org/2000/svg" width="278.78" height="124.17" version="1"><g style="text-transform:uppercase"><path d="M81.75 7.46v4.73h-.93V.8h3.9q1.8 0 2.78.93.98.9.98 2.4 0 1.52-.98 2.42-.98.9-2.77.9h-2.98zm0-.8h2.98q1.4 0 2.1-.7.72-.73.72-1.8 0-1.1-.7-1.82-.7-.73-2.12-.73h-2.98v5.07zM91.52 12.2h-.93V0h.9v12.2zM99.44 12.2q-.1-.44-.13-.75t-.02-.64q-.47.7-1.25 1.1-.78.46-1.76.46-1.23 0-1.92-.65-.68-.65-.68-1.75 0-1.17 1-1.88 1.03-.7 2.74-.7h1.88V6.3q0-.9-.58-1.4-.6-.52-1.64-.52-.97 0-1.62.5-.64.48-.64 1.2l-.86-.02-.02-.04q-.05-.95.86-1.7.92-.74 2.32-.74t2.25.7q.85.72.85 2.05v4.15q0 .45.05.87t.17.84h-.98zm-3.07-.68q1 0 1.78-.46.78-.48 1.12-1.22V8.08H97.4q-1.28 0-2.05.55-.76.53-.76 1.34 0 .7.45 1.12.48.4 1.3.4zM102.32 8.03q0-2.02.86-3.23.87-1.22 2.4-1.22.9 0 1.56.4t1.1 1.1l.1-1.35h.78v8.35q0 1.63-.9 2.58-.9.94-2.5.94-.62 0-1.3-.15-.7-.15-1.2-.4l.23-.8q.5.26 1.06.38.57.14 1.2.14 1.24 0 1.86-.72.64-.7.64-1.97v-1.06q-.44.64-1.1 1-.66.33-1.53.33-1.52 0-2.4-1.13-.85-1.13-.85-3.02v-.17zm.94.17q0 1.52.62 2.43.63.9 1.86.9.9 0 1.5-.4.62-.42.95-1.15V6.06q-.33-.73-.9-1.2-.6-.47-1.55-.47-1.24 0-1.87 1-.64 1-.64 2.62v.17zM112.64 12.2h-.93V3.72h.95v8.46zm0-10.9h-.93V0h.95v1.3zM120.57 12.2q-.1-.44-.13-.75-.04-.32-.04-.64-.47.7-1.25 1.1-.78.46-1.76.46-1.25 0-1.94-.65-.68-.65-.68-1.75 0-1.17 1-1.88 1-.7 2.73-.7h1.88V6.3q0-.9-.6-1.4-.57-.52-1.6-.52-.98 0-1.63.5-.64.48-.64 1.2l-.85-.02v-.04q-.06-.95.85-1.7.9-.74 2.32-.74 1.4 0 2.25.7.84.72.84 2.05v4.15q0 .45.05.87.06.42.17.84h-.97zm-3.07-.68q1 0 1.78-.46.77-.48 1.12-1.22V8.08h-1.88q-1.28 0-2.04.55-.76.53-.76 1.34 0 .7.47 1.12.45.4 1.3.4zM127.7 4.54l-.7-.05q-.88 0-1.45.5-.56.47-.8 1.34v5.84h-.94V3.72h.84l.12 1.4v.1q.36-.78.98-1.2.62-.45 1.47-.45.2 0 .35.03.18.03.3.06l-.14.88zM130.3 12.2h-.93V3.72h.93v8.46zm0-10.9h-.93V0h.93v1.3zM137.94 10.04q0-.6-.5-1.04-.48-.45-1.75-.73-1.54-.32-2.26-.86-.72-.52-.72-1.5t.8-1.64q.83-.67 2.18-.67 1.44 0 2.27.7.84.7.8 1.76l-.02.05h-.86q0-.7-.6-1.2t-1.6-.5q-1.04 0-1.56.43-.5.44-.5 1.03 0 .6.43.97.45.38 1.77.67 1.5.33 2.26.9.76.6.76 1.6 0 1.05-.86 1.7-.86.65-2.26.65-1.54 0-2.42-.73-.88-.74-.83-1.75v-.05h.85q.06.9.75 1.33.7.4 1.64.4 1 0 1.6-.43.6-.45.6-1.08zM141.82 3.73l.1 1.4q.4-.74 1.06-1.15.68-.4 1.62-.4.97 0 1.62.47.65.47.94 1.43.38-.9 1.08-1.4.7-.5 1.73-.5 1.35 0 2.08.9.74.9.74 2.78v4.93h-.96V7.22q0-1.56-.55-2.2-.56-.65-1.54-.65-1.1 0-1.68.67-.6.68-.74 1.74 0 .06 0 .16t0 .15v5.08h-.94V7.23q0-1.53-.56-2.2-.56-.65-1.54-.65-1 0-1.57.5-.58.5-.82 1.35v5.94h-.9V3.72h.82zM162.26 11.56q.93 0 1.64-.53.7-.53.7-1.48h.84v.05q.05 1.17-.92 1.96-.98.8-2.26.8-1.73 0-2.67-1.2-.96-1.18-.96-3.04V7.8q0-1.85.94-3.03.94-1.2 2.65-1.2 1.4 0 2.3.83.94.82.9 2.15v.05h-.84q0-1-.7-1.62-.67-.6-1.66-.6-1.36 0-2 .97-.66.97-.66 2.45v.32q0 1.5.64 2.47.65.95 2.02.95zM168.34 5.18q.42-.76 1.13-1.18.7-.42 1.64-.42 1.36 0 2.07.83.72.84.72 2.6v5.2h-.95V6.96q0-1.37-.55-1.97-.55-.6-1.5-.6-.96 0-1.6.5-.65.5-.96 1.33v5.96h-.93V0h.95v5.18zM179.48 12.35q-1.6 0-2.64-1.17Q175.8 10 175.8 8.2v-.4q0-1.8 1.03-3 1.05-1.2 2.53-1.2 1.56 0 2.45.98.9 1 .9 2.63V8h-5.96v.22q0 1.44.76 2.4.75.96 1.98.96.87 0 1.5-.24.6-.24 1.05-.7l.4.65q-.48.5-1.22.8-.7.27-1.7.27zm-.1-7.97q-1.05 0-1.75.8-.7.78-.82 1.98l.03.04h4.96v-.24q0-1.1-.66-1.84-.65-.75-1.76-.75zM187.7 11.56q.92 0 1.63-.53.72-.53.72-1.48h.83v.05q.05 1.17-.92 1.96-.98.8-2.26.8-1.73 0-2.67-1.2-.94-1.18-.94-3.04V7.8q0-1.85.92-3.03.95-1.2 2.66-1.2 1.38 0 2.3.83.93.82.9 2.15v.05h-.85q0-1-.7-1.62-.67-.6-1.66-.6-1.37 0-2.02.97-.65.97-.65 2.45v.32q0 1.5.65 2.47.65.95 2.02.95zM194.87 8.07h-1.08v4.12h-.96V0h.94v7.27h.98l3.14-3.54h1.1v.04l-3.38 3.82 3.74 4.54-.03.04h-1.07l-3.4-4.13z"/></g><g fill="#929292"><path d="M7.12 31.23v6.75q0 1.63-1 2.5-1 .85-2.6.85-1.56 0-2.54-.86Q0 39.6 0 37.97v-6.74h.82v6.75q0 1.27.75 1.97t1.96.7q1.23 0 2-.7.78-.7.78-1.97v-6.75h.83zM10.07 33.8l.07 1.28q.36-.68.96-1.05.6-.38 1.44-.38 1.2 0 1.83.74.63.7.63 2.27v4.5h-.82v-4.5q0-1.26-.48-1.8-.47-.52-1.35-.52-.86 0-1.4.46-.55.46-.78 1.2v5.18h-.82v-7.4h.72zM18.05 41.2h-.8v-7.4h.8v7.4zm0-9.53h-.8v-1.15h.8v1.15zM20 37.55q0-1.77.73-2.83.76-1.07 2.1-1.07.75 0 1.32.33.58.3.94.9l.07-1.1h.7v10.25h-.8v-3.8q-.38.53-.95.8t-1.32.3q-1.3 0-2.07-.98-.74-1-.74-2.66v-.16zm.8.14q0 1.32.54 2.13.54.8 1.62.8.77 0 1.3-.34.5-.36.8-.95v-3.63q-.27-.6-.8-1-.5-.38-1.28-.38-1.08 0-1.63.9-.54.9-.54 2.3v.14zM32.95 39.98q-.36.65-.96 1t-1.44.35q-1.17 0-1.83-.8-.67-.78-.67-2.45v-4.3h.83v4.3q0 1.36.44 1.95.47.6 1.32.6.93 0 1.48-.43t.77-1.14V33.8h.83v7.4H33l-.06-1.22zM38.67 41.33q-1.4 0-2.3-1.02-.93-1-.93-2.6v-.36q0-1.58.9-2.63.93-1.04 2.23-1.04 1.36 0 2.14.87.8.86.8 2.3v.7h-5.23v.2q0 1.24.67 2.08.66.85 1.74.85.77 0 1.3-.2.55-.22.93-.62l.36.56q-.42.43-1.06.7-.65.24-1.53.24zm-.1-6.98q-.9 0-1.53.7-.6.7-.7 1.74h4.33v-.2q0-.96-.56-1.6-.55-.66-1.52-.66zM49.27 40.64q.82 0 1.44-.46.64-.47.64-1.3h.73v.05q.04 1.02-.8 1.7-.87.7-2 .7-1.5 0-2.32-1.03-.83-1.04-.83-2.67v-.28q0-1.62.84-2.66.83-1.06 2.33-1.06 1.2 0 2 .72t.8 1.9l-.03.03h-.73q0-.9-.6-1.4-.6-.56-1.46-.56-1.2 0-1.77.86-.56.85-.56 2.15v.28q0 1.32.57 2.16.58.83 1.78.83zM53.32 37.38q0-1.63.9-2.68t2.37-1.05q1.46 0 2.36 1.05.9 1.05.9 2.68v.23q0 1.66-.9 2.7-.9 1.04-2.37 1.04-1.5 0-2.4-1.04-.9-1.05-.9-2.7v-.22zm.82.23q0 1.3.65 2.18t1.8.87q1.13 0 1.8-.87.64-.88.64-2.16v-.22q0-1.26-.66-2.15-.66-.88-1.8-.88t-1.8.88q-.66.9-.66 2.15v.23zM62.3 33.8l.07 1.28q.36-.68.96-1.05.6-.38 1.43-.38 1.2 0 1.84.74.62.7.62 2.27v4.5h-.82v-4.5q0-1.26-.47-1.8-.48-.5-1.35-.5-.86 0-1.4.44-.55.46-.8 1.2v5.18h-.8v-7.4h.72zM70.65 31.9v1.9h1.63v.66h-1.63v4.82q0 .72.26 1.03.3.3.7.3.2 0 .4 0t.44-.05l.13.6q-.2.1-.5.14t-.6.04q-.77 0-1.2-.5-.44-.48-.44-1.55v-4.83h-1.28v-.67h1.28v-1.9h.83zM76.8 41.33q-1.4 0-2.32-1.02-.92-1-.92-2.6v-.36q0-1.58.9-2.63.93-1.04 2.23-1.04 1.34 0 2.12.87.77.86.77 2.3v.7h-5.23v.2q0 1.24.66 2.08.67.85 1.75.85.75 0 1.3-.2.53-.22.92-.62l.35.56q-.42.43-1.06.7-.64.24-1.5.24zm-.1-6.98q-.92 0-1.54.7-.6.7-.72 1.74h4.35v-.2q0-.96-.6-1.6-.55-.66-1.52-.66zM81.96 33.8l.07 1.28q.36-.68.96-1.05.6-.38 1.4-.38 1.2 0 1.85.74.62.7.62 2.27v4.5h-.82v-4.5q0-1.26-.47-1.8-.5-.5-1.36-.5-.86 0-1.4.44-.55.46-.8 1.2v5.18h-.8v-7.4h.72zM90.3 31.9v1.9h1.64v.66H90.3v4.82q0 .72.27 1.03.27.3.7.3.2 0 .4 0 .18 0 .42-.05l.1.6q-.2.1-.5.14t-.6.04q-.76 0-1.2-.5-.43-.48-.43-1.55v-4.83H88.2v-.67h1.28v-1.9h.83zM98 41.2h-.8v-7.4h.8v7.4zm0-9.53h-.8v-1.15h.8v1.15zM104.7 39.3q0-.5-.44-.9-.42-.4-1.54-.64-1.32-.28-1.96-.76-.63-.47-.63-1.33 0-.85.7-1.43.73-.6 1.9-.6 1.26 0 2 .64.72.6.68 1.54v.04h-.75q0-.6-.52-1.06-.5-.45-1.4-.45-.88 0-1.33.4-.46.37-.46.9 0 .5.4.84.38.32 1.53.57 1.32.3 1.98.8.65.5.65 1.4 0 .9-.75 1.48-.74.57-1.97.57-1.35 0-2.12-.64-.77-.65-.73-1.54l.02-.04h.75q.05.8.65 1.16.6.36 1.43.36.88 0 1.4-.4.5-.38.5-.93zM115.5 41.2q-.08-.4-.12-.66-.03-.27-.03-.56-.4.6-1.1.97-.68.38-1.53.38-1.08 0-1.68-.57-.6-.58-.6-1.54 0-1.03.88-1.64.9-.62 2.4-.62h1.63v-.9q0-.8-.5-1.26-.52-.45-1.43-.45-.86 0-1.43.43t-.58 1.06h-.75v-.05q-.05-.85.74-1.5.8-.66 2.04-.66 1.22 0 1.97.63.75.62.75 1.78v3.64q0 .4.04.75.04.37.14.73h-.85zm-2.7-.6q.9 0 1.57-.4.68-.42.98-1.06V37.6h-1.65q-1.1 0-1.78.47-.67.47-.67 1.18 0 .6.42.98.4.38 1.14.38zM127.7 37.7q0 1.66-.74 2.65-.75.98-2.07.98-.8 0-1.4-.3-.57-.3-.94-.83v3.83h-.82V33.8h.7l.1 1.14q.36-.62.94-.95.58-.36 1.37-.36 1.34 0 2.1 1.07.74 1.07.74 2.84v.14zm-.8-.15q0-1.4-.57-2.3-.56-.9-1.64-.9-.85 0-1.37.4-.5.4-.77 1.03v3.55q.28.6.8.96.54.33 1.33.33 1.07 0 1.62-.8.56-.8.56-2.15v-.15zM132.95 34.5l-.6-.05q-.78 0-1.28.44-.5.4-.7 1.17v5.1h-.82v-7.4h.7l.12 1.24v.1q.32-.7.86-1.07t1.28-.4q.18 0 .3.04.17.02.27.05l-.1.77zM135.22 41.2h-.8v-7.4h.8v7.4zm0-9.53h-.8v-1.15h.8v1.15zM137.02 37.38q0-1.63.9-2.68t2.37-1.05q1.46 0 2.36 1.05t.9 2.68v.23q0 1.66-.9 2.7-.9 1.04-2.37 1.04-1.5 0-2.4-1.04-.9-1.05-.9-2.7v-.22zm.82.23q0 1.3.65 2.18.63.87 1.8.87 1.13 0 1.8-.87.64-.88.64-2.16v-.22q0-1.26-.66-2.15-.66-.88-1.8-.88t-1.8.88q-.66.9-.66 2.15v.23zM148.67 34.5l-.6-.05q-.78 0-1.28.44-.5.4-.7 1.17v5.1h-.84v-7.4h.7l.12 1.24v.1q.3-.7.85-1.07t1.28-.4q.17 0 .3.04.16.02.26.05l-.1.77zM150.94 41.2h-.8v-7.4h.8v7.4zm0-9.53h-.8v-1.15h.8v1.15zM154.5 31.9v1.9h1.62v.66h-1.63v4.82q0 .72.24 1.03.27.3.7.3.2 0 .4 0 .18 0 .42-.05l.13.6q-.2.1-.5.14-.3.04-.6.04-.78 0-1.2-.5-.45-.48-.45-1.55v-4.83h-1.28v-.67h1.28v-1.9h.83zM159.95 39.2l.26.86h.06l2.24-6.28h.9l-3.2 8.57q-.3.75-.76 1.28-.45.53-1.34.53-.14 0-.34-.04-.2-.03-.3-.06l.1-.68q.07 0 .25.02.2.02.3.02.52 0 .84-.38.32-.38.55-.97l.4-1-2.88-7.3h.92l2.03 5.4zM168.72 41.2v-6.74h-1.22v-.67h1.22v-1.1q0-1.1.55-1.7.56-.63 1.57-.63.22 0 .46.03t.47.1l-.1.7q-.17-.05-.35-.07-.17-.03-.4-.03-.67 0-1.02.42-.36.43-.36 1.2v1.07h1.76v.65h-1.76v6.73h-.82zM172.27 37.38q0-1.63.9-2.68t2.37-1.05q1.48 0 2.38 1.05.9 1.05.9 2.68v.23q0 1.66-.9 2.7-.9 1.04-2.37 1.04-1.5 0-2.38-1.04-.9-1.05-.9-2.7v-.22zm.82.23q0 1.3.63 2.18.65.87 1.8.87t1.8-.87q.66-.88.66-2.16v-.22q0-1.26-.67-2.15-.65-.88-1.8-.88t-1.8.88q-.65.9-.65 2.15v.23zM183.92 34.5l-.6-.05q-.78 0-1.28.44-.5.4-.7 1.17v5.1h-.82v-7.4h.7l.12 1.24v.1q.32-.7.86-1.07t1.28-.4q.16 0 .3.04.15.02.25.05l-.1.77zM193.54 39.98q-.36.65-.96 1t-1.42.35q-1.17 0-1.83-.8-.66-.78-.66-2.45v-4.3h.82v4.3q0 1.36.43 1.95.47.6 1.32.6.93 0 1.48-.43t.77-1.14V33.8h.83v7.4h-.72l-.05-1.22zM200.92 39.3q0-.5-.43-.9t-1.56-.64q-1.32-.28-1.96-.76-.64-.47-.64-1.33 0-.85.7-1.43.73-.6 1.9-.6 1.26 0 2 .64.72.6.68 1.54v.04h-.77q0-.6-.52-1.06-.5-.45-1.4-.45-.88 0-1.33.4-.45.37-.45.9 0 .5.4.84.38.32 1.53.57 1.32.3 1.98.8.65.5.65 1.4 0 .9-.74 1.48-.74.57-1.97.57-1.35 0-2.1-.64-.8-.65-.75-1.54l.02-.04h.75q.05.8.65 1.16.6.36 1.43.36.9 0 1.4-.4.52-.38.52-.93zM204.62 41.2h-.94v-1.13h.94v1.12zM212.34 38.37l.3 1.53h.04l.38-1.53 2.1-7.14h.78l2.1 7.14.36 1.54h.04l.33-1.52 1.8-7.14h.83l-2.56 9.96h-.77l-2.24-7.65-.26-1.04h-.04l-.25 1.06-2.26 7.64h-.78l-2.55-9.97h.82l1.8 7.14zM225.48 41.33q-1.4 0-2.3-1.02-.93-1-.93-2.6v-.36q0-1.58.9-2.63.93-1.04 2.23-1.04 1.36 0 2.14.87.78.86.78 2.3v.7h-5.23v.2q0 1.24.67 2.08.66.85 1.74.85.77 0 1.3-.2.55-.22.93-.62l.37.56q-.42.43-1.06.7-.63.24-1.5.24zm-.1-6.98q-.9 0-1.53.7-.6.7-.7 1.74h4.33v-.2q0-.96-.56-1.6-.57-.66-1.54-.66zM234.94 38.8l.28 1.3h.04l.35-1.3 1.6-5h.7l1.57 5 .35 1.34h.06l.3-1.35 1.35-5h.86l-2.17 7.4h-.7l-1.63-5.08-.33-1.28h-.04l-.32 1.28-1.6 5.06h-.7l-2.16-7.4h.86l1.38 5zM247.36 34.5l-.6-.05q-.78 0-1.28.44-.5.4-.7 1.17v5.1h-.82v-7.4h.7l.12 1.24v.1q.32-.7.86-1.07t1.28-.4q.16 0 .3.04.15.02.25.05l-.1.77zM249.63 41.2h-.8v-7.4h.8v7.4zm0-9.53h-.8v-1.15h.8v1.15zM253.17 31.9v1.9h1.63v.66h-1.63v4.82q0 .72.26 1.03.27.3.7.3.2 0 .4 0 .18 0 .42-.05l.13.6q-.2.1-.5.14-.3.04-.6.04-.77 0-1.2-.5-.44-.48-.44-1.55v-4.83h-1.28v-.67h1.28v-1.9h.83zM259.3 41.33q-1.38 0-2.3-1.02-.92-1-.92-2.6v-.36q0-1.58.9-2.63.93-1.04 2.23-1.04 1.38 0 2.16.87.78.86.78 2.3v.7h-5.23v.2q0 1.24.68 2.08.66.85 1.74.85.78 0 1.32-.2.54-.22.92-.62l.35.56q-.42.43-1.06.7-.64.24-1.52.24zm-.1-6.98q-.9 0-1.52.7-.6.7-.7 1.74h4.33v-.2q0-.96-.54-1.6-.57-.66-1.54-.66zM271.85 41.2q-.08-.4-.12-.66-.03-.27-.03-.56-.4.6-1.1.97-.68.38-1.53.38-1.08 0-1.68-.57-.6-.58-.6-1.54 0-1.03.86-1.64.9-.62 2.4-.62h1.63v-.9q0-.8-.5-1.26-.53-.45-1.45-.45-.85 0-1.42.43-.56.43-.56 1.06h-.75v-.05q-.05-.85.74-1.5.8-.66 2.03-.66 1.2 0 1.96.63.74.62.74 1.78v3.64q0 .4.05.75.05.37.15.73h-.85zm-2.7-.6q.9 0 1.57-.4.68-.42.98-1.06V37.6h-1.65q-1.1 0-1.78.47-.67.47-.67 1.18 0 .6.42.98.4.38 1.14.38zM275.6 41.2h-.8V30.5h.8v10.7zM278.78 41.2h-.8V30.5h.8v10.7zM7.63 57.7q0 1.66-.75 2.65-.76.98-2.07.98-.76 0-1.35-.3-.58-.3-.95-.83v3.83h-.83V53.8h.7l.1 1.14q.36-.62.94-.95.6-.36 1.4-.36 1.34 0 2.1 1.07.74 1.07.74 2.84v.14zm-.82-.15q0-1.4-.54-2.3-.56-.88-1.64-.88-.82 0-1.34.4-.5.38-.77 1v3.57q.28.6.8.95.54.33 1.33.33 1.07 0 1.63-.8.56-.8.56-2.15v-.15zM14.15 61.2q-.08-.4-.12-.66-.03-.27-.03-.56-.4.6-1.1.97-.68.38-1.53.38-1.08 0-1.68-.57-.6-.58-.6-1.54 0-1.03.86-1.64.9-.62 2.4-.62H14v-.9q0-.8-.5-1.26-.52-.45-1.43-.45-.86 0-1.43.43-.56.43-.56 1.05h-.75v-.04q-.05-.85.74-1.5.8-.66 2.03-.66 1.22 0 1.97.63.74.62.74 1.78v3.64q0 .4.06.75t.15.73h-.84zm-2.7-.6q.9 0 1.57-.4.68-.42.98-1.06V57.6h-1.65q-1.1 0-1.78.47-.67.47-.67 1.18 0 .6.4.98.43.38 1.16.38zM22.94 57.7q0 1.66-.75 2.65-.77.98-2.1.98-.77 0-1.36-.3-.58-.3-.95-.83v3.83h-.83V53.8h.7l.1 1.14q.36-.62.94-.95.6-.36 1.4-.36 1.33 0 2.1 1.07.73 1.07.73 2.84v.14zm-.82-.15q0-1.4-.56-2.3-.56-.88-1.64-.88-.83 0-1.35.4-.5.38-.77 1v3.57q.28.6.8.95.54.33 1.33.33 1.08 0 1.63-.8.56-.8.56-2.15v-.15zM27.56 61.33q-1.4 0-2.3-1.02-.93-1-.93-2.6v-.36q0-1.58.9-2.63.92-1.04 2.22-1.04 1.36 0 2.14.87.76.86.76 2.3v.7h-5.22v.2q0 1.24.66 2.08.68.85 1.76.85.76 0 1.3-.2.54-.22.92-.62l.35.56q-.4.43-1.06.7-.63.24-1.5.24zm-.1-6.98q-.92 0-1.53.7-.62.7-.72 1.74h4.37v-.2q0-.96-.57-1.6-.58-.66-1.55-.66zM35.4 54.5l-.6-.05q-.78 0-1.28.44-.5.4-.7 1.17v5.1H32v-7.4h.72l.1 1.24v.1q.32-.7.86-1.07t1.3-.4q.14 0 .3.04.14.02.23.05l-.1.77zM41.2 59.3q0-.5-.44-.9-.43-.4-1.54-.64-1.33-.28-1.96-.76-.63-.47-.63-1.33 0-.85.7-1.43.73-.6 1.9-.6 1.25 0 1.98.64.76.6.7 1.54v.04h-.75q0-.6-.52-1.06-.5-.45-1.4-.45-.88 0-1.33.4-.46.37-.46.9 0 .5.38.84.4.32 1.55.57 1.32.3 1.97.8.66.5.66 1.4 0 .9-.75 1.48-.75.57-1.98.57-1.35 0-2.12-.64-.76-.65-.72-1.54v-.04h.76q.03.8.63 1.16.6.36 1.43.36.9 0 1.4-.4.52-.38.52-.93zM47.9 61.2v-6.74h-1.2v-.67h1.23v-1.1q0-1.1.56-1.7.55-.63 1.56-.63.22 0 .45.03t.48.1l-.1.7q-.16-.05-.34-.07-.16-.03-.4-.03-.66 0-1.02.42-.35.43-.35 1.2v1.07h1.76v.65h-1.77v6.73h-.82zM55.3 54.5l-.6-.05q-.77 0-1.27.44-.5.4-.7 1.17v5.1h-.82v-7.4h.73l.1 1.24v.1q.33-.7.87-1.07t1.27-.4q.16 0 .3.04.15.02.25.05l-.1.77zM56.07 57.38q0-1.63.9-2.68t2.37-1.05q1.48 0 2.37 1.05.9 1.05.9 2.68v.23q0 1.66-.9 2.7-.86 1.04-2.34 1.04-1.5 0-2.4-1.04-.88-1.05-.88-2.7v-.22zm.82.23q0 1.3.63 2.18t1.8.87q1.15 0 1.8-.87.66-.88.66-2.16v-.22q0-1.26-.67-2.15-.66-.88-1.8-.88t-1.8.88q-.65.9-.65 2.15v.23zM65 53.8l.1 1.2q.34-.63.93-1 .6-.35 1.4-.35.86 0 1.43.4.57.42.82 1.27.33-.78.95-1.22.62-.45 1.5-.45 1.2 0 1.83.8.65.78.65 2.42v4.32h-.8v-4.35q0-1.37-.5-1.93-.47-.56-1.33-.56-.95 0-1.47.6-.53.58-.65 1.5 0 .06 0 .15 0 .1 0 .14v4.44h-.82v-4.34q0-1.34-.5-1.9-.48-.6-1.33-.6-.87 0-1.38.45-.5.44-.7 1.2v5.2h-.84v-7.4H65zM84.58 59.3q0-.5-.43-.9-.42-.4-1.54-.64-1.3-.28-1.94-.76-.63-.47-.63-1.33 0-.85.7-1.43.73-.6 1.9-.6 1.26 0 2 .64.72.6.7 1.54l-.03.04h-.77q0-.6-.52-1.06-.5-.45-1.36-.45-.9 0-1.35.4-.46.37-.46.9 0 .5.4.84.38.32 1.53.57 1.32.3 1.98.8.65.5.65 1.4 0 .9-.76 1.48-.74.57-1.97.57-1.35 0-2.12-.64-.77-.65-.73-1.54l.02-.04h.75q.03.8.63 1.16.6.36 1.43.36.9 0 1.4-.4.5-.38.5-.93zM90.03 60.64q.8 0 1.43-.46.63-.47.63-1.3h.7v.05q.05 1.02-.8 1.7-.86.7-1.98.7-1.5 0-2.34-1.03-.83-1.04-.83-2.67v-.28q0-1.62.83-2.66.83-1.06 2.32-1.06 1.22 0 2.03.72.8.72.78 1.9v.03h-.73q0-.9-.62-1.4-.6-.56-1.46-.56-1.2 0-1.77.86-.57.85-.57 2.15v.28q0 1.32.56 2.16.57.83 1.77.83zM97.94 54.5l-.6-.05q-.78 0-1.28.44-.5.4-.7 1.17v5.1h-.83v-7.4h.72l.1 1.24v.1q.33-.7.87-1.07t1.28-.4q.16 0 .3.04.15.02.25.05l-.1.77zM103.97 61.2q-.08-.4-.12-.66-.03-.27-.03-.56-.4.6-1.1.97-.68.38-1.53.38-1.1 0-1.7-.57-.6-.58-.6-1.54 0-1.03.9-1.64.87-.62 2.4-.62h1.6v-.9q0-.8-.5-1.26-.5-.45-1.42-.45-.87 0-1.44.43-.56.43-.56 1.06h-.75v-.05q-.05-.85.74-1.5.8-.66 2.02-.66t1.96.63q.73.62.73 1.78v3.64q0 .4.03.75.05.37.15.73h-.85zm-2.7-.6q.9 0 1.57-.4.68-.42.98-1.06V57.6h-1.65q-1.1 0-1.78.47-.7.47-.7 1.18 0 .6.43.98.4.38 1.14.38zM108.1 51.9v1.9h1.63v.66h-1.63v4.82q0 .72.26 1.03.27.3.7.3.2 0 .4 0 .18 0 .42-.05l.13.6q-.2.1-.5.14-.3.04-.57.04-.78 0-1.22-.5-.42-.48-.42-1.55v-4.83H106v-.67h1.27v-1.9h.83zM114.2 60.64q.8 0 1.44-.46.62-.47.62-1.3h.72l.02.05q.03 1.02-.82 1.7-.86.7-1.98.7-1.5 0-2.34-1.03-.82-1.04-.82-2.67v-.28q0-1.62.83-2.66.83-1.06 2.32-1.06 1.2 0 2 .72t.8 1.9v.03h-.75q0-.9-.6-1.4-.6-.56-1.47-.56-1.2 0-1.77.86-.56.85-.56 2.15v.28q0 1.32.57 2.16.58.83 1.78.83zM119.53 55.06q.37-.67.98-1.04.64-.37 1.46-.37 1.17 0 1.8.73.62.72.62 2.25v4.56h-.82v-4.6q0-1.2-.48-1.7-.47-.54-1.3-.54-.85 0-1.4.44-.57.45-.84 1.18v5.2h-.82V50.53h.83v4.54zM134.6 61.2q-.08-.4-.12-.66-.03-.27-.03-.56-.4.6-1.1.97-.68.38-1.53.38-1.08 0-1.68-.57-.6-.58-.6-1.54 0-1.03.88-1.64.9-.62 2.4-.62h1.63v-.9q0-.8-.5-1.26-.52-.45-1.43-.45-.86 0-1.43.43t-.58 1.06h-.75v-.05q-.05-.85.74-1.5.8-.66 2.04-.66 1.22 0 1.97.63.75.62.75 1.78v3.64q0 .4.04.75.04.37.14.73h-.85zm-2.7-.6q.9 0 1.57-.4.68-.42.98-1.06V57.6h-1.65q-1.1 0-1.78.47-.67.47-.67 1.18 0 .6.42.98.4.38 1.14.38zM138.16 53.8l.08 1.28q.35-.68.95-1.05.6-.38 1.42-.38 1.2 0 1.83.74.63.7.63 2.27v4.5h-.83v-4.5q0-1.26-.48-1.8-.48-.5-1.36-.5-.85 0-1.4.44-.54.46-.77 1.2v5.18h-.82v-7.4h.73zM144.9 57.55q0-1.77.76-2.83.75-1.07 2.1-1.07.76 0 1.33.33.54.33.92.93v-4.37h.8V61.2h-.7l-.08-1.1q-.37.6-.95.92-.6.3-1.38.3-1.32 0-2.07-.97-.75-1-.75-2.66v-.16zm.83.14q0 1.32.53 2.12.54.8 1.62.8.8 0 1.32-.37.54-.35.83-.98V55.8q-.28-.63-.8-1.03-.5-.4-1.33-.4-1.08 0-1.63.88-.54.9-.54 2.3v.14zM161.12 61.2q-.08-.4-.12-.66-.03-.27-.03-.56-.4.6-1.1.97-.68.38-1.53.38-1.08 0-1.68-.57-.6-.58-.6-1.54 0-1.03.88-1.64.9-.62 2.4-.62h1.63v-.9q0-.8-.5-1.26-.52-.45-1.43-.45-.86 0-1.43.43-.54.43-.54 1.06h-.75v-.05q-.04-.85.75-1.5.8-.66 2.03-.66 1.22 0 1.97.63.74.62.74 1.78v3.64q0 .4.03.75.05.37.15.73h-.85zm-2.7-.6q.9 0 1.57-.4.66-.42.96-1.06V57.6h-1.65q-1.1 0-1.77.47-.67.47-.67 1.18 0 .6.42.98.4.38 1.13.38zM163.64 57.55q0-1.77.75-2.83.73-1.07 2.07-1.07.77 0 1.34.33.57.33.95.93v-4.37h.8V61.2h-.7l-.08-1.1q-.37.6-.95.92-.58.3-1.37.3-1.32 0-2.07-.97-.76-1-.76-2.66v-.16zm.82.14q0 1.32.53 2.12.52.8 1.6.8.8 0 1.32-.37.54-.35.83-.98V55.8q-.28-.63-.8-1.03-.5-.4-1.33-.4-1.08 0-1.63.88-.55.9-.55 2.3v.14zM171.43 57.55q0-1.77.75-2.83.75-1.07 2.1-1.07.76 0 1.33.33.58.33.96.93v-4.37h.8V61.2h-.7l-.08-1.1q-.37.6-.95.92t-1.37.3q-1.32 0-2.07-.97-.76-1-.76-2.66v-.16zm.82.14q0 1.32.53 2.12.54.8 1.62.8.8 0 1.32-.37.54-.35.83-.98V55.8q-.28-.63-.8-1.03-.5-.4-1.33-.4-1.08 0-1.63.88-.56.9-.56 2.3v.14zM180.46 61.2h-.8v-7.4h.8v7.4zm0-9.53h-.8v-1.15h.8v1.15zM184 51.9v1.9h1.63v.66H184v4.82q0 .72.26 1.03.27.3.7.3.2 0 .4 0 .18 0 .42-.05l.13.6q-.2.1-.5.14-.3.04-.57.04-.78 0-1.22-.5-.42-.48-.42-1.55v-4.83h-1.28v-.67h1.27v-1.9h.83zM188.28 61.2h-.8v-7.4h.8v7.4zm0-9.53h-.8v-1.15h.8v1.15zM190.08 57.38q0-1.63.9-2.68.9-1.05 2.37-1.05 1.48 0 2.38 1.05.9 1.05.9 2.68v.23q0 1.66-.9 2.7-.9 1.04-2.37 1.04-1.5 0-2.38-1.04-.9-1.05-.9-2.7v-.22zm.82.23q0 1.3.65 2.18.65.87 1.8.87t1.8-.87q.66-.88.66-2.16v-.22q0-1.26-.64-2.15-.65-.88-1.8-.88t-1.8.88q-.65.9-.65 2.15v.23zM199.06 53.8l.08 1.28q.35-.68.95-1.05.6-.38 1.42-.38 1.2 0 1.83.74.63.7.63 2.27v4.5h-.83v-4.5q0-1.26-.48-1.8-.48-.5-1.36-.5-.85 0-1.4.44-.54.46-.77 1.2v5.18h-.82v-7.4h.73zM210.8 61.2q-.07-.4-.1-.66-.04-.27-.04-.56-.4.6-1.1.97-.68.38-1.53.38-1.08 0-1.68-.57-.6-.58-.6-1.54 0-1.03.88-1.64.9-.62 2.4-.62h1.63v-.9q0-.8-.5-1.26-.52-.45-1.43-.45-.86 0-1.43.43-.56.43-.56 1.06H206l-.02-.05q-.04-.85.75-1.5.8-.66 2.03-.66 1.22 0 1.97.63.74.62.74 1.78v3.64q0 .4.04.75.07.37.17.73h-.85zm-2.68-.6q.9 0 1.56-.4.68-.42.98-1.06V57.6H209q-1.1 0-1.77.47-.67.47-.67 1.18 0 .6.42.98.4.38 1.14.38zM214.56 61.2h-.8V50.5h.8v10.7zM217.73 61.2h-.8V50.5h.8v10.7zM222.1 59.2l.25.86h.04l2.22-6.28h.9l-3.2 8.57q-.3.75-.75 1.28t-1.34.53q-.14 0-.34-.04-.2-.03-.3-.06l.1-.68q.06 0 .24.02t.27.02q.54 0 .86-.38.32-.38.55-.97l.4-1-2.86-7.3h.9l2.04 5.4zM229.95 57.55q0-1.77.75-2.83.75-1.07 2.1-1.07.76 0 1.33.33.56.33.94.93v-4.37h.8V61.2h-.7l-.08-1.1q-.4.6-.97.92-.58.3-1.37.3-1.32 0-2.07-.97-.76-1-.76-2.66v-.16zm.82.14q0 1.32.53 2.12.54.8 1.62.8.8 0 1.32-.37.54-.35.83-.98V55.8q-.28-.63-.8-1.03-.5-.4-1.33-.4-1.08 0-1.63.88-.52.9-.52 2.3v.14zM237.6 57.38q0-1.63.9-2.68.9-1.05 2.37-1.05 1.48 0 2.38 1.05.9 1.05.9 2.68v.23q0 1.66-.9 2.7-.9 1.04-2.37 1.04-1.5 0-2.38-1.04-.9-1.05-.9-2.7v-.22zm.82.23q0 1.3.65 2.18.65.87 1.8.87t1.8-.87q.66-.88.66-2.16v-.22q0-1.26-.66-2.15-.65-.88-1.8-.88t-1.8.88q-.65.9-.65 2.15v.23zM248.95 57.55q0-1.77.75-2.83.75-1.07 2.1-1.07.76 0 1.33.33.56.33.94.93v-4.37h.8V61.2h-.7l-.08-1.1q-.4.6-.97.92-.58.3-1.37.3-1.32 0-2.07-.97-.76-1-.76-2.66v-.16zm.82.14q0 1.32.53 2.12.54.8 1.62.8.8 0 1.32-.37.54-.35.83-.98V55.8q-.28-.63-.8-1.03-.5-.4-1.33-.4-1.08 0-1.63.88-.52.9-.52 2.3v.14zM259.84 61.33q-1.4 0-2.3-1.02-.93-1-.93-2.6v-.36q0-1.58.93-2.63.92-1.04 2.22-1.04 1.36 0 2.14.87.77.86.77 2.3v.7h-5.23v.2q0 1.24.67 2.08.67.85 1.75.85.77 0 1.3-.2.55-.22.93-.62l.35.56q-.42.43-1.06.7-.64.24-1.52.24zm-.1-6.98q-.9 0-1.53.7-.6.7-.7 1.74h4.35v-.2q0-.96-.56-1.6-.58-.66-1.55-.66zM267.06 61.33q-1.4 0-2.3-1.02-.93-1-.93-2.6v-.36q0-1.58.9-2.63.93-1.04 2.23-1.04 1.36 0 2.14.87.78.86.78 2.3v.7h-5.23v.2q0 1.24.67 2.08.66.85 1.74.85.77 0 1.3-.2.55-.22.93-.62l.33.56q-.42.43-1.06.7-.64.24-1.52.24zm-.1-6.98q-.9 0-1.53.7-.6.7-.7 1.74h4.33v-.2q0-.96-.56-1.6-.57-.66-1.54-.66zM277.46 57.7q0 1.66-.75 2.65-.73.98-2.05.98-.78 0-1.37-.3-.58-.3-.95-.83v3.83h-.82V53.8h.7l.1 1.14q.37-.62.95-.95.6-.36 1.38-.36 1.34 0 2.1 1.07.74 1.07.74 2.84v.14zm-.82-.15q0-1.4-.56-2.3-.56-.9-1.64-.9-.83 0-1.35.4-.53.4-.8 1.03v3.55q.3.6.8.96.55.33 1.34.33 1.08 0 1.63-.8.56-.8.56-2.15v-.15zM8.37 77.7q0 1.66-.75 2.65-.76.98-2.08.98-.78 0-1.36-.3-.58-.3-.95-.83v3.83H2.4V73.8h.7l.1 1.14q.37-.62.95-.95.6-.36 1.38-.36 1.33 0 2.1 1.07.74 1.07.74 2.84v.14zm-.82-.15q0-1.4-.56-2.3-.58-.88-1.66-.88-.83 0-1.35.4-.5.38-.78 1v3.57q.28.6.8.95.54.33 1.33.33 1.07 0 1.63-.8.55-.8.55-2.15v-.15zM11.12 81.2h-.8V70.5h.8v10.7zM18.06 81.2q-.08-.4-.12-.66-.03-.27-.03-.56-.4.6-1.07.97-.7.38-1.54.38-1.1 0-1.7-.57-.6-.58-.6-1.54 0-1.03.9-1.64.9-.62 2.4-.62h1.62v-.9q0-.8-.5-1.26-.5-.45-1.42-.45-.86 0-1.43.43-.56.43-.56 1.06h-.75v-.05q-.05-.85.74-1.5.8-.66 2.02-.66 1.23 0 1.98.63.74.62.74 1.78v3.64q0 .4.05.75.03.37.14.73h-.86zm-2.7-.6q.9 0 1.57-.4.68-.42.98-1.06V77.6h-1.63q-1.1 0-1.78.47-.67.47-.67 1.18 0 .6.4.98.42.38 1.15.38zM20.58 77.55q0-1.77.75-2.83.76-1.07 2.1-1.07.8 0 1.36.35.56.34.93.97l.1-1.18h.7v7.3q0 1.4-.8 2.24-.8.83-2.2.83-.53 0-1.13-.13-.6-.13-1.04-.36l.2-.7q.44.22.93.33.47.1 1.02.1 1.08 0 1.63-.6.55-.62.55-1.73v-.94q-.37.56-.94.87-.57.3-1.34.3-1.33 0-2.1-1-.74-.98-.74-2.64v-.15zm.82.14q0 1.32.54 2.12.55.8 1.63.8.8 0 1.32-.37.5-.36.8-1v-3.43q-.27-.64-.8-1.05-.5-.4-1.33-.4-1.08 0-1.63.87-.55.9-.55 2.3v.14zM29.6 81.2h-.8v-7.4h.8v7.4zm0-9.53h-.8v-1.15h.8v1.15zM36.55 81.2q-.1-.4-.12-.66-.04-.27-.04-.56-.43.6-1.1.97-.7.38-1.55.38-1.08 0-1.68-.57-.6-.58-.6-1.54 0-1.03.9-1.64.88-.62 2.38-.62h1.63v-.9q0-.8-.52-1.26-.5-.45-1.42-.45-.85 0-1.42.43-.56.43-.56 1.06h-.75v-.05q-.04-.85.75-1.5.8-.66 2.03-.66 1.22 0 1.96.63.75.62.75 1.78v3.64q0 .4.04.75.05.37.15.73h-.86zm-2.7-.6q.9 0 1.57-.4.67-.42.97-1.06V77.6h-1.66q-1.12 0-1.8.47-.65.47-.65 1.18 0 .6.4.98.42.38 1.15.38zM42.8 74.5l-.62-.05q-.77 0-1.27.44-.5.4-.7 1.17v5.1h-.8v-7.4h.7l.1 1.24v.1q.33-.7.87-1.07t1.3-.4q.15 0 .3.04.14.02.24.05l-.1.77zM45.06 81.2h-.82v-7.4h.82v7.4zm0-9.53h-.82v-1.15h.82v1.15zM51.74 79.3q0-.5-.43-.9-.4-.4-1.52-.64-1.32-.28-1.96-.76-.62-.47-.62-1.33 0-.85.7-1.43.73-.6 1.9-.6 1.26 0 2 .64.72.6.7 1.54l-.03.04h-.76q0-.6-.52-1.06-.5-.45-1.38-.45-.9 0-1.36.4-.45.37-.45.9 0 .5.37.84.4.32 1.54.57 1.33.3 2 .8.64.5.64 1.4 0 .9-.75 1.48-.75.57-1.98.57-1.35 0-2.12-.64-.76-.65-.72-1.54l.02-.04h.75q.05.8.65 1.16.6.36 1.43.36.9 0 1.4-.4.5-.38.5-.93zM55.14 73.8l.07 1.2q.38-.63.97-1 .6-.35 1.4-.35.86 0 1.43.4.56.42.8 1.27.34-.78.96-1.22.62-.45 1.5-.45 1.2 0 1.83.8.63.78.63 2.42v4.32h-.82v-4.35q0-1.37-.5-1.93-.46-.56-1.32-.56-.96 0-1.48.6-.52.58-.64 1.5 0 .06 0 .15 0 .1 0 .14v4.44h-.82v-4.34q0-1.34-.5-1.9-.48-.6-1.33-.6-.86 0-1.37.45-.5.44-.72 1.2v5.2h-.8v-7.4h.73zM73.02 80.64q.8 0 1.44-.46.62-.47.62-1.3h.72l.02.05q.03 1.02-.82 1.7-.86.7-1.98.7-1.5 0-2.34-1.03-.82-1.04-.82-2.67v-.28q0-1.62.83-2.66.8-1.06 2.3-1.06 1.22 0 2.03.72.8.72.78 1.9v.03h-.73q0-.9-.6-1.4-.6-.56-1.47-.56-1.18 0-1.75.86-.57.85-.57 2.15v.28q0 1.32.57 2.16.57.83 1.77.83zM78.35 75.06q.37-.67.98-1.04.62-.37 1.44-.37 1.17 0 1.8.73.62.72.62 2.25v4.56h-.84v-4.6q0-1.2-.48-1.7-.48-.54-1.32-.54-.84 0-1.4.44-.57.45-.83 1.18v5.2h-.82V70.53h.83v4.54zM88.1 81.33q-1.4 0-2.32-1.02-.9-1-.9-2.6v-.36q0-1.58.9-2.63.9-1.04 2.2-1.04 1.37 0 2.15.87.78.86.78 2.3v.7h-5.2v.2q0 1.24.66 2.08.66.85 1.74.85.76 0 1.3-.2.54-.22.92-.62l.35.56q-.4.43-1.06.7-.6.24-1.5.24zm-.1-6.98q-.92 0-1.53.7-.62.7-.72 1.74h4.35v-.2q0-.96-.57-1.6-.57-.66-1.54-.66zM95.28 80.64q.8 0 1.43-.46.65-.47.65-1.3h.72v.05q.05 1.02-.8 1.7-.86.7-1.98.7-1.5 0-2.35-1.03-.82-1.04-.82-2.67v-.28q0-1.62.83-2.66.83-1.06 2.32-1.06 1.22 0 2.03.72.8.72.8 1.9v.03h-.75q0-.9-.6-1.4-.6-.56-1.47-.56-1.2 0-1.76.86-.56.85-.56 2.15v.28q0 1.32.57 2.16.58.83 1.78.83zM101.55 77.58h-.94v3.6h-.8V70.53h.8v6.36h.88l2.75-3.1h.95l.02.04-2.97 3.33 3.26 4-.04.03h-.93l-3-3.6zM111.7 78.8l.27 1.3h.04l.37-1.3 1.57-5h.7l1.58 5 .36 1.34h.05l.3-1.35 1.36-5h.84L117 81.2h-.7l-1.64-5.08-.33-1.28h-.05l-.32 1.28-1.62 5.06h-.7l-2.14-7.4h.85l1.4 5zM121.62 81.2h-.8v-7.4h.8v7.4zm0-9.53h-.8v-1.15h.8v1.15zM125.16 71.9v1.9h1.63v.66h-1.65v4.82q0 .72.26 1.03.28.3.7.3.2 0 .4 0t.43-.05l.13.6q-.2.1-.5.14-.3.04-.6.04-.77 0-1.2-.5-.44-.48-.44-1.55v-4.83h-1.28v-.67h1.28v-1.9h.83zM129.34 75.06q.37-.67.98-1.04.62-.37 1.44-.37 1.17 0 1.8.73.62.72.62 2.25v4.56h-.82v-4.6q0-1.2-.48-1.7-.47-.54-1.3-.54-.85 0-1.4.44-.57.45-.84 1.18v5.2h-.82V70.53h.82v4.54zM144.16 79.3q0-.5-.43-.9-.42-.4-1.54-.64-1.34-.28-1.98-.76-.63-.47-.63-1.33 0-.85.7-1.43.72-.6 1.9-.6 1.25 0 2 .64.7.6.67 1.54v.04h-.77q0-.6-.5-1.06-.52-.45-1.4-.45-.9 0-1.34.4-.45.37-.45.9 0 .5.4.84.4.32 1.55.57 1.32.3 1.98.8.65.5.65 1.4 0 .9-.75 1.48-.74.57-1.97.57-1.35 0-2.12-.64-.77-.65-.73-1.54l.03-.04h.75q.05.8.65 1.16.6.36 1.43.36.88 0 1.4-.4.5-.38.5-.93zM152.82 77.7q0 1.66-.75 2.65-.75.98-2.07.98-.78 0-1.37-.3-.58-.3-.95-.83v3.83h-.82V73.8h.7l.1 1.14q.36-.62.94-.95.6-.36 1.38-.36 1.34 0 2.1 1.07.74 1.07.74 2.84v.14zm-.82-.15q0-1.4-.56-2.3-.56-.9-1.64-.9-.83 0-1.35.4-.5.4-.77 1.03v3.55q.28.6.8.96.54.33 1.33.33 1.1 0 1.65-.8.56-.8.56-2.15v-.15zM157.44 81.33q-1.4 0-2.3-1.02-.93-1-.93-2.6v-.36q0-1.58.93-2.63.92-1.04 2.22-1.04 1.36 0 2.14.87.77.86.77 2.3v.7h-5.23v.2q0 1.24.67 2.08.67.85 1.75.85.77 0 1.3-.2.55-.22.93-.62l.35.56q-.42.43-1.06.7-.64.24-1.52.24zm-.1-6.98q-.9 0-1.53.7-.6.7-.7 1.74h4.35v-.2q0-.96-.56-1.6-.58-.66-1.55-.66zM164.62 80.64q.8 0 1.44-.46.62-.47.62-1.3h.72l.02.05q.03 1.02-.82 1.7-.86.7-1.98.7-1.5 0-2.34-1.03-.82-1.04-.82-2.67v-.28q0-1.62.83-2.66.8-1.06 2.3-1.06 1.22 0 2.03.72.8.72.78 1.9v.03h-.73q0-.9-.6-1.4-.6-.56-1.47-.56-1.18 0-1.75.86-.57.85-.57 2.15v.28q0 1.32.57 2.16.57.83 1.77.83zM170.04 81.2h-.8v-7.4h.8v7.4zm0-9.53h-.8v-1.15h.8v1.15zM176.98 81.2q-.08-.4-.12-.66-.03-.27-.03-.56-.4.6-1.1.97-.68.38-1.53.38-1.08 0-1.68-.57-.6-.58-.6-1.54 0-1.03.88-1.64.9-.62 2.4-.62h1.63v-.9q0-.8-.5-1.26-.52-.45-1.43-.45-.86 0-1.43.43-.56.43-.56 1.06h-.73v-.05q-.05-.85.74-1.5.8-.66 2.04-.66 1.22 0 1.97.63.75.62.75 1.78v3.64q0 .4.04.75.04.37.14.73H177zm-2.7-.6q.9 0 1.57-.4.68-.42.98-1.06V77.6h-1.65q-1.1 0-1.78.47-.67.47-.67 1.18 0 .6.42.98.4.38 1.14.38zM180.74 81.2h-.8V70.5h.8v10.7zM190.84 79.3q0-.5-.43-.9-.4-.4-1.52-.64-1.32-.28-1.96-.76-.62-.47-.62-1.33 0-.85.7-1.43.73-.6 1.9-.6 1.26 0 2 .64.72.6.68 1.54v.04h-.77q0-.6-.52-1.06-.5-.45-1.4-.45-.88 0-1.33.4-.45.37-.45.9 0 .5.38.84.4.32 1.54.57 1.32.3 1.98.8.65.5.65 1.4 0 .9-.75 1.48-.74.57-1.97.57-1.35 0-2.12-.64-.75-.65-.7-1.54v-.04h.76q.05.8.65 1.16.6.36 1.44.36.88 0 1.4-.4.5-.38.5-.93zM193.1 77.38q0-1.63.9-2.68t2.36-1.05q1.48 0 2.38 1.05.9 1.05.9 2.68v.23q0 1.66-.9 2.7-.9 1.04-2.37 1.04-1.5 0-2.38-1.04-.9-1.05-.9-2.7v-.22zm.8.23q0 1.3.66 2.18.65.87 1.8.87t1.8-.87q.66-.88.66-2.16v-.22q0-1.26-.66-2.15-.65-.88-1.8-.88t-1.8.88q-.65.9-.65 2.15v.23zM201.93 81.2v-6.74h-1.22v-.67h1.24v-1.1q0-1.1.55-1.7.55-.63 1.56-.63.22 0 .46.03t.48.1l-.1.7q-.17-.05-.35-.07-.17-.03-.4-.03-.67 0-1.02.42-.35.43-.35 1.2v1.07h1.76v.65h-1.75v6.73h-.83zM207.22 71.9v1.9h1.63v.66h-1.63v4.82q0 .72.26 1.03.27.3.7.3.2 0 .4 0 .18 0 .42-.05l.13.6q-.2.1-.5.14-.3.04-.6.04-.77 0-1.2-.5-.44-.48-.44-1.55v-4.83h-1.3v-.67h1.3v-1.9h.8zM212.17 78.8l.28 1.3h.04l.33-1.3 1.57-5h.72l1.57 5 .33 1.34h.05l.3-1.35 1.34-5h.85l-2.17 7.4h-.7l-1.63-5.08-.33-1.28h-.04l-.32 1.28-1.6 5.06h-.7l-2.16-7.4h.85l1.37 5zM225.87 81.2q-.08-.4-.12-.66-.03-.27-.03-.56-.4.6-1.1.97-.68.38-1.53.38-1.1 0-1.7-.57-.6-.58-.6-1.54 0-1.03.9-1.64.87-.62 2.4-.62h1.6v-.9q0-.8-.5-1.26-.5-.45-1.42-.45-.87 0-1.44.43-.56.43-.56 1.06h-.75v-.05q-.05-.85.74-1.5.8-.66 2.02-.66t1.96.63q.73.62.73 1.78v3.64q0 .4.03.75.05.37.15.73h-.85zm-2.7-.6q.9 0 1.57-.4.68-.42.98-1.06V77.6h-1.65q-1.1 0-1.78.47-.7.47-.7 1.18 0 .6.43.98.4.38 1.14.38zM232.1 74.5l-.6-.05q-.77 0-1.27.44-.5.4-.7 1.17v5.1h-.82v-7.4h.73l.1 1.24v.1q.33-.7.87-1.07t1.27-.4q.16 0 .3.04.15.02.25.05l-.1.77zM236.1 81.33q-1.38 0-2.3-1.02-.92-1-.92-2.6v-.36q0-1.58.9-2.63.93-1.04 2.23-1.04 1.38 0 2.16.87.78.86.78 2.3v.7h-5.23v.2q0 1.24.68 2.08.66.85 1.74.85.78 0 1.32-.2.54-.22.92-.62l.35.56q-.42.43-1.06.7-.64.24-1.52.24zm-.1-6.98q-.9 0-1.52.7-.6.7-.7 1.74h4.33v-.2q0-.96-.54-1.6-.57-.66-1.54-.66zM241.55 81.2h-.94v-1.13h.96v1.12zM253.22 78.75q0-.82-.6-1.33-.62-.52-2.13-.92-1.65-.4-2.5-1.06-.83-.66-.83-1.77 0-1.14.93-1.86.96-.7 2.43-.7 1.54 0 2.48.86.97.85.94 2.08l-.02.04h-.74q0-1-.7-1.64-.72-.64-1.93-.64-1.2 0-1.87.52-.67.53-.67 1.33 0 .75.6 1.26.64.5 2.17.9 1.6.4 2.44 1.1.85.7.85 1.84 0 1.2-.98 1.9-.97.7-2.48.7-1.5 0-2.6-.74-1.1-.77-1.1-2.2l.03-.04h.75q0 1.16.87 1.72t2.04.56q1.17 0 1.9-.52t.73-1.37zM260.57 79.98q-.36.65-.96 1t-1.4.35q-1.17 0-1.83-.8-.66-.78-.66-2.45v-4.3h.83v4.3q0 1.36.45 1.95.47.6 1.32.6.92 0 1.47-.43t.77-1.14V73.8h.82v7.4h-.72l-.07-1.22zM266.26 80.64q.8 0 1.44-.46.62-.47.62-1.3h.72l.02.05q.03 1.02-.82 1.7-.86.7-1.98.7-1.5 0-2.34-1.03-.82-1.04-.82-2.67v-.28q0-1.62.83-2.66.83-1.06 2.32-1.06 1.22 0 2.03.72.8.72.78 1.9v.03h-.74q0-.9-.6-1.4-.6-.56-1.47-.56-1.2 0-1.76.86-.6.85-.6 2.15v.28q0 1.32.58 2.16.56.83 1.76.83zM271.58 75.06q.37-.67.98-1.04.62-.37 1.44-.37 1.17 0 1.8.73.62.72.62 2.25v4.56h-.82v-4.6q0-1.2-.48-1.7-.47-.54-1.3-.54-.85 0-1.4.44-.57.45-.84 1.18v5.2h-.82V70.53h.82v4.54zM12.44 97.7q0 1.66-.75 2.65-.77.98-2.1.98-.77 0-1.36-.3-.58-.3-.95-.83v3.83h-.83V93.8h.7l.1 1.14q.36-.62.94-.95.6-.36 1.4-.36 1.33 0 2.1 1.07.73 1.07.73 2.84v.14zm-.82-.15q0-1.4-.56-2.3-.56-.88-1.64-.88-.83 0-1.35.4-.5.38-.77 1v3.57q.28.6.8.95.54.33 1.33.33 1.08 0 1.63-.8.56-.8.56-2.15v-.15zM17.68 94.5l-.6-.05q-.78 0-1.27.44-.5.4-.7 1.17v5.1h-.8v-7.4h.7l.1 1.24v.1q.32-.7.86-1.07t1.3-.4q.14 0 .3.04.14.02.23.05l-.1.77zM18.44 97.38q0-1.63.9-2.68t2.37-1.05q1.5 0 2.4 1.05.9 1.05.9 2.68v.23q0 1.66-.9 2.7-.9 1.04-2.37 1.04-1.5 0-2.38-1.04-.9-1.05-.9-2.7v-.22zm.82.23q0 1.3.65 2.18t1.83.87q1.15 0 1.8-.87.65-.88.65-2.16v-.22q0-1.26-.65-2.15-.66-.88-1.8-.88t-1.8.88q-.66.9-.66 2.15v.23zM29.44 100.64q.8 0 1.43-.46.62-.47.62-1.3h.7v.04q.06 1.03-.8 1.72-.85.7-1.97.7-1.5 0-2.34-1.04-.83-1.04-.83-2.67v-.28q0-1.62.82-2.66.82-1.06 2.32-1.06 1.22 0 2.02.72.82.72.8 1.9l-.03.03h-.72q0-.9-.6-1.43-.6-.53-1.47-.53-1.2 0-1.75.86-.57.85-.57 2.15v.28q0 1.3.57 2.16.56.83 1.77.83zM36.72 101.33q-1.4 0-2.3-1.03-.93-1.02-.93-2.6v-.37q0-1.58.9-2.63.9-1.05 2.2-1.05 1.36 0 2.14.86.78.9.78 2.3v.7H34.3v.2q0 1.27.67 2.1.67.85 1.75.85.76 0 1.3-.2.54-.22.92-.62l.35.56q-.43.43-1.08.7-.63.24-1.5.24zm-.1-6.98q-.92 0-1.53.7-.64.7-.74 1.73v.04h4.35v-.2q0-.97-.56-1.62-.57-.65-1.54-.65zM40.84 97.55q0-1.77.74-2.83.76-1.07 2.1-1.07.77 0 1.33.33.6.33.97.93v-4.37h.8v10.67h-.7l-.08-1.1q-.38.6-.96.92-.58.3-1.37.3-1.33 0-2.08-.97-.75-1-.75-2.66v-.16zm.82.14q0 1.32.53 2.12.52.8 1.6.8.8 0 1.32-.37.53-.35.83-.98V95.8q-.28-.63-.8-1.03-.5-.4-1.33-.4-1.08 0-1.63.88-.55.9-.55 2.3v.14zM53.8 99.98q-.36.65-.96 1t-1.42.35q-1.17 0-1.83-.8-.7-.78-.7-2.45v-4.3h.84v4.3q0 1.36.45 1.95.46.6 1.3.6.94 0 1.5-.43.54-.4.76-1.14V93.8h.82v7.4h-.73l-.07-1.22zM60.15 94.5l-.6-.05q-.78 0-1.28.44-.5.4-.7 1.17v5.1h-.83v-7.4h.72l.1 1.24v.1q.33-.7.87-1.07t1.28-.4q.18 0 .3.04.17.02.27.05l-.1.77zM64.14 101.33q-1.4 0-2.3-1.03-.92-1.02-.92-2.6v-.37q0-1.58.9-2.63.92-1.05 2.22-1.05 1.36 0 2.14.86.78.9.78 2.3v.7h-5.22v.2q0 1.27.66 2.1.66.85 1.74.85.77 0 1.3-.2.55-.22.93-.62l.35.56q-.42.43-1.06.7-.64.24-1.52.24zm-.1-6.98q-.9 0-1.52.7t-.72 1.73v.04h4.34v-.2q0-.97-.56-1.62-.57-.65-1.54-.65zM74.78 101.33q-1.4 0-2.3-1.03-.93-1.02-.93-2.6v-.37q0-1.58.9-2.63.93-1.05 2.23-1.05 1.36 0 2.14.86.77.9.77 2.3v.7h-5.24v.2q0 1.27.66 2.1.67.85 1.75.85.76 0 1.3-.2.54-.22.93-.62l.36.56q-.42.43-1.06.7-.64.24-1.52.24zm-.1-6.98q-.9 0-1.53.7-.6.7-.72 1.73l.02.04h4.33v-.2q0-.97-.57-1.62-.54-.65-1.5-.65zM79.95 93.8l.07 1.28q.36-.68.96-1.05.6-.38 1.43-.38 1.23 0 1.86.74.62.7.62 2.27v4.5h-.82v-4.5q0-1.26-.47-1.8-.5-.5-1.36-.5-.86 0-1.4.44-.55.46-.8 1.2v5.18h-.8v-7.4h.72zM91.44 99.3q0-.5-.43-.9-.4-.4-1.5-.64-1.34-.28-1.98-.76-.62-.47-.62-1.33 0-.85.72-1.43.7-.6 1.9-.6 1.24 0 1.97.64.72.6.7 1.54l-.03.04h-.75q0-.6-.52-1.06-.52-.45-1.4-.45-.9 0-1.34.4-.44.37-.44.9 0 .5.38.84.4.32 1.55.57 1.3.3 1.97.8.66.5.66 1.4 0 .9-.75 1.48-.74.57-1.97.57-1.35 0-2.12-.64-.75-.65-.7-1.54v-.04h.75q.04.8.64 1.16.6.36 1.43.36.9 0 1.4-.4.5-.38.5-.93zM99 99.98q-.36.65-.96 1t-1.42.35q-1.17 0-1.83-.8-.7-.78-.7-2.45v-4.3h.83v4.3q0 1.36.46 1.95.46.6 1.3.6.93 0 1.5-.43.54-.4.76-1.14V93.8h.82v7.4h-.73L99 99.97zM105.35 94.5l-.6-.05q-.78 0-1.28.44-.5.4-.7 1.17v5.1h-.82v-7.4h.7l.12 1.24v.1q.32-.7.86-1.07t1.28-.4q.18 0 .3.04.17.02.27.05l-.1.77zM109.34 101.33q-1.4 0-2.3-1.03-.93-1.02-.93-2.6v-.37q0-1.58.93-2.63.92-1.05 2.22-1.05 1.36 0 2.14.86.77.9.77 2.3v.7h-5.23v.2q0 1.27.67 2.1.67.85 1.75.85.77 0 1.3-.2.55-.22.93-.62l.35.56q-.42.43-1.06.7-.64.24-1.52.24zm-.1-6.98q-.9 0-1.53.7-.6.7-.7 1.73v.04h4.35v-.2q0-.97-.56-1.62-.58-.65-1.55-.65zM118.2 99.3q0-.5-.42-.9t-1.54-.64q-1.32-.28-1.96-.76-.63-.47-.63-1.33 0-.85.7-1.43.73-.6 1.9-.6 1.26 0 2 .64.72.6.68 1.54v.04h-.77q0-.6-.52-1.06-.5-.45-1.4-.45-.88 0-1.33.4-.43.37-.43.9 0 .5.4.84.38.32 1.53.57 1.3.3 1.97.8.65.5.65 1.4 0 .9-.75 1.48-.74.57-1.97.57-1.35 0-2.12-.64-.77-.65-.73-1.54l.02-.04h.75q.05.8.65 1.16.6.36 1.43.36.88 0 1.4-.4.5-.38.5-.93zM127.08 100.64q.8 0 1.44-.46.62-.47.62-1.3h.72l.02.04q.03 1.03-.82 1.72-.86.7-1.98.7-1.5 0-2.34-1.04-.82-1.04-.82-2.67v-.28q0-1.62.83-2.66.83-1.06 2.32-1.06 1.22 0 2.03.72.8.72.78 1.9v.03h-.74q0-.9-.6-1.43-.6-.53-1.47-.53-1.2 0-1.76.86-.55.85-.55 2.15v.28q0 1.3.57 2.16.58.83 1.78.83zM131.13 97.38q0-1.63.9-2.68t2.37-1.05q1.48 0 2.38 1.05.9 1.05.9 2.68v.23q0 1.66-.9 2.7-.9 1.04-2.37 1.04-1.47 0-2.36-1.04-.9-1.05-.9-2.7v-.22zm.82.23q0 1.3.65 2.18t1.8.87q1.15 0 1.8-.87.66-.88.66-2.16v-.22q0-1.26-.66-2.15-.65-.88-1.8-.88t-1.8.88q-.65.9-.65 2.15v.23zM140.1 93.8l.08 1.28q.35-.68.95-1.05.6-.38 1.44-.38 1.2 0 1.83.74.63.7.63 2.27v4.5h-.82v-4.5q0-1.26-.46-1.8-.47-.5-1.35-.5-.87 0-1.4.44-.56.46-.8 1.2v5.18h-.8v-7.4h.7zM148.46 91.9v1.9h1.63v.66h-1.65v4.82q0 .72.26 1.03.28.3.7.3.2 0 .4 0t.43-.05l.13.6q-.2.1-.5.14-.3.04-.6.04-.77 0-1.2-.5-.44-.48-.44-1.55v-4.83h-1.28v-.67h1.28v-1.9h.83zM154.6 101.33q-1.4 0-2.32-1.03-.92-1.02-.92-2.6v-.37q0-1.58.9-2.63.93-1.05 2.23-1.05 1.34 0 2.12.86.78.9.78 2.3v.7h-5.22v.2q0 1.27.67 2.1.66.85 1.74.85.75 0 1.3-.2.53-.22.9-.62l.36.56q-.42.43-1.06.7-.63.24-1.5.24zm-.1-6.98q-.92 0-1.54.7-.6.7-.7 1.73v.04h4.33v-.2q0-.97-.58-1.62-.57-.65-1.54-.65zM159.76 93.8l.08 1.28q.35-.68.95-1.05.6-.38 1.42-.38 1.2 0 1.83.74.63.7.63 2.27v4.5h-.83v-4.5q0-1.26-.48-1.8-.48-.5-1.36-.5-.85 0-1.4.44-.54.46-.77 1.2v5.18H159v-7.4h.73zM168.12 91.9v1.9h1.63v.66h-1.63v4.82q0 .72.26 1.03.27.3.7.3.2 0 .4 0 .18 0 .42-.05l.13.6q-.2.1-.5.14-.3.04-.6.04-.77 0-1.2-.5-.44-.48-.44-1.55v-4.83H166v-.67h1.3v-1.9h.82zM179.74 99.98q-.36.65-.96 1t-1.42.35q-1.17 0-1.83-.8-.66-.78-.66-2.45v-4.3h.82v4.3q0 1.36.43 1.95.47.6 1.32.6.93 0 1.48-.43.55-.4.77-1.14V93.8h.83v7.4h-.72l-.05-1.22zM183.42 93.8l.08 1.28q.35-.68.95-1.05.6-.38 1.44-.38 1.2 0 1.8.74.64.7.64 2.27v4.5h-.82v-4.5q0-1.26-.48-1.8-.47-.5-1.35-.5-.87 0-1.4.44-.56.46-.8 1.2v5.18h-.8v-7.4h.7zM191.4 101.2h-.8v-7.4h.8v7.4zm0-9.53h-.8v-1.14h.8v1.14zM193.33 97.55q0-1.77.75-2.83.75-1.07 2.1-1.07.75 0 1.3.33.6.3.96.9l.08-1.1h.7v10.25h-.8v-3.8q-.38.53-.95.8-.56.3-1.32.3-1.32 0-2.07-.98-.75-1-.75-2.66v-.16zm.82.14q0 1.32.53 2.13.54.8 1.62.8.77 0 1.3-.34.52-.36.82-.95v-3.63q-.28-.6-.8-1-.52-.38-1.3-.38-1.08 0-1.63.9-.56.9-.56 2.3v.14zM206.3 99.98q-.37.65-.97 1t-1.42.35q-1.15 0-1.8-.8-.67-.78-.67-2.45v-4.3h.82v4.3q0 1.36.45 1.95.46.6 1.3.6.94 0 1.5-.43.54-.4.76-1.14V93.8h.82v7.4h-.72l-.07-1.22zM212.02 101.33q-1.4 0-2.3-1.03-.93-1.02-.93-2.6v-.37q0-1.58.9-2.63.9-1.05 2.2-1.05 1.37 0 2.15.86.78.9.78 2.3v.7h-5.23v.2q0 1.27.68 2.1.66.85 1.74.85.77 0 1.3-.2.55-.22.93-.62l.35.56q-.42.43-1.06.7-.64.24-1.52.24zm-.1-6.98q-.9 0-1.53.7t-.73 1.73v.04H214v-.2q0-.97-.55-1.62-.57-.65-1.54-.65zM217.18 93.8l.08 1.28q.35-.68.95-1.05.63-.38 1.46-.38 1.2 0 1.83.74.62.7.62 2.27v4.5h-.8v-4.5q0-1.26-.5-1.8-.46-.5-1.34-.5-.86 0-1.4.44-.55.46-.78 1.2v5.18h-.82v-7.4h.72zM227.03 101.33q-1.4 0-2.3-1.03-.93-1.02-.93-2.6v-.37q0-1.58.9-2.63.93-1.05 2.23-1.05 1.36 0 2.14.86.78.9.78 2.3v.7h-5.23v.2q0 1.27.67 2.1.64.85 1.72.85.77 0 1.3-.2.55-.22.93-.62l.35.56q-.4.43-1.05.7-.64.24-1.52.24zm-.1-6.98q-.9 0-1.53.7-.6.7-.7 1.73v.04h4.33v-.2q0-.97-.56-1.62-.57-.65-1.54-.65zM235.9 99.3q0-.5-.43-.9-.42-.4-1.54-.64-1.32-.28-1.96-.76-.63-.47-.63-1.33 0-.85.7-1.43.73-.6 1.9-.6 1.26 0 2 .64.72.6.68 1.54v.04h-.77q0-.6-.52-1.06-.5-.45-1.4-.45-.88 0-1.33.4-.45.37-.45.9 0 .5.4.84.38.32 1.53.57 1.32.3 1.98.8.65.5.65 1.4 0 .9-.73 1.48-.74.57-1.97.57-1.36 0-2.13-.64-.77-.65-.73-1.54l.02-.04h.75q.07.8.67 1.16.6.36 1.43.36.87 0 1.4-.4.5-.38.5-.93zM243.04 99.3q0-.5-.43-.9-.4-.4-1.52-.64-1.32-.28-1.96-.76-.62-.47-.62-1.33 0-.85.7-1.43.73-.6 1.9-.6 1.26 0 2 .64.72.6.68 1.54v.04H243q0-.6-.52-1.06-.5-.45-1.4-.45-.88 0-1.33.4-.45.37-.45.9 0 .5.38.84.4.32 1.54.57 1.32.3 1.98.8.65.5.65 1.4 0 .9-.75 1.48-.74.57-1.97.57-1.35 0-2.12-.64-.75-.65-.7-1.54v-.04h.76q.05.8.65 1.16.6.36 1.44.36.88 0 1.4-.4.5-.38.5-.93zM246.74 101.2h-.94v-1.13h.94v1.12zM260 97.02q0 1.93-1.07 3.12-1.05 1.2-2.83 1.2-1.75 0-2.8-1.2-1.03-1.2-1.03-3.12V95.4q0-1.92 1.03-3.1t2.8-1.2q1.77 0 2.83 1.2t1.06 3.1v1.62zm-.82-1.63q0-1.63-.82-2.6-.82-1-2.27-1-1.44 0-2.23 1-.8.97-.8 2.6V97q0 1.63.8 2.62.8.98 2.22.98 1.45 0 2.25-.98.82-.98.82-2.62v-1.6zM266.78 99.98q-.36.65-.96 1t-1.42.35q-1.17 0-1.83-.8-.66-.78-.66-2.45v-4.3h.84v4.3q0 1.36.45 1.95.46.6 1.3.6.94 0 1.5-.43.54-.4.76-1.14V93.8h.82v7.4h-.72l-.07-1.22zM273.13 94.5l-.6-.05q-.78 0-1.28.44-.5.4-.7 1.17v5.1h-.82v-7.4h.7l.12 1.24v.1q.32-.7.86-1.07t1.3-.4q.16 0 .3.04.15.02.25.05l-.1.77zM33.24 120.64q.8 0 1.43-.46.62-.47.62-1.3h.7v.04q.05 1.03-.8 1.72-.86.7-1.98.7-1.5 0-2.34-1.04-.82-1.04-.82-2.67v-.28q0-1.62.82-2.66.83-1.06 2.33-1.06 1.23 0 2.03.72.82.72.8 1.9l-.03.03h-.73q0-.9-.6-1.43-.6-.53-1.47-.53-1.2 0-1.76.86-.57.85-.57 2.15v.28q0 1.3.57 2.16.56.83 1.77.83zM38.66 121.2h-.82v-10.67h.82v10.66zM41.83 121.2h-.8v-7.4h.8v7.4zm0-9.53h-.8v-1.14h.8v1.14zM46.86 121.33q-1.4 0-2.3-1.03-.93-1.02-.93-2.6v-.37q0-1.58.9-2.63.93-1.05 2.23-1.05 1.36 0 2.14.86.78.9.78 2.3v.7h-5.23v.2q0 1.27.67 2.1.66.85 1.74.85.77 0 1.3-.2.55-.22.93-.62l.33.56q-.42.43-1.06.7-.64.24-1.52.24zm-.1-6.98q-.9 0-1.53.7-.6.7-.7 1.73v.04h4.33v-.2q0-.97-.56-1.62-.57-.65-1.54-.65zM52.03 113.8l.07 1.28q.36-.68.96-1.05.6-.38 1.44-.38 1.2 0 1.83.74.63.7.63 2.27v4.5h-.82v-4.5q0-1.26-.48-1.8-.47-.52-1.35-.52-.84 0-1.4.46-.53.46-.77 1.2v5.18h-.82v-7.4h.74zM60.38 111.9v1.9H62v.66h-1.6v4.82q0 .73.26 1.04.27.3.7.3.2 0 .4-.02.18-.02.43-.06l.1.6q-.2.1-.5.15-.3.02-.6.02-.77 0-1.2-.5-.44-.48-.44-1.55v-4.82H58.3v-.67h1.26v-1.9h.83zM68.17 119.3q0-.5-.43-.9-.42-.4-1.53-.63-1.3-.3-1.95-.76-.62-.46-.62-1.32 0-.84.7-1.43.72-.58 1.9-.58 1.25 0 1.98.62.74.6.7 1.53v.04h-.76q0-.6-.52-1.05-.5-.45-1.38-.45-.9 0-1.35.4-.45.38-.45.9 0 .5.38.84.4.34 1.56.6 1.3.3 1.96.8.66.5.66 1.4 0 .9-.76 1.5-.75.54-1.98.54-1.35 0-2.12-.64-.76-.65-.72-1.54v-.04h.76q.05.8.65 1.16.6.36 1.43.36.9 0 1.4-.4.52-.38.52-.93zM73.98 117.55q0-1.77.75-2.83.76-1.07 2.1-1.07.8 0 1.37.35.57.34.95.97l.1-1.18h.68v7.3q0 1.4-.8 2.24-.78.82-2.18.82-.54 0-1.14-.13-.6-.13-1.03-.35l.2-.7q.45.22.93.33.48.1 1.03.1 1.08 0 1.63-.6.55-.62.55-1.73v-.94q-.35.56-.93.87-.57.3-1.34.3-1.33 0-2.1-1-.74-.98-.74-2.64v-.15zm.82.14q0 1.32.55 2.12.54.8 1.62.8.8 0 1.32-.37t.8-1v-3.43q-.26-.65-.78-1.06-.52-.4-1.34-.4-1.1 0-1.65.88-.55.9-.55 2.3v.14zM84.87 121.33q-1.4 0-2.3-1.03-.93-1.02-.93-2.6v-.37q0-1.58.9-2.63.93-1.05 2.23-1.05 1.36 0 2.14.86.8.9.8 2.3v.7h-5.23v.2q0 1.27.66 2.1.67.85 1.75.85.76 0 1.3-.2.54-.22.93-.62l.36.56q-.42.43-1.06.7-.65.24-1.53.24zm-.1-6.98q-.9 0-1.53.7-.6.7-.72 1.73l.02.04h4.33v-.2q0-.97-.57-1.62-.56-.65-1.53-.65zM90.6 111.9v1.9h1.62v.66H90.6v4.82q0 .73.26 1.04.26.3.7.3.2 0 .38-.02.2-.02.44-.06l.12.6q-.2.1-.5.15-.3.02-.58.02-.78 0-1.22-.5-.43-.48-.43-1.55v-4.82H88.5v-.67h1.27v-1.9h.83zM96.92 117.38q0-1.63.9-2.68t2.37-1.05q1.46 0 2.36 1.05t.9 2.68v.23q0 1.66-.9 2.7-.9 1.04-2.37 1.04-1.5 0-2.4-1.04-.9-1.05-.9-2.7v-.22zm.82.23q0 1.3.65 2.18t1.8.87q1.13 0 1.8-.87.64-.88.64-2.16v-.22q0-1.26-.66-2.15-.66-.88-1.8-.88t-1.8.88q-.66.9-.66 2.15v.23zM105.9 113.8l.08 1.28q.35-.68.95-1.05.6-.38 1.44-.38 1.2 0 1.83.74.63.7.63 2.27v4.5H110v-4.5q0-1.26-.47-1.8-.47-.52-1.35-.52-.86 0-1.4.46-.55.46-.78 1.2v5.18h-.82v-7.4h.72zM113.88 121.2h-.8v-10.67h.8v10.66zM118.23 119.18l.26.88h.02l2.24-6.27h.9l-3.2 8.56q-.3.75-.75 1.27-.44.53-1.33.53-.14 0-.34-.03t-.3-.07l.1-.68q.07 0 .25.02.17.02.26.02.53 0 .85-.38.32-.38.55-.97l.4-1-2.87-7.3h.9l2.03 5.38zM129.97 121.24h-.82v-9.15l-2.53.3v-.6l3.35-.6v10.03zM140.34 117.33q0 1.93-.83 2.97-.82 1.04-2.3 1.04-1.5 0-2.33-1.04-.84-1.05-.84-2.97v-2.22q0-1.9.84-2.95.83-1.04 2.3-1.04t2.34 1.05q.85 1.05.85 2.97v2.23zm-.82-2.36q0-1.53-.6-2.35-.6-.83-1.75-.83t-1.73.8q-.6.83-.6 2.36v2.48q0 1.52.6 2.36.6.85 1.75.85t1.7-.84q.6-.8.6-2.34v-2.48zM148.52 117.33q0 1.93-.83 2.97-.86 1.04-2.34 1.04t-2.33-1.04q-.84-1.05-.84-2.97v-2.22q0-1.9.83-2.95.83-1.04 2.3-1.04t2.34 1.05q.84 1.05.84 2.97v2.23zm-.82-2.36q0-1.53-.6-2.35-.6-.83-1.75-.83t-1.73.8q-.6.83-.6 2.36v2.48q0 1.52.6 2.36.6.85 1.75.85t1.73-.84q.6-.8.6-2.34v-2.48zM150.2 113.15q0-.87.54-1.46.54-.6 1.42-.6.87 0 1.4.6.54.57.54 1.44v.53q0 .86-.53 1.45-.54.6-1.4.6-.88 0-1.42-.6-.54-.6-.54-1.45v-.53zm.67.53q0 .6.33 1.02.34.43.97.43.6 0 .94-.43.35-.42.35-1.02v-.53q0-.6-.33-1.03-.33-.43-.94-.43-.62 0-.96.4-.33.44-.33 1.04v.53zm4.34 5.08q0-.87.56-1.46.54-.6 1.4-.6.88 0 1.42.6.54.6.54 1.46v.53q0 .84-.53 1.43-.54.6-1.4.6-.9 0-1.43-.6-.54-.6-.54-1.45v-.54zm.7.53q0 .6.32 1 .35.43.98.43.6 0 .93-.43.35-.4.35-1v-.54q0-.63-.34-1.04-.32-.42-.94-.42-.6 0-.95.42-.32.42-.32 1.04v.53zm-3.3 1.05l-.5-.33 4.87-7.78.5.33-4.86 7.78zM163.86 117.38q0-1.63.9-2.68t2.37-1.05q1.48 0 2.38 1.05t.9 2.68v.23q0 1.66-.9 2.7-.87 1.04-2.35 1.04-1.5 0-2.38-1.04-.9-1.05-.9-2.7v-.22zm.82.23q0 1.3.65 2.18.65.87 1.8.87t1.8-.87q.66-.88.66-2.16v-.22q0-1.26-.68-2.15-.65-.88-1.8-.88t-1.8.88q-.65.9-.65 2.15v.23zM175.5 114.5l-.6-.04q-.77 0-1.27.44-.5.43-.7 1.2v5.1h-.82v-7.4h.73l.1 1.23v.08q.33-.67.87-1.05.53-.38 1.27-.38.16 0 .3.03.15 0 .25.03l-.1.77zM177.78 121.2h-.8v-7.4h.8v7.4zm0-9.53h-.8v-1.14h.8v1.14zM179.72 117.55q0-1.77.75-2.83.76-1.07 2.1-1.07.8 0 1.37.35.57.34.95.97l.07-1.18h.7v7.3q0 1.4-.8 2.24-.78.82-2.2.82-.53 0-1.13-.13-.6-.13-1.05-.35l.2-.7q.44.22.92.33.5.1 1.04.1 1.08 0 1.63-.6.54-.62.54-1.73v-.94q-.37.56-.95.87-.58.3-1.35.3-1.33 0-2.1-1-.74-.98-.74-2.64v-.15zm.82.14q0 1.32.55 2.12.52.8 1.6.8.8 0 1.32-.37.54-.37.82-1v-3.43q-.26-.65-.78-1.06-.52-.4-1.34-.4-1.08 0-1.64.88-.56.9-.56 2.3v.14zM188.75 121.2h-.8v-7.4h.8v7.4zm0-9.53h-.8v-1.14h.8v1.14zM191.73 113.8l.08 1.28q.37-.68.97-1.05.6-.38 1.44-.38 1.2 0 1.84.74.63.7.63 2.27v4.5h-.82v-4.5q0-1.26-.48-1.8-.47-.52-1.35-.52-.85 0-1.4.46-.54.46-.77 1.2v5.18H191v-7.4h.73zM203.48 121.2q-.08-.4-.12-.66-.03-.27-.03-.55-.4.56-1.1.94-.68.38-1.53.38-1.08 0-1.68-.57-.6-.57-.6-1.54 0-1 .88-1.63.9-.6 2.4-.6h1.63v-.93q0-.8-.5-1.24-.52-.45-1.44-.45-.87 0-1.44.43-.56.44-.56 1.06h-.74v-.05q-.05-.85.74-1.5.8-.65 2.03-.65 1.22 0 1.97.62.74.62.74 1.78v3.64q0 .4.04.75.05.37.15.73h-.85zm-2.7-.6q.9 0 1.57-.4.68-.42.98-1.06v-1.55h-1.65q-1.1 0-1.78.46-.67.47-.67 1.18 0 .6.42.98.4.38 1.14.38zM207.23 121.2h-.8v-10.67h.8v10.66zM218.86 117.7q0 1.65-.75 2.64-.73 1-2.05 1-.78 0-1.37-.3-.58-.3-.95-.85V124h-.82V113.8h.7l.1 1.14q.37-.62.95-.95.6-.36 1.38-.36 1.34 0 2.1 1.07.74 1.07.74 2.84v.14zm-.82-.15q0-1.4-.56-2.3-.56-.9-1.64-.9-.83 0-1.35.4-.53.4-.8 1.03v3.55q.3.6.8.96.55.33 1.34.33 1.08 0 1.63-.8.56-.82.56-2.15v-.15zM225.38 121.2q-.08-.4-.12-.66-.03-.27-.03-.55-.4.56-1.1.94-.68.38-1.53.38-1.08 0-1.68-.57-.6-.57-.6-1.54 0-1 .88-1.63.9-.6 2.4-.6h1.63v-.93q0-.8-.5-1.24-.52-.45-1.43-.45-.86 0-1.43.43-.56.44-.56 1.06h-.73v-.05q-.05-.85.74-1.5.8-.65 2.04-.65 1.22 0 1.97.62t.75 1.78v3.64q0 .4.04.75.04.37.14.73h-.85zm-2.7-.6q.9 0 1.57-.4.68-.42.98-1.06v-1.55h-1.65q-1.1 0-1.78.46-.67.47-.67 1.18 0 .6.42.98.4.38 1.14.38zM234.17 117.7q0 1.65-.75 2.64-.75 1-2.07 1-.78 0-1.37-.3-.58-.3-.95-.85V124h-.82V113.8h.7l.1 1.14q.38-.62.96-.95.6-.36 1.38-.36 1.34 0 2.1 1.07.74 1.07.74 2.84v.14zm-.82-.15q0-1.4-.56-2.3-.58-.9-1.66-.9-.83 0-1.35.4-.5.4-.78 1.03v3.55q.28.6.8.96.54.33 1.33.33 1.08 0 1.63-.8.55-.82.55-2.15v-.15zM238.8 121.33q-1.4 0-2.32-1.03-.92-1.02-.92-2.6v-.37q0-1.58.9-2.63.93-1.05 2.23-1.05 1.34 0 2.12.86.78.9.78 2.3v.7h-5.22v.2q0 1.27.67 2.1.66.85 1.74.85.75 0 1.3-.2.53-.22.9-.62l.36.56q-.42.43-1.06.7-.63.24-1.5.24zm-.1-6.98q-.92 0-1.54.7-.6.7-.7 1.73v.04h4.33v-.2q0-.97-.58-1.62-.57-.65-1.54-.65zM246.63 114.5l-.6-.04q-.78 0-1.28.44-.5.43-.7 1.2v5.1h-.82v-7.4h.7l.12 1.23v.08q.32-.67.86-1.05.56-.38 1.3-.38.16 0 .3.03.15 0 .25.03l-.1.77zM248.14 121.2h-.94v-1.13h.94v1.12z"/></g></svg>