<svg xmlns="http://www.w3.org/2000/svg" width="304.01" height="124.03" version="1"><g style="text-transform:uppercase"><path d="M88.26 6.86h-5.53v5.33h-.93V.8h7.26v.8h-6.33v4.45h5.53v.8zM90.08 7.84q0-1.87 1.03-3.07t2.73-1.2q1.7 0 2.72 1.2 1.02 1.2 1.02 3.07v.25q0 1.86-1.02 3.05-1.02 1.2-2.7 1.2-1.7 0-2.73-1.2-1.02-1.2-1.02-3.07v-.26zm.94.25q0 1.45.74 2.45t2.07 1q1.3 0 2.05-1 .75-1 .75-2.47v-.26q0-1.45-.75-2.46t-2.06-1-2.06 1q-.74 1-.74 2.46v.25zM103.4 4.54l-.7-.05q-.88 0-1.45.5-.56.47-.8 1.34v5.84h-.94V3.72h.84l.12 1.4v.1q.36-.78.98-1.2.62-.45 1.47-.45.2 0 .35.03.18.03.3.06l-.14.88zM105.74 3.73l.1 1.4q.4-.74 1.06-1.15.68-.4 1.62-.4.97 0 1.62.47.65.47.94 1.43.38-.9 1.08-1.4.7-.5 1.73-.5 1.33 0 2.06.9.74.9.74 2.78v4.93h-.93V7.22q0-1.56-.55-2.2-.55-.65-1.53-.65-1.1 0-1.7.67-.6.68-.73 1.74 0 .06 0 .16t0 .15v5.08h-.94V7.23q0-1.53-.56-2.2-.56-.65-1.54-.65-1 0-1.57.5-.58.5-.82 1.35v5.94h-.94V3.72h.84zM124.5 12.2q-.1-.44-.14-.75-.04-.32-.04-.64-.47.7-1.25 1.1-.78.46-1.76.46-1.2 0-1.9-.65t-.7-1.75q0-1.17 1.03-1.88 1-.7 2.73-.7h1.87V6.3q0-.9-.6-1.4-.57-.52-1.6-.52-1 0-1.64.5-.65.48-.65 1.2l-.86-.02v-.04q-.07-.95.84-1.7.9-.74 2.32-.74 1.4 0 2.25.7.86.72.86 2.05v4.15q0 .45.04.87.05.42.17.84h-.98zm-3.08-.68q1 0 1.78-.46.77-.48 1.12-1.22V8.08h-1.88q-1.28 0-2.04.55-.76.53-.76 1.34 0 .7.47 1.12.5.4 1.33.4zM129.2 1.57v2.16h1.86v.77h-1.86V10q0 .84.3 1.2.3.33.8.33.23 0 .44 0 .22-.04.5-.08l.14.7q-.23.1-.57.15t-.65.05q-.9 0-1.4-.56-.5-.58-.5-1.8V4.5h-1.45v-.77h1.45V1.57h.95zM134.5 1.57v2.16h1.87v.77h-1.86V10q0 .84.3 1.2.3.33.8.33.25 0 .46 0 .22-.04.5-.08l.14.7q-.24.1-.58.15t-.67.05q-.9 0-1.4-.56-.5-.58-.5-1.8V4.5h-1.45v-.77h1.46V1.57h.95zM139.4 12.2h-.93V3.72h.93v8.46zm0-10.9h-.93V0h.93v1.3zM142.8 3.73l.1 1.48q.4-.76 1.1-1.2.7-.4 1.63-.4 1.38 0 2.1.83.7.84.7 2.62v5.15h-.92V7.04q0-1.46-.53-2.06-.54-.6-1.54-.6-.98 0-1.6.5-.63.53-.9 1.4v5.9H142V3.72h.82zM150.52 8.03q0-2.02.86-3.23.87-1.22 2.4-1.22.9 0 1.56.4t1.1 1.1l.1-1.35h.78v8.35q0 1.63-.9 2.58-.9.94-2.5.94-.62 0-1.3-.15-.7-.15-1.2-.4l.23-.8q.5.26 1.06.38.57.14 1.2.14 1.24 0 1.86-.72.64-.7.64-1.97v-1.06q-.44.64-1.1 1-.65.33-1.53.33-1.52 0-2.4-1.13-.85-1.13-.85-3.02v-.17zm.94.17q0 1.52.62 2.43.63.9 1.86.9.9 0 1.5-.4.62-.42.95-1.15V6.06q-.33-.73-.9-1.2-.6-.47-1.55-.47-1.24 0-1.87 1-.64 1-.64 2.62v.17zM165.5 5.98q-.63-.78-.94-1.43-.3-.64-.3-1.32 0-1.24.7-1.9.7-.68 1.9-.68 1.12 0 1.78.63.66.63.66 1.6 0 .7-.35 1.2t-1 1.02l-1.25.95 3.2 3.76q.4-.53.6-1.22.22-.7.22-1.47h.86q0 1-.3 1.86-.27.83-.8 1.5l1.43 1.7v.04h-1.06l-.96-1.1q-.66.6-1.45.92-.8.33-1.7.33-1.63 0-2.6-.83-.94-.84-.94-2.23 0-.96.55-1.7.56-.77 1.63-1.55l.12-.08zm1.22 5.58q.72 0 1.4-.28.68-.28 1.23-.8l-3.23-3.77q-.04-.02-.07-.04-.03-.03-.04-.06l-.35.27q-.9.73-1.22 1.33-.3.6-.3 1.1 0 .96.66 1.6.66.66 1.93.66zM165.2 3.2q0 .53.24 1.08.25.56.76 1.18l1.38-1.03q.45-.35.64-.73t.2-.82q0-.62-.43-1.03-.4-.4-1.16-.4-.8 0-1.23.5-.42.5-.42 1.26zM184.1 6.68h-5.47v4.72h6.28v.8h-7.2V.8h7.18v.8h-6.24v4.3h5.48v.8zM186.15 8.03q0-2.02.85-3.23.86-1.22 2.4-1.22.87 0 1.52.37.65.38 1.08 1.07V0h.93v12.2h-.83l-.08-1.24q-.42.67-1.08 1.03-.67.34-1.56.34-1.52 0-2.38-1.12-.85-1.14-.85-3.03V8zm.94.17q0 1.53.6 2.43.6.9 1.84.9.9 0 1.5-.4.62-.4.95-1.12V6.06q-.33-.74-.9-1.2-.6-.45-1.55-.45-1.23 0-1.86 1-.6 1-.6 2.63v.17zM196.47 12.2h-.93V3.72h.93v8.46zm0-10.9h-.93V0h.93v1.3zM200.5 1.57v2.16h1.87v.77h-1.86V10q0 .84.3 1.2.3.33.8.33.25 0 .46 0 .22-.04.5-.08l.14.7q-.24.1-.58.15t-.67.05q-.9 0-1.4-.56-.5-.58-.5-1.8V4.5h-1.45v-.77h1.46V1.57h.95zM205.4 12.2h-.93V3.72h.93v8.46zm0-10.9h-.93V0h.93v1.3zM208.8 3.73l.1 1.48q.4-.76 1.1-1.2.7-.4 1.63-.4 1.38 0 2.1.83.7.84.7 2.62v5.15h-.92V7.04q0-1.46-.53-2.06-.54-.6-1.54-.6-.98 0-1.6.5-.63.53-.9 1.4v5.9H208V3.72h.82zM216.52 8.03q0-2.02.86-3.23.87-1.22 2.4-1.22.9 0 1.56.4t1.1 1.1l.1-1.35h.78v8.35q0 1.63-.9 2.58-.9.94-2.5.94-.62 0-1.3-.15-.7-.15-1.2-.4l.23-.8q.5.26 1.06.38.57.14 1.2.14 1.24 0 1.86-.72.64-.7.64-1.97v-1.06q-.44.64-1.1 1-.65.33-1.53.33-1.52 0-2.4-1.13-.85-1.13-.85-3.02v-.17zm.94.17q0 1.52.62 2.43.63.9 1.86.9.9 0 1.5-.4.62-.42.95-1.15V6.06q-.33-.73-.9-1.2-.6-.47-1.55-.47-1.24 0-1.87 1-.64 1-.64 2.62v.17z"/></g><g fill="#929292"><path d="M16.43 36.37h-4.8v4.13h5.5v.7h-6.3v-9.97h6.27v.7h-5.46v3.74h4.8v.7zM18.2 37.55q0-1.77.76-2.83.75-1.07 2.1-1.07.76 0 1.33.33.55.33.92.93v-4.37h.8V41.2h-.7l-.08-1.1q-.37.6-.95.92t-1.38.3q-1.32 0-2.07-.97-.75-1-.75-2.66v-.16zm.83.14q0 1.32.53 2.12.54.8 1.62.8.8 0 1.32-.37.54-.35.83-.98V35.8q-.28-.63-.8-1.03-.5-.4-1.33-.4-1.08 0-1.63.88-.54.9-.54 2.3v.14zM27.24 41.2h-.8v-7.4h.8v7.4zm0-9.53h-.8v-1.15h.8v1.15zM30.78 31.9v1.9h1.63v.66h-1.6v4.82q0 .72.26 1.03.27.3.7.3.2 0 .4 0 .18 0 .43-.05l.1.6q-.2.1-.5.14-.3.04-.6.04-.77 0-1.2-.5-.44-.48-.44-1.55v-4.83H28.7v-.67h1.26v-1.9h.83zM35.06 41.2h-.8v-7.4h.8v7.4zm0-9.53h-.8v-1.15h.8v1.15zM38.04 33.8l.08 1.28q.35-.68.95-1.05.6-.38 1.44-.38 1.2 0 1.85.74.63.7.63 2.27v4.5h-.82v-4.5q0-1.26-.48-1.8-.47-.5-1.34-.5-.87 0-1.4.44-.55.46-.8 1.2v5.18h-.8v-7.4h.7zM44.8 37.55q0-1.77.74-2.83.76-1.07 2.1-1.07.8 0 1.37.35.6.34.97.97l.1-1.18h.68v7.3q0 1.4-.8 2.24-.78.83-2.18.83-.54 0-1.14-.13-.6-.13-1.05-.36l.2-.7q.45.22.93.33.5.1 1.05.1 1.08 0 1.63-.6.55-.62.55-1.73v-.94q-.37.56-.95.87-.57.3-1.34.3-1.33 0-2.1-1-.74-.98-.74-2.64v-.15zm.8.14q0 1.32.56 2.12.54.8 1.62.8.8 0 1.32-.37.54-.36.82-1v-3.43q-.26-.64-.78-1.05-.52-.4-1.34-.4-1.08 0-1.64.87-.55.9-.55 2.3v.14zM61 41.2q-.08-.4-.1-.66-.05-.27-.05-.56-.4.6-1.1.97-.67.38-1.53.38-1.08 0-1.68-.57-.6-.58-.6-1.54 0-1.03.9-1.64.88-.62 2.38-.62h1.63v-.9q0-.8-.5-1.26-.5-.45-1.43-.45-.86 0-1.42.43-.56.43-.56 1.06h-.76v-.05q-.05-.85.74-1.5.8-.66 2.03-.66 1.23 0 1.97.63.75.62.75 1.78v3.64q0 .4.04.75.07.37.17.73H61zm-2.68-.6q.88 0 1.56-.4.67-.42.97-1.06V37.6H59.2q-1.1 0-1.78.47-.66.47-.66 1.18 0 .6.4.98.43.38 1.16.38zM64.56 33.8l.08 1.28q.36-.68.96-1.05.6-.38 1.43-.38 1.2 0 1.83.74.63.7.63 2.27v4.5h-.84v-4.5q0-1.26-.48-1.8-.48-.5-1.35-.5-.86 0-1.4.44-.55.46-.8 1.2v5.18h-.8v-7.4h.7zM71.3 37.55q0-1.77.76-2.83.75-1.07 2.1-1.07.76 0 1.33.33.55.33.92.93v-4.37h.82V41.2h-.73l-.06-1.1q-.37.6-.95.92t-1.37.3q-1.33 0-2.08-.97-.75-1-.75-2.66v-.16zm.83.14q0 1.32.54 2.12t1.62.8q.77 0 1.3-.37.53-.35.82-.98V35.8q-.28-.63-.8-1.03-.5-.4-1.33-.4-1.1 0-1.64.88-.54.9-.54 2.3v.14zM83.44 41.2v-6.74h-1.22v-.67h1.22v-1.1q0-1.1.55-1.7.54-.63 1.55-.63.22 0 .46.03t.48.1l-.1.7q-.18-.05-.36-.07-.17-.03-.4-.03-.67 0-1.03.42-.35.43-.35 1.2v1.07H86v.65h-1.75v6.73h-.82zM86.98 37.38q0-1.63.9-2.68t2.37-1.05q1.48 0 2.38 1.05.9 1.05.9 2.68v.23q0 1.66-.9 2.7-.9 1.04-2.37 1.04-1.5 0-2.38-1.04-.9-1.05-.9-2.7v-.22zm.82.23q0 1.3.65 2.18t1.8.87q1.15 0 1.8-.87.66-.88.66-2.16v-.22q0-1.26-.64-2.15-.65-.88-1.8-.88t-1.8.88q-.65.9-.65 2.15v.23zM98.64 34.5l-.6-.05q-.78 0-1.28.44-.5.4-.7 1.17v5.1h-.83v-7.4h.72l.1 1.24v.1q.32-.7.86-1.07t1.3-.4q.17 0 .3.04.16.02.26.05l-.1.77zM100.68 33.8l.08 1.2q.35-.63.94-1 .6-.35 1.4-.35.86 0 1.43.4.57.42.82 1.27.33-.78.95-1.22.62-.45 1.5-.45 1.2 0 1.83.8.65.78.65 2.42v4.32h-.82v-4.35q0-1.37-.5-1.93-.47-.56-1.33-.56-.95 0-1.47.6-.52.58-.64 1.5 0 .06 0 .15 0 .1 0 .14v4.44h-.82v-4.34q0-1.34-.5-1.9-.48-.6-1.33-.6-.87 0-1.38.45-.53.44-.73 1.2v5.2h-.83v-7.4h.73zM117.1 41.2q-.1-.4-.13-.66-.03-.27-.03-.56-.4.6-1.1.97-.68.38-1.53.38-1.06 0-1.66-.57-.6-.58-.6-1.54 0-1.03.88-1.64.9-.62 2.4-.62h1.64v-.9q0-.8-.5-1.26-.52-.45-1.43-.45-.85 0-1.42.43-.55.43-.55 1.06h-.75v-.05q-.05-.85.74-1.5.8-.66 2.04-.66 1.22 0 1.97.63.75.62.75 1.78v3.64q0 .4.04.75.04.37.14.73h-.85zm-2.7-.6q.9 0 1.56-.4.68-.42.98-1.06V37.6h-1.65q-1.13 0-1.8.47-.67.47-.67 1.18 0 .6.42.98.4.38 1.14.38zM121.2 31.9v1.9h1.64v.66h-1.63v4.82q0 .72.28 1.03.27.3.7.3.2 0 .4 0 .18 0 .42-.05l.12.6q-.2.1-.5.14-.3.04-.6.04-.77 0-1.2-.5-.44-.48-.44-1.55v-4.83h-1.28v-.67h1.28v-1.9h.83zM125.86 31.9v1.9h1.63v.66h-1.65v4.82q0 .72.26 1.03.28.3.7.3.2 0 .4 0t.43-.05l.13.6q-.2.1-.5.14-.3.04-.6.04-.77 0-1.2-.5-.44-.48-.44-1.55v-4.83h-1.28v-.67h1.28v-1.9h.83zM130.14 41.2h-.8v-7.4h.8v7.4zm0-9.53h-.8v-1.15h.8v1.15zM133.12 33.8l.08 1.28q.35-.68.95-1.05.6-.38 1.44-.38 1.2 0 1.8.74.64.7.64 2.27v4.5h-.82v-4.5q0-1.26-.48-1.8-.47-.5-1.35-.5-.87 0-1.4.44-.56.46-.8 1.2v5.18h-.8v-7.4h.7zM139.86 37.55q0-1.77.75-2.83.78-1.07 2.13-1.07.78 0 1.36.35.56.34.94.97l.1-1.18h.68v7.3q0 1.4-.78 2.24-.78.83-2.2.83-.53 0-1.13-.13-.6-.13-1.05-.36l.2-.7q.45.22.93.33.5.1 1.04.1 1.1 0 1.64-.6.55-.62.55-1.73v-.94q-.37.56-.95.87-.57.3-1.34.3-1.32 0-2.1-1-.73-.98-.73-2.64v-.15zm.82.14q0 1.32.55 2.12.54.8 1.62.8.8 0 1.32-.37.54-.36.82-1v-3.43q-.28-.64-.8-1.05-.5-.4-1.34-.4-1.08 0-1.64.87-.55.9-.55 2.3v.14zM156.08 41.2q-.08-.4-.12-.66-.03-.27-.03-.56-.4.6-1.1.97-.68.38-1.53.38-1.08 0-1.68-.57-.6-.58-.6-1.54 0-1.03.88-1.64.9-.62 2.4-.62h1.63v-.9q0-.8-.5-1.26-.52-.45-1.43-.45-.86 0-1.43.43-.56.43-.56 1.06h-.73v-.05q-.05-.85.74-1.5.8-.66 2.04-.66 1.22 0 1.97.63.75.62.75 1.78v3.64q0 .4.04.75.04.37.14.73h-.85zm-2.7-.6q.9 0 1.57-.4.68-.42.98-1.06V37.6h-1.65q-1.1 0-1.78.47-.67.47-.67 1.18 0 .6.42.98.4.38 1.14.38zM162.32 34.5l-.6-.05q-.78 0-1.28.44-.5.4-.7 1.17v5.1h-.82v-7.4h.7l.12 1.24v.1q.32-.7.86-1.07t1.28-.4q.16 0 .3.04.15.02.25.05l-.1.77zM166.3 41.33q-1.38 0-2.3-1.02-.92-1-.92-2.6v-.36q0-1.58.9-2.63.93-1.04 2.23-1.04 1.38 0 2.16.87.78.86.78 2.3v.7h-5.23v.2q0 1.24.68 2.08.66.85 1.74.85.78 0 1.32-.2.54-.22.92-.62l.35.56q-.42.43-1.06.7-.64.24-1.52.24zm-.1-6.98q-.9 0-1.52.7-.6.7-.7 1.74h4.33v-.2q0-.96-.54-1.6-.57-.66-1.54-.66zM176.95 41.33q-1.4 0-2.3-1.02-.93-1-.93-2.6v-.36q0-1.58.9-2.63.93-1.04 2.23-1.04 1.36 0 2.14.87.76.86.76 2.3v.7h-5.23v.2q0 1.24.67 2.08.67.85 1.75.85.77 0 1.3-.2.55-.22.93-.62l.35.56q-.42.43-1.06.7-.64.24-1.52.24zm-.1-6.98q-.9 0-1.53.7-.6.7-.7 1.74h4.33v-.2q0-.96-.56-1.6-.6-.66-1.56-.66zM185.82 39.3q0-.5-.43-.9t-1.56-.64q-1.32-.28-1.96-.76-.64-.47-.64-1.33 0-.85.7-1.43.73-.6 1.9-.6 1.26 0 2 .64.72.6.68 1.54v.04h-.77q0-.6-.52-1.06-.5-.45-1.4-.45-.88 0-1.33.4-.45.37-.45.9 0 .5.4.84.38.32 1.53.57 1.32.3 1.98.8.65.5.65 1.4 0 .9-.74 1.48-.74.57-1.97.57-1.35 0-2.1-.64-.8-.65-.75-1.54l.02-.04h.75q.05.8.65 1.16.6.36 1.43.36.9 0 1.4-.4.52-.38.52-.93zM192.96 39.3q0-.5-.43-.9-.42-.4-1.54-.64-1.34-.28-1.98-.76-.63-.47-.63-1.33 0-.85.7-1.43.72-.6 1.9-.6 1.25 0 2 .64.7.6.67 1.54v.04h-.77q0-.6-.5-1.06-.52-.45-1.4-.45-.9 0-1.34.4-.45.37-.45.9 0 .5.4.84.4.32 1.55.57 1.32.3 1.98.8.65.5.65 1.4 0 .9-.75 1.48-.74.57-1.97.57-1.35 0-2.12-.64-.77-.65-.73-1.54l.03-.04h.75q.05.8.65 1.16.6.36 1.43.36.88 0 1.4-.4.5-.38.5-.93zM198.44 41.33q-1.4 0-2.3-1.02-.93-1-.93-2.6v-.36q0-1.58.93-2.63.92-1.04 2.22-1.04 1.36 0 2.14.87.77.86.77 2.3v.7h-5.23v.2q0 1.24.67 2.08.67.85 1.75.85.77 0 1.3-.2.55-.22.93-.62l.35.56q-.42.43-1.06.7-.64.24-1.52.24zm-.1-6.98q-.9 0-1.53.7-.6.7-.7 1.74h4.35v-.2q0-.96-.56-1.6-.58-.66-1.55-.66zM203.6 33.8l.1 1.28q.34-.68.94-1.05.6-.38 1.44-.38 1.2 0 1.83.74.65.7.65 2.27v4.5h-.82v-4.5q0-1.26-.48-1.8-.47-.5-1.35-.5-.87 0-1.4.44-.56.46-.8 1.2v5.18h-.8v-7.4h.7zM211.96 31.9v1.9h1.63v.66h-1.65v4.82q0 .72.26 1.03.28.3.7.3.2 0 .4 0t.43-.05l.13.6q-.2.1-.5.14-.3.04-.6.04-.77 0-1.2-.5-.44-.48-.44-1.55v-4.83h-1.28v-.67h1.28v-1.9h.83zM216.24 41.2h-.8v-7.4h.8v7.4zm0-9.53h-.8v-1.15h.8v1.15zM223.18 41.2q-.08-.4-.12-.66-.03-.27-.03-.56-.4.6-1.1.97-.68.38-1.53.38-1.08 0-1.68-.57-.6-.58-.6-1.54 0-1.03.88-1.64.9-.62 2.4-.62h1.63v-.9q0-.8-.5-1.26-.52-.45-1.43-.45-.86 0-1.43.43-.56.43-.56 1.06h-.73v-.05q-.05-.85.74-1.5.8-.66 2.04-.66 1.22 0 1.97.63.75.62.75 1.78v3.64q0 .4.04.75.04.37.14.73h-.85zm-2.7-.6q.9 0 1.57-.4.68-.42.98-1.06V37.6h-1.65q-1.1 0-1.78.47-.67.47-.67 1.18 0 .6.42.98.4.38 1.14.38zM226.93 41.2h-.8V30.5h.8v10.7zM238.56 37.7q0 1.66-.75 2.65-.73.98-2.05.98-.78 0-1.37-.3-.58-.3-.95-.83v3.83h-.82V33.8h.7l.1 1.14q.37-.62.95-.95.6-.36 1.38-.36 1.34 0 2.1 1.07.74 1.07.74 2.84v.14zm-.82-.15q0-1.4-.56-2.3-.56-.9-1.64-.9-.83 0-1.35.4-.53.4-.8 1.03v3.55q.3.6.8.96.55.33 1.34.33 1.08 0 1.63-.8.56-.8.56-2.15v-.15zM245.08 41.2q-.08-.4-.12-.66-.03-.27-.03-.56-.4.6-1.1.97-.68.38-1.53.38-1.08 0-1.68-.57-.6-.58-.6-1.54 0-1.03.88-1.64.9-.62 2.4-.62h1.63v-.9q0-.8-.5-1.26-.52-.45-1.43-.45-.86 0-1.43.43-.56.43-.56 1.06h-.73v-.05q-.05-.85.74-1.5.8-.66 2.04-.66 1.22 0 1.97.63.75.62.75 1.78v3.64q0 .4.04.75.04.37.14.73h-.85zm-2.7-.6q.9 0 1.57-.4.68-.42.98-1.06V37.6h-1.65q-1.1 0-1.78.47-.67.47-.67 1.18 0 .6.42.98.4.38 1.14.38zM251.32 34.5l-.6-.05q-.78 0-1.28.44-.5.4-.7 1.17v5.1h-.82v-7.4h.7l.12 1.24v.1q.32-.7.86-1.07.54-.4 1.28-.4.16 0 .3.04.15.02.25.05l-.1.77zM254.18 31.9v1.9h1.63v.66h-1.6v4.82q0 .72.25 1.03.27.3.7.3.2 0 .4 0 .18 0 .42-.05l.13.6q-.22.1-.5.14-.3.04-.6.04-.78 0-1.22-.5-.43-.48-.43-1.55v-4.83h-1.28v-.67h1.28v-1.9h.83zM260.5 37.38q0-1.63.9-2.68.9-1.05 2.37-1.05 1.48 0 2.38 1.05.9 1.05.9 2.68v.23q0 1.66-.9 2.7-.9 1.04-2.37 1.04-1.5 0-2.38-1.04-.9-1.05-.9-2.7v-.22zm.82.23q0 1.3.65 2.18.65.87 1.8.87t1.8-.87q.66-.88.66-2.16v-.22q0-1.26-.66-2.15-.65-.88-1.8-.88t-1.8.88q-.65.9-.65 2.15v.23zM269.35 41.2v-6.74h-1.22v-.67h1.22v-1.1q0-1.1.55-1.7.56-.63 1.57-.63.22 0 .46.03t.47.1l-.1.7q-.17-.05-.35-.07-.17-.03-.4-.03-.67 0-1.02.42-.36.43-.36 1.2v1.07h1.76v.65h-1.76v6.73h-.82zM278.05 31.9v1.9h1.63v.66h-1.63v4.82q0 .72.26 1.03.3.3.7.3.2 0 .4 0t.44-.05l.13.6q-.2.1-.5.14-.3.04-.6.04-.77 0-1.2-.5-.44-.48-.44-1.55v-4.83h-1.28v-.67h1.28v-1.9h.83zM282.24 35.06q.37-.67.98-1.04.62-.37 1.44-.37 1.17 0 1.8.73.62.72.62 2.25v4.56h-.82v-4.6q0-1.2-.48-1.7-.47-.54-1.3-.54-.85 0-1.4.44-.57.45-.84 1.18v5.2h-.82V30.53h.82v4.54zM291.98 41.33q-1.4 0-2.3-1.02-.93-1-.93-2.6v-.36q0-1.58.9-2.63.93-1.04 2.23-1.04 1.36 0 2.14.87.78.86.78 2.3v.7h-5.23v.2q0 1.24.67 2.08.66.85 1.74.85.77 0 1.3-.2.55-.22.93-.62l.37.56q-.42.43-1.06.7-.63.24-1.5.24zm-.1-6.98q-.9 0-1.53.7-.6.7-.7 1.74h4.33v-.2q0-.96-.56-1.6-.57-.66-1.54-.66zM6.8 58.8l.28 1.3h.04l.34-1.3 1.58-5h.7l1.57 5 .38 1.34h.04l.32-1.35 1.34-5h.85l-2.14 7.4h-.7L9.74 56.1l-.32-1.28H9.4l-.34 1.28-1.6 5.06H6.7l-2.13-7.4h.84l1.4 5zM19.22 54.5l-.6-.05q-.78 0-1.28.44-.5.4-.7 1.17v5.1h-.83v-7.4h.74l.1 1.24v.1q.32-.7.86-1.07t1.28-.4q.16 0 .3.04.15.02.25.05l-.1.77zM21.48 61.2h-.8v-7.4h.8v7.4zm0-9.53h-.8v-1.15h.8v1.15zM25.03 51.9v1.9h1.62v.66h-1.62v4.82q0 .72.26 1.03.24.3.7.3.2 0 .36 0 .2 0 .44-.05l.13.6q-.2.1-.5.14t-.58.04q-.78 0-1.22-.5-.43-.48-.43-1.55v-4.83h-1.28v-.67h1.28v-1.9h.83zM29.3 61.2h-.8v-7.4h.8v7.4zm0-9.53h-.8v-1.15h.8v1.15zM32.3 53.8l.06 1.28q.36-.68.96-1.05.6-.38 1.43-.38 1.2 0 1.84.74.6.7.6 2.27v4.5h-.8v-4.5q0-1.26-.5-1.8-.47-.5-1.34-.5-.86 0-1.4.44-.55.46-.8 1.2v5.18h-.8v-7.4h.72zM39.03 57.55q0-1.77.75-2.83.76-1.07 2.1-1.07.8 0 1.37.35.58.34.95.97l.1-1.18h.7v7.3q0 1.4-.8 2.24-.8.82-2.2.82-.53 0-1.13-.12-.6-.13-1.06-.36l.23-.7q.44.22.93.33.48.1 1.04.1 1.07 0 1.6-.6.57-.62.57-1.73v-.94q-.38.56-.95.87-.58.3-1.34.3-1.34 0-2.1-1-.75-.98-.75-2.64v-.15zm.82.14q0 1.32.55 2.12t1.63.8q.8 0 1.32-.37.53-.36.82-1v-3.43q-.27-.64-.8-1.05-.5-.4-1.33-.4-1.08 0-1.63.87-.54.9-.54 2.3v.14zM56.52 57.7q0 1.66-.75 2.65-.75.98-2.07.98-.78 0-1.37-.3-.58-.3-.95-.83v3.83h-.82V53.8h.7l.1 1.14q.36-.62.94-.95.6-.36 1.38-.36 1.34 0 2.1 1.07.74 1.07.74 2.84v.14zm-.82-.15q0-1.4-.56-2.3-.56-.9-1.64-.9-.83 0-1.35.4-.5.4-.77 1.03v3.55q.28.6.8.96.54.33 1.33.33 1.1 0 1.65-.8.56-.8.56-2.15v-.15zM61.76 54.5l-.6-.05q-.78 0-1.28.44-.5.4-.7 1.17v5.1h-.82v-7.4h.72l.1 1.24v.1q.32-.7.86-1.07.54-.4 1.3-.4.14 0 .3.04.14.02.23.05l-.1.77zM62.52 57.38q0-1.63.9-2.68t2.37-1.05q1.46 0 2.36 1.05.9 1.05.9 2.68v.23q0 1.66-.9 2.7-.9 1.04-2.37 1.04-1.5 0-2.4-1.04-.9-1.05-.9-2.7v-.22zm.82.23q0 1.3.65 2.18t1.8.87q1.13 0 1.8-.87.64-.88.64-2.16v-.22q0-1.26-.66-2.15-.66-.88-1.8-.88t-1.8.88q-.66.9-.66 2.15v.23zM73.5 60.64q.83 0 1.45-.46.62-.47.62-1.3h.73v.05q.04 1.02-.8 1.7-.86.7-2 .7-1.5 0-2.32-1.03-.82-1.04-.82-2.67v-.28q0-1.62.82-2.66.83-1.06 2.33-1.06 1.23 0 2.04.72.8.72.8 1.9l-.03.03h-.72q0-.9-.6-1.4-.6-.56-1.46-.56-1.18 0-1.76.86-.56.85-.56 2.15v.28q0 1.32.56 2.16.57.83 1.77.83zM80.8 61.33q-1.4 0-2.32-1.02-.9-1-.9-2.6v-.36q0-1.58.9-2.63.9-1.04 2.2-1.04 1.37 0 2.15.87.78.86.78 2.3v.7h-5.2v.2q0 1.24.66 2.08.66.85 1.74.85.76 0 1.3-.2.54-.22.92-.62l.35.56q-.42.43-1.06.7-.6.24-1.5.24zm-.1-6.98q-.92 0-1.53.7-.62.7-.72 1.74h4.35v-.2q0-.96-.57-1.6-.57-.66-1.54-.66zM89.67 59.3q0-.5-.43-.9t-1.54-.64q-1.33-.28-1.96-.76-.63-.47-.63-1.33 0-.85.73-1.43.72-.6 1.9-.6 1.24 0 1.97.64.73.6.7 1.54l-.02.04h-.76q0-.6-.52-1.06-.5-.45-1.4-.45-.88 0-1.33.4-.45.37-.45.9 0 .5.38.84.4.32 1.55.57 1.32.3 1.97.8.66.5.66 1.4 0 .9-.75 1.48-.75.57-1.98.57-1.34 0-2.12-.64-.76-.65-.72-1.54l.03-.04h.75q.05.8.65 1.16.6.36 1.43.36.9 0 1.4-.4.52-.38.52-.93zM96.8 59.3q0-.5-.43-.9-.42-.4-1.53-.64-1.33-.28-1.97-.76-.63-.47-.63-1.33 0-.85.72-1.43.7-.6 1.9-.6 1.24 0 1.97.64.73.6.7 1.54l-.02.04h-.73q0-.6-.52-1.06-.52-.45-1.4-.45-.9 0-1.34.4-.43.37-.43.9 0 .5.38.84.4.32 1.55.57 1.3.3 1.96.8.66.5.66 1.4 0 .9-.75 1.48-.75.57-1.98.57-1.37 0-2.14-.64-.76-.65-.72-1.54v-.04h.76q.06.8.66 1.16.6.36 1.43.36.87 0 1.4-.4.5-.38.5-.93zM100.5 61.2h-.93v-1.13h.94v1.12zM113.16 51.93h-3.42v9.26h-.83V51.9h-3.4v-.7h7.67v.7zM115.37 55.06q.37-.67.98-1.04.62-.37 1.44-.37 1.15 0 1.77.73.63.72.63 2.25v4.56h-.8v-4.6q0-1.2-.5-1.7-.46-.54-1.3-.54-.84 0-1.4.44-.56.45-.83 1.18v5.2h-.82V50.53h.82v4.54zM125.12 61.33q-1.4 0-2.3-1.02-.93-1-.93-2.6v-.36q0-1.58.9-2.63.9-1.04 2.2-1.04 1.37 0 2.15.87.78.86.78 2.3v.7h-5.23v.2q0 1.24.68 2.08.66.85 1.74.85.77 0 1.3-.2.55-.22.93-.62l.35.56q-.42.43-1.06.7-.64.24-1.52.24zm-.1-6.98q-.9 0-1.53.7t-.73 1.74h4.34v-.2q0-.96-.55-1.6-.57-.66-1.54-.66zM132.97 54.5l-.6-.05q-.78 0-1.28.44-.5.4-.7 1.17v5.1h-.84v-7.4h.7l.12 1.24v.1q.3-.7.85-1.07t1.28-.4q.17 0 .3.04.16.02.26.05l-.1.77zM136.96 61.33q-1.4 0-2.3-1.02-.93-1-.93-2.6v-.36q0-1.58.9-2.63.93-1.04 2.23-1.04 1.36 0 2.14.87.78.86.78 2.3v.7h-5.23v.2q0 1.24.67 2.08.66.85 1.74.85.77 0 1.3-.2.55-.22.93-.62l.33.56q-.42.43-1.06.7-.64.24-1.52.24zm-.1-6.98q-.9 0-1.53.7-.6.7-.7 1.74h4.33v-.2q0-.96-.56-1.6-.57-.66-1.54-.66zM142 61.2v-6.74h-1.22v-.67H142v-1.1q0-1.1.55-1.7.56-.63 1.57-.63.22 0 .46.03t.47.1l-.1.7q-.17-.05-.35-.07-.17-.03-.4-.03-.67 0-1.02.42-.36.43-.36 1.2v1.07h1.76v.65h-1.76v6.73H142zM145.54 57.38q0-1.63.9-2.68.9-1.05 2.37-1.05 1.5 0 2.4 1.05.9 1.05.9 2.68v.23q0 1.66-.9 2.7-.9 1.04-2.37 1.04-1.5 0-2.38-1.04-.9-1.05-.9-2.7v-.22zm.82.23q0 1.3.65 2.18.67.87 1.83.87 1.14 0 1.8-.87.65-.88.65-2.16v-.22q0-1.26-.66-2.15-.64-.88-1.8-.88t-1.8.88q-.64.9-.64 2.15v.23zM157.2 54.5l-.62-.05q-.77 0-1.27.44-.47.4-.7 1.17v5.1h-.8v-7.4h.7l.1 1.24v.1q.34-.7.88-1.07t1.28-.4q.16 0 .3.04.15.02.25.05l-.1.77zM161.18 61.33q-1.4 0-2.3-1.02-.93-1-.93-2.6v-.36q0-1.58.9-2.63.93-1.04 2.23-1.04 1.36 0 2.14.87.78.86.78 2.3v.7h-5.23v.2q0 1.24.67 2.08.66.85 1.74.85.77 0 1.3-.2.55-.22.93-.62l.37.56q-.42.43-1.06.7-.63.24-1.5.24zm-.1-6.98q-.9 0-1.53.7-.6.7-.7 1.74h4.33v-.2q0-.96-.56-1.6-.57-.66-1.54-.66zM168.6 57.38q0-1.63.9-2.68t2.36-1.05q1.48 0 2.38 1.05.9 1.05.9 2.68v.23q0 1.66-.9 2.7-.9 1.04-2.37 1.04-1.5 0-2.38-1.04-.9-1.05-.9-2.7v-.22zm.8.23q0 1.3.66 2.18.65.87 1.8.87t1.8-.87q.66-.88.66-2.16v-.22q0-1.26-.66-2.15-.65-.88-1.8-.88t-1.8.88q-.65.9-.65 2.15v.23zM181.7 59.98q-.37.65-.97 1t-1.42.35q-1.15 0-1.8-.8-.67-.78-.67-2.45v-4.3h.82v4.3q0 1.36.45 1.95.46.6 1.3.6.94 0 1.5-.43t.76-1.14V53.8h.82v7.4h-.72l-.07-1.22zM188.04 54.5l-.6-.05q-.78 0-1.28.44-.5.4-.7 1.17v5.1h-.82v-7.4h.7l.12 1.24v.1q.32-.7.86-1.07t1.28-.4q.16 0 .3.04.15.02.25.05l-.1.77zM195.58 61.33q-1.4 0-2.3-1.02-.93-1-.93-2.6v-.36q0-1.58.9-2.63.93-1.04 2.23-1.04 1.36 0 2.14.87.78.86.78 2.3v.7h-5.23v.2q0 1.24.67 2.08.66.85 1.74.85.77 0 1.3-.2.55-.22.93-.62l.37.56q-.42.43-1.06.7-.63.24-1.5.24zm-.1-6.98q-.9 0-1.53.7-.6.7-.7 1.74h4.33v-.2q0-.96-.56-1.6-.57-.66-1.54-.66zM202.35 56.8l2-3h.97l-2.5 3.62 2.6 3.77h-.95l-2.1-3.17-2.1 3.15h-.98l2.6-3.78-2.5-3.63h.95l2 3zM212.84 57.7q0 1.66-.75 2.65-.77.98-2.1.98-.77 0-1.36-.3-.58-.3-.95-.83v3.83h-.83V53.8h.7l.1 1.14q.36-.62.94-.95.6-.36 1.4-.36 1.33 0 2.1 1.07.73 1.07.73 2.84v.14zm-.82-.15q0-1.4-.56-2.3-.56-.9-1.64-.9-.83 0-1.35.4-.5.4-.77 1.03v3.55q.28.6.8.96.54.33 1.33.33 1.08 0 1.63-.8.56-.8.56-2.15v-.15zM217.46 61.33q-1.4 0-2.3-1.02-.93-1-.93-2.6v-.36q0-1.58.9-2.63.93-1.04 2.23-1.04 1.36 0 2.14.87.78.86.78 2.3v.7h-5.23v.2q0 1.24.67 2.08.66.85 1.74.85.77 0 1.3-.2.55-.22.93-.62l.33.56q-.42.43-1.06.7-.64.24-1.52.24zm-.1-6.98q-.9 0-1.53.7-.6.7-.7 1.74h4.33v-.2q0-.96-.56-1.6-.57-.66-1.54-.66zM225.3 54.5l-.6-.05q-.77 0-1.27.44-.5.4-.7 1.17v5.1h-.82v-7.4h.73l.1 1.24v.1q.33-.7.87-1.07t1.27-.4q.16 0 .3.04.15.02.25.05l-.1.77zM228.16 51.9v1.9h1.63v.66h-1.65v4.82q0 .72.26 1.03.28.3.7.3.2 0 .4 0t.43-.05l.13.6q-.2.1-.5.14-.3.04-.6.04-.77 0-1.2-.5-.44-.48-.44-1.55v-4.83h-1.28v-.67h1.28v-1.9h.83zM235.96 59.3q0-.5-.43-.9-.42-.4-1.54-.64-1.34-.28-1.98-.76-.63-.47-.63-1.33 0-.85.7-1.43.72-.6 1.9-.6 1.25 0 2 .64.7.6.67 1.54v.04h-.77q0-.6-.5-1.06-.52-.45-1.4-.45-.9 0-1.34.4-.45.37-.45.9 0 .5.4.84.4.32 1.55.57 1.32.3 1.98.8.65.5.65 1.4 0 .9-.75 1.48-.74.57-1.97.57-1.35 0-2.12-.64-.77-.65-.73-1.54l.03-.04h.75q.05.8.65 1.16.6.36 1.43.36.88 0 1.4-.4.5-.38.5-.93zM248.04 57.7q0 1.66-.75 2.65-.77.98-2.1.98-.77 0-1.36-.3-.58-.3-.95-.83v3.83h-.83V53.8h.7l.1 1.14q.36-.62.94-.95.6-.36 1.4-.36 1.33 0 2.1 1.07.73 1.07.73 2.84v.14zm-.82-.15q0-1.4-.56-2.3-.56-.9-1.64-.9-.83 0-1.35.4-.5.4-.77 1.03v3.55q.28.6.8.96.54.33 1.33.33 1.08 0 1.63-.8.56-.8.56-2.15v-.15zM253.28 54.5l-.6-.05q-.78 0-1.28.44-.5.4-.7 1.17v5.1h-.82v-7.4h.7l.12 1.24v.1q.32-.7.86-1.07t1.28-.4q.16 0 .3.04.15.02.25.05l-.13.77zM254.04 57.38q0-1.63.9-2.68.9-1.05 2.37-1.05 1.5 0 2.4 1.05.9 1.05.9 2.68v.23q0 1.66-.9 2.7-.9 1.04-2.37 1.04-1.5 0-2.38-1.04-.9-1.05-.9-2.7v-.22zm.82.23q0 1.3.65 2.18.67.87 1.83.87 1.14 0 1.8-.87.65-.88.65-2.16v-.22q0-1.26-.66-2.15-.64-.88-1.8-.88t-1.8.88q-.64.9-.64 2.15v.23zM261.83 57.38q0-1.63.9-2.68.9-1.05 2.37-1.05 1.48 0 2.38 1.05.9 1.05.9 2.68v.23q0 1.66-.9 2.7-.9 1.04-2.37 1.04-1.47 0-2.36-1.04-.9-1.05-.9-2.7v-.22zm.82.23q0 1.3.65 2.18.65.87 1.8.87t1.8-.87q.66-.88.66-2.16v-.22q0-1.26-.66-2.15-.65-.88-1.8-.88t-1.8.88q-.65.9-.65 2.15v.23zM270.68 61.2v-6.74h-1.22v-.67h1.22v-1.1q0-1.1.55-1.7.56-.63 1.57-.63.22 0 .46.03t.47.1l-.1.7q-.17-.05-.35-.07-.17-.03-.4-.03-.67 0-1.02.42-.36.43-.36 1.2v1.07h1.76v.65h-1.76v6.73h-.82zM278.08 54.5l-.6-.05q-.78 0-1.28.44-.5.4-.7 1.17v5.1h-.82v-7.4h.7l.12 1.24v.1q.32-.7.86-1.07.54-.4 1.28-.4.16 0 .3.04.15.02.25.05l-.13.77zM282.07 61.33q-1.4 0-2.3-1.02-.93-1-.93-2.6v-.36q0-1.58.9-2.63.93-1.04 2.23-1.04 1.36 0 2.14.87.8.86.8 2.3v.7h-5.23v.2q0 1.24.67 2.08.66.85 1.74.85.77 0 1.3-.2.55-.22.93-.62l.36.56q-.42.43-1.06.7-.65.24-1.53.24zm-.1-6.98q-.9 0-1.53.7-.6.7-.7 1.74h4.33v-.2q0-.96-.56-1.6-.55-.66-1.52-.66zM291.2 61.2q-.08-.4-.12-.66-.03-.27-.03-.56-.4.6-1.1.97-.68.38-1.53.38-1.08 0-1.68-.57-.6-.58-.6-1.54 0-1.03.88-1.64.9-.62 2.4-.62h1.63v-.9q0-.8-.5-1.26-.52-.45-1.44-.45-.83 0-1.4.43-.56.43-.56 1.06h-.75v-.05q-.06-.85.73-1.5.8-.66 2.03-.66 1.22 0 1.97.63.74.62.74 1.78v3.64q0 .4.04.75.06.37.16.73h-.85zm-2.7-.6q.9 0 1.57-.4.68-.42.98-1.06V57.6h-1.65q-1.1 0-1.78.47-.67.47-.67 1.18 0 .6.42.98.4.38 1.14.38zM293.7 57.55q0-1.77.76-2.83.75-1.07 2.1-1.07.76 0 1.33.33.54.33.92.93v-4.37h.8V61.2h-.7l-.08-1.1q-.37.6-.95.92t-1.38.3q-1.32 0-2.07-.97-.75-1-.75-2.66v-.16zm.83.14q0 1.32.53 2.12.54.8 1.62.8.8 0 1.32-.37.54-.35.83-.98V55.8q-.28-.63-.8-1.03-.5-.4-1.33-.4-1.08 0-1.63.88-.54.9-.54 2.3v.14zM2.94 79.2l.26.86h.04l2.24-6.28h.9l-3.2 8.57q-.3.75-.75 1.28t-1.34.53q-.16 0-.36-.04-.2-.03-.3-.06l.1-.68q.07 0 .25.02t.26.02q.53 0 .85-.38.33-.38.56-.97l.4-1L0 73.8h.9l2.04 5.38zM7.14 77.38q0-1.63.9-2.68t2.36-1.05q1.5 0 2.38 1.05.9 1.05.9 2.68v.23q0 1.66-.9 2.7-.9 1.04-2.36 1.04-1.5 0-2.4-1.04-.88-1.05-.88-2.7v-.22zm.82.23q0 1.3.65 2.18t1.83.87q1.14 0 1.8-.87.65-.88.65-2.16v-.22q0-1.26-.66-2.15-.65-.88-1.8-.88t-1.8.88q-.64.9-.64 2.15v.23zM20.23 79.98q-.35.65-.95 1t-1.42.35q-1.17 0-1.84-.8-.66-.78-.66-2.45v-4.3h.82v4.3q0 1.36.46 1.95.46.6 1.3.6.94 0 1.5-.43t.77-1.14V73.8h.84v7.4h-.73l-.06-1.22zM26.6 74.5l-.63-.05q-.78 0-1.27.44-.5.4-.7 1.17v5.1h-.82v-7.4h.72L24 75v.1q.32-.7.86-1.07t1.3-.4q.14 0 .3.04.14.02.23.05l-.1.77zM37.3 77.7q0 1.66-.74 2.65-.75.98-2.07.98-.8 0-1.4-.3-.57-.3-.94-.83v3.83h-.82V73.8h.7l.1 1.14q.36-.62.94-.95.58-.36 1.37-.36 1.34 0 2.1 1.07.74 1.07.74 2.84v.14zm-.8-.15q0-1.4-.57-2.3-.56-.9-1.64-.9-.85 0-1.37.4-.5.4-.77 1.03v3.55q.28.6.8.96.54.33 1.33.33 1.07 0 1.62-.8.56-.8.56-2.15v-.15zM43.83 81.2q-.08-.4-.1-.66-.05-.28-.05-.56-.4.6-1.1.97-.68.38-1.53.38-1.08 0-1.68-.57-.6-.58-.6-1.54 0-1.03.9-1.64.87-.62 2.38-.62h1.63v-.9q0-.8-.5-1.26-.52-.45-1.43-.45-.86 0-1.42.43-.57.43-.57 1.05H39v-.04q-.04-.85.75-1.5.8-.66 2.03-.66 1.23 0 1.97.63.75.62.75 1.78v3.64q0 .4.04.75.04.37.15.73h-.88zm-2.68-.6q.88 0 1.55-.4.68-.42.98-1.06V77.6h-1.65q-1.1 0-1.78.47-.66.47-.66 1.18 0 .6.4.98t1.14.38zM52.62 77.7q0 1.66-.75 2.65-.75.98-2.07.98-.78 0-1.37-.3-.58-.3-.95-.83v3.83h-.82V73.8h.7l.1 1.14q.36-.62.95-.95.6-.36 1.4-.36 1.33 0 2.08 1.07t.75 2.84v.14zm-.82-.15q0-1.4-.56-2.3-.56-.9-1.64-.9-.83 0-1.35.4-.5.4-.77 1.03v3.55q.28.6.8.96.54.33 1.34.33 1.07 0 1.62-.8.56-.8.56-2.15v-.15zM57.24 81.33q-1.4 0-2.3-1.02-.94-1-.94-2.6v-.37q0-1.58.92-2.63.92-1.05 2.2-1.05 1.37 0 2.15.87.78.86.78 2.3v.7h-5.22v.2q0 1.24.66 2.08.65.84 1.73.84.76 0 1.3-.2.54-.22.93-.62l.34.56q-.4.44-1.05.7-.63.25-1.5.25zm-.1-6.98q-.9 0-1.53.7-.6.7-.7 1.74h4.35v-.2q0-.96-.57-1.6-.56-.66-1.54-.66zM65.08 74.5l-.6-.05q-.78 0-1.27.44-.5.4-.7 1.17v5.1h-.8v-7.4h.7l.1 1.24v.1q.33-.7.87-1.07t1.3-.4q.14 0 .3.04.14.02.23.05l-.1.77zM74.54 81.2q-.08-.4-.12-.66-.03-.27-.03-.56-.43.6-1.1.97-.7.38-1.55.38-1.08 0-1.68-.57-.6-.58-.6-1.54 0-1.03.88-1.64.9-.62 2.4-.62h1.63v-.9q0-.8-.52-1.26-.5-.45-1.43-.45-.85 0-1.42.43-.55.43-.55 1.06h-.75v-.05q-.06-.85.74-1.5.8-.66 2.03-.66 1.2 0 1.96.63.74.62.74 1.78v3.64q0 .4.04.75.06.37.16.73h-.86zm-2.7-.6q.9 0 1.57-.4.7-.42 1-1.06V77.6h-1.65q-1.1 0-1.78.47-.67.47-.67 1.18 0 .6.4.98.42.38 1.15.38zM78.1 73.8l.08 1.28q.35-.68.95-1.05.6-.38 1.44-.38 1.2 0 1.83.74.63.7.63 2.27v4.5h-.82v-4.5q0-1.26-.46-1.8-.47-.5-1.35-.5-.87 0-1.4.44-.55.46-.8 1.2v5.18h-.8v-7.4h.7zM84.85 77.55q0-1.77.74-2.83.74-1.07 2.07-1.07.78 0 1.34.33.58.33.96.93v-4.37h.8V81.2h-.7l-.08-1.1q-.38.6-.96.92t-1.37.3q-1.33 0-2.08-.97-.75-1-.75-2.66v-.16zm.82.14q0 1.32.53 2.12.54.8 1.62.8.8 0 1.32-.37.53-.35.83-.98V75.8q-.28-.63-.8-1.03-.5-.4-1.33-.4-1.08 0-1.63.88-.52.9-.52 2.3v.14zM96.97 81.2v-6.74h-1.22v-.67h1.22v-1.1q0-1.1.56-1.7.56-.63 1.56-.63.2 0 .44.03t.47.1l-.1.7q-.15-.05-.33-.07-.17-.03-.4-.03-.67 0-1.03.42-.35.43-.35 1.2v1.07h1.75v.65H97.8v6.73h-.83zM100.52 77.38q0-1.63.9-2.68.9-1.05 2.37-1.05 1.46 0 2.36 1.05.9 1.05.9 2.68v.23q0 1.66-.9 2.7-.9 1.04-2.37 1.04-1.5 0-2.4-1.04-.9-1.05-.9-2.7v-.22zm.82.23q0 1.3.65 2.18.63.87 1.8.87 1.13 0 1.8-.87.64-.88.64-2.16v-.22q0-1.26-.66-2.15-.66-.88-1.8-.88t-1.8.88q-.66.9-.66 2.15v.23zM112.17 74.5l-.6-.05q-.78 0-1.28.44-.5.4-.7 1.17v5.1h-.84v-7.4h.7l.12 1.24v.1q.3-.7.85-1.07t1.28-.4q.17 0 .3.04.16.02.26.05l-.1.77zM114.2 73.8l.1 1.2q.34-.63.93-1 .6-.35 1.4-.35.86 0 1.43.4.57.42.82 1.27.33-.78.95-1.22.62-.45 1.5-.45 1.2 0 1.84.8.64.78.64 2.42v4.32h-.8v-4.35q0-1.37-.5-1.93-.47-.56-1.33-.56-.95 0-1.47.6-.53.58-.65 1.5 0 .06 0 .15 0 .1 0 .14v4.44h-.82v-4.34q0-1.34-.5-1.9-.48-.6-1.33-.6-.87 0-1.38.45-.5.44-.7 1.2v5.2h-.84v-7.4h.73zM130.62 81.2q-.08-.4-.12-.66-.03-.27-.03-.56-.4.6-1.1.97-.68.38-1.53.38-1.08 0-1.68-.57-.6-.58-.6-1.54 0-1.03.88-1.64.9-.62 2.4-.62h1.63v-.9q0-.8-.5-1.26-.52-.45-1.43-.45-.86 0-1.43.43-.54.43-.54 1.06h-.75v-.05q-.04-.85.75-1.5.8-.66 2.03-.66 1.22 0 1.97.63.74.62.74 1.78v3.64q0 .4.03.75.05.37.15.73h-.85zm-2.7-.6q.9 0 1.57-.4.66-.42.96-1.06V77.6h-1.65q-1.1 0-1.77.47-.67.47-.67 1.18 0 .6.42.98.4.38 1.13.38zM134.74 71.9v1.9h1.63v.66h-1.63v4.82q0 .72.26 1.03.27.3.7.3.2 0 .4 0 .18 0 .42-.05l.13.6q-.2.1-.5.14-.3.04-.6.04-.77 0-1.2-.5-.44-.48-.44-1.55v-4.83h-1.26v-.67h1.28v-1.9h.84zM142.44 81.2h-.8v-7.4h.8v7.4zm0-9.53h-.8v-1.15h.8v1.15zM145.98 71.9v1.9h1.63v.66H146v4.82q0 .72.26 1.03.27.3.7.3.2 0 .4 0 .18 0 .42-.05l.13.6q-.2.1-.5.14-.3.04-.6.04-.77 0-1.2-.5-.44-.48-.44-1.55v-4.83h-1.28v-.67h1.28v-1.9h.83zM157.45 81.2q-.08-.4-.12-.66-.03-.27-.03-.56-.4.6-1.1.97-.68.38-1.53.38-1.08 0-1.68-.57-.6-.58-.6-1.54 0-1.03.86-1.64.9-.62 2.4-.62h1.63v-.9q0-.8-.5-1.26-.53-.45-1.45-.45-.85 0-1.42.43-.56.43-.56 1.06h-.75v-.05q-.05-.85.74-1.5.8-.66 2.03-.66 1.2 0 1.96.63.74.62.74 1.78v3.64q0 .4.05.75.05.37.15.73h-.85zm-2.7-.6q.9 0 1.57-.4.68-.42.98-1.06V77.6h-1.65q-1.1 0-1.78.47-.67.47-.67 1.18 0 .6.42.98.4.38 1.14.38zM163.02 80.64q.8 0 1.44-.46.62-.47.62-1.3h.72l.02.05q.03 1.02-.82 1.7-.86.7-1.98.7-1.5 0-2.34-1.03-.82-1.04-.82-2.67v-.28q0-1.62.83-2.66.8-1.06 2.3-1.06 1.22 0 2.03.72.8.72.78 1.9v.03h-.73q0-.9-.6-1.4-.6-.56-1.47-.56-1.18 0-1.75.86-.57.85-.57 2.15v.28q0 1.32.57 2.16.57.83 1.77.83zM170.27 80.64q.8 0 1.44-.46.64-.47.64-1.3h.72l.02.05q.03 1.02-.82 1.7-.86.7-1.98.7-1.5 0-2.34-1.03-.82-1.04-.82-2.67v-.28q0-1.62.84-2.66.83-1.06 2.32-1.06 1.22 0 2.03.72.8.72.78 1.9v.03h-.74q0-.9-.6-1.4-.6-.56-1.47-.56-1.2 0-1.76.86-.56.85-.56 2.15v.28q0 1.32.57 2.16.58.83 1.78.83zM174.32 77.38q0-1.63.9-2.68.9-1.05 2.37-1.05 1.46 0 2.36 1.05.9 1.05.9 2.68v.23q0 1.66-.9 2.7-.9 1.04-2.37 1.04-1.5 0-2.4-1.04-.9-1.05-.9-2.7v-.22zm.82.23q0 1.3.65 2.18.63.87 1.8.87 1.13 0 1.8-.87.64-.88.64-2.16v-.22q0-1.26-.66-2.15-.66-.88-1.8-.88t-1.8.88q-.66.9-.66 2.15v.23zM185.97 74.5l-.6-.05q-.78 0-1.28.44-.5.4-.7 1.17v5.1h-.84v-7.4h.7l.12 1.24v.1q.3-.7.85-1.07t1.28-.4q.17 0 .3.04.16.02.26.05l-.1.77zM186.87 77.55q0-1.77.75-2.83.75-1.07 2.1-1.07.76 0 1.33.33.56.33.94.93v-4.37h.8V81.2h-.73l-.07-1.1q-.36.6-.94.92-.58.3-1.37.3-1.34 0-2.1-.97-.74-1-.74-2.66v-.16zm.82.14q0 1.32.5 2.12.55.8 1.63.8.8 0 1.32-.37.54-.35.83-.98V75.8q-.3-.63-.8-1.03-.52-.4-1.34-.4-1.08 0-1.63.88-.53.9-.53 2.3v.14zM195.9 81.2h-.8v-7.4h.8v7.4zm0-9.53h-.8v-1.15h.8v1.15zM198.88 73.8l.08 1.28q.35-.68.95-1.05.63-.38 1.46-.38 1.2 0 1.83.74.62.7.62 2.27v4.5h-.8v-4.5q0-1.26-.5-1.8-.46-.5-1.34-.5-.86 0-1.4.44-.55.46-.78 1.2v5.18h-.82v-7.4h.72zM205.62 77.55q0-1.77.75-2.83.76-1.07 2.1-1.07.8 0 1.37.35.57.34.95.97l.07-1.18h.7v7.3q0 1.4-.8 2.24-.78.83-2.2.83-.53 0-1.13-.13-.6-.13-1.05-.36l.2-.7q.44.22.92.33.5.1 1.04.1 1.08 0 1.63-.6.54-.62.54-1.73v-.94q-.37.56-.95.87-.58.3-1.35.3-1.33 0-2.1-1-.74-.98-.74-2.64v-.15zm.82.14q0 1.32.55 2.12.52.8 1.6.8.8 0 1.32-.37.54-.36.82-1v-3.43q-.26-.64-.78-1.05-.52-.4-1.34-.4-1.08 0-1.64.87-.56.9-.56 2.3v.14zM218.44 71.9v1.9h1.63v.66h-1.63v4.82q0 .72.26 1.03.27.3.7.3.2 0 .4 0 .18 0 .42-.05l.13.6q-.2.1-.5.14-.3.04-.6.04-.77 0-1.2-.5-.44-.48-.44-1.55v-4.83h-1.26v-.67h1.28v-1.9h.84zM221.2 77.38q0-1.63.9-2.68.9-1.05 2.38-1.05t2.38 1.05q.9 1.05.9 2.68v.23q0 1.66-.9 2.7-.9 1.04-2.37 1.04-1.5 0-2.4-1.04-.9-1.05-.9-2.7v-.22zm.83.23q0 1.3.65 2.18.65.87 1.8.87t1.8-.87q.66-.88.66-2.16v-.22q0-1.26-.66-2.15-.65-.88-1.8-.88t-1.8.88q-.65.9-.65 2.15v.23zM234.17 71.9v1.9h1.63v.66h-1.63v4.82q0 .72.26 1.03.27.3.7.3.2 0 .4 0 .18 0 .42-.05l.13.6q-.2.1-.5.14-.3.04-.6.04-.77 0-1.2-.5-.44-.48-.44-1.55v-4.83h-1.28v-.67h1.28v-1.9h.83zM238.35 75.06q.37-.67.98-1.04.62-.37 1.44-.37 1.17 0 1.8.73.62.72.62 2.25v4.56h-.84v-4.6q0-1.2-.48-1.7-.48-.54-1.3-.54-.86 0-1.42.44-.56.45-.83 1.18v5.2h-.82V70.53h.83v4.54zM248.1 81.33q-1.4 0-2.3-1.02-.93-1-.93-2.6v-.36q0-1.58.9-2.63.93-1.04 2.23-1.04 1.36 0 2.14.87.78.86.78 2.3v.7h-5.23v.2q0 1.24.65 2.08.66.85 1.74.85.76 0 1.3-.2.54-.22.92-.62l.35.56q-.42.43-1.06.7-.63.24-1.5.24zm-.1-6.98q-.9 0-1.53.7-.6.7-.7 1.74h4.33v-.2q0-.96-.56-1.6-.57-.66-1.54-.66zM259.36 74.5l-.6-.05q-.78 0-1.28.44-.5.4-.7 1.17v5.1h-.82v-7.4h.7l.12 1.24v.1q.32-.7.86-1.07t1.28-.4q.16 0 .3.04.15.02.25.05l-.1.77zM263.35 81.33q-1.4 0-2.3-1.02-.93-1-.93-2.6v-.36q0-1.58.9-2.63.93-1.04 2.23-1.04 1.36 0 2.14.87.76.86.76 2.3v.7h-5.23v.2q0 1.24.67 2.08.67.85 1.75.85.77 0 1.3-.2.55-.22.93-.62l.35.56q-.42.43-1.06.7-.64.24-1.52.24zm-.1-6.98q-.9 0-1.53.7-.6.7-.7 1.74h4.33v-.2q0-.96-.56-1.6-.6-.66-1.56-.66zM267.48 77.55q0-1.77.75-2.83.75-1.07 2.1-1.07.75 0 1.3.33.6.3.96.9l.06-1.1h.7v10.25h-.8v-3.8q-.38.53-.95.8t-1.3.3q-1.33 0-2.08-.98-.75-1-.75-2.66v-.16zm.82.14q0 1.32.53 2.13.54.8 1.62.8.77 0 1.3-.34.52-.36.82-.95v-3.63q-.28-.6-.8-1-.52-.38-1.3-.38-1.08 0-1.63.9-.54.9-.54 2.3v.14zM280.44 79.98q-.36.65-.96 1t-1.42.35q-1.17 0-1.83-.8-.66-.78-.66-2.45v-4.3h.82v4.3q0 1.36.43 1.95.47.6 1.32.6.93 0 1.48-.43.55-.4.77-1.14V73.8h.83v7.4h-.72l-.05-1.22zM284.3 81.2h-.8v-7.4h.8v7.4zm0-9.53h-.8v-1.15h.8v1.15zM289.96 74.5l-.6-.05q-.78 0-1.28.44-.5.4-.7 1.17v5.1h-.82v-7.4h.7l.12 1.24v.1q.32-.7.86-1.07.54-.4 1.28-.4.16 0 .3.04.15.02.25.05l-.1.77zM293.95 81.33q-1.4 0-2.3-1.02-.93-1-.93-2.6v-.36q0-1.58.9-2.63.93-1.04 2.23-1.04 1.36 0 2.14.87.76.86.76 2.3v.7h-5.23v.2q0 1.24.67 2.08.67.85 1.75.85.77 0 1.3-.2.55-.22.93-.62l.35.56q-.42.43-1.06.7-.64.24-1.52.24zm-.1-6.98q-.9 0-1.53.7-.6.7-.7 1.74h4.33v-.2q0-.96-.56-1.6-.6-.66-1.56-.66zM298.07 77.55q0-1.77.75-2.83.75-1.07 2.1-1.07.76 0 1.33.33.56.33.94.93v-4.37h.8V81.2h-.73l-.07-1.1q-.36.6-.94.92-.58.3-1.37.3-1.34 0-2.1-.97-.74-1-.74-2.66v-.16zm.82.14q0 1.32.5 2.12.55.8 1.63.8.8 0 1.32-.37.54-.35.83-.98V75.8q-.3-.63-.8-1.03-.52-.4-1.34-.4-1.08 0-1.63.88-.53.9-.53 2.3v.14zM16.2 99.3q0-.5-.44-.9-.42-.4-1.53-.64-1.33-.28-1.97-.76-.63-.47-.63-1.33 0-.85.72-1.43.7-.6 1.9-.6 1.24 0 1.97.64.73.6.7 1.54l-.02.04h-.75q0-.6-.52-1.06-.52-.45-1.4-.45-.9 0-1.34.4-.46.37-.46.9 0 .5.38.84.4.32 1.55.57 1.3.3 1.97.8.66.5.66 1.4 0 .9-.74 1.48-.75.57-1.98.57-1.35 0-2.12-.64-.76-.65-.72-1.54v-.04h.76q.05.8.65 1.16.6.36 1.43.36.9 0 1.4-.4.5-.38.5-.93zM20.2 91.9v1.9h1.6v.66h-1.6v4.82q0 .72.25 1.03.26.3.7.3.2 0 .38 0 .2 0 .44-.05l.12.6q-.2.1-.5.14-.3.04-.6.04-.78 0-1.2-.5-.45-.48-.45-1.55v-4.83h-1.28v-.67h1.28v-1.9h.83zM25.65 99.2l.26.86h.06l2.23-6.28h.9l-3.2 8.57q-.3.75-.75 1.28t-1.34.53q-.13 0-.34-.04-.2-.03-.3-.06l.1-.68q.08 0 .26.02.2.02.28.02.53 0 .85-.38.32-.38.55-.97l.4-1-2.87-7.3h.92l2.03 5.38zM31.33 101.2h-.8V90.52h.8v10.66zM36.36 101.33q-1.4 0-2.3-1.03-.93-1.02-.93-2.6v-.37q0-1.58.9-2.63.93-1.05 2.23-1.05 1.36 0 2.14.86.78.9.78 2.3v.7h-5.23v.2q0 1.27.67 2.1.66.85 1.74.85.77 0 1.3-.2.55-.22.93-.62l.33.56q-.42.43-1.06.7-.64.24-1.52.24zm-.1-6.98q-.9 0-1.53.7-.6.7-.7 1.73v.04h4.33v-.2q0-.97-.56-1.62-.57-.65-1.54-.65zM43.9 97.55q0-1.77.75-2.83.76-1.07 2.1-1.07.8 0 1.37.35.57.34.95.97l.1-1.18h.68v7.3q0 1.4-.8 2.24-.77.83-2.18.83-.54 0-1.14-.13-.6-.13-1.05-.36l.2-.7q.45.22.93.33.5.1 1.06.1 1.08 0 1.63-.6.54-.62.54-1.73v-.94q-.37.56-.95.87-.58.3-1.35.3-1.33 0-2.1-1-.74-.98-.74-2.64v-.15zm.82.14q0 1.32.55 2.12.54.8 1.62.8.8 0 1.3-.37.54-.36.82-1v-3.43q-.26-.64-.78-1.05-.52-.4-1.34-.4-1.07 0-1.63.87-.55.9-.55 2.3v.14zM56.86 99.98q-.35.65-.96 1-.6.35-1.42.35-1.17 0-1.83-.8-.66-.78-.66-2.45v-4.3h.8v4.3q0 1.36.46 1.95.46.6 1.3.6.94 0 1.5-.43.54-.4.76-1.14V93.8h.82v7.4h-.72l-.07-1.22zM60.72 101.2h-.8v-7.4h.8v7.4zm0-9.53h-.8v-1.14h.8v1.14zM62.66 97.55q0-1.77.74-2.83.76-1.07 2.1-1.07.77 0 1.33.33.57.33.95.93v-4.37h.8v10.67h-.7l-.08-1.1q-.37.6-.95.92t-1.37.3q-1.33 0-2.08-.97-.74-1-.74-2.66v-.16zm.82.14q0 1.32.53 2.12.56.8 1.64.8.8 0 1.32-.37.53-.35.83-.98V95.8q-.3-.63-.8-1.03t-1.34-.4q-1.08 0-1.63.88-.54.9-.54 2.3v.14zM73.55 101.33q-1.4 0-2.3-1.03-.93-1.02-.93-2.6v-.37q0-1.58.9-2.63.93-1.05 2.23-1.05 1.36 0 2.14.86.75.9.75 2.3v.7h-5.22v.2q0 1.27.66 2.1.66.85 1.74.85.76 0 1.3-.2.54-.22.93-.62l.34.56q-.4.43-1.05.7-.63.24-1.5.24zm-.1-6.98q-.9 0-1.53.7-.6.7-.72 1.73l.02.04h4.33v-.2q0-.97-.57-1.62-.56-.65-1.53-.65zM79 101.2h-.95v-1.13H79v1.12zM87.9 96.77l3.1-5.54h.94l-3.63 6.32v3.64h-.8v-3.7l-3.6-6.28h.95l3.06 5.53zM92.35 97.38q0-1.63.9-2.68t2.37-1.05q1.5 0 2.38 1.05.9 1.05.9 2.68v.23q0 1.66-.9 2.7-.9 1.04-2.36 1.04-1.5 0-2.4-1.04-.9-1.05-.9-2.7v-.22zm.82.23q0 1.3.65 2.18t1.82.87q1.14 0 1.8-.87.64-.88.64-2.16v-.22q0-1.26-.65-2.15-.66-.88-1.8-.88t-1.8.88q-.66.9-.66 2.15v.23zM105.45 99.98q-.36.65-.96 1t-1.44.35q-1.17 0-1.83-.8-.66-.78-.66-2.45v-4.3h.82v4.3q0 1.36.44 1.95.47.6 1.32.6.93 0 1.48-.43.55-.4.77-1.14V93.8h.83v7.4h-.72l-.06-1.22zM116.5 101.2q-.08-.4-.12-.66-.03-.27-.03-.55-.4.56-1.1.94-.68.38-1.53.38-1.08 0-1.68-.57-.6-.57-.6-1.54 0-1 .88-1.63.9-.6 2.4-.6h1.63v-.93q0-.8-.5-1.24-.52-.45-1.43-.45-.86 0-1.43.43-.58.44-.58 1.06h-.75v-.05q-.05-.85.74-1.5.8-.65 2.04-.65 1.22 0 1.97.62t.75 1.78v3.64q0 .4.04.75.04.37.14.73h-.85zm-2.7-.6q.9 0 1.57-.4.68-.42.98-1.06V97.6h-1.65q-1.1 0-1.78.47-.67.47-.67 1.18 0 .6.42.98.4.38 1.14.38zM120.25 101.2h-.8V90.52h.8v10.66zM124.1 98.8l.28 1.3h.04l.35-1.3 1.57-5h.7l1.58 5 .35 1.34h.05l.3-1.35 1.35-5h.85l-2.16 7.4h-.7l-1.63-5.08-.33-1.28h-.04l-.32 1.28-1.62 5.06h-.7l-2.15-7.4h.85l1.38 5zM137.8 101.2q-.08-.4-.12-.66-.03-.27-.03-.55-.4.56-1.1.94-.68.38-1.53.38-1.08 0-1.68-.57-.6-.57-.6-1.54 0-1 .88-1.63.9-.6 2.4-.6h1.63v-.93q0-.8-.5-1.24-.52-.45-1.43-.45-.86 0-1.43.43-.58.44-.58 1.06h-.75v-.05q-.05-.85.74-1.5.8-.65 2.04-.65 1.22 0 1.97.62t.75 1.78v3.64q0 .4.04.75.04.37.14.73h-.85zm-2.7-.6q.9 0 1.57-.4.68-.42.98-1.06V97.6H136q-1.1 0-1.78.47-.67.47-.67 1.18 0 .6.42.98.4.38 1.14.38zM142.62 99.2l.26.86h.04l2.24-6.28h.9l-3.2 8.57q-.3.75-.75 1.28-.43.53-1.32.53-.14 0-.34-.04-.2-.03-.3-.06l.1-.68q.07 0 .25.02t.26.02q.53 0 .85-.38.33-.38.56-.97l.4-1-2.87-7.3h.9l2.03 5.38zM151.82 99.3q0-.5-.43-.9t-1.56-.64q-1.32-.28-1.96-.76-.64-.47-.64-1.33 0-.85.7-1.43.73-.6 1.9-.6 1.26 0 2 .64.72.6.68 1.54v.04h-.77q0-.6-.52-1.06-.5-.45-1.4-.45-.88 0-1.33.4-.45.37-.45.9 0 .5.4.84.38.32 1.53.57 1.32.3 1.98.8.65.5.65 1.4 0 .9-.74 1.48-.74.57-1.97.57-1.35 0-2.1-.64-.8-.65-.75-1.54l.02-.04h.75q.05.8.65 1.16.6.36 1.43.36.9 0 1.4-.4.52-.38.52-.93zM157.62 97.55q0-1.77.75-2.83.76-1.07 2.1-1.07.8 0 1.37.35.57.34.95.97l.07-1.18h.7v7.3q0 1.4-.8 2.24-.78.83-2.2.83-.53 0-1.13-.13-.6-.13-1.05-.36l.2-.7q.44.22.92.33.5.1 1.04.1 1.08 0 1.63-.6.54-.62.54-1.73v-.94q-.37.56-.95.87-.58.3-1.35.3-1.33 0-2.1-1-.74-.98-.74-2.64v-.15zm.82.14q0 1.32.55 2.12.52.8 1.6.8.8 0 1.32-.37.54-.36.82-1v-3.43q-.26-.64-.78-1.05-.52-.4-1.34-.4-1.08 0-1.64.87-.56.9-.56 2.3v.14zM168.5 101.33q-1.38 0-2.3-1.03-.92-1.02-.92-2.6v-.37q0-1.58.9-2.63.93-1.05 2.23-1.05 1.38 0 2.16.86.78.9.78 2.3v.7h-5.23v.2q0 1.27.68 2.1.66.85 1.74.85.78 0 1.32-.2.54-.22.92-.62l.35.56q-.42.43-1.06.7-.64.24-1.52.24zm-.1-6.98q-.9 0-1.52.7-.6.7-.7 1.73v.04h4.33v-.2q0-.97-.54-1.62-.57-.65-1.54-.65zM174.24 91.9v1.9h1.63v.66h-1.63v4.82q0 .72.26 1.03.27.3.7.3.2 0 .4 0 .18 0 .42-.05l.13.6q-.2.1-.5.14-.3.04-.6.04-.77 0-1.2-.5-.44-.48-.44-1.55v-4.83h-1.26v-.67h1.28v-1.9h.84zM183.12 99.2l.26.86h.04l2.24-6.28h.9l-3.2 8.57q-.3.75-.75 1.28-.43.53-1.32.53-.14 0-.34-.04-.2-.03-.3-.06l.1-.68q.07 0 .25.02t.26.02q.53 0 .85-.38.33-.38.56-.97l.4-1-2.87-7.3h.9l2.03 5.38zM187.32 97.38q0-1.63.9-2.68.9-1.05 2.37-1.05 1.46 0 2.36 1.05.9 1.05.9 2.68v.23q0 1.66-.9 2.7-.9 1.04-2.37 1.04-1.5 0-2.4-1.04-.9-1.05-.9-2.7v-.22zm.82.23q0 1.3.65 2.18.63.87 1.8.87 1.13 0 1.8-.87.64-.88.64-2.16v-.22q0-1.26-.66-2.15-.66-.88-1.8-.88t-1.8.88q-.66.9-.66 2.15v.23zM200.42 99.98q-.36.65-.96 1t-1.42.35q-1.17 0-1.83-.8-.64-.78-.64-2.45v-4.3h.82v4.3q0 1.36.45 1.95.47.6 1.32.6.93 0 1.48-.43.55-.4.77-1.14V93.8h.8v7.4h-.7l-.08-1.22zM206.77 94.5l-.6-.05q-.78 0-1.28.44-.5.4-.7 1.17v5.1h-.84v-7.4h.7l.12 1.24v.1q.3-.7.85-1.07.54-.4 1.28-.4.17 0 .3.04.16.02.26.05l-.1.77zM212.82 91.9v1.9h1.63v.66h-1.63v4.82q0 .72.26 1.03.27.3.7.3.2 0 .4 0 .18 0 .42-.05l.13.6q-.2.1-.5.14-.3.04-.6.04-.77 0-1.2-.5-.44-.48-.44-1.55v-4.83h-1.3v-.67h1.3v-1.9h.8zM220.87 101.2q-.08-.4-.12-.66-.03-.27-.03-.55-.4.56-1.1.94-.68.38-1.53.38-1.1 0-1.7-.57-.6-.57-.6-1.54 0-1 .9-1.63.87-.6 2.4-.6h1.6v-.93q0-.8-.5-1.24-.5-.45-1.42-.45-.87 0-1.44.43-.56.44-.56 1.06h-.75v-.05q-.05-.85.74-1.5.8-.65 2.02-.65t1.96.62q.73.62.73 1.78v3.64q0 .4.03.75.05.37.15.73h-.85zm-2.7-.6q.9 0 1.57-.4.68-.42.98-1.06V97.6h-1.65q-1.1 0-1.78.47-.7.47-.7 1.18 0 .6.43.98.4.38 1.14.38zM228.14 99.3q0-.5-.43-.9-.4-.4-1.52-.64-1.32-.28-1.96-.76-.62-.47-.62-1.33 0-.85.7-1.43.73-.6 1.9-.6 1.26 0 2 .64.72.6.68 1.54v.04h-.77q0-.6-.52-1.06-.5-.45-1.4-.45-.88 0-1.33.4-.45.37-.45.9 0 .5.38.84.4.32 1.54.57 1.32.3 1.98.8.65.5.65 1.4 0 .9-.75 1.48-.74.57-1.97.57-1.35 0-2.12-.64-.75-.65-.7-1.54v-.04h.76q.05.8.65 1.16.6.36 1.44.36.88 0 1.4-.4.5-.38.5-.93zM232.6 97.58h-.93v3.6h-.82V90.53h.82v6.36h.86l2.75-3.1h.95l.02.04-2.96 3.33 3.24 4-.02.03h-.93l-3-3.6zM241.97 95.06q.37-.67.98-1.04.62-.37 1.44-.37 1.15 0 1.77.73.63.72.63 2.25v4.56h-.8v-4.6q0-1.2-.5-1.7-.46-.54-1.3-.54-.84 0-1.4.44-.56.45-.83 1.18v5.2h-.82V90.53h.82v4.54zM248.5 97.38q0-1.63.9-2.68.88-1.05 2.36-1.05t2.38 1.05q.9 1.05.9 2.68v.23q0 1.66-.9 2.7-.9 1.04-2.37 1.04-1.5 0-2.38-1.04-.9-1.05-.9-2.7v-.22zm.8.23q0 1.3.66 2.18.65.87 1.8.87t1.8-.87q.66-.88.66-2.16v-.22q0-1.26-.66-2.15-.65-.88-1.8-.88t-1.8.88q-.65.9-.65 2.15v.23zM257.46 93.8l.08 1.28q.35-.68.95-1.05.6-.38 1.42-.38 1.2 0 1.83.74.63.7.63 2.27v4.5h-.83v-4.5q0-1.26-.48-1.8-.48-.5-1.36-.5-.85 0-1.4.44-.54.46-.77 1.2v5.18h-.82v-7.4h.73zM267.3 101.33q-1.38 0-2.3-1.03-.92-1.02-.92-2.6v-.37q0-1.58.9-2.63.93-1.05 2.23-1.05 1.38 0 2.16.86.78.9.78 2.3v.7h-5.23v.2q0 1.27.68 2.1.66.85 1.74.85.78 0 1.32-.2.54-.22.92-.62l.35.56q-.42.43-1.06.7-.64.24-1.52.24zm-.1-6.98q-.9 0-1.52.7-.6.7-.7 1.73v.04h4.33v-.2q0-.97-.54-1.62-.57-.65-1.54-.65zM271.43 97.55q0-1.77.75-2.83.75-1.07 2.1-1.07.76 0 1.33.33.58.33.96.93v-4.37h.8v10.67h-.7l-.08-1.1q-.37.6-.95.92-.58.3-1.37.3-1.32 0-2.07-.97-.76-1-.76-2.66v-.16zm.82.14q0 1.32.53 2.12.54.8 1.62.8.8 0 1.32-.37.54-.35.83-.98V95.8q-.28-.63-.8-1.03-.5-.4-1.33-.4-1.08 0-1.63.88-.56.9-.56 2.3v.14zM284.25 91.9v1.9h1.63v.66h-1.63v4.82q0 .72.26 1.03.3.3.7.3.2 0 .4 0t.44-.05l.13.6q-.2.1-.5.14-.3.04-.6.04-.77 0-1.2-.5-.44-.48-.44-1.55v-4.83h-1.28v-.67h1.28v-1.9h.83zM287 97.38q0-1.63.9-2.68t2.38-1.05q1.48 0 2.38 1.05t.9 2.68v.23q0 1.66-.9 2.7-.9 1.04-2.37 1.04-1.5 0-2.4-1.04-.9-1.05-.9-2.7v-.22zm.83.23q0 1.3.65 2.18.65.87 1.8.87t1.8-.87q.66-.88.66-2.16v-.22q0-1.26-.66-2.15-.65-.88-1.8-.88t-1.8.88q-.65.9-.65 2.15v.23zM126.8 117.7q0 1.65-.76 2.64-.75 1-2.07 1-.78 0-1.37-.3-.58-.3-.95-.85V124h-.82V113.8h.7l.1 1.14q.36-.62.94-.95.6-.36 1.38-.36 1.34 0 2.1 1.07.74 1.07.74 2.84v.14zm-.83-.15q0-1.4-.56-2.3-.54-.9-1.62-.9-.83 0-1.35.4-.5.4-.77 1.03v3.55q.28.6.8.96.54.33 1.33.33 1.07 0 1.62-.8.57-.82.57-2.15v-.15zM131.4 121.33q-1.38 0-2.3-1.03-.92-1.02-.92-2.6v-.37q0-1.58.9-2.63.93-1.05 2.23-1.05 1.38 0 2.16.86.78.9.78 2.3v.7H129v.2q0 1.27.67 2.1.66.85 1.74.85.8 0 1.33-.2.54-.22.92-.62l.35.56q-.43.43-1.07.7-.64.24-1.52.24zm-.1-6.98q-.9 0-1.52.7-.6.7-.7 1.73v.04h4.33v-.2q0-.97-.54-1.62-.57-.65-1.54-.65zM139.25 114.5l-.6-.04q-.78 0-1.28.44-.5.43-.7 1.2v5.1h-.82v-7.4h.7l.12 1.23v.08q.32-.67.86-1.05t1.28-.38q.18 0 .3.03.17 0 .27.03l-.1.77zM141.3 121.2v-6.74h-1.2v-.67h1.2v-1.1q0-1.1.56-1.7.56-.63 1.57-.63.22 0 .46.04t.45.1l-.1.68q-.17-.05-.35-.07-.16-.02-.4-.02-.66 0-1 .42-.37.43-.37 1.2v1.07h1.76v.66h-1.78v6.73h-.82zM147.92 121.33q-1.4 0-2.3-1.03-.93-1.02-.93-2.6v-.37q0-1.58.9-2.63.9-1.05 2.2-1.05 1.37 0 2.15.86.78.9.78 2.3v.7h-5.23v.2q0 1.27.68 2.1.66.85 1.74.85.77 0 1.3-.2.55-.22.93-.62l.35.56q-.42.43-1.06.7-.64.24-1.52.24zm-.1-6.98q-.9 0-1.53.7t-.73 1.73v.04h4.34v-.2q0-.97-.55-1.62-.57-.65-1.54-.65zM155.1 120.64q.82 0 1.45-.46.62-.47.62-1.3h.72v.04q.03 1.03-.8 1.72-.88.7-2 .7-1.5 0-2.34-1.04-.82-1.04-.82-2.67v-.28q0-1.62.83-2.66.83-1.06 2.32-1.06 1.2 0 2.02.72.8.72.78 1.9v.03h-.73q0-.9-.6-1.43-.6-.53-1.47-.53-1.2 0-1.76.86-.57.85-.57 2.15v.28q0 1.3.57 2.16.57.83 1.77.83zM160.9 111.9v1.9h1.63v.66h-1.63v4.82q0 .73.26 1.04.27.3.7.3.2 0 .4-.02.18-.02.42-.06l.13.6q-.2.1-.5.15-.3.02-.57.02-.78 0-1.22-.5-.42-.48-.42-1.55v-4.82h-1.28v-.67h1.27v-1.9h.83zM165.18 121.2h-.8v-7.4h.8v7.4zm0-9.53h-.8v-1.14h.8v1.14zM166.97 117.38q0-1.63.9-2.68.9-1.05 2.37-1.05 1.48 0 2.38 1.05.9 1.05.9 2.68v.23q0 1.66-.9 2.7-.9 1.04-2.37 1.04-1.5 0-2.38-1.04-.9-1.05-.9-2.7v-.22zm.82.23q0 1.3.63 2.18.65.87 1.8.87t1.8-.87q.66-.88.66-2.16v-.22q0-1.26-.67-2.15-.65-.88-1.8-.88t-1.8.88q-.65.9-.65 2.15v.23zM175.95 113.8l.08 1.28q.35-.68.95-1.05.6-.38 1.44-.38 1.2 0 1.83.74.63.7.63 2.27v4.5h-.82v-4.5q0-1.26-.48-1.8-.47-.52-1.35-.52-.86 0-1.4.46-.55.46-.78 1.2v5.18h-.82v-7.4h.72zM183.9 117.92h-.8v-6.7h.8v6.7zm.1 3.27h-1v-1.16h.97v1.14z"/></g></svg>