<svg xmlns="http://www.w3.org/2000/svg" xmlns:xlink="http://www.w3.org/1999/xlink" width="57" height="60" viewBox="0 0 57 60"><defs><path id="8goea" d="M575.64 878.17l7.9-5.71-5.71 7.9a1.56 1.56 0 1 1-2.19-2.19zm3.8 3.36l9.37-12.94a1 1 0 0 0-1.4-1.4l-12.94 9.36a3.56 3.56 0 1 0 4.98 4.98z"/><path id="8goeb" d="M575 848h-3.5a.5.5 0 0 1-.5-.5c0-.28.23-.5.5-.5h9c.28 0 .5.23.5.5a.5.5 0 0 1-.5.5H577v3.02l-1-.02h-.16l-.5.01-.34.01zm24.17 5.25l1.42 1.41-1.42 1.42-1.41-1.42zm.05 11.25l-.04-.05a27.19 27.19 0 0 0-3.57-4.8l2.15-2.16 1.41 1.42 4.25-4.24-4.25-4.25-4.24 4.25 1.42 1.41-2.15 2.15a27.15 27.15 0 0 0-4.81-3.57l-.05-.04c-.02-.02-.04-.01-.07-.03a26.81 26.81 0 0 0-10.27-3.4V850h1.5a2.5 2.5 0 0 0 0-5h-9a2.5 2.5 0 0 0 0 5h1.5v1.16c-1.08.11-2.16.29-3.22.53a1 1 0 1 0 .44 1.95c.92-.21 1.85-.37 2.78-.48l1.08-.08.92-.06V855a1 1 0 1 0 2 0v-1.97a24.8 24.8 0 0 1 10.46 2.84l-.99 1.71a1 1 0 0 0 1.73 1l.99-1.7a25.2 25.2 0 0 1 7.77 7.77l-1.7.98a1 1 0 0 0 1 1.74l1.7-.99c1.69 3.2 2.7 6.8 2.85 10.62h-1.97a1 1 0 1 0 0 2h1.97a24.82 24.82 0 0 1-2.85 10.62l-1.7-.99a1 1 0 1 0-1 1.73l1.7.99a25.2 25.2 0 0 1-7.77 7.77l-.99-1.7a1 1 0 1 0-1.73 1l.99 1.7a24.8 24.8 0 0 1-10.46 2.85V901a1 1 0 1 0-2 0v1.98c-1.6-.06-3.2-.26-4.77-.62a1 1 0 1 0-.45 1.95c2 .46 4.03.69 6.06.69h.18c4.81-.04 9.32-1.34 13.22-3.58l.1-.04c.02 0 .03-.03.05-.04a27.2 27.2 0 0 0 9.77-9.76l.06-.08.02-.06a26.8 26.8 0 0 0 0-26.88c0-.02 0-.04-.02-.06z"/><path id="8goec" d="M567 859h-5a1 1 0 1 0 0 2h5a1 1 0 1 0 0-2"/><path id="8goed" d="M567 866h-10a1 1 0 1 0 0 2h10a1 1 0 1 0 0-2"/><path id="8goee" d="M567 873h-15a1 1 0 1 0 0 2h15a1 1 0 1 0 0-2"/><path id="8goef" d="M567 880h-19a1 1 0 1 0 0 2h19a1 1 0 1 0 0-2"/><path id="8goeg" d="M567 887h-13a1 1 0 1 0 0 2h13a1 1 0 1 0 0-2"/><path id="8goeh" d="M567 894h-7a1 1 0 1 0 0 2h7a1 1 0 1 0 0-2"/></defs><g><g transform="translate(-547 -845)"><g><use xlink:href="#8goea"/></g><g><use xlink:href="#8goeb"/></g><g><use xlink:href="#8goec"/></g><g><use xlink:href="#8goed"/></g><g><use xlink:href="#8goee"/></g><g><use xlink:href="#8goef"/></g><g><use xlink:href="#8goeg"/></g><g><use xlink:href="#8goeh"/></g></g></g></svg>