<svg xmlns="http://www.w3.org/2000/svg" xmlns:xlink="http://www.w3.org/1999/xlink" width="54" height="54" viewBox="0 0 54 54"><defs><path id="nxeva" d="M1098.1 886.57l.44-.45 14.26 14.26-1.42 1.42-14.26-14.26c.16-.14.3-.3.45-.45l.52-.52zM1083 853c10.48 0 19 8.52 19 19s-8.52 19-19 19-19-8.52-19-19 8.52-19 19-19zm32.63 47.38l-15.84-15.83c2.63-3.5 4.21-7.84 4.21-12.55 0-11.58-9.42-21-21-21s-21 9.42-21 21 9.42 21 21 21c4.7 0 9.05-1.58 12.55-4.2l15.83 15.83z"/></defs><g><g transform="translate(-1062 -851)"><use xlink:href="#nxeva"/></g></g></svg>