<svg xmlns="http://www.w3.org/2000/svg" xmlns:xlink="http://www.w3.org/1999/xlink" width="55" height="58" viewBox="0 0 55 58"><defs><path id="d9b1a" d="M1324 893a3 3 0 1 1 6 0 3 3 0 0 1-6 0zm-2 0a5 5 0 1 0 10.01-.01 5 5 0 0 0-10.01.01z"/><path id="d9b1b" d="M1358 883a1 1 0 1 0 0 2h8a3 3 0 0 1 0 6h-10a1 1 0 1 0 0 2h7a3 3 0 0 1 0 6h-28v-30h.97c.1.02 2.42.05 4.68-2.14 2.89-2.8 4.35-7.8 4.35-14.86 0-1.87.3-5 2.27-5h.24c2.23 0 4.61 3.13 4.99 5.7.2 1.38.81 6.25-.1 10.47l-1.24 5.83H1368a3 3 0 0 1 0 6h-10a1 1 0 1 0 0 2h7c.88 0 2.83.04 3.85.2 2.62.38 3.15 1.4 3.15 2.8a3 3 0 0 1-3 3zm-37-16h12v34h-12zm50.29 8.77A5 5 0 0 0 1368 867h-14.37l.73-3.41c.98-4.55.34-9.72.12-11.2-.52-3.48-3.6-7.39-6.97-7.39h-.24c-1.6 0-4.27.9-4.27 7 0 8.02-2 11.7-3.68 13.36-1.65 1.63-3.23 1.62-3.32 1.64h-1v-2h-16v38h16v-2h28a5 5 0 0 0 3.93-8.09 5 5 0 0 0 3-8A5 5 0 0 0 1374 880c0-2.5-1.37-3.66-2.71-4.23z"/></defs><g><g transform="translate(-1319 -845)"><g><use xlink:href="#d9b1a"/></g><g><use xlink:href="#d9b1b"/></g></g></g></svg>