<svg xmlns="http://www.w3.org/2000/svg" xmlns:xlink="http://www.w3.org/1999/xlink" width="40" height="58" viewBox="0 0 40 58"><defs><path id="otq4a" d="M814 883a17.99 17.99 0 0 1 16.4-17.92 18.04 18.04 0 0 1 3.71.05 17.81 17.81 0 0 1 7.15 2.46A17.99 17.99 0 1 1 814 883zm9-27.78c0-4.53 4.04-8.22 9-8.22s9 3.69 9 8.22v9.94l-.57-.27a20.18 20.18 0 0 0-1.99-.8 20.07 20.07 0 0 0-4.27-.96l-.35-.04a19.36 19.36 0 0 0-3.64 0l-.36.03a19.99 19.99 0 0 0-3.48.7l-.78.27a20.02 20.02 0 0 0-1.99.8l-.57.27zm20 0c0-5.63-4.93-10.22-11-10.22s-11 4.58-11 10.22v11.1A19.99 19.99 0 1 0 852 883c0-6.97-3.58-13.1-9-16.69z"/><path id="otq4b" d="M825 883a7 7 0 0 1 14 0 7 7 0 0 1-14 0zm15.94-1a8.96 8.96 0 0 0-1.92-4.61l2.17-2.17a1 1 0 1 0-1.41-1.41l-2.17 2.17a8.96 8.96 0 0 0-4.61-1.92V871a1 1 0 1 0-2 0v3.06c-1.73.2-3.32.88-4.61 1.92l-2.17-2.17a1 1 0 1 0-1.41 1.41l2.17 2.17a8.96 8.96 0 0 0-1.92 4.61H820a1 1 0 1 0 0 2h3.06c.2 1.73.88 3.32 1.92 4.61l-2.17 2.17a1 1 0 1 0 1.41 1.41l2.17-2.17a8.96 8.96 0 0 0 4.61 1.92V895a1 1 0 1 0 2 0v-3.06a8.96 8.96 0 0 0 4.61-1.92l2.17 2.17a1 1 0 0 0 1.41 0 1 1 0 0 0 0-1.41l-2.17-2.17a8.96 8.96 0 0 0 1.92-4.61H844a1 1 0 1 0 0-2z"/></defs><g><g transform="translate(-812 -845)"><g><use xlink:href="#otq4a"/></g><g><use xlink:href="#otq4b"/></g></g></g></svg>