<svg xmlns="http://www.w3.org/2000/svg" width="133.45" height="63.896" version="1"><g fill="#929292"><path d="M3.4 10.1l.4 1.95h.05l.48-1.96L7.03.9h1l2.7 9.2.48 1.97h.06l.4-1.98L14 .9h1.08l-3.3 12.8h-.98L7.9 3.9l-.33-1.35H7.5L7.2 3.9l-2.9 9.8h-1L0 .9h1.08l2.33 9.2z"/><path d="M20.3 13.9q-1.77 0-2.96-1.32-1.18-1.32-1.18-3.34v-.5q0-2.02 1.17-3.37 1.18-1.34 2.85-1.34 1.75 0 2.75 1.1t1 2.96v.88h-6.7v.26q0 1.6.84 2.7T20.3 13q1 0 1.7-.26.7-.28 1.18-.8l.44.73q-.53.57-1.36.9-.82.33-1.95.33zm-.12-8.98q-1.17 0-1.96.9-.8.9-.92 2.23v.04h5.6v-.27q0-1.24-.74-2.07-.73-.84-1.98-.84z"/><path d="M32.47 10.63l.36 1.7h.05l.45-1.7 2.02-6.43h.9l2.03 6.43.45 1.74h.06l.38-1.74L40.9 4.2H42l-2.77 9.5h-.9l-2.1-6.5-.4-1.64h-.07l-.42 1.65-2.07 6.5h-.9L29.6 4.2h1.1l1.77 6.43z"/><path d="M45.24 13.7H44.2V4.2h1.04v9.5zm0-12.22H44.2V0h1.04v1.48z"/><path d="M49.31 13.7h-1.03V0h1.04v13.7z"/><path d="M53.4 13.7h-1.05V0h1.04v13.7z"/><path d="M65.06 5.1l-.78-.05q-1 0-1.63.57-.63.55-.9 1.53v6.56h-1.06V4.2h.9l.14 1.58v.1q.42-.87 1.1-1.36.7-.5 1.66-.5.2 0 .4.04.18.03.3.06l-.14 1z"/><path d="M70.2 13.9q-1.8 0-2.97-1.32-1.18-1.32-1.18-3.34v-.5q0-2.02 1.17-3.37 1.18-1.34 2.85-1.34 1.75 0 2.75 1.1t1 2.96v.88H67.1v.26q0 1.6.86 2.7T70.2 13q.98 0 1.68-.26.7-.28 1.18-.8l.45.73q-.52.57-1.35.9-.82.33-1.95.33zm-.13-8.98q-1.17 0-1.96.9-.8.9-.92 2.23l.02.04h5.57v-.27q0-1.24-.73-2.07-.73-.84-1.97-.84z"/><path d="M81.93 13.7q-.1-.47-.15-.82-.04-.36-.04-.72-.53.75-1.4 1.24-.9.5-2 .5-1.37 0-2.15-.74-.77-.74-.77-1.98 0-1.32 1.13-2.1 1.14-.8 3.08-.8h2.1V7.1q0-1.02-.66-1.6-.65-.58-1.83-.58-1.1 0-1.83.56-.72.55-.72 1.35h-.96l-.02-.06q-.05-1.07.97-1.9 1-.84 2.6-.84 1.57 0 2.53.8.95.8.95 2.3v4.67q0 .5.06.97.06.48.2.94h-1.1zm-3.45-.74q1.13 0 2-.52.87-.54 1.26-1.37V9.1h-2.12q-1.43 0-2.3.6-.85.6-.85 1.5 0 .8.53 1.28.54.48 1.48.48z"/><path d="M89.1 13q1.05 0 1.85-.6t.8-1.65h.93l.02.05q.04 1.32-1.06 2.2t-2.54.9q-1.94 0-3-1.33-1.06-1.34-1.06-3.43v-.37q0-2.07 1.07-3.4 1.07-1.34 3-1.34 1.56 0 2.6.92t1 2.42v.06h-.95q0-1.15-.77-1.82-.77-.68-1.88-.68-1.53 0-2.27 1.1-.73 1.1-.73 2.75v.37q0 1.7.73 2.78t2.27 1.1z"/><path d="M95.95 5.83q.47-.86 1.27-1.33.8-.47 1.84-.47 1.5 0 2.3.93.8.93.8 2.9v5.85h-1.04V7.84q0-1.55-.62-2.2-.6-.7-1.68-.7t-1.8.58q-.73.57-1.07 1.5v6.7H94.9V0h1.05v5.83z"/><path d="M108.72 8.82q0-2.1 1.15-3.45t3.05-1.34q1.9 0 3.06 1.34t1.15 3.45v.3q0 2.1-1.15 3.44-1.14 1.34-3.04 1.34-1.92 0-3.07-1.34-1.15-1.35-1.15-3.45v-.28zm1.05.3q0 1.64.84 2.76t2.34 1.13q1.47 0 2.3-1.12.85-1.12.85-2.77v-.28q0-1.63-.86-2.76t-2.32-1.14-2.3 1.14q-.85 1.13-.85 2.76v.3z"/><path d="M125.56 12.15q-.46.84-1.23 1.3-.77.45-1.83.45-1.5 0-2.35-1.02-.86-1.02-.86-3.17V4.2h1.05v5.53q0 1.74.6 2.5.58.75 1.67.75 1.2 0 1.9-.53.72-.54 1-1.48V4.2h1.06v9.5h-.93l-.1-1.55z"/><path d="M131 1.77V4.2h2.1v.86H131v6.2q0 .93.33 1.33.35.37.9.37.26 0 .5 0 .25-.04.56-.1l.15.8q-.26.1-.64.16t-.75.07q-1 0-1.56-.64-.56-.63-.56-2v-6.2h-1.65V4.2h1.64V1.77H131z"/><path d="M11.52 26.77v2.43h2.1v.86h-2.1v6.2q0 .93.34 1.33.34.37.9.37.26 0 .5 0 .24-.04.56-.1l.15.8q-.26.1-.64.16t-.75.07q-1 0-1.57-.64-.54-.63-.54-2v-6.2H8.8v-.86h1.66v-2.43h1.06z"/><path d="M15.08 33.81q0-2.1 1.15-3.43t3.05-1.35q1.9 0 3.06 1.35t1.15 3.44v.3q0 2.1-1.16 3.46-1.14 1.34-3.04 1.34-1.92 0-3.07-1.34-1.15-1.35-1.15-3.45v-.3zm1.06.3q0 1.66.83 2.78T19.3 38q1.47 0 2.3-1.12.85-1.12.85-2.77v-.3q0-1.6-.85-2.74t-2.32-1.14-2.3 1.14q-.84 1.13-.84 2.76v.3z"/><path d="M32.78 36.14l.34 1.13h.05l2.87-8.07h1.18L33.1 40.23q-.38.97-.97 1.65-.6.67-1.72.67-.17 0-.44-.04-.26-.03-.4-.07l.14-.88q.1.02.33.03.24.03.34.03.7 0 1.1-.48.42-.48.7-1.25l.5-1.28L29 29.2h1.17l2.6 6.94z"/><path d="M38.18 33.81q0-2.1 1.15-3.43t3.05-1.35q1.9 0 3.06 1.35t1.15 3.44v.3q0 2.1-1.16 3.46-1.14 1.34-3.04 1.34-1.92 0-3.07-1.34-1.15-1.35-1.15-3.45v-.3zm1.05.3q0 1.66.84 2.78T42.4 38q1.47 0 2.3-1.12.85-1.12.85-2.77v-.3q0-1.6-.85-2.74t-2.32-1.14-2.3 1.14q-.85 1.13-.85 2.76v.3z"/><path d="M55.02 37.16q-.46.83-1.23 1.3-.78.44-1.84.44-1.5 0-2.35-1.02-.85-1.02-.85-3.17v-5.5h1.06v5.53q0 1.74.6 2.5.6.75 1.68.75 1.2 0 1.9-.53.72-.54 1-1.48V29.2h1.06v9.5h-.93l-.08-1.55z"/><path d="M64.85 26.77v2.43h2.1v.86h-2.1v6.2q0 .93.34 1.33.33.37.9.37.25 0 .5 0 .23-.04.55-.1l.16.8q-.26.1-.64.16t-.75.07q-1 0-1.56-.64-.55-.63-.55-2v-6.2h-1.65v-.86h1.64v-2.43h1.05z"/><path d="M68.4 33.81q0-2.1 1.17-3.43t3.05-1.35q1.9 0 3.05 1.35t1.16 3.44v.3q0 2.1-1.16 3.46-1.14 1.34-3.04 1.34-1.9 0-3.06-1.34-1.16-1.35-1.16-3.45v-.3zm1.07.3q0 1.66.83 2.78T72.63 38q1.47 0 2.3-1.12.85-1.12.85-2.77v-.3q0-1.6-.84-2.74t-2.32-1.14-2.32 1.14q-.83 1.13-.83 2.76v.3z"/><path d="M86.12 36.33l.3 1.12h.06l.34-1.12 2.58-7.13h1.1l-3.62 9.5h-.84l-3.63-9.5h1.1l2.62 7.13z"/><path d="M95.7 38.9q-1.78 0-2.97-1.32-1.17-1.32-1.17-3.34v-.5q0-2.02 1.16-3.37 1.18-1.34 2.85-1.34 1.75 0 2.75 1.1t1 2.96v.88h-6.7v.26q0 1.6.84 2.7T95.7 38q1 0 1.68-.26.7-.28 1.2-.8l.44.73q-.54.57-1.36.9-.82.33-1.96.33zm-.13-8.98q-1.17 0-1.96.9-.78.9-.9 2.23v.05h5.58v-.27q0-1.24-.73-2.07-.73-.84-1.98-.84z"/><path d="M105.8 30.1l-.8-.05q-1 0-1.63.57-.63.55-.9 1.53v6.56h-1.06v-9.5h.94l.13 1.58v.1q.4-.87 1.1-1.36.7-.5 1.66-.5.2 0 .38.04.2.03.33.06l-.14 1z"/><path d="M108.7 38.7h-1.04v-9.5h1.05v9.5zm0-12.22h-1.04V25h1.05v1.48z"/><path d="M112.38 38.7v-8.64h-1.57v-.86h1.58v-1.4q0-1.42.7-2.2.73-.78 2.02-.78.3 0 .6.04t.6.12l-.13.87q-.2-.05-.44-.08-.22-.03-.52-.03-.85 0-1.3.54-.47.55-.47 1.53v1.4h2.27v.86h-2.27v8.65h-1.05z"/><path d="M120.22 36.14l.33 1.13h.06l2.88-8.07h1.18l-4.13 11.03q-.37.97-.96 1.65-.6.67-1.72.67-.2 0-.45-.04-.27-.03-.4-.07l.13-.88q.1.02.34.03.24.03.34.03.7 0 1.1-.48.42-.48.7-1.25l.5-1.28-3.66-9.4h1.17l2.62 6.94z"/><path d="M28.78 51.77v2.43h2.1v.86h-2.1v6.2q0 .93.34 1.33.34.37.9.37.26 0 .5 0 .24-.04.56-.1l.16.8q-.27.1-.65.16t-.76.07q-1 0-1.57-.64-.55-.63-.55-2v-6.2h-1.64v-.86h1.64v-2.43h1.06z"/><path d="M34.16 55.83q.48-.86 1.27-1.33.8-.47 1.84-.47 1.5 0 2.3.93.82.93.82 2.9v5.85h-1.07v-5.87q0-1.55-.6-2.2-.62-.7-1.7-.7-1.07 0-1.8.58-.72.57-1.07 1.5v6.7H33.1V50h1.06v5.83z"/><path d="M46.7 63.9q-1.8 0-2.97-1.32-1.18-1.32-1.18-3.34v-.5q0-2.02 1.17-3.37 1.17-1.34 2.84-1.34 1.75 0 2.76 1.1t1 2.96v.88H43.6v.26q0 1.6.85 2.7T46.7 63q.98 0 1.67-.26.7-.28 1.2-.8l.44.73q-.53.57-1.35.9-.82.33-1.95.33zm-.14-8.98q-1.16 0-1.96.9t-.92 2.23l.02.05h5.57v-.27q0-1.24-.73-2.07-.73-.84-1.98-.84z"/><path d="M56.4 59.03q0-2.27.95-3.63.97-1.37 2.7-1.37.98 0 1.7.42.74.42 1.22 1.2V50h1.05v13.7h-.93l-.1-1.37q-.47.76-1.22 1.16-.75.4-1.76.4-1.7 0-2.67-1.27-.96-1.27-.96-3.4v-.2zm1.05.2q0 1.7.68 2.73.7 1.02 2.08 1.02 1.03 0 1.7-.46.7-.45 1.07-1.26V56.8q-.36-.83-1.02-1.34-.65-.52-1.72-.52-1.4 0-2.1 1.14-.68 1.14-.68 2.96v.18z"/><path d="M70.4 63.9q-1.8 0-2.98-1.32t-1.18-3.34v-.5q0-2.02 1.17-3.37 1.2-1.34 2.86-1.34 1.75 0 2.75 1.1t1 2.96v.88h-6.7v.26q0 1.6.85 2.7T70.4 63q.98 0 1.67-.26.7-.28 1.2-.8l.44.73q-.53.57-1.36.9-.8.33-1.95.33zm-.14-8.98q-1.17 0-1.96.9-.8.9-.92 2.23v.05H73v-.27q0-1.24-.74-2.07-.73-.84-1.98-.84z"/><path d="M77.76 51.77v2.43h2.1v.86h-2.1v6.2q0 .93.33 1.33.33.37.9.37.25 0 .5 0 .23-.04.55-.1l.16.8q-.25.1-.63.16t-.76.07q-1 0-1.55-.64-.56-.63-.56-2v-6.2h-1.65v-.86h1.64v-2.43h1.06z"/><path d="M88.1 63.7q-.1-.47-.15-.82t-.04-.72q-.52.75-1.4 1.24-.88.5-1.98.5-1.38 0-2.16-.74-.76-.74-.76-1.98 0-1.32 1.13-2.1 1.14-.8 3.08-.8h2.1V57.1q0-1.02-.65-1.6-.65-.58-1.83-.58-1.1 0-1.83.56-.73.55-.73 1.35h-.96v-.06q-.06-1.07.96-1.9 1.02-.84 2.6-.84t2.54.8q.95.8.95 2.3v4.67q0 .5.06.97.07.48.2.94h-1.1zm-3.45-.74q1.13 0 2-.52.87-.54 1.26-1.37V59.1h-2.1q-1.44 0-2.3.6-.86.6-.86 1.5 0 .8.53 1.28.54.48 1.48.48z"/><path d="M92.93 63.7h-1.05v-9.5h1.05v9.5zm0-12.22h-1.05V50h1.05v1.48z"/><path d="M97 63.7h-1.04V50H97v13.7z"/><path d="M105.6 61.3q0-.67-.55-1.17-.55-.5-1.98-.82-1.7-.36-2.52-.97-.8-.6-.8-1.7t.9-1.85q.92-.75 2.44-.75 1.6 0 2.54.8t.9 1.98l-.03.06h-.96q0-.78-.67-1.36-.66-.58-1.78-.58-1.17 0-1.75.5-.57.5-.57 1.16 0 .66.5 1.1.5.42 1.98.75 1.7.38 2.54 1.04.85.65.85 1.77 0 1.2-.97 1.93-.96.73-2.54.73-1.73 0-2.73-.83-.97-.83-.92-1.97l.02-.05h.97q.06 1.03.83 1.5.78.46 1.84.46 1.14 0 1.8-.5.66-.5.66-1.2z"/></g></svg>