<svg xmlns="http://www.w3.org/2000/svg" width="141.82" height="62.981" version="1"><g fill="#83bf3e"><path d="M39.1 7.1L43.07 0h1.22L39.6 8.12v4.68h-1.05V8.06L33.94 0h1.22l3.94 7.1z"/><path d="M44.82 7.9q0-2.1 1.16-3.44t3.05-1.35q1.9 0 3.05 1.36t1.16 3.44v.3q0 2.1-1.16 3.45-1.14 1.33-3.04 1.33-1.9 0-3.06-1.33-1.16-1.35-1.16-3.46v-.3zm1.06.3q0 1.64.83 2.77t2.34 1.12q1.47 0 2.3-1.13.85-1.13.85-2.78v-.3q0-1.62-.85-2.76T49.03 4 46.7 5.15q-.82 1.14-.82 2.76v.3z"/><path d="M61.66 11.24q-.45.84-1.23 1.3-.77.44-1.82.44-1.5 0-2.35-1.02-.85-1.02-.85-3.16V3.3h1.05V8.8q0 1.74.6 2.5.6.75 1.68.75 1.2 0 1.9-.54.72-.54 1-1.48V3.3h1.05v9.5h-.93l-.1-1.56z"/><path d="M69.43 8.12q0-2.28.97-3.64.98-1.37 2.7-1.37 1.02 0 1.76.46.74.44 1.22 1.25l.12-1.5h.9v9.37q0 1.84-1.03 2.9-1 1.07-2.82 1.07-.7 0-1.46-.17-.78-.17-1.36-.46l.27-.87q.57.28 1.2.42.62.15 1.33.15 1.4 0 2.1-.8.7-.8.7-2.23v-1.2q-.48.73-1.22 1.12-.73.38-1.7.38-1.72 0-2.7-1.27-.97-1.27-.97-3.4v-.18zm1.06.2q0 1.7.7 2.73.7 1.02 2.08 1.02 1.02 0 1.7-.47.7-.46 1.05-1.28v-4.4q-.34-.84-1-1.37-.67-.52-1.73-.52-1.4 0-2.1 1.14-.7 1.14-.7 2.95v.2z"/><path d="M83.44 12.98q-1.8 0-2.98-1.32-1.17-1.32-1.17-3.34v-.48q0-2.04 1.16-3.38Q81.63 3.1 83.3 3.1q1.75 0 2.75 1.12t1 2.95v.9h-6.7v.25q0 1.6.84 2.7t2.24 1.07q.98 0 1.67-.28.7-.27 1.2-.78l.45.72q-.54.56-1.36.9-.83.32-1.96.32zM83.3 4q-1.17 0-1.96.9-.8.9-.92 2.24l.02.04H86v-.26q0-1.24-.72-2.08Q84.55 4 83.3 4z"/><path d="M90.8.85V3.3h2.1v.85h-2.1v6.2q0 .93.33 1.32.35.4.9.4.26 0 .5-.03.25-.03.56-.08l.15.78q-.26.12-.64.18t-.75.06q-1 0-1.56-.63t-.56-2v-6.2H88.1V3.3h1.64V.84h1.06z"/><path d="M105.54 12.8q-.1-.5-.15-.84-.05-.35-.05-.7-.53.74-1.4 1.23-.9.48-2 .48-1.38 0-2.15-.74-.76-.73-.76-1.97 0-1.32 1.13-2.1 1.14-.8 3.08-.8h2.1V6.2q0-1.03-.66-1.6-.66-.6-1.84-.6-1.1 0-1.83.56-.72.56-.72 1.36h-.96v-.07q-.07-1.06.95-1.9 1.02-.84 2.6-.84t2.53.8q.96.8.96 2.3v4.68q0 .5.05.98.06.47.2.94h-1.1zm-3.45-.75q1.12 0 2-.53.86-.53 1.25-1.36v-2h-2.12q-1.43 0-2.3.63-.85.6-.85 1.5 0 .77.53 1.27.55.48 1.5.48z"/><path d="M4.06 37.1q1.05 0 1.85-.6t.8-1.66h.94l.02.05q.04 1.3-1.06 2.2t-2.54.88q-1.94 0-3-1.33T0 33.23v-.37q0-2.08 1.06-3.4 1.07-1.35 3-1.35 1.56 0 2.6.93t1 2.43v.05H6.7q0-1.13-.77-1.8-.76-.7-1.88-.7-1.53 0-2.27 1.1-.73 1.1-.73 2.76v.37q0 1.68.73 2.77t2.28 1.1z"/><path d="M9.26 32.9q0-2.1 1.16-3.44t3.04-1.35q1.9 0 3.06 1.36t1.15 3.44v.3q0 2.1-1.15 3.45-1.14 1.33-3.04 1.33-1.9 0-3.06-1.33-1.16-1.35-1.16-3.46v-.3zm1.06.3q0 1.64.83 2.77t2.33 1.12q1.47 0 2.3-1.13.85-1.13.85-2.78v-.3q0-1.62-.84-2.76T13.45 29t-2.3 1.14q-.84 1.14-.84 2.76v.3z"/><path d="M20.76 28.3l.1 1.56q.45-.83 1.2-1.3.77-.45 1.83-.45 1.08 0 1.8.54.75.53 1.06 1.6.43-1 1.22-1.56.8-.57 1.95-.57 1.52 0 2.34 1.02.83 1 .83 3.13v5.55h-1.05v-5.57q0-1.75-.63-2.48-.6-.72-1.72-.72-1.22 0-1.9.76-.66.75-.82 1.95 0 .06 0 .18 0 .1 0 .16v5.7h-1.05v-5.57q0-1.72-.63-2.46t-1.73-.74q-1.1 0-1.77.57-.65.56-.92 1.52v6.68h-1.06v-9.5h.94z"/><path d="M43.5 33.3q0 2.14-.98 3.42-.97 1.26-2.66 1.26-1 0-1.76-.38-.75-.37-1.22-1.08v4.93h-1.06V28.3h.9l.12 1.46q.48-.8 1.23-1.22.75-.43 1.77-.43 1.7 0 2.68 1.38.97 1.37.97 3.64v.2zm-1.07-.18q0-1.8-.72-2.95t-2.1-1.14q-1.06 0-1.73.5-.66.5-1 1.32v4.57q.37.78 1.05 1.23.68.44 1.7.44 1.38 0 2.1-1.04.7-1.04.7-2.75v-.18z"/><path d="M47.03 37.8h-1.05V24.1h1.05v13.7z"/><path d="M53.5 37.98q-1.8 0-2.97-1.32-1.18-1.32-1.18-3.34v-.48q0-2.04 1.17-3.38 1.18-1.35 2.85-1.35 1.75 0 2.75 1.12t1 2.95v.9h-6.7v.25q0 1.6.84 2.7t2.24 1.07q.98 0 1.68-.28.7-.27 1.18-.78l.45.72q-.52.56-1.35.9-.82.32-1.95.32zM53.37 29q-1.17 0-1.96.9-.78.9-.92 2.24l.02.04h5.57v-.26q0-1.24-.73-2.08-.72-.83-1.97-.83z"/><path d="M60.86 25.85v2.44h2.1v.85h-2.1v6.2q0 .93.34 1.32.34.4.9.4.26 0 .5-.03.24-.02.56-.08l.16.78q-.27.12-.65.18t-.75.06q-1 0-1.57-.63-.55-.63-.55-2v-6.2h-1.64v-.86h1.64v-2.45h1.06z"/><path d="M68.76 37.98q-1.8 0-2.97-1.32-1.2-1.32-1.2-3.34v-.48q0-2.04 1.18-3.38 1.18-1.35 2.85-1.35 1.74 0 2.75 1.12t1 2.95v.9h-6.72v.25q0 1.6.86 2.7t2.24 1.07q.98 0 1.68-.28.7-.27 1.18-.78l.45.72q-.54.56-1.36.9-.8.32-1.94.32zM68.62 29q-1.16 0-1.96.9t-.92 2.24l.02.04h5.57v-.26q0-1.24-.73-2.08-.73-.83-1.98-.83z"/><path d="M74.06 33.12q0-2.28.96-3.64.96-1.37 2.68-1.37 1 0 1.73.43.73.42 1.2 1.2V24.1h1.06v13.7h-.95l-.08-1.38q-.48.75-1.23 1.16-.74.4-1.75.4-1.72 0-2.68-1.26-.96-1.28-.96-3.4v-.2zm1.05.2q0 1.7.7 2.73.7 1.02 2.08 1.02 1.02 0 1.7-.46.68-.45 1.06-1.26v-4.46q-.36-.83-1.02-1.34-.66-.5-1.72-.5-1.4 0-2.1 1.13-.7 1.13-.7 2.95v.2z"/><path d="M96.54 33.3q0 2.14-.97 3.42-.96 1.26-2.66 1.26-1 0-1.75-.38-.75-.37-1.22-1.08v4.93h-1.06V28.3h.9l.12 1.46q.47-.8 1.22-1.22.75-.43 1.77-.43 1.7 0 2.67 1.38.97 1.37.97 3.64v.2zm-1.06-.18q0-1.8-.72-2.95t-2.1-1.14q-1.07 0-1.74.5-.66.5-1 1.32v4.57q.37.78 1.05 1.23.68.44 1.7.44 1.38 0 2.1-1.04.7-1.04.7-2.75v-.18z"/><path d="M103.28 29.2l-.78-.06q-1 0-1.64.56-.63.56-.9 1.53v6.57H98.9v-9.5h.93l.13 1.57v.1q.4-.87 1.1-1.37.7-.5 1.66-.5.2 0 .38.05.2.02.32.06l-.14 1z"/><path d="M104.26 32.9q0-2.1 1.15-3.44t3.06-1.35q1.9 0 3.06 1.36t1.15 3.44v.3q0 2.1-1.15 3.45-1.14 1.33-3.04 1.33-1.92 0-3.07-1.33-1.14-1.35-1.14-3.46v-.3zm1.05.3q0 1.64.85 2.77t2.33 1.12q1.47 0 2.3-1.13.85-1.13.85-2.78v-.3q0-1.62-.85-2.76T108.46 29t-2.3 1.14q-.85 1.14-.85 2.76v.3z"/><path d="M116.1 28.3v10.28q0 1.47-.7 2.26-.7.8-1.95.8-.27 0-.5-.05-.23-.05-.5-.13l.13-.9q.14.06.38.1.25.04.43.04.78 0 1.2-.53.45-.54.45-1.6V28.3h1.05zm-.05-2.77H115V24.1h1.05v1.43z"/><path d="M122.7 37.98q-1.8 0-2.98-1.32t-1.18-3.34v-.48q0-2.04 1.17-3.38 1.2-1.35 2.86-1.35 1.75 0 2.75 1.12t1 2.95v.9h-6.7v.25q0 1.6.85 2.7t2.24 1.07q.97 0 1.67-.28.7-.27 1.2-.78l.43.72q-.54.56-1.37.9-.8.32-1.95.32zm-.14-8.97q-1.17 0-1.96.9-.8.9-.92 2.24v.04h5.6v-.26q0-1.24-.74-2.08-.73-.83-1.98-.83z"/><path d="M131.92 37.1q1.05 0 1.85-.6t.8-1.66h.93v.05q.06 1.3-1.04 2.2t-2.54.88q-1.94 0-3-1.33t-1.06-3.42v-.37q0-2.08 1.06-3.4 1.07-1.35 3-1.35 1.56 0 2.6.93t1 2.43v.05h-.95q0-1.13-.78-1.8-.77-.7-1.9-.7-1.52 0-2.26 1.1-.73 1.1-.73 2.76v.37q0 1.68.74 2.77t2.28 1.1z"/><path d="M139.37 25.85v2.44h2.1v.85h-2.1v6.2q0 .93.33 1.32.35.4.9.4.26 0 .5-.03.25-.02.56-.08l.16.78q-.26.12-.64.18t-.76.06q-1 0-1.56-.63-.55-.63-.55-2v-6.2h-1.64v-.86h1.65v-2.45h1.07z"/><path d="M30.07 54.9q.47-.84 1.26-1.3.8-.5 1.85-.5 1.5 0 2.3.94.8.93.8 2.9v5.86h-1.05v-5.88q0-1.55-.6-2.22-.62-.67-1.7-.67-1.07 0-1.8.57-.72.56-1.06 1.5v6.7H29V49.1h1.07v5.8z"/><path d="M45.05 62.8q-.1-.5-.15-.84-.04-.35-.04-.7-.53.74-1.4 1.23-.9.48-1.98.48-1.4 0-2.17-.74-.75-.74-.75-1.97 0-1.32 1.13-2.1 1.14-.8 3.08-.8h2.1V56.2q0-1.03-.66-1.6-.65-.6-1.83-.6-1.1 0-1.83.56-.72.56-.72 1.36h-.96l-.02-.07q-.05-1.06.97-1.9 1.03-.84 2.62-.84 1.57 0 2.53.8.96.8.96 2.3v4.68q0 .5.06.98.06.47.2.94h-1.1zm-3.45-.75q1.13 0 2-.53.87-.53 1.26-1.36v-2h-2.12q-1.43 0-2.3.63-.85.6-.85 1.5 0 .77.52 1.27.54.48 1.48.48z"/><path d="M54.4 60.38q0-.67-.56-1.17-.54-.5-1.98-.8-1.7-.38-2.52-.98-.8-.6-.8-1.72 0-1.1.9-1.83.93-.76 2.44-.76 1.6 0 2.55.8.94.8.9 2l-.02.05h-.97q0-.78-.66-1.36-.66-.6-1.8-.6-1.14 0-1.72.5-.57.5-.57 1.17 0 .66.5 1.1.5.42 1.98.74 1.7.4 2.54 1.05.84.65.84 1.78 0 1.18-.96 1.92-.96.73-2.54.73-1.74 0-2.73-.82-.97-.83-.92-1.97l.02-.07h.96q.06 1.03.84 1.5.78.46 1.84.46 1.14 0 1.8-.5.66-.5.66-1.22z"/><path d="M63.57 60.38q0-.67-.55-1.17-.55-.5-1.98-.8-1.7-.38-2.52-.98-.8-.6-.8-1.72 0-1.1.9-1.83.93-.76 2.44-.76 1.6 0 2.55.8.95.8.9 2v.05h-1q0-.78-.66-1.36-.66-.6-1.78-.6-1.15 0-1.73.5-.58.5-.58 1.17 0 .66.5 1.1.5.42 1.98.74 1.7.4 2.54 1.05.85.65.85 1.78 0 1.18-.97 1.92-.96.73-2.54.73-1.72 0-2.7-.82-1-.83-.95-1.97l.02-.07h.97q.06 1.03.83 1.5.8.46 1.84.46 1.15 0 1.8-.5.67-.5.67-1.22z"/><path d="M68.23 62.8h-1.05V49.1h1.05v13.7z"/><path d="M74.7 62.98q-1.8 0-2.97-1.32-1.18-1.32-1.18-3.34v-.48q0-2.04 1.17-3.38 1.18-1.35 2.85-1.35 1.75 0 2.75 1.12t1 2.95v.9H71.6v.25q0 1.6.86 2.7t2.24 1.07q.98 0 1.68-.28.7-.27 1.18-.78l.45.72q-.52.56-1.35.9-.82.32-1.95.32zM74.57 54q-1.17 0-1.96.9-.78.9-.92 2.24l.02.04h5.57v-.26q0-1.24-.73-2.08-.73-.83-1.97-.83z"/><path d="M85.57 62.8v-8.65H84v-.86h1.57v-1.4q0-1.43.7-2.22.73-.78 2.02-.78.28 0 .58.05t.6.12l-.12.87q-.2-.05-.44-.08-.22-.04-.52-.04-.86 0-1.32.55-.46.54-.46 1.53v1.4h2.27v.85H86.6v8.65h-1.05z"/><path d="M95.1 54.2l-.8-.06q-1 0-1.63.56-.63.56-.9 1.53v6.57H90.7v-9.5h.93l.14 1.57v.1q.4-.87 1.1-1.37.7-.5 1.66-.5.2 0 .38.05.2.02.33.06l-.14 1z"/><path d="M100.22 62.98q-1.78 0-2.97-1.32-1.18-1.32-1.18-3.34v-.48q0-2.04 1.17-3.38 1.18-1.35 2.85-1.35 1.74 0 2.74 1.12t1 2.95v.9h-6.7v.25q0 1.6.84 2.7t2.24 1.07q.98 0 1.68-.28.7-.27 1.2-.78l.43.72q-.53.56-1.36.9-.82.32-1.95.32zM100.1 54q-1.18 0-1.97.9-.8.9-.92 2.24l.02.04h5.58v-.26q0-1.24-.73-2.08-.73-.83-1.98-.83z"/><path d="M109.5 62.98q-1.78 0-2.97-1.32-1.18-1.32-1.18-3.34v-.48q0-2.04 1.17-3.38 1.18-1.35 2.85-1.35 1.75 0 2.75 1.12t1 2.95v.9h-6.7v.25q0 1.6.84 2.7t2.24 1.07q.98 0 1.68-.28.7-.27 1.2-.78l.43.72q-.52.56-1.35.9-.82.32-1.95.32zm-.13-8.97q-1.17 0-1.96.9-.78.9-.9 2.24v.04h5.58v-.26q0-1.24-.73-2.08-.73-.83-1.98-.83z"/></g></svg>