<svg xmlns="http://www.w3.org/2000/svg" width="209.28" height="97.552" version="1"><g fill="#929292"><path d="M9.93 8.36q0 2.48-1.36 4-1.35 1.54-3.64 1.54-2.25 0-3.6-1.53Q0 10.84 0 8.37v-2.1q0-2.46 1.34-4Q2.67.73 4.92.73q2.3 0 3.65 1.54t1.36 4v2.1zM8.9 6.26q0-2.08-1.07-3.34-1.04-1.27-2.9-1.27-1.84 0-2.86 1.27-1.02 1.26-1.02 3.34v2.1q0 2.1 1.02 3.36 1.03 1.26 2.86 1.26 1.87 0 2.9-1.26Q8.9 10.46 8.9 8.36v-2.1z"/><path d="M13.36 4.2l.1 1.66q.45-.88 1.23-1.35.77-.47 1.83-.47 1.55 0 2.36.94.8.95.8 2.95v5.8h-1.06V7.9q0-1.63-.6-2.3-.62-.68-1.75-.68-1.1 0-1.82.6-.7.57-1 1.54v6.63h-1.05V4.2h.93z"/><path d="M25.97 13q1.05 0 1.85-.6t.8-1.65h.93l.02.05q.04 1.32-1.06 2.2t-2.53.9q-1.94 0-3-1.33-1.06-1.34-1.06-3.43v-.37q0-2.07 1.07-3.4 1.07-1.34 3-1.34 1.56 0 2.6.92t1 2.42v.06h-.95q0-1.15-.78-1.82-.76-.68-1.88-.68-1.53 0-2.26 1.1-.73 1.1-.73 2.75v.37q0 1.7.73 2.78t2.27 1.1z"/><path d="M35.33 13.9q-1.78 0-2.97-1.32-1.18-1.32-1.18-3.34v-.5q0-2.02 1.17-3.37 1.18-1.34 2.85-1.34 1.75 0 2.75 1.1t1 2.96v.88h-6.7v.26q0 1.6.84 2.7T35.32 13q1 0 1.68-.26.7-.28 1.2-.8l.45.73q-.54.57-1.37.9-.8.33-1.95.33zm-.13-8.98q-1.17 0-1.96.9-.8.9-.92 2.23v.04h5.6v-.27q0-1.24-.74-2.07-.73-.84-1.98-.84z"/><path d="M47.1 1.77V4.2h2.08v.86h-2.1v6.2q0 .93.35 1.33.34.37.9.37.26 0 .5 0 .24-.04.56-.1l.14.8q-.26.1-.64.16t-.75.07q-1 0-1.57-.64-.55-.63-.55-2v-6.2h-1.65V4.2h1.65V1.77h1.06z"/><path d="M52.47 5.83q.48-.86 1.27-1.33.8-.47 1.84-.47 1.5 0 2.3.93.8.93.8 2.9v5.85h-1.04V7.84q0-1.55-.62-2.2-.6-.7-1.68-.7t-1.8.58q-.73.57-1.07 1.5v6.7h-1.05V0h1.05v5.83z"/><path d="M65 13.9q-1.78 0-2.97-1.32-1.17-1.32-1.17-3.34v-.5q0-2.02 1.16-3.37 1.18-1.34 2.85-1.34 1.75 0 2.75 1.1t1 2.96v.88h-6.7v.26q0 1.6.84 2.7T65 13q1 0 1.68-.26.7-.28 1.2-.8l.44.73q-.54.57-1.37.9-.8.33-1.95.33zm-.13-8.98q-1.17 0-1.96.9-.78.9-.9 2.23v.04h5.58v-.27q0-1.24-.73-2.07-.73-.84-1.98-.84z"/><path d="M74.52 8.82q0-2.1 1.15-3.45t3.05-1.34q1.9 0 3.06 1.34t1.15 3.45v.3q0 2.1-1.15 3.44-1.14 1.34-3.04 1.34-1.92 0-3.07-1.34-1.15-1.35-1.15-3.45v-.28zm1.06.3q0 1.64.83 2.76T78.75 13q1.47 0 2.3-1.12.85-1.12.85-2.77v-.28q0-1.63-.86-2.76t-2.32-1.14-2.3 1.14q-.84 1.13-.84 2.76v.3z"/><path d="M89.5 5.1l-.77-.05q-1 0-1.64.57-.64.55-.9 1.53v6.56h-1.07V4.2h.92l.14 1.58v.1q.4-.87 1.1-1.36.7-.5 1.65-.5.2 0 .38.04.2.03.32.06l-.14 1z"/><path d="M90.66 9.04q0-2.28.96-3.64.96-1.37 2.7-1.37.98 0 1.7.42.74.42 1.22 1.2V0h1.05v13.7h-.94l-.1-1.37q-.47.76-1.2 1.16-.76.4-1.77.4-1.72 0-2.68-1.27-.96-1.28-.96-3.4v-.2zm1.05.18q0 1.72.7 2.74.7 1.02 2.08 1.02 1.02 0 1.7-.46.68-.45 1.06-1.26V6.8q-.36-.83-1.02-1.34-.66-.52-1.72-.52-1.4 0-2.1 1.14-.7 1.14-.7 2.96v.18z"/><path d="M104.66 13.9q-1.78 0-2.97-1.32-1.2-1.32-1.2-3.34v-.5q0-2.02 1.18-3.37 1.18-1.34 2.85-1.34 1.75 0 2.75 1.1t1 2.96v.88h-6.7v.26q0 1.6.84 2.7.85 1.07 2.24 1.07.98 0 1.68-.26t1.2-.8l.43.73q-.53.57-1.36.9-.8.33-1.94.33zm-.13-8.98q-1.17 0-1.96.9-.8.9-.92 2.23v.05h5.6v-.27q0-1.24-.74-2.07-.72-.84-1.97-.84z"/><path d="M114.75 5.1l-.78-.05q-1 0-1.64.57-.63.55-.9 1.53v6.56h-1.06V4.2h.93l.13 1.58v.1q.4-.87 1.1-1.36.7-.5 1.66-.5.2 0 .37.04.2.03.32.06l-.15 1z"/><path d="M122.06 13.7H121V4.2h1.06v9.5zm0-12.22H121V0h1.06v1.48z"/><path d="M130.66 11.3q0-.67-.55-1.17-.54-.5-1.97-.82-1.7-.36-2.52-.97-.8-.6-.8-1.7t.9-1.85q.93-.75 2.45-.75 1.6 0 2.55.8.94.8.9 1.98l-.03.06h-.97q0-.78-.67-1.36-.66-.58-1.78-.58-1.16 0-1.74.5-.56.5-.56 1.16 0 .66.5 1.1.5.42 1.98.75 1.7.38 2.54 1.04.85.65.85 1.77 0 1.2-.96 1.93t-2.54.73q-1.73 0-2.73-.83-.98-.83-.93-1.97l.02-.05h.97q.06 1.03.83 1.5.78.46 1.84.46 1.14 0 1.8-.5.66-.5.66-1.2z"/><path d="M144.55 13.7q-.1-.47-.15-.82-.04-.36-.04-.72-.53.75-1.4 1.24-.9.5-2 .5-1.38 0-2.15-.74-.75-.74-.75-1.98 0-1.32 1.13-2.1 1.14-.8 3.08-.8h2.1V7.1q0-1.02-.66-1.6-.65-.58-1.83-.58-1.1 0-1.83.56-.72.55-.72 1.35h-.97v-.06q-.07-1.07.95-1.9 1.03-.84 2.6-.84 1.6 0 2.54.8.96.8.96 2.3v4.67q0 .5.06.97.06.48.2.94h-1.1zm-3.45-.74q1.13 0 2-.52.87-.54 1.26-1.37V9.1h-2.12q-1.43 0-2.3.6-.85.6-.85 1.5 0 .8.52 1.28.54.48 1.48.48z"/><path d="M155.86 9.22q0 2.14-.97 3.4-.97 1.28-2.67 1.28-1 0-1.76-.38-.74-.38-1.22-1.08v4.93h-1.05V4.2h.88l.14 1.48q.47-.8 1.22-1.22.75-.43 1.77-.43 1.73 0 2.7 1.37.96 1.36.96 3.64v.18zm-1.05-.18q0-1.82-.72-2.96t-2.1-1.14q-1.07 0-1.74.5-.66.5-1 1.32v4.57q.37.78 1.05 1.23.67.45 1.7.45 1.37 0 2.08-1.03.73-1.04.73-2.75v-.18z"/><path d="M165.88 9.22q0 2.14-.97 3.4-.95 1.28-2.65 1.28-1 0-1.76-.38-.75-.38-1.23-1.08v4.93h-1.05V4.2h.88l.14 1.48q.47-.8 1.22-1.22.75-.43 1.77-.43 1.72 0 2.68 1.37.98 1.36.98 3.64v.18zm-1.05-.18q0-1.82-.73-2.96-.72-1.14-2.1-1.14-1.07 0-1.74.5-.66.5-1 1.32v4.57q.37.78 1.05 1.23.7.45 1.7.45 1.4 0 2.1-1.03.73-1.04.73-2.75v-.18z"/><path d="M172.62 5.1l-.78-.05q-1 0-1.64.57-.63.55-.9 1.53v6.56h-1.06V4.2h.93l.13 1.58v.1q.4-.87 1.1-1.36.7-.5 1.66-.5.2 0 .38.04.2.03.32.06l-.14 1z"/><path d="M173.6 8.82q0-2.1 1.14-3.45t3.05-1.34q1.9 0 3.05 1.34T182 8.82v.3q0 2.1-1.15 3.44-1.14 1.34-3.04 1.34-1.9 0-3.06-1.34-1.15-1.35-1.15-3.45v-.28zm1.04.3q0 1.64.84 2.76T177.8 13q1.48 0 2.3-1.12.86-1.12.86-2.77v-.28q0-1.63-.85-2.76t-2.3-1.14-2.32 1.14q-.84 1.13-.84 2.76v.3z"/><path d="M186.77 11.33l.3 1.12h.06l.33-1.12 2.6-7.13h1.08l-3.6 9.5h-.86l-3.62-9.5h1.1l2.6 7.13z"/><path d="M196.35 13.9q-1.78 0-2.97-1.32-1.18-1.32-1.18-3.34v-.5q0-2.02 1.17-3.37 1.18-1.34 2.85-1.34 1.75 0 2.75 1.1t1 2.96v.88h-6.7v.26q0 1.6.84 2.7.86 1.07 2.25 1.07.98 0 1.68-.26t1.2-.8l.43.73q-.53.57-1.36.9-.82.33-1.95.33zm-.13-8.98q-1.17 0-1.96.9-.8.9-.92 2.23v.05h5.6v-.27q0-1.24-.74-2.07-.73-.84-1.98-.84z"/><path d="M201.65 9.04q0-2.28.96-3.64.97-1.37 2.7-1.37 1 0 1.72.42.73.42 1.2 1.2V0h1.06v13.7h-.93l-.1-1.37q-.47.76-1.2 1.16-.76.4-1.77.4-1.7 0-2.67-1.27-.95-1.27-.95-3.4v-.2zm1.05.18q0 1.72.7 2.74.68 1.02 2.07 1.02 1.02 0 1.7-.46.7-.45 1.06-1.26V6.8q-.36-.83-1.02-1.34-.65-.52-1.7-.52-1.4 0-2.1 1.14-.7 1.14-.7 2.96v.18z"/><path d="M19.1 33.7h-1.06v-9.5h1.05v9.5zm0-12.22h-1.06V20h1.05v1.48z"/><path d="M23.64 21.77v2.43h2.1v.86h-2.1v6.2q0 .93.34 1.33.34.37.9.37.26 0 .5 0 .24-.04.56-.1l.16.8q-.27.1-.65.16t-.75.07q-1 0-1.57-.64-.55-.63-.55-2v-6.2h-1.64v-.86h1.64v-2.43h1.06z"/><path d="M31.95 29.04q0-2.28.96-3.64 1-1.37 2.72-1.37 1 0 1.75.44.74.44 1.22 1.25l.12-1.52h.88v9.4q0 1.82-1.02 2.9-1 1.05-2.82 1.05-.68 0-1.46-.17-.77-.16-1.35-.45l.27-.9q.56.3 1.2.43.6.15 1.32.15 1.4 0 2.1-.8.7-.8.7-2.2v-1.2q-.47.7-1.2 1.1-.75.4-1.74.4-1.7 0-2.7-1.28-.95-1.27-.95-3.4v-.2zm1.05.18q0 1.7.7 2.74.7 1.02 2.1 1.02 1.02 0 1.7-.46.68-.47 1.05-1.3v-4.4q-.34-.83-1-1.35-.67-.53-1.73-.53-1.4 0-2.1 1.14-.72 1.14-.72 2.96v.18z"/><path d="M45.95 33.9q-1.8 0-2.97-1.32-1.18-1.32-1.18-3.34v-.5q0-2.02 1.17-3.37 1.18-1.34 2.85-1.34 1.75 0 2.75 1.1t1 2.96v.88h-6.7v.26q0 1.6.84 2.7T45.96 33q.98 0 1.68-.26.7-.28 1.18-.8l.46.73q-.53.57-1.36.9-.82.33-1.95.33zm-.13-8.98q-1.17 0-1.96.9-.8.9-.93 2.23l.02.05h5.57v-.27q0-1.24-.73-2.07-.73-.84-1.98-.84z"/><path d="M53.3 21.77v2.43h2.1v.86h-2.1v6.2q0 .93.35 1.33.34.37.9.37.26 0 .5 0 .24-.04.56-.1l.17.8q-.27.1-.65.16t-.75.07q-1 0-1.57-.64-.55-.63-.55-2v-6.2H50.6v-.86h1.65v-2.43h1.06z"/><path d="M63.33 31.3q0-.67-.55-1.17-.54-.5-1.98-.82-1.7-.36-2.52-.97-.8-.6-.8-1.7t.9-1.85q.93-.75 2.44-.75 1.6 0 2.55.8.94.8.9 1.98l-.02.06h-.98q0-.78-.67-1.36-.65-.58-1.78-.58-1.15 0-1.73.5-.58.5-.58 1.16 0 .66.5 1.1.5.42 1.98.75 1.7.38 2.54 1.04.84.65.84 1.77 0 1.2-.97 1.93-.94.73-2.53.73-1.73 0-2.72-.83-1-.83-.93-1.97v-.05h.98q.06 1.03.84 1.5.78.46 1.83.46 1.15 0 1.8-.5.66-.5.66-1.2z"/><path d="M72.4 33.7h-1.06v-9.5h1.05v9.5zm0-12.22h-1.06V20h1.05v1.48z"/><path d="M76.22 24.2l.1 1.66q.45-.88 1.23-1.35.78-.47 1.84-.47 1.54 0 2.35.94.8.94.8 2.95v5.8H81.5v-5.8q0-1.63-.6-2.3-.62-.68-1.75-.68-1.1 0-1.8.6-.7.57-1 1.54v6.63h-1.06v-9.5h.92z"/><path d="M86.96 21.77v2.43h2.1v.86h-2.1v6.2q0 .93.33 1.33.34.37.9.37.25 0 .5 0 .24-.04.55-.1l.16.8q-.25.1-.63.16t-.76.07q-1 0-1.55-.64-.55-.63-.55-2v-6.2h-1.65v-.86h1.65v-2.43h1.06z"/><path d="M90.52 28.82q0-2.1 1.15-3.45t3.05-1.34q1.9 0 3.06 1.34t1.15 3.45v.3q0 2.1-1.15 3.44-1.14 1.34-3.04 1.34-1.92 0-3.07-1.34-1.15-1.35-1.15-3.45v-.3zm1.05.3q0 1.64.84 2.76T94.75 33q1.47 0 2.3-1.12.84-1.12.84-2.77v-.3q0-1.6-.84-2.74t-2.32-1.14-2.3 1.14q-.85 1.13-.85 2.76v.3z"/><path d="M104.93 28.82q0-2.1 1.15-3.45t3.05-1.34q1.9 0 3.06 1.34t1.14 3.45v.3q0 2.1-1.15 3.44-1.15 1.34-3.05 1.34-1.92 0-3.07-1.34-1.15-1.35-1.15-3.45v-.3zm1.05.3q0 1.64.84 2.76.83 1.13 2.33 1.13 1.47 0 2.3-1.12.85-1.12.85-2.77v-.3q0-1.6-.85-2.74t-2.32-1.14-2.3 1.14q-.85 1.13-.85 2.76v.3z"/><path d="M121.77 32.16q-.46.83-1.23 1.3-.77.44-1.83.44-1.5 0-2.34-1.02-.86-1.02-.86-3.17v-5.5h1.06v5.53q0 1.74.6 2.5.58.75 1.67.75 1.2 0 1.9-.53.72-.54 1-1.48V24.2h1.06v9.5h-.94l-.1-1.55z"/><path d="M129.94 25.1l-.78-.05q-1 0-1.64.57-.63.55-.9 1.53v6.56h-1.06v-9.5h.93l.12 1.58v.1q.4-.87 1.1-1.36.7-.5 1.66-.5.2 0 .38.04.2.03.32.06l-.14 1z"/><path d="M141.77 31.3q0-.67-.55-1.17-.55-.5-1.98-.82-1.7-.36-2.52-.97-.8-.6-.8-1.7t.9-1.85q.92-.75 2.44-.75 1.6 0 2.55.8.95.8.9 1.98l-.02.06h-.97q0-.78-.66-1.36-.66-.58-1.78-.58-1.16 0-1.74.5-.57.5-.57 1.16 0 .66.5 1.1.5.42 1.98.75 1.7.38 2.54 1.04.85.65.85 1.77 0 1.2-.97 1.93-.96.73-2.54.73-1.72 0-2.72-.83-.98-.83-.93-1.97l.02-.05h.97q.06 1.03.83 1.5.78.46 1.84.46 1.15 0 1.8-.5.67-.5.67-1.2z"/><path d="M147.95 31.14l.33 1.13h.06l2.87-8.07h1.2l-4.14 11.03q-.37.97-.96 1.64-.6.68-1.72.68-.2 0-.45-.04-.27-.03-.4-.07l.13-.88q.1.02.34.03.24.03.34.03.7 0 1.1-.48.4-.48.7-1.25l.5-1.28-3.67-9.4h1.17l2.6 6.94z"/><path d="M159.77 31.3q0-.67-.55-1.17-.55-.5-1.98-.82-1.7-.36-2.52-.97-.8-.6-.8-1.7t.9-1.85q.92-.75 2.44-.75 1.6 0 2.55.8.95.8.9 1.98l-.02.06h-.97q0-.78-.66-1.36-.66-.58-1.78-.58-1.16 0-1.74.5-.57.5-.57 1.16 0 .66.5 1.1.5.42 1.98.75 1.7.38 2.54 1.04.85.65.85 1.77 0 1.2-.97 1.93-.96.73-2.54.73-1.72 0-2.72-.83-.98-.83-.93-1.97l.02-.05h.97q.06 1.03.83 1.5.78.46 1.84.46 1.15 0 1.8-.5.67-.5.67-1.2z"/><path d="M164.9 21.77v2.43h2.1v.86h-2.1v6.2q0 .93.33 1.33.35.37.9.37.26 0 .5 0 .25-.04.56-.1l.15.8q-.26.1-.64.16t-.75.07q-1 0-1.56-.64-.56-.63-.56-2v-6.2h-1.65v-.86h1.64v-2.43h1.06z"/><path d="M172.8 33.9q-1.8 0-2.98-1.32t-1.18-3.34v-.5q0-2.02 1.17-3.37 1.2-1.34 2.86-1.34 1.75 0 2.75 1.1t1 2.96v.88h-6.7v.26q0 1.6.85 2.7T172.8 33q.97 0 1.67-.26.7-.28 1.2-.8l.43.73q-.53.57-1.36.9-.82.33-1.95.33zm-.14-8.98q-1.17 0-1.96.9-.8.9-.92 2.23v.05h5.6v-.27q0-1.24-.74-2.07-.73-.84-1.98-.84z"/><path d="M179.4 24.2l.1 1.57q.44-.83 1.2-1.3.76-.44 1.82-.44 1.1 0 1.82.52.74.53 1.05 1.6.42-1 1.2-1.55.8-.57 1.96-.57 1.52 0 2.34 1 .83 1.02.83 3.13v5.55h-1.05v-5.55q0-1.76-.63-2.48-.6-.73-1.72-.73-1.22 0-1.9.76-.66.77-.82 1.96 0 .07 0 .18.02.1.02.17v5.7h-1.06v-5.55q0-1.73-.63-2.46-.63-.76-1.73-.76t-1.77.57q-.65.57-.92 1.53v6.68h-1.05v-9.5h.94z"/><path d="M23.6 53.7q-.1-.47-.15-.82-.04-.36-.04-.72-.52.75-1.4 1.24-.88.5-1.98.5-1.4 0-2.16-.74-.76-.74-.76-1.98 0-1.32 1.13-2.1 1.14-.8 3.08-.8h2.1V47.1q0-1.02-.65-1.6-.65-.58-1.83-.58-1.1 0-1.83.56-.73.55-.73 1.35h-.97v-.06q-.07-1.07.95-1.9 1.03-.84 2.6-.84 1.6 0 2.54.8.95.8.95 2.3v4.67q0 .5.05.97.07.48.2.94h-1.1zm-3.46-.74q1.14 0 2-.52.88-.54 1.27-1.37V49.1h-2.1q-1.45 0-2.3.6-.86.6-.86 1.5 0 .8.53 1.28t1.47.48z"/><path d="M28.18 44.2l.1 1.66q.45-.88 1.23-1.35.8-.47 1.85-.47 1.55 0 2.36.94.8.94.8 2.95v5.8h-1.04v-5.8q0-1.63-.6-2.3-.62-.68-1.75-.68-1.1 0-1.8.6-.7.57-1 1.54v6.63h-1.05v-9.5h.93z"/><path d="M36.85 49.03q0-2.27.96-3.63.98-1.37 2.7-1.37 1 0 1.72.42.73.42 1.22 1.2V40h1.04v13.7h-.93l-.1-1.37q-.46.76-1.2 1.16-.76.4-1.77.4-1.7 0-2.67-1.27-.95-1.27-.95-3.4v-.2zm1.06.2q0 1.7.7 2.73.7 1.02 2.08 1.02 1.02 0 1.7-.46.68-.45 1.06-1.26V46.8q-.36-.83-1.02-1.34-.66-.52-1.73-.52-1.4 0-2.1 1.14-.7 1.14-.7 2.96v.18z"/><path d="M53.73 50.63l.36 1.7h.04l.45-1.7 2-6.43h.92l2.02 6.43.45 1.74h.05l.4-1.74 1.72-6.43h1.1l-2.77 9.5h-.9l-2.1-6.5-.42-1.64h-.06l-.42 1.65-2.07 6.5h-.9l-2.77-9.5h1.1l1.77 6.43z"/><path d="M68.9 53.9q-1.8 0-2.98-1.32t-1.18-3.34v-.5q0-2.02 1.17-3.37 1.2-1.34 2.86-1.34 1.75 0 2.75 1.1t1 2.96v.88h-6.7v.26q0 1.6.85 2.7T68.9 53q.97 0 1.67-.26.7-.28 1.18-.8l.45.73q-.53.57-1.36.9-.82.33-1.95.33zm-.14-8.98q-1.17 0-1.96.9-.8.9-.93 2.23l.02.05h5.56v-.27q0-1.24-.73-2.07-.72-.84-1.97-.84z"/><path d="M85.02 53.7q-.1-.47-.15-.82t-.05-.72q-.52.75-1.4 1.24-.88.5-1.98.5-1.4 0-2.16-.74-.77-.74-.77-1.98 0-1.32 1.15-2.1 1.14-.8 3.07-.8h2.1V47.1q0-1.02-.66-1.6-.65-.58-1.82-.58-1.1 0-1.83.56-.7.55-.7 1.35h-.98l-.02-.06q-.05-1.07.97-1.9 1.03-.84 2.6-.84 1.58 0 2.54.8.97.8.97 2.3v4.67q0 .5.05.97.06.48.2.94h-1.1zm-3.46-.74q1.14 0 2-.52.88-.54 1.26-1.37V49.1H82.7q-1.43 0-2.3.6-.84.6-.84 1.5 0 .8.53 1.28.52.48 1.46.48z"/><path d="M94.36 51.3q0-.67-.55-1.17-.54-.5-1.97-.82-1.7-.36-2.52-.97-.8-.6-.8-1.7t.9-1.85q.93-.75 2.45-.75 1.6 0 2.54.8.93.8.9 1.98l-.03.06h-.97q0-.78-.67-1.36-.66-.58-1.78-.58-1.16 0-1.74.5-.56.5-.56 1.16 0 .66.5 1.1.5.42 1.98.75 1.7.38 2.54 1.04.84.65.84 1.77 0 1.2-.96 1.93t-2.54.73q-1.73 0-2.73-.83-.98-.83-.93-1.97l.02-.05h.97q.06 1.03.83 1.5.78.46 1.84.46 1.14 0 1.8-.5.66-.5.66-1.2z"/><path d="M103.54 51.3q0-.67-.55-1.17-.56-.5-2-.82-1.7-.36-2.5-.97-.82-.6-.82-1.7t.9-1.85q.93-.75 2.45-.75 1.6 0 2.55.8.94.8.9 1.98l-.03.06h-.97q0-.78-.67-1.36-.65-.58-1.77-.58-1.16 0-1.74.5-.58.5-.58 1.16 0 .66.5 1.1.5.42 1.98.75 1.7.38 2.54 1.04.85.65.85 1.77 0 1.2-.98 1.93-.96.73-2.54.73-1.73 0-2.73-.83-.98-.83-.93-1.97l.02-.05h.97q.07 1.03.84 1.5.78.46 1.84.46 1.14 0 1.8-.5.66-.5.66-1.2z"/><path d="M108.2 53.7h-1.06v-9.5h1.05v9.5zm0-12.22h-1.06V40h1.05v1.48z"/><path d="M110.68 49.03q0-2.27.97-3.63.97-1.37 2.7-1.37 1 0 1.75.44.74.44 1.22 1.25l.13-1.52h.9v9.4q0 1.82-1.03 2.9-1.02 1.05-2.83 1.05-.7 0-1.46-.17-.78-.16-1.36-.45l.27-.9q.57.3 1.2.43.6.15 1.33.15 1.4 0 2.1-.8.7-.8.7-2.2v-1.2q-.48.7-1.22 1.1-.74.4-1.72.4-1.72 0-2.7-1.28-.96-1.27-.96-3.4v-.2zm1.05.2q0 1.7.7 2.73.7 1.02 2.1 1.02 1.02 0 1.7-.46.68-.47 1.05-1.3v-4.4q-.34-.83-1-1.35-.67-.53-1.73-.53-1.4 0-2.1 1.14-.72 1.14-.72 2.96v.18z"/><path d="M122.04 44.2l.1 1.66q.45-.88 1.23-1.35.78-.47 1.84-.47 1.56 0 2.37.94.8.94.8 2.95v5.8h-1.05v-5.8q0-1.63-.6-2.3-.62-.68-1.74-.68-1.1 0-1.8.6-.7.57-1.02 1.54v6.63h-1.05v-9.5h.94z"/><path d="M141.55 53.7q-.1-.47-.15-.82-.04-.36-.04-.72-.53.75-1.4 1.24-.9.5-2 .5-1.38 0-2.15-.74-.75-.74-.75-1.98 0-1.32 1.13-2.1 1.14-.8 3.08-.8h2.1V47.1q0-1.02-.66-1.6-.65-.58-1.83-.58-1.1 0-1.83.56-.72.55-.72 1.35h-.97v-.06q-.07-1.07.95-1.9 1.03-.84 2.6-.84 1.6 0 2.54.8.96.8.96 2.3v4.67q0 .5.06.97.06.48.2.94h-1.1zm-3.45-.74q1.13 0 2-.52.87-.54 1.26-1.37V49.1h-2.12q-1.43 0-2.3.6-.85.6-.85 1.5 0 .8.52 1.28.54.48 1.48.48z"/><path d="M151.64 50.63l.36 1.7h.05l.45-1.7 2.02-6.43h.9l2.03 6.43.46 1.74h.06l.4-1.74 1.73-6.43h1.08l-2.77 9.5h-.9l-2.1-6.5-.4-1.64h-.06l-.43 1.65-2.06 6.5h-.9l-2.77-9.5h1.1l1.77 6.43z"/><path d="M167.6 45.1l-.77-.05q-1 0-1.64.57-.64.55-.9 1.53v6.56h-1.07v-9.5h.93l.13 1.58v.1q.4-.87 1.1-1.36.7-.5 1.65-.5.2 0 .38.04.2.03.32.06l-.14 1z"/><path d="M170.53 53.7h-1.05v-9.5h1.05v9.5zm0-12.22h-1.05V40h1.05v1.48z"/><path d="M175.08 41.77v2.43h2.1v.86h-2.1v6.2q0 .93.33 1.33.36.37.92.37.25 0 .5 0 .24-.04.55-.1l.16.8q-.26.1-.64.16t-.77.07q-1 0-1.56-.64-.55-.63-.55-2v-6.2h-1.65v-.86h1.65v-2.43h1.06z"/><path d="M182.97 53.9q-1.78 0-2.97-1.32-1.18-1.32-1.18-3.34v-.5q0-2.02 1.17-3.37 1.17-1.34 2.84-1.34 1.75 0 2.75 1.1t1 2.96v.88h-6.72v.26q0 1.6.85 2.7t2.24 1.07q.98 0 1.68-.26.7-.28 1.2-.8l.43.73q-.53.57-1.36.9-.82.33-1.95.33zm-.13-8.98q-1.17 0-1.96.9-.8.9-.92 2.23v.05h5.6v-.27q0-1.24-.74-2.07-.73-.84-1.98-.84z"/><path d="M193.06 45.1l-.78-.05q-1 0-1.64.57-.63.55-.9 1.53v6.56h-1.06v-9.5h.93l.14 1.58v.1q.4-.87 1.1-1.36.7-.5 1.66-.5.2 0 .38.04.2.03.32.06l-.14 1z"/><path d="M52.59 70.63l.35 1.7H53l.45-1.7 2.02-6.43h.9l2.02 6.43.45 1.74h.05l.4-1.74 1.73-6.43h1.1l-2.78 9.5h-.9l-2.1-6.5-.42-1.64h-.05l-.42 1.65-2.08 6.5h-.9l-2.76-9.5h1.1l1.76 6.43z"/><path d="M65.23 65.83q.48-.86 1.27-1.33.8-.47 1.84-.47 1.5 0 2.3.93.8.93.8 2.9v5.85H70.4v-5.87q0-1.55-.62-2.2-.6-.7-1.67-.7-1.08 0-1.8.58-.73.57-1.07 1.5v6.7h-1.05V60h1.05v5.83z"/><path d="M73.6 68.81q0-2.1 1.16-3.43t3.05-1.35q1.92 0 3.07 1.35t1.15 3.44v.3q0 2.1-1.15 3.46-1.14 1.34-3.04 1.34-1.92 0-3.07-1.34-1.15-1.35-1.15-3.45v-.28zm1.06.3q0 1.66.84 2.78T77.83 73q1.46 0 2.3-1.12.84-1.12.84-2.77v-.28q0-1.63-.84-2.76t-2.32-1.14-2.3 1.14q-.84 1.13-.84 2.75v.3z"/><path d="M90.66 70.63l.36 1.7h.05l.45-1.7 2.02-6.43h.9l2.03 6.43.46 1.74h.05l.4-1.74 1.73-6.43h1.1l-2.77 9.5h-.9l-2.1-6.5-.42-1.64h-.05l-.42 1.65-2.07 6.5h-.9l-2.77-9.5h1.08l1.78 6.43z"/><path d="M103.43 73.7h-1.05v-9.5h1.05v9.5zm0-12.22h-1.05V60h1.05v1.48z"/><path d="M107.5 73.7h-1.04V60h1.05v13.7z"/><path d="M111.6 73.7h-1.06V60h1.05v13.7z"/><path d="M119.5 73.7v-8.64h-1.58v-.86h1.58V63q0-1.52.83-2.35.84-.83 2.33-.83.58 0 1.2.13.6.13 1.22.38l-.17.9q-.53-.2-1.03-.33t-1.14-.13q-1.08 0-1.63.57-.55.58-.55 1.65v1.2h2.23v.86h-2.23v8.65h-1.05zm6.15 0h-1.05v-9.5h1.05v9.5z"/><path d="M129.48 64.2l.1 1.66q.45-.88 1.23-1.35.8-.47 1.85-.47 1.55 0 2.36.94.82.94.82 2.95v5.8h-1.06v-5.8q0-1.63-.6-2.3-.62-.68-1.74-.68-1.1 0-1.8.6-.7.57-1.02 1.54v6.63h-1.05v-9.5h.93z"/><path d="M139.75 73.7h-1.05v-9.5h1.05v9.5zm0-12.22h-1.05V60h1.05v1.48z"/><path d="M148.34 71.3q0-.67-.55-1.17-.56-.5-2-.82-1.7-.36-2.5-.97-.82-.6-.82-1.7t.9-1.85q.93-.75 2.45-.75 1.6 0 2.55.8.94.8.9 1.98l-.03.06h-.97q0-.78-.67-1.36-.65-.58-1.77-.58-1.16 0-1.74.5-.58.5-.58 1.16 0 .66.5 1.1.5.42 1.98.75 1.7.38 2.54 1.04.85.65.85 1.77 0 1.2-.98 1.93-.96.73-2.54.73-1.73 0-2.73-.83-.98-.83-.93-1.97l.02-.05h.97q.07 1.03.84 1.5.78.46 1.84.46 1.14 0 1.8-.5.66-.5.66-1.2z"/><path d="M152.88 65.83q.47-.86 1.27-1.33.8-.47 1.84-.47 1.5 0 2.3.93.8.93.8 2.9v5.85h-1.05v-5.87q0-1.55-.62-2.2-.6-.7-1.68-.7t-1.8.58q-.73.57-1.07 1.5v6.7h-1.05V60h1.05v5.83z"/><path d="M34.66 91.14l.33 1.13h.04l2.88-8.07h1.17l-4.14 11.03q-.37.97-.96 1.64-.58.68-1.72.68-.18 0-.45-.04-.26-.03-.38-.07l.12-.88q.1.02.33.03.24.03.35.03.68 0 1.1-.48.4-.48.7-1.25l.5-1.28-3.67-9.4h1.16l2.6 6.94z"/><path d="M40.05 88.81q0-2.1 1.15-3.43t3.05-1.35q1.9 0 3.06 1.35t1.16 3.44v.3q0 2.1-1.15 3.46-1.13 1.34-3.03 1.34-1.92 0-3.07-1.34-1.15-1.35-1.15-3.45v-.28zm1.06.3q0 1.66.84 2.78T44.27 93q1.47 0 2.3-1.12.85-1.12.85-2.77v-.28q0-1.63-.85-2.76t-2.32-1.14-2.3 1.14q-.84 1.13-.84 2.75v.3z"/><path d="M56.9 92.16q-.47.83-1.24 1.3-.77.44-1.83.44-1.5 0-2.35-1.02-.86-1.02-.86-3.17v-5.5h1.06v5.53q0 1.74.6 2.5.6.75 1.68.75 1.2 0 1.9-.53.72-.54 1-1.48V84.2h1.05v9.5H57l-.1-1.54z"/><path d="M65.06 85.1l-.8-.05q-.98 0-1.62.57-.63.55-.9 1.53v6.56h-1.06v-9.5h.92l.13 1.58v.1q.42-.87 1.1-1.36.7-.5 1.66-.5.2 0 .38.04.2.03.32.06l-.14 1z"/><path d="M78.85 89.22q0 2.14-.97 3.4-.97 1.28-2.66 1.28-1 0-1.76-.38-.75-.38-1.22-1.08v4.93h-1.06V84.2h.9l.12 1.48q.48-.8 1.22-1.22.76-.43 1.78-.43 1.7 0 2.68 1.37.97 1.36.97 3.64v.18zm-1.06-.18q0-1.82-.73-2.96t-2.1-1.14q-1.07 0-1.74.5-.66.5-1 1.32v4.57q.37.78 1.04 1.23.7.45 1.7.45 1.4 0 2.1-1.03.72-1.04.72-2.75v-.18z"/><path d="M87.23 93.7q-.1-.47-.15-.82t-.04-.72q-.53.75-1.4 1.24-.9.5-2 .5-1.37 0-2.15-.74-.77-.74-.77-1.98 0-1.32 1.13-2.1 1.14-.8 3.08-.8h2.1V87.1q0-1.02-.66-1.6-.65-.58-1.83-.58-1.1 0-1.83.56-.72.55-.72 1.35h-.97v-.06q-.07-1.07.95-1.9 1.03-.84 2.6-.84 1.6 0 2.55.8.95.8.95 2.3v4.67q0 .5.06.97.06.48.2.94h-1.1zm-3.45-.74q1.13 0 2-.52.87-.54 1.26-1.37V89.1h-2.12q-1.43 0-2.3.6-.85.6-.85 1.5 0 .8.53 1.28.54.48 1.48.48z"/><path d="M98.53 89.22q0 2.14-.96 3.4-.97 1.28-2.67 1.28-1 0-1.75-.38t-1.23-1.08v4.93h-1.05V84.2h.9l.12 1.48q.46-.8 1.2-1.22.77-.43 1.8-.43 1.7 0 2.67 1.37.96 1.36.96 3.64v.18zm-1.05-.18q0-1.82-.72-2.96t-2.1-1.14q-1.07 0-1.74.5-.66.5-1 1.32v4.57q.36.78 1.04 1.23.7.45 1.7.45 1.4 0 2.1-1.03.72-1.04.72-2.75v-.18z"/><path d="M104.47 93.9q-1.78 0-2.97-1.32-1.18-1.32-1.18-3.34v-.5q0-2.02 1.17-3.37 1.17-1.34 2.84-1.34 1.75 0 2.75 1.1t1 2.96v.88h-6.72v.26q0 1.6.85 2.7t2.24 1.07q.98 0 1.68-.26t1.2-.8l.43.73q-.53.57-1.36.9-.82.33-1.95.33zm-.13-8.98q-1.17 0-1.96.9-.8.9-.92 2.23v.05h5.6v-.27q0-1.24-.74-2.07-.73-.84-1.98-.84z"/><path d="M114.56 85.1l-.78-.05q-1 0-1.64.57-.63.55-.9 1.53v6.56h-1.06v-9.5h.93l.14 1.58v.1q.4-.87 1.1-1.36.7-.5 1.66-.5.2 0 .38.04.2.03.32.06l-.14 1z"/><path d="M120.1 88.81q0-2.1 1.15-3.43t3.05-1.35q1.9 0 3.06 1.35t1.15 3.44v.3q0 2.1-1.14 3.46-1.14 1.34-3.04 1.34-1.92 0-3.07-1.34-1.15-1.35-1.15-3.45v-.28zm1.05.3q0 1.66.84 2.78T124.3 93q1.47 0 2.3-1.12.85-1.12.85-2.77v-.28q0-1.63-.85-2.76t-2.32-1.14-2.3 1.14q-.85 1.13-.85 2.75v.3z"/><path d="M131.64 84.2l.1 1.66q.45-.88 1.23-1.35.78-.47 1.84-.47 1.56 0 2.37.94.8.94.8 2.95v5.8h-1.05v-5.8q0-1.63-.6-2.3-.62-.68-1.74-.68-1.1 0-1.8.6-.7.57-1.02 1.54v6.63h-1.05v-9.5h.94z"/><path d="M146.78 81.77v2.43h2.1v.86h-2.1v6.2q0 .93.33 1.33.36.37.92.37.25 0 .5 0 .24-.04.55-.1l.16.8q-.26.1-.64.16t-.77.07q-1 0-1.56-.64-.55-.63-.55-2v-6.2h-1.65v-.86h1.65v-2.43h1.06z"/><path d="M152.28 93.7h-1.05v-9.5h1.05v9.5zm0-12.22h-1.05V80h1.05v1.48z"/><path d="M156.07 84.2l.1 1.57q.45-.83 1.2-1.3.77-.44 1.83-.44 1.1 0 1.82.52.74.53 1.05 1.6.43-1 1.22-1.55.8-.57 1.94-.57 1.52 0 2.34 1 .83 1.02.83 3.13v5.55h-1.04v-5.55q0-1.76-.63-2.48-.6-.73-1.72-.73-1.2 0-1.88.76-.67.77-.83 1.96 0 .07 0 .18 0 .1 0 .17v5.7h-1.06v-5.55q0-1.73-.63-2.46-.62-.76-1.72-.76t-1.77.57q-.64.57-.9 1.53v6.68h-1.07v-9.5h.94z"/><path d="M174.7 93.9q-1.77 0-2.96-1.32-1.18-1.32-1.18-3.34v-.5q0-2.02 1.17-3.37 1.18-1.34 2.85-1.34 1.75 0 2.75 1.1t1 2.96v.88h-6.7v.26q0 1.6.84 2.7T174.7 93q1 0 1.7-.26.68-.28 1.18-.8l.44.73q-.53.57-1.36.9-.82.33-1.95.33zm-.12-8.98q-1.17 0-1.96.9-.8.9-.92 2.23v.05h5.6v-.27q0-1.24-.74-2.07-.73-.84-1.98-.84z"/></g></svg>