<svg xmlns="http://www.w3.org/2000/svg" width="104.19" height="66.453" version="1"><g fill="#929292"><path d="M19.72 11.9h6.33v.9h-7.38V0h1.05v11.9z"/><path d="M31.44 12.98q-1.8 0-2.97-1.32-1.18-1.32-1.18-3.34v-.48q0-2.04 1.16-3.38Q29.64 3.1 31.3 3.1q1.76 0 2.76 1.12t1 2.95v.9h-6.72v.25q0 1.6.86 2.7t2.24 1.07q.98 0 1.68-.28.7-.27 1.18-.78l.45.72q-.53.56-1.36.9-.83.32-1.96.32zM31.3 4q-1.16 0-1.95.9-.8.9-.93 2.24l.02.04H34v-.26q0-1.24-.72-2.08Q32.56 4 31.3 4z"/><path d="M43.17 12.8q-.1-.5-.15-.84-.04-.35-.04-.7-.53.74-1.4 1.23-.9.48-2 .48-1.37 0-2.15-.74-.76-.73-.76-1.97 0-1.32 1.13-2.1 1.14-.8 3.08-.8h2.1V6.2q0-1.03-.66-1.6-.65-.6-1.83-.6-1.1 0-1.84.56-.72.56-.72 1.36h-.96l-.02-.07q-.05-1.06.97-1.9 1.02-.84 2.6-.84t2.54.8q.95.8.95 2.3v4.68q0 .5.06.98.06.47.2.94h-1.1zm-3.45-.75q1.13 0 2-.53.87-.53 1.26-1.36v-2h-2.12q-1.43 0-2.3.63-.85.6-.85 1.5 0 .77.54 1.27.54.48 1.48.48z"/><path d="M49.4 10.4l.3 1.13h.05l.33-1.12 2.58-7.1h1.1l-3.62 9.5h-.84l-3.62-9.5h1.1l2.6 7.1z"/><path d="M58.97 12.98q-1.8 0-2.97-1.32-1.18-1.32-1.18-3.34v-.48q0-2.04 1.17-3.38 1.16-1.35 2.83-1.35 1.75 0 2.76 1.12t1 2.95v.9h-6.73v.25q0 1.6.85 2.7t2.25 1.07q.98 0 1.67-.28.7-.27 1.2-.78l.44.72q-.54.56-1.36.9-.82.32-1.95.32zM58.83 4q-1.16 0-1.96.9t-.92 2.24l.02.04h5.57v-.26q0-1.24-.73-2.08Q60.1 4 58.84 4z"/><path d="M75.3 11.24q-.45.84-1.23 1.3-.77.44-1.82.44-1.5 0-2.36-1.02-.86-1.02-.86-3.16V3.3h1.05V8.8q0 1.74.58 2.5.6.75 1.7.75 1.18 0 1.9-.54.7-.54 1-1.48V3.3h1.04v9.5h-.93l-.1-1.56z"/><path d="M84.8 10.38q0-.67-.57-1.17-.54-.5-1.97-.8-1.7-.38-2.53-.98-.8-.6-.8-1.72 0-1.1.9-1.83.93-.76 2.44-.76 1.6 0 2.55.8.94.8.9 2l-.02.05h-.97q0-.78-.67-1.36-.66-.6-1.8-.6-1.14 0-1.72.5-.57.5-.57 1.17 0 .66.5 1.1.5.42 1.98.74 1.7.4 2.54 1.05.83.65.83 1.78 0 1.18-.96 1.92-.96.73-2.54.73-1.73 0-2.73-.82-.98-.83-.93-1.97l.02-.07h.96q.06 1.03.83 1.5.77.46 1.83.46 1.14 0 1.8-.5.66-.5.66-1.22z"/><path d="M38.6 35.22l.34 1.14H39l2.86-8.07h1.18L38.9 39.3q-.36.96-.95 1.64-.6.68-1.72.68-.2 0-.45-.05-.26-.04-.4-.1l.14-.86q.1 0 .33.03.24.03.34.03.68 0 1.1-.5.4-.48.7-1.24l.5-1.3-3.68-9.37H36l2.6 6.92z"/><path d="M44 32.9q0-2.1 1.15-3.44t3.05-1.35q1.9 0 3.06 1.36t1.15 3.44v.3q0 2.1-1.14 3.45-1.14 1.33-3.04 1.33-1.92 0-3.07-1.33Q44 35.3 44 33.2v-.3zm1.05.3q0 1.64.84 2.77t2.32 1.12q1.46 0 2.3-1.13.84-1.13.84-2.78v-.3q0-1.62-.84-2.76T48.2 29t-2.3 1.14q-.85 1.14-.85 2.76v.3z"/><path d="M60.84 36.24q-.46.84-1.23 1.3-.77.44-1.82.44-1.5 0-2.36-1.02-.85-1.02-.85-3.16v-5.5h1.06v5.52q0 1.74.58 2.5.6.75 1.7.75 1.2 0 1.9-.54.72-.54 1-1.48V28.3h1.06v9.5h-.93l-.1-1.56z"/><path d="M69 29.2l-.78-.06q-1 0-1.63.56-.65.56-.92 1.53v6.57h-1.05v-9.5h.92l.13 1.57v.1q.4-.87 1.1-1.37.7-.5 1.66-.5.2 0 .4.05.18.02.3.06l-.14 1z"/><path d="M0 57.9q0-2.1 1.15-3.44T4.2 53.1q1.9 0 3.06 1.36T8.4 57.9v.3q0 2.1-1.14 3.45-1.14 1.33-3.04 1.33-1.92 0-3.07-1.33Q0 60.3 0 58.2v-.3zm1.05.3q0 1.64.84 2.77T4.2 62.1q1.47 0 2.3-1.13.85-1.13.85-2.78v-.3q0-1.62-.85-2.76T4.2 54t-2.3 1.14q-.85 1.14-.85 2.76v.3z"/><path d="M14.98 54.2l-.78-.06q-1 0-1.63.56-.63.56-.9 1.53v6.57H10.6v-9.5h.93l.13 1.57v.1q.42-.87 1.1-1.37.7-.5 1.66-.5.2 0 .4.05.18.02.3.06l-.14 1z"/><path d="M16.14 58.12q0-2.28.96-3.64.96-1.37 2.68-1.37 1 0 1.73.43.74.42 1.22 1.2V49.1h1.05v13.7h-.94l-.08-1.38q-.48.75-1.23 1.16-.74.4-1.75.4-1.7 0-2.67-1.26-.96-1.28-.96-3.4v-.2zm1.05.2q0 1.7.68 2.73.7 1.02 2.08 1.02 1.02 0 1.7-.46.68-.45 1.06-1.26v-4.46q-.36-.83-1.02-1.34-.66-.5-1.72-.5-1.4 0-2.1 1.13-.7 1.13-.7 2.95v.2z"/><path d="M30.14 62.98q-1.8 0-2.97-1.32Q26 60.34 26 58.32v-.48q0-2.04 1.16-3.38Q28.34 53.1 30 53.1q1.76 0 2.76 1.12t1 2.95v.9h-6.72v.25q0 1.6.86 2.7t2.24 1.07q.98 0 1.68-.28.7-.27 1.18-.78l.45.72q-.53.56-1.36.9-.83.32-1.96.32zM30 54q-1.16 0-1.95.9-.8.9-.93 2.24l.02.04h5.57v-.26q0-1.24-.72-2.08Q31.25 54 30 54z"/><path d="M40.23 54.2l-.78-.06q-1 0-1.64.56-.62.56-.9 1.53v6.57h-1.05v-9.5h.92l.14 1.57v.1q.42-.87 1.1-1.37.7-.5 1.67-.5.2 0 .38.05.2.02.32.06l-.14 1z"/><path d="M50.74 54.2l-.78-.06q-1 0-1.64.56-.63.56-.9 1.53v6.57h-1.06v-9.5h.92l.14 1.57v.1q.4-.87 1.1-1.37.7-.5 1.66-.5.2 0 .38.05.2.02.32.06l-.14 1z"/><path d="M55.87 62.98q-1.78 0-2.97-1.32-1.18-1.32-1.18-3.34v-.48q0-2.04 1.17-3.38 1.17-1.35 2.84-1.35 1.75 0 2.75 1.12t1 2.95v.9h-6.72v.25q0 1.6.85 2.7t2.24 1.07q1 0 1.68-.28.7-.27 1.2-.78l.44.72q-.55.56-1.38.9-.8.32-1.95.32zM55.74 54q-1.17 0-1.96.9-.8.9-.92 2.24v.04h5.6v-.26q0-1.24-.74-2.08Q57 54 55.74 54z"/><path d="M61.17 58.12q0-2.28.96-3.64.97-1.37 2.7-1.37.97 0 1.7.42.73.4 1.2 1.16l.1-1.4h.93v13.17H67.7v-4.9q-.47.7-1.2 1.06-.73.38-1.7.38-1.7 0-2.67-1.26-.96-1.28-.96-3.4v-.2zm1.06.2q0 1.7.68 2.75.7 1.02 2.1 1.02.98 0 1.65-.45.67-.44 1.06-1.2v-4.67q-.35-.78-1.02-1.27-.66-.5-1.67-.5-1.38 0-2.08 1.16-.7 1.14-.7 2.96v.2z"/><path d="M77.84 61.24q-.46.84-1.23 1.3-.77.44-1.82.44-1.5 0-2.36-1.02-.85-1.02-.85-3.16v-5.5h1.05v5.52q0 1.74.6 2.5.6.75 1.68.75 1.2 0 1.9-.54.72-.54 1-1.48V53.3h1.06v9.5h-.94l-.08-1.56z"/><path d="M85.2 62.98q-1.8 0-2.98-1.32t-1.18-3.34v-.48q0-2.04 1.17-3.38 1.2-1.35 2.86-1.35 1.75 0 2.75 1.12t1 2.95v.9h-6.7v.25q0 1.6.85 2.7t2.24 1.07q.98 0 1.67-.28.7-.27 1.2-.78l.44.72q-.53.56-1.36.9-.8.32-1.95.32zM85.05 54q-1.17 0-1.96.9-.8.9-.92 2.24v.04h5.6v-.26q0-1.24-.74-2.08-.73-.83-1.98-.83z"/><path d="M96.6 60.38q0-.67-.55-1.17-.55-.5-1.98-.8-1.7-.38-2.52-.98-.8-.6-.8-1.72 0-1.1.9-1.83.93-.76 2.44-.76 1.6 0 2.54.8t.9 2l-.02.05h-.98q0-.78-.67-1.36-.66-.6-1.78-.6-1.16 0-1.74.5-.58.5-.58 1.17 0 .66.5 1.1.5.42 1.98.74 1.7.4 2.54 1.05.85.65.85 1.78 0 1.18-.97 1.92-.96.73-2.54.73-1.73 0-2.72-.82-1-.83-.94-1.97l.02-.07h.97q.06 1.03.83 1.5.8.46 1.84.46 1.14 0 1.8-.5.66-.5.66-1.22z"/><path d="M101.73 50.85v2.44h2.1v.85h-2.1v6.2q0 .93.33 1.32.35.4.9.4.26 0 .5-.03.25-.02.56-.08l.16.78q-.26.12-.64.18t-.76.06q-1 0-1.56-.63-.55-.63-.55-2v-6.2h-1.65v-.86h1.65v-2.45h1.06z"/></g></svg>