<?xml version="1.0" encoding="UTF-8"?>
<svg width="96px" height="96px" viewBox="0 0 96 96" version="1.1" xmlns="http://www.w3.org/2000/svg" xmlns:xlink="http://www.w3.org/1999/xlink">
    <!-- Generator: Sketch 51.1 (57501) - http://www.bohemiancoding.com/sketch -->
    <title>icon 1</title>
    <desc>Created with Sketch.</desc>
    <defs>
        <linearGradient x1="31.9047137%" y1="68.2419019%" x2="100%" y2="0%" id="linearGradient-1">
            <stop stop-color="#E0481B" offset="0%"></stop>
            <stop stop-color="#F7BC40" offset="100%"></stop>
        </linearGradient>
    </defs>
    <g id="Page-1" stroke="none" stroke-width="1" fill="none" fill-rule="evenodd">
        <g id="OZessay_mobile_return" transform="translate(-139.000000, -2594.000000)" fill="url(#linearGradient-1)">
            <g id="5" transform="translate(32.000000, 2435.000000)">
                <g id="icon-1" transform="translate(107.000000, 159.000000)">
                    <path d="M80.5,30 C84.0898281,30 87,27.0898281 87,23.5 C87,19.9101719 84.0898281,17 80.5,17 C76.9101719,17 74,19.9101719 74,23.5 C74,27.0898281 76.9101719,30 80.5,30 Z M80.5,20.25 C82.2950156,20.25 83.75,21.7049844 83.75,23.5 C83.75,25.2950156 82.2950156,26.75 80.5,26.75 C78.7049844,26.75 77.25,25.2950156 77.25,23.5 C77.25,21.7049844 78.7049844,20.25 80.5,20.25 Z" id="Shape"></path>
                    <path d="M16.5,30 C20.0898281,30 23,27.0898281 23,23.5 C23,19.9101719 20.0898281,17 16.5,17 C12.9101719,17 10,19.9101719 10,23.5 C10,27.0898281 12.9101719,30 16.5,30 Z M16.5,20.25 C18.2950156,20.25 19.75,21.7049844 19.75,23.5 C19.75,25.2950156 18.2950156,26.75 16.5,26.75 C14.7049844,26.75 13.25,25.2950156 13.25,23.5 C13.25,21.7049844 14.7049844,20.25 16.5,20.25 Z" id="Shape"></path>
                    <path d="M89.6,74.8431373 L89.6,50.4313725 L94.4,50.4313725 L94.4,39.4883922 C94.3948,34.7484412 90.6184,30.90725 85.9584,30.9019608 L74.0416,30.9019608 C69.3816,30.90725 65.6052,34.7484412 65.6,39.4883922 L65.6,50.4313725 L70.4,50.4313725 L70.4,74.8431373 L64,74.8431373 L64,56.9411765 L57.6,56.9411765 L57.6,32.5294118 L62.4,32.5294118 L62.4,21.5864314 C62.3948,16.8464804 58.6184,13.0052892 53.9584,13 L42.0416,13 C37.3816,13.0052892 33.6052,16.8464804 33.6,21.5864314 L33.6,32.5294118 L38.4,32.5294118 L38.4,56.9411765 L32,56.9411765 L32,74.8431373 L25.6,74.8431373 L25.6,50.4313725 L30.4,50.4313725 L30.4,39.4883922 C30.3948,34.7484412 26.6184,30.90725 21.9584,30.9019608 L10.0416,30.9019608 C5.3816,30.90725 1.6052,34.7484412 1.6,39.4883922 L1.6,50.4313725 L6.4,50.4313725 L6.4,74.8431373 L0,74.8431373 L0,96 L96,96 L96,74.8431373 L89.6,74.8431373 Z M68.8,47.1764706 L68.8,39.4883922 C68.8036,36.5453505 71.1482,34.1605245 74.0416,34.1568627 L85.9584,34.1568627 C88.8518,34.1605245 91.1964,36.5453505 91.2,39.4883922 L91.2,47.1764706 L89.6,47.1764706 L89.6,40.6666667 L86.4,40.6666667 L86.4,73.2156863 L81.6,73.2156863 L81.6,58.5686275 L78.4,58.5686275 L78.4,73.2156863 L73.6,73.2156863 L73.6,40.6666667 L70.4,40.6666667 L70.4,47.1764706 L68.8,47.1764706 Z M36.8,29.2745098 L36.8,21.5864314 C36.8036,18.6433897 39.1482,16.2585637 42.0416,16.254902 L53.9584,16.254902 C56.8518,16.2585637 59.1964,18.6433897 59.2,21.5864314 L59.2,29.2745098 L57.6,29.2745098 L57.6,22.7647059 L54.4,22.7647059 L54.4,55.3137255 L49.6,55.3137255 L49.6,40.6666667 L46.4,40.6666667 L46.4,55.3137255 L41.6,55.3137255 L41.6,22.7647059 L38.4,22.7647059 L38.4,29.2745098 L36.8,29.2745098 Z M4.8,47.1764706 L4.8,39.4883922 C4.8036,36.5453505 7.1482,34.1605245 10.0416,34.1568627 L21.9584,34.1568627 C24.8518,34.1605245 27.1964,36.5453505 27.2,39.4883922 L27.2,47.1764706 L25.6,47.1764706 L25.6,40.6666667 L22.4,40.6666667 L22.4,73.2156863 L17.6,73.2156863 L17.6,58.5686275 L14.4,58.5686275 L14.4,73.2156863 L9.6,73.2156863 L9.6,40.6666667 L6.4,40.6666667 L6.4,47.1764706 L4.8,47.1764706 Z M32,92.745098 L3.2,92.745098 L3.2,78.0980392 L32,78.0980392 L32,92.745098 Z M60.8,92.745098 L35.2,92.745098 L35.2,60.1960784 L60.8,60.1960784 L60.8,92.745098 Z M92.8,92.745098 L64,92.745098 L64,78.0980392 L92.8,78.0980392 L92.8,92.745098 Z" id="Shape"></path>
                    <path d="M47.5,13 C51.0898281,13 54,10.0898281 54,6.5 C54,2.91017187 51.0898281,0 47.5,0 C43.9101719,0 41,2.91017188 41,6.5 C41,10.0898281 43.9101719,13 47.5,13 Z M47.5,3.25 C49.2950156,3.25 50.75,4.70498438 50.75,6.5 C50.75,8.29501563 49.2950156,9.75 47.5,9.75 C45.7049844,9.75 44.25,8.29501563 44.25,6.5 C44.25,4.70498438 45.7049844,3.25 47.5,3.25 Z" id="Shape"></path>
                </g>
            </g>
        </g>
    </g>
</svg>