<?xml version="1.0" encoding="UTF-8"?>
<svg width="96px" height="96px" viewBox="0 0 96 96" version="1.1" xmlns="http://www.w3.org/2000/svg" xmlns:xlink="http://www.w3.org/1999/xlink">
    <!-- Generator: Sketch 51.1 (57501) - http://www.bohemiancoding.com/sketch -->
    <title>012-blogging</title>
    <desc>Created with Sketch.</desc>
    <defs>
        <linearGradient x1="31.9047137%" y1="68.2419019%" x2="100%" y2="0%" id="linearGradient-1">
            <stop stop-color="#E0481B" offset="0%"></stop>
            <stop stop-color="#F7BC40" offset="100%"></stop>
        </linearGradient>
    </defs>
    <g id="Page-1" stroke="none" stroke-width="1" fill="none" fill-rule="evenodd">
        <g id="OZessay_mobile_return" transform="translate(-134.000000, -2853.000000)" fill="url(#linearGradient-1)">
            <g id="012-blogging" transform="translate(134.000000, 2853.000000)">
                <path d="M92.3558809,6.68486809 L78.3035234,6.68486809 L78.3035234,1.53191489 C78.3035234,0.685685106 77.6178383,0 76.7716085,0 L19.2283915,0 C18.382366,0 17.6964766,0.685685106 17.6964766,1.53191489 L17.6964766,6.68486809 L3.64411915,6.68486809 C1.63465532,6.68486809 0,8.31931915 0,10.328783 L0,77.5704511 C0,79.5799149 1.63465532,81.2145702 3.64411915,81.2145702 L37.1025702,81.2145702 L37.1025702,92.9361702 L22.6537532,92.9361702 C21.8077277,92.9361702 21.1218383,93.6218553 21.1218383,94.4680851 C21.1218383,95.3143149 21.8077277,96 22.6537532,96 L66.5643574,96 C67.4105872,96 68.0962723,95.3143149 68.0962723,94.4680851 C68.0962723,93.6218553 67.4105872,92.9361702 66.5643574,92.9361702 L58.8974298,92.9361702 L58.8974298,81.2145702 L65.2021787,81.2145702 C66.0484085,81.2145702 66.7340936,80.5288851 66.7340936,79.6826553 C66.7340936,78.8364255 66.0484085,78.1507404 65.2021787,78.1507404 L3.64411915,78.1507404 C3.32956596,78.1507404 3.06382979,77.8850043 3.06382979,77.5704511 L3.06382979,10.328783 C3.06382979,10.0142298 3.32956596,9.74849362 3.64411915,9.74849362 L17.6964766,9.74849362 L17.6964766,65.6864681 L7.86852766,65.6864681 C7.02250213,65.6864681 6.33661277,66.3721532 6.33661277,67.218383 C6.33661277,68.0646128 7.02250213,68.7502979 7.86852766,68.7502979 L65.202383,68.7502979 C66.0486128,68.7502979 66.7342979,68.0646128 66.7342979,67.218383 C66.7342979,66.3721532 66.0486128,65.6864681 65.202383,65.6864681 L53.1750128,65.6864681 L53.1750128,53.166434 C53.1750128,52.3202043 52.4893277,51.6345191 51.6430979,51.6345191 L27.3986043,51.6345191 C26.5525787,51.6345191 25.8666894,52.3202043 25.8666894,53.166434 L25.8666894,65.6864681 L20.7603064,65.6864681 L20.7603064,8.21862128 C20.7603064,8.21453617 20.7603064,3.06382979 20.7603064,3.06382979 L75.2398979,3.06382979 L75.2398979,17.022434 C75.2398979,17.8686638 75.925583,18.5543489 76.7718128,18.5543489 C77.6180426,18.5543489 78.3037277,17.8686638 78.3037277,17.022434 L78.3037277,9.74869787 L92.3560851,9.74869787 C92.6706383,9.74869787 92.9363745,10.014434 92.9363745,10.3289872 L92.9363745,77.5706553 C92.9363745,77.8852085 92.6706383,78.1509447 92.3560851,78.1509447 L88.3404255,78.1509447 C87.4941957,78.1509447 86.8085106,78.8366298 86.8085106,79.6828596 C86.8085106,80.5290894 87.4941957,81.2147745 88.3404255,81.2147745 L92.3558809,81.2147745 C94.3653447,81.2147745 96,79.5801191 96,77.5706553 L96,10.328783 C96,8.31931915 94.3653447,6.68486809 92.3558809,6.68486809 Z M55.8338043,92.9361702 L40.1664,92.9361702 L40.1664,81.2145702 L55.8338043,81.2145702 L55.8338043,92.9361702 Z M28.9305191,54.6985532 L50.111183,54.6985532 L50.111183,65.6866723 L28.9305191,65.6866723 L28.9305191,54.6985532 Z" id="Shape"></path>
                <path d="M83.9803166,36.7781756 C83.9770361,36.7562294 83.9745757,36.7340799 83.9702699,36.7123368 C83.9639138,36.6804334 83.9555074,36.6493429 83.947101,36.6180491 C83.9427952,36.602199 83.9395147,36.5861457 83.9347988,36.5702956 C83.9249572,36.5377826 83.9132702,36.5062857 83.9013781,36.4747887 C83.8968674,36.4630027 83.8935868,36.4508104 83.888871,36.4392276 L83.8812847,36.4203294 C83.8798494,36.4170781 83.8786192,36.4138268 83.877389,36.4105755 L78.4269416,22.9560855 C78.1927916,22.3785733 77.628125,22 76.9998975,22 C76.37167,22 75.8070034,22.3785733 75.5728534,22.9560855 L70.1215858,36.4117948 C70.1191254,36.4176877 70.1105139,36.4390244 70.1105139,36.4390244 C70.105388,36.4518264 70.1016974,36.465238 70.0967766,36.4782432 C70.0854996,36.5085209 70.0740177,36.5387987 70.0647911,36.5698892 C70.0598702,36.5861457 70.0563846,36.6028086 70.0520789,36.6192683 C70.0438775,36.6501557 70.0354711,36.6806366 70.02932,36.7123368 C70.0250143,36.7342831 70.0225539,36.7564326 70.0190683,36.7785821 C70.0149676,36.8049989 70.0102518,36.8308061 70.0075863,36.8576293 C70.0026655,36.9072116 70,36.9569972 70,37.0069859 L70,89.0623349 C70,92.8876928 73.1401122,96 77.0001025,96 C80.8596828,96 84,92.887896 84,89.0623349 L84,37.0069859 C84,36.9569972 83.9973345,36.9072116 83.9924137,36.8576293 C83.9893382,36.8306029 83.9844173,36.8045925 83.9803166,36.7781756 Z M73.0753211,38.5308297 L80.9240638,38.5308297 L80.9240638,82.0547668 L73.0753211,82.0547668 L73.0753211,38.5308297 Z M76.9996924,27.6143859 L80.1873728,35.4829389 L73.8120121,35.4829389 L76.9996924,27.6143859 Z M76.9996924,92.9517028 C74.8357523,92.9517028 73.0751161,91.2067706 73.0751161,89.0621317 L73.0751161,85.1028608 L80.9240638,85.1028608 L80.9240638,89.0621317 C80.9240638,91.2067706 79.1636326,92.9517028 76.9996924,92.9517028 Z" id="Shape"></path>
                <path d="M26.522681,22 L67.477319,22 C68.318448,22 69,21.306763 69,20.4512132 L69,9.54878678 C69,8.69323696 68.318448,8 67.477319,8 L26.522681,8 C25.6817551,8 25,8.69323696 25,9.54878678 L25,20.4512132 C25,21.306763 25.6817551,22 26.522681,22 Z M28.0453621,11.0975736 L65.9546379,11.0975736 L65.9546379,18.9024264 L28.0453621,18.9024264 L28.0453621,11.0975736 Z" id="Shape"></path>
                <path d="M67.4771159,25 L26.522681,25 C25.6817551,25 25,25.6714 25,26.5 C25,27.3286 25.6817551,28 26.522681,28 L67.477319,28 C68.318448,28 69,27.3286 69,26.5 C69,25.6714 68.3182449,25 67.4771159,25 Z" id="Shape"></path>
                <path d="M50.4853811,33 L26.5146189,33 C25.6781454,33 25,33.6714 25,34.5 C25,35.3286 25.6781454,36 26.5146189,36 L50.4853811,36 C51.3220566,36 52,35.3286 52,34.5 C52,33.6714 51.3220566,33 50.4853811,33 Z" id="Shape"></path>
                <path d="M64.5802983,33 L57.4197017,33 C56.6354585,33 56,33.6714 56,34.5 C56,35.3286 56.6354585,36 57.4197017,36 L64.5802983,36 C65.3645415,36 66,35.3286 66,34.5 C66,33.6714 65.3645415,33 64.5802983,33 Z" id="Shape"></path>
                <path d="M50.4853811,40 L26.5146189,40 C25.6781454,40 25,40.6714 25,41.5 C25,42.3286 25.6781454,43 26.5146189,43 L50.4853811,43 C51.3220566,43 52,42.3286 52,41.5 C52,40.6714 51.3220566,40 50.4853811,40 Z" id="Shape"></path>
                <path d="M64.5404017,40 L57.4595983,40 C56.6533162,40 56,40.6714 56,41.5 C56,42.3286 56.6533162,43 57.4595983,43 L64.5404017,43 C65.3466838,43 66,42.3286 66,41.5 C66,40.6714 65.3464892,40 64.5404017,40 Z" id="Shape"></path>
                <path d="M50.4853811,45 L26.5146189,45 C25.6781454,45 25,45.6714 25,46.5 C25,47.3286 25.6781454,48 26.5146189,48 L50.4853811,48 C51.3220566,48 52,47.3286 52,46.5 C52,45.6714 51.3220566,45 50.4853811,45 Z" id="Shape"></path>
                <path d="M64.5404017,45 L57.4595983,45 C56.6533162,45 56,45.6714 56,46.5 C56,47.3286 56.6533162,48 57.4595983,48 L64.5404017,48 C65.3466838,48 66,47.3286 66,46.5 C66,45.6714 65.3464892,45 64.5404017,45 Z" id="Shape"></path>
            </g>
        </g>
    </g>
</svg>