<?xml version="1.0" encoding="UTF-8"?>
<svg width="72px" height="96px" viewBox="0 0 72 96" version="1.1" xmlns="http://www.w3.org/2000/svg" xmlns:xlink="http://www.w3.org/1999/xlink">
    <!-- Generator: Sketch 51.1 (57501) - http://www.bohemiancoding.com/sketch -->
    <title>icon 3</title>
    <desc>Created with Sketch.</desc>
    <defs>
        <linearGradient x1="-73.0180577%" y1="50%" x2="213.394627%" y2="50%" id="linearGradient-1">
            <stop stop-color="#E93E3A" offset="0%"></stop>
            <stop stop-color="#ED683C" offset="35.6%"></stop>
            <stop stop-color="#F3903F" offset="71.3%"></stop>
            <stop stop-color="#FDC70C" offset="100%"></stop>
        </linearGradient>
        <linearGradient x1="-0.784090909%" y1="50%" x2="117.452273%" y2="50%" id="linearGradient-2">
            <stop stop-color="#E93E3A" offset="0%"></stop>
            <stop stop-color="#ED683C" offset="35.6%"></stop>
            <stop stop-color="#F3903F" offset="71.3%"></stop>
            <stop stop-color="#FDC70C" offset="100%"></stop>
        </linearGradient>
        <linearGradient x1="-19.828125%" y1="50%" x2="142.746875%" y2="50%" id="linearGradient-3">
            <stop stop-color="#E93E3A" offset="0%"></stop>
            <stop stop-color="#ED683C" offset="35.6%"></stop>
            <stop stop-color="#F3903F" offset="71.3%"></stop>
            <stop stop-color="#FDC70C" offset="100%"></stop>
        </linearGradient>
        <linearGradient x1="-1317.25%" y1="50%" x2="1283.95%" y2="50%" id="linearGradient-4">
            <stop stop-color="#E93E3A" offset="0%"></stop>
            <stop stop-color="#ED683C" offset="35.6%"></stop>
            <stop stop-color="#F3903F" offset="71.3%"></stop>
            <stop stop-color="#FDC70C" offset="100%"></stop>
        </linearGradient>
    </defs>
    <g id="Page-1" stroke="none" stroke-width="1" fill="none" fill-rule="evenodd">
        <g id="OZessay_mobile_return" transform="translate(-150.000000, -3115.000000)" fill-rule="nonzero">
            <g id="icon-3" transform="translate(150.000000, 3115.000000)">
                <path d="M40.7806651,30.5457442 L37,21 L33.2193349,30.5457442 L21,30.5457442 L30.893856,36.4441161 L27.1114292,45.9942059 L37,40.1059737 L46.8885708,46 L43.106144,36.4499102 L53,30.5457442 L40.7806651,30.5457442 Z M40.1834398,38.4184483 L37,36.5208877 L33.8165602,38.4184483 L35.0374367,35.3388956 L31.8592821,33.4427835 L35.7773618,33.4427835 L37,30.3559882 L38.2226382,33.4427835 L42.1407179,33.4427835 L38.9696102,35.3388956 L40.1834398,38.4184483 Z" id="Shape" fill="url(#linearGradient-1)"></path>
                <g id="Group">
                    <path d="M69.3076487,40.3438017 C70.7688612,38.8617521 71.6834448,36.9504793 71.9086232,34.9090909 C71.6834448,32.8677025 70.7688612,30.9564298 69.3076487,29.4743802 C68.556034,28.6540165 67.9580057,27.7120661 67.5404873,26.6911736 C67.3628329,25.5568264 67.392204,24.4008595 67.6269688,23.2764298 C68.112,21.3322314 67.9278187,19.2872727 67.1031841,17.4545455 C65.8700057,15.8227438 64.1179377,14.6318678 62.118255,14.0667769 C61.0180623,13.7123306 59.9910935,13.171438 59.0848725,12.4688926 C58.3636487,11.5878347 57.8084533,10.5897521 57.4449858,9.52066116 C56.8630708,7.57646281 55.638051,5.87305785 53.9596147,4.67464463 C52.0729292,3.87014876 49.9665722,3.69064463 47.9646459,4.16370248 C46.8081586,4.39120661 45.6196487,4.4197686 44.4531671,4.24780165 C43.403966,3.84138843 42.4359433,3.25983471 41.5927479,2.52932231 C40.0705496,1.10975207 38.1075807,0.220165289 36.0106062,0 C33.9113881,0.218975207 31.9459717,1.10836364 30.4219377,2.52932231 C29.5783343,3.2602314 28.6096997,3.84178512 27.5598867,4.24780165 C26.3934051,4.4197686 25.2048952,4.39120661 24.0484079,4.16370248 C22.0493371,3.69143802 19.9460397,3.87034711 18.0615977,4.67305785 C16.3835694,5.87226446 15.1589575,7.57606612 14.5778584,9.52066116 C14.2133711,10.5905455 13.6571558,11.5892231 12.9347082,12.4704793 C12.0286912,13.1718347 11.0023343,13.7115372 9.90295751,14.0651901 C7.90368272,14.6310744 6.15202266,15.8223471 4.91966006,17.4545455 C4.09237394,19.2894545 3.9077847,21.3375868 4.39424363,23.2843636 C4.6290085,24.4087934 4.6583796,25.5647603 4.48072521,26.6991074 C4.06279887,27.719405 3.46477054,28.6607603 2.71356374,29.4807273 C1.25377904,30.9609917 0.338991501,32.8698843 0.112589235,34.9090909 C0.337767705,36.9504793 1.25235127,38.8617521 2.71356374,40.3438017 C3.46517847,41.1641653 4.0632068,42.1061157 4.48072521,43.1270083 C4.6583796,44.2613554 4.6290085,45.4173223 4.39424363,46.5417521 C3.90921246,48.4859504 4.09339377,50.5309091 4.91802833,52.3636364 C6.1512068,53.995438 7.90327479,55.186314 9.90295751,55.751405 C11.0031501,56.1058512 12.030119,56.6467438 12.9363399,57.3492893 C13.6575637,58.2303471 14.2125552,59.2284298 14.5762266,60.2975207 L14.7981416,60.8132231 L14.7981416,95.822281 L36.0106062,88.9451901 L57.2230708,95.822281 L57.2230708,60.8116364 C57.2964986,60.6402645 57.3715581,60.4688926 57.4433541,60.3006942 C57.8078414,59.2308099 58.3640567,58.2321322 59.0865042,57.350876 C59.9923173,56.6485289 61.0186742,56.107438 62.118255,55.7529917 C64.1175297,55.1871074 65.8691898,53.9958347 67.1015524,52.3636364 C67.9288385,50.5287273 68.1134278,48.480595 67.6269688,46.5338182 C67.392204,45.4093884 67.3628329,44.2534215 67.5404873,43.1190744 C67.9590255,42.101157 68.5570538,41.1619835 69.3076487,40.3438017 Z M37.6423343,86.1302479 L37.6423343,74.5785124 L34.3788782,74.5785124 L34.3788782,86.1302479 L18.0615977,91.4173884 L18.0615977,76.1652893 L29.4836941,76.1652893 L29.4836941,72.9917355 L18.0615977,72.9917355 L18.0615977,65.1467107 C19.9472635,65.9472397 22.0503569,66.1255537 24.0500397,65.6544793 C25.2065269,65.4277686 26.3948329,65.3992066 27.5615184,65.5703802 C28.6107195,65.9767934 29.5787422,66.5583471 30.4219377,67.2888595 C31.9459717,68.7098182 33.9113881,69.5992066 36.0106062,69.8181818 C38.1098244,69.5992066 40.0752408,68.7098182 41.5992748,67.2888595 C42.4428782,66.5579504 43.4115127,65.9763967 44.4613258,65.5703802 C45.6280113,65.399405 46.8163173,65.4277686 47.9728045,65.6544793 C49.9718754,66.1259504 52.0747649,65.9476364 53.9596147,65.1467107 L53.9596147,79.338843 L49.0644306,79.338843 L49.0644306,82.5123967 L53.9596147,82.5123967 L53.9596147,91.4173884 L37.6423343,86.1302479 Z M66.7180963,38.4095207 C65.688272,39.5480331 64.8972918,40.871405 64.3896204,42.3050579 C64.0795921,43.8380826 64.0795921,45.4149421 64.3896204,46.9479669 C64.7237167,48.2090579 64.6847592,49.5363967 64.2770312,50.7768595 C63.3650992,51.7594711 62.1827082,52.4675702 60.869983,52.8174545 C59.3661416,53.3129256 57.9765212,54.0898512 56.7792408,55.104 C55.7363626,56.2682975 54.9374278,57.6196364 54.4279207,59.0820496 C54.0683286,60.36 53.3395581,61.5110083 52.3278867,62.3984132 C51.0514674,62.793719 49.6865269,62.8316033 48.3888952,62.5079008 C46.8132578,62.2048264 45.191728,62.2048264 43.6160907,62.5079008 C42.1412125,63.0011901 40.7797394,63.7703802 39.6085666,64.7722314 C38.6213711,65.722314 37.3712635,66.3728926 36.0106062,66.6446281 C34.6491331,66.3726942 33.3986176,65.721719 32.4110142,64.7706446 C31.2402493,63.7691901 29.8793881,63 28.4051218,62.506314 C27.7544703,62.3434711 27.0846459,62.2649256 26.4127819,62.2730579 C25.4839207,62.2930909 24.5573031,62.371438 23.6388442,62.5079008 C22.3393768,62.8345785 20.9711728,62.7960992 19.6933258,62.3968264 C18.6828782,61.5100165 17.9547195,60.3601983 17.5949235,59.0836364 C17.0854164,57.6212231 16.2864816,56.2698843 15.2436034,55.1055868 C14.0463229,54.091438 12.6567025,53.3145124 11.1528612,52.8190413 C9.83870822,52.4693554 8.65509348,51.7606612 7.74254958,50.7768595 C7.3344136,49.5358017 7.29525212,48.2080661 7.62996034,46.9463802 C7.93998867,45.4139504 7.93998867,43.8374876 7.62996034,42.3050579 C7.12269688,40.8708099 6.33171671,39.546843 5.30148442,38.4079339 C4.32448725,37.4479339 3.65547875,36.2322645 3.37604533,34.9090909 C3.65568272,33.585124 4.32509915,32.3690579 5.30311615,31.4086612 C6.33294051,30.2701488 7.12392068,28.9467769 7.63159207,27.513124 C7.9416204,25.9800992 7.9416204,24.4032397 7.63159207,22.8702149 C7.29749575,21.609124 7.33645326,20.2817851 7.7441813,19.0413223 C8.65611331,18.0587107 9.83850425,17.3506116 11.1512295,17.0007273 C12.6550708,16.5052562 14.0446912,15.7283306 15.2419717,14.7141818 C16.2848499,13.5498843 17.0837847,12.1985455 17.5932918,10.7361322 C17.9528839,9.45818182 18.6816544,8.30717355 19.6933258,7.4197686 C20.9695411,7.02366942 22.3348895,6.98578512 23.6323173,7.31028099 C25.2079547,7.61414876 26.8294844,7.61414876 28.4051218,7.31028099 C29.88,6.81699174 31.2414731,6.04780165 32.4126459,5.04595041 C33.3998414,4.09586777 34.649949,3.44528926 36.0106062,3.17355372 C37.3720793,3.4454876 38.6225949,4.09646281 39.6101983,5.04753719 C40.7809632,6.04899174 42.1418244,6.81818182 43.6160907,7.31186777 C45.192136,7.61573554 46.8144816,7.61573554 48.3905269,7.31186777 C49.6875467,6.98796694 51.0520793,7.02585124 52.3278867,7.42135537 C53.3383343,8.30816529 54.0664929,9.45798347 54.426289,10.7345455 C54.935796,12.1969587 55.7347309,13.5482975 56.7776091,14.712595 C57.9748895,15.7267438 59.3645099,16.5036694 60.8683513,16.9991405 C62.1825042,17.3488264 63.366119,18.0575207 64.2786629,19.0413223 C64.6867989,20.2823802 64.7259603,21.6101157 64.3912521,22.8718017 C64.0812238,24.4042314 64.0812238,25.9806942 64.3912521,27.513124 C64.8985156,28.9473719 65.6894958,30.2713388 66.719728,31.4102479 C67.6967252,32.3702479 68.3657337,33.5859174 68.6451671,34.9090909 C68.3655297,36.2330579 67.6961133,37.449124 66.7180963,38.4095207 Z" id="Shape" fill="url(#linearGradient-2)"></path>
                    <path d="M36.0106062,9.52066116 C21.5918414,9.52066116 9.90295751,20.8875372 9.90295751,34.9090909 C9.90295751,48.9306446 21.5918414,60.2975207 36.0106062,60.2975207 C50.4293711,60.2975207 62.118255,48.9306446 62.118255,34.9090909 C62.1011218,20.894281 50.4224363,9.53732231 36.0106062,9.52066116 Z M44.4743796,55.5371901 C32.7557167,60.0829091 19.4665156,54.5297851 14.7922266,43.1339504 C10.1179377,31.7381157 15.82817,18.8150083 27.5468329,14.2694876 C39.2654958,9.72396694 52.5546969,15.2768926 57.2289858,26.6727273 C58.3036827,29.2928926 58.8554108,32.0881983 58.8547989,34.9090909 C58.8378697,43.9941818 53.1466062,52.1581488 44.4743796,55.5371901 Z" id="Shape" fill="url(#linearGradient-3)"></path>
                    <polygon id="Shape" fill="url(#linearGradient-4)" points="42.5375184 79.338843 45.8009745 79.338843 45.8009745 82.5123967 42.5375184 82.5123967"></polygon>
                </g>
            </g>
        </g>
    </g>
</svg>