<?xml version="1.0" encoding="UTF-8"?>
<svg width="74px" height="75px" viewBox="0 0 74 75" version="1.1" xmlns="http://www.w3.org/2000/svg" xmlns:xlink="http://www.w3.org/1999/xlink">
    <!-- Generator: Sketch 51.1 (57501) - http://www.bohemiancoding.com/sketch -->
    <title>Group 12</title>
    <desc>Created with Sketch.</desc>
    <defs>
        <linearGradient x1="50%" y1="0%" x2="50%" y2="100%" id="linearGradient-1">
            <stop stop-color="#FF8300" offset="0%"></stop>
            <stop stop-color="#E0481B" offset="100%"></stop>
        </linearGradient>
    </defs>
    <g id="Page-1" stroke="none" stroke-width="1" fill="none" fill-rule="evenodd">
        <g id="OZessay_return" transform="translate(-992.000000, -3092.000000)" fill-rule="nonzero">
            <g id="6" transform="translate(324.000000, 2710.000000)">
                <g id="text" transform="translate(656.000000, 36.000000)">
                    <g id="follow" transform="translate(0.000000, 287.000000)">
                        <g id="Group-12" transform="translate(0.000000, 52.000000)">
                            <g id="Group-13">
                                <path d="M80.5978805,51.508964 C83.5403433,35.7751797 48.9904039,7.35778799 30.428089,11.3581885 C11.8657741,15.358589 1.97403314,67.3512647 18.8012507,77.4232395 C37.5174075,88.6258439 77.6554177,67.2427482 80.5978805,51.508964 Z" id="Oval-2-Copy-7" fill="#E0481B" opacity="0.349386161" transform="translate(45.474193, 45.759872) rotate(-112.000000) translate(-45.474193, -45.759872) "></path>
                                <path d="M85.7269213,50.5465237 C88.8032926,34.0967108 52.6810204,4.38607221 33.2739532,8.56852689 C13.8668861,12.7509816 3.52498195,67.1097915 21.1179892,77.6401318 C40.6858995,89.3525554 82.65055,66.9963366 85.7269213,50.5465237 Z" id="Oval-2-Copy-10" fill="url(#linearGradient-1)" transform="translate(49.004790, 44.535796) rotate(-91.000000) translate(-49.004790, -44.535796) "></path>
                                <g id="facebook" transform="translate(34.000000, 34.000000)" fill="#FFFFFF">
                                    <path d="M26.484375,0 L3.515625,0 C1.57710937,0 0,1.57710937 0,3.515625 L0,26.484375 C0,28.4228906 1.57710937,30 3.515625,30 L26.484375,30 C28.4228906,30 30,28.4228906 30,26.484375 L30,3.515625 C30,1.57710937 28.4228906,0 26.484375,0 Z M27.65625,26.484375 C27.65625,27.1305469 27.1305469,27.65625 26.484375,27.65625 L19.8046875,27.65625 L19.8046875,18.1054687 L23.4251953,18.1054687 L24.0234375,14.4726562 L19.8046875,14.4726562 L19.8046875,11.953125 C19.8046875,10.9584961 20.5678711,10.1953125 21.5625,10.1953125 L23.9648437,10.1953125 L23.9648437,6.5625 L21.5625,6.5625 C18.5787305,6.5625 16.1731641,8.97949219 16.1731641,11.9633203 L16.1731641,14.4726562 L12.65625,14.4726562 L12.65625,18.1054687 L16.1731641,18.1054687 L16.1731641,27.65625 L3.515625,27.65625 C2.86945312,27.65625 2.34375,27.1305469 2.34375,26.484375 L2.34375,3.515625 C2.34375,2.86945312 2.86945312,2.34375 3.515625,2.34375 L26.484375,2.34375 C27.1305469,2.34375 27.65625,2.86945312 27.65625,3.515625 L27.65625,26.484375 Z" id="Shape"></path>
                                </g>
                            </g>
                        </g>
                    </g>
                </g>
            </g>
        </g>
    </g>
</svg>