<?xml version="1.0" encoding="UTF-8"?>
<svg width="83px" height="83px" viewBox="0 0 83 83" version="1.1" xmlns="http://www.w3.org/2000/svg" xmlns:xlink="http://www.w3.org/1999/xlink">
    <!-- Generator: Sketch 51.1 (57501) - http://www.bohemiancoding.com/sketch -->
    <title>009-time</title>
    <desc>Created with Sketch.</desc>
    <defs>
        <linearGradient x1="-1.88040761%" y1="50%" x2="130.586984%" y2="50%" id="linearGradient-1">
            <stop stop-color="#F26C3A" offset="0%"></stop>
            <stop stop-color="#FFAE50" offset="100%"></stop>
        </linearGradient>
        <linearGradient x1="31.9047137%" y1="68.2419019%" x2="100%" y2="0%" id="linearGradient-2">
            <stop stop-color="#E0481B" offset="0%"></stop>
            <stop stop-color="#F7BC40" offset="100%"></stop>
        </linearGradient>
    </defs>
    <g id="Page-1" stroke="none" stroke-width="1" fill="none" fill-rule="evenodd">
        <g id="OZessay_newbie" transform="translate(-380.000000, -2321.000000)" fill="url(#linearGradient-2)">
            <g id="5" transform="translate(380.000000, 2197.000000)">
                <g id="009-time" transform="translate(0.000000, 124.000000)">
                    <path d="M41.5,83 C18.5802417,83 0,64.4197583 0,41.5 C0,18.5802417 18.5802417,0 41.5,0 C64.4197583,0 83,18.5802417 83,41.5 C82.9740625,64.4090375 64.4090375,82.9740625 41.5,83 Z M41.5,2.76666667 C20.1081333,2.76666667 2.76666667,20.1081333 2.76666667,41.5 C2.76666667,62.8918667 20.1081333,80.2333333 41.5,80.2333333 C62.8918667,80.2333333 80.2333333,62.8918667 80.2333333,41.5 C80.2089521,20.1183354 62.8816646,2.79104792 41.5,2.76666667 Z" id="Shape"></path>
                    <path d="M42,79 C21.5653796,79 5,62.4346204 5,42 C5,21.5653796 21.5653796,5 42,5 C62.4346204,5 79,21.5653796 79,42 C78.9773889,62.4251991 62.4251991,78.9773889 42,79 Z M42,7.74074074 C23.079125,7.74074074 7.74074074,23.079125 7.74074074,42 C7.74074074,60.920875 23.079125,76.2592593 42,76.2592593 C60.920875,76.2592593 76.2592593,60.920875 76.2592593,42 C76.2381898,23.0878611 60.9121389,7.76181019 42,7.74074074 Z" id="Shape"></path>
                    <path d="M42,16 C41.44775,16 41,15.477625 41,14.8333333 L41,10.1666667 C41,9.522375 41.44775,9 42,9 C42.55225,9 43,9.522375 43,10.1666667 L43,14.8333333 C43,15.477625 42.55225,16 42,16 Z" id="Shape"></path>
                    <path d="M26.9993526,18.999999 C26.2832488,19.0006545 25.6212094,18.6674456 25.2632826,18.1260085 L24.2620889,16.612257 C23.7154371,15.7730076 24.0515879,14.7058652 25.0129842,14.2286664 C25.9653697,13.756056 27.1760633,14.039229 27.730224,14.864276 L28.7314178,16.3780275 C29.284327,17.2139994 28.9561858,18.2831083 27.9985439,18.7657696 C27.6946816,18.9189364 27.350271,18.9997805 26.9993526,18.999999 Z" id="Shape"></path>
                    <path d="M18.251871,27.9999955 C17.9448961,28.0007464 17.6433833,27.9081286 17.377921,27.7316541 L15.8642396,26.7303804 C15.0313652,26.171169 14.7521382,24.944108 15.2402392,23.9901445 C15.7239706,23.044942 16.7807946,22.7205294 17.6121396,23.2619681 L19.125821,24.2632419 C19.9617542,24.8161953 20.2481913,26.0410034 19.7655524,26.9987217 C19.4533338,27.6182599 18.8763083,27.9999955 18.251871,27.9999955 Z" id="Shape"></path>
                    <path d="M16.8333333,41 L12.1666667,41 C11.522375,41 11,40.55225 11,40 C11,39.44775 11.522375,39 12.1666667,39 L16.8333333,39 C17.477625,39 18,39.44775 18,40 C18,40.55225 17.477625,41 16.8333333,41 Z" id="Shape"></path>
                    <path d="M16.7409246,58.9999955 C15.779499,58.9999955 15,58.1057615 15,57.002823 C15,56.2893331 15.3318637,55.6300166 15.8704623,55.2732716 L17.378103,54.2746854 C18.2074359,53.7167253 19.2741874,54.0357736 19.7605582,54.9871767 C20.246929,55.9385797 19.9688163,57.1623472 19.1394834,57.7203072 C19.1327373,57.7248009 19.1259912,57.7292945 19.1192451,57.7337881 L17.6116045,58.7323744 C17.3469839,58.9083752 17.0466744,59.0007444 16.7409246,58.9999955 Z" id="Shape"></path>
                    <path d="M26.0005473,69.999999 C24.8946396,69.9989065 23.9989996,69.2155931 24.0000008,68.2502713 C24.0002512,67.9441564 24.092869,67.6432853 24.2683424,67.3780294 L25.2696169,65.864279 C25.8288287,65.0313666 27.0558906,64.7521269 28.0098548,65.2402502 C28.9550579,65.7240036 29.2794709,66.7808758 28.7380317,67.6122587 L27.7367572,69.1260092 C27.3788016,69.6674459 26.7167088,70.0006545 26.0005473,69.999999 Z" id="Shape"></path>
                    <path d="M42,74 C41.44775,74 41,73.328375 41,72.5 L41,66.5 C41,65.671625 41.44775,65 42,65 C42.55225,65 43,65.671625 43,66.5 L43,72.5 C43,73.328375 42.55225,74 42,74 Z" id="Shape"></path>
                    <path d="M57.0046657,69.999999 C56.2904636,70.0006519 55.6301824,69.6687882 55.2732062,69.1295369 L54.2746713,67.6218965 C53.7167399,66.7925638 54.0357718,65.7258124 54.9871259,65.2394417 C55.93848,64.753071 57.1621845,65.0311837 57.7201159,65.8605165 C57.7246093,65.8672625 57.7291027,65.8740086 57.7335961,65.8807547 L58.732131,67.3883951 C59.2835719,68.2209921 58.9563021,69.2857849 58.0012035,69.7664976 C57.6981482,69.9192637 57.3544025,69.9997814 57.0046657,69.999999 Z" id="Shape"></path>
                    <path d="M66.2590586,58.9999955 C65.9533076,59.0007444 65.652997,58.9083746 65.3885931,58.7323726 L63.880947,57.7337798 C63.0450825,57.1887977 62.7526061,55.9695159 63.2276626,55.0106171 C63.7027192,54.0517184 64.7655575,53.7161912 65.601422,54.2611732 C65.6081681,54.2656669 65.6149142,54.2701605 65.6216603,54.2746542 L67.1293065,55.273247 C67.9619067,55.8247199 68.2472017,57.0462486 67.7664872,58.0014027 C67.455731,58.619282 66.8810062,58.9999955 66.2590586,58.9999955 Z" id="Shape"></path>
                    <path d="M68.8333333,41 L64.1666667,41 C63.522375,41 63,40.55225 63,40 C63,39.44775 63.522375,39 64.1666667,39 L68.8333333,39 C69.477625,39 70,39.44775 70,40 C70,40.55225 69.477625,41 68.8333333,41 Z" id="Shape"></path>
                    <path d="M64.7479813,27.9999955 C63.7826586,27.9999955 63,27.1033802 63,25.9975047 C63,25.2821149 63.3332089,24.6210427 63.8739907,24.2633478 L65.3877425,23.2621024 C66.226992,22.7154224 67.2941347,23.0515905 67.7713336,24.0130364 C68.243944,24.9654711 67.960771,26.176227 67.1357238,26.7304163 L65.621972,27.7316617 C65.3564973,27.9081312 65.0549706,28.0007464 64.7479813,27.9999955 Z" id="Shape"></path>
                    <path d="M56.0005437,18.999999 C54.894638,18.9989065 53.9989996,18.21555 54.0000008,17.2501751 C54.0002512,16.9438248 54.0928689,16.6431557 54.2683419,16.3778852 L55.2696146,14.8640514 C55.8290758,14.0313118 57.0558852,13.7520567 58.0100981,14.2404254 C58.9550492,14.7242054 59.2794615,15.7809173 58.7380233,16.6121273 L57.7367506,18.1259611 C57.3787956,18.6674276 56.716704,19.0006546 56.0005437,18.999999 Z" id="Shape"></path>
                    <path d="M44.426836,37.243912 L44.426836,22.3332167 C44.426836,21.5969478 43.8512221,21 43.1412663,21 C42.4313105,21 41.8556966,21.5969478 41.8556966,22.3332167 L41.8556966,37.243912 C40.7669798,37.6472101 39.909987,38.5359657 39.5211021,39.6650335 L30.2855697,39.6650335 C29.5756138,39.6650335 29,40.2619813 29,40.9982502 C29,41.7345191 29.5756138,42.3314669 30.2855697,42.3314669 L39.5211021,42.3314669 C40.2255943,44.4106183 42.4219901,45.503856 44.426836,44.7732532 C46.4316819,44.0426505 47.485849,41.7648498 46.7813568,39.6856984 C46.3942396,38.543465 45.5282478,37.6452103 44.426836,37.243912 Z M43.1412663,42.3314669 C42.4313105,42.3314669 41.8556966,41.7345191 41.8556966,40.9982502 C41.8556966,40.2619813 42.4313105,39.6650335 43.1412663,39.6650335 C43.8512221,39.6650335 44.426836,40.2619813 44.426836,40.9982502 C44.426836,41.7345191 43.8512221,42.3314669 43.1412663,42.3314669 Z" id="Shape"></path>
                </g>
            </g>
        </g>
    </g>
</svg>