<?xml version="1.0" encoding="UTF-8"?>
<svg width="71px" height="75px" viewBox="0 0 71 75" version="1.1" xmlns="http://www.w3.org/2000/svg" xmlns:xlink="http://www.w3.org/1999/xlink">
    <!-- Generator: Sketch 51.1 (57501) - http://www.bohemiancoding.com/sketch -->
    <title>icon</title>
    <desc>Created with Sketch.</desc>
    <defs>
        <linearGradient x1="31.9047137%" y1="68.2419019%" x2="100%" y2="0%" id="linearGradient-1">
            <stop stop-color="#E0481B" offset="0%"></stop>
            <stop stop-color="#F7BC40" offset="100%"></stop>
        </linearGradient>
    </defs>
    <g id="Page-1" stroke="none" stroke-width="1" fill="none" fill-rule="evenodd">
        <g id="OZessay_newbie" transform="translate(-821.000000, -2329.000000)" fill="url(#linearGradient-1)">
            <g id="5" transform="translate(380.000000, 2197.000000)">
                <g id="icon" transform="translate(441.000000, 132.000000)">
                    <g id="Group">
                        <path d="M56.5942029,72.5 L2.57246377,72.5 L2.57246377,2.5 L43.7318841,2.5 L43.7318841,15 L56.5942029,15 L56.5942029,18.75 L59.1666667,18.75 L59.1666667,13.2325 L45.5506159,0 L0,0 L0,75 L59.1666667,75 L59.1666667,53.75 L56.5942029,53.75 L56.5942029,72.5 Z M46.3043478,4.2675 L54.775471,12.5 L46.3043478,12.5 L46.3043478,4.2675 Z" id="Shape"></path>
                        <polygon id="Shape" points="7.13826872 7.03125 9.75493317 7.03125 9.75493317 9.48748941 7.13826872 9.48748941"></polygon>
                        <polygon id="Shape" points="12.3715976 7.03125 38.5382421 7.03125 38.5382421 9.48748941 12.3715976 9.48748941"></polygon>
                        <polygon id="Shape" points="7.13826872 11.9437288 38.5382421 11.9437288 38.5382421 14.3999682 7.13826872 14.3999682"></polygon>
                        <polygon id="Shape" points="7.13826872 16.8562077 51.6215644 16.8562077 51.6215644 19.3124471 7.13826872 19.3124471"></polygon>
                        <polygon id="Shape" points="7.13826872 21.7686865 51.6215644 21.7686865 51.6215644 24.2249259 7.13826872 24.2249259"></polygon>
                        <polygon id="Shape" points="7.13826872 26.6811653 51.6215644 26.6811653 51.6215644 29.1374047 7.13826872 29.1374047"></polygon>
                        <polygon id="Shape" points="7.13826872 31.5936441 51.6215644 31.5936441 51.6215644 34.0498835 7.13826872 34.0498835"></polygon>
                        <polygon id="Shape" points="7.13826872 36.506123 46.3882355 36.506123 46.3882355 38.9623624 7.13826872 38.9623624"></polygon>
                        <polygon id="Shape" points="7.13826872 41.4186018 46.3882355 41.4186018 46.3882355 43.8748412 7.13826872 43.8748412"></polygon>
                        <polygon id="Shape" points="7.13826872 46.3310806 43.771571 46.3310806 43.771571 48.78732 7.13826872 48.78732"></polygon>
                        <polygon id="Shape" points="7.13826872 51.2435594 41.1549066 51.2435594 41.1549066 53.6997988 7.13826872 53.6997988"></polygon>
                        <path d="M31.2115817,62.8861342 C32.0940517,62.8921213 32.9464302,62.5850914 33.5979796,62.0264505 C33.9250627,61.7808265 34.0231876,61.7071393 34.3489623,61.7071393 C34.6747371,61.7071393 34.772862,61.7808265 35.099945,62.0264505 C36.4584845,63.1718256 38.5181265,63.1718256 39.876666,62.0264505 C40.203749,61.7808265 40.3031823,61.7059112 40.6302653,61.7059112 C40.9573484,61.7059112 41.0567816,61.7795984 41.385173,62.0264505 C42.0381944,62.5844773 42.8910634,62.8913538 43.7741877,62.8861342 L43.7741877,60.4298948 C43.4471046,60.4298948 43.3476714,60.3562077 43.01928,60.1093556 C41.6599228,58.9650551 39.6006079,58.9650551 38.2412507,60.1093556 C37.9141676,60.3549795 37.8147344,60.4298948 37.4876513,60.4298948 C37.1605683,60.4298948 37.0637517,60.3562077 36.7353603,60.1105837 C35.3781292,58.964441 33.3184872,58.964441 31.961256,60.1105837 C31.634173,60.3562077 31.536048,60.4298948 31.2115817,60.4298948 C30.8871153,60.4298948 30.787682,60.3562077 30.460599,60.1105837 C29.8083953,59.5513287 28.9548721,59.2442988 28.0715843,59.2508999 L28.0715843,61.7071393 C28.3960507,61.7071393 28.4941756,61.7808265 28.8212587,62.0264505 C29.4744435,62.5850914 30.3279668,62.8921213 31.2115817,62.8861342 Z" id="Shape"></path>
                        <path d="M68.53045,16.6707616 L66.1440521,15.6612472 C64.1673256,14.8262793 61.843564,15.6535714 60.9540617,17.5091068 C60.9540617,17.5092091 55.164637,29.5789137 43.5857878,53.7182206 L45.4933362,61.7071393 L53.1300714,57.7525939 L70.4981817,21.5427125 C71.3840862,19.6871771 70.5040692,17.5086462 68.53045,16.6707616 Z M46.8121351,55.9705922 L49.1972247,56.9788785 L47.288368,57.9613742 L46.8121351,55.9705922 Z M51.4658728,55.2423172 L46.6878435,53.2331134 L60.6490567,24.1168514 L65.4218527,26.134652 L51.4658728,55.2423172 Z M66.4959934,23.8994742 L61.7231975,21.8816735 L63.3350628,18.5239942 C63.6323813,17.9064035 64.4064233,17.6316117 65.064678,17.9099344 L67.4510759,18.9169925 C68.1094941,19.1956222 68.4028876,19.922362 68.1065504,20.5405668 L66.4959934,23.8994742 Z" id="Shape"></path>
                    </g>
                </g>
            </g>
        </g>
    </g>
</svg>