<?xml version="1.0" encoding="UTF-8"?>
<svg width="69px" height="75px" viewBox="0 0 69 75" version="1.1" xmlns="http://www.w3.org/2000/svg" xmlns:xlink="http://www.w3.org/1999/xlink">
    <!-- Generator: Sketch 51.1 (57501) - http://www.bohemiancoding.com/sketch -->
    <title>icon</title>
    <desc>Created with Sketch.</desc>
    <defs>
        <linearGradient x1="-1.88040761%" y1="50%" x2="130.586984%" y2="50%" id="linearGradient-1">
            <stop stop-color="#F26C3A" offset="0%"></stop>
            <stop stop-color="#FFAE50" offset="100%"></stop>
        </linearGradient>
        <linearGradient x1="31.9047137%" y1="68.2419019%" x2="100%" y2="0%" id="linearGradient-2">
            <stop stop-color="#E0481B" offset="0%"></stop>
            <stop stop-color="#F7BC40" offset="100%"></stop>
        </linearGradient>
    </defs>
    <g id="Page-1" stroke="none" stroke-width="1" fill="none" fill-rule="evenodd">
        <g id="OZessay_newbie" transform="translate(-829.000000, -2327.000000)" fill="url(#linearGradient-2)">
            <g id="5" transform="translate(380.000000, 2197.000000)">
                <g id="icon" transform="translate(449.000000, 130.000000)">
                    <g id="Group">
                        <path d="M65.1909444,6.0483871 L56.2222222,6.0483871 L56.2222222,8.70037221 L65.1922222,8.70037221 C65.8838194,8.70037221 66.4444444,9.28215144 66.4444444,9.99984491 L66.4444444,55.1353055 C66.4438056,55.8533305 65.8828611,56.4354412 65.1909444,56.4361042 L3.80905556,56.4361042 C3.11697917,56.4354412 2.55619444,55.8533305 2.55555556,55.1353055 L2.55555556,10.0011709 C2.55619444,9.28298019 3.11697917,8.7010352 3.80905556,8.70037221 L10.2222222,8.70037221 L10.2222222,6.0483871 L3.80905556,6.0483871 C1.70647222,6.05137058 0.002875,7.81925016 0,10.0011709 L0,55.1353055 C0.002875,57.3172263 1.70647222,59.0851058 3.80905556,59.0880893 L24.2777778,59.0880893 L24.2777778,67.0440447 L23,67.0440447 C22.2943472,67.0440447 21.7222222,67.6377578 21.7222222,68.3700372 L21.7222222,72.3480149 L16.6111111,72.3480149 L16.6111111,75 L52.3888889,75 L52.3888889,72.3480149 L47.2777778,72.3480149 L47.2777778,68.3700372 C47.2777778,67.6377578 46.7056528,67.0440447 46,67.0440447 L44.7222222,67.0440447 L44.7222222,59.0880893 L65.1909444,59.0880893 C67.2935278,59.0851058 68.997125,57.3172263 69,55.1353055 L69,9.99984491 C68.997125,7.81825566 67.2932083,6.05054183 65.1909444,6.0483871 Z M24.2777778,72.3480149 L24.2777778,69.6960298 L44.7222222,69.6960298 L44.7222222,72.3480149 L24.2777778,72.3480149 Z M42.1666667,67.0440447 L26.8333333,67.0440447 L26.8333333,59.0880893 L42.1666667,59.0880893 L42.1666667,67.0440447 Z" id="Shape"></path>
                        <polygon id="Shape" points="6.05263158 45.5357143 64.8304094 45.5357143 64.8304094 48.2142857 6.05263158 48.2142857"></polygon>
                        <path d="M9.88596491,14.7321429 L9.88596491,12.0535714 L7.33040936,12.0535714 C6.62475658,12.0535714 6.05263158,12.6532366 6.05263158,13.3928571 L6.05263158,40.1785714 L8.60818713,40.1785714 L8.60818713,14.7321429 L9.88596491,14.7321429 Z" id="Shape"></path>
                        <path d="M64.8304094,40.1785714 L64.8304094,13.3928571 C64.8304094,12.6532366 64.2582844,12.0535714 63.5526316,12.0535714 L60.997076,12.0535714 L60.997076,14.7321429 L62.2748538,14.7321429 L62.2748538,40.1785714 L64.8304094,40.1785714 Z" id="Shape"></path>
                        <path d="M16.2748538,4.01785714 C16.2152774,3.36629464 16.6506802,2.77918527 17.2676871,2.67857143 L45.6637427,2.67857143 L45.6637427,9.375 C45.591708,11.5089844 47.1766316,13.3036272 49.2121316,13.3928571 L54.6081871,13.3928571 L54.6081871,40.1785714 L57.1637427,40.1785714 L57.1637427,12.0535714 C57.1637427,11.725279 57.0487427,11.4082031 56.8404649,11.1629464 L47.7541871,0.448660714 C47.5117288,0.163225446 47.164333,0 46.7996871,0 L17.2676871,0 C15.2321871,0.0892299107 13.6472635,1.88387277 13.7192982,4.01785714 L13.7192982,40.1785714 L16.2748538,40.1785714 L16.2748538,4.01785714 Z M48.2192982,9.375 L48.2192982,5.03035714 L53.0403538,10.7142857 L49.2070205,10.7142857 C48.5920899,10.6111607 48.1595621,10.024721 48.2192982,9.375 Z" id="Shape"></path>
                        <polygon id="Shape" points="21.3859649 8.03571429 23.9415205 8.03571429 23.9415205 10.7142857 21.3859649 10.7142857"></polygon>
                        <polygon id="Shape" points="26.497076 8.03571429 29.0526316 8.03571429 29.0526316 10.7142857 26.497076 10.7142857"></polygon>
                        <polygon id="Shape" points="31.6081871 8.03571429 41.8304094 8.03571429 41.8304094 10.7142857 31.6081871 10.7142857"></polygon>
                        <polygon id="Shape" points="21.3859649 14.7321429 49.497076 14.7321429 49.497076 17.4107143 21.3859649 17.4107143"></polygon>
                        <polygon id="Shape" points="21.3859649 22.7678571 49.497076 22.7678571 49.497076 25.4464286 21.3859649 25.4464286"></polygon>
                        <polygon id="Shape" points="21.3859649 30.8035714 49.497076 30.8035714 49.497076 33.4821429 21.3859649 33.4821429"></polygon>
                    </g>
                </g>
            </g>
        </g>
    </g>
</svg>