<?xml version="1.0" encoding="UTF-8"?>
<svg width="74px" height="74px" viewBox="0 0 74 74" version="1.1" xmlns="http://www.w3.org/2000/svg" xmlns:xlink="http://www.w3.org/1999/xlink">
    <!-- Generator: Sketch 51.1 (57501) - http://www.bohemiancoding.com/sketch -->
    <title>002-instagram</title>
    <desc>Created with Sketch.</desc>
    <defs>
        <linearGradient x1="50%" y1="0%" x2="50%" y2="100%" id="linearGradient-1">
            <stop stop-color="#FF8300" offset="0%"></stop>
            <stop stop-color="#E0481B" offset="100%"></stop>
        </linearGradient>
    </defs>
    <g id="Page-1" stroke="none" stroke-width="1" fill="none" fill-rule="evenodd">
        <g id="OZessay_return" transform="translate(-993.000000, -3204.000000)" fill-rule="nonzero">
            <g id="6" transform="translate(324.000000, 2710.000000)">
                <g id="text" transform="translate(656.000000, 36.000000)">
                    <g id="follow" transform="translate(0.000000, 287.000000)">
                        <g id="002-instagram" transform="translate(0.000000, 163.000000)">
                            <path d="M81.5551497,51.9731678 C84.4976125,36.2393835 49.9476731,7.82199182 31.3853582,11.8223923 C12.8230433,15.8227928 2.93130232,67.8154685 19.7585198,77.8874433 C38.4746767,89.0900477 78.6126868,67.7069521 81.5551497,51.9731678 Z" id="Oval-2-Copy-7" fill="#E0481B" opacity="0.349386161" transform="translate(46.431462, 46.224076) rotate(-112.000000) translate(-46.431462, -46.224076) "></path>
                            <path d="M86.6841905,51.0107275 C89.7605618,34.5609146 53.6382896,4.85027603 34.2312224,9.03273071 C14.8241552,13.2151854 4.48225113,67.5739954 22.0752584,78.1043356 C41.6431686,89.8167592 83.6078192,67.4605404 86.6841905,51.0107275 Z" id="Oval-2-Copy-10" fill="url(#linearGradient-1)" transform="translate(49.962059, 45.000000) rotate(-91.000000) translate(-49.962059, -45.000000) "></path>
                            <path d="M57.0628382,34 L44.9371618,34 C40.00919,34 36,38.00919 36,42.9371618 L36,55.0628382 C36,59.99081 40.00919,64 44.9371618,64 L57.0628382,64 C61.99081,64 66,59.99081 66,55.0628382 L66,42.9371618 C65.9999456,38.00919 61.9907556,34 57.0628382,34 Z M62.9820011,55.0628382 C62.9820011,58.3318743 60.3318743,60.9820011 57.0628382,60.9820011 L44.9371618,60.9820011 C41.6681257,60.9820011 39.0179989,58.3318743 39.0179989,55.0628382 L39.0179989,42.9371618 C39.0179989,39.6680713 41.6681257,37.0179989 44.9371618,37.0179989 L57.0628382,37.0179989 C60.3318743,37.0179989 62.9820011,39.6680713 62.9820011,42.9371618 L62.9820011,55.0628382 Z" id="Shape" fill="#FFFFFF"></path>
                            <path d="M51,41 C46.5887929,41 43,44.5888055 43,48.9999719 C43,53.4111384 46.5887929,57 51,57 C55.4112071,57 59,53.4111945 59,48.9999719 C59,44.5887494 55.4112071,41 51,41 Z M51,54 C48.238554,54 46,51.761446 46,49 C46,46.238554 48.2386114,44 51,44 C53.761446,44 56,46.238554 56,49 C56,51.7613886 53.7613886,54 51,54 Z" id="Shape" fill="#FFFFFF"></path>
                            <circle id="Oval" fill="#FFFFFF" cx="59" cy="41" r="2"></circle>
                        </g>
                    </g>
                </g>
            </g>
        </g>
    </g>
</svg>