<svg xmlns="http://www.w3.org/2000/svg" xmlns:xlink="http://www.w3.org/1999/xlink" width="212" height="53" viewBox="0 0 212 53"><defs><path id="7obua" d="M379 59.84v40.48h49.1V59.84H379z"/><path id="7obuf" d="M395.4 73.59a5.8 5.8 0 0 0-5.87 5.72 5.8 5.8 0 0 0 5.87 5.73 5.8 5.8 0 0 0 5.86-5.73 5.8 5.8 0 0 0-5.86-5.72zm2.22 3.28c-.13.2-.2.43-.2.68 0 .69.57 1.25 1.27 1.25.28 0 .54-.09.75-.24.08.24.12.5.12.75a2.55 2.55 0 0 1-2.58 2.52 2.55 2.55 0 0 1-2.58-2.52 2.55 2.55 0 0 1 3.22-2.44zm8.21 2.44a5.8 5.8 0 0 0 5.86 5.73 5.8 5.8 0 0 0 5.87-5.73 5.8 5.8 0 0 0-5.87-5.72 5.8 5.8 0 0 0-5.86 5.72zm4.91-2.44c-.12.2-.2.43-.2.68 0 .69.57 1.25 1.28 1.25.28 0 .54-.09.75-.24.08.24.12.5.12.75a2.55 2.55 0 0 1-2.58 2.52 2.55 2.55 0 0 1-2.58-2.52 2.55 2.55 0 0 1 3.21-2.44zm-7.19 20.5h-.03c-.4-.12-2.48-.8-3.36-2.71-1.48-3.25 8.26-3.25 6.78 0-.87 1.91-2.95 2.6-3.35 2.7zm13-12.33a7.7 7.7 0 0 1-4.86 1.71 7.54 7.54 0 0 1-7.62-7.44c0-4.1 3.41-7.44 7.62-7.44a7.7 7.7 0 0 1 5.07 1.88c-.27-.8-.61-1.54-1.04-2.23a28.24 28.24 0 0 1 4.8-5.28c4.9-4.03 5.6-2.06 5.6-2.06.51 2.99-2.2 9.34-7.17 12.85.22.66.34 1.35.36 2.07 7.72-5.09 10.03-13.89 8.21-18.7-.76-2.01-9.75 1.62-15.92 7.53-2.05-1-4.7-1.5-8.05-1.35-3.37-.16-6.02.34-8.07 1.31-6.17-5.89-15.14-9.5-15.9-7.5-1.8 4.82.5 13.6 8.2 18.7.02-.69.13-1.34.33-1.96-5-3.55-7.74-9.94-7.23-12.94 0 0 .7-1.99 5.65 2.06a28.42 28.42 0 0 1 4.83 5.32c-.42.68-.76 1.4-1.02 2.17a7.7 7.7 0 0 1 5.06-1.87 7.54 7.54 0 0 1 7.62 7.44 7.54 7.54 0 0 1-7.62 7.44 7.7 7.7 0 0 1-4.73-1.6c2.3 7.83 7.96 15.16 12.88 15.17 5.27-.17 10.85-7.5 13-15.28z"/><path id="7obub" d="M424 48.15h-39.23v37.8h39.22v-37.8z"/><path id="7obuh" d="M422.68 58.46v22.52l1.31 4.96h-3.83l1.32-4.96V58.93l-9.65 3.86v3.57a20.73 20.73 0 0 0-8.1-1.02c-3.25-.16-5.93.2-8.11.98v-3.53l-10.85-4.33 18.95-10.31 18.96 10.3z"/><path id="7obuc" d="M437.99 93.82h131.92V87.3H437.99v6.53z"/><path id="7obuj" d="M569.08 91.14a1.5 1.5 0 0 0-.5-.71c-.24-.19-.5-.28-.8-.28-.31 0-.58.1-.81.28-.24.18-.4.42-.5.7zm-2.69.7a1.57 1.57 0 0 0 .46.9c.13.12.27.2.42.28a1.5 1.5 0 0 0 1.79-.58l.63.37a2.25 2.25 0 0 1-1.91 1.01 2.06 2.06 0 0 1-1.45-.57 2.22 2.22 0 0 1 .11-3.32 2.12 2.12 0 0 1 2.67 0 2.25 2.25 0 0 1 .81 1.7v.1l-.01.1zm-4.64-1.57c-.2.08-.36.19-.5.32a1.44 1.44 0 0 0-.32 1.61 1.54 1.54 0 0 0 2.18.73c.22-.13.4-.3.53-.5l.64.4a2.28 2.28 0 0 1-1.93 1 2.32 2.32 0 0 1-2.12-1.35 2.03 2.03 0 0 1 0-1.7c.12-.27.29-.5.5-.69a2.4 2.4 0 0 1 2.73-.37c.34.18.6.42.82.73l-.63.39a1.5 1.5 0 0 0-1.3-.69c-.21 0-.41.04-.6.12zm-3.53-1.5c-.1.1-.21.15-.35.15a.5.5 0 0 1-.35-.14.45.45 0 0 1-.15-.34c0-.13.05-.24.15-.33a.5.5 0 0 1 .35-.13c.14 0 .25.04.35.13.1.1.14.2.14.33s-.05.24-.14.34zm-.73.83h.75v4.07h-.75zm-4.7.67a1.46 1.46 0 0 0-.82.79 1.4 1.4 0 0 0 0 1.15 1.49 1.49 0 0 0 1.42.9 1.58 1.58 0 0 0 1.09-.43 1.46 1.46 0 0 0 .45-1.04 1.5 1.5 0 0 0-1.54-1.48c-.22 0-.42.03-.6.1zm-.3 3.38a2.3 2.3 0 0 1-1.23-1.16 2.03 2.03 0 0 1 0-1.7 2.23 2.23 0 0 1 1.23-1.17 2.32 2.32 0 0 1 1.79 0 2.36 2.36 0 0 1 1.22 1.17 2.03 2.03 0 0 1 0 1.7 2.23 2.23 0 0 1-1.22 1.16c-.28.12-.58.17-.9.17-.31 0-.61-.05-.9-.17zm-3.12-2.67v2.69h-.75v-2.4l-.03-.34a1.04 1.04 0 0 0-.14-.37.91.91 0 0 0-.32-.3 1.09 1.09 0 0 0-.57-.13c-.28 0-.51.04-.68.12-.18.08-.3.18-.4.3a.96.96 0 0 0-.18.35 1.9 1.9 0 0 0-.05.28v2.49h-.77v-5.95h.77v2.25l.09-.1c.05-.05.14-.1.25-.17a1.86 1.86 0 0 1 .99-.26c.32 0 .59.05.8.14.22.1.4.21.53.35.13.14.23.29.3.45a2.25 2.25 0 0 1 .16.6zm-7.43 1.76c.37-.2.66-.45.88-.77l.68.42a3.02 3.02 0 0 1-1.16 1.03 3.47 3.47 0 0 1-2.85.15 3.34 3.34 0 0 1-1.75-1.66 2.88 2.88 0 0 1 0-2.42 3.15 3.15 0 0 1 1.75-1.66c.4-.16.82-.24 1.27-.24a3.31 3.31 0 0 1 2.74 1.4l-.68.44a2.46 2.46 0 0 0-2.06-1.07 2.46 2.46 0 0 0-2.25 1.43 2.2 2.2 0 0 0 0 1.82 2.33 2.33 0 0 0 1.3 1.24c.3.12.61.18.95.18.43 0 .82-.1 1.18-.29zm-9.24-1.43c.2.05.4.13.59.23.18.1.34.23.47.4.13.16.2.37.2.62 0 .4-.17.7-.5.93-.34.22-.8.33-1.4.33-.21 0-.41-.02-.6-.06a2.16 2.16 0 0 1-.93-.46c-.12-.1-.2-.22-.27-.35l.68-.23c.08.1.23.2.43.28.2.08.43.12.7.12.08 0 .19 0 .31-.02.13-.01.25-.04.36-.07.12-.04.22-.1.3-.17a.38.38 0 0 0 .13-.3c0-.06-.01-.11-.03-.17a.37.37 0 0 0-.14-.17 1.34 1.34 0 0 0-.35-.17 4.88 4.88 0 0 0-.66-.17l-.6-.13c-.19-.05-.37-.12-.53-.2-.15-.1-.28-.21-.38-.35a.88.88 0 0 1-.15-.53c0-.36.14-.65.44-.88.3-.23.7-.34 1.23-.34a2.81 2.81 0 0 1 1.1.23c.15.08.29.17.4.27.12.1.2.23.25.36l-.67.22a.75.75 0 0 0-.38-.27 1.7 1.7 0 0 0-.62-.1c-.3 0-.54.04-.7.14-.18.1-.26.22-.26.37 0 .05 0 .1.02.14.02.04.06.08.12.12l.3.13.58.13.56.12zm-4.54-1.98l-.47-.2.7-1.84.76.32zm-2.18 4.4l-.14.04-.3.05c-.1 0-.23 0-.37-.02a1.05 1.05 0 0 1-.4-.16c-.4-.26-.6-.74-.6-1.44v-1.9h-.55v-.7h.54v-1.88h.74v1.88h.9v.7h-.9v1.9c0 .45.1.73.27.85.05.03.11.05.17.06h.18c.05 0 .1 0 .14-.02l.05-.01zm-4.07-2.74V93.67h-.75v-2.4l-.03-.33a1.04 1.04 0 0 0-.14-.37.9.9 0 0 0-.32-.3 1.11 1.11 0 0 0-.57-.13c-.29 0-.52.04-.69.12-.17.08-.3.18-.39.3a.94.94 0 0 0-.18.34l-.06.28v2.49h-.76V89.6h.76v.37l.1-.09c.05-.05.14-.11.25-.18a1.82 1.82 0 0 1 .98-.25c.32 0 .6.05.81.14.22.1.4.2.53.35.13.14.23.29.3.45a2.25 2.25 0 0 1 .16.6zm-6.52.15a1.5 1.5 0 0 0-.5-.71c-.23-.19-.5-.28-.8-.28-.3 0-.58.1-.81.28-.24.18-.4.42-.5.7zm-2.69.7a1.57 1.57 0 0 0 .46.9c.12.12.26.2.42.28a1.5 1.5 0 0 0 1.79-.58l.62.37a2.25 2.25 0 0 1-3.35.44 2.21 2.21 0 0 1 .73-3.67 2.05 2.05 0 0 1 1.43 0 2.11 2.11 0 0 1 1.08.88c.13.2.23.43.28.67a2 2 0 0 1 .06.5v.2zM508.5 93a1.44 1.44 0 0 0 .77-.78 1.46 1.46 0 0 0 0-1.16 1.47 1.47 0 0 0-.77-.8 1.33 1.33 0 0 0-1.11 0 1.47 1.47 0 0 0-.77.8 1.51 1.51 0 0 0 0 1.16 1.45 1.45 0 0 0 1.32.9c.2 0 .38-.04.56-.12zm1.64-5.28v5.94h-.75v-.47a2.08 2.08 0 0 1-1.5.62 2.05 2.05 0 0 1-1.52-.63 2.24 2.24 0 0 1-.46-2.4 2.24 2.24 0 0 1 1.14-1.17c.26-.11.53-.17.83-.17.3 0 .57.06.83.17.25.11.48.27.68.47v-2.36zm-10.08 4.42V89.6h.75V92c0 .1.02.2.04.34a.9.9 0 0 0 .45.68c.14.08.33.12.57.12.28 0 .5-.04.68-.12.17-.09.3-.19.4-.3a.93.93 0 0 0 .17-.35l.06-.28V89.6h.76v4.07h-.76v-.37l-.09.09c-.06.06-.14.12-.25.18a1.85 1.85 0 0 1-.98.25c-.33 0-.6-.04-.81-.14a1.6 1.6 0 0 1-.52-.35 1.4 1.4 0 0 1-.3-.44 2.25 2.25 0 0 1-.17-.74zm-1.53 1.58l-.14.04-.3.05c-.1 0-.23 0-.37-.02a1.05 1.05 0 0 1-.4-.16c-.4-.26-.6-.74-.6-1.44v-1.9h-.55v-.7h.54v-1.88h.74v1.88h.9v.7h-.9v1.9c0 .45.1.73.27.85.05.03.11.05.17.06h.18c.05 0 .1 0 .14-.02l.05-.01zm-4.8-3.17c.28.15.5.31.66.48a1.41 1.41 0 0 1 .41 1.02c0 .24-.05.47-.17.68-.12.21-.28.4-.49.56a2.75 2.75 0 0 1-1.6.52c-.3 0-.57-.05-.83-.13-.27-.08-.5-.19-.7-.33a2 2 0 0 1-.49-.5 1.4 1.4 0 0 1-.24-.6l.74-.15c.08.26.26.48.53.66a1.99 1.99 0 0 0 1.54.19c.18-.05.33-.12.46-.21.13-.1.23-.2.3-.31a.68.68 0 0 0 .12-.38c0-.52-.51-.9-1.53-1.14-.25-.06-.5-.12-.74-.2a2.82 2.82 0 0 1-.68-.29c-.2-.12-.36-.27-.49-.46-.12-.18-.19-.42-.19-.7a1.5 1.5 0 0 1 .58-1.21c.19-.15.4-.26.67-.35a2.79 2.79 0 0 1 1.65 0c.24.07.45.18.64.32.18.14.33.3.45.5.11.18.19.39.22.61l-.74.16c-.07-.28-.22-.5-.45-.67a1.47 1.47 0 0 0-.9-.27c-.4 0-.71.09-.94.26a.78.78 0 0 0-.33.64c0 .1.02.2.06.28.04.08.1.15.21.22.1.07.25.13.44.2.18.06.43.13.73.2.45.11.82.24 1.1.4zm-6.9.43V93.67h-.75v-2.4c0-.09 0-.2-.03-.33a1.04 1.04 0 0 0-.14-.37.9.9 0 0 0-.32-.3 1.1 1.1 0 0 0-.57-.13c-.28 0-.51.04-.68.12-.17.08-.3.18-.4.3a.94.94 0 0 0-.17.34l-.06.28v2.49h-.75V89.6h.75v.37l.1-.09c.05-.05.14-.11.25-.18a1.81 1.81 0 0 1 .98-.25c.32 0 .59.05.8.14.22.1.4.2.53.35.13.14.23.29.3.45a2.25 2.25 0 0 1 .16.6zM479.15 93a1.5 1.5 0 0 0 .77-.8 1.51 1.51 0 0 0 0-1.15 1.45 1.45 0 0 0-1.32-.9c-.2 0-.38.03-.56.11a1.5 1.5 0 0 0-.77 1.95 1.5 1.5 0 0 0 .77.79 1.33 1.33 0 0 0 1.11 0zm1.65-3.4v4.06h-.77v-.48a2.03 2.03 0 0 1-1.5.63 2.06 2.06 0 0 1-1.5-.63 2.24 2.24 0 0 1-.46-2.4 2.23 2.23 0 0 1 1.13-1.17c.26-.11.54-.17.83-.17a2.07 2.07 0 0 1 1.5.63v-.48zm-6.23-.83c-.1.09-.21.14-.35.14a.5.5 0 0 1-.35-.14.45.45 0 0 1-.15-.34c0-.13.05-.24.15-.33a.5.5 0 0 1 .35-.13c.14 0 .25.04.35.13.1.1.14.2.14.33s-.05.24-.14.34zm-.73.82h.75v4.07h-.75zM471 87.72h.76v5.95H471zm-3.9 5.29a1.5 1.5 0 0 0 .77-.8 1.51 1.51 0 0 0 0-1.15 1.45 1.45 0 0 0-1.32-.9c-.2 0-.38.03-.55.11a1.5 1.5 0 0 0-.46 2.42c.13.13.28.24.46.32a1.33 1.33 0 0 0 1.1 0zm1.65-3.4v4.06H468v-.48a2.03 2.03 0 0 1-1.5.63 2.06 2.06 0 0 1-1.51-.63 2.23 2.23 0 0 1-.46-2.4 2.23 2.23 0 0 1 1.14-1.17c.26-.11.53-.17.83-.17a2.07 2.07 0 0 1 1.5.63v-.48zm-5.57-.12l-.1.7c-.11-.04-.25-.06-.42-.06-.29 0-.52.04-.69.12-.16.08-.3.18-.39.3a.94.94 0 0 0-.18.34c-.03.12-.05.21-.05.28v2.5h-.76V89.6h.76v.37l.09-.1.25-.17a1.97 1.97 0 0 1 1.5-.2zm-4.2 4.24l-.15.04a1.66 1.66 0 0 1-.67.03 1.05 1.05 0 0 1-.4-.16c-.4-.26-.6-.74-.6-1.44v-1.9h-.55v-.7h.55v-1.88h.74v1.88h.89v.7h-.9v1.9c0 .45.1.73.27.85.06.03.11.05.18.06h.17c.05 0 .1 0 .14-.02l.06-.01zm-5.26-2.42c.21.05.41.13.6.23.18.1.34.23.47.4.13.16.2.37.2.62 0 .4-.17.7-.5.93-.34.22-.8.33-1.4.33-.21 0-.41-.02-.6-.06a2.16 2.16 0 0 1-.93-.46c-.12-.1-.2-.22-.27-.35l.68-.23c.08.1.23.2.43.28.2.08.43.12.7.12.08 0 .19 0 .31-.02.13-.01.25-.04.36-.07.12-.04.22-.1.3-.17a.38.38 0 0 0 .13-.3c0-.06-.01-.11-.03-.17a.37.37 0 0 0-.14-.17 1.34 1.34 0 0 0-.35-.17 4.87 4.87 0 0 0-.66-.17l-.6-.13c-.19-.05-.37-.12-.53-.2-.15-.1-.28-.21-.38-.35a.88.88 0 0 1-.15-.53c0-.36.14-.65.44-.88.3-.23.7-.34 1.23-.34a2.81 2.81 0 0 1 1.1.23c.15.08.28.17.4.27s.2.23.25.36l-.67.22a.75.75 0 0 0-.38-.27 1.7 1.7 0 0 0-.62-.1c-.3 0-.54.04-.7.14-.18.1-.26.22-.26.37 0 .05 0 .1.02.14.02.04.06.08.12.12l.3.13.58.13.55.12zm-8.23.84V89.6h.76V92c0 .1 0 .2.03.34.02.13.07.25.14.37a.9.9 0 0 0 .31.3c.14.1.33.13.57.13.28 0 .51-.04.69-.12.17-.09.3-.19.39-.3a.92.92 0 0 0 .17-.35l.06-.28V89.6h.76v4.07h-.76v-.37l-.09.09c-.05.06-.14.12-.25.18a1.84 1.84 0 0 1-.98.25c-.33 0-.6-.04-.81-.14a1.6 1.6 0 0 1-.52-.35 1.41 1.41 0 0 1-.3-.44 2.26 2.26 0 0 1-.17-.74zm-5.52-.96h2.09l-1.04-2.36zm1.45-3.45l2.62 5.93h-.88l-.75-1.7h-2.8l-.74 1.7H438l2.63-5.93z"/><path id="7obud" d="M590.72 94.54V66.97h-18.78v27.57h18.78z"/><path id="7obul" d="M587.28 66.97h3.44l-12.6 27.57h-3.4l4.89-10.75-7.67-16.82h3.4l5.97 13.07z"/><path id="7obum" d="M561.78 81.23a6.37 6.37 0 0 0 3.7-5.97 6.76 6.76 0 0 0-1.77-4.57 6.37 6.37 0 0 0-1.93-1.39 5.5 5.5 0 0 0-4.7 0 6.37 6.37 0 0 0-3.26 3.45 6.53 6.53 0 0 0-.5 2.51 6.53 6.53 0 0 0 3.75 5.97 5.5 5.5 0 0 0 4.7 0zm6.95-14.85v17.77h-3.24v-2.07a8.6 8.6 0 0 1-9.85 2 9 9 0 0 1-2.86-2.04 9.8 9.8 0 0 1-2.66-6.78 9.8 9.8 0 0 1 2.66-6.74 9.25 9.25 0 0 1 2.86-2.05c1.1-.5 2.27-.76 3.53-.76a8.5 8.5 0 0 1 6.32 2.74v-2.07zm-27.72 7.48c.88.22 1.72.55 2.51.98.8.43 1.47 1 2.02 1.72s.83 1.63.83 2.74c0 1.73-.71 3.08-2.13 4.06-1.42.97-3.39 1.46-5.9 1.46-.9 0-1.76-.1-2.56-.28a8.94 8.94 0 0 1-3.92-2c-.5-.46-.88-.97-1.14-1.54l2.87-1c.35.47.95.88 1.8 1.23.86.34 1.84.51 2.95.51.38 0 .83-.02 1.36-.07a6.35 6.35 0 0 0 1.52-.33c.5-.18.91-.42 1.26-.74.36-.32.53-.76.53-1.3 0-.25-.04-.5-.11-.74a1.6 1.6 0 0 0-.58-.74c-.32-.25-.8-.5-1.47-.74-.67-.25-1.6-.5-2.81-.74-.83-.17-1.67-.37-2.51-.58a8.37 8.37 0 0 1-2.26-.9c-.67-.4-1.21-.9-1.64-1.5a3.92 3.92 0 0 1-.64-2.32c0-1.58.63-2.86 1.88-3.85 1.26-.99 3-1.48 5.2-1.48.86 0 1.68.09 2.47.26.8.17 1.52.43 2.17.76.65.33 1.23.73 1.72 1.18.49.46.84.97 1.07 1.54l-2.86 1c-.3-.5-.84-.9-1.6-1.2a6.97 6.97 0 0 0-2.63-.47c-1.28 0-2.28.21-3 .63-.7.42-1.07.97-1.07 1.63 0 .22.03.43.1.61.06.19.23.37.5.54.28.17.72.35 1.3.54.6.18 1.4.37 2.44.57.68.15 1.46.33 2.33.56zm-19.88 0c.87.22 1.71.55 2.5.98.8.43 1.47 1 2.02 1.72s.83 1.63.83 2.74c0 1.73-.71 3.08-2.13 4.06-1.42.97-3.39 1.46-5.9 1.46-.9 0-1.76-.1-2.56-.28a8.94 8.94 0 0 1-3.92-2c-.5-.46-.88-.97-1.14-1.54l2.87-1c.35.47.95.88 1.8 1.23a7.8 7.8 0 0 0 2.95.51c.38 0 .83-.02 1.36-.07a6.35 6.35 0 0 0 1.52-.33c.5-.18.91-.42 1.27-.74.35-.32.52-.76.52-1.3 0-.25-.03-.5-.11-.74a1.6 1.6 0 0 0-.58-.74c-.32-.25-.8-.5-1.47-.74-.67-.25-1.6-.5-2.81-.74-.83-.17-1.67-.37-2.5-.58a8.37 8.37 0 0 1-2.27-.9c-.67-.4-1.21-.9-1.64-1.5a3.92 3.92 0 0 1-.64-2.32c0-1.58.63-2.86 1.88-3.85 1.26-.99 3-1.48 5.2-1.48.86 0 1.68.09 2.47.26.8.17 1.52.43 2.17.76.65.33 1.23.73 1.72 1.18.49.46.84.97 1.07 1.54l-2.86 1c-.3-.5-.84-.9-1.6-1.2a6.97 6.97 0 0 0-2.63-.47c-1.28 0-2.28.21-3 .63-.7.42-1.07.97-1.07 1.63 0 .22.03.43.1.61.06.19.23.37.5.54.28.17.72.35 1.3.54.6.18 1.4.37 2.44.57.68.15 1.46.33 2.34.56zm-17.3-.81a6.52 6.52 0 0 0-2.12-3.08c-1-.8-2.13-1.19-3.41-1.19-1.29 0-2.42.4-3.42 1.19-.99.8-1.7 1.82-2.13 3.08zm-11.38 3.07c.1.79.32 1.53.66 2.22a6.25 6.25 0 0 0 3.05 2.96c.67.3 1.38.44 2.13.44 1.16 0 2.2-.27 3.15-.81a6.5 6.5 0 0 0 2.28-2.18l2.63 1.66a9.62 9.62 0 0 1-3.39 3.2 9.26 9.26 0 0 1-8 .54 9.05 9.05 0 0 1-2.77-1.83 9.67 9.67 0 0 1-2.94-7.06 9 9 0 0 1 .26-2.22 9.73 9.73 0 0 1 3.15-5.24 8.83 8.83 0 0 1 5.63-2.09 8.83 8.83 0 0 1 5.63 2.1 9.73 9.73 0 0 1 3.41 7.45v.45c0 .15-.01.28-.04.4z"/><path id="7obun" d="M465.25 83.76h22.08V78.8h-14.58l14.58-16.4v-4.28H465.7v4.94h14.12l-14.58 16.4zm-18.31-5.4a7.74 7.74 0 0 1-4.2-4.3c-.4-.98-.59-2.01-.6-3.12v-.07c.01-1.1.2-2.14.59-3.1a7.74 7.74 0 0 1 4.14-4.25c.98-.41 2.05-.63 3.23-.63 1.18 0 2.26.22 3.24.64a7.74 7.74 0 0 1 4.2 4.3c.39.97.58 2 .59 3.11v.08c0 1.1-.2 2.14-.58 3.1a7.74 7.74 0 0 1-4.15 4.25c-.97.4-2.04.62-3.22.63a8.22 8.22 0 0 1-3.24-.64zm7.77 5.16a14.16 14.16 0 0 0 3.9-1.9 13.2 13.2 0 0 0 4.93-6.5c.45-1.32.68-2.71.69-4.18v-.07a13 13 0 0 0-2.6-7.79 13.06 13.06 0 0 0-2.98-2.85 14.03 14.03 0 0 0-3.87-1.87 15.75 15.75 0 0 0-4.6-.67c-1.65 0-3.18.23-4.61.68a14.16 14.16 0 0 0-3.9 1.89 13.2 13.2 0 0 0-4.94 6.5c-.45 1.33-.67 2.72-.68 4.18v.08a13 13 0 0 0 2.59 7.78c.83 1.1 1.82 2.05 2.98 2.86 1.16.8 2.45 1.43 3.88 1.86 1.43.44 2.96.67 4.6.68 1.64-.01 3.17-.24 4.6-.68z"/><clipPath id="7obue"><use xlink:href="#7obua"/></clipPath><clipPath id="7obug"><use xlink:href="#7obub"/></clipPath><clipPath id="7obui"><use xlink:href="#7obuc"/></clipPath><clipPath id="7obuk"><use xlink:href="#7obud"/></clipPath></defs><g><g transform="translate(-379 -48)"><g><g><g/><g clip-path="url(#7obue)"><use fill="#fff" xlink:href="#7obuf"/></g></g><g><g><g/><g clip-path="url(#7obug)"><use fill="#fff" xlink:href="#7obuh"/></g></g></g></g><g><g><g/><g clip-path="url(#7obui)"><use fill="#fff" xlink:href="#7obuj"/></g></g></g><g><g><g/><g clip-path="url(#7obuk)"><use fill="#fff" xlink:href="#7obul"/></g></g><g><use fill="#fff" xlink:href="#7obum"/></g><g><use fill="#fff" xlink:href="#7obun"/></g></g></g></g></svg>