<?xml version="1.0" encoding="UTF-8" standalone="no"?>
<svg width="18px" height="22px" viewBox="0 0 18 22" version="1.1" xmlns="http://www.w3.org/2000/svg" xmlns:xlink="http://www.w3.org/1999/xlink">
    <!-- Generator: Sketch 41.2 (35397) - http://www.bohemiancoding.com/sketch -->
    <title>analog-stopwatch</title>
    <desc>Created with Sketch.</desc>
    <defs></defs>
    <g id="Page-1" stroke="none" stroke-width="1" fill="none" fill-rule="evenodd">
        <g id="PW_16.02-Copy" transform="translate(-693.000000, -2222.000000)" fill="#FF7522">
            <g id="Group-8" transform="translate(93.000000, 1975.000000)">
                <g id="analog-stopwatch" transform="translate(600.000000, 247.000000)">
                    <g id="Group">
                        <path d="M16.1910225,6.4753862 L16.7625225,5.71864058 C17.0639775,5.31987642 16.9875225,4.75118435 16.5914775,4.44757981 L15.1200225,3.3192585 C14.7239775,3.01565396 14.15925,3.09268795 13.8577275,3.49145211 L13.2862725,4.24593203 C14.2222725,4.71266735 15.0705,5.32667353 15.8152275,6.07662204 C15.948,6.20803296 16.07175,6.33944387 16.1910225,6.4753862 Z" id="Shape"></path>
                        <path d="M9.00675,3.23542739 C9.4050225,3.23542739 9.7987725,3.26035015 10.188,3.30792997 L10.188,2.26570546 L10.899,2.26570546 C11.396295,2.26570546 11.799,1.86014418 11.799,1.35942327 L11.799,0.906282183 C11.799,0.405561277 11.396295,0 10.899,0 L7.1145225,0 C6.61725,0 6.2145225,0.405561277 6.2145225,0.906282183 L6.2145225,1.35942327 C6.2145225,1.86014418 6.61725,2.26570546 7.1145225,2.26570546 L7.8255225,2.26570546 L7.8255225,3.30792997 C8.21475,3.26035015 8.6085,3.23542739 9.00675,3.23542739 Z" id="Shape"></path>
                        <path d="M9.00675,21.9909372 C13.9725225,21.9909372 17.9977275,17.9376128 17.9977275,12.9371782 C17.9977275,10.6646756 17.1675225,8.58928939 15.7950225,7.00102987 C14.9939775,6.07209063 14.0062725,5.31081359 12.8925225,4.7715757 C12.0555,4.36601442 11.14425,4.08959835 10.188,3.96271885 C9.8010225,3.91060762 9.4072725,3.88568486 9.00675,3.88568486 C8.60625,3.88568486 8.2125,3.91287333 7.8255,3.96271885 C3.41775,4.54500515 0.01575,8.3423275 0.01575,12.9371782 C0.01575,17.9375901 4.041,21.9909372 9.00675,21.9909372 Z M11.4839775,6.63398558 C12.6450225,7.0961895 13.6462725,7.87332647 14.3864775,8.86343975 C15.0479775,9.74706488 15.5002275,10.8006179 15.6667275,11.9470649 C15.7139775,12.2710608 15.73875,12.6041195 15.73875,12.9417096 L11.30175,12.9417096 L9.00675,12.9417096 L8.964,12.9417096 L8.964,12.907724 L8.964,9.9623069 L8.964,6.15818744 L9.00675,6.15818744 C9.3285,6.15818744 9.64575,6.18084449 9.9539775,6.2261586 C10.4872725,6.30092688 10.998,6.43913491 11.4839775,6.63398558 Z" id="Shape"></path>
                    </g>
                </g>
            </g>
        </g>
    </g>
</svg>