<?xml version="1.0" encoding="UTF-8" standalone="no"?>
<svg width="33px" height="46px" viewBox="0 0 33 46" version="1.1" xmlns="http://www.w3.org/2000/svg" xmlns:xlink="http://www.w3.org/1999/xlink">
    <!-- Generator: Sketch 41.2 (35397) - http://www.bohemiancoding.com/sketch -->
    <title>doc-file-format-symbol copy 2</title>
    <desc>Created with Sketch.</desc>
    <defs></defs>
    <g id="Page-1" stroke="none" stroke-width="1" fill="none" fill-rule="evenodd">
        <g id="PW_16.02-Copy" transform="translate(-1209.000000, -819.000000)" fill="#FFFFFF">
            <g id="doc-file-format-symbol-copy-2" transform="translate(1209.000000, 819.000000)">
                <g id="Group">
                    <path d="M16.9526185,34.5271325 C15.4235087,34.5271325 14.5319327,36.0037241 14.5319327,37.976882 C14.5319327,39.965902 15.4528055,41.3667731 16.9674314,41.3667731 C18.497611,41.3667731 19.3733865,39.8901815 19.3733865,37.9170236 C19.3733865,36.0935535 18.5123416,34.5271325 16.9526185,34.5271325 Z" id="Shape"></path>
                    <path d="M5.56062344,34.5571034 C5.05541895,34.5571034 4.72821696,34.6020181 4.53556608,34.6469328 L4.53556608,41.2911361 C4.72821696,41.3369691 5.04068828,41.3369691 5.32254613,41.3369691 C7.37150873,41.3519964 8.70821446,40.2064211 8.70821446,37.7815281 C8.72385037,35.6717895 7.50573067,34.5571034 5.56062344,34.5571034 Z" id="Shape"></path>
                    <path d="M32.9255237,11.0192958 C32.9228903,10.8084138 32.8569726,10.6001198 32.714192,10.4354882 L23.9742943,0.308392015 C23.9725661,0.305553539 23.9699327,0.304635209 23.9673815,0.302047187 C23.9152893,0.243023593 23.8554613,0.194352087 23.7911895,0.151441016 C23.7720973,0.13891833 23.7529227,0.127647913 23.7330075,0.116210526 C23.6765536,0.0856551724 23.6183716,0.0602758621 23.5576384,0.0417422868 C23.5411796,0.0369001815 23.5264489,0.0300544465 23.5099077,0.0257132486 C23.4431671,0.00951724138 23.3754389,0 23.3059825,0 L1.82693267,0 C0.846972569,0 0.0493765586,0.809215971 0.0493765586,1.80335027 L0.0493765586,44.1801198 C0.0493765586,45.1746715 0.846972569,45.9834701 1.82693267,45.9834701 L31.1566085,45.9834701 C32.1373915,45.9834701 32.9342469,45.1746715 32.9342469,44.1801198 L32.9342469,11.1203122 C32.9341646,11.0864174 32.92898,11.0531906 32.9255237,11.0192958 Z M9.45182544,41.8185917 C8.39730673,42.7078693 6.79330923,43.1296334 4.8324015,43.1296334 C3.6587207,43.1296334 2.82721945,43.0539129 2.26325686,42.9790272 L2.26325686,33.0056261 C3.0947581,32.8700472 4.17906733,32.7943267 5.32295761,32.7943267 C7.22354364,32.7943267 8.45622943,33.1412886 9.42145885,33.8791252 C10.4614938,34.6627949 11.1149925,35.9130599 11.1149925,37.7058076 C11.1146633,39.6494955 10.4170549,40.9900073 9.45182544,41.8185917 Z M16.8484339,43.1904102 C13.8783516,43.1904102 12.1407082,40.9152051 12.1407082,38.0222976 C12.1407082,34.9788675 14.0565187,32.7040799 17.0116234,32.7040799 C20.085808,32.7040799 21.7645287,35.0396443 21.7645287,37.8413866 C21.764611,41.1714192 19.7743242,43.1904102 16.8484339,43.1904102 Z M28.3739925,41.2771107 C29.0570349,41.2771107 29.8148005,41.1256697 30.2600125,40.94551 L30.6019451,42.7382577 C30.1861945,42.9500581 29.250591,43.1753829 28.0328005,43.1753829 C24.5723267,43.1753829 22.790409,40.9904247 22.790409,38.0980181 C22.790409,34.6332414 25.2259077,32.7045808 28.254995,32.7045808 C29.4285112,32.7045808 30.3198404,32.9454338 30.7208603,33.1567332 L30.2599302,34.9793684 C29.8003167,34.7838475 29.1610549,34.6024356 28.3595087,34.6024356 C26.5628603,34.6024356 25.1659152,35.7026788 25.1659152,37.9624392 C25.1660798,39.9959564 26.3542444,41.2771107 28.3739925,41.2771107 Z M1.82693267,30.6181343 L1.82693267,1.80335027 L22.4172045,1.80335027 L22.4172045,11.0296479 C22.4172045,11.5272995 22.8147681,11.9312813 23.3059825,11.9312813 L31.1566085,11.9312813 L31.1575137,30.6181343 L1.82693267,30.6181343 Z" id="Shape"></path>
                    <path d="M14.2388005,12.4474664 L20.7064713,12.4474664 C21.0311222,12.4474664 21.2949576,12.1802323 21.2949576,11.8503013 C21.2949576,11.5203702 21.0311222,11.2528857 20.7064713,11.2528857 L14.2388005,11.2528857 C13.9134913,11.2528857 13.6507257,11.5203702 13.6507257,11.8503013 C13.6503142,12.1802323 13.9128329,12.4474664 14.2388005,12.4474664 Z" id="Shape"></path>
                    <path d="M23.870192,16.0310417 L7.77993516,16.0310417 C7.45470823,16.0310417 7.19062594,16.2982759 7.19062594,16.6282069 C7.19062594,16.9583884 7.45470823,17.2252051 7.77993516,17.2252051 L23.870192,17.2252051 C24.1956658,17.2252051 24.4595835,16.9583884 24.4595835,16.6282069 C24.4595835,16.2983593 24.1961596,16.0310417 23.870192,16.0310417 Z" id="Shape"></path>
                    <path d="M9.46161845,13.6440508 L10.0069002,11.3952269 C10.146389,10.8493212 10.2377357,10.3882359 10.322005,9.87747731 L10.3356658,9.87747731 C10.3912145,10.3949982 10.4751546,10.8493212 10.5939052,11.3952269 L11.0840499,13.6440508 L12.0075561,13.6440508 L13.2721721,8.86313975 L12.3981247,8.86313975 L11.908803,11.026559 C11.7829751,11.6085299 11.6704788,12.1540181 11.5870324,12.6797205 L11.5724663,12.6797205 C11.50301,12.1617822 11.4049152,11.629735 11.2862469,11.0622069 L10.8177456,8.86364065 L9.9158005,8.86364065 L9.40606983,11.0270599 C9.27217706,11.6298185 9.13853117,12.197931 9.06257357,12.7009256 L9.04957107,12.7009256 C8.97270823,12.2258984 8.86037656,11.6154592 8.74121446,11.0339056 L8.29361596,8.86364065 L7.37751621,8.86364065 L8.53144638,13.6445517 L9.46161845,13.6445517 L9.46161845,13.6440508 L9.46161845,13.6440508 Z" id="Shape"></path>
                    <path d="M23.870192,20.7750526 L7.77993516,20.7750526 C7.45470823,20.7750526 7.19062594,21.0422868 7.19062594,21.3724682 C7.19062594,21.7023993 7.45470823,21.9696334 7.77993516,21.9696334 L23.870192,21.9696334 C24.1956658,21.9696334 24.4595835,21.7023993 24.4595835,21.3724682 C24.4595835,21.0422868 24.1961596,20.7750526 23.870192,20.7750526 Z" id="Shape"></path>
                    <path d="M23.870192,25.6322686 L7.77993516,25.6322686 C7.45470823,25.6322686 7.19062594,25.8999201 7.19062594,26.2301016 C7.19062594,26.5598657 7.45470823,26.8270998 7.77993516,26.8270998 L23.870192,26.8270998 C24.1956658,26.8270998 24.4595835,26.5598657 24.4595835,26.2301016 C24.4595835,25.8999201 24.1961596,25.6322686 23.870192,25.6322686 Z" id="Shape"></path>
                </g>
            </g>
        </g>
    </g>
</svg>