<?xml version="1.0" encoding="UTF-8"?>
<svg width="96px" height="96px" viewBox="0 0 96 96" version="1.1" xmlns="http://www.w3.org/2000/svg" xmlns:xlink="http://www.w3.org/1999/xlink">
    <!-- Generator: Sketch 41.2 (35397) - http://www.bohemiancoding.com/sketch -->
    <title>graduation</title>
    <desc>Created with Sketch.</desc>
    <defs></defs>
    <g id="Styleguide" stroke="none" stroke-width="1" fill="none" fill-rule="evenodd">
        <g id="OZ-27/02-Home-page" transform="translate(-1059.000000, -705.000000)">
            <g id="Group-12" transform="translate(0.000000, 655.000000)">
                <g id="Group-7" transform="translate(909.000000, 50.000000)">
                    <g id="Group-17">
                        <g id="graduation" transform="translate(150.000000, 0.000000)">
                            <g id="Layer_1">
                                <path d="M48,95.9998125 C74.437125,95.9998125 96,74.437125 96,47.9998125 C96,21.5626875 74.437125,0.0001875 48,0.0001875 C21.5626875,0.0001875 0,21.5626875 0,47.9998125 C0,74.437125 21.5626875,95.9998125 48,95.9998125 Z" id="Shape" fill="#2E2917"></path>
                                <g id="Group" transform="translate(18.750000, 37.687500)" fill="#FFFFFF">
                                    <path d="M3.3195,19.6970625 C3.6645,19.6970625 3.9969375,19.7510625 4.30875,19.85025 C5.0446875,18.6185625 6.39,17.794125 7.9288125,17.794125 C10.228875,17.794125 12.0984375,19.636875 12.14175,21.926625 C12.1910625,21.9234375 12.24075,21.92175 12.2911875,21.92175 C13.479,21.92175 14.4414375,22.8841875 14.4414375,24.071625 C14.4414375,25.259625 13.479,26.2220625 12.2911875,26.2220625 C11.5678125,26.2220625 10.9276875,25.864875 10.53825,25.3171875 C9.8206875,25.8838125 8.9143125,26.2220625 7.928625,26.2220625 C7.006125,26.2220625 6.153,25.92525 5.4590625,25.422375 C4.88625,25.920375 4.13775,26.2220625 3.3195,26.2220625 C1.5178125,26.2220625 0.0571875,24.7610625 0.0571875,22.959375 C0.057,21.1575 1.5178125,19.6970625 3.3195,19.6970625 L3.3195,19.6970625 Z" id="Shape"></path>
                                    <path d="M62.3859375,2.55975 C61.926375,2.55975 61.4836875,2.6308125 61.068,2.763 C60.0879375,1.1229375 58.294875,0.0241875 56.2455,0.0241875 C53.1811875,0.0241875 50.6908125,2.4796875 50.6330625,5.5299375 C50.56725,5.52525 50.500875,5.523 50.434125,5.523 C48.851625,5.523 47.5695,6.805125 47.5695,8.38725 C47.5695,9.9695625 48.851625,11.2516875 50.434125,11.2516875 C51.3976875,11.2516875 52.25025,10.7758125 52.7690625,10.04625 C53.725125,10.8013125 54.9328125,11.2516875 56.2455,11.2516875 C57.474375,11.2516875 58.6111875,10.8564375 59.5355625,10.1863125 C60.2985,10.849875 61.2954375,11.2516875 62.3859375,11.2516875 C64.7866875,11.2516875 66.732375,9.3058125 66.732375,6.9054375 C66.732375,4.5054375 64.7865,2.55975 62.3859375,2.55975 L62.3859375,2.55975 Z" id="Shape"></path>
                                </g>
                                <path d="M45.86775,7.9989375 L49.8555,16.549125 C49.3460625,22.3640625 42.9204375,29.1429375 35.1256875,32.211375 C27.697875,35.13525 18.9684375,34.5789375 15.1543125,30.954 L11.6319375,22.420125 L30.28425,20.937 L45.86775,7.9989375 L45.86775,7.9989375 Z" id="Shape" fill="#666666"></path>
                                <polygon id="Shape" fill="#C8CACC" points="0.305625 23.7811875 0.213 23.5528125 22.73175 2.389125 53.6293125 1.80225 53.722125 2.0308125 31.5114375 23.9514375"></polygon>
                                <path d="M12.8885625,47.578875 L11.3754375,57.265125 C11.3510625,57.4220625 11.883375,57.6361875 12.13725,57.321 C12.470625,57.72075 12.9125625,57.556875 13.0449375,57.2806875 C13.2121875,57.5544375 13.606875,57.70575 13.8935625,57.296625 C14.1474375,57.611625 14.714625,57.39225 14.6728125,57.1284375 L13.17,47.570625 C13.13175,47.4279375 12.9084375,47.4525 12.8885625,47.578875 L12.8885625,47.578875 Z" id="Shape" fill="#FF7522"></path>
                                <polygon id="Shape" fill="#807D7D" points="0.213 23.5531875 22.6040625 2.0750625 53.6296875 1.80225 31.2380625 23.2794375"></polygon>
                                <path d="M27.0598125,12.4965 C27.2019375,12.3826875 27.4093125,12.405375 27.523125,12.5473125 C27.63675,12.68925 27.61425,12.89625 27.4723125,13.0100625 L12.3980625,25.169625 L13.3265625,47.5785 C13.395375,47.7470625 13.314,47.939625 13.14525,48.007875 C12.976875,48.076875 12.7843125,47.9956875 12.7153125,47.827125 L11.6949375,25.1915625 C11.6415,25.0595625 11.6776875,24.903375 11.7939375,24.810375 L27.0598125,12.4965 L27.0598125,12.4965 Z" id="Shape" fill="#FFFFFF"></path>
                                <path d="M13.024875,46.0599375 C13.85325,46.0599375 14.5245,46.731 14.5245,47.559 C14.5245,48.387375 13.85325,49.0584375 13.024875,49.0584375 C12.1965,49.0584375 11.5254375,48.387375 11.5254375,47.559 C11.5254375,46.7308125 12.1965,46.0599375 13.024875,46.0599375 Z" id="Shape" fill="#FFBA1B"></path>
                                <path d="M14.24025,47.176875 C14.24025,47.804625 13.841625,48.3388125 13.283625,48.539625 C13.13025,48.59475 12.964875,48.62475 12.7925625,48.62475 C12.7831875,48.62475 12.7738125,48.62475 12.7644375,48.624375 C12.2709375,48.6148125 11.8378125,48.358875 11.5835625,47.974125 C11.7345,48.4985625 12.163875,48.905625 12.7021875,49.0235625 C12.8060625,49.04625 12.913875,49.0584375 13.024875,49.0584375 C13.1398125,49.0584375 13.2515625,49.0453125 13.359,49.021125 C14.0266875,48.8694375 14.524125,48.272625 14.524125,47.5591875 C14.524125,47.131125 14.344875,46.7450625 14.057625,46.4720625 C14.173875,46.6805625 14.24025,46.9209375 14.24025,47.176875 L14.24025,47.176875 Z" id="Shape" fill="#F5A209"></path>
                                <path d="M37.99425,44.40675 L45.568875,39.676875 C46.6288125,39.69825 46.945125,41.4410625 46.1566875,42.426 L39.461625,46.7821875 L37.99425,44.40675 L37.99425,44.40675 Z" id="Shape" fill="#F0B97D"></path>
                                <path d="M40.4386875,36.60675 L34.8313125,45.3315 L38.559,57.153 L40.553625,49.7191875 L38.977875,44.8558125 L42.491625,38.5633125 C43.221375,36.9525 41.4733125,35.2670625 40.4386875,36.60675 Z" id="Shape" fill="#FED198"></path>
                                <path d="M53.15775,51.0553125 L52.5234375,55.103625 L52.2744375,56.694 L45.811875,54.414 L53.487,65.866125 L55.414125,81.4929375 C55.677375,81.275625 55.236,67.222875 55.4634375,66.88875 C56.335125,65.6055 56.9405625,63.442875 57.2386875,60.273375 L57.1906875,54.8476875 L57.1426875,51.96675 L57.7974375,48.8833125 C56.1699375,47.9835 53.792625,48.8833125 53.15775,51.0553125 L53.15775,51.0553125 Z" id="Shape" fill="#F0B97D"></path>
                                <g id="Group" transform="translate(34.875000, 34.875000)" fill="#FED198">
                                    <path d="M3.54375,23.1395625 L5.800125,12.289125 L13.218,9.2881875 C14.1219375,9.7910625 14.455875,10.2976875 13.7265,11.824125 L9.9770625,13.7773125 L10.936875,19.5391875 C17.566125,23.1084375 19.6875,27.3195 19.2755625,32.553 C19.5045,37.145625 20.3101875,42.0260625 20.539125,46.618125 L9.4006875,46.9063125 L11.8970625,34.9033125 L3.54375,23.1395625 Z" id="Shape"></path>
                                    <path d="M0.1580625,0.5270625 L0.246375,10.005 L2.7598125,6.094125 L2.4628125,1.1510625 C2.4628125,1.15125 1.62225,-0.8173125 0.1580625,0.5270625 Z" id="Shape"></path>
                                </g>
                                <path d="M40.5721875,78.786 L60.238875,78.786 L60.634875,94.3149375 C56.6085,95.410875 52.3730625,95.9990625 47.999625,95.9990625 C45.325875,95.9990625 42.7044375,95.776875 40.1499375,95.356875 L40.5721875,78.786 Z" id="Shape" fill="#ACB41A"></path>
                                <g id="Group" transform="translate(35.062500, 13.125000)" fill="#FFFFFF">
                                    <polygon id="Shape" points="7.524 65.661 23.1620625 65.661 23.1620625 61.8849375 7.524 61.8849375"></polygon>
                                    <path d="M0.061875,23.781 L0.027,22.3186875 C0.027,22.3186875 0.6945,22.1595 0.7490625,22.4964375 C0.8038125,22.833 0.79575,23.7676875 0.79575,23.7676875 L0.061875,23.781 Z" id="Shape"></path>
                                    <path d="M4.8710625,24.476625 L5.7380625,23.298375 C5.7380625,23.298375 6.3635625,23.58075 6.200625,23.88075 C6.0376875,24.180375 5.4598125,24.9151875 5.4598125,24.9151875 L4.8710625,24.476625 L4.8710625,24.476625 Z" id="Shape"></path>
                                    <path d="M11.6799375,31.8095625 L13.001625,31.1821875 C13.001625,31.1821875 13.418625,31.72725 13.133625,31.9141875 C12.8480625,32.1013125 11.991,32.4744375 11.991,32.4744375 L11.6799375,31.8095625 Z" id="Shape"></path>
                                    <path d="M11.7208125,18.538875 L40.635,0.1895625 C44.0925,-0.897375 46.76475,6.031875 44.607,7.2298125 L16.4791875,25.6978125 C14.881875,26.7495 12.5420625,24.3279375 11.7691875,21.6110625 C11.3589375,20.1680625 11.766375,20.1223125 13.283625,19.0944375 L11.7208125,18.538875 Z" id="Shape"></path>
                                </g>
                                <path d="M65.7598125,19.6246875 C68.1721875,19.4345625 71.0923125,24.6043125 70.295625,26.5095 L66.408,29.0619375 C66.59175,26.286375 63.934875,22.3303125 61.484625,22.3395 L65.7598125,19.6246875 L65.7598125,19.6246875 Z" id="Shape" fill="#D0011B"></path>
                                <polygon id="Shape" fill="#D0011B" points="75.817125 29.151 70.2958125 26.5096875 66.4081875 29.062125 70.8845625 32.383125 71.9705625 29.565"></polygon>
                                <path d="M48.1603125,32.3514375 L48.346125,32.21925 C49.689375,32.18925 52.9801875,36.2844375 50.74275,37.8628125 C49.150875,38.9855625 47.4736875,35.3619375 47.253,34.08525 C47.88375,33.3759375 49.209375,35.4675 48.9609375,35.577375 L48.463125,35.797875 C48.463125,35.797875 48.703125,36.78975 49.2241875,36.744375 L51.0928125,35.637375 C51.0928125,35.6375625 50.2670625,32.73975 48.1603125,32.3514375 L48.1603125,32.3514375 Z" id="Shape" fill="#DFE1E3"></path>
                            </g>
                        </g>
                    </g>
                </g>
            </g>
        </g>
    </g>
</svg>