<?xml version="1.0" encoding="UTF-8" standalone="no"?>
<svg width="20px" height="20px" viewBox="0 0 20 20" version="1.1" xmlns="http://www.w3.org/2000/svg" xmlns:xlink="http://www.w3.org/1999/xlink">
    <!-- Generator: Sketch 41.2 (35397) - http://www.bohemiancoding.com/sketch -->
    <title>messenger</title>
    <desc>Created with Sketch.</desc>
    <defs></defs>
    <g id="Page-1" stroke="none" stroke-width="1" fill="none" fill-rule="evenodd">
        <g id="messenger">
            <path d="M9.91462366,0.014110442 C4.45984036,0.014110442 0,4.1089607 0,9.1598718 C0,12.0377748 1.44835848,14.6052481 3.64331612,16.2818822 L3.64331612,19.7687292 L7.04455976,17.9230834 C7.94198387,18.1717407 8.91152802,18.3056332 9.8961233,18.3056332 C15.3509066,18.3056332 19.7828396,14.2107829 19.7828396,9.1598718 C19.7828396,4.1089607 15.369407,0.014110442 9.91462366,0.014110442 Z" id="Shape" fill="#0086FF"></path>
            <path d="M9.91462366,0.770116566 C4.45984036,0.770116566 0,4.10864714 0,9.1598718 C0,12.0377748 1.44835848,14.6052481 3.64331612,16.2818822 L3.64331612,19.7687292 L7.04455976,17.9230834 C7.94198387,18.1717407 8.91152802,18.3056332 9.8961233,18.3056332 C15.3509066,18.3056332 19.7828396,14.2107829 19.7828396,9.1598718 C19.7828396,4.1089607 15.369407,0.770116566 9.91462366,0.770116566 Z" id="Shape" fill="#0086FF"></path>
            <polygon id="Path" fill="#FFFFFF" points="10.8967104 12.3303313 8.3809754 9.64746596 3.47305012 12.3303313 8.87201878 6.59898336 11.4485855 9.28184873 16.2953655 6.59898336"></polygon>
        </g>
    </g>
</svg>