<?xml version="1.0" encoding="UTF-8" standalone="no"?>
<svg width="18px" height="19px" viewBox="0 0 18 19" version="1.1" xmlns="http://www.w3.org/2000/svg" xmlns:xlink="http://www.w3.org/1999/xlink">
    <!-- Generator: Sketch 41.2 (35397) - http://www.bohemiancoding.com/sketch -->
    <title>Group 9</title>
    <desc>Created with Sketch.</desc>
    <defs></defs>
    <g id="Page-1" stroke="none" stroke-width="1" fill="none" fill-rule="evenodd">
        <g id="Group-9">
            <path d="M16.016188,11.758663 C15.7271467,12.925947 14.244155,14.377395 13.0659731,14.645447 C11.5237748,14.945267 9.96908058,15.073251 8.41609711,15.029323 C8.38530372,15.028411 8.35532851,15.040571 8.33383264,15.063447 C8.11359298,15.294411 6.88780785,16.580179 6.88780785,16.580179 L5.34962603,18.193127 C5.23716322,18.313055 5.0396095,18.231431 5.0396095,18.066055 L5.0396095,14.757395 C5.0396095,14.702751 5.00130372,14.656163 4.94894008,14.645751 L4.94782438,14.645447 C3.76964256,14.377395 2.28754339,12.925947 1.99790702,11.758663 C1.51584917,9.500019 1.51584917,7.210215 1.99790702,4.951571 C2.28754339,3.784287 3.76964256,2.332839 4.94782438,2.064787 C7.64179959,1.541071 10.3728905,1.541071 13.0659731,2.064787 C14.24475,2.332839 15.7271467,3.784287 16.016188,4.951571 C16.4988409,7.210215 16.4988409,9.500019 16.016188,11.758663 Z" id="Combined-Shape" fill="#7D3DAF"></path>
            <path d="M17.554407,4.55905 L17.5488285,4.53739 C17.1156384,2.747818 15.1628616,0.827906 13.3693326,0.428298 L13.34925,0.424194 C10.4484236,-0.141398 7.50698554,-0.141398 4.60667975,0.424194 L4.58607645,0.428298 C2.79314256,0.827906 0.840365702,2.747818 0.406580579,4.53739 L0.401597107,4.55905 C-0.133865702,7.058158 -0.133865702,9.592226 0.401597107,12.09103 L0.406580579,12.112994 C0.821770661,13.825958 2.62928306,15.65771 4.35564669,16.161514 L4.35564669,18.15887 C4.35564669,18.881782 5.21801033,19.236854 5.70817562,18.71519 L7.68884504,16.611586 C8.11824174,16.63621 8.54830785,16.64989 8.97800207,16.64989 C10.4383079,16.64989 11.8991343,16.508834 13.34925,16.22619 L13.3693326,16.221782 C15.1628616,15.822478 17.1156384,13.902262 17.5488285,12.112994 L17.554407,12.09103 C18.0898698,9.592226 18.0898698,7.058158 17.554407,4.55905 Z M15.986845,11.728586 C15.6978037,12.89587 14.214812,14.347318 13.0366302,14.61537 C11.4944318,14.91519 9.9397376,15.043174 8.38675413,14.999246 C8.35596074,14.998334 8.32598554,15.010494 8.30448967,15.03337 C8.08425,15.264334 6.85846488,16.550102 6.85846488,16.550102 L5.32028306,18.16305 C5.20782025,18.282978 5.01026653,18.201354 5.01026653,18.035978 L5.01026653,14.727318 C5.01026653,14.672674 4.97196074,14.626086 4.91959711,14.615674 L4.9184814,14.61537 C3.74029959,14.347318 2.25820041,12.89587 1.96856405,11.728586 C1.4865062,9.469942 1.4865062,7.180138 1.96856405,4.921494 C2.25820041,3.75421 3.74029959,2.302762 4.9184814,2.03471 C7.61245661,1.510994 10.3435475,1.510994 13.0366302,2.03471 C14.215407,2.302762 15.6978037,3.75421 15.986845,4.921494 C16.4694979,7.180138 16.4694979,9.469942 15.986845,11.728586 Z" id="Fill-2" fill="#FFFFFF"></path>
            <path d="M11.4769421,13.2947721 C11.2956032,13.2386841 11.1230413,13.2009881 10.9629751,13.1329681 C9.30161977,12.4288281 7.77303299,11.5204001 6.56204952,10.1277001 C5.87343795,9.33570408 5.33447927,8.44179208 4.87860324,7.49536408 C4.662752,7.04673608 4.48059498,6.58040008 4.2948677,6.11725608 C4.12580159,5.69477208 4.3751239,5.25838008 4.63746274,4.94016808 C4.88380985,4.64148808 5.20081812,4.41288008 5.54393382,4.24423608 C5.81185117,4.11275608 6.07597514,4.18875608 6.27181812,4.42063208 C6.69481812,4.92230808 7.08330572,5.44959608 7.3976363,6.03084408 C7.59117349,6.38857608 7.53828919,6.82557608 7.18758671,7.06900408 C7.1024958,7.12813208 7.02461977,7.19759608 6.94525613,7.26440008 C6.87585944,7.32314808 6.81018175,7.38220008 6.76250407,7.46146808 C6.67533051,7.60670408 6.67101646,7.77770408 6.72739663,7.93532808 C7.15969415,9.14950408 7.88839663,10.0935761 9.08428093,10.6018641 C9.27573547,10.6831841 9.46778506,10.7778801 9.68832225,10.7517361 C10.0576198,10.7075041 10.1769999,10.2939881 10.4359173,10.0775401 C10.6886611,9.86648808 11.0117685,9.86352408 11.2842975,10.0398441 C11.5568264,10.2159361 11.8209503,10.4050241 12.0832892,10.5962401 C12.3410165,10.7838081 12.5975537,10.9672721 12.8352727,11.1813641 C13.0639173,11.3870961 13.1426859,11.6569721 13.0139338,11.9359681 C12.7782975,12.4472201 12.4354793,12.8723641 11.9409256,13.1439881 C11.8011652,13.2205961 11.6344049,13.2452201 11.4769421,13.2947721 C11.2956032,13.2386841 11.6344049,13.2452201 11.4769421,13.2947721 Z" id="Fill-3" fill="#FFFFFF"></path>
            <path d="M8.94547325,3.64882818 C11.1181923,3.71114818 12.9027956,5.18456018 13.2851096,7.37936418 C13.3501923,7.75343618 13.3734733,8.13579218 13.4024815,8.51518418 C13.4146799,8.67493618 13.3263906,8.82663218 13.1575476,8.82868418 C12.9835724,8.83081218 12.9051014,8.68208018 12.8937956,8.52232818 C12.8714071,8.20647218 12.8560104,7.88909618 12.8132418,7.57590018 C12.5883906,5.92198818 11.297746,4.55368418 9.6866716,4.26009618 C9.44411788,4.21586418 9.19598565,4.20431218 8.95045673,4.17786418 C8.7952997,4.16122018 8.59194433,4.15172018 8.55765507,3.95457618 C8.52857243,3.78927618 8.66513441,3.65772018 8.81939887,3.64913218 C8.86127491,3.64677618 8.90337408,3.64882818 8.94547325,3.64882818 C11.1181923,3.71114818 8.90337408,3.64882818 8.94547325,3.64882818 Z" id="Fill-4" fill="#FFFFFF"></path>
            <path d="M12.2202632,7.97612926 C12.2167674,8.00371726 12.2147591,8.06900126 12.1990649,8.13048526 C12.1412715,8.35316526 11.8105773,8.38105726 11.7344864,8.15632526 C11.7118004,8.08952126 11.7086021,8.01352126 11.7083045,7.94170126 C11.7077095,7.47141326 11.6075194,7.00173326 11.3756764,6.59270126 C11.1368417,6.17204126 10.7724533,5.81841326 10.3450649,5.60470126 C10.0865194,5.47527326 9.80699876,5.39509326 9.52368471,5.34698526 C9.39991611,5.32623726 9.2747343,5.31346926 9.15037066,5.29560926 C8.99952768,5.27425326 8.91904835,5.17628926 8.92604008,5.02428926 C8.9327343,4.88209326 9.03441198,4.77964526 9.18637066,4.78853726 C9.68494091,4.81734126 10.1667012,4.92754126 10.6097839,5.16739726 C11.5113459,5.65516526 12.0262054,6.42527326 12.1766764,7.45332526 C12.1833707,7.49991326 12.1943789,7.54596926 12.1978748,7.59286126 C12.2063541,7.70830526 12.2115607,7.82382526 12.2202632,7.97612926 C12.2167674,8.00371726 12.2115607,7.82382526 12.2202632,7.97612926 Z" id="Fill-5" fill="#FFFFFF"></path>
            <path d="M10.9106782,7.92223074 C10.7288187,7.92549874 10.631455,7.82274674 10.61286,7.65235474 C10.5997691,7.53356674 10.5896534,7.41333474 10.5617608,7.29789074 C10.5070914,7.07019474 10.3888269,6.85937074 10.2014633,6.71983474 C10.1130997,6.65424674 10.0129096,6.60613874 9.90803356,6.57528274 C9.77466992,6.53583874 9.63602529,6.54678274 9.50295918,6.51326674 C9.35858728,6.47731874 9.27870298,6.35769474 9.30131455,6.21907074 C9.32199224,6.09313874 9.44196744,5.99487074 9.57681868,6.00467474 C10.4190997,6.06676674 11.0213559,6.51174674 11.1071162,7.52528274 C11.1132154,7.59657074 11.1204303,7.67226674 11.1048104,7.74051474 C11.0783311,7.85778274 10.9934633,7.91630274 10.9106782,7.92223074 C10.7288187,7.92549874 10.9934633,7.91630274 10.9106782,7.92223074 Z" id="Fill-6" fill="#FFFFFF"></path>
        </g>
    </g>
</svg>