<?xml version="1.0" encoding="UTF-8"?>
<svg width="27px" height="25px" viewBox="0 0 27 25" version="1.1" xmlns="http://www.w3.org/2000/svg" xmlns:xlink="http://www.w3.org/1999/xlink">
    <!-- Generator: Sketch 41.2 (35397) - http://www.bohemiancoding.com/sketch -->
    <title>Fill 1</title>
    <desc>Created with Sketch.</desc>
    <defs></defs>
    <g id="Styleguide" stroke="none" stroke-width="1" fill="none" fill-rule="evenodd">
        <g id="OZ-27/02-Home-page" transform="translate(-133.000000, -11.000000)" fill="#FFFFFF">
            <path d="M150.740027,22.5372957 L150.740027,21.0591243 C150.740027,20.6987352 150.795495,20.3198422 150.795495,20.3198422 L150.777035,20.3198422 C150.777035,20.3198422 150.638649,20.726491 150.453654,21.0036563 L149.456146,22.5188791 L149.456146,22.537383 L150.740027,22.5372957 Z M147.81144,22.8977285 L150.361571,18.8694266 L152.338561,18.8694266 L152.338561,22.5373393 L153.12371,22.5373393 L153.12371,23.8767317 L152.338561,23.8767317 L152.338561,25.475222 L150.740071,25.475222 L150.740071,23.8767317 L147.811484,23.8767317 L147.811484,22.8977285 L147.81144,22.8977285 Z M142.48874,24.7636084 C142.48874,22.3249376 145.343748,21.8904893 145.343748,20.9388491 C145.343748,20.4770815 144.974107,20.2832272 144.632222,20.2832272 C144.003919,20.2832272 143.653175,20.9851088 143.653175,20.9851088 L142.452125,20.1814559 C142.452125,20.1814559 143.061924,18.7587525 144.780209,18.7587525 C145.861027,18.7587525 147.034277,19.377803 147.034277,20.781959 C147.034277,22.8421732 144.37356,23.2395701 144.3273,24.0894826 L147.136049,24.0894826 L147.136049,25.4751347 L142.562799,25.4751347 C142.516496,25.2165169 142.48874,24.9856985 142.48874,24.7636084 L142.48874,24.7636084 Z M150.84433,30.6000092 C148.100825,28.3951244 147.333656,29.4789538 146.088834,30.7236448 C145.219763,31.5929777 143.020508,29.777547 141.121548,27.8784997 C139.222457,25.9791906 137.407376,23.7802846 138.276359,22.9110827 C139.521269,21.6663917 140.604793,20.8987865 138.399297,18.1560237 C136.194543,15.4122572 134.724794,17.5187311 133.518944,18.7246687 C132.126789,20.1163432 133.445583,25.3025337 138.571243,30.429023 C143.697601,35.5547267 148.883748,36.8726476 150.275074,35.4814967 C151.480793,34.2755155 153.587878,32.8059414 150.84433,30.6000092 L150.84433,30.6000092 Z M147.807294,11 C143.784142,11 140.223412,13.0084121 138.068104,16.0732906 C138.51416,16.3642902 138.948958,16.7633454 139.369484,17.2763479 C140.977401,14.87211 143.577239,13.1852899 146.585297,12.8226751 L147.80712,14.8902647 L149.028943,12.8226315 C153.652816,13.3798861 157.328191,17.0550869 157.885708,21.6789168 L155.817769,22.9009143 L157.885752,24.1229554 C157.513056,27.2143242 155.742619,29.8757833 153.230936,31.4709568 C153.390925,31.8356228 153.481044,32.2085369 153.496973,32.593016 C153.508713,32.8739781 153.479735,33.1394476 153.421474,33.3914756 C157.160173,31.3825834 159.708427,27.4344068 159.708427,22.9011325 C159.708427,16.3386728 154.369754,11 147.807294,11 L147.807294,11 Z" id="Fill-1"></path>
        </g>
    </g>
</svg>