<?xml version="1.0" encoding="UTF-8" standalone="no"?>
<svg width="27px" height="25px" viewBox="0 0 27 25" version="1.1" xmlns="http://www.w3.org/2000/svg" xmlns:xlink="http://www.w3.org/1999/xlink">
    <!-- Generator: Sketch 41.2 (35397) - http://www.bohemiancoding.com/sketch -->
    <title>Fill 1</title>
    <desc>Created with Sketch.</desc>
    <defs></defs>
    <g id="Page-1" stroke="none" stroke-width="1" fill="none" fill-rule="evenodd">
        <g id="PW" transform="translate(-92.000000, -11.000000)" fill="#FF7522">
            <path d="M109.740027,22.5372957 L109.740027,21.0591243 C109.740027,20.6987352 109.795495,20.3198422 109.795495,20.3198422 L109.777035,20.3198422 C109.777035,20.3198422 109.638649,20.726491 109.453654,21.0036563 L108.456146,22.5188791 L108.456146,22.537383 L109.740027,22.5372957 Z M106.81144,22.8977285 L109.361571,18.8694266 L111.338561,18.8694266 L111.338561,22.5373393 L112.12371,22.5373393 L112.12371,23.8767317 L111.338561,23.8767317 L111.338561,25.475222 L109.740071,25.475222 L109.740071,23.8767317 L106.811484,23.8767317 L106.811484,22.8977285 L106.81144,22.8977285 Z M101.48874,24.7636084 C101.48874,22.3249376 104.343748,21.8904893 104.343748,20.9388491 C104.343748,20.4770815 103.974107,20.2832272 103.632222,20.2832272 C103.003919,20.2832272 102.653175,20.9851088 102.653175,20.9851088 L101.452125,20.1814559 C101.452125,20.1814559 102.061924,18.7587525 103.780209,18.7587525 C104.861027,18.7587525 106.034277,19.377803 106.034277,20.781959 C106.034277,22.8421732 103.37356,23.2395701 103.3273,24.0894826 L106.136049,24.0894826 L106.136049,25.4751347 L101.562799,25.4751347 C101.516496,25.2165169 101.48874,24.9856985 101.48874,24.7636084 L101.48874,24.7636084 Z M109.84433,30.6000092 C107.100825,28.3951244 106.333656,29.4789538 105.088834,30.7236448 C104.219763,31.5929777 102.020508,29.777547 100.121548,27.8784997 C98.2224572,25.9791906 96.4073757,23.7802846 97.2763595,22.9110827 C98.5212686,21.6663917 99.6047926,20.8987865 97.3992967,18.1560237 C95.1945428,15.4122572 93.7247942,17.5187311 92.5189439,18.7246687 C91.1267893,20.1163432 92.445583,25.3025337 97.5712431,30.429023 C102.697601,35.5547267 107.883748,36.8726476 109.275074,35.4814967 C110.480793,34.2755155 112.587878,32.8059414 109.84433,30.6000092 L109.84433,30.6000092 Z M106.807294,11 C102.784142,11 99.223412,13.0084121 97.0681036,16.0732906 C97.5141604,16.3642902 97.9489578,16.7633454 98.3694845,17.2763479 C99.9774012,14.87211 102.577239,13.1852899 105.585297,12.8226751 L106.80712,14.8902647 L108.028943,12.8226315 C112.652816,13.3798861 116.328191,17.0550869 116.885708,21.6789168 L114.817769,22.9009143 L116.885752,24.1229554 C116.513056,27.2143242 114.742619,29.8757833 112.230936,31.4709568 C112.390925,31.8356228 112.481044,32.2085369 112.496973,32.593016 C112.508713,32.8739781 112.479735,33.1394476 112.421474,33.3914756 C116.160173,31.3825834 118.708427,27.4344068 118.708427,22.9011325 C118.708427,16.3386728 113.369754,11 106.807294,11 L106.807294,11 Z" id="Fill-1"></path>
        </g>
    </g>
</svg>
