<?xml version="1.0" encoding="UTF-8" standalone="no"?>
<svg width="19px" height="19px" viewBox="0 0 19 19" version="1.1" xmlns="http://www.w3.org/2000/svg" xmlns:xlink="http://www.w3.org/1999/xlink">
    <!-- Generator: Sketch 41.2 (35397) - http://www.bohemiancoding.com/sketch -->
    <title>telegram</title>
    <desc>Created with Sketch.</desc>
    <defs>
        <linearGradient x1="64.6541667%" y1="15.8041667%" x2="39.6541667%" y2="74.1366667%" id="linearGradient-1">
            <stop stop-color="#37AEE2" offset="0%"></stop>
            <stop stop-color="#1E96C8" offset="100%"></stop>
        </linearGradient>
        <linearGradient x1="61.3438559%" y1="47.150188%" x2="80.4983437%" y2="83.7095963%" id="linearGradient-2">
            <stop stop-color="#EFF7FC" offset="0%"></stop>
            <stop stop-color="#FFFFFF" offset="100%"></stop>
        </linearGradient>
    </defs>
    <g id="Page-1" stroke="none" stroke-width="1" fill="none" fill-rule="evenodd">
        <g id="telegram">
            <g id="svg2">
                <path d="M19,9.5 C19,14.74875 14.74875,19 9.5,19 C4.25125,19 0,14.74875 0,9.5 C0,4.25125 4.25125,0 9.5,0 C14.74875,0 19,4.25125 19,9.5 Z" id="path2995-1-0" fill="url(#linearGradient-1)"></path>
                <path d="M7.75833333,13.8541667 C7.44958333,13.8541667 7.505,13.7354167 7.39416667,13.4425 L6.49166667,10.4658333 L12.0966667,6.96666667 L12.75375,7.14083333 L12.2075,8.62916667 L7.75833333,13.8541667 Z" id="path2993" fill="#C8DAEA"></path>
                <path d="M7.75833333,13.8541667 C7.99583333,13.8541667 8.09875,13.7433333 8.23333333,13.6166667 C8.43916667,13.41875 11.0833333,10.8458333 11.0833333,10.8458333 L9.46041667,10.45 L7.95625,11.4 L7.75833333,13.775 L7.75833333,13.8541667 Z" id="path2989" fill="#A9C9DD"></path>
                <path d="M7.91666667,11.4316667 L11.7483333,14.2579167 C12.18375,14.4954167 12.5004167,14.3766667 12.61125,13.8541667 L14.1708333,6.5075 C14.3291667,5.86625 13.9254167,5.58125 13.5058333,5.77125 L4.35416667,9.30208333 C3.72875,9.55541667 3.73666667,9.90375 4.24333333,10.0541667 L6.59458333,10.7904167 L12.0333333,7.3625 C12.2866667,7.20416667 12.5241667,7.29125 12.3341667,7.46541667 L7.91666667,11.4316667 Z" id="path2991" fill="url(#linearGradient-2)"></path>
            </g>
        </g>
    </g>
</svg>