<?xml version="1.0" encoding="UTF-8" standalone="no"?>
<svg width="19px" height="19px" viewBox="0 0 19 19" version="1.1" xmlns="http://www.w3.org/2000/svg" xmlns:xlink="http://www.w3.org/1999/xlink">
    <!-- Generator: Sketch 41.2 (35397) - http://www.bohemiancoding.com/sketch -->
    <title>skype</title>
    <desc>Created with Sketch.</desc>
    <defs></defs>
    <g id="Page-1" stroke="none" stroke-width="1" fill="none" fill-rule="evenodd">
        <g id="skype">
            <g id="Layer_1">
                <g id="Group">
                    <path d="M18.4121712,11.4918767 C18.5484247,10.8740514 18.6206507,10.2354692 18.6206507,9.57853767 C18.6206507,4.65539041 14.5735856,0.663438356 9.57996918,0.663438356 C9.05336986,0.663438356 8.5367911,0.708465753 8.03446233,0.793770548 C7.22657192,0.291441781 6.27045548,0 5.24569178,0 C2.34903767,0 0.00208219178,2.31494178 0.00208219178,5.17131849 C0.00208219178,6.1250274 0.265674658,7.01828767 0.722390411,7.78661644 C0.602143836,8.36533562 0.53935274,8.96481164 0.53935274,9.57853767 C0.53935274,14.5034418 4.58641781,18.3467123 9.57944863,18.3467123 C10.1451541,18.3467123 10.6984315,18.2951781 11.2345308,18.1974452 C11.9731884,18.5883767 12.8167363,18.9586164 13.7135753,18.9586164 C16.6096438,18.9586164 18.9565993,16.6442603 18.9565993,13.7878836 C18.9565993,12.9639212 18.7604829,12.18375 18.4121712,11.4918767 Z" id="Shape" fill="#00AFF0"></path>
                    <path d="M13.7034247,13.2174281 C13.3545274,13.71325 12.8438699,14.1030103 12.1715822,14.3831952 C11.4992295,14.6657226 10.7031164,14.8055548 9.78200685,14.8055548 C8.67727397,14.8055548 7.76618493,14.6136027 7.04763356,14.2291781 C6.53938356,13.9531575 6.12535274,13.5835034 5.80664726,13.1226233 C5.48911301,12.6617432 5.32982534,12.2127705 5.32982534,11.776161 C5.32982534,11.5238253 5.42521575,11.3070171 5.61593151,11.1274932 C5.80664726,10.9456267 6.05013356,10.8562226 6.34456849,10.8562226 C6.58389041,10.8562226 6.78703425,10.9255205 6.9517226,11.0671096 C7.11758219,11.2075274 7.25917123,11.4154212 7.37525342,11.6920274 C7.5180137,12.0208185 7.67144521,12.2950822 7.83789041,12.5148185 C8.00257877,12.7345548 8.23597945,12.9170068 8.53568493,13.0597671 C8.83662671,13.2013562 9.2317226,13.2735822 9.71980137,13.2735822 C10.3915685,13.2735822 10.9376884,13.1302363 11.3582911,12.8417226 C11.7776575,12.5544452 11.9885445,12.1937055 11.9885445,11.7630171 C11.9885445,11.4217979 11.8748048,11.1427842 11.6484966,10.9313116 C11.4216027,10.7180822 11.1289897,10.5551507 10.7700068,10.4432329 C10.4116096,10.3300788 9.93179452,10.2104178 9.32997603,10.08425 C8.52611986,9.91188356 7.85259589,9.70808904 7.31122603,9.47709589 C6.76920548,9.24428082 6.33799658,8.92856849 6.02046233,8.5287226 C5.70175685,8.12711986 5.54298973,7.6295411 5.54298973,7.03540068 C5.54298973,6.46793836 5.71060616,5.96502397 6.04707534,5.52490068 C6.3829589,5.08419178 6.86810959,4.74596575 7.50545548,4.5089863 C8.14163014,4.27207192 8.89043836,4.15416781 9.74992808,4.15416781 C10.4370514,4.15416781 11.0317774,4.23296575 11.5335205,4.38873973 C12.0352637,4.54633562 12.4505308,4.75481507 12.7810137,5.01489384 C13.1121473,5.2749726 13.3543973,5.54741438 13.5066575,5.83352055 C13.6595034,6.11786986 13.7358938,6.39864041 13.7358938,6.66873973 C13.7358938,6.91691096 13.641089,7.14204795 13.4503733,7.34050685 C13.2596575,7.53955137 13.0215068,7.63962671 12.7365719,7.63962671 C12.4764932,7.63962671 12.2792705,7.57917808 12.1441884,7.46016781 C12.0091062,7.34050685 11.8628322,7.1450411 11.7058219,6.87311986 C11.5014418,6.48453082 11.2580205,6.18124658 10.9725,5.96385274 C10.6869795,5.74587329 10.2296781,5.63688356 9.59818836,5.63688356 C9.01354795,5.63688356 8.54082534,5.75420205 8.18184247,5.99170205 C7.82285959,6.22744521 7.64281507,6.51296575 7.64281507,6.84527055 C7.64281507,7.0502363 7.70502055,7.22910959 7.82643836,7.37896233 C7.94785616,7.5299863 8.11612329,7.65739041 8.33110959,7.76462329 C8.54375342,7.87244178 8.76056164,7.95657534 8.97912671,8.01871575 C9.19769178,8.07975 9.55966781,8.16798288 10.064339,8.28530137 C10.6945925,8.42096918 11.2662192,8.57140753 11.7780479,8.73492466 C12.2892911,8.8990274 12.72525,9.09865753 13.0842329,9.33140753 C13.4426301,9.56597945 13.7234007,9.86334247 13.9242021,10.2223253 C14.1250034,10.580137 14.2263151,11.019024 14.2263151,11.5391815 C14.2265103,12.1612363 14.0512158,12.7210205 13.7034247,13.2174281 Z" id="Shape" fill="#FFFFFF"></path>
                </g>
            </g>
        </g>
    </g>
</svg>