<?xml version="1.0" encoding="UTF-8"?>
<svg width="19px" height="19px" viewBox="0 0 19 19" version="1.1" xmlns="http://www.w3.org/2000/svg" xmlns:xlink="http://www.w3.org/1999/xlink">
    <!-- Generator: Sketch 41.2 (35397) - http://www.bohemiancoding.com/sketch -->
    <title>Group</title>
    <desc>Created with Sketch.</desc>
    <defs></defs>
    <g id="Styleguide" stroke="none" stroke-width="1" fill="none" fill-rule="evenodd">
        <g id="OZ-27/02-Home-page" transform="translate(-1260.000000, -16.000000)" fill="#FFEA93">
            <g id="Group-15" transform="translate(1075.000000, 13.000000)">
                <g id="Group" transform="translate(185.000000, 3.000000)">
                    <path d="M18.4563477,11.5194524 C18.5929281,10.9001445 18.6653274,10.26003 18.6653274,9.60152214 C18.6653274,4.66656139 14.6085511,0.665030329 9.60295208,0.665030329 C9.07508915,0.665030329 8.55727081,0.710165774 8.05373667,0.795675264 C7.24390766,0.292141119 6.28549694,0 5.25827424,0 C2.35466938,0 0.00208219178,2.32049667 0.00208219178,5.18372748 C0.00208219178,6.13972489 0.266307169,7.03512861 0.724118848,7.80530105 C0.603583731,8.38540891 0.540641963,8.98632342 0.540641963,9.60152214 C0.540641963,14.5382439 4.59741829,18.3907367 9.60243029,18.3907367 C10.1694932,18.3907367 10.7240983,18.3390788 11.261484,18.2411114 C12.001914,18.632981 12.8474861,19.0041092 13.7464772,19.0041092 C16.649495,19.0041092 19.0020822,16.6841995 19.0020822,13.8209687 C19.0020822,12.9950292 18.8054952,12.2129859 18.4563477,11.5194524 Z M13.7363021,13.2491444 C13.3865677,13.746156 12.8746848,14.1368516 12.2007839,14.4177088 C11.5268178,14.7009142 10.7287944,14.8410819 9.80547456,14.8410819 C8.69809079,14.8410819 7.78481552,14.6486692 7.06453992,14.2633221 C6.55507034,13.9866392 6.14004602,13.6160981 5.82057578,13.1541121 C5.50227958,12.692126 5.34260969,12.2420761 5.34260969,11.8044188 C5.34260969,11.5514777 5.438229,11.3341492 5.62940239,11.1541945 C5.82057578,10.9718916 6.06464634,10.882273 6.3597878,10.882273 C6.59968399,10.882273 6.80331528,10.9517372 6.96839882,11.093666 C7.1346564,11.2344208 7.2765852,11.4428134 7.39294594,11.7200834 C7.53604878,12.0496634 7.68984845,12.3245852 7.85669306,12.5448488 C8.0217766,12.7651124 8.25573735,12.9480022 8.55616199,13.0911051 C8.85782591,13.2330339 9.25386986,13.3054332 9.74311981,13.3054332 C10.4164989,13.3054332 10.9639292,13.1617434 11.3855412,12.8725373 C11.805914,12.5845706 12.017307,12.2229652 12.017307,11.7912434 C12.017307,11.4492055 11.9032943,11.1695222 11.6764431,10.9575422 C11.4490048,10.7438011 11.1556896,10.5804786 10.7958453,10.4682922 C10.4365881,10.3548666 9.95562166,10.2349185 9.35235905,10.108448 C8.54657397,9.93566792 7.87143382,9.73138438 7.3287649,9.49983694 C6.78544373,9.26646321 6.35320011,8.94999331 6.03490391,8.54918795 C5.71543367,8.14662154 5.55628558,7.64784879 5.55628558,7.05228269 C5.55628558,6.48345869 5.72430422,5.97933752 6.06158079,5.53815813 C6.39827033,5.0963917 6.88458517,4.75735408 7.52346042,4.51980597 C8.16116163,4.2823231 8.91176668,4.16413607 9.77331882,4.16413607 C10.4620909,4.16413607 11.058244,4.24312309 11.5611912,4.39927086 C12.0641383,4.55724491 12.4804019,4.76622463 12.8116778,5.02692747 C13.1436059,5.28763032 13.3864372,5.56072585 13.5390628,5.84751855 C13.6922755,6.13255018 13.7688492,6.41399446 13.7688492,6.6847419 C13.7688492,6.93350864 13.6738169,7.15918586 13.4826435,7.35812098 C13.2914701,7.55764313 13.052748,7.65795861 12.7671293,7.65795861 C12.5064265,7.65795861 12.3087306,7.59736492 12.1733243,7.47806908 C12.037918,7.35812098 11.891293,7.16218619 11.733906,6.88961246 C11.5290354,6.50009097 11.2850301,6.19607897 10.9988244,5.97816348 C10.7126187,5.75966097 10.25422,5.65040971 9.62121498,5.65040971 C9.03517168,5.65040971 8.56131474,5.76800972 8.20147045,6.00607962 C7.84162617,6.24238846 7.66114962,6.52859413 7.66114962,6.86169632 C7.66114962,7.06715391 7.72350436,7.24645641 7.84521352,7.39666874 C7.96692268,7.5480551 8.13559358,7.67576493 8.35109576,7.78325512 C8.56424985,7.89133233 8.78157831,7.97566778 9.00066785,8.0379573 C9.21975738,8.09913801 9.582602,8.1875826 10.0884842,8.30518261 C10.72025,8.44117597 11.2932484,8.59197531 11.8063053,8.75588481 C12.3187752,8.92038132 12.7557803,9.12049049 13.1156245,9.35379899 C13.4748818,9.58893378 13.7563261,9.88701034 13.9576093,10.2468546 C14.1588925,10.6055249 14.2604473,11.045465 14.2604473,11.5668707 C14.2606429,12.1904182 14.0849278,12.7515457 13.7363021,13.2491444 Z" id="Combined-Shape"></path>
                </g>
            </g>
        </g>
    </g>
</svg>