<?xml version="1.0" encoding="UTF-8"?>
<svg width="19px" height="19px" viewBox="0 0 19 19" version="1.1" xmlns="http://www.w3.org/2000/svg" xmlns:xlink="http://www.w3.org/1999/xlink">
    <!-- Generator: Sketch 41.2 (35397) - http://www.bohemiancoding.com/sketch -->
    <title>telegram copy</title>
    <desc>Created with Sketch.</desc>
    <defs></defs>
    <g id="Styleguide" stroke="none" stroke-width="1" fill="none" fill-rule="evenodd">
        <g id="OZ-27/02-Home-page" transform="translate(-1291.000000, -16.000000)" fill="#FFEA93">
            <g id="Group-15" transform="translate(1075.000000, 13.000000)">
                <g id="telegram-copy" transform="translate(216.000000, 3.000000)">
                    <g id="svg2">
                        <path d="M9.37518381,12.5074737 L11.7483333,14.2579167 C12.18375,14.4954167 12.5004167,14.3766667 12.61125,13.8541667 L14.1708333,6.5075 C14.3291667,5.86625 13.9254167,5.58125 13.5058333,5.77125 L4.35416667,9.30208333 C3.72875,9.55541667 3.73666667,9.90375 4.24333333,10.0541667 L6.58960493,10.7888578 L7.39416667,13.4425 C7.505,13.7354167 7.44958333,13.8541667 7.75833333,13.8541667 C7.99583333,13.8541667 8.09875,13.7433333 8.23333333,13.6166667 C8.31819782,13.5350662 8.81755188,13.0497421 9.37518381,12.5074737 Z M19,9.5 C19,14.74875 14.74875,19 9.5,19 C4.25125,19 0,14.74875 0,9.5 C0,4.25125 4.25125,0 9.5,0 C14.74875,0 19,4.25125 19,9.5 Z" id="Combined-Shape"></path>
                    </g>
                </g>
            </g>
        </g>
    </g>
</svg>