<?xml version="1.0" encoding="UTF-8"?>
<svg width="212px" height="55px" viewBox="0 0 212 55" version="1.1" xmlns="http://www.w3.org/2000/svg" xmlns:xlink="http://www.w3.org/1999/xlink">
    <!-- Generator: Sketch 50.2 (55047) - http://www.bohemiancoding.com/sketch -->
    <title>logo</title>
    <desc>Created with Sketch.</desc>
    <defs>
        <polygon id="path-1" points="8.43521371e-22 0.0154789643 8.43521371e-22 42.1255578 49.1081727 42.1255578 49.1081727 0.0154789643 0 0.0154789643"></polygon>
        <polygon id="path-3" points="39.2226243 0.036775277 0.0019920516 0.036775277 0.0019920516 39.3526581 39.2226243 39.3526581"></polygon>
        <polygon id="path-5" points="0.0213948983 6.80482135 131.940946 6.80482135 131.940946 0.0097082118 0.0213948983 0.0097082118"></polygon>
        <polygon id="path-7" points="18.7842817 28.7117989 18.7842817 0.0308190377 0.00555955762 0.0308190377 0.00555955762 28.7117989"></polygon>
    </defs>
    <g id="Page-1" stroke="none" stroke-width="1" fill="none" fill-rule="evenodd">
        <g id="header_footer" transform="translate(-508.000000, -308.000000)">
            <g id="header" transform="translate(146.000000, 244.000000)">
                <g id="logo" transform="translate(362.000000, 63.000000)">
                    <g id="Group-3" transform="translate(0.000000, 0.551329)">
                        <g transform="translate(0.000000, 0.000000)">
                            <g id="Fill-1-Clipped" transform="translate(0.000000, 12.795918)">
                                <mask id="mask-2" fill="white">
                                    <use xlink:href="#path-1"></use>
                                </mask>
                                <g id="path-1"></g>
                                <path d="M24.553484,42.1255578 C29.8153289,41.9479891 35.3980464,34.3296398 37.5559381,26.2353017 C36.2360993,27.3466867 34.5414873,28.0149925 32.6933062,28.0149925 C28.4832078,28.0149925 25.069129,24.547977 25.069129,20.2726737 C25.069129,15.9974969 28.4832078,12.5303971 32.6933062,12.5303971 C34.6364253,12.5303971 36.4095439,13.2694102 37.7561463,14.4851285 C37.4914151,13.6624297 37.1479699,12.8841863 36.7175533,12.1629974 C38.0410436,10.2536485 39.6744521,8.23634256 41.5140439,6.66902635 C46.4257631,2.48495152 47.1278403,4.5331024 47.1278403,4.5331024 C47.6342737,7.63823835 44.9205294,14.2426252 39.9524614,17.9019579 C40.167649,18.5814302 40.2931265,19.3017341 40.314081,20.0487112 C48.0323665,14.7602463 50.3365658,5.60694259 48.5215384,0.596081601 C47.7643157,-1.49509199 38.7683907,2.2803724 32.5966254,8.42781682 C30.5475307,7.39497672 27.9030398,6.86479866 24.553484,7.03061098 C21.1821854,6.8636188 18.5295615,7.3813662 16.4788486,8.39465435 C10.3075813,2.26680402 1.34281819,-1.49129958 0.586591356,0.596081601 C-1.22673478,5.60272882 1.07157238,14.7444446 8.77496153,20.03548 C8.79599896,19.3284073 8.9105222,18.6451847 9.10629055,17.9979899 C4.10257932,14.3146388 1.36912533,7.66322607 1.87908571,4.53647342 C1.87908571,4.53647342 2.58593477,2.47450134 7.53068313,6.68676637 C9.38280609,8.26474345 11.0272519,10.2955336 12.3594975,12.2179452 C11.9394959,12.9216467 11.6019428,13.6794533 11.3388713,14.4795241 C12.6846024,13.2671348 14.4554387,12.5303971 16.3954044,12.5303971 C20.6055027,12.5303971 24.0195816,15.9974969 24.0195816,20.2726737 C24.0195816,24.547977 20.6055027,28.0149925 16.3954044,28.0149925 C14.6122858,28.0149925 12.9720308,27.3929539 11.6733539,26.35097 C13.9637771,34.4927131 19.6309763,42.1180573 24.553484,42.1255578 Z M24.5541063,39.0562812 L24.5175917,39.0454097 C24.1214907,38.9270866 22.0357984,38.2198876 21.164426,36.2347749 C19.6836736,32.8613474 29.4244147,32.8613474 27.9437038,36.2347749 C27.0723313,38.2198876 24.986722,38.9270866 24.5906625,39.0454097 L24.5541063,39.0562812 Z M31.1086946,17.6546931 C31.328073,17.6546931 31.5409368,17.6827569 31.7443401,17.7351342 C31.615626,17.9379857 31.5409368,18.1792668 31.5409368,18.4385829 C31.5409368,19.1570328 32.1148394,19.739546 32.8222279,19.739546 C33.1016479,19.739546 33.3600721,19.6486126 33.5706953,19.4943882 C33.6460898,19.7404309 33.6866708,20.0016011 33.6866708,20.2726737 C33.6866708,21.718338 32.5321438,22.8907808 31.1086946,22.8907808 C29.685204,22.8907808 28.5308014,21.718338 28.5308014,20.2726737 C28.5308014,18.8271358 29.685204,17.6546931 31.1086946,17.6546931 Z M32.6933062,14.3188526 C29.4557425,14.3188526 26.8302973,16.985081 26.8302973,20.2726737 C26.8302973,23.5603929 29.4557425,26.2266213 32.6933062,26.2266213 C35.9307455,26.2266213 38.5561907,23.5603929 38.5561907,20.2726737 C38.5561907,16.985081 35.9307455,14.3188526 32.6933062,14.3188526 Z M16.3954044,14.3188526 C19.6330925,14.3188526 22.2584963,16.985081 22.2584963,20.2726737 C22.2584963,23.5603929 19.6330925,26.2266213 16.3954044,26.2266213 C13.1579651,26.2266213 10.5325613,23.5603929 10.5325613,20.2726737 C10.5325613,16.985081 13.1579651,14.3188526 16.3954044,14.3188526 Z M17.9800159,17.6546931 C16.5564838,17.6546931 15.4019567,18.8271358 15.4019567,20.2726737 C15.4019567,21.718338 16.5564838,22.8907808 17.9800159,22.8907808 C19.4035481,22.8907808 20.5579507,21.718338 20.5579507,20.2726737 C20.5579507,20.0016011 20.5173281,19.7404309 20.4420166,19.4943882 C20.231269,19.6486126 19.9728863,19.739546 19.6935492,19.739546 C18.9860777,19.739546 18.4122581,19.1570328 18.4122581,18.4385829 C18.4122581,18.1792668 18.4870302,17.9379857 18.6155784,17.7351342 C18.4122581,17.6827569 18.1993528,17.6546931 17.9800159,17.6546931 Z" id="Fill-1" fill="#E0481B" fill-rule="nonzero" mask="url(#mask-2)"></path>
                            </g>
                            <g id="Group-13" transform="translate(5.768935, 0.611936)">
                                <g id="Fill-11-Clipped">
                                    <mask id="mask-4" fill="white">
                                        <use xlink:href="#path-3"></use>
                                    </mask>
                                    <g id="path-5"></g>
                                    <path d="M37.9087003,10.7582548 L37.9087003,34.1877372 L39.2226243,39.3526581 L37.4290723,39.3526581 L37.1898602,39.3526581 L35.3962252,39.3526581 L36.7101078,34.1877372 L36.7101078,11.2557554 L27.0578707,15.2631629 L27.0578707,18.9808858 C24.8731712,18.1529565 22.1963933,17.7548462 18.9549934,17.9159227 C15.7101904,17.7548462 13.0347821,18.1375878 10.8523651,18.9399305 L10.8523651,15.2629939 L0.0019920516,10.7581703 L18.9554084,0.0367626104 L37.9087003,10.7581703 L37.9085342,10.7582548 L37.9087003,10.7582548 Z" id="Fill-11" fill="#E0481B" fill-rule="nonzero" mask="url(#mask-4)"></path>
                                </g>
                            </g>
                        </g>
                    </g>
                    <path d="M71.0982405,38.6979704 C72.739229,38.6916542 74.2729427,38.4567636 75.7057885,37.993341 C77.1385079,37.5299185 78.4387039,36.8698 79.6064187,36.0255757 C80.7677265,35.1813939 81.7713044,34.1847727 82.6045072,33.035924 C83.4439484,31.8868634 84.0876394,30.630044 84.5421559,29.2526633 C84.9902653,27.8815567 85.2175446,26.4343152 85.2237829,24.9108539 L85.2237829,24.834719 C85.2175446,23.3112154 84.9965879,21.8703325 84.5484364,20.4992259 C84.100327,19.1281617 83.4629164,17.8776161 82.6360785,16.7350414 C81.8028335,15.592509 80.811943,14.6022041 79.6505509,13.7643385 C78.4955237,12.9327893 77.2016926,12.2789872 75.7751694,11.8220081 C74.3487305,11.3649019 72.8150169,11.1300537 71.1740284,11.123695 C69.5329135,11.1300537 67.9991999,11.3649019 66.566354,11.8282821 C65.1335503,12.2917469 63.8333543,12.9518654 62.6657239,13.7960473 C61.5043318,14.6402715 60.5008381,15.6368927 59.6676353,16.7858685 C58.8281941,17.934802 58.1844187,19.1916639 57.7299445,20.5690445 C57.2817929,21.9401511 57.0546401,23.3873079 57.0483596,24.9108539 L57.0483596,24.9869888 C57.0546401,26.51045 57.2754702,27.9513329 57.7237061,29.3224395 C58.1718155,30.6935038 58.8092261,31.9441766 59.636064,33.0867089 C60.469309,34.2292412 61.4601995,35.2195038 62.6215073,36.0574117 C63.7765767,36.8889609 65.0704499,37.5427631 66.4969732,37.9996573 C67.923412,38.4567636 69.4571256,38.6916542 71.0982405,38.6979704 Z M71.1740284,33.2897636 C69.9936261,33.2834048 68.9143446,33.0611893 67.9360574,32.6232864 C66.95777,32.185341 66.111964,31.5821966 65.3986392,30.8140649 C64.6854409,30.0461875 64.1300145,29.1574948 63.7386827,28.1482409 C63.3473931,27.1389446 63.1517273,26.0597026 63.1454045,24.9108539 L63.1454045,24.834719 C63.1517273,23.6858279 63.3473931,22.6065859 63.7260374,21.6101343 C64.1110464,20.6071967 64.6539118,19.731179 65.3608296,18.9694059 C66.0678317,18.2076754 66.9072308,17.6174178 67.872957,17.185704 C68.8449637,16.7604762 69.9179226,16.5382606 71.0982405,16.5319018 C72.2785164,16.5382606 73.3577558,16.7604762 74.3361695,17.1983791 C75.3143725,17.6364091 76.1601785,18.2395112 76.8734189,19.0075582 C77.5867016,19.7755627 78.1420437,20.6642555 78.5334598,21.6735942 C78.9247494,22.6828904 79.1204152,23.7619629 79.126738,24.9108539 L79.126738,24.9869888 C79.1204152,26.1360071 78.9310299,27.2150795 78.5460209,28.2117007 C78.1610539,29.2144687 77.6182729,30.0904865 76.9113129,30.8522595 C76.2044373,31.6140325 75.3712766,32.2043325 74.3992699,32.6359614 C73.4271788,33.0611893 72.3542199,33.2834048 71.1740284,33.2897636 Z M86.249406,38.2409067 L108.327784,38.2409067 L108.327784,33.0993839 L93.7478099,33.0993839 L108.327784,16.0367706 L108.327784,11.5807164 L86.7038381,11.5807164 L86.7038381,16.7224087 L100.829507,16.7224087 L86.249406,33.7849796 L86.249406,38.2409067 Z" id="Fill-4" fill="#F7BC40" fill-rule="nonzero"></path>
                    <path d="M113.452748,30.2857269 C113.553208,31.107658 113.772867,31.8782184 114.111895,32.5973223 C114.451008,33.316512 114.877874,33.9328746 115.392748,34.4465816 C115.90758,34.9602027 116.497756,35.3711682 117.163192,35.6793066 C117.828629,35.9874879 118.538047,36.1416429 119.291448,36.1416429 C120.446769,36.1416429 121.495175,35.8591041 122.436915,35.2941551 C123.378656,34.7289916 124.138346,33.9714241 124.716027,33.0211091 L127.352868,34.7548057 C126.498924,36.1416429 125.368927,37.2524162 123.962542,38.0871685 C122.556242,38.921878 120.999252,39.3392326 119.291448,39.3392326 C118.111138,39.3392326 116.999926,39.1080645 115.957683,38.6457283 C114.915567,38.1835207 113.992653,37.5477763 113.18898,36.7388379 C112.385475,35.9296852 111.726077,34.972981 111.211413,33.8686827 C110.696581,32.7643414 110.388999,31.5699942 110.288498,30.2857269 C110.288498,30.157343 110.282209,30.0161379 110.269672,29.8619402 C110.257135,29.7079138 110.250762,29.5538018 110.250762,29.3997754 C110.250762,28.5778443 110.338727,27.8072839 110.514531,27.08818 C110.740521,26.0093954 111.129695,25.0013207 111.682262,24.0639555 C112.234703,23.1264619 112.893934,22.3175235 113.659829,21.6369691 C114.425767,20.9562001 115.292247,20.4233257 116.259145,20.0380026 C117.225916,19.6527653 118.236712,19.4601038 119.291448,19.4601038 C120.346185,19.4601038 121.357106,19.6527653 122.323919,20.0380026 C123.290901,20.4233257 124.15713,20.9562001 124.923109,21.6369691 C125.689047,22.3175235 126.348319,23.1264619 126.90076,24.0639555 C127.453369,25.0013207 127.842501,26.0093954 128.068617,27.08818 C128.244337,27.8072839 128.332218,28.5778443 128.332218,29.3997754 L128.332218,29.8619402 C128.332218,30.0161379 128.319681,30.157343 128.294608,30.2857269 L113.452748,30.2857269 Z M124.829022,27.08818 C124.402114,25.7782702 123.69257,24.7125213 122.700683,23.8905474 C121.708755,23.0686162 120.572301,22.6578651 119.291448,22.6578651 C118.010847,22.6578651 116.874351,23.0686162 115.882339,23.8905474 C114.890411,24.7125213 114.180908,25.7782702 113.754084,27.08818 L124.829022,27.08818 Z M139.783753,27.3579405 C140.461893,27.5119239 141.240325,27.7045426 142.119425,27.9356678 C142.998275,28.1668788 143.833392,28.5072204 144.624361,28.9566067 C145.415497,29.4061646 146.087264,30.0033167 146.639663,30.7480631 C147.192272,31.4929811 147.468324,32.4431674 147.468324,33.5988793 C147.468324,35.3967249 146.758907,36.8030298 145.340069,37.8175366 C143.921148,38.8319149 141.9562,39.3392326 139.444808,39.3392326 C138.540635,39.3392326 137.686943,39.2430519 136.88327,39.0503046 C136.079597,38.857686 135.351354,38.5817079 134.698454,38.222113 C134.045512,37.8623466 133.467872,37.4451635 132.965576,36.970006 C132.463407,36.4948485 132.08656,35.9618884 131.835455,35.3711682 L134.698454,34.3310188 C135.049977,34.8189976 135.652688,35.2427415 136.506591,35.6022935 C137.360367,35.9618884 138.339843,36.1416429 139.444808,36.1416429 C139.821488,36.1416429 140.273512,36.1159146 140.800922,36.0646725 C141.328289,36.013259 141.836915,35.8976964 142.326507,35.717899 C142.816223,35.5381015 143.236802,35.2813338 143.588367,34.9473814 C143.940015,34.613429 144.115734,34.1639998 144.115734,33.5988793 C144.115734,33.3420687 144.078251,33.085301 144.002907,32.8285333 C143.927479,32.5717656 143.732891,32.3147406 143.41902,32.0579729 C143.105064,31.8012052 142.615347,31.5442231 141.949911,31.2874126 C141.284307,31.0306449 140.348856,30.7737056 139.143347,30.5169379 C138.314643,30.3370976 137.479694,30.1381326 136.638412,29.9197429 C135.797004,29.7015675 135.043771,29.3869542 134.378167,28.9759886 C133.712731,28.5650231 133.166537,28.0448841 132.739711,27.4157003 C132.312634,26.7863879 132.099096,25.9838388 132.099096,25.0078814 C132.099096,23.3640192 132.727007,22.0285526 133.982704,21.0012246 C135.238358,19.9738965 136.971067,19.4601038 139.18104,19.4601038 C140.034984,19.4601038 140.857231,19.5501097 141.648367,19.7297785 C142.439628,19.9096617 143.161541,20.1728615 143.814483,20.5196351 C144.467384,20.8663229 145.038733,21.2772885 145.528367,21.7523602 C146.018209,22.2275177 146.376063,22.7604778 146.602096,23.3511979 L143.739139,24.3913473 C143.437845,23.8778118 142.904188,23.4604143 142.138251,23.1392402 C141.372313,22.8182806 140.499628,22.6578651 139.520152,22.6578651 C138.2393,22.6578651 137.24104,22.8760404 136.525416,23.3126485 C135.809708,23.7493851 135.451812,24.3143341 135.451812,25.0078814 C135.451812,25.2389208 135.483174,25.4508785 135.54594,25.6434543 C135.608748,25.8360301 135.778263,26.0222167 136.054525,26.202057 C136.330662,26.3818116 136.763944,26.5679982 137.354161,26.7607883 C137.944253,26.9533641 138.754215,27.1523719 139.783753,27.3579405 Z M159.673344,27.3579405 C160.351485,27.5119239 161.129917,27.7045426 162.008933,27.9356678 C162.887866,28.1668788 163.722817,28.5072204 164.513953,28.9566067 C165.305006,29.4061646 165.976857,30.0033167 166.529256,30.7480631 C167.081864,31.4929811 167.358,32.4431674 167.358,33.5988793 C167.358,35.3967249 166.648498,36.8030298 165.229661,37.8175366 C163.810824,38.8319149 161.845625,39.3392326 159.334316,39.3392326 C158.430227,39.3392326 157.576534,39.2430519 156.772862,39.0503046 C155.96919,38.857686 155.240945,38.5817079 154.588045,38.222113 C153.935103,37.8623466 153.357464,37.4451635 152.855169,36.970006 C152.352999,36.4948485 151.976236,35.9618884 151.72513,35.3711682 L154.588045,34.3310188 C154.939652,34.8189976 155.542281,35.2427415 156.396267,35.6022935 C157.249958,35.9618884 158.229434,36.1416429 159.334316,36.1416429 C159.71108,36.1416429 160.163188,36.1159146 160.690555,36.0646725 C161.217797,36.013259 161.72634,35.8976964 162.216015,35.717899 C162.705816,35.5381015 163.126394,35.2813338 163.478043,34.9473814 C163.829608,34.613429 164.00541,34.1639998 164.00541,33.5988793 C164.00541,33.3420687 163.967843,33.085301 163.892415,32.8285333 C163.81707,32.5717656 163.622484,32.3147406 163.308696,32.0579729 C162.994657,31.8012052 162.50494,31.5442231 161.839336,31.2874126 C161.173899,31.0306449 160.238447,30.7737056 159.032939,30.5169379 C158.204236,30.3370976 157.369285,30.1381326 156.528003,29.9197429 C155.686596,29.7015675 154.933363,29.3869542 154.267759,28.9759886 C153.602322,28.5650231 153.056171,28.0448841 152.629304,27.4157003 C152.202227,26.7863879 151.988772,25.9838388 151.988772,25.0078814 C151.988772,23.3640192 152.6166,22.0285526 153.872212,21.0012246 C155.12795,19.9738965 156.860659,19.4601038 159.070716,19.4601038 C159.924576,19.4601038 160.746907,19.5501097 161.538043,19.7297785 C162.329053,19.9096617 163.051134,20.1728615 163.704076,20.5196351 C164.356975,20.8663229 164.928326,21.2772885 165.418,21.7523602 C165.907802,22.2275177 166.265655,22.7604778 166.491688,23.3511979 L163.628815,24.3913473 C163.327438,23.8778118 162.793613,23.4604143 162.027675,23.1392402 C161.26178,22.8182806 160.389221,22.6578651 159.409745,22.6578651 C158.128975,22.6578651 157.130716,22.8760404 156.415008,23.3126485 C155.6993,23.7493851 155.341488,24.3143341 155.341488,25.0078814 C155.341488,25.2389208 155.372766,25.4508785 155.435533,25.6434543 C155.49834,25.8360301 155.667854,26.0222167 155.944117,26.202057 C156.220421,26.3818116 156.653535,26.5679982 157.243753,26.7607883 C157.833845,26.9533641 158.643807,27.1523719 159.673344,27.3579405 Z M189.73387,20.1535652 L189.73387,38.6457283 L186.494359,38.6457283 L186.494359,36.4884164 C185.690687,37.3873607 184.748947,38.0871685 183.66897,38.5878827 C182.589161,39.0888541 181.421345,39.3392326 180.165816,39.3392326 C178.909995,39.3392326 177.736016,39.0824649 176.643544,38.5687152 C175.551199,38.0550939 174.596923,37.3488112 173.780755,36.449867 C172.964546,35.5509228 172.317936,34.4979522 171.840755,33.290698 C171.363658,32.0836154 171.125131,30.7866984 171.125131,29.3997754 C171.125131,28.038495 171.363658,26.7542276 171.840755,25.5470592 C172.317936,24.3399766 172.964546,23.287006 173.780755,22.3880618 C174.596923,21.4891604 175.551199,20.7764028 176.643544,20.2499603 C177.736016,19.7233893 178.909995,19.4601038 180.165816,19.4601038 C181.421345,19.4601038 182.589161,19.710611 183.66897,20.2114538 C184.748947,20.7122109 185.690687,21.4121901 186.494359,22.3110914 L186.494359,20.1535652 L189.73387,20.1535652 Z M180.429417,36.1416429 C181.25812,36.1416429 182.0428,35.9618884 182.783747,35.6022935 C183.524612,35.2427415 184.171307,34.7611519 184.723747,34.1576107 C185.276314,33.5540693 185.709429,32.8413545 186.023343,32.0194235 C186.337298,31.1974923 186.494359,30.3242763 186.494359,29.3997754 C186.494359,28.4750172 186.337298,27.6018869 186.023343,26.7799559 C185.709429,25.9580247 185.276314,25.2454815 184.723747,24.6417258 C184.171307,24.038356 183.524612,23.556595 182.783747,23.1970859 C182.0428,22.837491 181.25812,22.6578651 180.429417,22.6578651 C179.600672,22.6578651 178.815993,22.837491 178.075044,23.1970859 C177.33418,23.556595 176.687527,24.038356 176.135086,24.6417258 C175.582645,25.2454815 175.143074,25.9580247 174.816749,26.7799559 C174.490132,27.6018869 174.326949,28.4750172 174.326949,29.3997754 C174.326949,30.3242763 174.490132,31.1974923 174.816749,32.0194235 C175.143074,32.8413545 175.582645,33.5540693 176.135086,34.1576107 C176.687527,34.7611519 177.33418,35.2427415 178.075044,35.6022935 C178.815993,35.9618884 179.600672,36.1416429 180.429417,36.1416429 Z" id="Fill-6" fill="#FFFFFF" fill-rule="nonzero"></path>
                    <g id="Group-10" transform="translate(58.971338, 41.904282)">
                        <g id="Fill-8-Clipped">
                            <mask id="mask-6" fill="white">
                                <use xlink:href="#path-5"></use>
                            </mask>
                            <g id="path-3"></g>
                            <path d="M3.4589558,0.476890128 L6.08601928,6.64622364 L5.20442778,6.64622364 L4.44743845,4.87461934 L1.66010076,4.87461934 L0.911987753,6.64622364 L0.0213948983,6.64622364 L2.64858339,0.476890128 L3.4589558,0.476890128 Z M2.00736154,4.06381456 L4.10017765,4.06381456 L3.05822861,1.6137077 L2.00736154,4.06381456 Z M7.56857655,5.37702136 C7.54478129,5.26538105 7.53294616,5.16252514 7.53294616,5.06849488 L7.53294616,4.94518328 L7.53294616,2.41572807 L8.28993551,2.41572807 L8.28993551,4.90988068 C8.28993551,5.00976722 8.3002704,5.12726379 8.32102354,5.26237043 C8.34190169,5.3975183 8.38786697,5.52680991 8.45908606,5.65012152 C8.53030514,5.77368058 8.63569607,5.87929966 8.77525882,5.96755613 C8.91482156,6.05560639 9.10335004,6.09969339 9.34080257,6.09969339 C9.62572059,6.09969339 9.85429684,6.05560639 10.0264895,5.96755613 C10.1986822,5.87929966 10.3292435,5.776485 10.4182987,5.65894717 C10.5074371,5.54149183 10.5667794,5.42119084 10.5963672,5.29767302 C10.6260801,5.17432017 10.6439161,5.07732053 10.6498753,5.00692156 L10.6498753,2.41572807 L11.4158243,2.41572807 L11.4158243,6.64622364 L10.6498753,6.64622364 L10.6498753,6.26709199 C10.6498753,6.26709199 10.6217044,6.29653831 10.5652792,6.35530722 C10.5088957,6.41403489 10.4257164,6.47577318 10.3159082,6.54035712 C10.2061,6.60510603 10.0695377,6.66519466 9.90626302,6.72107668 C9.74303002,6.77687621 9.55150109,6.80483784 9.33188456,6.80483784 C9.00529356,6.80483784 8.7352111,6.75637927 8.52147048,6.65933839 C8.30768819,6.56250372 8.13403696,6.44203776 8.00043345,6.298023 C7.86687161,6.15409072 7.76743992,5.99832217 7.70209671,5.83088233 C7.63675351,5.66348371 7.59233014,5.51221048 7.56857655,5.37702136 Z M15.2137314,4.06381456 C15.3740055,4.09907591 15.5580333,4.14316291 15.7658147,4.19595182 C15.9736794,4.24886446 16.1710009,4.32676935 16.3579875,4.42962526 C16.5450991,4.53243993 16.7039147,4.66890753 16.8345178,4.83931675 C16.9652042,5.00976722 17.0304224,5.22710909 17.0304224,5.49154856 C17.0304224,5.90293094 16.8626888,6.22448969 16.5272631,6.45663719 C16.1918791,6.68882595 15.7273089,6.80483784 15.1335942,6.80483784 C14.9198953,6.80483784 14.7179898,6.78265 14.5280445,6.73872797 C14.3380157,6.69464098 14.165823,6.63137676 14.0114247,6.54918277 C13.8571514,6.46694753 13.7205058,6.37143259 13.6018628,6.26276165 C13.4830533,6.15409072 13.3939981,6.03209883 13.3346142,5.89699219 L14.0114247,5.65894717 C14.094604,5.77062872 14.2371254,5.8676696 14.438906,5.94990483 C14.6407698,6.03209883 14.8723464,6.07321645 15.1335942,6.07321645 C15.2226494,6.07321645 15.3294571,6.06740142 15.454226,6.05560639 C15.5788281,6.04389385 15.6990546,6.01745815 15.8148222,5.97638178 C15.9305896,5.93526416 16.030063,5.87649525 16.1131589,5.80011628 C16.1962964,5.72373732 16.2378444,5.62088141 16.2378444,5.49154856 C16.2378444,5.4328209 16.228968,5.37405199 16.211132,5.31528307 C16.193296,5.25659664 16.1473307,5.19782773 16.0730277,5.13905882 C15.9988916,5.08033115 15.8831241,5.02156224 15.725767,4.96279333 C15.5684933,4.9041069 15.3472515,4.84533799 15.0622918,4.78656907 C14.8663872,4.74532773 14.6689407,4.69983853 14.470119,4.64997775 C14.2711723,4.60003448 14.0931037,4.52798586 13.9357466,4.43391436 C13.7784312,4.33992534 13.6492867,4.2210678 13.5483548,4.07713551 C13.4474229,3.93316199 13.3970403,3.74943182 13.3970403,3.52623368 C13.3970403,3.15011264 13.5453543,2.84476175 13.8422325,2.60960362 C14.139069,2.37461046 14.5487142,2.25711388 15.0712098,2.25711388 C15.2730737,2.25711388 15.467478,2.27773455 15.6545479,2.31885216 C15.8415762,2.35996978 16.012227,2.42018214 16.1666253,2.49940675 C16.3209403,2.57879634 16.456044,2.6728266 16.5718115,2.78149753 C16.6875789,2.89020971 16.7722168,3.01220159 16.8255998,3.14730823 L16.1488309,3.38514705 C16.0776118,3.26765047 15.9513844,3.17225924 15.7702737,3.09868469 C15.5892464,3.02531634 15.3829236,2.98869403 15.1514302,2.98869403 C14.8485928,2.98869403 14.6125989,3.03847233 14.443365,3.13848258 C14.2741728,3.23832787 14.1895767,3.36766072 14.1895767,3.52623368 C14.1895767,3.57902259 14.1969944,3.62760489 14.2117883,3.67173313 C14.2267072,3.71565516 14.2667133,3.75821623 14.3320148,3.79937509 C14.397358,3.84065767 14.4997484,3.883095 14.6392695,3.927182 C14.7787906,3.97126899 14.9702779,4.01688192 15.2137314,4.06381456 Z M21.0153577,6.70779697 C20.9975216,6.71377696 20.9500562,6.72841764 20.8728361,6.75188396 C20.7957412,6.77535029 20.6991849,6.79147565 20.5834174,6.80030129 C20.4676082,6.80912694 20.3400056,6.80178598 20.2004012,6.7783609 C20.0609635,6.75489458 19.9258597,6.69897132 19.7952567,6.61092106 C19.3975299,6.34648158 19.1986666,5.8500183 19.1986666,5.12140752 L19.1986666,3.14730823 L18.6554178,3.14730823 L18.6554178,2.41572807 L19.1986666,2.41572807 L19.1986666,0.459238834 L19.9377782,0.459238834 L19.9377782,2.41572807 L20.8283711,2.41572807 L20.8283711,3.14730823 L19.9377782,3.14730823 L19.9377782,5.12140752 C19.9377782,5.58557883 20.026875,5.87929966 20.2049852,6.00281748 C20.2583683,6.03812006 20.3162937,6.05857577 20.3785948,6.0643908 C20.4408958,6.07037079 20.498863,6.07185548 20.5522461,6.06888611 C20.6056291,6.06591673 20.6516777,6.05857577 20.6902669,6.04694571 C20.7288977,6.0350682 20.748234,6.02929442 20.748234,6.02929442 L21.0153577,6.70779697 Z M24.7063318,2.24828823 C24.8963605,2.24828823 25.0685949,2.26593952 25.2228681,2.30120087 L25.1160604,3.02383165 C25.0091275,2.98271404 24.8696065,2.96225833 24.6974138,2.96225833 C24.4124958,2.96225833 24.1853365,3.00486064 24.0161859,3.09006525 C23.8469937,3.1751049 23.716349,3.2779608 23.624335,3.398468 C23.5322795,3.51893396 23.4715203,3.63927619 23.4418492,3.7597834 C23.412053,3.88020811 23.3943003,3.9757643 23.3883411,4.04616327 L23.3883411,6.64622364 L22.63131,6.64622364 L22.63131,2.41572807 L23.3883411,2.41572807 L23.3883411,2.79465352 C23.3943003,2.78883849 23.42543,2.75807245 23.4818552,2.70210795 C23.5382387,2.64634965 23.6199177,2.58461137 23.7267672,2.51705805 C23.8336583,2.44950473 23.9686787,2.38776645 24.1319534,2.33196691 C24.2952697,2.27624986 24.4867153,2.24828823 24.7063318,2.24828823 Z M30.7930012,2.41572807 L30.7930012,6.64622364 L30.0270939,6.64622364 L30.0270939,6.15260603 C29.8371485,6.35827659 29.6145315,6.51837549 29.359243,6.63290269 C29.1038711,6.74755362 28.8278294,6.80483784 28.5310346,6.80483784 C28.2341147,6.80483784 27.9565727,6.74606893 27.6982421,6.62857235 C27.4401198,6.51103452 27.2144607,6.34949219 27.0214732,6.14378038 C26.8284857,5.93806857 26.6756293,5.69726038 26.562904,5.42119084 C26.4500536,5.14491509 26.3936284,4.8481424 26.3936284,4.53095524 C26.3936284,4.21958311 26.4500536,3.92565607 26.562904,3.64958653 C26.6756293,3.37347575 26.8284857,3.13250259 27.0214732,2.92695574 C27.2144607,2.72128517 27.4401198,2.55817567 27.6982421,2.43783343 C27.9565727,2.31736747 28.2341147,2.25711388 28.5310346,2.25711388 C28.8278294,2.25711388 29.1038711,2.31435686 29.359243,2.42900779 C29.6145315,2.54349375 29.8371485,2.70363388 30.0270939,2.90930445 L30.0270939,2.41572807 L30.7930012,2.41572807 Z M28.5933356,6.07321645 C28.7892402,6.07321645 28.9747266,6.03209883 29.1498363,5.94990483 C29.3250711,5.8676696 29.4779276,5.75751398 29.6085306,5.61935549 C29.739217,5.48123823 29.8416075,5.31833493 29.9157854,5.13023317 C29.9900049,4.94217265 30.0270939,4.74248208 30.0270939,4.53095524 C30.0270939,4.3194284 29.9900049,4.11973783 29.9157854,3.9316773 C29.8416075,3.74361679 29.739217,3.58050728 29.6085306,3.44255499 C29.4779276,3.30443775 29.3250711,3.19424088 29.1498363,3.11204688 C28.9747266,3.02981165 28.7892402,2.98869403 28.5933356,2.98869403 C28.397431,2.98869403 28.2118197,3.02981165 28.0366682,3.11204688 C27.8615584,3.19424088 27.7086603,3.30443775 27.5780989,3.44255499 C27.4475376,3.58050728 27.3436052,3.74361679 27.2664269,3.9316773 C27.1892069,4.11973783 27.1506594,4.3194284 27.1506594,4.53095524 C27.1506594,4.74248208 27.1892069,4.94217265 27.2664269,5.13023317 C27.3436052,5.31833493 27.4475376,5.48123823 27.5780989,5.61935549 C27.7086603,5.75751398 27.8615584,5.8676696 28.0366682,5.94990483 C28.2118197,6.03209883 28.397431,6.07321645 28.5933356,6.07321645 Z M33.0413825,6.64622364 L33.7982885,6.64622364 L33.7982885,0.459238834 L33.0413825,0.459238834 L33.0413825,6.64622364 Z M35.8685178,6.64622364 L36.6255072,6.64622364 L36.6255072,2.41572807 L35.8685178,2.41572807 L35.8685178,6.64622364 Z M36.7412747,1.20830532 C36.7412747,1.3434532 36.6938091,1.45942385 36.5988364,1.55646473 C36.5038221,1.65329939 36.3880547,1.70192294 36.2514924,1.70192294 C36.1149301,1.70192294 35.997704,1.65329939 35.8996893,1.55646473 C35.8017161,1.45942385 35.7528337,1.3434532 35.7528337,1.20830532 C35.7528337,1.07315745 35.8017161,0.958671482 35.8996893,0.864641221 C35.997704,0.770610962 36.1149301,0.723472109 36.2514924,0.723472109 C36.3880547,0.723472109 36.5038221,0.770610962 36.5988364,0.864641221 C36.6938091,0.958671482 36.7412747,1.07315745 36.7412747,1.20830532 Z M42.8278607,2.41572807 L42.8278607,6.64622364 L42.0620367,6.64622364 L42.0620367,6.15260603 C41.872008,6.35827659 41.6494744,6.51837549 41.3941025,6.63290269 C41.1388139,6.74755362 40.8627722,6.80483784 40.5658941,6.80483784 C40.2690992,6.80483784 39.991474,6.74606893 39.733185,6.62857235 C39.4749793,6.51103452 39.2494035,6.34949219 39.056416,6.14378038 C38.8634286,5.93806857 38.7105722,5.69726038 38.5977635,5.42119084 C38.4849964,5.14491509 38.4285712,4.8481424 38.4285712,4.53095524 C38.4285712,4.21958311 38.4849964,3.92565607 38.5977635,3.64958653 C38.7105722,3.37347575 38.8634286,3.13250259 39.056416,2.92695574 C39.2494035,2.72128517 39.4749793,2.55817567 39.733185,2.43783343 C39.991474,2.31736747 40.2690992,2.25711388 40.5658941,2.25711388 C40.8627722,2.25711388 41.1388139,2.31435686 41.3941025,2.42900779 C41.6494744,2.54349375 41.872008,2.70363388 42.0620367,2.90930445 L42.0620367,2.41572807 L42.8278607,2.41572807 Z M40.6282785,6.07321645 C40.8241831,6.07321645 41.0096694,6.03209883 41.1847792,5.94990483 C41.360014,5.8676696 41.5127871,5.75751398 41.6434735,5.61935549 C41.7740765,5.48123823 41.876467,5.31833493 41.9507282,5.13023317 C42.0249477,4.94217265 42.0620367,4.74248208 42.0620367,4.53095524 C42.0620367,4.3194284 42.0249477,4.11973783 41.9507282,3.9316773 C41.876467,3.74361679 41.7740765,3.58050728 41.6434735,3.44255499 C41.5127871,3.30443775 41.360014,3.19424088 41.1847792,3.11204688 C41.0096694,3.02981165 40.8241831,2.98869403 40.6282785,2.98869403 C40.4322905,2.98869403 40.2467625,3.02981165 40.071611,3.11204688 C39.8965013,3.19424088 39.7436031,3.30443775 39.6129584,3.44255499 C39.4823971,3.58050728 39.378423,3.74361679 39.3013697,3.9316773 C39.2241497,4.11973783 39.1855188,4.3194284 39.1855188,4.53095524 C39.1855188,4.74248208 39.2241497,4.94217265 39.3013697,5.13023317 C39.378423,5.31833493 39.4823971,5.48123823 39.6129584,5.61935549 C39.7436031,5.75751398 39.8965013,5.8676696 40.071611,5.94990483 C40.2467625,6.03209883 40.4322905,6.07321645 40.6282785,6.07321645 Z M48.8343513,3.68484788 C48.8462698,3.74943182 48.8551878,3.8066748 48.8610637,3.85678303 C48.8671063,3.90668505 48.8699817,3.95233922 48.8699817,3.9934156 L48.8699817,4.1167272 L48.8699817,6.64622364 L48.1130756,6.64622364 L48.1130756,4.15198855 C48.1130756,4.05799954 48.1026157,3.94330736 48.0818626,3.80815949 C48.0610262,3.67305285 48.0151442,3.54388497 47.9438418,3.4204084 C47.8726227,3.29709678 47.7657316,3.19123026 47.6231684,3.10322124 C47.4807302,3.01500601 47.2907432,2.97108398 47.0532489,2.97108398 C46.7682475,2.97108398 46.5411299,3.01352132 46.3719794,3.09868469 C46.2027871,3.18393054 46.0721841,3.28678645 45.9801285,3.40729365 C45.888073,3.52775961 45.8272721,3.64810184 45.797601,3.7685678 C45.7678465,3.88903376 45.7500938,3.98458994 45.7440928,4.05498892 L45.7440928,6.64622364 L44.9871035,6.64622364 L44.9871035,2.41572807 L45.7440928,2.41572807 L45.7440928,2.79465352 C45.7500938,2.79465352 45.7812651,2.76537217 45.837732,2.70660326 C45.8940322,2.64787559 45.9771698,2.5861373 46.0870197,2.52155336 C46.1968279,2.45684569 46.3333485,2.39675706 46.4966649,2.34079255 C46.6599395,2.2850755 46.8484263,2.25711388 47.0620836,2.25711388 C47.3886746,2.25711388 47.660299,2.30553121 47.8770401,2.40253084 C48.0936977,2.49940675 48.2688492,2.61991396 48.4024528,2.76384624 C48.5360146,2.90781976 48.6354462,3.06342334 48.7008311,3.23102815 C48.766216,3.398468 48.8105977,3.54974125 48.8343513,3.68484788 Z M54.6627734,3.00618036 C55.1140081,3.11786191 55.4806052,3.25296854 55.7626061,3.41158275 C56.0445654,3.57036191 56.2656821,3.73924521 56.426123,3.91835635 C56.5863972,4.09759122 56.6947053,4.27835202 56.7510471,4.4603913 C56.8075139,4.64263679 56.8358516,4.81589166 56.8358516,4.98044462 C56.8358516,5.23308908 56.7764259,5.46960817 56.657533,5.68991942 C56.5388484,5.91027191 56.3770322,6.10266276 56.1722513,6.26709199 C55.9673871,6.43168619 55.7269757,6.56250372 55.4509757,6.65933839 C55.1748923,6.75637927 54.8795977,6.80483784 54.5649253,6.80483784 C54.2739229,6.80483784 53.9978396,6.76367899 53.7365084,6.68132003 C53.4753857,6.59908479 53.2453093,6.48459883 53.0463625,6.33765592 C52.8476241,6.19071302 52.6828076,6.01894284 52.5521629,5.82205667 C52.4214348,5.62521175 52.3414227,5.41236519 52.3116682,5.18314581 L53.0507799,5.0331923 C53.133959,5.30348805 53.3105691,5.53134646 53.5808183,5.7162314 C53.850859,5.90144626 54.1789502,5.99399182 54.5649253,5.99399182 C54.7608298,5.99399182 54.9463162,5.96755613 55.1213842,5.91464349 C55.2965774,5.86164836 55.4494755,5.78828001 55.5801202,5.69424976 C55.7105983,5.60026074 55.8129888,5.4930745 55.887375,5.3725673 C55.9615528,5.25222506 55.9986418,5.12140752 55.9986418,4.98044462 C55.9986418,4.4399356 55.488148,4.04335886 54.466827,3.7907144 C54.223582,3.73198673 53.9770031,3.66422721 53.7276321,3.5880132 C53.4784278,3.51142804 53.2542689,3.41009806 53.0552388,3.28377583 C52.8563338,3.1574536 52.6930591,2.99735471 52.5654149,2.80347917 C52.4378122,2.60960362 52.3740943,2.36281543 52.3740943,2.06323833 C52.3740943,1.81059387 52.4244769,1.57692043 52.5254088,1.36258917 C52.626299,1.14805172 52.7689039,0.964486511 52.9528484,0.81172858 C53.1370428,0.658929409 53.3594932,0.538422209 53.620866,0.450413187 C53.8819471,0.362197958 54.1700739,0.318275929 54.4846632,0.318275929 C54.7636636,0.318275929 55.0250364,0.359352305 55.2683231,0.441628782 C55.5118599,0.523822775 55.7255588,0.636989016 55.909545,0.780921298 C56.0936978,0.924853579 56.2435538,1.09513908 56.3593629,1.29202524 C56.4751304,1.48891141 56.5477247,1.70472735 56.5775208,1.93992672 L55.8382426,2.09849968 C55.7730244,1.8164089 55.624502,1.58426139 55.393092,1.40222211 C55.1615153,1.22010035 54.8586779,1.12895698 54.4846632,1.12895698 C54.0868113,1.12895698 53.7765561,1.21713096 53.5540226,1.39339646 C53.3314056,1.56962071 53.2200554,1.79294257 53.2200554,2.06323833 C53.2200554,2.16889865 53.2394334,2.26445483 53.2779392,2.34961821 C53.316445,2.43486406 53.3877474,2.51272771 53.4916798,2.58312668 C53.5956122,2.65369062 53.7410508,2.72276986 53.9280374,2.79032318 C54.1150656,2.85787649 54.3598943,2.9298014 54.6627734,3.00618036 Z M60.5623312,6.70779697 C60.5444951,6.71377696 60.4971129,6.72841764 60.4198929,6.75188396 C60.3427146,6.77535029 60.2462,6.79147565 60.1305575,6.80030129 C60.0147901,6.80912694 59.8870208,6.80178598 59.7475831,6.7783609 C59.6080203,6.75489458 59.4729582,6.69897132 59.3423552,6.61092106 C58.9446701,6.34648158 58.7456401,5.8500183 58.7456401,5.12140752 L58.7456401,3.14730823 L58.2025163,3.14730823 L58.2025163,2.41572807 L58.7456401,2.41572807 L58.7456401,0.459238834 L59.4847934,0.459238834 L59.4847934,2.41572807 L60.3753863,2.41572807 L60.3753863,3.14730823 L59.4847934,3.14730823 L59.4847934,5.12140752 C59.4847934,5.58557883 59.5738902,5.87929966 59.7520004,6.00281748 C59.8054668,6.03812006 59.8633089,6.05857577 59.9256933,6.0643908 C59.9879527,6.07037079 60.0458781,6.07185548 60.0992195,6.06888611 C60.1526859,6.06591673 60.1988178,6.05857577 60.2373236,6.04694571 C60.2759962,6.0350682 60.2952908,6.02929442 60.2952908,6.02929442 L60.5623312,6.70779697 Z M62.1249838,5.37702136 C62.1012303,5.26538105 62.0893534,5.16252514 62.0893534,5.06849488 L62.0893534,4.94518328 L62.0893534,2.41572807 L62.8463844,2.41572807 L62.8463844,4.90988068 C62.8463844,5.00976722 62.8568027,5.12726379 62.8775559,5.26237043 C62.8983923,5.3975183 62.9442742,5.52680991 63.0155766,5.65012152 C63.0868791,5.77368058 63.1921033,5.87929966 63.3317078,5.96755613 C63.4713122,6.05560639 63.659799,6.09969339 63.8972099,6.09969339 C64.1820862,6.09969339 64.4106624,6.05560639 64.5828551,5.96755613 C64.7550894,5.87929966 64.8857342,5.776485 64.9747059,5.65894717 C65.0638027,5.54149183 65.123145,5.42119084 65.1529412,5.29767302 C65.1825706,5.17432017 65.2004066,5.07732053 65.2064076,5.00692156 L65.2064076,2.41572807 L65.9722316,2.41572807 L65.9722316,6.64622364 L65.2064076,6.64622364 L65.2064076,6.26709199 C65.2064076,6.26709199 65.178195,6.29653831 65.1216864,6.35530722 C65.0653863,6.41403489 64.9822487,6.47577318 64.8724822,6.54035712 C64.7625072,6.60510603 64.6259449,6.66519466 64.462837,6.72107668 C64.2995623,6.77687621 64.10795,6.80483784 63.8883335,6.80483784 C63.5617842,6.80483784 63.29166,6.75637927 63.0779194,6.65933839 C62.8641788,6.56250372 62.6904859,6.44203776 62.5570074,6.298023 C62.4232789,6.15409072 62.3238889,5.99832217 62.2586291,5.83088233 C62.1932858,5.66348371 62.1486541,5.51221048 62.1249838,5.37702136 Z M72.1745018,0.468064482 L72.1745018,6.64622364 L71.4176374,6.64622364 L71.4176374,6.16143168 C71.2217328,6.36710225 70.9960321,6.52571645 70.7407852,6.637398 C70.485455,6.74887335 70.2093717,6.80483784 69.9125351,6.80483784 C69.6156986,6.80483784 69.33824,6.74606893 69.0799927,6.62857235 C68.8216203,6.51103452 68.5961696,6.34949219 68.4030988,6.14378038 C68.2101946,5.93806857 68.0573382,5.69726038 67.9444462,5.42119084 C67.8316374,5.14491509 67.7753373,4.85115301 67.7753373,4.53978088 C67.7753373,4.22238752 67.8316374,3.92565607 67.9444462,3.64958653 C68.0573382,3.37347575 68.2101946,3.13250259 68.4030988,2.92695574 C68.5961696,2.72128517 68.8216203,2.55817567 69.0799927,2.43783343 C69.33824,2.31736747 69.6156986,2.25711388 69.9125351,2.25711388 C70.2093717,2.25711388 70.485455,2.31588279 70.7407852,2.43333812 C70.9960321,2.55083471 71.2217328,2.71245953 71.4176374,2.9181301 L71.4176374,0.468064482 L72.1745018,0.468064482 Z M69.9749612,6.07321645 C70.1708658,6.07321645 70.3563522,6.03358351 70.5315452,5.95423518 C70.70678,5.87501056 70.8594698,5.76633962 70.9901562,5.62818113 C71.120801,5.49006387 71.2247333,5.32711933 71.3019116,5.13905882 C71.3791316,4.9509983 71.4176374,4.75130772 71.4176374,4.53978088 C71.4176374,4.32825404 71.3791316,4.12835726 71.3019116,3.94046171 C71.2247333,3.75244243 71.120801,3.5880132 70.9901562,3.44688534 C70.8594698,3.30592243 70.70678,3.19424088 70.5315452,3.11204688 C70.3563522,3.02981165 70.1708658,2.98869403 69.9749612,2.98869403 C69.7790566,2.98869403 69.5935703,3.02981165 69.4183355,3.11204688 C69.2432257,3.19424088 69.0904109,3.30592243 68.9597662,3.44688534 C68.8290381,3.5880132 68.7266476,3.75244243 68.6525115,3.94046171 C68.5783336,4.12835726 68.5411613,4.32825404 68.5411613,4.53978088 C68.5411613,4.75130772 68.5783336,4.9509983 68.6525115,5.13905882 C68.7266476,5.32711933 68.8290381,5.49006387 68.9597662,5.62818113 C69.0904109,5.76633962 69.2432257,5.87501056 69.4183355,5.95423518 C69.5935703,6.03358351 69.7790566,6.07321645 69.9749612,6.07321645 Z M74.7345551,4.73365644 C74.7583921,4.92171695 74.8103166,5.09798244 74.890412,5.26237043 C74.9705908,5.42696462 75.0715227,5.56792753 75.1932911,5.68542411 C75.3148928,5.80296194 75.4546222,5.89699219 75.611896,5.96755613 C75.7692115,6.03812006 75.9369034,6.07321645 76.114972,6.07321645 C76.3881383,6.07321645 76.6359674,6.00863251 76.8586676,5.87929966 C77.0812429,5.75017301 77.2608951,5.57675317 77.397374,5.3594113 L78.0208432,5.75602929 C77.819021,6.07321645 77.5517723,6.32730435 77.2193055,6.51837549 C76.8868803,6.70928166 76.5187413,6.80483784 76.114972,6.80483784 C75.8360548,6.80483784 75.5733068,6.75188396 75.3267695,6.64622364 C75.0804823,6.54035712 74.8623244,6.39489891 74.6722957,6.20984901 C74.4823087,6.02475787 74.3263685,5.80593131 74.2047668,5.55328686 C74.0830817,5.30068364 74.0102373,5.0274185 73.9865672,4.73365644 C73.9865672,4.70421011 73.9850252,4.67191814 73.9821498,4.63661556 C73.9791493,4.60135421 73.9776074,4.56621659 73.9776074,4.53095524 C73.9776074,4.34289473 73.9984439,4.16667047 74.0400335,4.00207627 C74.0933333,3.75541181 74.1854722,3.52474899 74.3159503,3.31025277 C74.446595,3.09588028 74.6025352,2.91083038 74.7836459,2.75502059 C74.9647149,2.59945825 75.1695792,2.47746636 75.3981554,2.38925113 C75.6266066,2.30120087 75.865601,2.25711388 76.114972,2.25711388 C76.364343,2.25711388 76.6033374,2.30120087 76.831872,2.38925113 C77.0604064,2.47746636 77.2652707,2.59945825 77.4463814,2.75502059 C77.6274921,2.91083038 77.7833489,3.09588028 77.9138271,3.31025277 C78.0445551,3.52474899 78.1365273,3.75541181 78.1899937,4.00207627 C78.2315,4.16667047 78.2524198,4.34289473 78.2524198,4.53095524 L78.2524198,4.63661556 C78.2524198,4.67191814 78.249336,4.70421011 78.2434602,4.73365644 L74.7345551,4.73365644 Z M77.4241697,4.00207627 C77.3232378,3.70249918 77.1554208,3.45868036 76.9210104,3.27061984 C76.6864333,3.08260057 76.417851,2.98869403 76.114972,2.98869403 C75.8122596,2.98869403 75.543594,3.08260057 75.3089335,3.27061984 C75.0745231,3.45868036 74.9067061,3.70249918 74.8058575,4.00207627 L77.4241697,4.00207627 Z M83.9026066,3.68484788 C83.9144834,3.74943182 83.9234431,3.8066748 83.929319,3.85678303 C83.9352366,3.90668505 83.938237,3.95233922 83.938237,3.9934156 L83.938237,4.1167272 L83.938237,6.64622364 L83.1812894,6.64622364 L83.1812894,4.15198855 C83.1812894,4.05799954 83.1708711,3.94330736 83.1502013,3.80815949 C83.1293648,3.67305285 83.0833162,3.54388497 83.0121805,3.4204084 C82.940878,3.29709678 82.8339035,3.19123026 82.6914654,3.10322124 C82.5490271,3.01500601 82.3589984,2.97108398 82.1215876,2.97108398 C81.8365445,2.97108398 81.6094685,3.01352132 81.440318,3.09868469 C81.2710841,3.18393054 81.1404811,3.28678645 81.0485088,3.40729365 C80.9562866,3.52775961 80.8956524,3.64810184 80.8658563,3.7685678 C80.8360601,3.88903376 80.8183908,3.98458994 80.8123898,4.05498892 L80.8123898,6.64622364 L80.0554422,6.64622364 L80.0554422,2.41572807 L80.8123898,2.41572807 L80.8123898,2.79465352 C80.8183908,2.79465352 80.8495621,2.76537217 80.905904,2.70660326 C80.9623708,2.64787559 81.0454667,2.5861373 81.1552749,2.52155336 C81.2650832,2.45684569 81.4016455,2.39675706 81.5649202,2.34079255 C81.7281949,2.2850755 81.9167233,2.25711388 82.1304639,2.25711388 C82.4570133,2.25711388 82.7285959,2.30553121 82.945337,2.40253084 C83.1619947,2.49940675 83.3370212,2.61991396 83.4707497,2.76384624 C83.6042282,2.90781976 83.7038266,3.06342334 83.7690447,3.23102815 C83.8344713,3.398468 83.878853,3.54974125 83.9026066,3.68484788 Z M88.0121857,6.70779697 C87.9943497,6.71377696 87.9470092,6.72841764 87.8697475,6.75188396 C87.7926109,6.77535029 87.6960546,6.79147565 87.5803288,6.80030129 C87.4645196,6.80912694 87.3368753,6.80178598 87.1974376,6.7783609 C87.0578749,6.75489458 86.9228545,6.69897132 86.7922098,6.61092106 C86.3944413,6.34648158 86.1954946,5.8500183 86.1954946,5.12140752 L86.1954946,3.14730823 L85.6523709,3.14730823 L85.6523709,2.41572807 L86.1954946,2.41572807 L86.1954946,0.459238834 L86.9346479,0.459238834 L86.9346479,2.41572807 L87.8252408,2.41572807 L87.8252408,3.14730823 L86.9346479,3.14730823 L86.9346479,5.12140752 C86.9346479,5.58557883 87.0237447,5.87929966 87.2018549,6.00281748 C87.2553214,6.03812006 87.3131218,6.05857577 87.3755478,6.0643908 C87.4377239,6.07037079 87.4957743,6.07185548 87.549074,6.06888611 C87.6025404,6.06591673 87.6486307,6.05857577 87.6870949,6.04694571 C87.7258507,6.0350682 87.7451453,6.02929442 87.7451453,6.02929442 L88.0121857,6.70779697 Z M90.1892645,2.13380226 L89.7171932,1.92227542 L90.4119649,0.0097082118 L91.1777888,0.344546664 L90.1892645,2.13380226 Z M94.1743248,4.06381456 C94.334599,4.09907591 94.5185435,4.14316291 94.7264082,4.19595182 C94.9342313,4.24886446 95.131511,4.32676935 95.3184559,4.42962526 C95.5056928,4.53243993 95.6643835,4.66890753 95.7951114,4.83931675 C95.9257563,5.00976722 95.9910154,5.22710909 95.9910154,5.49154856 C95.9910154,5.90293094 95.8233659,6.22448969 95.4878564,6.45663719 C95.1523475,6.68882595 94.6878607,6.80483784 94.0941043,6.80483784 C93.8803637,6.80483784 93.6785833,6.78265 93.4885129,6.73872797 C93.2984842,6.69464098 93.1263332,6.63137676 92.9719349,6.54918277 C92.8177032,6.46694753 92.6810159,6.37143259 92.5622896,6.26276165 C92.4435217,6.15409072 92.35455,6.03209883 92.2952493,5.89699219 L92.9719349,5.65894717 C93.0551974,5.77062872 93.1976356,5.8676696 93.3994161,5.94990483 C93.6013216,6.03209883 93.8328982,6.07321645 94.0941043,6.07321645 C94.1830345,6.07321645 94.290009,6.06740142 94.4147777,6.05560639 C94.53938,6.04389385 94.6596065,6.01745815 94.7753322,5.97638178 C94.8911831,5.93526416 94.9905314,5.87649525 95.0736273,5.80011628 C95.1567649,5.72373732 95.1984378,5.62088141 95.1984378,5.49154856 C95.1984378,5.4328209 95.1895614,5.37405199 95.1717254,5.31528307 C95.1538894,5.25659664 95.1078408,5.19782773 95.0335796,5.13905882 C94.9594434,5.08033115 94.8436342,5.02156224 94.6863605,4.96279333 C94.5289617,4.9041069 94.3078033,4.84533799 94.0228019,4.78656907 C93.8268556,4.74532773 93.6294092,4.69983853 93.4306708,4.64997775 C93.2317241,4.60003448 93.0536555,4.52798586 92.896215,4.43391436 C92.738983,4.33992534 92.6098802,4.2210678 92.5089483,4.07713551 C92.4078913,3.93316199 92.3575921,3.74943182 92.3575921,3.52623368 C92.3575921,3.15011264 92.5059478,2.84476175 92.8027009,2.60960362 C93.0997041,2.37461046 93.5091827,2.25711388 94.0317199,2.25711388 C94.2336671,2.25711388 94.4280297,2.27773455 94.6150997,2.31885216 C94.8020446,2.35996978 94.9727371,2.42018214 95.1271354,2.49940675 C95.2815337,2.57879634 95.4165537,2.6728266 95.532363,2.78149753 C95.6481305,2.89020971 95.7326854,3.01220159 95.7861517,3.14730823 L95.1092993,3.38514705 C95.0381636,3.26765047 94.9119362,3.17225924 94.7307422,3.09868469 C94.5497982,3.02531634 94.3434753,2.98869403 94.1118987,2.98869403 C93.8090613,2.98869403 93.573109,3.03847233 93.4039585,3.13848258 C93.2347245,3.23832787 93.1501701,3.36766072 93.1501701,3.52623368 C93.1501701,3.57902259 93.1575878,3.62760489 93.1723818,3.67173313 C93.1872174,3.71565516 93.2271818,3.75821623 93.2926083,3.79937509 C93.3579098,3.84065767 93.4603003,3.883095 93.599863,3.927182 C93.7394674,3.97126899 93.9308296,4.01688192 94.1743248,4.06381456 Z M102.790126,5.99399182 C103.217607,5.99399182 103.612459,5.89262061 103.974472,5.68991942 C104.336777,5.48721823 104.627654,5.21828343 104.84727,4.88344498 L105.533082,5.32410872 C105.390477,5.54747183 105.221244,5.75017301 105.025339,5.93225354 C104.829435,6.11445778 104.61286,6.27010261 104.375241,6.39939422 C104.137746,6.52852085 103.885542,6.62857235 103.618293,6.69897132 C103.351086,6.76953526 103.07517,6.80483784 102.790126,6.80483784 C102.338891,6.80483784 101.914452,6.71959199 101.516601,6.54918277 C101.118916,6.3787323 100.771446,6.14674975 100.47461,5.85286396 C100.177857,5.55910188 99.9431964,5.21543778 99.7712115,4.82183042 C99.5989778,4.42814058 99.5128815,4.00805627 99.5128815,3.56153626 C99.5128815,3.11501626 99.5989778,2.69480823 99.7712115,2.30120087 C99.9431964,1.90746978 100.177857,1.56376445 100.47461,1.2700436 C100.771446,0.976281535 101.118916,0.744134021 101.516601,0.573724798 C101.914452,0.403315575 102.338891,0.318275929 102.790126,0.318275929 C103.366089,0.318275929 103.894459,0.451939117 104.375241,0.719183009 C104.85623,0.986426903 105.24208,1.3434532 105.533082,1.7899732 L104.84727,2.23946258 C104.627654,1.90462413 104.336777,1.63585431 103.974472,1.43315311 C103.612459,1.23028696 103.217607,1.12895698 102.790126,1.12895698 C102.451784,1.12895698 102.135569,1.19217996 101.841691,1.31846095 C101.547688,1.44482441 101.289608,1.61820301 101.066907,1.8385555 C100.844291,2.05870178 100.669055,2.31736747 100.541411,2.61405768 C100.413725,2.91083038 100.350008,3.22653285 100.350008,3.56153626 C100.350008,3.89637472 100.413725,4.21224215 100.541411,4.50901485 C100.669055,4.80554009 100.844291,5.06416454 101.066907,5.28451703 C101.289608,5.50486952 101.547688,5.6781244 101.841691,5.80444662 C102.135569,5.93072761 102.451784,5.99399182 102.790126,5.99399182 Z M111.361338,3.67602222 C111.373297,3.74060617 111.382174,3.79801412 111.38805,3.84795739 C111.393967,3.89785941 111.39701,3.94330736 111.39701,3.98458994 L111.39701,4.10790156 L111.39701,6.64622364 L110.640062,6.64622364 L110.640062,4.14316291 C110.640062,4.04917389 110.629644,3.93468793 110.608808,3.79937509 C110.588095,3.66422721 110.542047,3.53505932 110.470911,3.41158275 C110.399609,3.28827114 110.294134,3.18244585 110.154781,3.09439559 C110.015176,3.00618036 109.826689,2.96225833 109.589195,2.96225833 C109.304151,2.96225833 109.075617,3.00486064 108.903467,3.09006525 C108.731232,3.1751049 108.600754,3.2779608 108.511616,3.398468 C108.422519,3.51893396 108.363093,3.64076088 108.333547,3.76407249 C108.30375,3.88754907 108.285915,3.98458994 108.280081,4.05498892 L108.280081,6.64622364 L107.514256,6.64622364 L107.514256,0.459238834 L108.280081,0.459238834 L108.280081,2.79465352 C108.280081,2.78883849 108.308293,2.75807245 108.364635,2.70210795 C108.420977,2.64634965 108.504239,2.58461137 108.614006,2.51705805 C108.723814,2.44950473 108.860377,2.38776645 109.023652,2.33196691 C109.186926,2.27624986 109.378288,2.24828823 109.598154,2.24828823 C109.924704,2.24828823 110.194745,2.29670557 110.408485,2.39374644 C110.622226,2.49058111 110.796002,2.61108831 110.929481,2.75502059 C111.063043,2.89899412 111.162432,3.05480391 111.227776,3.22220251 C111.293035,3.38964235 111.337668,3.54091559 111.361338,3.67602222 Z M115.41745,6.80483784 C115.096943,6.80483784 114.797148,6.74606893 114.518147,6.62857235 C114.23898,6.51103452 113.995693,6.34949219 113.787829,6.14378038 C113.579922,5.93806857 113.415273,5.69726038 113.293588,5.42119084 C113.171819,5.14491509 113.110935,4.8481424 113.110935,4.53095524 C113.110935,4.21958311 113.171819,3.92565607 113.293588,3.64958653 C113.415273,3.37347575 113.579922,3.13250259 113.787829,2.92695574 C113.995693,2.72128517 114.23898,2.55817567 114.518147,2.43783343 C114.797148,2.31736747 115.096943,2.25711388 115.41745,2.25711388 C115.732123,2.25711388 116.029126,2.31736747 116.308126,2.43783343 C116.587086,2.55817567 116.83058,2.72128517 117.03832,2.92695574 C117.246101,3.13250259 117.410918,3.37347575 117.53252,3.64958653 C117.654288,3.92565607 117.715172,4.21958311 117.715172,4.53095524 C117.715172,4.8481424 117.654288,5.14491509 117.53252,5.42119084 C117.410918,5.69726038 117.246101,5.93806857 117.03832,6.14378038 C116.83058,6.34949219 116.587086,6.51103452 116.308126,6.62857235 C116.029126,6.74606893 115.732123,6.80483784 115.41745,6.80483784 Z M115.41745,2.98869403 C115.203709,2.98869403 115.001929,3.02832697 114.8119,3.10751033 C114.621913,3.18694116 114.458638,3.29709678 114.322076,3.43805969 C114.185514,3.57902259 114.077247,3.74361679 113.997152,3.9316773 C113.916973,4.11973783 113.876926,4.3194284 113.876926,4.53095524 C113.876926,4.74248208 113.916973,4.94217265 113.997152,5.13023317 C114.077247,5.31833493 114.185514,5.48123823 114.322076,5.61935549 C114.458638,5.75751398 114.621913,5.86618491 114.8119,5.94557449 C115.001929,6.02475787 115.203709,6.0643908 115.41745,6.0643908 C115.631191,6.0643908 115.831679,6.02475787 116.018708,5.94557449 C116.205653,5.86618491 116.369011,5.75751398 116.508365,5.61935549 C116.647927,5.48123823 116.757736,5.31833493 116.837998,5.13023317 C116.91801,4.94217265 116.958225,4.74248208 116.958225,4.53095524 C116.958225,4.3194284 116.91801,4.11973783 116.837998,3.9316773 C116.757736,3.74361679 116.647927,3.57902259 116.508365,3.43805969 C116.369011,3.29709678 116.205653,3.18694116 116.018708,3.10751033 C115.831679,3.02832697 115.631191,2.98869403 115.41745,2.98869403 Z M119.518153,6.64622364 L120.275268,6.64622364 L120.275268,2.41572807 L119.518153,2.41572807 L119.518153,6.64622364 Z M120.391035,1.20830532 C120.391035,1.3434532 120.343569,1.45942385 120.248596,1.55646473 C120.15354,1.65329939 120.037857,1.70192294 119.901127,1.70192294 C119.764565,1.70192294 119.647339,1.65329939 119.549491,1.55646473 C119.451435,1.45942385 119.40251,1.3434532 119.40251,1.20830532 C119.40251,1.07315745 119.451435,0.958671482 119.549491,0.864641221 C119.647339,0.770610962 119.764565,0.723472109 119.901127,0.723472109 C120.037857,0.723472109 120.15354,0.770610962 120.248596,0.864641221 C120.343569,0.958671482 120.391035,1.07315745 120.391035,1.20830532 Z M124.384805,2.98869403 C124.171064,2.98869403 123.9692,3.02981165 123.779213,3.11204688 C123.589184,3.19424088 123.426076,3.30291181 123.289514,3.43805969 C123.152911,3.57316633 123.044519,3.73479115 122.964424,3.92285166 C122.884244,4.11091217 122.844197,4.31060275 122.844197,4.5221296 C122.844197,4.73365644 122.884244,4.93338825 122.964424,5.12140752 C123.044519,5.30950928 123.152911,5.47389727 123.289514,5.61486017 C123.426076,5.75602929 123.589184,5.8676696 123.779213,5.94990483 C123.9692,6.03209883 124.171064,6.07321645 124.384805,6.07321645 C124.663888,6.07321645 124.914677,6.00714782 125.137252,5.87501056 C125.359952,5.7428733 125.539604,5.57097939 125.676083,5.3594113 L126.308428,5.76485493 C126.100564,6.08204209 125.82894,6.33464531 125.49343,6.52274707 C125.158171,6.71076635 124.78849,6.80483784 124.384805,6.80483784 C124.064256,6.80483784 123.76442,6.74458424 123.485419,6.62407704 C123.20621,6.50377605 122.962964,6.34066655 122.755059,6.13495474 C122.547193,5.92924293 122.382544,5.68843473 122.260859,5.41236519 C122.13909,5.13608944 122.078373,4.83931675 122.078373,4.5221296 C122.078373,4.21075746 122.13909,3.91703663 122.260859,3.64076088 C122.382544,3.3646501 122.547193,3.12516163 122.755059,2.92246044 C122.962964,2.71975925 123.20621,2.55817567 123.485419,2.43783343 C123.76442,2.31736747 124.064256,2.25711388 124.384805,2.25711388 C124.78849,2.25711388 125.158171,2.35114413 125.49343,2.53920465 C125.82894,2.7271002 126.100564,2.97974467 126.308428,3.29709678 L125.685043,3.70249918 C125.548481,3.48511606 125.367369,3.31173746 125.141835,3.18244585 C124.916135,3.05327797 124.663888,2.98869403 124.384805,2.98869403 Z M128.423081,4.73365644 C128.446918,4.92171695 128.498926,5.09798244 128.578939,5.26237043 C128.6592,5.42696462 128.760132,5.56792753 128.881817,5.68542411 C129.003419,5.80296194 129.142981,5.89699219 129.300422,5.96755613 C129.457655,6.03812006 129.625513,6.07321645 129.803581,6.07321645 C130.076665,6.07321645 130.324577,6.00863251 130.547194,5.87929966 C130.769853,5.75017301 130.949421,5.57675317 131.085984,5.3594113 L131.709245,5.75602929 C131.507464,6.07321645 131.240424,6.32730435 130.907915,6.51837549 C130.575282,6.70928166 130.207142,6.80483784 129.803581,6.80483784 C129.524414,6.80483784 129.26175,6.75188396 129.015379,6.64622364 C128.769009,6.54035712 128.550726,6.39489891 128.360906,6.20984901 C128.170835,6.02475787 128.014978,5.80593131 127.89321,5.55328686 C127.771607,5.30068364 127.698763,5.0274185 127.675093,4.73365644 C127.675093,4.70421011 127.673552,4.67191814 127.670676,4.63661556 C127.667676,4.60135421 127.666217,4.56621659 127.666217,4.53095524 C127.666217,4.34289473 127.687054,4.16667047 127.728559,4.00207627 C127.78186,3.75541181 127.873999,3.52474899 128.00456,3.31025277 C128.135205,3.09588028 128.291061,2.91083038 128.472172,2.75502059 C128.653324,2.59945825 128.858105,2.47746636 129.086682,2.38925113 C129.315216,2.30120087 129.554211,2.25711388 129.803581,2.25711388 C130.052953,2.25711388 130.291947,2.30120087 130.520482,2.38925113 C130.748975,2.47746636 130.953838,2.59945825 131.134908,2.75502059 C131.316018,2.91083038 131.471792,3.09588028 131.602437,3.31025277 C131.733081,3.52474899 131.825053,3.75541181 131.87852,4.00207627 C131.92011,4.16667047 131.940946,4.34289473 131.940946,4.53095524 L131.940946,4.63661556 C131.940946,4.67191814 131.937945,4.70421011 131.93182,4.73365644 L128.423081,4.73365644 Z M131.112696,4.00207627 C131.011681,3.70249918 130.844031,3.45868036 130.609453,3.27061984 C130.374959,3.08260057 130.106294,2.98869403 129.803581,2.98869403 C129.500703,2.98869403 129.23212,3.08260057 128.997543,3.27061984 C128.763133,3.45868036 128.595316,3.70249918 128.494384,4.00207627 L131.112696,4.00207627 Z" id="Fill-8" fill="#FFFFFF" fill-rule="nonzero" mask="url(#mask-6)"></path>
                        </g>
                    </g>
                    <g id="Group-16" transform="translate(192.938834, 20.742628)">
                        <g id="Fill-14-Clipped">
                            <mask id="mask-8" fill="white">
                                <use xlink:href="#path-7"></use>
                            </mask>
                            <g id="path-7"></g>
                            <polygon id="Fill-14" fill="#FFFFFF" fill-rule="nonzero" mask="url(#mask-8)" points="15.3458593 0.0308190377 18.7842901 0.0308190377 6.19004173 28.7117989 2.78794573 28.7117989 7.67581458 17.5340553 0.00555955762 0.0308190377 3.40601545 0.0308190377 9.37589534 13.6319788"></polygon>
                        </g>
                    </g>
                </g>
            </g>
        </g>
    </g>
</svg>