<?xml version="1.0" encoding="UTF-8"?>
<svg width="217px" height="59px" viewBox="0 0 217 59" version="1.1" xmlns="http://www.w3.org/2000/svg" xmlns:xlink="http://www.w3.org/1999/xlink">
    <!-- Generator: Sketch 41.2 (35397) - http://www.bohemiancoding.com/sketch -->
    <title>Page 1</title>
    <desc>Created with Sketch.</desc>
    <defs>
        <polygon id="path-1" points="8.88700766e-22 0.0160921839 8.88700766e-22 43.7944173 51.7384291 43.7944173 51.7384291 0.0160921839 0 0.0160921839"></polygon>
        <polygon id="path-3" points="0.02244398 7.22818226 138.410565 7.22818226 138.410565 0.0103122067 0.02244398 0.0103122067 0.02244398 7.22818226"></polygon>
        <polygon id="path-5" points="41.3162896 0.0381560409 0.00209838535 0.0381560409 0.00209838535 40.8301923 41.3162896 40.8301923 41.3162896 0.0381560409"></polygon>
        <polygon id="path-7" points="19.5267435 30.4089233 19.5267435 0.0326407188 0.005779303 0.0326407188 0.005779303 30.4089233 19.5267435 30.4089233"></polygon>
    </defs>
    <g id="Page-1" stroke="none" stroke-width="1" fill="none" fill-rule="evenodd">
        <g id="OZ_27.02-Content-page" transform="translate(-94.000000, -71.000000)">
            <g id="Page-1" transform="translate(94.000000, 71.000000)">
                <g id="Group-3" transform="translate(0.000000, 12.841194)">
                    <mask id="mask-2" fill="white">
                        <use xlink:href="#path-1"></use>
                    </mask>
                    <g id="Clip-2"></g>
                    <path d="M25.8685799,43.7944173 C31.4122517,43.6098139 37.2939821,35.6896537 39.5674515,27.2746477 C38.1769215,28.4300617 36.3915453,29.1248433 34.4443748,29.1248433 C30.0087816,29.1248433 26.4118431,25.5204774 26.4118431,21.0758024 C26.4118431,16.6312588 30.0087816,13.0268053 34.4443748,13.0268053 C36.4915683,13.0268053 38.3596559,13.7950954 39.778383,15.0589759 C39.4994726,14.2036848 39.1376323,13.3946103 38.6841624,12.6448506 C40.0785395,10.6598603 41.7994341,8.56263612 43.7375553,6.93322861 C48.9123484,2.58339615 49.6520292,4.71268722 49.6520292,4.71268722 C50.1855874,7.94083722 47.3264937,14.8068656 42.0923337,18.6111675 C42.3190468,19.317558 42.451245,20.0663977 42.4733218,20.8429673 C50.6050022,15.3449929 53.0326155,5.82906901 51.1203744,0.619696159 C50.3225945,-1.55432203 40.8448436,2.37071236 34.3425157,8.76169588 C32.1836706,7.68793846 29.3975395,7.1367567 25.8685799,7.3091379 C22.316713,7.1355301 19.5220134,7.67378874 17.3614634,8.72721964 C10.8596601,2.35660645 1.41474015,-1.55037938 0.61800946,0.619696159 C-1.29243926,5.8246883 1.12896629,15.3285652 9.24495253,20.8292119 C9.26711673,20.0941276 9.38777389,19.3838383 9.59402768,18.711004 C4.32231536,14.8817321 1.44245632,7.96681487 1.97973041,4.71619179 C1.97973041,4.71619179 2.72443863,2.57253197 7.93403,6.95167143 C9.88535352,8.59216215 11.6178766,10.7034047 13.0214779,12.7019752 C12.5789808,13.4335548 12.2233482,14.2213829 11.9461865,15.0531495 C13.3639956,13.7927298 15.2296787,13.0268053 17.2735498,13.0268053 C21.709143,13.0268053 25.3060815,16.6312588 25.3060815,21.0758024 C25.3060815,25.5204774 21.709143,29.1248433 17.2735498,29.1248433 C15.3949266,29.1248433 13.6668188,28.4781619 12.2985841,27.3948984 C14.7116835,35.8591874 20.6824205,43.7866196 25.8685799,43.7944173 L25.8685799,43.7944173 Z M25.8692356,40.6035472 L25.8307652,40.592245 C25.4134489,40.4692344 23.2160459,39.7340188 22.2980024,37.6702632 C20.7379403,34.163193 31.0003999,34.163193 29.4403815,37.6702632 C28.5223379,39.7340188 26.3250224,40.4692344 25.9077498,40.592245 L25.8692356,40.6035472 Z M32.7748907,18.354107 C33.0060191,18.354107 33.230284,18.3832826 33.4445816,18.4377349 C33.3089735,18.6486226 33.230284,18.8994624 33.230284,19.1690517 C33.230284,19.9159639 33.834925,20.5215541 34.5802016,20.5215541 C34.8745875,20.5215541 35.146853,20.4270183 35.3687573,20.2666841 C35.4481899,20.5224741 35.4909445,20.7939909 35.4909445,21.0758024 C35.4909445,22.5787386 34.2745805,23.7976292 32.7748907,23.7976292 C31.2751572,23.7976292 30.0589243,22.5787386 30.0589243,21.0758024 C30.0589243,19.5729976 31.2751572,18.354107 32.7748907,18.354107 L32.7748907,18.354107 Z M18.9430339,18.354107 C19.1741186,18.354107 19.3984272,18.3832826 19.6126374,18.4377349 C19.4772041,18.6486226 19.3984272,18.8994624 19.3984272,19.1690517 C19.3984272,19.9159639 20.0029808,20.5215541 20.7483448,20.5215541 C21.0426433,20.5215541 21.3148651,20.4270183 21.5369005,20.2666841 C21.6162457,20.5224741 21.659044,20.7939909 21.659044,21.0758024 C21.659044,22.5787386 20.4428111,23.7976292 18.9430339,23.7976292 C17.4432567,23.7976292 16.2268926,22.5787386 16.2268926,21.0758024 C16.2268926,19.5729976 17.4432567,18.354107 18.9430339,18.354107 L18.9430339,18.354107 Z M34.4443748,14.8861128 C31.0334057,14.8861128 28.2673404,17.6579674 28.2673404,21.0758024 C28.2673404,24.4937689 31.0334057,27.2656234 34.4443748,27.2656234 C37.8552128,27.2656234 40.6212781,24.4937689 40.6212781,21.0758024 C40.6212781,17.6579674 37.8552128,14.8861128 34.4443748,14.8861128 L34.4443748,14.8861128 Z M17.2735498,14.8861128 C20.68465,14.8861128 23.4506717,17.6579674 23.4506717,21.0758024 C23.4506717,24.4937689 20.68465,27.2656234 17.2735498,27.2656234 C13.8627118,27.2656234 11.0966902,24.4937689 11.0966902,21.0758024 C11.0966902,17.6579674 13.8627118,14.8861128 17.2735498,14.8861128 L17.2735498,14.8861128 Z" id="Fill-1" fill="#E0481B" mask="url(#mask-2)"></path>
                </g>
                <path d="M68.8519667,47.5707789 C70.5538884,47.5642517 72.1445519,47.3215162 73.6306022,46.8426162 C75.1165213,46.3637163 76.4649962,45.6815511 77.6760706,44.8091314 C78.8805001,43.9367555 79.9213429,42.9068491 80.7854842,41.7196311 C81.6560956,40.5321941 82.3236881,39.2333993 82.7950817,37.8100168 C83.2598303,36.3931179 83.4955489,34.8975413 83.5020189,33.3231994 L83.5020189,33.2445217 C83.4955489,31.670136 83.2663877,30.1811304 82.8015954,28.7642315 C82.3368468,27.3473764 81.6757679,26.055065 80.8182278,24.8743305 C79.9540427,23.6936397 78.9263585,22.6702606 77.7218416,21.8044119 C76.5239259,20.9450906 75.1820522,20.2694527 73.7025593,19.7972114 C72.2231539,19.3248388 70.6324904,19.0821471 68.9305687,19.075576 C67.2285159,19.0821471 65.6378524,19.3248388 64.1518021,19.8036949 C62.6657955,20.2826386 61.3173206,20.9648038 60.1063337,21.8371797 C58.9018168,22.7095994 57.8610614,23.7395058 56.9969201,24.9268552 C56.1263087,26.1141608 55.4586287,27.4129995 54.9872789,28.8363819 C54.5224866,30.2532808 54.2868991,31.7487699 54.2803854,33.3231994 L54.2803854,33.401877 C54.2868991,34.9762189 54.5159291,36.4652245 54.9808089,37.8821234 C55.4455575,39.2989786 56.1066364,40.5914214 56.9641765,41.7721121 C57.8283615,42.9528028 58.8560458,43.9761382 60.0604753,44.8420306 C61.2584347,45.701352 62.6003521,46.3769899 64.079845,46.8491435 C65.5592504,47.3215162 67.1499139,47.5642517 68.8519667,47.5707789 L68.8519667,47.5707789 Z M68.9305687,41.9819484 C67.7063357,41.9753773 66.5869783,41.7457402 65.5723653,41.2932122 C64.5577522,40.8406403 63.6805397,40.217352 62.9407277,39.4235662 C62.2010469,38.6300432 61.6249964,37.7116698 61.2191337,36.6687088 C60.8133147,35.625704 60.6103834,34.5104174 60.6038259,33.3231994 L60.6038259,33.2445217 C60.6103834,32.0572599 60.8133147,30.9419733 61.2060188,29.9122421 C61.605324,28.8758083 62.1683471,27.9705333 62.9015142,27.1833185 C63.6347687,26.3961476 64.5053363,25.7861766 65.5069219,25.3400444 C66.5150212,24.9006148 67.6278212,24.6709776 68.8519667,24.6644065 C70.0760686,24.6709776 71.1953823,24.9006148 72.2101265,25.3531428 C73.2246521,25.8058022 74.1018646,26.4290467 74.8415891,27.222745 C75.5813574,28.0163994 76.1573205,28.9347728 76.5632706,29.9778214 C76.9690896,31.0208262 77.1720209,32.1359376 77.1785784,33.3231994 L77.1785784,33.401877 C77.1720209,34.5892703 76.9756033,35.7043816 76.5762981,36.7342881 C76.1770365,37.7705466 75.614101,38.6758217 74.8808901,39.4630364 C74.1477668,40.2502512 73.2836692,40.860266 72.2755699,41.3063105 C71.2673831,41.7457402 70.1545831,41.9753773 68.9305687,41.9819484 L68.9305687,41.9819484 Z M84.5657254,47.0984501 L107.463918,47.0984501 L107.463918,41.7852104 L92.3425602,41.7852104 L107.463918,24.1527388 L107.463918,19.547861 L85.0370315,19.547861 L85.0370315,24.8612759 L99.6872149,24.8612759 L84.5657254,42.4937037 L84.5657254,47.0984501 Z" id="Fill-4" fill="#F7BC40"></path>
                <path d="M114.18231,38.5577526 C114.287055,39.3974483 114.516085,40.1846631 114.869575,40.9193092 C115.223153,41.654043 115.668229,42.2837272 116.205066,42.8085371 C116.741859,43.3332593 117.357211,43.7531071 118.051033,44.0679054 C118.744856,44.3827475 119.484536,44.5402343 120.270076,44.5402343 C121.47468,44.5402343 122.567808,44.2515889 123.549721,43.6744295 C124.531634,43.097051 125.323731,42.3231099 125.926055,41.3522555 L128.675377,43.123423 C127.785006,44.5402343 126.606806,45.6750151 125.140428,46.5278092 C123.674138,47.3805595 122.050731,47.8069346 120.270076,47.8069346 C119.039416,47.8069346 117.880802,47.5707702 116.7941,47.0984413 C115.70753,46.6262439 114.745246,45.9767589 113.90729,45.1503367 C113.06951,44.3236955 112.381983,43.3463138 111.845365,42.2181479 C111.308571,41.0899382 110.987868,39.8697772 110.88308,38.5577526 C110.88308,38.4265939 110.876523,38.2823369 110.863451,38.1248064 C110.85038,37.967451 110.843735,37.8100081 110.843735,37.6526527 C110.843735,36.812957 110.935452,36.0257422 111.118755,35.2910961 C111.354386,34.1889954 111.760161,33.1591328 112.336299,32.2015081 C112.912306,31.2437521 113.599658,30.4173299 114.398225,29.7220664 C115.196836,29.0265838 116.100278,28.4821922 117.108421,28.088541 C118.116433,27.6949774 119.170347,27.4981519 120.270076,27.4981519 C121.369805,27.4981519 122.42385,27.6949774 123.431905,28.088541 C124.440136,28.4821922 125.343316,29.0265838 126.14197,29.7220664 C126.940581,30.4173299 127.627977,31.2437521 128.203983,32.2015081 C128.780165,33.1591328 129.185897,34.1889954 129.421659,35.2910961 C129.604874,36.0257422 129.696504,36.812957 129.696504,37.6526527 L129.696504,38.1248064 C129.696504,38.2823369 129.683432,38.4265939 129.65729,38.5577526 L114.18231,38.5577526 Z M126.04387,35.2910961 C125.598751,33.9528748 124.858939,32.8640915 123.824741,32.024352 C122.790499,31.1846562 121.605567,30.7650274 120.270076,30.7650274 C118.934847,30.7650274 117.749871,31.1846562 116.715542,32.024352 C115.6813,32.8640915 114.941532,33.9528748 114.4965,35.2910961 L126.04387,35.2910961 Z M141.636535,35.566687 C142.343603,35.7239985 143.155241,35.9207803 144.071842,36.1569009 C144.988181,36.3931091 145.858923,36.7408066 146.683633,37.1999057 C147.508517,37.65918 148.20894,38.2692386 148.784903,39.0300814 C149.361085,39.7910995 149.648913,40.7618225 149.648913,41.9425132 C149.648913,43.7792162 148.909233,45.215916 147.429871,46.2523497 C145.950422,47.288652 143.901654,47.8069346 141.283132,47.8069346 C140.340389,47.8069346 139.45028,47.7086751 138.612324,47.5117619 C137.774369,47.3149801 137.01506,47.0330372 136.334309,46.6656703 C135.653514,46.2981282 135.051233,45.8719283 134.527511,45.3865011 C134.00392,44.9010739 133.610998,44.3565947 133.349181,43.7531071 L136.334309,42.6904767 C136.700827,43.1890023 137.329249,43.6219047 138.219577,43.9892278 C139.109773,44.3565947 140.131031,44.5402343 141.283132,44.5402343 C141.67588,44.5402343 142.147186,44.51395 142.697094,44.4616004 C143.246958,44.4090756 143.777281,44.2910153 144.287757,44.1073319 C144.798364,43.9236484 145.236883,43.6613311 145.603445,43.3201609 C145.970094,42.9789907 146.153309,42.5198478 146.153309,41.9425132 C146.153309,41.6801521 146.114227,41.4178348 146.035669,41.1555175 C145.957023,40.8932002 145.754135,40.63062 145.426875,40.3683027 C145.099526,40.1059854 144.588919,39.8434491 143.895097,39.581088 C143.2011,39.3187707 142.225744,39.0562781 140.968811,38.7939608 C140.104757,38.6102336 139.23419,38.4069683 138.357021,38.1838584 C137.479721,37.9609676 136.694357,37.6395544 136.000359,37.2197065 C135.306537,36.7998587 134.737044,36.2684777 134.292011,35.6256952 C133.846716,34.9827813 133.624069,34.1628864 133.624069,33.1658353 C133.624069,31.4864438 134.278765,30.1221134 135.588027,29.0725814 C136.897244,28.0230493 138.703867,27.4981519 141.008112,27.4981519 C141.898483,27.4981519 142.755805,27.5901031 143.580689,27.7736551 C144.405704,27.9574262 145.158412,28.2263146 145.839207,28.5805831 C146.519959,28.934764 147.115681,29.3546119 147.626201,29.8399515 C148.136939,30.3253787 148.510058,30.8698579 148.745733,31.4733454 L145.760649,32.5359759 C145.446503,32.0113412 144.890081,31.5849223 144.091471,31.2568066 C143.29286,30.92891 142.382948,30.7650274 141.36169,30.7650274 C140.026199,30.7650274 138.985356,30.9879182 138.239205,31.4339628 C137.492967,31.8801388 137.119804,32.4572982 137.119804,33.1658353 C137.119804,33.4018683 137.152504,33.6184071 137.217947,33.8151451 C137.283434,34.0118831 137.46018,34.2020938 137.748227,34.385821 C138.036143,34.5694607 138.487908,34.7596714 139.103303,34.9566284 C139.718567,35.1533664 140.56308,35.3566754 141.636535,35.566687 L141.636535,35.566687 Z M162.374571,35.566687 C163.08164,35.7239985 163.893278,35.9207803 164.809791,36.1569009 C165.726217,36.3931091 166.596785,36.7408066 167.421669,37.1999057 C168.246466,37.65918 168.946977,38.2692386 169.52294,39.0300814 C170.099121,39.7910995 170.387037,40.7618225 170.387037,41.9425132 C170.387037,43.7792162 169.647269,45.215916 168.167907,46.2523497 C166.688546,47.288652 164.639516,47.8069346 162.021081,47.8069346 C161.078425,47.8069346 160.188316,47.7086751 159.350361,47.5117619 C158.512406,47.3149801 157.753096,47.0330372 157.072345,46.6656703 C156.39155,46.2981282 155.78927,45.8719283 155.265548,45.3865011 C154.741957,44.9010739 154.349122,44.3565947 154.087304,43.7531071 L157.072345,42.6904767 C157.43895,43.1890023 158.067286,43.6219047 158.957701,43.9892278 C159.847809,44.3565947 160.869067,44.5402343 162.021081,44.5402343 C162.413916,44.5402343 162.88531,44.51395 163.435174,44.4616004 C163.984907,44.4090756 164.515143,44.2910153 165.025706,44.1073319 C165.536401,43.9236484 165.97492,43.6613311 166.341569,43.3201609 C166.708131,42.9789907 166.891433,42.5198478 166.891433,41.9425132 C166.891433,41.6801521 166.852263,41.4178348 166.773618,41.1555175 C166.695059,40.8932002 166.492172,40.63062 166.164998,40.3683027 C165.837563,40.1059854 165.326956,39.8434491 164.632959,39.581088 C163.939136,39.3187707 162.96378,39.0562781 161.706848,38.7939608 C160.842794,38.6102336 159.972226,38.4069683 159.095057,38.1838584 C158.217757,37.9609676 157.432393,37.6395544 156.738396,37.2197065 C156.044573,36.7998587 155.475124,36.2684777 155.030048,35.6256952 C154.584753,34.9827813 154.362193,34.1628864 154.362193,33.1658353 C154.362193,31.4864438 155.016802,30.1221134 156.325976,29.0725814 C157.635281,28.0230493 159.441903,27.4981519 161.746236,27.4981519 C162.63652,27.4981519 163.493929,27.5901031 164.318813,27.7736551 C165.143566,27.9574262 165.896449,28.2263146 166.577244,28.5805831 C167.257995,28.934764 167.853718,29.3546119 168.364281,29.8399515 C168.874976,30.3253787 169.248095,30.8698579 169.48377,31.4733454 L166.498773,32.5359759 C166.18454,32.0113412 165.627943,31.5849223 164.829332,31.2568066 C164.030766,30.92891 163.120985,30.7650274 162.099727,30.7650274 C160.764323,30.7650274 159.72348,30.9879182 158.977242,31.4339628 C158.231003,31.8801388 157.857928,32.4572982 157.857928,33.1658353 C157.857928,33.4018683 157.89054,33.6184071 157.955984,33.8151451 C158.021471,34.0118831 158.198216,34.2020938 158.486263,34.385821 C158.774354,34.5694607 159.225944,34.7596714 159.841339,34.9566284 C160.456603,35.1533664 161.301116,35.3566754 162.374571,35.566687 L162.374571,35.566687 Z M193.71741,28.2066013 L193.71741,47.0984413 L190.339709,47.0984413 L190.339709,44.8945028 C189.501754,45.8128762 188.519841,46.5278092 187.393795,47.0393455 C186.267924,47.5511446 185.050292,47.8069346 183.741205,47.8069346 C182.431813,47.8069346 181.207755,47.5446173 180.068681,47.0197637 C178.929739,46.4950414 177.934755,45.7734936 177.083772,44.8551202 C176.232745,43.9367468 175.558552,42.861018 175.061016,41.6276711 C174.563567,40.3944994 174.314865,39.0695517 174.314865,37.6526527 C174.314865,36.2619505 174.563567,34.9499259 175.061016,33.7166666 C175.558552,32.4834949 176.232745,31.4077661 177.083772,30.4893927 C177.934755,29.5710631 178.929739,28.8429004 180.068681,28.3050798 C181.207755,27.7671278 182.431813,27.4981519 183.741205,27.4981519 C185.050292,27.4981519 186.267924,27.7540733 187.393795,28.265741 C188.519841,28.7773211 189.501754,29.4924292 190.339709,30.4107588 L190.339709,28.2066013 L193.71741,28.2066013 Z M184.01605,44.5402343 C184.880104,44.5402343 185.698256,44.3565947 186.470811,43.9892278 C187.243279,43.6219047 187.917561,43.1299064 188.493567,42.5133206 C189.069705,41.8967347 189.521295,41.1686158 189.8486,40.3289201 C190.175948,39.4892243 190.339709,38.5971352 190.339709,37.6526527 C190.339709,36.7079074 190.175948,35.8159059 189.8486,34.9762102 C189.521295,34.1365144 189.069705,33.4085708 188.493567,32.7917659 C187.917561,32.1753553 187.243279,31.6831818 186.470811,31.3159025 C185.698256,30.9485356 184.880104,30.7650274 184.01605,30.7650274 C183.151953,30.7650274 182.333801,30.9485356 181.561245,31.3159025 C180.788777,31.6831818 180.11454,32.1753553 179.538533,32.7917659 C178.962526,33.4085708 178.504204,34.1365144 178.163959,34.9762102 C177.823409,35.8159059 177.653265,36.7079074 177.653265,37.6526527 C177.653265,38.5971352 177.823409,39.4892243 178.163959,40.3289201 C178.504204,41.1686158 178.962526,41.8967347 179.538533,42.5133206 C180.11454,43.1299064 180.788777,43.6219047 181.561245,43.9892278 C182.333801,44.3565947 183.151953,44.5402343 184.01605,44.5402343 L184.01605,44.5402343 Z" id="Fill-6" fill="#D8D8D8"></path>
                <g id="Group-10" transform="translate(56.874986, 51.522921)">
                    <mask id="mask-4" fill="white">
                        <use xlink:href="#path-3"></use>
                    </mask>
                    <g id="Clip-9"></g>
                    <path d="M3.62856293,0.506559774 L6.38444236,7.05971742 L5.45962273,7.05971742 L4.66551503,5.17789303 L1.74150247,5.17789303 L0.956706343,7.05971742 L0.02244398,7.05971742 L2.77845456,0.506559774 L3.62856293,0.506559774 Z M2.10579091,4.31664416 L4.30122658,4.31664416 L3.2081864,1.71410428 L2.10579091,4.31664416 Z M7.93969564,5.71155191 C7.9147336,5.59296592 7.90231815,5.48371085 7.90231815,5.38383051 L7.90231815,5.25284709 L7.90231815,2.56602222 L8.69642586,2.56602222 L8.69642586,5.21534815 C8.69642586,5.32144911 8.70726752,5.44625572 8.72903827,5.58976799 C8.75094016,5.73332407 8.79915931,5.87065954 8.87387057,6.00164296 C8.94858183,6.13288923 9.05914051,6.24507938 9.20554661,6.33882671 C9.3519527,6.43235501 9.54972552,6.47918487 9.79882135,6.47918487 C10.0977101,6.47918487 10.3374944,6.43235501 10.5181304,6.33882671 C10.6987664,6.24507938 10.8357297,6.13586812 10.9291516,6.01101769 C11.0226609,5.88625489 11.084913,5.75846939 11.1159516,5.62726693 C11.1471214,5.4962397 11.165832,5.39320524 11.1720834,5.31842641 L11.1720834,2.56602222 L11.9755901,2.56602222 L11.9755901,7.05971742 L11.1720834,7.05971742 L11.1720834,6.65699815 C11.1720834,6.65699815 11.1425312,6.68827647 11.0833392,6.75070168 C11.024191,6.81308308 10.9369331,6.87866241 10.8217405,6.94726443 C10.7065479,7.01604168 10.5632894,7.07986872 10.3920087,7.13922743 C10.2207717,7.19849852 10.0198513,7.22819978 9.78946605,7.22819978 C9.44686092,7.22819978 9.16353518,7.17672636 8.93931396,7.0736481 C8.71504903,6.97078888 8.53288295,6.84282815 8.3927283,6.68985353 C8.25261736,6.53696652 8.14831012,6.37150686 8.07976286,6.19364977 C8.01121561,6.01583648 7.96461397,5.8551518 7.93969564,5.71155191 L7.93969564,5.71155191 Z M15.9597245,4.31664416 C16.1278576,4.35409929 16.320909,4.40092915 16.5388788,4.45700232 C16.756936,4.51320691 16.963933,4.59595864 17.1600883,4.70521371 C17.3563748,4.81442498 17.5229778,4.95938289 17.6599849,5.14039409 C17.7970794,5.32144911 17.8654955,5.55231287 17.8654955,5.83320441 C17.8654955,6.27018088 17.6895372,6.61174535 17.3376642,6.85833588 C16.9858349,7.10497022 16.4984849,7.22819978 15.8756579,7.22819978 C15.6514804,7.22819978 15.4396746,7.20463152 15.2404155,7.15797689 C15.0410688,7.11114703 14.8604328,7.04394684 14.6984637,6.95663916 C14.5366257,6.86928767 14.3932798,6.76783028 14.2688193,6.6523984 C14.144184,6.53696652 14.0507621,6.40738493 13.9884663,6.26387265 L14.6984637,6.01101769 C14.7857216,6.1296475 14.9352315,6.23272576 15.1469062,6.32007724 C15.3586682,6.40738493 15.6016,6.45106067 15.8756579,6.45106067 C15.9690798,6.45106067 16.0811248,6.44488386 16.2120116,6.43235501 C16.3427235,6.41991377 16.4688452,6.39183338 16.5902893,6.34820145 C16.7117333,6.3045257 16.8160843,6.24210049 16.9032547,6.16096962 C16.9904688,6.07983875 17.0340541,5.97058368 17.0340541,5.83320441 C17.0340541,5.77082301 17.0247425,5.7083978 17.0060319,5.64597259 C16.9873213,5.58363499 16.9391021,5.52120978 16.8611558,5.45878457 C16.7833844,5.39640317 16.6619404,5.33397796 16.4968674,5.27155275 C16.3318819,5.20921515 16.0997917,5.14678994 15.8008592,5.08436473 C15.5953486,5.04055756 15.3882205,4.99223826 15.1796497,4.9392754 C14.9709478,4.88622492 14.7841478,4.8096938 14.6190748,4.70976966 C14.4540455,4.60993313 14.3185685,4.48368088 14.2126875,4.33079387 C14.1068065,4.17786306 14.0539534,3.98270214 14.0539534,3.74561776 C14.0539534,3.34609641 14.2095399,3.02174816 14.5209753,2.77195971 C14.8323669,2.52234648 15.2620988,2.39753987 15.8102145,2.39753987 C16.0219766,2.39753987 16.2259134,2.41944345 16.4221561,2.46311919 C16.6183552,2.50679494 16.7973737,2.5707534 16.9593428,2.65490696 C17.1212245,2.73923576 17.2629529,2.83911609 17.384397,2.95454797 C17.505841,3.07002366 17.594629,3.19960525 17.6506296,3.34311753 L16.9406759,3.59575345 C16.8659646,3.47094684 16.7335478,3.36962086 16.5435565,3.29146888 C16.3536526,3.21353593 16.1372129,3.17463517 15.8943685,3.17463517 C15.5766817,3.17463517 15.329116,3.22751042 15.1515838,3.33374279 C14.9740954,3.43979994 14.8853512,3.57717921 14.8853512,3.74561776 C14.8853512,3.80169093 14.8931327,3.85329577 14.908652,3.90016944 C14.9243024,3.94682407 14.9662702,3.99203307 15.0347737,4.03575262 C15.1033209,4.07960359 15.210732,4.12468116 15.3570944,4.17151102 C15.5034568,4.21834088 15.7043335,4.26679161 15.9597245,4.31664416 L15.9597245,4.31664416 Z M22.0458289,7.12512152 C22.0271183,7.13147356 21.9773254,7.1470251 21.8963189,7.17195138 C21.8154437,7.19687766 21.7141529,7.21400626 21.5927088,7.22338099 C21.471221,7.23275572 21.3373615,7.22495805 21.1909117,7.20007558 C21.0446368,7.1751493 20.9029083,7.11574679 20.7659013,7.02221849 C20.3486723,6.74132695 20.1400578,6.21397629 20.1400578,5.4400351 L20.1400578,3.34311753 L19.5701713,3.34311753 L19.5701713,2.56602222 L20.1400578,2.56602222 L20.1400578,0.487810307 L20.9154112,0.487810307 L20.9154112,2.56602222 L21.8496736,2.56602222 L21.8496736,3.34311753 L20.9154112,3.34311753 L20.9154112,5.4400351 C20.9154112,5.93308475 21.0088768,6.24507938 21.1957205,6.37628184 C21.2517212,6.41378077 21.3124869,6.43550913 21.3778429,6.44168594 C21.4431988,6.44803797 21.5040083,6.44961503 21.560009,6.44646092 C21.6160096,6.4433068 21.6643162,6.43550913 21.7047976,6.4231555 C21.7453226,6.41053904 21.765607,6.40440604 21.765607,6.40440604 L22.0458289,7.12512152 Z M25.917787,2.38816513 C26.1171336,2.38816513 26.2978134,2.4069146 26.4596513,2.44436973 L26.3476063,3.21195887 C26.2354301,3.16828313 26.0890677,3.14655478 25.9084317,3.14655478 C25.609543,3.14655478 25.3712451,3.19180758 25.1938004,3.28231318 C25.0163119,3.37264356 24.8792612,3.48189863 24.7827354,3.60990316 C24.686166,3.73786389 24.6224275,3.8656932 24.5913015,3.99369774 C24.5600443,4.12161466 24.5414211,4.22311586 24.5351697,4.29789469 L24.5351697,7.05971742 L23.7410182,7.05971742 L23.7410182,2.56602222 L24.5351697,2.56602222 L24.5351697,2.96852246 C24.5414211,2.96234565 24.5740772,2.9296655 24.6332692,2.87021918 C24.6924174,2.81099189 24.7781015,2.74541257 24.8901902,2.67365643 C25.0023227,2.60190029 25.1439637,2.53632097 25.3152444,2.47704987 C25.4865688,2.41786639 25.6874018,2.38816513 25.917787,2.38816513 L25.917787,2.38816513 Z M32.3029114,2.56602222 L32.3029114,7.05971742 L31.4994484,7.05971742 L31.4994484,6.53538946 C31.3001892,6.75385579 31.0666564,6.92391521 30.79885,7.04556771 C30.5309561,7.16735163 30.2413789,7.22819978 29.930031,7.22819978 C29.6185519,7.22819978 29.3274009,7.16577457 29.0564032,7.04096796 C28.7856241,6.91611753 28.5489,6.74452487 28.3464495,6.52601473 C28.143999,6.30750459 27.9836474,6.05171455 27.8653947,5.75846939 C27.7470108,5.46500519 27.6878188,5.14976883 27.6878188,4.81284792 C27.6878188,4.48210382 27.7470108,4.16989016 27.8653947,3.87664499 C27.9836474,3.58335602 28.143999,3.32739075 28.3464495,3.10905584 C28.5489,2.89058951 28.7856241,2.71733217 29.0564032,2.58950286 C29.3274009,2.46154213 29.6185519,2.39753987 29.930031,2.39753987 C30.2413789,2.39753987 30.5309561,2.45834421 30.79885,2.58012813 C31.0666564,2.70173682 31.3001892,2.87184004 31.4994484,3.09030638 L31.4994484,2.56602222 L32.3029114,2.56602222 Z M29.9953869,6.45106067 C30.2008976,6.45106067 30.3954791,6.40738493 30.5791752,6.32007724 C30.7630025,6.23272576 30.9233542,6.11571682 31.0603612,5.96896282 C31.1974557,5.82225262 31.3048668,5.64921432 31.382682,5.44940984 C31.4605408,5.24964916 31.4994484,5.03753487 31.4994484,4.81284792 C31.4994484,4.58816097 31.4605408,4.37604668 31.382682,4.176286 C31.3048668,3.97652533 31.1974557,3.80326799 31.0603612,3.65673302 C30.9233542,3.51002283 30.7630025,3.39297008 30.5791752,3.3056624 C30.3954791,3.21831091 30.2008976,3.17463517 29.9953869,3.17463517 C29.7898763,3.17463517 29.5951637,3.21831091 29.4114238,3.3056624 C29.2277276,3.39297008 29.0673323,3.51002283 28.9303689,3.65673302 C28.7934056,3.80326799 28.684377,3.97652533 28.6034143,4.176286 C28.5224079,4.37604668 28.4819702,4.58816097 28.4819702,4.81284792 C28.4819702,5.03753487 28.5224079,5.24964916 28.6034143,5.44940984 C28.684377,5.64921432 28.7934056,5.82225262 28.9303689,5.96896282 C29.0673323,6.11571682 29.2277276,6.23272576 29.4114238,6.32007724 C29.5951637,6.40738493 29.7898763,6.45106067 29.9953869,6.45106067 L29.9953869,6.45106067 Z M34.6615402,7.05971742 L35.4555605,7.05971742 L35.4555605,0.487810307 L34.6615402,0.487810307 L34.6615402,7.05971742 Z M37.6273019,7.05971742 L38.4214096,7.05971742 L38.4214096,2.56602222 L37.6273019,2.56602222 L37.6273019,7.05971742 Z M38.5428537,1.28347985 C38.5428537,1.42703593 38.4930607,1.55022168 38.3934311,1.65329994 C38.2937578,1.75615916 38.1723138,1.80780781 38.0290553,1.80780781 C37.8857968,1.80780781 37.7628226,1.75615916 37.6600018,1.65329994 C37.5572246,1.55022168 37.5059453,1.42703593 37.5059453,1.28347985 C37.5059453,1.13992377 37.5572246,1.01831508 37.6600018,0.918434741 C37.7628226,0.818554404 37.8857968,0.768482815 38.0290553,0.768482815 C38.1723138,0.768482815 38.2937578,0.818554404 38.3934311,0.918434741 C38.4930607,1.01831508 38.5428537,1.13992377 38.5428537,1.28347985 L38.5428537,1.28347985 Z M44.9278906,2.56602222 L44.9278906,7.05971742 L44.124515,7.05971742 L44.124515,6.53538946 C43.9251684,6.75385579 43.691723,6.92391521 43.4238292,7.04556771 C43.1560227,7.16735163 42.8664455,7.22819978 42.5550102,7.22819978 C42.2436623,7.22819978 41.9524239,7.16577457 41.6814699,7.04096796 C41.4106033,6.91611753 41.1739666,6.74452487 40.9715161,6.52601473 C40.7690657,6.30750459 40.6087141,6.05171455 40.4903739,5.75846939 C40.3720774,5.46500519 40.3128854,5.14976883 40.3128854,4.81284792 C40.3128854,4.48210382 40.3720774,4.16989016 40.4903739,3.87664499 C40.6087141,3.58335602 40.7690657,3.32739075 40.9715161,3.10905584 C41.1739666,2.89058951 41.4106033,2.71733217 41.6814699,2.58950286 C41.9524239,2.46154213 42.2436623,2.39753987 42.5550102,2.39753987 C42.8664455,2.39753987 43.1560227,2.45834421 43.4238292,2.58012813 C43.691723,2.70173682 43.9251684,2.87184004 44.124515,3.09030638 L44.124515,2.56602222 L44.9278906,2.56602222 Z M42.6204536,6.45106067 C42.8259642,6.45106067 43.0205457,6.40738493 43.2042419,6.32007724 C43.3880692,6.23272576 43.5483334,6.11571682 43.6854279,5.96896282 C43.8224349,5.82225262 43.929846,5.64921432 44.0077486,5.44940984 C44.0856074,5.24964916 44.124515,5.03753487 44.124515,4.81284792 C44.124515,4.58816097 44.0856074,4.37604668 44.0077486,4.176286 C43.929846,3.97652533 43.8224349,3.80326799 43.6854279,3.65673302 C43.5483334,3.51002283 43.3880692,3.39297008 43.2042419,3.3056624 C43.0205457,3.21831091 42.8259642,3.17463517 42.6204536,3.17463517 C42.4148555,3.17463517 42.2202303,3.21831091 42.0364904,3.3056624 C41.8527943,3.39297008 41.6923989,3.51002283 41.5553481,3.65673302 C41.4183848,3.80326799 41.3093125,3.97652533 41.2284809,4.176286 C41.1474745,4.37604668 41.1069494,4.58816097 41.1069494,4.81284792 C41.1069494,5.03753487 41.1474745,5.24964916 41.2284809,5.44940984 C41.3093125,5.64921432 41.4183848,5.82225262 41.5553481,5.96896282 C41.6923989,6.11571682 41.8527943,6.23272576 42.0364904,6.32007724 C42.2202303,6.40738493 42.4148555,6.45106067 42.6204536,6.45106067 L42.6204536,6.45106067 Z M51.2289046,3.91410012 C51.2414075,3.98270214 51.2507628,4.04350648 51.2569268,4.09673219 C51.2632657,4.14973886 51.2662821,4.19823339 51.2662821,4.24186533 L51.2662821,4.37284875 L51.2662821,7.05971742 L50.4722618,7.05971742 L50.4722618,4.41030388 C50.4722618,4.31046735 50.461289,4.18863962 50.4395183,4.04508354 C50.4176601,3.90157127 50.3695284,3.76436723 50.2947297,3.63320858 C50.2200184,3.50222515 50.107886,3.38977216 49.9583323,3.29628767 C49.8089098,3.20258414 49.6096069,3.15592951 49.3604673,3.15592951 C49.0614911,3.15592951 48.823237,3.20100708 48.6457923,3.29146888 C48.4683038,3.38201829 48.3312968,3.49127336 48.2347273,3.6192779 C48.1381579,3.74723863 48.0743757,3.87506793 48.0432497,4.00302866 C48.0120362,4.13098939 47.993413,4.23249059 47.9871178,4.30726943 L47.9871178,7.05971742 L47.1930101,7.05971742 L47.1930101,2.56602222 L47.9871178,2.56602222 L47.9871178,2.96852246 C47.993413,2.96852246 48.0261128,2.93741937 48.0853485,2.87499416 C48.1444093,2.81261276 48.2316235,2.74703343 48.3468598,2.67843141 C48.4620524,2.60969797 48.6052672,2.54587093 48.7765916,2.4864246 C48.9478723,2.42724112 49.1456014,2.39753987 49.3697352,2.39753987 C49.7123403,2.39753987 49.9972836,2.44896948 50.2246524,2.55200393 C50.4519337,2.65490696 50.6356736,2.7829115 50.7758283,2.93579851 C50.9159392,3.08872932 51.0202464,3.25401375 51.0888374,3.43204607 C51.1574284,3.60990316 51.2039863,3.77058785 51.2289046,3.91410012 L51.2289046,3.91410012 Z M57.3431187,3.19320941 C57.8164794,3.31183921 58.2010523,3.45535148 58.4968809,3.62383384 C58.7926658,3.79249143 59.0246248,3.97188177 59.1929328,4.16213629 C59.3610659,4.35252223 59.4746848,4.54452903 59.5337893,4.73789386 C59.5930249,4.93147772 59.6227521,5.11551162 59.6227521,5.29030221 C59.6227521,5.55866491 59.5604125,5.809899 59.4356898,6.04391688 C59.3111856,6.27797856 59.1414349,6.48233898 58.9266127,6.65699815 C58.7117031,6.83183255 58.4595034,6.97078888 58.1699699,7.0736481 C57.880349,7.17672636 57.5705749,7.22819978 57.2404727,7.22819978 C56.9352013,7.22819978 56.6455804,7.18448023 56.3714351,7.09699732 C56.0975084,7.00964583 55.8561504,6.88803714 55.6474484,6.73195221 C55.4389651,6.57586728 55.2660669,6.39341044 55.1290161,6.18427503 C54.9918779,5.97518343 54.9079425,5.74909465 54.876729,5.50561443 L55.6520824,5.34633158 C55.7393402,5.63344374 55.9246102,5.87547833 56.2081108,6.07186585 C56.4913928,6.26860383 56.8355717,6.3669071 57.2404727,6.3669071 C57.4459833,6.3669071 57.6405648,6.33882671 57.8242172,6.28262212 C58.0080008,6.22632991 58.1683962,6.14839696 58.3054469,6.04851663 C58.4423229,5.9486801 58.549734,5.83482528 58.6277677,5.70682074 C58.7055828,5.57899143 58.7444904,5.4400351 58.7444904,5.29030221 C58.7444904,4.71616551 58.2089649,4.29491581 57.1375643,4.02655311 C56.8823919,3.96417171 56.6237222,3.89219654 56.3621235,3.81124089 C56.1006997,3.72989099 55.8655494,3.62225678 55.65676,3.48807544 C55.4481018,3.35389409 55.2768211,3.18383467 55.1429179,2.97789719 C55.0090584,2.77195971 54.9422161,2.50981763 54.9422161,2.19160238 C54.9422161,1.92323969 54.9950692,1.67502829 55.1009502,1.44736245 C55.2067875,1.21947758 55.3563849,1.02449189 55.5493489,0.862230148 C55.7425752,0.699924601 55.9759332,0.571920064 56.2501222,0.478435574 C56.5240052,0.384732048 56.8262601,0.338077417 57.156275,0.338077417 C57.448956,0.338077417 57.723145,0.381709353 57.9783611,0.469104648 C58.2338395,0.556412328 58.458017,0.676619189 58.6510248,0.829506196 C58.8442074,0.982393202 59.0014114,1.16327299 59.1228992,1.37240839 C59.2443432,1.5815438 59.3204971,1.8107867 59.3517543,2.06061896 L58.5762261,2.22905751 C58.50781,1.9294165 58.3520049,1.68282597 58.1092479,1.48946114 C57.8663161,1.2960087 57.5486293,1.19919486 57.156275,1.19919486 C56.7389148,1.19919486 56.4134465,1.29285458 56.1800012,1.48008641 C55.9464684,1.66727442 55.8296582,1.90449022 55.8296582,2.19160238 C55.8296582,2.30383634 55.8499864,2.40533754 55.8903803,2.49579934 C55.9307742,2.58634875 56.0055729,2.66905668 56.1146015,2.74383551 C56.2236301,2.81878957 56.3762002,2.89216657 56.5723555,2.96392271 C56.7685545,3.03567884 57.0253882,3.11207854 57.3431187,3.19320941 L57.3431187,3.19320941 Z M63.5319566,7.12512152 C63.513246,7.13147356 63.4635404,7.1470251 63.382534,7.17195138 C63.3015713,7.19687766 63.2003242,7.21400626 63.0790113,7.22338099 C62.9575673,7.23275572 62.8235329,7.22495805 62.677258,7.20007558 C62.5308519,7.1751493 62.3891671,7.11574679 62.2521601,7.02221849 C61.8349748,6.74132695 61.6261855,6.21397629 61.6261855,5.4400351 L61.6261855,3.34311753 L61.0564301,3.34311753 L61.0564301,2.56602222 L61.6261855,2.56602222 L61.6261855,0.487810307 L62.4015826,0.487810307 L62.4015826,2.56602222 L63.335845,2.56602222 L63.335845,3.34311753 L62.4015826,3.34311753 L62.4015826,5.4400351 C62.4015826,5.93308475 62.4950482,6.24507938 62.6818919,6.37628184 C62.73798,6.41378077 62.7986583,6.43550913 62.8641017,6.44168594 C62.9294139,6.44803797 62.9901797,6.44961503 63.0461366,6.44646092 C63.1022247,6.4433068 63.1506187,6.43550913 63.1910126,6.4231555 C63.2315814,6.41053904 63.2518221,6.40440604 63.2518221,6.40440604 L63.5319566,7.12512152 Z M65.1712327,5.71155191 C65.1463144,5.59296592 65.1338552,5.48371085 65.1338552,5.38383051 L65.1338552,5.25284709 L65.1338552,2.56602222 L65.9280066,2.56602222 L65.9280066,5.21534815 C65.9280066,5.32144911 65.9389357,5.44625572 65.9607065,5.58976799 C65.9825646,5.73332407 66.0306963,5.87065954 66.105495,6.00164296 C66.1802937,6.13288923 66.2906775,6.24507938 66.4371274,6.33882671 C66.5835772,6.43235501 66.7813063,6.47918487 67.0303584,6.47918487 C67.3292034,6.47918487 67.5689877,6.43235501 67.7496237,6.33882671 C67.9303034,6.24507938 68.0673542,6.13586812 68.1606886,6.01101769 C68.2541542,5.88625489 68.3164063,5.75846939 68.3476635,5.62726693 C68.3787458,5.4962397 68.3974564,5.39320524 68.4037516,5.31842641 L68.4037516,2.56602222 L69.2071272,2.56602222 L69.2071272,7.05971742 L68.4037516,7.05971742 L68.4037516,6.65699815 C68.4037516,6.65699815 68.3741556,6.68827647 68.3148762,6.75070168 C68.2558154,6.81308308 68.1686013,6.87866241 68.0534524,6.94726443 C67.9380849,7.01604168 67.7948264,7.07986872 67.6237206,7.13922743 C67.4524399,7.19849852 67.251432,7.22819978 67.0210468,7.22819978 C66.6784854,7.22819978 66.3951159,7.17672636 66.1708947,7.0736481 C65.9466735,6.97078888 65.7644637,6.84282815 65.6244402,6.68985353 C65.4841544,6.53696652 65.3798909,6.37150686 65.3114311,6.19364977 C65.2428838,6.01583648 65.1960636,5.8551518 65.1712327,5.71155191 L65.1712327,5.71155191 Z M75.7135207,0.497185041 L75.7135207,7.05971742 L74.9195441,7.05971742 L74.9195441,6.5447642 C74.7140335,6.76323053 74.4772657,6.93171289 74.209503,7.05034269 C73.9416529,7.16875346 73.652032,7.22819978 73.3406403,7.22819978 C73.0292487,7.22819978 72.7381851,7.16577457 72.4672748,7.04096796 C72.1962334,6.91611753 71.9597279,6.74452487 71.75719,6.52601473 C71.5548269,6.30750459 71.3944753,6.05171455 71.2760477,5.75846939 C71.1577075,5.46500519 71.0986467,5.15296675 71.0986467,4.82222265 C71.0986467,4.48508271 71.1577075,4.16989016 71.2760477,3.87664499 C71.3944753,3.58335602 71.5548269,3.32739075 71.75719,3.10905584 C71.9597279,2.89058951 72.1962334,2.71733217 72.4672748,2.58950286 C72.7381851,2.46154213 73.0292487,2.39753987 73.3406403,2.39753987 C73.652032,2.39753987 73.9416529,2.45996508 74.209503,2.58472788 C74.4772657,2.7095345 74.7140335,2.88121478 74.9195441,3.09968111 L74.9195441,0.497185041 L75.7135207,0.497185041 Z M73.4061274,6.45106067 C73.611638,6.45106067 73.8062196,6.40896198 73.9900031,6.324677 C74.1738304,6.24052343 74.3340072,6.12509155 74.4711017,5.97833755 C74.6081525,5.83162735 74.7171811,5.65854524 74.7981438,5.45878457 C74.8791502,5.2590239 74.9195441,5.0469096 74.9195441,4.82222265 C74.9195441,4.5975357 74.8791502,4.38520237 74.7981438,4.18561693 C74.7171811,3.98590006 74.6081525,3.81124089 74.4711017,3.66133278 C74.3340072,3.51159988 74.1738304,3.39297008 73.9900031,3.3056624 C73.8062196,3.21831091 73.611638,3.17463517 73.4061274,3.17463517 C73.2006168,3.17463517 73.0060353,3.21831091 72.822208,3.3056624 C72.6385118,3.39297008 72.4782039,3.51159988 72.3411531,3.66133278 C72.2040149,3.81124089 72.0966038,3.98590006 72.0188324,4.18561693 C71.9410173,4.38520237 71.9020223,4.5975357 71.9020223,4.82222265 C71.9020223,5.0469096 71.9410173,5.2590239 72.0188324,5.45878457 C72.0966038,5.65854524 72.2040149,5.83162735 72.3411531,5.97833755 C72.4782039,6.12509155 72.6385118,6.24052343 72.822208,6.324677 C73.0060353,6.40896198 73.2006168,6.45106067 73.4061274,6.45106067 L73.4061274,6.45106067 Z M78.3991042,5.02816014 C78.42411,5.22792081 78.4785806,5.41515263 78.5626034,5.58976799 C78.6467137,5.76460239 78.7525947,5.91433528 78.8803339,6.03914189 C79.0078983,6.16399232 79.1544792,6.26387265 79.3194648,6.33882671 C79.4844941,6.41378077 79.6604087,6.45106067 79.8472087,6.45106067 C80.1337695,6.45106067 80.3937507,6.38245865 80.6273709,6.24507938 C80.86086,6.10791914 81.0493212,5.92371001 81.1924923,5.69284625 L81.8465328,6.11413976 C81.6348144,6.45106067 81.3544614,6.72095661 81.0056923,6.92391521 C80.6569669,7.12669858 80.2707765,7.22819978 79.8472087,7.22819978 C79.5546151,7.22819978 79.2789834,7.17195138 79.0203574,7.05971742 C78.7619937,6.94726443 78.5331386,6.79275656 78.333792,6.59619381 C78.1344891,6.39958725 77.9709025,6.16714643 77.8433381,5.89878374 C77.7156863,5.63046485 77.6392701,5.34019857 77.6144393,5.02816014 C77.6144393,4.99688182 77.6128217,4.96258081 77.6098053,4.92508188 C77.6066577,4.88762675 77.6050402,4.85030305 77.6050402,4.81284792 C77.6050402,4.61308725 77.6268984,4.42589923 77.6705273,4.25106483 C77.7264406,3.98905418 77.8230974,3.7440407 77.9599734,3.51619964 C78.0970242,3.28848999 78.2606108,3.09192724 78.4506021,2.92642377 C78.6405497,2.76118314 78.8554593,2.63160155 79.0952436,2.53789802 C79.3348967,2.44436973 79.58561,2.39753987 79.8472087,2.39753987 C80.1088074,2.39753987 80.3595207,2.44436973 80.5992613,2.53789802 C80.8390018,2.63160155 81.0539114,2.76118314 81.2439027,2.92642377 C81.433894,3.09192724 81.5973932,3.28848999 81.7342692,3.51619964 C81.8714074,3.7440407 81.9678894,3.98905418 82.0239775,4.25106483 C82.067519,4.42589923 82.0894646,4.61308725 82.0894646,4.81284792 L82.0894646,4.92508188 C82.0894646,4.96258081 82.0862296,4.99688182 82.0800656,5.02816014 L78.3991042,5.02816014 Z M81.2206019,4.25106483 C81.1147209,3.93284959 80.9386751,3.67386162 80.6927706,3.47410095 C80.4466912,3.27438409 80.1649392,3.17463517 79.8472087,3.17463517 C79.5296531,3.17463517 79.2478137,3.27438409 79.0016468,3.47410095 C78.7557423,3.67386162 78.5796965,3.93284959 78.4739029,4.25106483 L81.2206019,4.25106483 Z M88.0167038,3.91410012 C88.0291629,3.98270214 88.038562,4.04350648 88.044726,4.09673219 C88.0509337,4.14973886 88.0540813,4.19823339 88.0540813,4.24186533 L88.0540813,4.37284875 L88.0540813,7.05971742 L87.2600173,7.05971742 L87.2600173,4.41030388 C87.2600173,4.31046735 87.2490882,4.18863962 87.2274049,4.04508354 C87.2055467,3.90157127 87.1572401,3.76436723 87.0826163,3.63320858 C87.0078176,3.50222515 86.8955977,3.38977216 86.7461752,3.29628767 C86.5967526,3.20258414 86.397406,3.15592951 86.1483539,3.15592951 C85.849334,3.15592951 85.6111235,3.20100708 85.4336788,3.29146888 C85.2561467,3.38201829 85.1191396,3.49127336 85.0226576,3.6192779 C84.9259133,3.74723863 84.862306,3.87506793 84.8310488,4.00302866 C84.7997916,4.13098939 84.7812559,4.23249059 84.7749607,4.30726943 L84.7749607,7.05971742 L83.9808967,7.05971742 L83.9808967,2.56602222 L84.7749607,2.56602222 L84.7749607,2.96852246 C84.7812559,2.96852246 84.8139557,2.93741937 84.8730602,2.87499416 C84.9322959,2.81261276 85.0194663,2.74703343 85.1346589,2.67843141 C85.2498515,2.60969797 85.39311,2.54587093 85.5643908,2.4864246 C85.7356715,2.42724112 85.9334443,2.39753987 86.1576655,2.39753987 C86.5002269,2.39753987 86.7851264,2.44896948 87.0124952,2.55200393 C87.2397766,2.65490696 87.4233853,2.7829115 87.5636711,2.93579851 C87.7036946,3.08872932 87.8081767,3.25401375 87.8765928,3.43204607 C87.9452275,3.60990316 87.9917854,3.77058785 88.0167038,3.91410012 L88.0167038,3.91410012 Z M92.3277928,7.12512152 C92.3090822,7.13147356 92.2594204,7.1470251 92.1783702,7.17195138 C92.0974513,7.19687766 91.9961604,7.21400626 91.8747601,7.22338099 C91.7532723,7.23275572 91.6193691,7.22495805 91.4730942,7.20007558 C91.3266881,7.1751493 91.1850471,7.11574679 91.0479963,7.02221849 C90.6307236,6.74132695 90.4220217,6.21397629 90.4220217,5.4400351 L90.4220217,3.34311753 L89.8522664,3.34311753 L89.8522664,2.56602222 L90.4220217,2.56602222 L90.4220217,0.487810307 L91.1974188,0.487810307 L91.1974188,2.56602222 L92.1316812,2.56602222 L92.1316812,3.34311753 L91.1974188,3.34311753 L91.1974188,5.4400351 C91.1974188,5.93308475 91.2908844,6.24507938 91.4777281,6.37628184 C91.5338162,6.41378077 91.5944508,6.43550913 91.6599379,6.44168594 C91.7251627,6.44803797 91.7860596,6.44961503 91.8419728,6.44646092 C91.8980609,6.4433068 91.9464112,6.43550913 91.9867614,6.4231555 C92.0274176,6.41053904 92.0476583,6.40440604 92.0476583,6.40440604 L92.3277928,7.12512152 Z M94.6116229,2.26655644 L94.116404,2.04186949 L94.8452432,0.0103122067 L95.6486187,0.365982581 L94.6116229,2.26655644 Z M98.7920874,4.31664416 C98.9602206,4.35409929 99.1531846,4.40092915 99.3712418,4.45700232 C99.5892553,4.51320691 99.7962085,4.59595864 99.9923201,4.70521371 C100.188738,4.81442498 100.35521,4.95938289 100.492348,5.14039409 C100.629399,5.32144911 100.697858,5.55231287 100.697858,5.83320441 C100.697858,6.27018088 100.521988,6.61174535 100.170027,6.85833588 C99.8180667,7.10497022 99.3308042,7.22819978 98.7079334,7.22819978 C98.4837122,7.22819978 98.2720376,7.20463152 98.0726473,7.15797689 C97.8733007,7.11114703 97.6927084,7.04394684 97.5307393,6.95663916 C97.368945,6.86928767 97.2255553,6.76783028 97.1010074,6.6523984 C96.9764158,6.53696652 96.8830814,6.40738493 96.820873,6.26387265 L97.5307393,6.01101769 C97.6180845,6.1296475 97.7675071,6.23272576 97.9791817,6.32007724 C98.1909875,6.40738493 98.4339193,6.45106067 98.7079334,6.45106067 C98.8012242,6.45106067 98.9134441,6.44488386 99.0443308,6.43235501 C99.1750428,6.41991377 99.3011645,6.39183338 99.4225648,6.34820145 C99.5440963,6.3045257 99.6483161,6.24210049 99.7354865,6.16096962 C99.8227007,6.07983875 99.866417,5.97058368 99.866417,5.83320441 C99.866417,5.77082301 99.8571054,5.7083978 99.8383948,5.64597259 C99.8196842,5.58363499 99.7713776,5.52120978 99.6934751,5.45878457 C99.6157037,5.39640317 99.4942159,5.33397796 99.3292304,5.27155275 C99.1641137,5.20921515 98.9321109,5.14678994 98.6331347,5.08436473 C98.4275804,5.04055756 98.2204523,4.99223826 98.011969,4.9392754 C97.8032671,4.88622492 97.616467,4.8096938 97.4513066,4.70976966 C97.2863648,4.60993313 97.1509315,4.48368088 97.0450505,4.33079387 C96.9390383,4.17786306 96.8862727,3.98270214 96.8862727,3.74561776 C96.8862727,3.34609641 97.0419029,3.02174816 97.3532071,2.77195971 C97.6647736,2.52234648 98.0943306,2.39753987 98.64249,2.39753987 C98.8543395,2.39753987 99.0582326,2.41944345 99.2544754,2.46311919 C99.450587,2.50679494 99.6296492,2.5707534 99.7916183,2.65490696 C99.9535874,2.73923576 100.095228,2.83911609 100.216716,2.95454797 C100.33816,3.07002366 100.426861,3.19960525 100.482949,3.34311753 L99.7729077,3.59575345 C99.6982839,3.47094684 99.565867,3.36962086 99.3757883,3.29146888 C99.1859719,3.21353593 98.9695321,3.17463517 98.7266003,3.17463517 C98.4089135,3.17463517 98.1613915,3.22751042 97.9839468,3.33374279 C97.8064146,3.43979994 97.7177141,3.57717921 97.7177141,3.74561776 C97.7177141,3.80169093 97.7254956,3.85329577 97.741015,3.90016944 C97.756578,3.94682407 97.798502,3.99203307 97.8671367,4.03575262 C97.9356402,4.07960359 98.0430513,4.12468116 98.1894574,4.17151102 C98.3359072,4.21834088 98.5366527,4.26679161 98.7920874,4.31664416 L98.7920874,4.31664416 Z M107.830358,6.3669071 C108.2788,6.3669071 108.693013,6.25922909 109.072777,6.04391688 C109.452847,5.82860466 109.757987,5.54293813 109.988372,5.18726776 L110.707812,5.65534732 C110.558215,5.89260693 110.380683,6.10791914 110.175172,6.30132778 C109.969662,6.49486783 109.742468,6.66019608 109.493197,6.79753154 C109.244057,6.93469177 108.979486,7.04096796 108.699133,7.11574679 C108.418824,7.19070085 108.129378,7.22819978 107.830358,7.22819978 C107.356997,7.22819978 106.911746,7.13765037 106.494386,6.95663916 C106.077201,6.77558415 105.712693,6.52916884 105.401302,6.21699899 C105.089998,5.90496055 104.843831,5.53991544 104.663413,5.12181986 C104.482734,4.70363666 104.392416,4.25741687 104.392416,3.78311669 C104.392416,3.30881652 104.482734,2.86246531 104.663413,2.44436973 C104.843831,2.02614272 105.089998,1.66105381 105.401302,1.34905917 C105.712693,1.03702074 106.077201,0.790430204 106.494386,0.609418998 C106.911746,0.428407791 107.356997,0.338077417 107.830358,0.338077417 C108.434562,0.338077417 108.988841,0.480056439 109.493197,0.763926869 C109.997771,1.0477973 110.402541,1.42703593 110.707812,1.90133611 L109.988372,2.3787904 C109.757987,2.02312003 109.452847,1.73762873 109.072777,1.52231651 C108.693013,1.30682907 108.2788,1.19919486 107.830358,1.19919486 C107.475425,1.19919486 107.143705,1.26635125 106.835417,1.40048879 C106.526998,1.53471394 106.256263,1.71887926 106.022642,1.95294095 C105.78911,2.18678359 105.605282,2.46154213 105.471379,2.77669088 C105.337432,3.09192724 105.27059,3.42727109 105.27059,3.78311669 C105.27059,4.13878707 105.337432,4.47430615 105.471379,4.78954251 C105.605282,5.10451603 105.78911,5.37923076 106.022642,5.61329244 C106.256263,5.84735413 106.526998,6.03138803 106.835417,6.16556937 C107.143705,6.29970691 107.475425,6.3669071 107.830358,6.3669071 L107.830358,6.3669071 Z M116.821852,3.90472538 C116.834398,3.97332741 116.84371,4.03430698 116.849874,4.08735746 C116.856081,4.14036413 116.859273,4.18863962 116.859273,4.23249059 L116.859273,4.36347402 L116.859273,7.05971742 L116.065209,7.05971742 L116.065209,4.40092915 C116.065209,4.30109262 116.05428,4.17948393 116.032422,4.03575262 C116.010694,3.89219654 115.962388,3.75499249 115.887764,3.62383384 C115.812965,3.49285042 115.702319,3.38044123 115.556132,3.28691293 C115.409682,3.19320941 115.211953,3.14655478 114.962813,3.14655478 C114.663793,3.14655478 114.424053,3.19180758 114.243461,3.28231318 C114.062781,3.37264356 113.925905,3.48189863 113.832396,3.60990316 C113.73893,3.73786389 113.676591,3.86727026 113.645596,3.99825368 C113.614338,4.12941234 113.595628,4.23249059 113.589508,4.30726943 L113.589508,7.05971742 L112.786132,7.05971742 L112.786132,0.487810307 L113.589508,0.487810307 L113.589508,2.96852246 C113.589508,2.96234565 113.619103,2.9296655 113.678208,2.87021918 C113.737313,2.81099189 113.824658,2.74541257 113.939807,2.67365643 C114.054999,2.60190029 114.198258,2.53632097 114.369539,2.47704987 C114.540819,2.41786639 114.741565,2.38816513 114.972212,2.38816513 C115.314774,2.38816513 115.598056,2.43959475 115.822277,2.542673 C116.046498,2.64553223 116.228795,2.77353677 116.368819,2.92642377 C116.50893,3.07935459 116.613193,3.24485806 116.681741,3.42267134 C116.7502,3.60052843 116.797021,3.76121311 116.821852,3.90472538 L116.821852,3.90472538 Z M121.076852,7.22819978 C120.74063,7.22819978 120.426134,7.16577457 120.133453,7.04096796 C119.840597,6.91611753 119.585381,6.74452487 119.367324,6.52601473 C119.149223,6.30750459 118.9765,6.05171455 118.848848,5.75846939 C118.721109,5.46500519 118.657239,5.14976883 118.657239,4.81284792 C118.657239,4.48210382 118.721109,4.16989016 118.848848,3.87664499 C118.9765,3.58335602 119.149223,3.32739075 119.367324,3.10905584 C119.585381,2.89058951 119.840597,2.71733217 120.133453,2.58950286 C120.426134,2.46154213 120.74063,2.39753987 121.076852,2.39753987 C121.406955,2.39753987 121.718521,2.46154213 122.011202,2.58950286 C122.30384,2.71733217 122.559274,2.89058951 122.7772,3.10905584 C122.99517,3.32739075 123.168068,3.58335602 123.295633,3.87664499 C123.423372,4.16989016 123.487241,4.48210382 123.487241,4.81284792 C123.487241,5.14976883 123.423372,5.46500519 123.295633,5.75846939 C123.168068,6.05171455 122.99517,6.30750459 122.7772,6.52601473 C122.559274,6.74452487 122.30384,6.91611753 122.011202,7.04096796 C121.718521,7.16577457 121.406955,7.22819978 121.076852,7.22819978 L121.076852,7.22819978 Z M121.076852,3.17463517 C120.852631,3.17463517 120.640957,3.21673386 120.44161,3.30084361 C120.242307,3.38521621 120.071026,3.50222515 119.927768,3.65195804 C119.784509,3.80169093 119.670934,3.97652533 119.586911,4.176286 C119.502801,4.37604668 119.46079,4.58816097 119.46079,4.81284792 C119.46079,5.03753487 119.502801,5.24964916 119.586911,5.44940984 C119.670934,5.64921432 119.784509,5.82225262 119.927768,5.96896282 C120.071026,6.11571682 120.242307,6.2311487 120.44161,6.31547749 C120.640957,6.39958725 120.852631,6.44168594 121.076852,6.44168594 C121.301074,6.44168594 121.511393,6.39958725 121.707592,6.31547749 C121.903704,6.2311487 122.075072,6.11571682 122.221259,5.96896282 C122.367665,5.82225262 122.482858,5.64921432 122.567056,5.44940984 C122.650991,5.24964916 122.693178,5.03753487 122.693178,4.81284792 C122.693178,4.58816097 122.650991,4.37604668 122.567056,4.176286 C122.482858,3.97652533 122.367665,3.80169093 122.221259,3.65195804 C122.075072,3.50222515 121.903704,3.38521621 121.707592,3.30084361 C121.511393,3.21673386 121.301074,3.17463517 121.076852,3.17463517 L121.076852,3.17463517 Z M125.37863,7.05971742 L126.172869,7.05971742 L126.172869,2.56602222 L125.37863,2.56602222 L125.37863,7.05971742 Z M126.294313,1.28347985 C126.294313,1.42703593 126.24452,1.55022168 126.14489,1.65329994 C126.045173,1.75615916 125.923817,1.80780781 125.780383,1.80780781 C125.637125,1.80780781 125.514151,1.75615916 125.411505,1.65329994 C125.30864,1.55022168 125.257317,1.42703593 125.257317,1.28347985 C125.257317,1.13992377 125.30864,1.01831508 125.411505,0.918434741 C125.514151,0.818554404 125.637125,0.768482815 125.780383,0.768482815 C125.923817,0.768482815 126.045173,0.818554404 126.14489,0.918434741 C126.24452,1.01831508 126.294313,1.13992377 126.294313,1.28347985 L126.294313,1.28347985 Z M130.483914,3.17463517 C130.259693,3.17463517 130.047931,3.21831091 129.848628,3.3056624 C129.649281,3.39297008 129.478175,3.50840196 129.334917,3.65195804 C129.191615,3.79547032 129.077908,3.9671506 128.993886,4.16691127 C128.909775,4.36667194 128.867764,4.57878624 128.867764,4.80347319 C128.867764,5.02816014 128.909775,5.24031824 128.993886,5.4400351 C129.077908,5.63983958 129.191615,5.81445494 129.334917,5.96418783 C129.478175,6.11413976 129.649281,6.23272576 129.848628,6.32007724 C130.047931,6.40738493 130.259693,6.45106067 130.483914,6.45106067 C130.776682,6.45106067 131.039768,6.38088159 131.273257,6.24052343 C131.506877,6.10016528 131.695338,5.91757701 131.838509,5.69284625 L132.501861,6.12351449 C132.283804,6.4604354 131.998861,6.72875429 131.6469,6.92855877 C131.295202,7.12827564 130.907394,7.22819978 130.483914,7.22819978 C130.147648,7.22819978 129.833109,7.16419751 129.540428,7.03619297 C129.247528,6.90840747 128.992355,6.73515014 128.774255,6.51664 C128.556197,6.29812986 128.383474,6.04233982 128.255822,5.74909465 C128.128083,5.45563045 128.064388,5.14039409 128.064388,4.80347319 C128.064388,4.47272909 128.128083,4.16073446 128.255822,3.86727026 C128.383474,3.57398129 128.556197,3.31959308 128.774255,3.10428086 C128.992355,2.88896865 129.247528,2.71733217 129.540428,2.58950286 C129.833109,2.46154213 130.147648,2.39753987 130.483914,2.39753987 C130.907394,2.39753987 131.295202,2.4974202 131.6469,2.69718088 C131.998861,2.89676632 132.283804,3.16512902 132.501861,3.50222515 L131.847908,3.93284959 C131.70465,3.70194202 131.514658,3.51777669 131.278065,3.38044123 C131.041298,3.24323719 130.776682,3.17463517 130.483914,3.17463517 L130.483914,3.17463517 Z M134.720204,5.02816014 C134.74521,5.22792081 134.799768,5.41515263 134.883704,5.58976799 C134.967901,5.76460239 135.073782,5.91433528 135.201434,6.03914189 C135.328998,6.16399232 135.475404,6.26387265 135.640565,6.33882671 C135.805507,6.41378077 135.981596,6.45106067 136.168396,6.45106067 C136.45487,6.45106067 136.714938,6.38245865 136.948471,6.24507938 C137.182048,6.10791914 137.370421,5.92371001 137.51368,5.69284625 L138.167502,6.11413976 C137.955827,6.45106067 137.675693,6.72095661 137.32688,6.92391521 C136.977936,7.12669858 136.591745,7.22819978 136.168396,7.22819978 C135.87554,7.22819978 135.599996,7.17195138 135.341545,7.05971742 C135.083094,6.94726443 134.854108,6.79275656 134.65498,6.59619381 C134.455589,6.39958725 134.29209,6.16714643 134.164351,5.89878374 C134.036786,5.63046485 133.96037,5.34019857 133.935539,5.02816014 C133.935539,4.99688182 133.933922,4.96258081 133.930905,4.92508188 C133.927758,4.88762675 133.926228,4.85030305 133.926228,4.81284792 C133.926228,4.61308725 133.948086,4.42589923 133.991627,4.25106483 C134.047541,3.98905418 134.144198,3.7440407 134.281161,3.51619964 C134.418212,3.28848999 134.581711,3.09192724 134.771702,2.92642377 C134.961737,2.76118314 135.176559,2.63160155 135.416344,2.53789802 C135.656084,2.44436973 135.906798,2.39753987 136.168396,2.39753987 C136.429995,2.39753987 136.680708,2.44436973 136.920449,2.53789802 C137.160146,2.63160155 137.375055,2.76118314 137.565003,2.92642377 C137.754994,3.09192724 137.918406,3.28848999 138.055457,3.51619964 C138.192507,3.7440407 138.288989,3.98905418 138.345078,4.25106483 C138.388707,4.42589923 138.410565,4.61308725 138.410565,4.81284792 L138.410565,4.92508188 C138.410565,4.96258081 138.407417,4.99688182 138.400991,5.02816014 L134.720204,5.02816014 Z M137.541702,4.25106483 C137.435734,3.93284959 137.259863,3.67386162 137.013783,3.47410095 C136.767791,3.27438409 136.485952,3.17463517 136.168396,3.17463517 C135.850666,3.17463517 135.568914,3.27438409 135.322834,3.47410095 C135.07693,3.67386162 134.900884,3.93284959 134.795003,4.25106483 L137.541702,4.25106483 Z" id="Fill-8" fill="#D8D8D8" mask="url(#mask-4)"></path>
                </g>
                <g id="Group-13" transform="translate(5.901709, 0.005695)">
                    <mask id="mask-6" fill="white">
                        <use xlink:href="#path-5"></use>
                    </mask>
                    <g id="Clip-12"></g>
                    <path d="M39.9322296,11.162184 L39.9322296,35.4713494 L41.3162896,40.8301923 L39.4269996,40.8301923 L39.1750185,40.8301923 L37.2856411,40.8301923 L38.6696574,35.4713494 L38.6696574,11.6783638 L28.5021934,15.8362333 L28.5021934,19.6935418 C26.2008767,18.8345271 23.3812151,18.4214693 19.9667924,18.5885936 C16.548785,18.4214693 13.730566,18.8185813 11.4316537,19.6510488 L11.4316537,15.836058 L0.00209838535,11.1620964 L19.9672296,0.0381428987 L39.9322296,11.1620964 L39.9320547,11.162184 L39.9322296,11.162184 Z" id="Fill-11" fill="#E0481B" mask="url(#mask-6)"></path>
                </g>
                <g id="Group-16" transform="translate(197.248223, 28.173702)">
                    <mask id="mask-8" fill="white">
                        <use xlink:href="#path-7"></use>
                    </mask>
                    <g id="Clip-15"></g>
                    <polygon id="Fill-14" fill="#D8D8D8" mask="url(#mask-8)" points="15.9524151 0.0326407188 19.5267522 0.0326407188 6.43470743 30.4089233 2.89814122 30.4089233 7.97920649 18.570475 0.005779303 0.0326407188 3.54064058 0.0326407188 9.74648412 14.4377508"></polygon>
                </g>
            </g>
        </g>
    </g>
</svg>