<?xml version="1.0" encoding="UTF-8"?>
<svg width="238px" height="62px" viewBox="0 0 238 62" version="1.1" xmlns="http://www.w3.org/2000/svg" xmlns:xlink="http://www.w3.org/1999/xlink">
    <!-- Generator: Sketch 50.2 (55047) - http://www.bohemiancoding.com/sketch -->
    <title>Group 21</title>
    <desc>Created with Sketch.</desc>
    <defs>
        <polygon id="path-1" points="9.46486421e-22 0.0174084751 9.46486421e-22 47.3766662 55.1025975 47.3766662 55.1025975 0.0174084751 0 0.0174084751"></polygon>
        <polygon id="path-3" points="44.0103625 0.0413594528 0.00223521282 0.0413594528 0.00223521282 44.2581141 44.0103625 44.2581141"></polygon>
        <polygon id="path-5" points="0.0240064821 7.65306778 148.046414 7.65306778 148.046414 0.0109183767 0.0240064821 0.0109183767"></polygon>
        <polygon id="path-7" points="21.0771987 32.290832 21.0771987 0.034660746 0.00623818907 0.034660746 0.00623818907 32.290832"></polygon>
    </defs>
    <g id="Page-1" stroke="none" stroke-width="1" fill="none" fill-rule="evenodd">
        <g id="header_footer" transform="translate(-506.000000, -905.000000)">
            <g id="footer" transform="translate(147.000000, 785.000000)">
                <g id="Group-21" transform="translate(359.000000, 120.000000)">
                    <g id="logo">
                        <g id="Group-3">
                            <g transform="translate(0.000000, 0.000000)">
                                <g id="Fill-1-Clipped" transform="translate(0.000000, 14.390977)">
                                    <mask id="mask-2" fill="white">
                                        <use xlink:href="#path-1"></use>
                                    </mask>
                                    <g id="path-1"></g>
                                    <path d="M27.5506228,47.3766662 C33.4547587,47.1769628 39.7189347,38.6089578 42.140231,29.5056301 C40.6592851,30.7555534 38.7578191,31.507166 36.6840384,31.507166 C31.9600313,31.507166 28.1292104,27.6079741 28.1292104,22.7997383 C28.1292104,17.9916447 31.9600313,14.092358 36.6840384,14.092358 C38.8643458,14.092358 40.8539014,14.9234918 42.3648778,16.2907539 C42.0678319,15.3655026 41.6824638,14.4902483 41.1995081,13.6791606 C42.6845513,11.5318041 44.517343,9.26303346 46.5814859,7.50034542 C52.0927576,2.79471002 52.8805344,5.09817056 52.8805344,5.09817056 C53.448786,8.59037332 50.4037865,16.0180217 44.8292877,20.1335039 C45.0707423,20.8976749 45.2115363,21.7077674 45.2350486,22.547858 C53.8954722,16.6001662 56.4809353,6.30586896 54.4443553,0.670385402 C53.5947016,-1.6814608 43.5006825,2.56462935 36.5755562,9.4783757 C34.2763373,8.31678822 31.3090446,7.72052148 27.5506228,7.90700294 C23.7678042,7.71919455 20.7913859,8.3014811 18.4903513,9.44107941 C11.5657837,2.54936962 1.50673027,-1.67719565 0.658194057,0.670385402 C-1.37647705,6.30112992 1.20237464,16.5823948 9.8460836,22.5329775 C9.86968897,21.7377655 9.99819158,20.9693768 10.2178565,20.2415067 C4.60336365,16.0990121 1.53624861,8.61847586 2.10845768,5.1019618 C2.10845768,5.1019618 2.90158878,2.78295719 8.44992145,7.52029681 C10.5281251,9.29497463 12.3733014,11.5789103 13.8681686,13.7409578 C13.3968991,14.5323783 13.0181424,15.3846484 12.7229589,16.2844509 C14.2329577,14.9209327 16.2199524,14.092358 18.3967213,14.092358 C23.1207284,14.092358 26.9515493,17.9916447 26.9515493,22.7997383 C26.9515493,27.6079741 23.1207284,31.507166 18.3967213,31.507166 C16.3959451,31.507166 14.5554712,30.8075881 13.0982703,29.635717 C15.6682758,38.7923588 22.0272457,47.3682306 27.5506228,47.3766662 Z M27.5513212,43.9247927 L27.5103493,43.912566 C27.065898,43.7794935 24.7256141,42.9841395 23.747877,40.7515751 C22.0863756,36.9576373 33.0161272,36.9576373 31.3546723,40.7515751 C30.3769351,42.9841395 28.0367444,43.7794935 27.5923397,43.912566 L27.5513212,43.9247927 Z M34.9060001,19.8554166 C35.1521571,19.8554166 35.3910043,19.8869787 35.619236,19.945885 C35.4748103,20.1740227 35.3910043,20.4453804 35.3910043,20.7370213 C35.3910043,21.5450286 36.0349606,22.2001542 36.828697,22.2001542 C37.1422247,22.2001542 37.4321936,22.0978857 37.6685267,21.9244366 C37.7531242,22.2011495 37.7986588,22.4948755 37.7986588,22.7997383 C37.7986588,24.4256101 36.5032036,25.7442022 34.9060001,25.7442022 C33.30875,25.7442022 32.0134344,24.4256101 32.0134344,22.7997383 C32.0134344,21.1740087 33.30875,19.8554166 34.9060001,19.8554166 Z M36.6840384,16.1037511 C33.0512792,16.1037511 30.105357,19.1023349 30.105357,22.7997383 C30.105357,26.497284 33.0512792,29.4958677 36.6840384,29.4958677 C40.3166581,29.4958677 43.2625802,26.497284 43.2625802,22.7997383 C43.2625802,19.1023349 40.3166581,16.1037511 36.6840384,16.1037511 Z M18.3967213,16.1037511 C22.0296202,16.1037511 24.9754959,19.1023349 24.9754959,22.7997383 C24.9754959,26.497284 22.0296202,29.4958677 18.3967213,29.4958677 C14.7641017,29.4958677 11.8182261,26.497284 11.8182261,22.7997383 C11.8182261,19.1023349 14.7641017,16.1037511 18.3967213,16.1037511 Z M20.1747597,19.8554166 C18.577463,19.8554166 17.2820077,21.1740087 17.2820077,22.7997383 C17.2820077,24.4256101 18.577463,25.7442022 20.1747597,25.7442022 C21.7720563,25.7442022 23.0673719,24.4256101 23.0673719,22.7997383 C23.0673719,22.4948755 23.0217907,22.2011495 22.9372863,21.9244366 C22.7008136,22.0978857 22.4108912,22.2001542 22.0974566,22.2001542 C21.3036271,22.2001542 20.6597638,21.5450286 20.6597638,20.7370213 C20.6597638,20.4453804 20.743663,20.1740227 20.8879025,19.945885 C20.6597638,19.8869787 20.4208701,19.8554166 20.1747597,19.8554166 Z" id="Fill-1" fill="#E0481B" fill-rule="nonzero" mask="url(#mask-2)"></path>
                                </g>
                                <g id="Group-13" transform="translate(6.473125, 0.688216)">
                                    <g id="Fill-11-Clipped">
                                        <mask id="mask-4" fill="white">
                                            <use xlink:href="#path-3"></use>
                                        </mask>
                                        <g id="path-5"></g>
                                        <path d="M42.5360534,12.0993114 L42.5360534,38.4493665 L44.0103625,44.2581141 L41.9978793,44.2581141 L41.7294675,44.2581141 L39.7168912,44.2581141 L41.1911538,38.4493665 L41.1911538,12.6588274 L30.3607094,17.1657732 L30.3607094,21.3469242 C27.9093329,20.4157904 24.9058122,19.9680541 21.2687485,20.1492095 C17.6278662,19.9680541 14.6258822,20.3985059 12.1770669,21.3008637 L12.1770669,17.1655832 L0.00223521282,12.0992165 L21.2692142,0.0413452073 L42.5360534,12.0992165 L42.5358671,12.0993114 L42.5360534,12.0993114 Z" id="Fill-11" fill="#E0481B" fill-rule="nonzero" mask="url(#mask-4)"></path>
                                    </g>
                                </g>
                            </g>
                        </g>
                        <path d="M79.5719211,40.8947368 C81.4046739,40.8876479 83.1176159,40.6240237 84.7179027,40.1039118 C86.3180483,39.5838 87.770184,38.8429308 89.0743568,37.8954347 C90.371374,36.9479862 91.4922291,35.8294508 92.4227992,34.5400663 C93.3603367,33.250444 94.0792488,31.8398809 94.5868797,30.2940086 C95.0873547,28.755178 95.3411936,27.130899 95.348161,25.4210765 L95.348161,25.3356281 C95.3411936,23.6257581 95.0944162,22.0086155 94.5938941,20.4697849 C94.0934191,18.9310017 93.3815213,17.52748 92.4580599,16.2451369 C91.5274426,14.9628413 90.4207576,13.851395 89.1236464,12.9110353 C87.8336438,11.9777648 86.3886167,11.2439846 84.7953914,10.7311044 C83.2022602,10.2180816 81.4893183,9.954505 79.6565654,9.94736842 C77.8236714,9.954505 76.1107294,10.2180816 74.5104426,10.7381459 C72.9102028,11.2583053 71.4580671,11.9991744 70.1539885,12.946623 C68.8568772,13.8941191 67.7361162,15.0126545 66.8055461,16.3021817 C65.8680086,17.5916613 65.1490023,19.0022721 64.6414186,20.5481442 C64.1408965,22.0869749 63.8871988,23.7111588 63.8801843,25.4210765 L63.8801843,25.5065247 C63.8871988,27.2163472 64.1338349,28.8334897 64.6344512,30.3723204 C65.1349262,31.9111036 65.846824,33.3147681 66.7702855,34.5970636 C67.7009026,35.8793591 68.8075877,36.990758 70.1046048,37.9311651 C71.3946545,38.8644357 72.8397286,39.5982159 74.4329539,40.1110008 C76.0260851,40.6240237 77.739027,40.8876479 79.5719211,40.8947368 Z M79.6565654,34.8249574 C78.3382224,34.8178208 77.1328171,34.5684222 76.0402082,34.0769518 C74.9475991,33.5854336 74.002953,32.908508 73.2062697,32.0464127 C72.4097277,31.1846027 71.7893947,30.1871984 71.3523323,29.054485 C70.9153169,27.921724 70.6967858,26.710461 70.6897242,25.4210765 L70.6897242,25.3356281 C70.6967858,24.0461961 70.9153169,22.8349331 71.3382092,21.7165879 C71.7682101,20.5909634 72.3745142,19.6077847 73.1640418,18.7528258 C73.9536635,17.8979146 74.8911539,17.2354523 75.969734,16.750928 C77.0553285,16.2736831 78.2536723,16.0242844 79.5719211,16.0171479 C80.8901229,16.0242844 82.0954811,16.2736831 83.1882314,16.7651536 C84.2807462,17.2567668 85.2253923,17.9336448 86.0219814,18.7956451 C86.8186176,19.6575978 87.4388565,20.6550022 87.876013,21.7878107 C88.3130284,22.9205717 88.5315595,24.1316444 88.5386211,25.4210765 L88.5386211,25.5065247 C88.5315595,26.7960996 88.3200428,28.0071722 87.890042,29.1257077 C87.4600881,30.2511418 86.8538783,31.2343207 86.0643035,32.0892795 C85.2748231,32.9442383 84.3443001,33.6067482 83.2587056,34.0911772 C82.1730168,34.5684222 80.974673,34.8178208 79.6565654,34.8249574 Z M96.4936374,40.3817616 L121.152074,40.3817616 L121.152074,34.611289 L104.868298,34.611289 L121.152074,15.4614484 L121.152074,10.4602961 L97.001174,10.4602961 L97.001174,16.2309589 L112.777555,16.2309589 L96.4936374,35.380752 L96.4936374,40.3817616 Z" id="Fill-4" fill="#F7BC40" fill-rule="nonzero"></path>
                        <path d="M126.948753,31.9326511 C127.061509,32.8466248 127.308056,33.7034753 127.688581,34.5031069 C128.069201,35.302834 128.548317,35.988219 129.126213,36.5594527 C129.70406,37.130591 130.366475,37.5875778 131.113362,37.9302226 C131.86025,38.2729151 132.656502,38.4443329 133.502121,38.4443329 C134.798855,38.4443329 135.975587,38.1301545 137.032598,37.5019405 C138.089609,36.8734881 138.942287,36.0310855 139.590678,34.9743509 L142.550272,36.9021929 C141.591804,38.4443329 140.323494,39.6794945 138.744965,40.6077253 C137.166531,41.5359085 135.418963,42 133.502121,42 C132.177338,42 130.930111,41.7429449 129.760297,41.2288346 C128.590624,40.7148674 127.554743,40.0079301 126.652699,39.108404 C125.750844,38.2086395 125.010734,37.1448003 124.433075,35.9168387 C123.855226,34.6888295 123.509995,33.3607351 123.397193,31.9326511 C123.397193,31.7898903 123.390134,31.6328725 123.376063,31.4614072 C123.361992,31.2901324 123.354839,31.1187623 123.354839,30.9474876 C123.354839,30.0335138 123.45357,29.1766633 123.650893,28.3770317 C123.904545,27.177441 124.341354,26.0564785 124.961556,25.014144 C125.581617,23.9716665 126.321539,23.0721404 127.181182,22.315375 C128.040872,21.5583712 129.01341,20.9658237 130.098658,20.5373508 C131.183764,20.1089732 132.318283,19.8947368 133.502121,19.8947368 C134.685959,19.8947368 135.820619,20.1089732 136.905771,20.5373508 C137.991113,20.9658237 138.96337,21.5583712 139.823106,22.315375 C140.682796,23.0721404 141.422765,23.9716665 142.042825,25.014144 C142.663075,26.0564785 143.099838,27.177441 143.353631,28.3770317 C143.550859,29.1766633 143.649497,30.0335138 143.649497,30.9474876 L143.649497,31.4614072 C143.649497,31.6328725 143.635425,31.7898903 143.607283,31.9326511 L126.948753,31.9326511 Z M139.717503,28.3770317 C139.238341,26.9204336 138.441947,25.7353384 137.328652,24.8213169 C136.21531,23.9073431 134.939752,23.4505946 133.502121,23.4505946 C132.064771,23.4505946 130.789167,23.9073431 129.675731,24.8213169 C128.562388,25.7353384 127.766042,26.9204336 127.286973,28.3770317 L139.717503,28.3770317 Z M156.50272,28.6770009 C157.263865,28.8482279 158.137579,29.0624167 159.124283,29.3194241 C160.110705,29.5765269 161.048042,29.9549811 161.935827,30.4546913 C162.8238,30.9545922 163.577792,31.6186156 164.197806,32.4467613 C164.818055,33.2750977 165.127897,34.3316892 165.127897,35.6168218 C165.127897,37.6159965 164.331645,39.1797843 162.739139,40.3078992 C161.146539,41.435871 158.941078,42 156.122288,42 C155.107442,42 154.149256,41.8930486 153.247212,41.6787168 C152.345169,41.464528 151.527787,41.1576449 150.794971,40.7577814 C150.062108,40.3577271 149.413764,39.8938263 148.849986,39.3654591 C148.28635,38.8370918 147.863377,38.2444489 147.581536,37.5875778 L150.794971,36.4309489 C151.189521,36.9735732 151.866006,37.4447695 152.824427,37.8445853 C153.782707,38.2444489 154.882072,38.4443329 156.122288,38.4443329 C156.545074,38.4443329 157.052426,38.4157236 157.644392,38.3587432 C158.23631,38.3015722 158.807193,38.1730684 159.356711,37.9731367 C159.90637,37.7732049 160.378428,37.4876834 160.773025,37.1163339 C161.167716,36.7449844 161.364943,36.2452265 161.364943,35.6168218 C161.364943,35.3312527 161.322872,35.0457313 161.238306,34.7602098 C161.153645,34.4746884 160.93524,34.1888808 160.582951,33.9033593 C160.230565,33.6178379 159.680906,33.3320781 158.93402,33.046509 C158.186945,32.7609875 157.136992,32.4752753 155.783927,32.1897538 C154.853789,31.9897744 153.91664,31.7685286 152.972383,31.5256828 C152.027986,31.2830755 151.182556,30.9332306 150.43548,30.4762437 C149.688594,30.0192568 149.075545,29.4408708 148.596475,28.7412288 C148.117123,28.0414439 147.877448,27.1490224 147.877448,26.0637739 C147.877448,24.2358263 148.582216,22.7508095 149.991612,21.6084377 C151.40096,20.4660658 153.345757,19.8947368 155.826234,19.8947368 C156.784702,19.8947368 157.707593,19.9948219 158.595565,20.1946106 C159.483679,20.3946378 160.293955,20.6873116 161.026818,21.0729181 C161.759635,21.4584292 162.400919,21.9154161 162.950484,22.4436881 C163.500285,22.9720553 163.90194,23.5646982 164.15564,24.2215692 L160.942252,25.3781982 C160.60408,24.8071552 160.005102,24.343016 159.145413,23.9858758 C158.285723,23.628974 157.306219,23.4505946 156.206854,23.4505946 C154.769223,23.4505946 153.648774,23.6932019 152.845557,24.1787029 C152.042245,24.6643469 151.640542,25.2925608 151.640542,26.0637739 C151.640542,26.320686 151.675743,26.5563794 151.746191,26.7705205 C151.816687,26.9846617 152.006951,27.1916981 152.317028,27.3916775 C152.626964,27.5915616 153.113281,27.798598 153.775742,28.0129775 C154.438062,28.2271186 155.347165,28.448412 156.50272,28.6770009 Z M178.826833,28.6770009 C179.587979,28.8482279 180.461693,29.0624167 181.448302,29.3194241 C182.434818,29.5765269 183.371968,29.9549811 184.25994,30.4546913 C185.147819,30.9545922 185.901906,31.6186156 186.52192,32.4467613 C187.142168,33.2750977 187.452104,34.3316892 187.452104,35.6168218 C187.452104,37.6159965 186.655758,39.1797843 185.063252,40.3078992 C183.470747,41.435871 181.265004,42 178.446307,42 C177.431555,42 176.473369,41.8930486 175.571326,41.6787168 C174.669283,41.464528 173.8519,41.1576449 173.119084,40.7577814 C172.386221,40.3577271 171.737878,39.8938263 171.174101,39.3654591 C170.610464,38.8370918 170.187585,38.2444489 169.905743,37.5875778 L173.119084,36.4309489 C173.513728,36.9735732 174.19012,37.4447695 175.148635,37.8445853 C176.10682,38.2444489 177.206185,38.4443329 178.446307,38.4443329 C178.869187,38.4443329 179.376634,38.4157236 179.968552,38.3587432 C180.56033,38.3015722 181.131119,38.1730684 181.68073,37.9731367 C182.230484,37.7732049 182.702542,37.4876834 183.097233,37.1163339 C183.49183,36.7449844 183.689151,36.2452265 183.689151,35.6168218 C183.689151,35.3312527 183.646985,35.0457313 183.562325,34.7602098 C183.477758,34.4746884 183.259354,34.1888808 182.907157,33.9033593 C182.55468,33.6178379 182.005021,33.3320781 181.257946,33.046509 C180.511058,32.7609875 179.461105,32.4752753 178.108041,32.1897538 C177.177903,31.9897744 176.240753,31.7685286 175.296496,31.5256828 C174.352099,31.2830755 173.506669,30.9332306 172.759594,30.4762437 C172.012707,30.0192568 171.399705,29.4408708 170.920589,28.7412288 C170.441237,28.0414439 170.201656,27.1490224 170.201656,26.0637739 C170.201656,24.2358263 170.90633,22.7508095 172.315632,21.6084377 C173.725074,20.4660658 175.66987,19.8947368 178.150442,19.8947368 C179.108816,19.8947368 180.031801,19.9948219 180.919773,20.1946106 C181.807605,20.3946378 182.618069,20.6873116 183.350932,21.0729181 C184.083748,21.4584292 184.725033,21.9154161 185.274645,22.4436881 C185.824399,22.9720553 186.226054,23.5646982 186.479754,24.2215692 L183.26646,25.3781982 C182.928194,24.8071552 182.329027,24.343016 181.469337,23.9858758 C180.609696,23.628974 179.630333,23.4505946 178.530968,23.4505946 C177.09343,23.4505946 175.972982,23.6932019 175.169671,24.1787029 C174.366358,24.6643469 173.96475,25.2925608 173.96475,26.0637739 C173.96475,26.320686 173.999856,26.5563794 174.070305,26.7705205 C174.140801,26.9846617 174.331064,27.1916981 174.641141,27.3916775 C174.951265,27.5915616 175.437394,27.798598 176.099855,28.0129775 C176.762175,28.2271186 177.671278,28.448412 178.826833,28.6770009 Z M212.56682,20.6658545 L212.56682,41.2288346 L208.930787,41.2288346 L208.930787,38.8299394 C208.028744,39.8295506 206.971733,40.6077253 205.759565,41.1645113 C204.547586,41.7215833 203.236828,42 201.82762,42 C200.418083,42 199.100408,41.7144786 197.874215,41.1431973 C196.648165,40.572059 195.577083,39.7866843 194.661016,38.7870731 C193.744901,37.787462 193.019145,36.616576 192.483556,35.2741293 C191.948062,33.9318734 191.680339,32.489723 191.680339,30.9474876 C191.680339,29.4337662 191.948062,28.0056821 192.483556,26.6633308 C193.019145,25.3210748 193.744901,24.1501889 194.661016,23.1505777 C195.577083,22.1510142 196.648165,21.3584395 197.874215,20.7730442 C199.100408,20.1875059 200.418083,19.8947368 201.82762,19.8947368 C203.236828,19.8947368 204.547586,20.1732966 205.759565,20.7302256 C206.971733,21.2870592 208.028744,22.0654245 208.930787,23.064988 L208.930787,20.6658545 L212.56682,20.6658545 Z M202.123485,38.4443329 C203.053623,38.4443329 203.934349,38.2444489 204.76599,37.8445853 C205.597538,37.4447695 206.32339,36.9092498 206.94345,36.2381219 C207.563652,35.5669938 208.04978,34.7744668 208.402118,33.860493 C208.754502,32.9465192 208.930787,31.9755174 208.930787,30.9474876 C208.930787,29.9191717 208.754502,28.9482652 208.402118,28.0342915 C208.04978,27.1203176 207.563652,26.3279814 206.94345,25.656615 C206.32339,24.9856777 205.597538,24.4499674 204.76599,24.0501992 C203.934349,23.6503356 203.053623,23.4505946 202.123485,23.4505946 C201.193301,23.4505946 200.312575,23.6503356 199.480933,24.0501992 C198.649385,24.4499674 197.923582,24.9856777 197.303521,25.656615 C196.68346,26.3279814 196.190085,27.1203176 195.823817,28.0342915 C195.457222,28.9482652 195.274065,29.9191717 195.274065,30.9474876 C195.274065,31.9755174 195.457222,32.9465192 195.823817,33.860493 C196.190085,34.7744668 196.68346,35.5669938 197.303521,36.2381219 C197.923582,36.9092498 198.649385,37.4447695 199.480933,37.8445853 C200.312575,38.2444489 201.193301,38.4443329 202.123485,38.4443329 Z" id="Fill-6" fill="#FFFFFF" fill-rule="nonzero"></path>
                        <g id="Group-10" transform="translate(66.082949, 45.315789)">
                            <g id="Fill-8-Clipped">
                                <mask id="mask-6" fill="white">
                                    <use xlink:href="#path-5"></use>
                                </mask>
                                <g id="path-3"></g>
                                <path d="M3.88117576,0.536336266 L6.82891365,7.47470027 L5.83971004,7.47470027 L4.99031826,5.48225887 L1.86274217,5.48225887 L1.0233102,7.47470027 L0.0240064821,7.47470027 L2.97188465,0.536336266 L3.88117576,0.536336266 Z M2.25239159,4.57038425 L4.60066882,4.57038425 L3.43153351,1.8148624 L2.25239159,4.57038425 Z M8.49244035,6.04728718 C8.46574051,5.92173049 8.45246072,5.80605321 8.45246072,5.70030172 L8.45246072,5.56161886 L8.45246072,2.71685761 L9.30185252,2.71685761 L9.30185252,5.52191567 C9.30185252,5.63425343 9.31344895,5.7663964 9.33673533,5.91834458 C9.36016199,6.07033914 9.41173805,6.21574744 9.49165055,6.3544303 C9.57156305,6.49339146 9.68981859,6.61217635 9.84641717,6.71143431 C10.0030157,6.81046038 10.2145571,6.86004298 10.4809944,6.86004298 C10.8006912,6.86004298 11.0571688,6.81046038 11.2503803,6.71143431 C11.4435917,6.61217635 11.5900901,6.49654545 11.6900159,6.36435609 C11.7900351,6.23225951 11.856621,6.09696255 11.8898205,5.95804777 C11.9231603,5.81931853 11.9431735,5.71022752 11.9498601,5.63105305 L11.9498601,2.71685761 L12.8093052,2.71685761 L12.8093052,7.47470027 L11.9498601,7.47470027 L11.9498601,7.04830844 C11.9498601,7.04830844 11.9182505,7.08142536 11.8549377,7.14752003 C11.7916717,7.21356832 11.6983391,7.28300252 11.575127,7.35563709 C11.451915,7.42845719 11.2986831,7.4960361 11.1154782,7.55888402 C10.9323201,7.62163918 10.717412,7.65308633 10.4709878,7.65308633 C10.1045313,7.65308633 9.80148099,7.59858721 9.56164997,7.48944982 C9.32177219,7.38054435 9.1269241,7.24506186 8.97701218,7.08309512 C8.82714701,6.92122114 8.71557813,6.74603546 8.64225875,6.55772361 C8.56893939,6.36945814 8.51909344,6.19932813 8.49244035,6.04728718 Z M17.0708065,4.57038425 C17.2506447,4.61004106 17.4571359,4.65962366 17.6902803,4.71899291 C17.9235182,4.77850131 18.1449259,4.86611733 18.3547371,4.98179461 C18.5646887,5.09742552 18.7428902,5.25090431 18.8894355,5.44255568 C19.0360742,5.63425343 19.1092533,5.87868778 19.1092533,6.17609063 C19.1092533,6.63875336 18.9210451,7.0003956 18.5446755,7.26148117 C18.1683526,7.52261311 17.6470743,7.65308633 16.9808874,7.65308633 C16.7411032,7.65308633 16.5145519,7.62813268 16.3014208,7.57873561 C16.088196,7.52915301 15.8949845,7.45800267 15.7217395,7.36556289 C15.5486346,7.27307672 15.3953093,7.16565548 15.2621841,7.04343831 C15.128872,6.92122114 15.0289463,6.78402251 14.9623135,6.63207432 L15.7217395,6.36435609 C15.8150721,6.48995918 15.9749905,6.59909656 16.2014016,6.69158272 C16.427906,6.78402251 16.6877502,6.83026559 16.9808874,6.83026559 C17.0808131,6.83026559 17.2006585,6.82372569 17.3406573,6.81046038 C17.4804691,6.79728782 17.6153711,6.76755681 17.7452699,6.72136012 C17.8751686,6.67511703 17.9867843,6.60902235 18.0800233,6.52312247 C18.1733091,6.43722258 18.2199287,6.3215453 18.2199287,6.17609063 C18.2199287,6.11004234 18.2099688,6.04394766 18.1899556,5.97785299 C18.1699425,5.91185107 18.1183663,5.84575639 18.0349936,5.77966172 C17.9518079,5.71361343 17.8219092,5.64751875 17.6453442,5.58142408 C17.4688728,5.51542216 17.2206249,5.44932748 16.9008814,5.38323281 C16.6810636,5.33685057 16.4595157,5.28569098 16.2364246,5.22961487 C16.0131933,5.17344599 15.8133887,5.09241623 15.6368237,4.98661837 C15.4603054,4.88091327 15.3153968,4.74723968 15.2021446,4.5853657 C15.0888923,4.42344534 15.0323597,4.21681252 15.0323597,3.96579189 C15.0323597,3.54278596 15.1987778,3.19937194 15.5318947,2.93490047 C15.8649647,2.67061453 16.3246136,2.53847156 16.910888,2.53847156 C17.1373925,2.53847156 17.355527,2.56166268 17.5654317,2.60790575 C17.7752897,2.65414884 17.9667711,2.7218669 18.1400161,2.81096715 C18.3131677,2.90025295 18.4647629,3.00600443 18.5946617,3.1282216 C18.7245604,3.25048516 18.8195296,3.38768379 18.8794289,3.53963198 L18.1200497,3.80711829 C18.0401372,3.67497532 17.8985018,3.56769322 17.6952837,3.48494732 C17.4921591,3.40243334 17.2606513,3.36124592 17.0009006,3.36124592 C16.6610971,3.36124592 16.3962964,3.41722927 16.2064048,3.52970617 C16.01656,3.64199755 15.9216377,3.78745222 15.9216377,3.96579189 C15.9216377,4.02516114 15.9299609,4.07979941 15.9465606,4.1294284 C15.9633006,4.17882547 16.0081901,4.22669193 16.0814626,4.2729814 C16.154782,4.31941001 16.2696708,4.36713732 16.4262226,4.41671992 C16.5827745,4.46630252 16.7976358,4.51760127 17.0708065,4.57038425 Z M23.5806126,7.54394894 C23.5605994,7.55067437 23.50734,7.56714006 23.420694,7.59353155 C23.3341885,7.61992304 23.225846,7.63805849 23.0959472,7.64798428 C22.9660017,7.65791007 22.8228232,7.64965404 22.6661779,7.62330894 C22.5097196,7.59691745 22.3581243,7.53402315 22.2115791,7.43499709 C21.7653036,7.13759424 21.5421658,6.57924496 21.5421658,5.75981012 L21.5421658,3.53963198 L20.932605,3.53963198 L20.932605,2.71685761 L21.5421658,2.71685761 L21.5421658,0.516484672 L22.3714976,0.516484672 L22.3714976,2.71685761 L23.3708014,2.71685761 L23.3708014,3.53963198 L22.3714976,3.53963198 L22.3714976,5.75981012 C22.3714976,6.28184211 22.4714701,6.61217635 22.6713214,6.75109112 C22.7312208,6.79079431 22.7962169,6.8137999 22.8661228,6.82033979 C22.9360287,6.82706521 23.0010716,6.82873497 23.0609709,6.82539546 C23.1208702,6.82205593 23.1725398,6.8137999 23.2158394,6.8007201 C23.2591857,6.78736202 23.2808822,6.78086851 23.2808822,6.78086851 L23.5806126,7.54394894 Z M27.7221282,2.52854576 C27.9353529,2.52854576 28.1286112,2.54839736 28.3017159,2.58805417 L28.1818706,3.40076357 C28.0618849,3.3545205 27.9053331,3.33151491 27.7121216,3.33151491 C27.3924249,3.33151491 27.1375372,3.37942775 26.9477392,3.47525344 C26.7578943,3.5708936 26.6113024,3.68657088 26.5080567,3.82209974 C26.4047643,3.95758223 26.3365885,4.09292558 26.3032956,4.22845446 C26.2698623,4.36389056 26.2499426,4.47135819 26.243256,4.55053265 L26.243256,7.47470027 L25.3938174,7.47470027 L25.3938174,2.71685761 L26.243256,2.71685761 L26.243256,3.14301753 C26.2499426,3.13647764 26.2848721,3.10187649 26.348185,3.03893581 C26.4114509,2.97622704 26.5031002,2.90679285 26.6229923,2.83081875 C26.7429312,2.75484466 26.8944329,2.68541047 27.0776378,2.6226553 C27.2608895,2.55999291 27.475704,2.52854576 27.7221282,2.52854576 Z M34.5517713,2.71685761 L34.5517713,7.47470027 L33.692373,7.47470027 L33.692373,6.91955138 C33.4792417,7.15085955 33.2294509,7.33091537 32.9430004,7.45971882 C32.6564563,7.58866142 32.3467193,7.65308633 32.0136961,7.65308633 C31.6805324,7.65308633 31.3691121,7.58699165 31.0792481,7.45484869 C30.789618,7.32265932 30.5364137,7.14098014 30.319869,6.90962558 C30.1033243,6.67827102 29.9318094,6.40744519 29.8053242,6.09696255 C29.6786986,5.786248 29.6153858,5.45248148 29.6153858,5.09575575 C29.6153858,4.74556992 29.6786986,4.41500378 29.8053242,4.10452114 C29.9318094,3.79399211 30.1033243,3.52298075 30.319869,3.29181172 C30.5364137,3.06050355 30.789618,2.87706183 31.0792481,2.74171848 C31.3691121,2.60623599 31.6805324,2.53847156 32.0136961,2.53847156 C32.3467193,2.53847156 32.6564563,2.60285009 32.9430004,2.73179269 C33.2294509,2.86054976 33.4792417,3.04065195 33.692373,3.27196013 L33.692373,2.71685761 L34.5517713,2.71685761 Z M32.0836019,6.83026559 C32.3034198,6.83026559 32.5115477,6.78402251 32.7080323,6.69158272 C32.9046573,6.59909656 33.0761723,6.47520962 33.2227174,6.31982916 C33.3693562,6.16449507 33.484245,5.98128527 33.5674775,5.76973593 C33.6507567,5.55823295 33.692373,5.33365021 33.692373,5.09575575 C33.692373,4.8578613 33.6507567,4.63327855 33.5674775,4.42177558 C33.484245,4.21027262 33.3693562,4.0268309 33.2227174,3.87168235 C33.0761723,3.71634827 32.9046573,3.59241495 32.7080323,3.49997517 C32.5115477,3.407489 32.3034198,3.36124592 32.0836019,3.36124592 C31.8637841,3.36124592 31.655516,3.407489 31.4589845,3.49997517 C31.2624998,3.59241495 31.0909381,3.71634827 30.9444396,3.87168235 C30.7979412,4.0268309 30.6813223,4.21027262 30.5947231,4.42177558 C30.5080772,4.63327855 30.4648243,4.8578613 30.4648243,5.09575575 C30.4648243,5.33365021 30.5080772,5.55823295 30.5947231,5.76973593 C30.6813223,5.98128527 30.7979412,6.16449507 30.9444396,6.31982916 C31.0909381,6.47520962 31.2624998,6.59909656 31.4589845,6.69158272 C31.655516,6.78402251 31.8637841,6.83026559 32.0836019,6.83026559 Z M37.0746029,7.47470027 L37.9239012,7.47470027 L37.9239012,0.516484672 L37.0746029,0.516484672 L37.0746029,7.47470027 Z M40.2468346,7.47470027 L41.0962264,7.47470027 L41.0962264,2.71685761 L40.2468346,2.71685761 L40.2468346,7.47470027 Z M41.2261251,1.3589251 C41.2261251,1.51091966 41.1728657,1.64134649 41.0663001,1.75048388 C40.9596877,1.85938935 40.829789,1.914074 40.6765572,1.914074 C40.5233253,1.914074 40.3917899,1.85938935 40.281811,1.75048388 C40.1718786,1.64134649 40.1170294,1.51091966 40.1170294,1.3589251 C40.1170294,1.20693053 40.1718786,1.07817347 40.281811,0.972421983 C40.3917899,0.8666705 40.5233253,0.813655613 40.6765572,0.813655613 C40.829789,0.813655613 40.9596877,0.8666705 41.0663001,0.972421983 C41.1728657,1.07817347 41.2261251,1.20693053 41.2261251,1.3589251 Z M48.0556747,2.71685761 L48.0556747,7.47470027 L47.1963698,7.47470027 L47.1963698,6.91955138 C46.9831451,7.15085955 46.7334478,7.33091537 46.4469038,7.45971882 C46.1604531,7.58866142 45.8507162,7.65308633 45.5175994,7.65308633 C45.1845762,7.65308633 44.8730624,7.58699165 44.5832451,7.45484869 C44.2935214,7.32265932 44.0404105,7.14098014 43.8238658,6.90962558 C43.6073213,6.67827102 43.4358063,6.40744519 43.3092275,6.09696255 C43.1826955,5.786248 43.1193827,5.45248148 43.1193827,5.09575575 C43.1193827,4.74556992 43.1826955,4.41500378 43.3092275,4.10452114 C43.4358063,3.79399211 43.6073213,3.52298075 43.8238658,3.29181172 C44.0404105,3.06050355 44.2935214,2.87706183 44.5832451,2.74171848 C44.8730624,2.60623599 45.1845762,2.53847156 45.5175994,2.53847156 C45.8507162,2.53847156 46.1604531,2.60285009 46.4469038,2.73179269 C46.7334478,2.86054976 46.9831451,3.04065195 47.1963698,3.27196013 L47.1963698,2.71685761 L48.0556747,2.71685761 Z M45.5875989,6.83026559 C45.8074167,6.83026559 46.0155445,6.78402251 46.2120293,6.69158272 C46.4086542,6.59909656 46.5800757,6.47520962 46.7267144,6.31982916 C46.8732595,6.16449507 46.9881484,5.98128527 47.0714744,5.76973593 C47.1547536,5.55823295 47.1963698,5.33365021 47.1963698,5.09575575 C47.1963698,4.8578613 47.1547536,4.63327855 47.0714744,4.42177558 C46.9881484,4.21027262 46.8732595,4.0268309 46.7267144,3.87168235 C46.5800757,3.71634827 46.4086542,3.59241495 46.2120293,3.49997517 C46.0155445,3.407489 45.8074167,3.36124592 45.5875989,3.36124592 C45.3676875,3.36124592 45.1595129,3.407489 44.9629814,3.49997517 C44.7664968,3.59241495 44.594935,3.71634827 44.448343,3.87168235 C44.3018446,4.0268309 44.1851789,4.21027262 44.09872,4.42177558 C44.0120741,4.63327855 43.9687277,4.8578613 43.9687277,5.09575575 C43.9687277,5.33365021 44.0120741,5.55823295 44.09872,5.76973593 C44.1851789,5.98128527 44.3018446,6.16449507 44.448343,6.31982916 C44.594935,6.47520962 44.7664968,6.59909656 44.9629814,6.69158272 C45.1595129,6.78402251 45.3676875,6.83026559 45.5875989,6.83026559 Z M54.7953519,4.14417795 C54.8087252,4.21681252 54.8187318,4.28119104 54.8253249,4.33754546 C54.8321051,4.39366795 54.8353315,4.44501308 54.8353315,4.49120978 L54.8353315,4.62989264 L54.8353315,7.47470027 L53.9860332,7.47470027 L53.9860332,4.66954945 C53.9860332,4.56384435 53.9742965,4.43485537 53.9510102,4.28286081 C53.9276303,4.13091263 53.8761478,3.98564349 53.7961417,3.8467751 C53.7162292,3.70809223 53.5962904,3.58902905 53.4363251,3.49004937 C53.2765001,3.39083778 53.0633221,3.34144071 52.796838,3.34144071 C52.4770477,3.34144071 52.2222068,3.38916802 52.0324088,3.48494732 C51.8425639,3.58081939 51.6960188,3.69649667 51.5927263,3.83202555 C51.489434,3.96750804 51.4212114,4.10285137 51.3879185,4.23833387 C51.354532,4.37381636 51.3346123,4.48128398 51.3278788,4.56045845 L51.3278788,7.47470027 L50.478487,7.47470027 L50.478487,2.71685761 L51.3278788,2.71685761 L51.3278788,3.14301753 C51.3346123,3.14301753 51.3695885,3.11008615 51.4329481,3.04399147 C51.4961206,2.97794318 51.5894065,2.90850898 51.7126653,2.83587441 C51.8358773,2.7631007 51.9890624,2.69552179 52.1723141,2.6325811 C52.355519,2.56991871 52.5670136,2.53847156 52.8067511,2.53847156 C53.1732076,2.53847156 53.4779881,2.5929243 53.7211858,2.7020153 C53.9642899,2.81096715 54.1608214,2.94649603 54.3107334,3.10837001 C54.4605985,3.27029037 54.5721674,3.44529052 54.6455335,3.63378789 C54.7188997,3.82209974 54.7686988,3.99222977 54.7953519,4.14417795 Z M61.3352246,3.38091199 C61.8415396,3.50651506 62.2528857,3.65846324 62.5693092,3.83684929 C62.8856861,4.01542088 63.1337935,4.2053561 63.3138188,4.40679413 C63.493657,4.60837129 63.6151858,4.8116646 63.678405,5.01639576 C63.7417644,5.22135883 63.7735612,5.41621057 63.7735612,5.60127566 C63.7735612,5.8854132 63.7068816,6.15141528 63.573476,6.39918916 C63.4403041,6.6470094 63.2587357,6.86338249 63.0289581,7.04830844 C62.7990869,7.23341992 62.5293296,7.38054435 62.2196394,7.48944982 C61.9098557,7.59858721 61.5785158,7.65308633 61.2254326,7.65308633 C60.8989088,7.65308633 60.5891251,7.60679687 60.2958944,7.51417155 C60.0028975,7.42168539 59.7447367,7.29292832 59.5215053,7.12766844 C59.2985078,6.96240855 59.1135728,6.76922657 58.9669809,6.54779781 C58.8202954,6.32641543 58.7305166,6.08703675 58.6971301,5.82924432 L59.5264619,5.66059854 C59.6197944,5.96458767 59.8179625,6.22084949 60.1211998,6.42878102 C60.4242033,6.63708361 60.7923432,6.74116532 61.2254326,6.74116532 C61.4452504,6.74116532 61.6533782,6.71143431 61.8498161,6.65192592 C62.0463943,6.59232475 62.2179561,6.50981076 62.364548,6.40405929 C62.510953,6.29835419 62.6258419,6.17780678 62.7093081,6.0422779 C62.7925405,5.90693455 62.8341568,5.75981012 62.8341568,5.60127566 C62.8341568,4.99339018 62.2613491,4.54737867 61.1153599,4.26324112 C60.8424229,4.19719283 60.5657452,4.12098683 60.2859346,4.03527247 C60.006311,3.94914067 59.75479,3.83517953 59.5314652,3.69311077 C59.3082806,3.551042 59.1250757,3.37098618 58.9818505,3.15294333 C58.838672,2.93490047 58.7671762,2.65734921 58.7671762,2.3204287 C58.7671762,2.03629117 58.8237089,1.77348946 58.9369611,1.53244101 C59.0501665,1.29116066 59.2101786,1.08471336 59.4165763,0.912913583 C59.6232546,0.741067425 59.8728585,0.605538551 60.166136,0.506558875 C60.4590861,0.407347288 60.7823834,0.357950214 61.1353732,0.357950214 C61.44843,0.357950214 61.7417075,0.404146913 62.0146912,0.496679461 C62.2879555,0.589119243 62.5277397,0.716392079 62.7341843,0.878266058 C62.9408159,1.04014004 63.1089641,1.23165226 63.2389096,1.45308102 C63.3688083,1.67450978 63.4502638,1.91722799 63.4836971,2.18174584 L62.6541783,2.36008551 C62.5809992,2.04283106 62.4143473,1.7817455 62.1546901,1.57701434 C61.8948459,1.37219042 61.5550424,1.26968568 61.1353732,1.26968568 C60.6889573,1.26968568 60.3408306,1.36885089 60.0911333,1.56708854 C59.8413424,1.7652798 59.7164002,2.01643957 59.7164002,2.3204287 C59.7164002,2.43925997 59.7381436,2.5467276 59.7813496,2.6425069 C59.8245557,2.73837897 59.9045617,2.82594862 60.0211806,2.90512308 C60.1377996,2.98448308 60.3009913,3.06217331 60.5108025,3.1381474 C60.7206604,3.21412149 60.9953743,3.2950121 61.3352246,3.38091199 Z M67.9549162,7.54394894 C67.934903,7.55067437 67.881737,7.56714006 67.7950911,7.59353155 C67.708492,7.61992304 67.6001962,7.63805849 67.4704378,7.64798428 C67.3405391,7.65791007 67.1971735,7.64965404 67.0407153,7.62330894 C66.8841167,7.59691745 66.7325681,7.53402315 66.586023,7.43499709 C66.1397941,7.13759424 65.9164694,6.57924496 65.9164694,5.75981012 L65.9164694,3.53963198 L65.3070488,3.53963198 L65.3070488,2.71685761 L65.9164694,2.71685761 L65.9164694,0.516484672 L66.745848,0.516484672 L66.745848,2.71685761 L67.7451517,2.71685761 L67.7451517,3.53963198 L66.745848,3.53963198 L66.745848,5.75981012 C66.745848,6.28184211 66.8458204,6.61217635 67.0456718,6.75109112 C67.1056646,6.79079431 67.1705672,6.8137999 67.2405667,6.82033979 C67.3104257,6.82706521 67.3754219,6.82873497 67.4352744,6.82539546 C67.4952673,6.82205593 67.5470304,6.8137999 67.5902364,6.8007201 C67.6336295,6.78736202 67.6552793,6.78086851 67.6552793,6.78086851 L67.9549162,7.54394894 Z M69.7083152,6.04728718 C69.6816621,5.92173049 69.6683356,5.80605321 69.6683356,5.70030172 L69.6683356,5.56161886 L69.6683356,2.71685761 L70.5177741,2.71685761 L70.5177741,5.52191567 C70.5177741,5.63425343 70.5294641,5.7663964 70.5527505,5.91834458 C70.5761303,6.07033914 70.6276128,6.21574744 70.7076189,6.3544303 C70.7876249,6.49339146 70.9056934,6.61217635 71.0623388,6.71143431 C71.2189841,6.81046038 71.4304787,6.86004298 71.6968693,6.86004298 C72.0165192,6.86004298 72.2729968,6.81046038 72.4662083,6.71143431 C72.6594665,6.61217635 72.8060585,6.49654545 72.9058907,6.36435609 C73.0058631,6.23225951 73.0724491,6.09696255 73.1058824,5.95804777 C73.1391285,5.81931853 73.1591417,5.71022752 73.1658752,5.63105305 L73.1658752,2.71685761 L74.0251801,2.71685761 L74.0251801,7.47470027 L73.1658752,7.47470027 L73.1658752,7.04830844 C73.1658752,7.04830844 73.1342188,7.08142536 73.0708125,7.14752003 C73.00764,7.21356832 72.9143542,7.28300252 72.7911889,7.35563709 C72.6677898,7.42845719 72.5145579,7.4960361 72.3315401,7.55888402 C72.1483352,7.62163918 71.9333336,7.65308633 71.6869094,7.65308633 C71.3204996,7.65308633 71.0174025,7.59858721 70.7775715,7.48944982 C70.5377405,7.38054435 70.3428457,7.24506186 70.193074,7.08309512 C70.0430218,6.92122114 69.9314997,6.74603546 69.8582739,6.55772361 C69.7849545,6.36945814 69.7348748,6.19932813 69.7083152,6.04728718 Z M80.9845349,0.52641047 L80.9845349,7.47470027 L80.1352833,7.47470027 L80.1352833,6.92947718 C79.9154655,7.16078535 79.6622144,7.33917141 79.3758106,7.46477448 C79.0893134,7.59014565 78.7795297,7.65308633 78.4464596,7.65308633 C78.1133896,7.65308633 77.8020627,7.58699165 77.5122922,7.45484869 C77.2223815,7.32265932 76.969411,7.14098014 76.7527728,6.90962558 C76.5363216,6.67827102 76.3648067,6.40744519 76.2381344,6.09696255 C76.1115556,5.786248 76.0483831,5.45586738 76.0483831,5.10568155 C76.0483831,4.74872392 76.1115556,4.41500378 76.2381344,4.10452114 C76.3648067,3.79399211 76.5363216,3.52298075 76.7527728,3.29181172 C76.969411,3.06050355 77.2223815,2.87706183 77.5122922,2.74171848 C77.8020627,2.60623599 78.1133896,2.53847156 78.4464596,2.53847156 C78.7795297,2.53847156 79.0893134,2.60456624 79.3758106,2.73666282 C79.6622144,2.8688058 79.9154655,3.05057775 80.1352833,3.28188593 L80.1352833,0.52641047 L80.9845349,0.52641047 Z M78.5165057,6.83026559 C78.7363236,6.83026559 78.9444515,6.78569226 79.1410296,6.69645286 C79.3376546,6.60735259 79.5089826,6.48513542 79.6556213,6.32975495 C79.8022133,6.17442087 79.9188322,5.99116468 80.0054314,5.77966172 C80.0920773,5.56815876 80.1352833,5.343576 80.1352833,5.10568155 C80.1352833,4.8677871 80.0920773,4.64297243 80.0054314,4.431655 C79.9188322,4.22019842 79.8022133,4.03527247 79.6556213,3.87655249 C79.5089826,3.71801802 79.3376546,3.59241495 79.1410296,3.49997517 C78.9444515,3.407489 78.7363236,3.36124592 78.5165057,3.36124592 C78.2966879,3.36124592 78.0885601,3.407489 77.8919351,3.49997517 C77.6954504,3.59241495 77.5239822,3.71801802 77.3773902,3.87655249 C77.2307047,4.03527247 77.1158159,4.22019842 77.0326302,4.431655 C76.9493978,4.64297243 76.907688,4.8677871 76.907688,5.10568155 C76.907688,5.343576 76.9493978,5.56815876 77.0326302,5.77966172 C77.1158159,5.99116468 77.2307047,6.17442087 77.3773902,6.32975495 C77.5239822,6.48513542 77.6954504,6.60735259 77.8919351,6.69645286 C78.0885601,6.78569226 78.2966879,6.83026559 78.5165057,6.83026559 Z M83.857083,5.32372441 C83.8838296,5.53522737 83.9420923,5.73346501 84.0319646,5.91834458 C84.1219305,6.10345606 84.2351827,6.26199052 84.3718148,6.39413348 C84.50826,6.52632285 84.6650456,6.63207432 84.8415171,6.71143431 C85.0180354,6.79079431 85.2061968,6.83026559 85.4060014,6.83026559 C85.712512,6.83026559 85.9905925,6.75763102 86.2404768,6.61217635 C86.490221,6.46695358 86.6918024,6.27191631 86.8449408,6.02748196 L87.5445142,6.47353986 C87.3180564,6.83026559 87.0181858,7.1160265 86.6451362,7.33091537 C86.2721333,7.54561871 85.8590571,7.65308633 85.4060014,7.65308633 C85.0930381,7.65308633 84.7982175,7.59353155 84.5215865,7.47470027 C84.2452361,7.35563709 84.0004486,7.19204698 83.7872239,6.98392991 C83.5740459,6.77576647 83.3990708,6.52966236 83.2626256,6.24552483 C83.126087,5.96143367 83.0443508,5.65410502 83.0177914,5.32372441 C83.0177914,5.2906075 83.0160611,5.25429021 83.0128348,5.21458703 C83.009468,5.17493022 83.0077379,5.13541256 83.0077379,5.09575575 C83.0077379,4.88425279 83.0311178,4.68606153 83.0777841,4.50095005 C83.13759,4.22353794 83.2409758,3.96412213 83.3873808,3.72288816 C83.5339728,3.48179333 83.7089479,3.27367627 83.912166,3.09844421 C84.1153374,2.92349044 84.3452085,2.78629181 84.6016861,2.68708022 C84.8580233,2.58805417 85.1261908,2.53847156 85.4060014,2.53847156 C85.6858121,2.53847156 85.9539795,2.58805417 86.2104103,2.68708022 C86.466841,2.78629181 86.6967122,2.92349044 86.8999303,3.09844421 C87.1031484,3.27367627 87.27803,3.48179333 87.424435,3.72288816 C87.5711205,3.96412213 87.6743194,4.22353794 87.7343122,4.50095005 C87.780885,4.68606153 87.8043584,4.88425279 87.8043584,5.09575575 L87.8043584,5.21458703 C87.8043584,5.25429021 87.8008982,5.2906075 87.7943051,5.32372441 L83.857083,5.32372441 Z M86.8750073,4.50095005 C86.7617551,4.16402954 86.5734534,3.8898178 86.3104295,3.67831484 C86.0472186,3.46685826 85.7458516,3.36124592 85.4060014,3.36124592 C85.0663383,3.36124592 84.7648778,3.46685826 84.5015733,3.67831484 C84.2385494,3.8898178 84.0502477,4.16402954 83.937089,4.50095005 L86.8750073,4.50095005 Z M94.1442394,4.14417795 C94.1575658,4.21681252 94.1676193,4.28119104 94.1742124,4.33754546 C94.1808523,4.39366795 94.184219,4.44501308 94.184219,4.49120978 L94.184219,4.62989264 L94.184219,7.47470027 L93.334874,7.47470027 L93.334874,4.66954945 C93.334874,4.56384435 93.323184,4.43485537 93.2999912,4.28286081 C93.2766112,4.13091263 93.2249416,3.98564349 93.1451227,3.8467751 C93.0651167,3.70809223 92.9450843,3.58902905 92.7852593,3.49004937 C92.6254342,3.39083778 92.4122095,3.34144071 92.1458189,3.34144071 C91.8259819,3.34144071 91.5711877,3.38916802 91.3813897,3.48494732 C91.1914982,3.58081939 91.0449529,3.69649667 90.9417541,3.83202555 C90.8382746,3.96750804 90.7702391,4.10285137 90.7368059,4.23833387 C90.7033726,4.37381636 90.6835465,4.48128398 90.676813,4.56045845 L90.676813,7.47470027 L89.827468,7.47470027 L89.827468,2.71685761 L90.676813,2.71685761 L90.676813,3.14301753 C90.6835465,3.14301753 90.7185228,3.11008615 90.781742,3.04399147 C90.8451016,2.97794318 90.9383406,2.90850898 91.0615526,2.83587441 C91.1847647,2.7631007 91.3379966,2.69552179 91.5212016,2.6325811 C91.7044065,2.56991871 91.9159478,2.53847156 92.1557788,2.53847156 C92.5221886,2.53847156 92.8269222,2.5929243 93.0701199,2.7020153 C93.3132242,2.81096715 93.5096153,2.94649603 93.6596675,3.10837001 C93.8094391,3.27029037 93.9211951,3.44529052 93.9943741,3.63378789 C94.067787,3.82209974 94.1175862,3.99222977 94.1442394,4.14417795 Z M98.7554572,7.54394894 C98.735444,7.55067437 98.6823249,7.56714006 98.5956321,7.59353155 C98.5090798,7.61992304 98.4007373,7.63805849 98.2708853,7.64798428 C98.1409398,7.65791007 97.9977146,7.64965404 97.8412563,7.62330894 C97.6846577,7.59691745 97.533156,7.53402315 97.386564,7.43499709 C96.9402417,7.13759424 96.7170104,6.57924496 96.7170104,5.75981012 L96.7170104,3.53963198 L96.1075899,3.53963198 L96.1075899,2.71685761 L96.7170104,2.71685761 L96.7170104,0.516484672 L97.546389,0.516484672 L97.546389,2.71685761 L98.5456927,2.71685761 L98.5456927,3.53963198 L97.546389,3.53963198 L97.546389,5.75981012 C97.546389,6.28184211 97.6463615,6.61217635 97.8462128,6.75109112 C97.9062057,6.79079431 97.9710615,6.8137999 98.0411077,6.82033979 C98.1108733,6.82706521 98.1760097,6.82873497 98.2358155,6.82539546 C98.2958083,6.82205593 98.3475246,6.8137999 98.3906839,6.8007201 C98.4341705,6.78736202 98.4558203,6.78086851 98.4558203,6.78086851 L98.7554572,7.54394894 Z M101.198283,2.39978869 L100.668588,2.16189424 L101.448167,0.0109183767 L102.307472,0.387495694 L101.198283,2.39978869 Z M105.669782,4.57038425 C105.849621,4.61004106 106.056018,4.65962366 106.289256,4.71899291 C106.522447,4.77850131 106.743808,4.86611733 106.953573,4.98179461 C107.163665,5.09742552 107.341726,5.25090431 107.488411,5.44255568 C107.635004,5.63425343 107.708229,5.87868778 107.708229,6.17609063 C107.708229,6.63875336 107.520115,7.0003956 107.143651,7.26148117 C106.767188,7.52261311 106.246003,7.65308633 105.57977,7.65308633 C105.339939,7.65308633 105.113528,7.62813268 104.900256,7.57873561 C104.687032,7.52915301 104.493867,7.45800267 104.320622,7.36556289 C104.147564,7.27307672 103.994192,7.16565548 103.860973,7.04343831 C103.727707,6.92122114 103.627875,6.78402251 103.561336,6.63207432 L104.320622,6.36435609 C104.414048,6.48995918 104.573873,6.59909656 104.800284,6.69158272 C105.026835,6.78402251 105.286679,6.83026559 105.57977,6.83026559 C105.679555,6.83026559 105.799588,6.82372569 105.939586,6.81046038 C106.079398,6.79728782 106.2143,6.76755681 106.344152,6.72136012 C106.474144,6.67511703 106.58562,6.60902235 106.678859,6.52312247 C106.772145,6.43722258 106.818904,6.3215453 106.818904,6.17609063 C106.818904,6.11004234 106.808945,6.04394766 106.788931,5.97785299 C106.768918,5.91185107 106.717249,5.84575639 106.633923,5.77966172 C106.550737,5.71361343 106.420791,5.64751875 106.24432,5.58142408 C106.067708,5.51542216 105.819554,5.44932748 105.499764,5.38323281 C105.279899,5.33685057 105.058351,5.28569098 104.835354,5.22961487 C104.612122,5.17344599 104.412318,5.09241623 104.235659,4.98661837 C104.059234,4.88091327 103.914373,4.74723968 103.80112,4.5853657 C103.687728,4.42344534 103.631289,4.21681252 103.631289,3.96579189 C103.631289,3.54278596 103.797754,3.19937194 104.13073,2.93490047 C104.463987,2.67061453 104.923449,2.53847156 105.50977,2.53847156 C105.736368,2.53847156 105.954456,2.56166268 106.164361,2.60790575 C106.374125,2.65414884 106.565653,2.7218669 106.738898,2.81096715 C106.912143,2.90025295 107.063645,3.00600443 107.19359,3.1282216 C107.323489,3.25048516 107.418365,3.38768379 107.478358,3.53963198 L106.718885,3.80711829 C106.639066,3.67497532 106.497431,3.56769322 106.294119,3.48494732 C106.091088,3.40243334 105.85958,3.36124592 105.599736,3.36124592 C105.259933,3.36124592 104.995179,3.41722927 104.805381,3.52970617 C104.615489,3.64199755 104.520613,3.78745222 104.520613,3.96579189 C104.520613,4.02516114 104.528937,4.07979941 104.545536,4.1294284 C104.562183,4.17882547 104.607026,4.22669193 104.680438,4.2729814 C104.753711,4.31941001 104.8686,4.36713732 105.025198,4.41671992 C105.181844,4.46630252 105.396565,4.51760127 105.669782,4.57038425 Z M115.337278,6.74116532 C115.81694,6.74116532 116.259989,6.6271578 116.666192,6.39918916 C117.072721,6.1712205 117.399104,5.86876198 117.645528,5.49218466 L118.415054,5.98777878 C118.255043,6.23898494 118.065151,6.46695358 117.845333,6.67173113 C117.625516,6.87664781 117.382505,7.05169435 117.11588,7.19710264 C116.849396,7.34232539 116.566406,7.45484869 116.266535,7.53402315 C115.966712,7.61338314 115.657115,7.65308633 115.337278,7.65308633 C114.830963,7.65308633 114.354714,7.55721426 113.908298,7.36556289 C113.46207,7.17386514 113.072186,6.9129651 112.739116,6.58244534 C112.40614,6.25206472 112.142835,5.86556161 111.949857,5.42288962 C111.7566,4.98012486 111.659994,4.50767547 111.659994,4.00549507 C111.659994,3.50331469 111.7566,3.03072616 111.949857,2.58805417 C112.142835,2.14524302 112.40614,1.75869353 112.739116,1.42835929 C113.072186,1.09797868 113.46207,0.836893109 113.908298,0.64524174 C114.354714,0.453590369 114.830963,0.357950214 115.337278,0.357950214 C115.983545,0.357950214 116.576412,0.508275018 117.11588,0.808831861 C117.655582,1.1093887 118.088531,1.51091966 118.415054,2.01310006 L117.645528,2.51861997 C117.399104,2.14204265 117.072721,1.83976966 116.666192,1.61180101 C116.259989,1.38364683 115.81694,1.26968568 115.337278,1.26968568 C114.957635,1.26968568 114.602822,1.34078965 114.273071,1.48281203 C113.943181,1.62492718 113.653598,1.81991807 113.403713,2.06773832 C113.153923,2.31532665 112.957297,2.60623599 112.814072,2.93990975 C112.6708,3.27367627 112.599304,3.62873223 112.599304,4.00549507 C112.599304,4.3820724 112.6708,4.73731389 112.814072,5.07108041 C112.957297,5.40456864 113.153923,5.69543159 113.403713,5.94325184 C113.653598,6.19107209 113.943181,6.38592384 114.273071,6.5279926 C114.602822,6.67001498 114.957635,6.74116532 115.337278,6.74116532 Z M124.954741,4.13425214 C124.96816,4.20688672 124.97812,4.27145078 124.984714,4.32761966 C124.991353,4.38374216 124.994767,4.43485537 124.994767,4.48128398 L124.994767,4.61996685 L124.994767,7.47470027 L124.145422,7.47470027 L124.145422,4.65962366 C124.145422,4.55391856 124.133732,4.42516149 124.110352,4.2729814 C124.087112,4.12098683 124.035443,3.97571768 123.955623,3.83684929 C123.875617,3.69816643 123.757268,3.57914963 123.600904,3.48012357 C123.444258,3.38091199 123.232764,3.33151491 122.966279,3.33151491 C122.646442,3.33151491 122.390012,3.37942775 122.196848,3.47525344 C122.003589,3.5708936 121.857184,3.68657088 121.757165,3.82209974 C121.657192,3.95758223 121.590513,4.09459534 121.55736,4.2332782 C121.523926,4.3721466 121.503914,4.48128398 121.497368,4.56045845 L121.497368,7.47470027 L120.638062,7.47470027 L120.638062,0.516484672 L121.497368,0.516484672 L121.497368,3.14301753 C121.497368,3.13647764 121.529023,3.10187649 121.592243,3.03893581 C121.655463,2.97622704 121.748888,2.90679285 121.872054,2.83081875 C121.995265,2.75484466 122.148498,2.68541047 122.331703,2.6226553 C122.514907,2.55999291 122.729629,2.52854576 122.976333,2.52854576 C123.342743,2.52854576 123.645747,2.58299851 123.885577,2.69213588 C124.125408,2.80104136 124.320396,2.93657024 124.470168,3.09844421 C124.620034,3.26036458 124.731555,3.43559664 124.804875,3.6238621 C124.8781,3.81217395 124.928181,3.98230396 124.954741,4.13425214 Z M129.505965,7.65308633 C129.146336,7.65308633 128.809945,7.58699165 128.496888,7.45484869 C128.183644,7.32265932 127.910661,7.14098014 127.677423,6.90962558 C127.444138,6.67827102 127.259391,6.40744519 127.122852,6.09696255 C126.98622,5.786248 126.917903,5.45248148 126.917903,5.09575575 C126.917903,4.74556992 126.98622,4.41500378 127.122852,4.10452114 C127.259391,3.79399211 127.444138,3.52298075 127.677423,3.29181172 C127.910661,3.06050355 128.183644,2.87706183 128.496888,2.74171848 C128.809945,2.60623599 129.146336,2.53847156 129.505965,2.53847156 C129.859049,2.53847156 130.192305,2.60623599 130.505362,2.74171848 C130.818373,2.87706183 131.09159,3.06050355 131.324687,3.29181172 C131.557832,3.52298075 131.742767,3.79399211 131.879213,4.10452114 C132.015844,4.41500378 132.08416,4.74556992 132.08416,5.09575575 C132.08416,5.45248148 132.015844,5.786248 131.879213,6.09696255 C131.742767,6.40744519 131.557832,6.67827102 131.324687,6.90962558 C131.09159,7.14098014 130.818373,7.32265932 130.505362,7.45484869 C130.192305,7.58699165 129.859049,7.65308633 129.505965,7.65308633 Z M129.505965,3.36124592 C129.266134,3.36124592 129.039724,3.40581925 128.826499,3.49487312 C128.61332,3.58420529 128.430115,3.70809223 128.276884,3.86662668 C128.123652,4.02516114 128.00217,4.21027262 127.912297,4.42177558 C127.822332,4.63327855 127.777396,4.8578613 127.777396,5.09575575 C127.777396,5.33365021 127.822332,5.55823295 127.912297,5.76973593 C128.00217,5.98128527 128.123652,6.16449507 128.276884,6.31982916 C128.430115,6.47520962 128.61332,6.5974268 128.826499,6.68671259 C129.039724,6.77576647 129.266134,6.82033979 129.505965,6.82033979 C129.745797,6.82033979 129.970758,6.77576647 130.180615,6.68671259 C130.39038,6.5974268 130.573679,6.47520962 130.730043,6.31982916 C130.886641,6.16449507 131.009854,5.98128527 131.099914,5.76973593 C131.189692,5.55823295 131.234816,5.33365021 131.234816,5.09575575 C131.234816,4.8578613 131.189692,4.63327855 131.099914,4.42177558 C131.009854,4.21027262 130.886641,4.02516114 130.730043,3.86662668 C130.573679,3.70809223 130.39038,3.58420529 130.180615,3.49487312 C129.970758,3.40581925 129.745797,3.36124592 129.505965,3.36124592 Z M134.107223,7.47470027 L134.956756,7.47470027 L134.956756,2.71685761 L134.107223,2.71685761 L134.107223,7.47470027 Z M135.086654,1.3589251 C135.086654,1.51091966 135.033395,1.64134649 134.926829,1.75048388 C134.82017,1.85938935 134.690365,1.914074 134.536946,1.914074 C134.383714,1.914074 134.252179,1.85938935 134.142387,1.75048388 C134.032361,1.64134649 133.977465,1.51091966 133.977465,1.3589251 C133.977465,1.20693053 134.032361,1.07817347 134.142387,0.972421983 C134.252179,0.8666705 134.383714,0.813655613 134.536946,0.813655613 C134.690365,0.813655613 134.82017,0.8666705 134.926829,0.972421983 C135.033395,1.07817347 135.086654,1.20693053 135.086654,1.3589251 Z M139.567926,3.36124592 C139.328096,3.36124592 139.101591,3.407489 138.888413,3.49997517 C138.675188,3.59241495 138.49217,3.71463212 138.338939,3.86662668 C138.18566,4.01857487 138.064037,4.20034683 137.974166,4.41184979 C137.884199,4.62335275 137.839263,4.84793551 137.839263,5.08582996 C137.839263,5.32372441 137.884199,5.54835355 137.974166,5.75981012 C138.064037,5.97135947 138.18566,6.15623903 138.338939,6.31477349 C138.49217,6.47353986 138.675188,6.59909656 138.888413,6.69158272 C139.101591,6.78402251 139.328096,6.83026559 139.567926,6.83026559 C139.881076,6.83026559 140.162478,6.75596126 140.412222,6.60735259 C140.662106,6.45874394 140.863687,6.2654228 141.016825,6.02748196 L141.726359,6.48346566 C141.493121,6.84019138 141.188341,7.12428254 140.811877,7.33583188 C140.435694,7.54728847 140.020888,7.65308633 139.567926,7.65308633 C139.20825,7.65308633 138.871814,7.58532189 138.558757,7.44979301 C138.245466,7.31449605 137.972528,7.13105435 137.739245,6.89969979 C137.506006,6.66834523 137.321258,6.39751939 137.184719,6.08703675 C137.048087,5.77632219 136.979958,5.44255568 136.979958,5.08582996 C136.979958,4.73564413 137.048087,4.40530989 137.184719,4.09459534 C137.321258,3.78406632 137.506006,3.51472472 137.739245,3.28675606 C137.972528,3.05878741 138.245466,2.87706183 138.558757,2.74171848 C138.871814,2.60623599 139.20825,2.53847156 139.567926,2.53847156 C140.020888,2.53847156 140.435694,2.64422304 140.811877,2.85572601 C141.188341,3.06704344 141.493121,3.35118098 141.726359,3.70809223 L141.026879,4.16402954 C140.873647,3.91954881 140.670429,3.72455791 140.417364,3.57914963 C140.164114,3.43388049 139.881076,3.36124592 139.567926,3.36124592 Z M144.099138,5.32372441 C144.125885,5.53522737 144.184241,5.73346501 144.27402,5.91834458 C144.364079,6.10345606 144.477331,6.26199052 144.61387,6.39413348 C144.750315,6.52632285 144.906913,6.63207432 145.083572,6.71143431 C145.259997,6.79079431 145.448345,6.83026559 145.64815,6.83026559 C145.954568,6.83026559 146.232741,6.75763102 146.482532,6.61217635 C146.73237,6.46695358 146.933857,6.27191631 147.08709,6.02748196 L147.786429,6.47353986 C147.560018,6.83026559 147.260382,7.1160265 146.887285,7.33091537 C146.514048,7.54561871 146.100972,7.65308633 145.64815,7.65308633 C145.334906,7.65308633 145.040179,7.59353155 144.763735,7.47470027 C144.487291,7.35563709 144.242364,7.19204698 144.029373,6.98392991 C143.816101,6.77576647 143.641219,6.52966236 143.504588,6.24552483 C143.368142,5.96143367 143.286406,5.65410502 143.259846,5.32372441 C143.259846,5.2906075 143.258117,5.25429021 143.25489,5.21458703 C143.251523,5.17493022 143.249887,5.13541256 143.249887,5.09575575 C143.249887,4.88425279 143.273267,4.68606153 143.319839,4.50095005 C143.379645,4.22353794 143.483032,3.96412213 143.62953,3.72288816 C143.776122,3.48179333 143.951003,3.27367627 144.154221,3.09844421 C144.357486,2.92349044 144.587263,2.78629181 144.843742,2.68708022 C145.100172,2.58805417 145.36834,2.53847156 145.64815,2.53847156 C145.927961,2.53847156 146.196128,2.58805417 146.452559,2.68708022 C146.708943,2.78629181 146.938814,2.92349044 147.141986,3.09844421 C147.345203,3.27367627 147.519992,3.48179333 147.666584,3.72288816 C147.813175,3.96412213 147.916374,4.22353794 147.976368,4.50095005 C148.023034,4.68606153 148.046414,4.88425279 148.046414,5.09575575 L148.046414,5.21458703 C148.046414,5.25429021 148.043047,5.2906075 148.036173,5.32372441 L144.099138,5.32372441 Z M147.117063,4.50095005 C147.003717,4.16402954 146.815603,3.8898178 146.552391,3.67831484 C146.289273,3.46685826 145.987813,3.36124592 145.64815,3.36124592 C145.3083,3.36124592 145.006933,3.46685826 144.743722,3.67831484 C144.480698,3.8898178 144.292396,4.16402954 144.179144,4.50095005 L147.117063,4.50095005 Z" id="Fill-8" fill="#CE5017" fill-rule="nonzero" mask="url(#mask-6)"></path>
                            </g>
                        </g>
                        <g id="Group-16" transform="translate(216.972350, 21.000000)">
                            <g id="Fill-14-Clipped">
                                <mask id="mask-8" fill="white">
                                    <use xlink:href="#path-7"></use>
                                </mask>
                                <g id="path-7"></g>
                                <polygon id="Fill-14" fill="#FFFFFF" fill-rule="nonzero" mask="url(#mask-8)" points="17.2190628 0.034660746 21.0772081 0.034660746 6.94563368 32.290832 3.12825835 32.290832 8.61276847 19.7197409 0.00623818907 0.034660746 3.82177321 0.034660746 10.5203708 15.3312559"></polygon>
                            </g>
                        </g>
                    </g>
                </g>
            </g>
        </g>
    </g>
</svg>