<?xml version="1.0" encoding="UTF-8" standalone="no"?>
<svg width="288px" height="80px" viewBox="0 0 288 80" version="1.1" xmlns="http://www.w3.org/2000/svg" xmlns:xlink="http://www.w3.org/1999/xlink">
    <!-- Generator: Sketch 41.2 (35397) - http://www.bohemiancoding.com/sketch -->
    <title>Logo</title>
    <desc>Created with Sketch.</desc>
    <defs>
        <polygon id="path-1" points="1.17973531e-21 0.0218283401 1.17973531e-21 59.405202 68.6818938 59.405202 68.6818938 0.0218283401 0 0.0218283401"></polygon>
        <polygon id="path-3" points="0.0297940057 9.80471151 183.737695 9.80471151 183.737695 0.0139880551 0.0297940057 0.0139880551 0.0297940057 9.80471151"></polygon>
        <polygon id="path-5" points="54.8466791 0.0517569923 0.00278557124 0.0517569923 0.00278557124 55.3843612 54.8466791 55.3843612 54.8466791 0.0517569923"></polygon>
        <polygon id="path-7" points="25.9214234 41.2483678 25.9214234 0.0442757003 0.00767192746 0.0442757003 0.00767192746 41.2483678 25.9214234 41.2483678"></polygon>
    </defs>
    <g id="Styleguide" stroke="none" stroke-width="1" fill="none" fill-rule="evenodd">
        <g id="OZ-27/02-Home-page" transform="translate(-830.000000, -2758.000000)">
            <g id="Group-19" transform="translate(0.000000, 2502.000000)">
                <g id="Tel" transform="translate(724.000000, 0.000000)">
                    <g id="Logo" transform="translate(106.000000, 256.000000)">
                        <g id="Group-3" transform="translate(0.000000, 17.418516)">
                            <mask id="mask-2" fill="white">
                                <use xlink:href="#path-1"></use>
                            </mask>
                            <g id="Clip-2"></g>
                            <path d="M34.3401044,59.405202 C41.6992355,59.1547957 49.5071336,48.4114464 52.525126,36.9968607 C50.6792207,38.564129 48.3091639,39.5065698 45.7243279,39.5065698 C39.8361526,39.5065698 35.0612772,34.6174058 35.0612772,28.5883995 C35.0612772,22.5595716 39.8361526,17.6702888 45.7243279,17.6702888 C48.4419428,17.6702888 50.9217976,18.7124405 52.8051339,20.4268388 C52.4348851,19.2666741 51.9545481,18.1692 51.3525746,17.152184 C53.2035867,14.459632 55.4880452,11.6148395 58.0608685,9.40461986 C64.9303193,3.50426332 65.9122332,6.39255306 65.9122332,6.39255306 C66.6205227,10.7713966 62.8251238,20.0848624 55.8768646,25.2452306 C56.1778223,26.2034183 56.3533133,27.2191864 56.3826198,28.272569 C67.1772887,20.8148083 70.3999045,7.9068759 67.8614366,0.8405906 C66.8023973,-2.10836951 54.2208425,3.21576711 45.5891116,11.8848553 C42.7232811,10.4283506 39.0247389,9.68069676 34.3401044,9.91452428 C29.6250608,9.67903293 25.9151442,10.4091571 23.0470504,11.8380898 C14.416016,3.19663306 1.87804374,-2.10302148 0.820397157,0.8405906 C-1.71569136,7.90093365 1.49868375,20.7925249 12.2725189,28.2539103 C12.3019415,27.2568009 12.4621118,26.2933246 12.7359103,25.3806545 C5.73780089,20.1864154 1.91483649,10.8066342 2.62805879,6.39730686 C2.62805879,6.39730686 3.61664642,3.48952654 10.5322913,9.42963673 C13.1226404,11.6548903 15.4225357,14.518698 17.2857927,17.229671 C16.6983854,18.2220266 16.2262891,19.2906808 15.8583615,20.4189357 C17.7404792,18.7092317 20.2171422,17.6702888 22.9303466,17.6702888 C28.8185219,17.6702888 33.5933972,22.5595716 33.5933972,28.5883995 C33.5933972,34.6174058 28.8185219,39.5065698 22.9303466,39.5065698 C20.4365059,39.5065698 18.1424719,38.6293749 16.3261634,37.1599755 C19.5295123,48.6414115 27.4555651,59.3946248 34.3401044,59.405202 L34.3401044,59.405202 Z M34.3409749,55.076927 L34.2899061,55.061596 C33.7359256,54.8947376 30.8189103,53.8974499 29.6002228,51.0980562 C27.5292667,46.3408696 41.1525091,46.3408696 39.0816109,51.0980562 C37.8629235,53.8974499 34.9460242,54.8947376 34.3921018,55.061596 L34.3409749,55.076927 Z M43.5081158,24.8965394 C43.8149348,24.8965394 44.1126428,24.9361148 44.3971192,25.009977 C44.2171017,25.2960368 44.1126428,25.63629 44.1126428,26.0019761 C44.1126428,27.0151296 44.9152935,27.8365862 45.9046356,27.8365862 C46.295428,27.8365862 46.6568559,27.7083524 46.95143,27.4908661 C47.0568755,27.837834 47.1136315,28.2061346 47.1136315,28.5883995 C47.1136315,30.6270665 45.4989287,32.2804379 43.5081158,32.2804379 C41.5172448,32.2804379 39.9027161,30.6270665 39.9027161,28.5883995 C39.9027161,26.5499109 41.5172448,24.8965394 43.5081158,24.8965394 L43.5081158,24.8965394 Z M25.1465587,24.8965394 C25.4533197,24.8965394 25.7510857,24.9361148 26.0354461,25.009977 C25.8556607,25.2960368 25.7510857,25.63629 25.7510857,26.0019761 C25.7510857,27.0151296 26.5536204,27.8365862 27.5430785,27.8365862 C27.9337548,27.8365862 28.2951247,27.7083524 28.5898729,27.4908661 C28.6952023,27.837834 28.7520164,28.2061346 28.7520164,28.5883995 C28.7520164,30.6270665 27.1374877,32.2804379 25.1465587,32.2804379 C23.1556297,32.2804379 21.5409269,30.6270665 21.5409269,28.5883995 C21.5409269,26.5499109 23.1556297,24.8965394 25.1465587,24.8965394 L25.1465587,24.8965394 Z M45.7243279,20.1923577 C41.1963238,20.1923577 37.5244186,23.9522566 37.5244186,28.5883995 C37.5244186,33.2247208 41.1963238,36.9846197 45.7243279,36.9846197 C50.2521579,36.9846197 53.924063,33.2247208 53.924063,28.5883995 C53.924063,23.9522566 50.2521579,20.1923577 45.7243279,20.1923577 L45.7243279,20.1923577 Z M22.9303466,20.1923577 C27.4585248,20.1923577 31.1303719,23.9522566 31.1303719,28.5883995 C31.1303719,33.2247208 27.4585248,36.9846197 22.9303466,36.9846197 C18.4025166,36.9846197 14.7306694,33.2247208 14.7306694,28.5883995 C14.7306694,23.9522566 18.4025166,20.1923577 22.9303466,20.1923577 L22.9303466,20.1923577 Z" id="Fill-1" fill="#E0481B" mask="url(#mask-2)"></path>
                        </g>
                        <path d="M91.399827,64.5276706 C93.6590994,64.5188167 95.7706784,64.1895566 97.7433852,63.5399499 C99.7159178,62.8903432 101.505996,61.9650161 103.113676,60.7816172 C104.712536,59.5982776 106.094238,58.2012548 107.241371,56.5908458 C108.397093,54.9801396 109.28331,53.2183815 109.909077,51.2876259 C110.526023,49.3656647 110.838936,47.3369808 110.847525,45.2014552 L110.847525,45.0947324 C110.838936,42.9591474 110.534728,40.9393768 109.917724,39.0174157 C109.300778,37.0955139 108.423207,35.3425504 107.284837,33.7409359 C106.137646,32.1393808 104.773413,30.7512119 103.174437,29.5767264 C101.584224,28.4110947 99.8029089,27.4946216 97.8389071,26.8540471 C95.8750213,26.2132943 93.7634422,25.8840937 91.5041699,25.8751804 C89.2447234,25.8840937 87.1331443,26.2132943 85.1604376,26.8628416 C83.1877889,27.5125078 81.3977112,28.4378348 79.7901464,29.6211744 C78.1911705,30.8045733 76.8095852,32.2015962 75.6624521,33.8121835 C74.5067302,35.4227113 73.6203963,37.1845288 72.9946873,39.1152845 C72.3776833,41.0372457 72.0649449,43.0658108 72.056298,45.2014552 L72.056298,45.308178 C72.0649449,47.4437036 72.3689784,49.4634742 72.9860985,51.3854353 C73.6030445,53.307337 74.4806155,55.0604789 75.6189856,56.6620339 C76.7661767,58.263589 78.1304102,59.6516984 79.7292701,60.8262435 C81.3195411,61.9918751 83.1009139,62.9083482 85.0649157,63.5488039 C87.0288015,64.1895566 89.1403805,64.5188167 91.399827,64.5276706 L91.399827,64.5276706 Z M91.5041699,56.9466677 C89.8790212,56.9377543 88.393093,56.6262616 87.0462113,56.0124272 C85.6993295,55.3985334 84.5348447,54.5530702 83.5527567,53.4763346 C82.5708429,52.3999555 81.8061455,51.1542224 81.2673696,49.7394916 C80.7286518,48.3247015 80.4592638,46.8118642 80.4505589,45.2014552 L80.4505589,45.0947324 C80.4592638,43.484264 80.7286518,41.9714267 81.2499598,40.5746415 C81.7800308,39.1687648 82.5274344,37.9407989 83.5007014,36.8729767 C84.4740844,35.8052139 85.6297483,34.9778151 86.9593363,34.3726564 C88.2975711,33.7765894 89.7747944,33.4650967 91.399827,33.4561833 C93.0248016,33.4650967 94.5106717,33.7765894 95.8577275,34.3904237 C97.2044932,35.0044364 98.368978,35.8498402 99.3509499,36.9264569 C100.33298,38.0030143 101.097561,39.2487474 101.636453,40.663597 C102.175171,42.0783872 102.444559,43.5909868 102.453264,45.2014552 L102.453264,45.308178 C102.444559,46.9188247 102.183818,48.4314243 101.653747,49.8284471 C101.123734,51.2340862 100.376446,52.462052 99.4031214,53.5298743 C98.4299124,54.5976965 97.2828374,55.4251547 95.9446025,56.0301945 C94.6062516,56.6262616 93.1290284,56.9377543 91.5041699,56.9466677 L91.5041699,56.9466677 Z M112.259577,63.8869773 L142.656543,63.8869773 L142.656543,56.6798012 L122.583194,56.6798012 L142.656543,32.7621286 L142.656543,26.5158143 L112.885228,26.5158143 L112.885228,33.723228 L132.3331,33.723228 L112.259577,57.6408412 L112.259577,63.8869773 Z" id="Fill-4" fill="#F7BC40"></path>
                        <path d="M151.575095,52.3018965 C151.714141,53.4409069 152.018175,54.5087291 152.487428,55.5052443 C152.956796,56.5018784 153.547628,57.3560173 154.26027,58.0678988 C154.972853,58.7796615 155.789722,59.3491666 156.71076,59.7761767 C157.631797,60.2032461 158.613711,60.41687 159.656501,60.41687 C161.255593,60.41687 162.706702,60.0253352 164.010175,59.2424438 C165.313648,58.4592554 166.365143,57.4094382 167.164718,56.0925169 L170.814397,58.4950277 C169.632444,60.41687 168.068404,61.9561503 166.121812,63.112928 C164.175336,64.2696462 162.020291,64.8480054 159.656501,64.8480054 C158.022822,64.8480054 156.48478,64.5276587 155.042203,63.8869654 C153.599799,63.2464503 152.322382,62.3654524 151.210011,61.2444471 C150.097872,60.1231446 149.185191,58.7973694 148.472839,57.2670619 C147.760255,55.736695 147.334527,54.0816002 147.195423,52.3018965 C147.195423,52.1239856 147.186718,51.9283073 147.169366,51.714624 C147.152014,51.5011784 147.143193,51.287614 147.143193,51.0741684 C147.143193,49.935158 147.264946,48.8673358 147.508277,47.8708206 C147.821073,46.3758695 148.359733,44.9789061 149.124547,43.6799303 C149.889186,42.3807764 150.801635,41.259771 151.861719,40.3166766 C152.921861,39.3732851 154.121165,38.6348418 155.459458,38.1008712 C156.797577,37.5670195 158.19663,37.3000343 159.656501,37.3000343 C161.116373,37.3000343 162.5156,37.5670195 163.853777,38.1008712 C165.192186,38.6348418 166.391142,39.3732851 167.451342,40.3166766 C168.511484,41.259771 169.423991,42.3807764 170.18863,43.6799303 C170.953502,44.9789061 171.492103,46.3758695 171.805074,47.8708206 C172.048289,48.8673358 172.169926,49.935158 172.169926,51.0741684 L172.169926,51.714624 C172.169926,51.9283073 172.152574,52.1239856 172.11787,52.3018965 L151.575095,52.3018965 Z M167.321117,47.8708206 C166.730227,46.0555822 165.748139,44.5786956 164.375259,43.4396258 C163.002321,42.3006154 161.429343,41.7314073 159.656501,41.7314073 C157.884008,41.7314073 156.310972,42.3006154 154.937918,43.4396258 C153.564979,44.5786956 152.582949,46.0555822 151.992176,47.8708206 L167.321117,47.8708206 Z M188.020116,48.2446475 C188.958738,48.4580337 190.036173,48.7249595 191.252946,49.0452468 C192.46937,49.3656528 193.625266,49.8372892 194.720053,50.4600369 C195.815073,51.0830223 196.744874,51.91054 197.509455,52.9425899 C198.274326,53.9748774 198.656414,55.2916205 198.656414,56.8931755 C198.656414,59.3845824 197.6745,61.3334026 195.710672,62.7392793 C193.746728,64.1449779 191.027024,64.8480054 187.55098,64.8480054 C186.299504,64.8480054 185.117899,64.7147207 184.005528,64.4476166 C182.893156,64.1806908 181.885186,63.7982476 180.9815,63.2999306 C180.077756,62.8013758 179.278239,62.2232544 178.583007,61.5647937 C177.887949,60.9063331 177.366351,60.1677709 177.018793,59.3491666 L180.9815,57.9077552 C181.468046,58.5839832 182.302267,59.1711963 183.484162,59.6694539 C184.665882,60.1677709 186.021585,60.41687 187.55098,60.41687 C188.072346,60.41687 188.697997,60.3812165 189.42799,60.3102066 C190.157926,60.2389591 190.861921,60.0788154 191.539569,59.8296569 C192.217392,59.5804984 192.799518,59.2246765 193.286123,58.7618941 C193.772843,58.2991117 194.016058,57.6763046 194.016058,56.8931755 C194.016058,56.5372942 193.964177,56.1814723 193.859892,55.8256504 C193.755491,55.4698285 193.486161,55.1136501 193.051728,54.7578282 C192.617179,54.4020063 191.939357,54.0458873 191.018319,53.690006 C190.09705,53.3341841 188.802281,52.9781245 187.133724,52.6223026 C185.986707,52.3730847 184.831043,52.0973643 183.666617,51.7947256 C182.502016,51.4923839 181.459458,51.0564011 180.538188,50.4868959 C179.61715,49.9173907 178.861158,49.1965958 178.270385,48.3246896 C177.679263,47.4526051 177.383703,46.3404537 177.383703,44.9879977 C177.383703,42.709977 178.252801,40.8593228 179.990823,39.4356787 C181.728788,38.0120346 184.127048,37.3000343 187.185896,37.3000343 C188.367848,37.3000343 189.505928,37.4247621 190.600948,37.6737423 C191.696142,37.9230197 192.695349,38.287755 193.599093,38.7683047 C194.502779,39.2487355 195.293591,39.8182407 195.971297,40.4765825 C196.649294,41.1350432 197.144603,41.8736054 197.457458,42.6922097 L193.494808,44.1336211 C193.077785,43.4219773 192.339144,42.8435587 191.279002,42.3984843 C190.218861,41.9537069 189.010967,41.7314073 187.655264,41.7314073 C185.882422,41.7314073 184.500721,42.033749 183.510218,42.6387888 C182.5196,43.2440069 182.024232,44.0268983 182.024232,44.9879977 C182.024232,45.3081661 182.067641,45.6018915 182.154516,45.8687579 C182.241449,46.1356243 182.476075,46.3936368 182.858453,46.6428547 C183.240656,46.8919538 183.840367,47.1499663 184.657293,47.4171298 C185.474046,47.6839963 186.595122,47.9597761 188.020116,48.2446475 L188.020116,48.2446475 Z M215.549511,48.2446475 C216.488132,48.4580337 217.565568,48.7249595 218.782224,49.0452468 C219.998764,49.3656528 221.154428,49.8372892 222.249448,50.4600369 C223.344351,51.0830223 224.274268,51.91054 225.038849,52.9425899 C225.803721,53.9748774 226.185924,55.2916205 226.185924,56.8931755 C226.185924,59.3845824 225.203894,61.3334026 223.240067,62.7392793 C221.276239,64.1449779 218.556187,64.8480054 215.080258,64.8480054 C213.828898,64.8480054 212.647294,64.7147207 211.534922,64.4476166 C210.422551,64.1806908 209.41458,63.7982476 208.510894,63.2999306 C207.607151,62.8013758 206.807634,62.2232544 206.112401,61.5647937 C205.417343,60.9063331 204.895861,60.1677709 204.548303,59.3491666 L208.510894,57.9077552 C208.997557,58.5839832 209.831661,59.1711963 211.013672,59.6694539 C212.195277,60.1677709 213.550979,60.41687 215.080258,60.41687 C215.60174,60.41687 216.227507,60.3812165 216.957443,60.3102066 C217.687204,60.2389591 218.391083,60.0788154 219.068848,59.8296569 C219.746786,59.5804984 220.328913,59.2246765 220.815633,58.7618941 C221.302238,58.2991117 221.545569,57.6763046 221.545569,56.8931755 C221.545569,56.5372942 221.493571,56.1814723 221.389171,55.8256504 C221.284886,55.4698285 221.015556,55.1136501 220.581239,54.7578282 C220.146574,54.4020063 219.468751,54.0458873 218.547482,53.690006 C217.626444,53.3341841 216.331676,52.9781245 214.663119,52.6223026 C213.516102,52.3730847 212.360438,52.0973643 211.196011,51.7947256 C210.03141,51.4923839 208.988852,51.0564011 208.067582,50.4868959 C207.146545,49.9173907 206.39061,49.1965958 205.799779,48.3246896 C205.208658,47.4526051 204.913213,46.3404537 204.913213,44.9879977 C204.913213,42.709977 205.782195,40.8593228 207.520102,39.4356787 C209.258182,38.0120346 211.656443,37.3000343 214.715406,37.3000343 C215.897243,37.3000343 217.035439,37.4247621 218.130458,37.6737423 C219.225304,37.9230197 220.224744,38.287755 221.128488,38.7683047 C222.032173,39.2487355 222.822985,39.8182407 223.50075,40.4765825 C224.178688,41.1350432 224.673997,41.8736054 224.986852,42.6922097 L221.024319,44.1336211 C220.607179,43.4219773 219.868307,42.8435587 218.808165,42.3984843 C217.748081,41.9537069 216.540362,41.7314073 215.184659,41.7314073 C213.411933,41.7314073 212.030232,42.033749 211.039613,42.6387888 C210.048994,43.2440069 209.553743,44.0268983 209.553743,44.9879977 C209.553743,45.3081661 209.597035,45.6018915 209.68391,45.8687579 C209.770843,46.1356243 210.005469,46.3936368 210.387847,46.6428547 C210.770283,46.8919538 211.369761,47.1499663 212.186688,47.4171298 C213.00344,47.6839963 214.124517,47.9597761 215.549511,48.2446475 L215.549511,48.2446475 Z M257.156602,38.2610149 L257.156602,63.8869654 L252.672761,63.8869654 L252.672761,60.8974197 C251.560389,62.1431529 250.256916,63.112928 248.762109,63.8068044 C247.267534,64.5010374 245.651148,64.8480054 243.913358,64.8480054 C242.175161,64.8480054 240.550245,64.4921835 239.038144,63.7802426 C237.526217,63.06848 236.205392,62.0897321 235.075727,60.8439989 C233.946003,59.5982657 233.051023,58.139087 232.390552,56.4661061 C231.730198,54.7933629 231.400049,52.9961295 231.400049,51.0741684 C231.400049,49.1877419 231.730198,47.4080382 232.390552,45.7351761 C233.051023,44.0624329 233.946003,42.6032542 235.075727,41.357521 C236.205392,40.1118473 237.526217,39.1241266 239.038144,38.3945966 C240.550245,37.6648884 242.175161,37.3000343 243.913358,37.3000343 C245.651148,37.3000343 247.267534,37.6471805 248.762109,38.3412352 C250.256916,39.0351711 251.560389,40.0051839 252.672761,41.2508576 L252.672761,38.2610149 L257.156602,38.2610149 Z M244.278209,60.41687 C245.425226,60.41687 246.511309,60.1677709 247.536864,59.6694539 C248.562302,59.1711963 249.457399,58.5038222 250.222038,57.6674506 C250.986852,56.831079 251.58633,55.8434178 252.020821,54.7044074 C252.45537,53.565397 252.672761,52.3553174 252.672761,51.0741684 C252.672761,49.7926629 252.45537,48.5827021 252.020821,47.4436917 C251.58633,46.3046813 250.986852,45.3172577 250.222038,44.480589 C249.457399,43.6444551 248.562302,42.9768434 247.536864,42.4786452 C246.511309,41.9803282 245.425226,41.7314073 244.278209,41.7314073 C243.131134,41.7314073 242.045052,41.9803282 241.019497,42.4786452 C239.994059,42.9768434 239.09902,43.6444551 238.334381,44.480589 C237.569741,45.3172577 236.961326,46.3046813 236.509658,47.4436917 C236.057583,48.5827021 235.831719,49.7926629 235.831719,51.0741684 C235.831719,52.3553174 236.057583,53.565397 236.509658,54.7044074 C236.961326,55.8434178 237.569741,56.831079 238.334381,57.6674506 C239.09902,58.5038222 239.994059,59.1711963 241.019497,59.6694539 C242.045052,60.1677709 243.131134,60.41687 244.278209,60.41687 L244.278209,60.41687 Z" id="Fill-6" fill="#000000"></path>
                        <g id="Group-10" transform="translate(75.500587, 69.888578)">
                            <mask id="mask-4" fill="white">
                                <use xlink:href="#path-3"></use>
                            </mask>
                            <g id="Clip-9"></g>
                            <path d="M4.81685622,0.687126067 L8.47523978,9.57619637 L7.24755729,9.57619637 L6.19339267,7.02358429 L2.31181521,7.02358429 L1.27001157,9.57619637 L0.0297940057,9.57619637 L3.68835167,0.687126067 L4.81685622,0.687126067 Z M2.79540199,5.85533806 L5.7098059,5.85533806 L4.25881345,2.32510711 L2.79540199,5.85533806 Z M10.5398123,7.74746911 C10.5066756,7.58661242 10.4901943,7.43841272 10.4901943,7.30292944 L10.4901943,7.12525618 L10.4901943,3.48069635 L11.544359,3.48069635 L11.544359,7.07439052 C11.544359,7.2183118 11.5587511,7.38760649 11.5876514,7.58227458 C11.6167258,7.77700209 11.6807359,7.96329161 11.7799138,8.14096487 C11.8790918,8.31899466 12.0258566,8.47117567 12.2202082,8.5983398 C12.4145598,8.72520683 12.6770999,8.78872948 13.0077704,8.78872948 C13.4045402,8.78872948 13.7228498,8.72520683 13.962641,8.5983398 C14.2024323,8.47117567 14.3842488,8.32303539 14.5082648,8.15368128 C14.6323968,7.98444602 14.7150354,7.8111106 14.7562387,7.63314023 C14.797616,7.45540756 14.822454,7.31564585 14.8307527,7.21421165 L14.8307527,3.48069635 L15.8973944,3.48069635 L15.8973944,9.57619637 L14.8307527,9.57619637 L14.8307527,9.02992538 C14.8307527,9.02992538 14.7915226,9.07235304 14.7129463,9.15703009 C14.634428,9.24164772 14.5185946,9.3306032 14.3656784,9.42365882 C14.2127621,9.51695214 14.0225888,9.60353071 13.7952166,9.68404819 C13.5679024,9.76444683 13.3011839,9.80473528 12.9953514,9.80473528 C12.5405489,9.80473528 12.1644387,9.73491385 11.8667888,9.59509272 C11.5690809,9.4555687 11.3272585,9.2819956 11.1412056,9.07449225 C10.9552106,8.86710774 10.8167445,8.64266899 10.7257492,8.40141366 C10.6347539,8.16021776 10.572891,7.94225605 10.5398123,7.74746911 L10.5398123,7.74746911 Z M21.1862656,5.85533806 C21.4094595,5.90614429 21.6657321,5.96966694 21.9550833,6.04572773 C22.2445506,6.12196679 22.5193356,6.23421588 22.7797284,6.38241558 C23.0402954,6.53055586 23.2614582,6.72718489 23.4433328,6.97271864 C23.6253234,7.2183118 23.7161446,7.53146835 23.7161446,7.91248538 C23.7161446,8.50522476 23.4825629,8.96854194 23.0154574,9.30303116 C22.54841,9.6375798 21.901461,9.80473528 21.0746687,9.80473528 C20.7770768,9.80473528 20.4959082,9.77276598 20.231395,9.70948102 C19.9667657,9.64595837 19.7269745,9.55480427 19.5119632,9.43637524 C19.297126,9.31788678 19.1068367,9.18026429 18.9416175,9.02368602 C18.7761662,8.86710774 18.6521502,8.69133601 18.5694536,8.49666792 L19.5119632,8.15368128 C19.6277965,8.3145974 19.8262685,8.45441852 20.107263,8.57290698 C20.3883736,8.69133601 20.7108615,8.75058023 21.0746687,8.75058023 C21.1986846,8.75058023 21.3474225,8.74220166 21.5211725,8.72520683 C21.6946904,8.70833084 21.8621148,8.67024102 22.0233298,8.61105622 C22.1845447,8.55181199 22.3230689,8.46713494 22.4387861,8.35708448 C22.5545614,8.24703402 22.6124201,8.09883432 22.6124201,7.91248538 C22.6124201,7.82786775 22.6000591,7.74319069 22.5752211,7.65851364 C22.5503831,7.57395543 22.486373,7.48927838 22.3829006,7.40460132 C22.2796604,7.31998369 22.1184454,7.23530664 21.8993138,7.15062958 C21.6802983,7.06607137 21.3722025,6.98139432 20.9753747,6.89671727 C20.7025628,6.83729477 20.4276037,6.77175176 20.1507295,6.69990997 C19.8736812,6.62794933 19.6257074,6.52413823 19.4065758,6.38859552 C19.1875022,6.25317166 19.0076587,6.08191603 18.8671035,5.87453153 C18.7265482,5.6670876 18.6563866,5.40236039 18.6563866,5.08076585 C18.6563866,4.53883271 18.8629251,4.09886856 19.2763503,3.7600415 C19.6897175,3.42145213 20.2601792,3.25215744 20.9877937,3.25215744 C21.2689042,3.25215744 21.5396269,3.28186869 21.8001359,3.34111292 C22.0605868,3.40035714 22.2982308,3.48711398 22.5132421,3.60126459 C22.7281373,3.7156529 22.9162795,3.85113618 23.0774944,4.00771445 C23.2387093,4.16435215 23.3565738,4.34012389 23.4309137,4.53479198 L22.4884621,4.8774815 C22.3892842,4.70818681 22.213503,4.57074258 21.9612928,4.46473286 C21.7091986,4.35902024 21.4218785,4.30625306 21.0995067,4.30625306 C20.6777828,4.30625306 20.3491434,4.37797601 20.1134725,4.52207556 C19.8778596,4.66593742 19.7600531,4.85228636 19.7600531,5.08076585 C19.7600531,5.15682664 19.770383,5.22682634 19.7909846,5.29040841 C19.8117603,5.35369337 19.8674717,5.41501738 19.958409,5.47432103 C20.0494044,5.53380294 20.1919908,5.59494869 20.3862844,5.65847134 C20.580578,5.72199398 20.8472384,5.78771526 21.1862656,5.85533806 L21.1862656,5.85533806 Z M29.2654668,9.66491415 C29.2406288,9.67353041 29.1745295,9.6946254 29.0669949,9.7284368 C28.9596343,9.76224819 28.8251725,9.78548239 28.6639575,9.7981988 C28.5026846,9.81091522 28.3249883,9.80033801 28.1305787,9.76658604 C27.9364011,9.73277464 27.748259,9.65219774 27.5663844,9.52533071 C27.01252,9.14431368 26.7355878,8.4289857 26.7355878,7.3791685 L26.7355878,4.53479198 L25.9790731,4.53479198 L25.9790731,3.48069635 L26.7355878,3.48069635 L26.7355878,0.66169324 L27.7648564,0.66169324 L27.7648564,3.48069635 L29.0050739,3.48069635 L29.0050739,4.53479198 L27.7648564,4.53479198 L27.7648564,7.3791685 C27.7648564,8.04796867 27.8889304,8.47117567 28.1369623,8.64914604 C28.2113022,8.70001169 28.2919677,8.72948525 28.3787266,8.73786382 C28.4654856,8.74648008 28.5462091,8.74861929 28.620549,8.74434087 C28.694889,8.74006245 28.7590151,8.72948525 28.8127535,8.71272811 C28.8665498,8.69561443 28.893477,8.68729528 28.893477,8.68729528 L29.2654668,9.66491415 Z M34.4054261,3.23944103 C34.6700553,3.23944103 34.9099046,3.26487386 35.1247418,3.31568009 L34.9760039,4.35688103 C34.8270919,4.2976368 34.6327983,4.26816324 34.3930071,4.26816324 C33.9962373,4.26816324 33.6799008,4.32954668 33.444346,4.45231355 C33.2087331,4.57484274 33.0268004,4.72304244 32.8986642,4.89667496 C32.7704699,5.07024807 32.6858581,5.24364291 32.6445388,5.41727543 C32.6030454,5.59078912 32.5783235,5.72847103 32.5700248,5.82990523 L32.5700248,9.57619637 L31.5158021,9.57619637 L31.5158021,3.48069635 L32.5700248,3.48069635 L32.5700248,4.02667023 C32.5783235,4.01829166 32.6216739,3.97396248 32.7002503,3.89332615 C32.7787685,3.81298694 32.8925127,3.72403147 33.0413086,3.62669742 C33.1901626,3.52936338 33.3781887,3.4404079 33.6055609,3.36000927 C33.8329912,3.27972948 34.0995936,3.23944103 34.4054261,3.23944103 L34.4054261,3.23944103 Z M42.8815712,3.48069635 L42.8815712,9.57619637 L41.8149876,9.57619637 L41.8149876,8.86496854 C41.5504743,9.16130851 41.2404635,9.39198663 40.884955,9.5570029 C40.5293304,9.72219743 40.1449215,9.80473528 39.7316124,9.80473528 C39.3181292,9.80473528 38.9316312,9.72005822 38.5718862,9.55076354 C38.2124315,9.38140943 37.8981842,9.14865152 37.6294346,8.85225212 C37.360685,8.55585272 37.147821,8.20888478 36.9908424,7.8111106 C36.8336898,7.41303932 36.7551135,6.98543505 36.7551135,6.52841665 C36.7551135,6.07977682 36.8336898,5.6562727 36.9908424,5.25849853 C37.147821,4.86066493 37.360685,4.5134593 37.6294346,4.21729759 C37.8981842,3.92095761 38.2124315,3.68594165 38.5718862,3.51254681 C38.9316312,3.33897371 39.3181292,3.25215744 39.7316124,3.25215744 C40.1449215,3.25215744 40.5293304,3.33463586 40.884955,3.4998304 C41.2404635,3.66478724 41.5504743,3.89552479 41.8149876,4.19186476 L41.8149876,3.48069635 L42.8815712,3.48069635 Z M39.8183713,8.75058023 C40.0911832,8.75058023 40.3494869,8.69133601 40.5933405,8.57290698 C40.8373681,8.45441852 41.0502322,8.29570104 41.2321068,8.09663569 C41.4140974,7.89762976 41.5566839,7.6629109 41.6599821,7.39188491 C41.7633384,7.12091834 41.8149876,6.83319462 41.8149876,6.52841665 C41.8149876,6.22363868 41.7633384,5.93591496 41.6599821,5.66494839 C41.5566839,5.39398182 41.4140974,5.15896585 41.2321068,4.96019761 C41.0502322,4.76119168 40.8373681,4.60241477 40.5933405,4.48398574 C40.3494869,4.36549729 40.0911832,4.30625306 39.8183713,4.30625306 C39.5455594,4.30625306 39.2870816,4.36549729 39.0431701,4.48398574 C38.7993165,4.60241477 38.5863944,4.76119168 38.4045779,4.96019761 C38.2227613,5.15896585 38.0780277,5.39398182 37.970551,5.66494839 C37.8630164,5.93591496 37.8093361,6.22363868 37.8093361,6.52841665 C37.8093361,6.83319462 37.8630164,7.12091834 37.970551,7.39188491 C38.0780277,7.6629109 38.2227613,7.89762976 38.4045779,8.09663569 C38.5863944,8.29570104 38.7993165,8.45441852 39.0431701,8.57290698 C39.2870816,8.69133601 39.5455594,8.75058023 39.8183713,8.75058023 L39.8183713,8.75058023 Z M46.0126113,9.57619637 L47.0666598,9.57619637 L47.0666598,0.66169324 L46.0126113,0.66169324 L46.0126113,9.57619637 Z M49.94961,9.57619637 L51.0037746,9.57619637 L51.0037746,3.48069635 L49.94961,3.48069635 L49.94961,9.57619637 Z M51.1649896,1.740984 C51.1649896,1.93571151 51.0988903,2.10280756 50.9666337,2.24262869 C50.834319,2.38215271 50.6731041,2.45221183 50.4829308,2.45221183 C50.2927576,2.45221183 50.1295115,2.38215271 49.9930185,2.24262869 C49.8565835,2.10280756 49.7885111,1.93571151 49.7885111,1.740984 C49.7885111,1.54625649 49.8565835,1.38129964 49.9930185,1.24581636 C50.1295115,1.11033307 50.2927576,1.04241316 50.4829308,1.04241316 C50.6731041,1.04241316 50.834319,1.11033307 50.9666337,1.24581636 C51.0988903,1.38129964 51.1649896,1.54625649 51.1649896,1.740984 L51.1649896,1.740984 Z M59.6410186,3.48069635 L59.6410186,9.57619637 L58.574551,9.57619637 L58.574551,8.86496854 C58.3099218,9.16130851 58.000027,9.39198663 57.6444024,9.5570029 C57.2888938,9.72219743 56.904485,9.80473528 56.4910598,9.80473528 C56.0777507,9.80473528 55.6911366,9.72005822 55.3314497,9.55076354 C54.9718789,9.38140943 54.6577477,9.14865152 54.3889981,8.85225212 C54.1202485,8.55585272 53.9073844,8.20888478 53.7502898,7.8111106 C53.5932533,7.41303932 53.5146769,6.98543505 53.5146769,6.52841665 C53.5146769,6.07977682 53.5932533,5.6562727 53.7502898,5.25849853 C53.9073844,4.86066493 54.1202485,4.5134593 54.3889981,4.21729759 C54.6577477,3.92095761 54.9718789,3.68594165 55.3314497,3.51254681 C55.6911366,3.33897371 56.0777507,3.25215744 56.4910598,3.25215744 C56.904485,3.25215744 57.2888938,3.33463586 57.6444024,3.4998304 C58.000027,3.66478724 58.3099218,3.89552479 58.574551,4.19186476 L58.574551,3.48069635 L59.6410186,3.48069635 Z M56.5779348,8.75058023 C56.8507467,8.75058023 57.1090504,8.69133601 57.3529039,8.57290698 C57.5969316,8.45441852 57.8096796,8.29570104 57.9916702,8.09663569 C58.1735448,7.89762976 58.3161313,7.6629109 58.4195456,7.39188491 C58.5229019,7.12091834 58.574551,6.83319462 58.574551,6.52841665 C58.574551,6.22363868 58.5229019,5.93591496 58.4195456,5.66494839 C58.3161313,5.39398182 58.1735448,5.15896585 57.9916702,4.96019761 C57.8096796,4.76119168 57.5969316,4.60241477 57.3529039,4.48398574 C57.1090504,4.36549729 56.8507467,4.30625306 56.5779348,4.30625306 C56.3050069,4.30625306 56.0466451,4.36549729 55.8027335,4.48398574 C55.55888,4.60241477 55.3459579,4.76119168 55.1640253,4.96019761 C54.9822087,5.15896585 54.837417,5.39398182 54.7301145,5.66494839 C54.6225799,5.93591496 54.5687835,6.22363868 54.5687835,6.52841665 C54.5687835,6.83319462 54.6225799,7.12091834 54.7301145,7.39188491 C54.837417,7.6629109 54.9822087,7.89762976 55.1640253,8.09663569 C55.3459579,8.29570104 55.55888,8.45441852 55.8027335,8.57290698 C56.0466451,8.69133601 56.3050069,8.75058023 56.5779348,8.75058023 L56.5779348,8.75058023 Z M68.0055087,5.30930476 C68.0221061,5.40236039 68.0345251,5.48483881 68.0427077,5.55703714 C68.0511224,5.62893836 68.0551267,5.69471906 68.0551267,5.75390386 L68.0551267,5.93157712 L68.0551267,9.57619637 L67.0010781,9.57619637 L67.0010781,5.98238335 C67.0010781,5.84695949 66.9865119,5.68170553 66.9576116,5.48697802 C66.9285952,5.29230993 66.8647012,5.10619868 66.7654072,4.92828773 C66.6662293,4.75061447 66.5173753,4.59807693 66.3188453,4.47126933 C66.1204894,4.34416461 65.8559182,4.28087966 65.5251896,4.28087966 C65.1283038,4.28087966 64.8120254,4.3420254 64.5764705,4.46473286 C64.3408576,4.58755915 64.158983,4.73575885 64.0307887,4.90939138 C63.9025944,5.08296448 63.8179246,5.25635932 63.7766053,5.42993242 C63.7351699,5.60350553 63.710448,5.74118745 63.7020913,5.84262165 L63.7020913,9.57619637 L62.6479267,9.57619637 L62.6479267,3.48069635 L63.7020913,3.48069635 L63.7020913,4.02667023 C63.710448,4.02667023 63.7538565,3.98448026 63.8324908,3.8998032 C63.9108931,3.81518557 64.0266684,3.7262301 64.1796427,3.63317447 C64.3325589,3.53994058 64.5226742,3.45336201 64.7501044,3.37272568 C64.9774767,3.29244589 65.2399587,3.25215744 65.5374926,3.25215744 C65.9922951,3.25215744 66.3705525,3.32191945 66.6723807,3.46168116 C66.9740929,3.60126459 67.2180045,3.77489712 67.4040574,3.98228163 C67.5900523,4.18972555 67.7285185,4.41392662 67.8195718,4.65541964 C67.9106252,4.89667496 67.97243,5.11463667 68.0055087,5.30930476 L68.0055087,5.30930476 Z M76.1220249,4.3314482 C76.7504034,4.49236431 77.2609173,4.68703241 77.6536249,4.91557132 C78.0462743,5.14434792 78.354196,5.38768303 78.577622,5.64575492 C78.8008159,5.90400508 78.951643,6.16445387 79.0301033,6.42674476 C79.1087376,6.68933276 79.1481999,6.93896666 79.1481999,7.17606241 C79.1481999,7.54008461 79.0654452,7.88087261 78.8998778,8.19830758 C78.7346006,8.51580196 78.5092595,8.79300789 78.2240866,9.02992538 C77.9387977,9.26708055 77.6040069,9.4555687 77.2196561,9.59509272 C76.8351892,9.73491385 76.4239692,9.80473528 75.9857641,9.80473528 C75.5805215,9.80473528 75.1960546,9.74543163 74.8321313,9.62676491 C74.4684982,9.50827646 74.1480995,9.34331961 73.8710512,9.13159727 C73.5942931,8.91987492 73.3647737,8.67238023 73.182841,8.38869725 C73.0007924,8.10507368 72.8893695,7.79839419 72.8479341,7.46812397 L73.8772027,7.25206378 C73.993036,7.64151881 74.2389788,7.96982809 74.6153211,8.23621913 C74.9913732,8.50308555 75.4482649,8.63642962 75.9857641,8.63642962 C76.258576,8.63642962 76.5168797,8.5983398 76.7606752,8.52210074 C77.0046448,8.44574284 77.2175669,8.34003022 77.3994995,8.20454694 C77.5812,8.06912307 77.7237864,7.91468401 77.8273749,7.74105148 C77.9306731,7.56765665 77.9823223,7.3791685 77.9823223,7.17606241 C77.9823223,6.3972712 77.2714213,5.8258645 75.849155,5.4618423 C75.5104179,5.37722467 75.1670383,5.27959352 74.8197704,5.16978075 C74.4727346,5.05943317 74.1605765,4.91343211 73.8834122,4.73142101 C73.606422,4.54940991 73.3790497,4.31873179 73.2012955,4.03938664 C73.0235992,3.7600415 72.9348672,3.40445729 72.9348672,2.9728123 C72.9348672,2.6087901 73.0050287,2.27210225 73.145584,1.96328355 C73.2860813,1.65416773 73.4846693,1.38967821 73.7408258,1.1695773 C73.9973305,0.949416956 74.3071092,0.775784428 74.6710905,0.648976826 C75.0346656,0.521872111 75.4359039,0.458587155 75.873993,0.458587155 C76.2625222,0.458587155 76.6265035,0.517771959 76.9652986,0.636319835 C77.3044419,0.754748865 77.6020338,0.917804189 77.8582483,1.12518869 C78.1146949,1.3325732 78.3233806,1.57792867 78.4846536,1.86161166 C78.6458685,2.14529465 78.7469616,2.45625256 78.788455,2.79513904 L77.7589543,3.02361853 C77.668133,2.61716867 77.4613044,2.28267945 77.1390486,2.02038856 C76.8165607,1.75797883 76.3948368,1.62665512 75.873993,1.62665512 C75.3199545,1.62665512 74.8879008,1.75370041 74.578006,2.00767215 C74.2679951,2.26158447 74.1129317,2.58335727 74.1129317,2.9728123 C74.1129317,3.12505273 74.1399169,3.26273465 74.1935391,3.3854421 C74.2471614,3.50826839 74.3464554,3.62045806 74.491189,3.72189226 C74.6359227,3.82356414 74.8384569,3.92309682 75.0988498,4.02043087 C75.3593007,4.11776491 75.700243,4.22139774 76.1220249,4.3314482 L76.1220249,4.3314482 Z M84.337603,9.66491415 C84.312765,9.67353041 84.2467818,9.6946254 84.1392472,9.7284368 C84.0317705,9.76224819 83.8973667,9.78548239 83.7363259,9.7981988 C83.575111,9.81091522 83.3971826,9.80033801 83.2030051,9.76658604 C83.0086534,9.73277464 82.8205693,9.65219774 82.6386948,9.52533071 C82.0848884,9.14431368 81.807724,8.4289857 81.807724,7.3791685 L81.807724,4.53479198 L81.0513834,4.53479198 L81.0513834,3.48069635 L81.807724,3.48069635 L81.807724,0.66169324 L82.8370506,0.66169324 L82.8370506,3.48069635 L84.0772682,3.48069635 L84.0772682,4.53479198 L82.8370506,4.53479198 L82.8370506,7.3791685 C82.8370506,8.04796867 82.9611246,8.47117567 83.2091565,8.64914604 C83.2836125,8.70001169 83.364162,8.72948525 83.451037,8.73786382 C83.5377379,8.74648008 83.6184034,8.74861929 83.6926853,8.74434087 C83.7671413,8.74006245 83.8313835,8.72948525 83.8850058,8.71272811 C83.9388601,8.69561443 83.9657293,8.68729528 83.9657293,8.68729528 L84.337603,9.66491415 Z M86.5137145,7.74746911 C86.4806359,7.58661242 86.4640965,7.43841272 86.4640965,7.30292944 L86.4640965,7.12525618 L86.4640965,3.48069635 L87.5183192,3.48069635 L87.5183192,7.07439052 C87.5183192,7.2183118 87.5328274,7.38760649 87.5617277,7.58227458 C87.590744,7.77700209 87.6546381,7.96329161 87.7539321,8.14096487 C87.8532261,8.31899466 87.9997587,8.47117567 88.1941684,8.5983398 C88.3885781,8.72520683 88.6510601,8.78872948 88.9816726,8.78872948 C89.3783844,8.78872948 89.6966939,8.72520683 89.9364852,8.5983398 C90.1763345,8.47117567 90.3582671,8.32303539 90.482167,8.15368128 C90.606241,7.98444602 90.6888796,7.8111106 90.730373,7.63314023 C90.7716343,7.45540756 90.7964723,7.31564585 90.804829,7.21421165 L90.804829,3.48069635 L91.8712965,3.48069635 L91.8712965,9.57619637 L90.804829,9.57619637 L90.804829,9.02992538 C90.804829,9.02992538 90.7655408,9.07235304 90.6868484,9.15703009 C90.6084462,9.24164772 90.4926709,9.3306032 90.3398127,9.42365882 C90.1866643,9.51695214 89.996491,9.60353071 89.7693509,9.68404819 C89.5419787,9.76444683 89.2751441,9.80473528 88.9693116,9.80473528 C88.5145671,9.80473528 88.1383989,9.73491385 87.840749,9.59509272 C87.5430992,9.4555687 87.3012187,9.2819956 87.1153399,9.07449225 C86.9291128,8.86710774 86.7907048,8.64266899 86.6998255,8.40141366 C86.6088302,8.16021776 86.5466771,7.94225605 86.5137145,7.74746911 L86.5137145,7.74746911 Z M100.508424,0.674409653 L100.508424,9.57619637 L99.4544339,9.57619637 L99.4544339,8.87768495 C99.181622,9.17402493 98.8673167,9.40256384 98.5118662,9.56347995 C98.1562997,9.72409895 97.7718328,9.80473528 97.3584657,9.80473528 C96.9450985,9.80473528 96.5587165,9.72005822 96.1990877,9.55076354 C95.8392847,9.38140943 95.5253276,9.14865152 95.256462,8.85225212 C94.9878285,8.55585272 94.7749644,8.20888478 94.6177537,7.8111106 C94.4606591,7.41303932 94.3822569,6.98977289 94.3822569,6.54113306 C94.3822569,6.08381755 94.4606591,5.6562727 94.6177537,5.25849853 C94.7749644,4.86066493 94.9878285,4.5134593 95.256462,4.21729759 C95.5253276,3.92095761 95.8392847,3.68594165 96.1990877,3.51254681 C96.5587165,3.33897371 96.9450985,3.25215744 97.3584657,3.25215744 C97.7718328,3.25215744 98.1562997,3.3368345 98.5118662,3.50606976 C98.8673167,3.67536444 99.181622,3.9082412 99.4544339,4.20458118 L99.4544339,0.674409653 L100.508424,0.674409653 Z M97.4453987,8.75058023 C97.7182106,8.75058023 97.9765143,8.69347522 98.2204839,8.57914634 C98.4645115,8.46499573 98.6771435,8.30841746 98.8591341,8.1093521 C99.0410668,7.91034617 99.1858004,7.6755679 99.293277,7.40460132 C99.4008117,7.13363475 99.4544339,6.84591103 99.4544339,6.54113306 C99.4544339,6.23635509 99.4008117,5.94833426 99.293277,5.67760538 C99.1858004,5.40669823 99.0410668,5.16978075 98.8591341,4.96643697 C98.6771435,4.76333089 98.4645115,4.60241477 98.2204839,4.48398574 C97.9765143,4.36549729 97.7182106,4.30625306 97.4453987,4.30625306 C97.1725868,4.30625306 96.9142831,4.36549729 96.6702555,4.48398574 C96.4264019,4.60241477 96.2135959,4.76333089 96.0316633,4.96643697 C95.8496146,5.16978075 95.7070281,5.40669823 95.6037879,5.67760538 C95.5004896,5.94833426 95.4487244,6.23635509 95.4487244,6.54113306 C95.4487244,6.84591103 95.5004896,7.13363475 95.6037879,7.40460132 C95.7070281,7.6755679 95.8496146,7.91034617 96.0316633,8.1093521 C96.2135959,8.30841746 96.4264019,8.46499573 96.6702555,8.57914634 C96.9142831,8.69347522 97.1725868,8.75058023 97.4453987,8.75058023 L97.4453987,8.75058023 Z M104.073491,6.82047821 C104.106686,7.09144478 104.178995,7.34541652 104.290534,7.58227458 C104.402189,7.81942975 104.542744,8.02253584 104.712316,8.19183052 C104.881655,8.36118463 105.076239,8.49666792 105.295255,8.5983398 C105.514328,8.70001169 105.747852,8.75058023 105.995826,8.75058023 C106.37623,8.75058023 106.721351,8.65752461 107.031478,8.47117567 C107.341431,8.28512384 107.59161,8.03525225 107.781667,7.72209571 L108.649895,8.29356183 C108.368842,8.75058023 107.996678,9.11668222 107.533693,9.39198663 C107.070766,9.66705336 106.558105,9.80473528 105.995826,9.80473528 C105.607413,9.80473528 105.241516,9.7284368 104.898195,9.57619637 C104.555221,9.42365882 104.25142,9.21407569 103.98679,8.94744696 C103.722219,8.6807588 103.505061,8.36546305 103.335721,8.00144085 C103.166266,7.63747808 103.064824,7.24374463 103.031862,6.82047821 C103.031862,6.77805055 103.029715,6.73152273 103.02571,6.68065708 C103.021532,6.62985085 103.019385,6.57922288 103.019385,6.52841665 C103.019385,6.25745008 103.048401,6.00353776 103.106318,5.76638259 C103.180542,5.41097665 103.308852,5.07862664 103.490553,4.76957025 C103.672485,4.46069213 103.889644,4.19406339 104.141854,3.96956521 C104.394006,3.74542357 104.679295,3.56965183 104.997605,3.44254711 C105.31574,3.31568009 105.648558,3.25215744 105.995826,3.25215744 C106.343094,3.25215744 106.675911,3.31568009 106.994163,3.44254711 C107.312414,3.56965183 107.597703,3.74542357 107.849914,3.96956521 C108.102124,4.19406339 108.319166,4.46069213 108.500867,4.76957025 C108.682915,5.07862664 108.810994,5.41097665 108.88545,5.76638259 C108.94325,6.00353776 108.972383,6.25745008 108.972383,6.52841665 L108.972383,6.68065708 C108.972383,6.73152273 108.968088,6.77805055 108.959906,6.82047821 L104.073491,6.82047821 Z M107.818982,5.76638259 C107.678427,5.33473759 107.444729,4.98343181 107.118295,4.71246523 C106.791629,4.44155808 106.417608,4.30625306 105.995826,4.30625306 C105.574276,4.30625306 105.200139,4.44155808 104.873357,4.71246523 C104.546922,4.98343181 104.313225,5.33473759 104.172785,5.76638259 L107.818982,5.76638259 Z M116.840693,5.30930476 C116.857232,5.40236039 116.869709,5.48483881 116.877892,5.55703714 C116.886133,5.62893836 116.890311,5.69471906 116.890311,5.75390386 L116.890311,5.93157712 L116.890311,9.57619637 L115.836204,9.57619637 L115.836204,5.98238335 C115.836204,5.84695949 115.821696,5.68170553 115.792912,5.48697802 C115.763896,5.29230993 115.699769,5.10619868 115.600707,4.92828773 C115.501413,4.75061447 115.352443,4.59807693 115.154088,4.47126933 C114.955732,4.34416461 114.691102,4.28087966 114.36049,4.28087966 C113.963546,4.28087966 113.647326,4.3420254 113.411771,4.46473286 C113.1761,4.58755915 112.994225,4.73575885 112.866147,4.90939138 C112.737721,5.08296448 112.653283,5.25635932 112.61179,5.42993242 C112.570296,5.60350553 112.54569,5.74118745 112.537334,5.84262165 L112.537334,9.57619637 L111.483227,9.57619637 L111.483227,3.48069635 L112.537334,3.48069635 L112.537334,4.02667023 C112.54569,4.02667023 112.589099,3.98448026 112.667559,3.8998032 C112.746193,3.81518557 112.861911,3.7262301 113.014827,3.63317447 C113.167743,3.53994058 113.357916,3.45336201 113.585289,3.37272568 C113.812661,3.29244589 114.075201,3.25215744 114.372851,3.25215744 C114.827595,3.25215744 115.205795,3.32191945 115.507623,3.46168116 C115.809335,3.60126459 116.053073,3.77489712 116.2393,3.98228163 C116.425179,4.18972555 116.563877,4.41392662 116.654698,4.65541964 C116.745809,4.89667496 116.807614,5.11463667 116.840693,5.30930476 L116.840693,5.30930476 Z M122.563591,9.66491415 C122.538753,9.67353041 122.472828,9.6946254 122.365235,9.7284368 C122.257816,9.76224819 122.123355,9.78548239 121.962198,9.7981988 C121.800925,9.81091522 121.623171,9.80033801 121.428993,9.76658604 C121.234641,9.73277464 121.046615,9.65219774 120.864683,9.52533071 C120.31076,9.14431368 120.033712,8.4289857 120.033712,7.3791685 L120.033712,4.53479198 L119.277371,4.53479198 L119.277371,3.48069635 L120.033712,3.48069635 L120.033712,0.66169324 L121.063039,0.66169324 L121.063039,3.48069635 L122.303256,3.48069635 L122.303256,4.53479198 L121.063039,4.53479198 L121.063039,7.3791685 C121.063039,8.04796867 121.187113,8.47117567 121.435144,8.64914604 C121.5096,8.70001169 121.590092,8.72948525 121.677025,8.73786382 C121.76361,8.74648008 121.844449,8.74861929 121.918673,8.74434087 C121.993129,8.74006245 122.057313,8.72948525 122.110878,8.71272811 C122.164848,8.69561443 122.191717,8.68729528 122.191717,8.68729528 L122.563591,9.66491415 Z M125.595337,3.07448419 L124.937942,2.76970621 L125.905464,0.0139880551 L126.971932,0.496439284 L125.595337,3.07448419 Z M131.144833,5.85533806 C131.368027,5.90614429 131.624184,5.96966694 131.913651,6.04572773 C132.20306,6.12196679 132.477787,6.23421588 132.738122,6.38241558 C132.998863,6.53055586 133.219852,6.72718489 133.4019,6.97271864 C133.583833,7.2183118 133.674712,7.53146835 133.674712,7.91248538 C133.674712,8.50522476 133.441247,8.96854194 132.974025,9.30303116 C132.506804,9.6375798 131.859971,9.80473528 131.03312,9.80473528 C130.73547,9.80473528 130.454476,9.77276598 130.189789,9.70948102 C129.925159,9.64595837 129.685426,9.55480427 129.470415,9.43637524 C129.255636,9.31788678 129.065288,9.18026429 128.899953,9.02368602 C128.73456,8.86710774 128.61066,8.69133601 128.528079,8.49666792 L129.470415,8.15368128 C129.586364,8.3145974 129.78472,8.45441852 130.065715,8.57290698 C130.346883,8.69133601 130.669371,8.75058023 131.03312,8.75058023 C131.156962,8.75058023 131.305932,8.74220166 131.479682,8.72520683 C131.6532,8.70833084 131.820625,8.67024102 131.981781,8.61105622 C132.143112,8.55181199 132.281462,8.46713494 132.39718,8.35708448 C132.512955,8.24703402 132.570988,8.09883432 132.570988,7.91248538 C132.570988,7.82786775 132.558627,7.74319069 132.533789,7.65851364 C132.508951,7.57395543 132.444825,7.48927838 132.34141,7.40460132 C132.23817,7.31998369 132.076897,7.23530664 131.857882,7.15062958 C131.638692,7.06607137 131.330712,6.98139432 130.933826,6.89671727 C130.660956,6.83729477 130.385997,6.77175176 130.109239,6.69990997 C129.832191,6.62794933 129.584217,6.52413823 129.364969,6.38859552 C129.146012,6.25317166 128.966226,6.08191603 128.825671,5.87453153 C128.684942,5.6670876 128.614896,5.40236039 128.614896,5.08076585 C128.614896,4.53883271 128.821493,4.09886856 129.234744,3.7600415 C129.648343,3.42145213 130.218573,3.25215744 130.946245,3.25215744 C131.227472,3.25215744 131.498137,3.28186869 131.758646,3.34111292 C132.01898,3.40035714 132.256682,3.48711398 132.471694,3.60126459 C132.686705,3.7156529 132.874731,3.85113618 133.036004,4.00771445 C133.197219,4.16435215 133.314967,4.34012389 133.389423,4.53479198 L132.446856,4.8774815 C132.347794,4.70818681 132.172013,4.57074258 131.919686,4.46473286 C131.667708,4.35902024 131.380388,4.30625306 131.0579,4.30625306 C130.636176,4.30625306 130.307595,4.37797601 130.07204,4.52207556 C129.836369,4.66593742 129.718621,4.85228636 129.718621,5.08076585 C129.718621,5.15682664 129.728951,5.22682634 129.749552,5.29040841 C129.770212,5.35369337 129.825865,5.41501738 129.916977,5.47432103 C130.007914,5.53380294 130.1505,5.59494869 130.344852,5.65847134 C130.539262,5.72199398 130.805748,5.78771526 131.144833,5.85533806 L131.144833,5.85533806 Z M143.142985,8.63642962 C143.738285,8.63642962 144.288145,8.49036913 144.792275,8.19830758 C145.296812,7.90624602 145.70188,7.51875193 146.007713,7.03630071 L146.962758,7.67123005 C146.76417,7.99306228 146.528499,8.28512384 146.255687,8.54747415 C145.982875,8.81000273 145.681279,9.03426322 145.350376,9.22055274 C145.019648,9.40660457 144.668434,9.55076354 144.29627,9.65219774 C143.924164,9.75386962 143.539929,9.80473528 143.142985,9.80473528 C142.514607,9.80473528 141.923543,9.68190898 141.369505,9.43637524 C140.815698,9.19078207 140.331821,8.85653054 139.918454,8.43308585 C139.505203,8.00981942 139.178421,7.51465178 138.93892,6.9475235 C138.69907,6.38027637 138.579175,5.77499885 138.579175,5.13163151 C138.579175,4.48826416 138.69907,3.88280837 138.93892,3.31568009 C139.178421,2.74837354 139.505203,2.25314647 139.918454,1.82993947 C140.331821,1.40667305 140.815698,1.07218383 141.369505,0.826650083 C141.923543,0.581116338 142.514607,0.458587155 143.142985,0.458587155 C143.945055,0.458587155 144.680853,0.651175458 145.350376,1.03623322 C146.02019,1.42129098 146.557515,1.93571151 146.962758,2.57907885 L146.007713,3.22672462 C145.70188,2.74427339 145.296812,2.35701699 144.792275,2.06495544 C144.288145,1.77265619 143.738285,1.62665512 143.142985,1.62665512 C142.671817,1.62665512 142.231465,1.7177498 141.822218,1.89970148 C141.412797,2.081772 141.0534,2.33158417 140.743273,2.64907855 C140.433263,2.96627582 140.189235,3.33897371 140.011481,3.76645913 C139.833668,4.19406339 139.744936,4.64894259 139.744936,5.13163151 C139.744936,5.61408273 139.833668,6.06919962 140.011481,6.49680388 C140.189235,6.92405161 140.433263,7.29669007 140.743273,7.61418446 C141.0534,7.93167884 141.412797,8.18131274 141.822218,8.36332384 C142.231465,8.54527552 142.671817,8.63642962 143.142985,8.63642962 L143.142985,8.63642962 Z M155.079042,5.29658835 C155.095697,5.38964397 155.108058,5.47236009 155.116241,5.54432073 C155.124481,5.61622194 155.128718,5.68170553 155.128718,5.74118745 L155.128718,5.91886071 L155.128718,9.57619637 L154.074611,9.57619637 L154.074611,5.96966694 C154.074611,5.83424307 154.060103,5.66928623 154.031087,5.47432103 C154.002244,5.27959352 153.938118,5.09348226 153.839056,4.91557132 C153.739762,4.73789806 153.592881,4.58541994 153.39882,4.45855292 C153.20441,4.3314482 152.941928,4.26816324 152.6112,4.26816324 C152.214256,4.26816324 151.896004,4.32954668 151.656271,4.45231355 C151.416422,4.57484274 151.234721,4.72304244 151.110589,4.89667496 C150.986515,5.07024807 150.903761,5.24578212 150.862615,5.42345537 C150.821122,5.60136632 150.796284,5.74118745 150.788159,5.84262165 L150.788159,9.57619637 L149.721692,9.57619637 L149.721692,0.66169324 L150.788159,0.66169324 L150.788159,4.02667023 C150.788159,4.01829166 150.827448,3.97396248 150.905908,3.89332615 C150.984368,3.81298694 151.100318,3.72403147 151.253176,3.62669742 C151.406092,3.52936338 151.596265,3.4404079 151.823638,3.36000927 C152.05101,3.27972948 152.317496,3.23944103 152.623677,3.23944103 C153.078421,3.23944103 153.454473,3.30920304 153.752123,3.44902417 C154.049773,3.58854818 154.29177,3.76218071 154.477649,3.96956521 C154.663643,4.17700914 154.802052,4.40150732 154.893047,4.64270322 C154.983926,4.88395855 155.046079,5.10192026 155.079042,5.29658835 L155.079042,5.29658835 Z M160.727484,9.80473528 C160.281154,9.80473528 159.863667,9.72005822 159.475137,9.55076354 C159.086376,9.38140943 158.747581,9.14865152 158.458114,8.85225212 C158.168588,8.55585272 157.939301,8.20888478 157.769846,7.8111106 C157.600274,7.41303932 157.515488,6.98543505 157.515488,6.52841665 C157.515488,6.07977682 157.600274,5.6562727 157.769846,5.25849853 C157.939301,4.86066493 158.168588,4.5134593 158.458114,4.21729759 C158.747581,3.92095761 159.086376,3.68594165 159.475137,3.51254681 C159.863667,3.33897371 160.281154,3.25215744 160.727484,3.25215744 C161.165689,3.25215744 161.579288,3.33897371 161.967817,3.51254681 C162.356289,3.68594165 162.695374,3.92095761 162.984667,4.21729759 C163.274018,4.5134593 163.503538,4.86066493 163.672877,5.25849853 C163.842449,5.6562727 163.927235,6.07977682 163.927235,6.52841665 C163.927235,6.98543505 163.842449,7.41303932 163.672877,7.8111106 C163.503538,8.20888478 163.274018,8.55585272 162.984667,8.85225212 C162.695374,9.14865152 162.356289,9.38140943 161.967817,9.55076354 C161.579288,9.72005822 161.165689,9.80473528 160.727484,9.80473528 L160.727484,9.80473528 Z M160.727484,4.30625306 C160.429834,4.30625306 160.148839,4.36335808 159.88421,4.47744927 C159.619639,4.59189699 159.392267,4.75061447 159.202093,4.95372056 C159.01192,5.15682664 158.861151,5.39398182 158.749612,5.66494839 C158.637957,5.93591496 158.582188,6.22363868 158.582188,6.52841665 C158.582188,6.83319462 158.637957,7.12091834 158.749612,7.39188491 C158.861151,7.6629109 159.01192,7.89762976 159.202093,8.09663569 C159.392267,8.29570104 159.619639,8.45227931 159.88421,8.56666762 C160.148839,8.6807588 160.429834,8.73786382 160.727484,8.73786382 C161.025134,8.73786382 161.304329,8.6807588 161.56478,8.56666762 C161.825115,8.45227931 162.052603,8.29570104 162.246665,8.09663569 C162.441016,7.89762976 162.593933,7.6629109 162.705704,7.39188491 C162.817127,7.12091834 162.873128,6.83319462 162.873128,6.52841665 C162.873128,6.22363868 162.817127,5.93591496 162.705704,5.66494839 C162.593933,5.39398182 162.441016,5.15682664 162.246665,4.95372056 C162.052603,4.75061447 161.825115,4.59189699 161.56478,4.47744927 C161.304329,4.36335808 161.025134,4.30625306 160.727484,4.30625306 L160.727484,4.30625306 Z M166.438021,9.57619637 L167.49236,9.57619637 L167.49236,3.48069635 L166.438021,3.48069635 L166.438021,9.57619637 Z M167.653575,1.740984 C167.653575,1.93571151 167.587475,2.10280756 167.455219,2.24262869 C167.322846,2.38215271 167.161747,2.45221183 166.971342,2.45221183 C166.781169,2.45221183 166.617922,2.38215271 166.481662,2.24262869 C166.345111,2.10280756 166.27698,1.93571151 166.27698,1.740984 C166.27698,1.54625649 166.345111,1.38129964 166.481662,1.24581636 C166.617922,1.11033307 166.781169,1.04241316 166.971342,1.04241316 C167.161747,1.04241316 167.322846,1.11033307 167.455219,1.24581636 C167.587475,1.38129964 167.653575,1.54625649 167.653575,1.740984 L167.653575,1.740984 Z M173.2152,4.30625306 C172.91755,4.30625306 172.636439,4.36549729 172.371868,4.48398574 C172.107239,4.60241477 171.880099,4.75899305 171.689925,4.95372056 C171.499694,5.14838865 171.348751,5.3812654 171.237212,5.65223198 C171.125557,5.92319855 171.069788,6.21092226 171.069788,6.51570024 C171.069788,6.82047821 171.125557,7.10826135 171.237212,7.3791685 C171.348751,7.65019449 171.499694,7.88705255 171.689925,8.09015864 C171.880099,8.29356183 172.107239,8.45441852 172.371868,8.57290698 C172.636439,8.69133601 172.91755,8.75058023 173.2152,8.75058023 C173.603845,8.75058023 173.953086,8.6553854 174.263039,8.46499573 C174.573166,8.27460606 174.823345,8.0269331 175.013402,7.72209571 L175.893991,8.30627825 C175.604523,8.76329665 175.226266,9.12725942 174.759045,9.39828542 C174.292171,9.66919257 173.777363,9.80473528 173.2152,9.80473528 C172.768812,9.80473528 172.351266,9.71791901 171.962737,9.54428649 C171.573918,9.37095107 171.235181,9.13593511 170.945656,8.83953571 C170.656188,8.54313631 170.426901,8.19616837 170.257445,7.79839419 C170.087874,7.4003229 170.00332,6.97271864 170.00332,6.51570024 C170.00332,6.06706041 170.087874,5.6438534 170.257445,5.24578212 C170.426901,4.84794852 170.656188,4.5028821 170.945656,4.21082054 C171.235181,3.91875898 171.573918,3.68594165 171.962737,3.51254681 C172.351266,3.33897371 172.768812,3.25215744 173.2152,3.25215744 C173.777363,3.25215744 174.292171,3.38764073 174.759045,3.6586073 C175.226266,3.92933618 175.604523,4.29335838 175.893991,4.75061447 L175.025879,5.33473759 C174.835706,5.02152162 174.583496,4.77170946 174.269422,4.58541994 C173.955117,4.39930869 173.603845,4.30625306 173.2152,4.30625306 L173.2152,4.30625306 Z M178.838804,6.82047821 C178.871999,7.09144478 178.944423,7.34541652 179.055846,7.58227458 C179.167617,7.81942975 179.308173,8.02253584 179.477628,8.19183052 C179.646968,8.36118463 179.841319,8.49666792 180.060567,8.5983398 C180.279524,8.70001169 180.51328,8.75058023 180.761254,8.75058023 C181.141543,8.75058023 181.486779,8.65752461 181.79679,8.47117567 C182.106859,8.28512384 182.356922,8.03525225 182.547096,7.72209571 L183.415033,8.29356183 C183.134039,8.75058023 182.762165,9.11668222 182.299122,9.39198663 C181.835904,9.66705336 181.323243,9.80473528 180.761254,9.80473528 C180.372493,9.80473528 180.006713,9.7284368 179.663623,9.57619637 C179.320534,9.42365882 179.016558,9.21407569 178.752219,8.94744696 C178.487532,8.6807588 178.270489,8.36546305 178.100918,8.00144085 C177.931578,7.63747808 177.830137,7.24374463 177.797174,6.82047821 C177.797174,6.77805055 177.795027,6.73152273 177.791023,6.68065708 C177.786844,6.62985085 177.784813,6.57922288 177.784813,6.52841665 C177.784813,6.25745008 177.81383,6.00353776 177.87163,5.76638259 C177.945854,5.41097665 178.074165,5.07862664 178.255981,4.76957025 C178.437914,4.46069213 178.654956,4.19406339 178.907166,3.96956521 C179.159435,3.74542357 179.444608,3.56965183 179.762917,3.44254711 C180.081169,3.31568009 180.413986,3.25215744 180.761254,3.25215744 C181.108522,3.25215744 181.44134,3.31568009 181.759591,3.44254711 C182.077785,3.56965183 182.363074,3.74542357 182.615226,3.96956521 C182.867436,4.19406339 183.084363,4.46069213 183.266295,4.76957025 C183.448228,5.07862664 183.576306,5.41097665 183.650762,5.76638259 C183.708679,6.00353776 183.737695,6.25745008 183.737695,6.52841665 L183.737695,6.68065708 C183.737695,6.73152273 183.733517,6.77805055 183.724986,6.82047821 L178.838804,6.82047821 Z M182.584295,5.76638259 C182.443623,5.33473759 182.210157,4.98343181 181.883491,4.71246523 C181.556941,4.44155808 181.182804,4.30625306 180.761254,4.30625306 C180.339472,4.30625306 179.965451,4.44155808 179.638785,4.71246523 C179.312351,4.98343181 179.078653,5.33473759 178.938098,5.76638259 L182.584295,5.76638259 Z" id="Fill-8" fill="#B42F00" mask="url(#mask-4)"></path>
                        </g>
                        <g id="Group-13" transform="translate(7.834419, 0.007725)">
                            <mask id="mask-6" fill="white">
                                <use xlink:href="#path-5"></use>
                            </mask>
                            <g id="Clip-12"></g>
                            <path d="M53.0093627,15.1410119 L53.0093627,48.1153263 L54.8466791,55.3843612 L52.3386784,55.3843612 L52.0041777,55.3843612 L49.496061,55.3843612 L51.3333193,48.1153263 L51.3333193,15.8411872 L37.836182,21.4811543 L37.836182,26.7134238 C34.7812229,25.5482081 31.0381695,24.9879134 26.5055809,25.2146102 C21.9682335,24.9879134 18.2270953,25.5265783 15.1753279,26.655784 L15.1753279,21.4809166 L0.00278557124,15.1408931 L26.5061612,0.0517391655 L53.0093627,15.1408931 L53.0091306,15.1410119 L53.0093627,15.1410119 Z" id="Fill-11" fill="#E0481B" mask="url(#mask-6)"></path>
                        </g>
                        <g id="Group-16" transform="translate(261.843697, 38.216389)">
                            <mask id="mask-8" fill="white">
                                <use xlink:href="#path-7"></use>
                            </mask>
                            <g id="Clip-15"></g>
                            <polygon id="Fill-14" fill="#000000" mask="url(#mask-8)" points="21.1765625 0.0442757003 25.921435 0.0442757003 8.54196582 41.2483678 3.84723369 41.2483678 10.5922623 25.1900331 0.00767192746 0.0442757003 4.70014078 0.0442757003 12.9382936 19.5841744"></polygon>
                        </g>
                    </g>
                </g>
            </g>
        </g>
    </g>
</svg>