<?xml version="1.0" encoding="UTF-8"?>
<svg width="191px" height="49px" viewBox="0 0 191 49" version="1.1" xmlns="http://www.w3.org/2000/svg" xmlns:xlink="http://www.w3.org/1999/xlink">
    <!-- Generator: Sketch 50.2 (55047) - http://www.bohemiancoding.com/sketch -->
    <title>Group 21</title>
    <desc>Created with Sketch.</desc>
    <defs>
        <polygon id="path-1" points="7.56397098e-22 0.0138162501 7.56397098e-22 37.6005287 44.035967 37.6005287 44.035967 0.0138162501 0 0.0138162501"></polygon>
        <polygon id="path-3" points="35.1714612 0.0328249626 0.00178629979 0.0328249626 0.00178629979 35.1254874 35.1714612 35.1254874"></polygon>
        <polygon id="path-5" points="0.0191850966 6.07386332 118.313243 6.07386332 118.313243 0.00866537834 0.0191850966 0.00866537834"></polygon>
        <polygon id="path-7" points="16.8441212 25.6276444 16.8441212 0.0275085286 0.00498533101 0.0275085286 0.00498533101 25.6276444"></polygon>
    </defs>
    <g id="Page-1" stroke="none" stroke-width="1" fill="none" fill-rule="evenodd">
        <g id="mobile" transform="translate(-337.000000, -1642.000000)">
            <g id="footer" transform="translate(243.000000, 1485.000000)">
                <g transform="translate(0.000000, 127.000000)" id="Group-21">
                    <g transform="translate(94.000000, 30.000000)">
                        <g id="logo">
                            <g id="Group-3">
                                <g transform="translate(0.000000, 0.000000)">
                                    <g id="Fill-1-Clipped" transform="translate(0.000000, 11.421411)">
                                        <mask id="mask-2" fill="white">
                                            <use xlink:href="#path-1"></use>
                                        </mask>
                                        <g id="path-1"></g>
                                        <path d="M22.0174434,37.6005287 C26.7358114,37.4420339 31.7419101,30.64203 33.676921,23.4171668 C32.4934036,24.4091694 30.9738219,25.0056873 29.3165328,25.0056873 C25.5412803,25.0056873 22.4798293,21.9110905 22.4798293,18.0950304 C22.4798293,14.2790831 25.5412803,11.1844111 29.3165328,11.1844111 C31.0589542,11.1844111 32.6489337,11.8440411 33.8564505,12.9291698 C33.6190623,12.1948433 33.3110903,11.5001971 32.9251299,10.8564766 C34.1119217,9.15222551 35.5766214,7.35161386 37.2262084,5.9526551 C41.6306138,2.21802383 42.260176,4.04616711 42.260176,4.04616711 C42.7143018,6.8177566 40.2808503,12.7127157 35.8259161,15.9789713 C36.0188777,16.5854563 36.1313951,17.2283868 36.1501853,17.8951254 C43.071277,13.1747351 45.1374839,5.0046579 43.5099241,0.532051906 C42.8309122,-1.3344927 34.7641438,2.03542012 29.2298378,7.5225204 C27.3923867,6.60062557 25.0210357,6.127398 22.0174434,6.27539916 C18.994354,6.12634488 16.6157101,6.58847706 14.7768079,7.49292016 C9.24294847,2.02330922 1.20412335,-1.33110766 0.526004455,0.532051906 C-1.10002978,5.00089676 0.960893541,13.1606308 7.86862748,17.8833155 C7.88749203,17.2521949 7.99018658,16.6423625 8.16573472,16.0646878 C3.67883873,12.7769937 1.22771333,6.84006021 1.68500174,4.04917603 C1.68500174,4.04917603 2.31884291,2.20869618 6.75286609,5.96848953 C8.41368997,7.37696399 9.88828691,9.18961138 11.0829297,10.905522 C10.7063085,11.5336336 10.4036201,12.2100384 10.1677203,12.9241674 C11.3744557,11.8420101 12.9623887,11.1844111 14.7019823,11.1844111 C18.4772349,11.1844111 21.5386859,14.2790831 21.5386859,18.0950304 C21.5386859,21.9110905 18.4772349,25.0056873 14.7019823,25.0056873 C13.1030356,25.0056873 11.6321967,24.4504667 10.4676553,23.5204103 C12.5215091,30.7875864 17.6033638,37.5938338 22.0174434,37.6005287 Z M22.0180014,34.8609466 L21.9852582,34.8512429 C21.6300691,34.7456298 19.7598004,34.1143964 18.9784289,32.3425199 C17.6506181,29.3314582 26.3852732,29.3314582 25.0574997,32.3425199 C24.2761281,34.1143964 22.4059338,34.7456298 22.0507819,34.8512429 L22.0180014,34.8609466 Z M27.89559,15.7582671 C28.0923096,15.7582671 28.2831875,15.7833164 28.4655819,15.8300675 C28.3501622,16.0111291 28.2831875,16.2264924 28.2831875,16.4579534 C28.2831875,17.099229 28.7978137,17.61917 29.4321386,17.61917 C29.6826984,17.61917 29.9144309,17.5380045 30.1032996,17.4003465 C30.1709068,17.6199599 30.2072964,17.8530758 30.2072964,18.0950304 C30.2072964,19.3854048 29.1720163,20.4319065 27.89559,20.4319065 C26.6191266,20.4319065 25.5839581,19.3854048 25.5839581,18.0950304 C25.5839581,16.8047688 26.6191266,15.7582671 27.89559,15.7582671 Z M29.3165328,12.7807549 C26.4133654,12.7807549 24.0590929,15.1605833 24.0590929,18.0950304 C24.0590929,21.0295905 26.4133654,23.4094188 29.3165328,23.4094188 C32.2195887,23.4094188 34.5738611,21.0295905 34.5738611,18.0950304 C34.5738611,15.1605833 32.2195887,12.7807549 29.3165328,12.7807549 Z M14.7019823,12.7807549 C17.6052613,12.7807549 19.9594967,15.1605833 19.9594967,18.0950304 C19.9594967,21.0295905 17.6052613,23.4094188 14.7019823,23.4094188 C11.7989265,23.4094188 9.44469116,21.0295905 9.44469116,18.0950304 C9.44469116,15.1605833 11.7989265,12.7807549 14.7019823,12.7807549 Z M16.1229251,15.7582671 C14.8464244,15.7582671 13.8111443,16.8047688 13.8111443,18.0950304 C13.8111443,19.3854048 14.8464244,20.4319065 16.1229251,20.4319065 C17.3994258,20.4319065 18.4345943,19.3854048 18.4345943,18.0950304 C18.4345943,17.8530758 18.3981675,17.6199599 18.3306346,17.4003465 C18.1416543,17.5380045 17.9099591,17.61917 17.6594737,17.61917 C17.0250744,17.61917 16.5105226,17.099229 16.5105226,16.4579534 C16.5105226,16.2264924 16.5775717,16.0111291 16.6928426,15.8300675 C16.5105226,15.7833164 16.3196075,15.7582671 16.1229251,15.7582671 Z" id="Fill-1" fill="#E0481B" fill-rule="nonzero" mask="url(#mask-2)"></path>
                                    </g>
                                    <g id="Group-13" transform="translate(5.173083, 0.546203)">
                                        <g id="Fill-11-Clipped">
                                            <mask id="mask-4" fill="white">
                                                <use xlink:href="#path-3"></use>
                                            </mask>
                                            <g id="path-5"></g>
                                            <path d="M33.9932477,9.60262813 L33.9932477,30.5153703 L35.1714612,35.1254874 L33.5631588,35.1254874 L33.3486539,35.1254874 L31.7402771,35.1254874 L32.9184534,30.5153703 L32.9184534,10.0466884 L24.2631611,13.6236295 L24.2631611,16.9420033 C22.3041112,16.2030083 19.9038081,15.847662 16.9972007,15.9914361 C14.0875416,15.847662 11.6884666,16.1892904 9.73146352,16.9054474 L9.73146352,13.6234787 L0.00178629979,9.60255277 L16.9975728,0.0328136566 L33.9932477,9.60255277 L33.9930988,9.60262813 L33.9932477,9.60262813 Z" id="Fill-11" fill="#E0481B" fill-rule="nonzero" mask="url(#mask-4)"></path>
                                        </g>
                                    </g>
                                </g>
                            </g>
                            <path d="M63.5909495,32.4561404 C65.0556181,32.4505142 66.4245382,32.2412887 67.7034286,31.8285014 C68.982206,31.4157143 70.1426993,30.8277229 71.1849463,30.0757418 C72.2214746,29.3237986 73.1172207,28.4360721 73.8608981,27.412751 C74.6101436,26.3892412 75.1846717,25.2697467 75.5903515,24.042864 C75.9903128,22.8215698 76.1931715,21.5324595 76.1987395,20.1754575 L76.1987395,20.1076414 C76.1931715,18.7506016 75.995956,17.4671552 75.5959572,16.245861 C75.195996,15.0246046 74.6270735,13.9106984 73.8890771,12.8929658 C73.1453621,11.8752709 72.2609402,10.9931706 71.2243366,10.2468534 C70.1934141,9.50616255 69.0386017,8.92379733 67.7653546,8.51674955 C66.4921829,8.10958859 65.1232627,7.90040079 63.6585941,7.89473684 C62.1938127,7.90040079 60.8248926,8.10958859 59.5460022,8.52233799 C58.2671495,8.9351629 57.1066561,9.52315432 56.0644845,10.2750976 C55.027881,11.0270786 54.13221,11.9148051 53.3885327,12.9382394 C52.6392872,13.961636 52.0646838,15.0811683 51.6590416,16.3080509 C51.2590428,17.5293451 51.0562969,18.81838 51.0506912,20.1754575 L51.0506912,20.2432736 C51.0562969,21.6002755 51.2533994,22.883722 51.6534736,24.1050162 C52.0534348,25.3262727 52.6223573,26.4402921 53.3603536,27.457987 C54.1040686,28.4756818 54.9884906,29.3577444 56.0250189,30.1040993 C57.0559791,30.8447902 58.2108291,31.4271555 59.4840762,31.8341276 C60.7572479,32.2412887 62.1261681,32.4505142 63.5909495,32.4561404 Z M63.6585941,27.6388551 C62.6050229,27.6331911 61.6417074,27.4352557 60.7685346,27.0451998 C59.8953616,26.655106 59.1404352,26.1178635 58.5037553,25.4336608 C57.8671883,24.7496847 57.371441,23.9580939 57.0221568,23.059115 C56.6729102,22.1600984 56.4982681,21.1987785 56.4926248,20.1754575 L56.4926248,20.1076414 C56.4982681,19.0842826 56.6729102,18.1229627 57.0108701,17.2353873 C57.354511,16.3420345 57.8390469,15.5617339 58.4700083,14.8831951 C59.1010449,14.2046941 59.8502527,13.6789304 60.7122142,13.2943873 C61.5797813,12.9156215 62.5374536,12.7176861 63.5909495,12.7120221 C64.6444078,12.7176861 65.6076858,12.9156215 66.4809715,13.3056775 C67.3540691,13.6958467 68.1089955,14.2330515 68.7456002,14.9171787 C69.3822425,15.6012681 69.8779146,16.3928588 70.227274,17.2919132 C70.5765206,18.1909299 70.7511626,19.1520987 70.756806,20.1754575 L70.756806,20.2432736 C70.7511626,21.2667457 70.5821263,22.2279145 70.2384854,23.115641 C69.8948821,24.0088427 69.4104215,24.7891434 68.7794225,25.4676821 C68.1484988,26.1462209 67.4048591,26.6720224 66.5372919,27.0564899 C65.6696494,27.4352557 64.7119772,27.6331911 63.6585941,27.6388551 Z M77.1141621,32.0490171 L96.8202765,32.0490171 L96.8202765,27.469277 L83.8068823,27.469277 L96.8202765,12.2709908 L96.8202765,8.30182229 L77.5197667,8.30182229 L77.5197667,12.8817134 L90.1276696,12.8817134 L77.1141621,28.0799619 L77.1141621,32.0490171 Z" id="Fill-4" fill="#F7BC40" fill-rule="nonzero"></path>
                            <path d="M101.452769,25.3433739 C101.54288,26.0687499 101.739911,26.7487899 102.044013,27.3834182 C102.34819,28.0181223 102.731082,28.5620786 103.192915,29.0154387 C103.654709,29.468723 104.184087,29.831411 104.780971,30.1033513 C105.377856,30.3753295 106.014192,30.5113753 106.689979,30.5113753 C107.726281,30.5113753 108.666682,30.2620273 109.511407,29.7634448 C110.356131,29.2646731 111.03756,28.5960996 111.55573,27.7574214 L113.920929,29.2874547 C113.154957,30.5113753 112.141369,31.4916623 110.879867,32.2283534 C109.618441,32.9650067 108.221849,33.3333333 106.689979,33.3333333 C105.631262,33.3333333 104.634524,33.1293213 103.699651,32.7212973 C102.764892,32.3133868 101.937054,31.7523254 101.216174,31.0384158 C100.495445,30.324317 99.9039759,29.4800002 99.4423318,28.5054275 C98.9805363,27.5308171 98.7046405,26.4767739 98.6144931,25.3433739 C98.6144931,25.2300716 98.6088522,25.1054544 98.5976065,24.9693708 C98.5863618,24.8334384 98.5806452,24.6974304 98.5806452,24.5614981 C98.5806452,23.8361221 98.6595479,23.156082 98.8172406,22.5214537 C99.0199503,21.5693976 99.3690322,20.6797448 99.8646747,19.8524952 C100.360205,19.0251321 100.951523,18.3112225 101.638518,17.7106151 C102.32555,17.1098184 103.102767,16.6395426 103.970057,16.2994847 C104.837234,15.9595025 105.7439,15.7894737 106.689979,15.7894737 C107.636059,15.7894737 108.542838,15.9595025 109.410052,16.2994847 C110.277417,16.6395426 111.054409,17.1098184 111.741478,17.7106151 C112.428511,18.3112225 113.019867,19.0251321 113.515396,19.8524952 C114.011076,20.6797448 114.360121,21.5693976 114.562944,22.5214537 C114.720561,23.156082 114.799388,23.8361221 114.799388,24.5614981 L114.799388,24.9693708 C114.799388,25.1054544 114.788143,25.2300716 114.765653,25.3433739 L101.452769,25.3433739 Z M111.657084,22.5214537 C111.274155,21.3654235 110.637707,20.4248717 109.748002,19.6994579 C108.85826,18.9740818 107.838881,18.611583 106.689979,18.611583 C105.541303,18.611583 104.521886,18.9740818 103.632069,19.6994579 C102.742327,20.4248717 102.105916,21.3654235 101.723062,22.5214537 L111.657084,22.5214537 Z M125.071211,22.7595245 C125.679491,22.8954189 126.37773,23.06541 127.166268,23.2693842 C127.95458,23.473434 128.703666,23.7737945 129.413151,24.1703899 C130.122786,24.5671367 130.725349,25.0941394 131.220841,25.7513978 C131.716521,26.4088077 131.964135,27.2473724 131.964135,28.2673189 C131.964135,29.8539654 131.3278,31.0950669 130.055128,31.9903962 C128.782381,32.8856119 127.019858,33.3333333 124.767184,33.3333333 C123.956157,33.3333333 123.19041,33.2484513 122.469529,33.0783467 C121.74865,32.9083556 121.095428,32.6647976 120.509789,32.3474456 C119.924111,32.0299422 119.405978,31.6617669 118.955429,31.2424278 C118.504991,30.8230887 118.166967,30.3527372 117.94173,29.831411 L120.509789,28.9134515 C120.825098,29.3441057 121.36572,29.718071 122.131655,30.0353852 C122.897477,30.3527372 123.776049,30.5113753 124.767184,30.5113753 C125.105059,30.5113753 125.510516,30.4886695 125.983593,30.443447 C126.456633,30.3980731 126.912861,30.2960861 127.352016,30.1374101 C127.791283,29.978734 128.168534,29.7521297 128.483882,29.4574079 C128.799304,29.162686 128.956921,28.7660528 128.956921,28.2673189 C128.956921,28.0406768 128.9233,27.8140724 128.855717,27.5874681 C128.78806,27.3608638 128.613518,27.1340324 128.331981,26.9074281 C128.050368,26.6808237 127.611101,26.4540302 127.014217,26.2273881 C126.417182,26.0007837 125.578098,25.774028 124.496778,25.5474237 C123.753446,25.3887099 123.004511,25.213118 122.249896,25.0203832 C121.495169,24.8278377 120.819532,24.550183 120.222497,24.187495 C119.625612,23.824807 119.135686,23.3657705 118.752832,22.8104991 C118.369751,22.2551142 118.178211,21.5468432 118.178211,20.6855348 C118.178211,19.2347828 118.741436,18.056198 119.867774,17.1495537 C120.994073,16.2429093 122.548282,15.7894737 124.530589,15.7894737 C125.296561,15.7894737 126.034102,15.8689063 126.743736,16.0274687 C127.453484,16.1862205 128.101027,16.4185013 128.686704,16.7245382 C129.272345,17.0304994 129.784835,17.3931874 130.224027,17.8124508 C130.663407,18.2317899 130.984396,18.7021415 131.187143,19.2234676 L128.619122,20.1414271 C128.348867,19.6882184 127.870186,19.319854 127.183154,19.0364093 C126.496122,18.753154 125.713339,18.611583 124.834766,18.611583 C123.685864,18.611583 122.790443,18.8041285 122.148541,19.1894467 C121.506564,19.5748785 121.185538,20.073461 121.185538,20.6855348 C121.185538,20.8894333 121.213669,21.0764916 121.269969,21.2464449 C121.326306,21.4163981 121.478358,21.5807128 121.72616,21.7394266 C121.97385,21.8980648 122.362496,22.0623794 122.891911,22.2325218 C123.421213,22.4024751 124.147734,22.5781048 125.071211,22.7595245 Z M142.91182,22.7595245 C143.520101,22.8954189 144.21834,23.06541 145.006802,23.2693842 C145.795189,23.473434 146.544125,23.7737945 147.25376,24.1703899 C147.96332,24.5671367 148.565959,25.0941394 149.061451,25.7513978 C149.55713,26.4088077 149.80482,27.2473724 149.80482,28.2673189 C149.80482,29.8539654 149.168409,31.0950669 147.895737,31.9903962 C146.623066,32.8856119 144.860317,33.3333333 142.607718,33.3333333 C141.796766,33.3333333 141.031019,33.2484513 140.310139,33.0783467 C139.58926,32.9083556 138.936037,32.6647976 138.350398,32.3474456 C137.76472,32.0299422 137.246588,31.6617669 136.796038,31.2424278 C136.345601,30.8230887 136.007651,30.3527372 135.782414,29.831411 L138.350398,28.9134515 C138.665782,29.3441057 139.20633,29.718071 139.97234,30.0353852 C140.738086,30.3527372 141.616659,30.5113753 142.607718,30.5113753 C142.945668,30.5113753 143.351201,30.4886695 143.82424,30.443447 C144.297167,30.3980731 144.753321,30.2960861 145.19255,30.1374101 C145.631893,29.978734 146.009144,29.7521297 146.324567,29.4574079 C146.639914,29.162686 146.797606,28.7660528 146.797606,28.2673189 C146.797606,28.0406768 146.763909,27.8140724 146.696252,27.5874681 C146.628669,27.3608638 146.454128,27.1340324 146.172665,26.9074281 C145.890978,26.6808237 145.451711,26.4540302 144.854676,26.2273881 C144.257791,26.0007837 143.418707,25.774028 142.337388,25.5474237 C141.594056,25.3887099 140.84512,25.213118 140.090505,25.0203832 C139.335778,24.8278377 138.660141,24.550183 138.063107,24.187495 C137.466222,23.824807 136.976333,23.3657705 136.593442,22.8104991 C136.210361,22.2551142 136.018896,21.5468432 136.018896,20.6855348 C136.018896,19.2347828 136.582046,18.056198 137.708308,17.1495537 C138.834683,16.2429093 140.388892,15.7894737 142.371273,15.7894737 C143.137171,15.7894737 143.874786,15.8689063 144.584421,16.0274687 C145.293943,16.1862205 145.941637,16.4185013 146.527314,16.7245382 C147.112954,17.0304994 147.625445,17.3931874 148.064674,17.8124508 C148.504017,18.2317899 148.825006,18.7021415 149.027753,19.2234676 L146.459807,20.1414271 C146.189477,19.6882184 145.710645,19.319854 145.023613,19.0364093 C144.336619,18.753154 143.553949,18.611583 142.675376,18.611583 C141.526549,18.611583 140.631128,18.8041285 139.989151,19.1894467 C139.347173,19.5748785 139.026223,20.073461 139.026223,20.6855348 C139.026223,20.8894333 139.054278,21.0764916 139.110579,21.2464449 C139.166916,21.4163981 139.318967,21.5807128 139.566769,21.7394266 C139.81461,21.8980648 140.203105,22.0623794 140.73252,22.2325218 C141.261822,22.4024751 141.988344,22.5781048 142.91182,22.7595245 Z M169.875576,16.4014718 L169.875576,32.7212973 L166.969793,32.7212973 L166.969793,30.8174122 C166.248913,31.6107544 165.404188,32.2283534 164.435469,32.670247 C163.466899,33.1123677 162.41939,33.3333333 161.293202,33.3333333 C160.166753,33.3333333 159.113715,33.106729 158.133787,32.6533312 C157.153973,32.2000468 156.298004,31.5767335 155.565917,30.7833914 C154.833791,29.9900492 154.253794,29.0607746 153.825771,27.9953407 C153.397823,26.9300582 153.183869,25.7854945 153.183869,24.5614981 C153.183869,23.3601319 153.397823,22.2267318 153.825771,21.1613737 C154.253794,20.0960911 154.833791,19.1668166 155.565917,18.3734744 C156.298004,17.58017 157.153973,16.9511425 158.133787,16.486543 C159.113715,16.0218301 160.166753,15.7894737 161.293202,15.7894737 C162.41939,15.7894737 163.466899,16.0105529 164.435469,16.45256 C165.404188,16.8944914 166.248913,17.5122417 166.969793,18.305546 L166.969793,16.4014718 L169.875576,16.4014718 Z M161.529647,30.5113753 C162.272979,30.5113753 162.976823,30.3527372 163.64144,30.0353852 C164.305982,29.718071 164.886056,29.2930554 165.381585,28.7604142 C165.877228,28.2277729 166.265724,27.5987832 166.547299,26.8734072 C166.828911,26.1480311 166.969793,25.3773947 166.969793,24.5614981 C166.969793,23.7453744 166.828911,22.9748137 166.547299,22.2494377 C166.265724,21.5240616 165.877228,20.8952233 165.381585,20.3623928 C164.886056,19.829903 164.305982,19.404736 163.64144,19.0874597 C162.976823,18.7701076 162.272979,18.611583 161.529647,18.611583 C160.786278,18.611583 160.082435,18.7701076 159.417817,19.0874597 C158.753275,19.404736 158.173239,19.829903 157.677709,20.3623928 C157.182179,20.8952233 156.787892,21.5240616 156.495185,22.2494377 C156.202215,22.9748137 156.055842,23.7453744 156.055842,24.5614981 C156.055842,25.3773947 156.202215,26.1480311 156.495185,26.8734072 C156.787892,27.5987832 157.182179,28.2277729 157.677709,28.7604142 C158.173239,29.2930554 158.753275,29.718071 159.417817,30.0353852 C160.082435,30.3527372 160.786278,30.5113753 161.529647,30.5113753 Z" id="Fill-6" fill="#FFFFFF" fill-rule="nonzero"></path>
                            <g id="Group-10" transform="translate(52.811060, 35.964912)">
                                <g id="Fill-8-Clipped">
                                    <mask id="mask-6" fill="white">
                                        <use xlink:href="#path-5"></use>
                                    </mask>
                                    <g id="path-3"></g>
                                    <path d="M3.10169276,0.425663703 L5.45741635,5.9323018 L4.66688125,5.9323018 L3.98807861,4.3509991 L1.48863495,4.3509991 L0.817791835,5.9323018 L0.0191850966,5.9323018 L2.37502079,0.425663703 L3.10169276,0.425663703 Z M1.80002843,3.62728908 L3.67668512,3.62728908 L2.74235523,1.44036699 L1.80002843,3.62728908 Z M6.78684564,4.79943427 C6.7655081,4.6997861 6.75489539,4.60797874 6.75489539,4.52404899 L6.75489539,4.41398323 L6.75489539,2.1562362 L7.43369804,2.1562362 L7.43369804,4.38247275 C7.43369804,4.47162971 7.44296548,4.57650508 7.4615751,4.69709887 C7.48029682,4.81772948 7.52151451,4.93313289 7.58537764,5.04319865 C7.64924076,5.15348529 7.74374624,5.24775901 7.86889406,5.32653517 C7.99404187,5.40512728 8.16309792,5.44447855 8.37602484,5.44447855 C8.63151471,5.44447855 8.83648214,5.40512728 8.99088966,5.32653517 C9.14529717,5.24775901 9.26237329,5.15598846 9.34223026,5.05107626 C9.42216193,4.94623771 9.47537498,4.83885917 9.50190675,4.72860934 C9.52855067,4.61850677 9.54454448,4.5319266 9.54988817,4.46908973 L9.54988817,2.1562362 L10.2367251,2.1562362 L10.2367251,5.9323018 L9.54988817,5.9323018 L9.54988817,5.59389559 C9.54988817,5.59389559 9.52462697,5.62017886 9.4740297,5.67263495 C9.42346986,5.72505423 9.34888188,5.78016073 9.25041533,5.83780722 C9.15194879,5.89560095 9.02949153,5.949235 8.88308093,5.9991143 C8.73670767,6.04891998 8.56496107,6.07387804 8.36802794,6.07387804 C8.07516934,6.07387804 7.83298272,6.03062477 7.6413186,5.9440078 C7.44961711,5.85757488 7.29390169,5.7500491 7.1740976,5.62150406 C7.05433088,5.49303265 6.96516913,5.3539964 6.90657499,5.20454255 C6.84798085,5.05512551 6.8081458,4.92010169 6.78684564,4.79943427 Z M13.64236,3.62728908 C13.7860801,3.65876274 13.9511003,3.69811402 14.1374207,3.74523247 C14.3238158,3.79246136 14.5007567,3.86199788 14.6684301,3.95380525 C14.8362156,4.04557581 14.9786277,4.16738437 15.0957413,4.31948863 C15.2129296,4.47162971 15.2714116,4.66562522 15.2714116,4.90165923 C15.2714116,5.26885187 15.1210026,5.55586952 14.8202218,5.76308029 C14.5194784,5.97032787 14.102892,6.07387804 13.5705,6.07387804 C13.3788732,6.07387804 13.1978218,6.05407356 13.0274953,6.01486953 C12.8570939,5.97551826 12.7026864,5.91904974 12.5642353,5.84568483 C12.4258963,5.77228311 12.3033643,5.68702816 12.1969756,5.59003041 C12.0904374,5.49303265 12.0105805,5.38414485 11.9573301,5.26355105 L12.5642353,5.05107626 C12.6388233,5.15076125 12.7666242,5.23737822 12.9475636,5.31077993 C13.1285776,5.38414485 13.3362355,5.4208457 13.5705,5.4208457 C13.6503569,5.4208457 13.7461329,5.41565531 13.8580149,5.40512728 C13.9697473,5.39467287 14.077556,5.37107683 14.1813663,5.33441279 C14.2851766,5.29771193 14.3743757,5.24525584 14.4488889,5.17708132 C14.5234395,5.10890681 14.5606961,5.01709944 14.5606961,4.90165923 C14.5606961,4.84923995 14.5527366,4.79678386 14.5367428,4.74432777 C14.520749,4.69194529 14.4795313,4.6394892 14.4129028,4.58703311 C14.3464239,4.53461383 14.2426136,4.48215774 14.1015094,4.42970165 C13.9604799,4.37731918 13.7620894,4.32486308 13.5065621,4.27240699 C13.3308918,4.23559569 13.1538389,4.19499284 12.9755527,4.15048799 C12.7971545,4.10590951 12.637478,4.04160018 12.4963737,3.95763363 C12.3553068,3.87374069 12.2395012,3.76765054 12.1489942,3.63917913 C12.0584872,3.51067091 12.0133084,3.3466766 12.0133084,3.14745388 C12.0133084,2.81173489 12.1463036,2.53918408 12.4125184,2.32928609 C12.6786956,2.11953534 13.0460301,2.01465997 13.514559,2.01465997 C13.6955731,2.01465997 13.8698981,2.03306562 14.0376462,2.06976647 C14.2053571,2.10646734 14.3583819,2.16021182 14.496833,2.23092631 C14.6352093,2.30178806 14.7563587,2.3857178 14.860169,2.48271556 C14.9639792,2.57975013 15.0398751,2.68863793 15.0877444,2.80923173 L14.4808765,3.02152245 C14.4170134,2.91664708 14.3038236,2.83150255 14.1414192,2.76583121 C13.9790895,2.70034392 13.794077,2.66765549 13.5864938,2.66765549 C13.3149354,2.66765549 13.1033164,2.71208672 12.951562,2.8013541 C12.7998451,2.89047425 12.7239866,3.00591446 12.7239866,3.14745388 C12.7239866,3.19457234 12.7306382,3.23793604 12.7439041,3.27732412 C12.757282,3.31652815 12.7931561,3.35451741 12.8517128,3.39125508 C12.9103069,3.42810318 13.0021218,3.465982 13.1272323,3.50533327 C13.2523428,3.54468454 13.424052,3.58539784 13.64236,3.62728908 Z M18.8447573,5.98726107 C18.8287635,5.9925987 18.7862006,6.00566671 18.7169563,6.02661234 C18.6478242,6.04755797 18.561241,6.06195118 18.4574306,6.06982879 C18.353583,6.07770641 18.23916,6.071154 18.1139748,6.05024519 C17.9889391,6.02929956 17.8677897,5.97938345 17.7506762,5.90079134 C17.3940292,5.66475733 17.2157057,5.22162299 17.2157057,4.57127787 L17.2157057,2.80923173 L16.7285672,2.80923173 L16.7285672,2.1562362 L17.2157057,2.1562362 L17.2157057,0.40990847 L17.8784772,0.40990847 L17.8784772,2.1562362 L18.6770839,2.1562362 L18.6770839,2.80923173 L17.8784772,2.80923173 L17.8784772,4.57127787 C17.8784772,4.98558898 17.9583715,5.24775901 18.1180853,5.35800883 C18.1659547,5.38951929 18.2178972,5.4077777 18.2737634,5.41296809 C18.3296296,5.41830572 18.3816095,5.41963093 18.4294789,5.41698052 C18.4773481,5.4143301 18.5186406,5.4077777 18.553244,5.39739691 C18.5878848,5.38679526 18.6052239,5.38164168 18.6052239,5.38164168 L18.8447573,5.98726107 Z M22.1545041,2.00678235 C22.3249054,2.00678235 22.4793504,2.02253759 22.6176893,2.05401124 L22.5219133,2.69901871 C22.4260252,2.66231785 22.3009147,2.64405946 22.1465072,2.64405946 C21.8910174,2.64405946 21.6873205,2.68208552 21.5356409,2.75813765 C21.3839239,2.83404254 21.2667731,2.9258499 21.1842629,3.03341249 C21.1017154,3.14093828 21.0472318,3.24835364 21.0206253,3.35591624 C20.9939067,3.46340521 20.9779876,3.54869697 20.9726439,3.61153385 L20.9726439,5.9323018 L20.2938038,5.9323018 L20.2938038,2.1562362 L20.9726439,2.1562362 L20.9726439,2.49445836 C20.9779876,2.48926797 21.005902,2.46180674 21.0564993,2.41185382 C21.1070591,2.36208495 21.1803018,2.30697845 21.2761152,2.24668155 C21.3719659,2.18638465 21.4930405,2.13127815 21.6394512,2.08147246 C21.7858991,2.03174041 21.957571,2.00678235 22.1545041,2.00678235 Z M27.6125035,2.1562362 L27.6125035,5.9323018 L26.9257039,5.9323018 L26.9257039,5.49170744 C26.7553773,5.67528536 26.5557536,5.8181868 26.3268329,5.92041176 C26.0978374,6.02274715 25.8503071,6.07387804 25.5841671,6.07387804 C25.317915,6.07387804 25.0690394,6.02142195 24.8373908,5.91654658 C24.605929,5.81163438 24.4035774,5.66744456 24.2305229,5.48382983 C24.0574684,5.3002151 23.9204,5.08527396 23.8193176,4.83885917 C23.7181232,4.59226032 23.6675259,4.32736625 23.6675259,4.0442506 C23.6675259,3.76632534 23.7181232,3.50397126 23.8193176,3.25755646 C23.9204,3.01110485 24.0574684,2.79601647 24.2305229,2.61254898 C24.4035774,2.42897107 24.605929,2.2833824 24.8373908,2.17596705 C25.0690394,2.06844126 25.317915,2.01465997 25.5841671,2.01465997 C25.8503071,2.01465997 26.0978374,2.06575404 26.3268329,2.16808944 C26.5557536,2.27027758 26.7553773,2.41321583 26.9257039,2.59679376 L26.9257039,2.1562362 L27.6125035,2.1562362 Z M25.6400333,5.4208457 C25.8157037,5.4208457 25.9820318,5.38414485 26.1390551,5.31077993 C26.2961905,5.23737822 26.433259,5.13905526 26.5503725,5.01573743 C26.6675608,4.89245641 26.7593757,4.7470518 26.8258921,4.5791555 C26.8924457,4.411296 26.9257039,4.23305572 26.9257039,4.0442506 C26.9257039,3.85544548 26.8924457,3.6772052 26.8258921,3.5093457 C26.7593757,3.34148621 26.6675608,3.19589754 26.5503725,3.07276377 C26.433259,2.94948275 26.2961905,2.85112297 26.1390551,2.77775807 C25.9820318,2.70435635 25.8157037,2.66765549 25.6400333,2.66765549 C25.464363,2.66765549 25.2979228,2.70435635 25.1408621,2.77775807 C24.9838387,2.85112297 24.846733,2.94948275 24.7296568,3.07276377 C24.6125806,3.19589754 24.5193831,3.34148621 24.4501762,3.5093457 C24.380932,3.6772052 24.3463659,3.85544548 24.3463659,4.0442506 C24.3463659,4.23305572 24.380932,4.411296 24.4501762,4.5791555 C24.5193831,4.7470518 24.6125806,4.89245641 24.7296568,5.01573743 C24.846733,5.13905526 24.9838387,5.23737822 25.1408621,5.31077993 C25.2979228,5.38414485 25.464363,5.4208457 25.6400333,5.4208457 Z M29.6286575,5.9323018 L30.3073854,5.9323018 L30.3073854,0.40990847 L29.6286575,0.40990847 L29.6286575,5.9323018 Z M32.1637883,5.9323018 L32.8425909,5.9323018 L32.8425909,2.1562362 L32.1637883,2.1562362 L32.1637883,5.9323018 Z M32.9464013,1.07851198 C32.9464013,1.19914259 32.9038382,1.30265595 32.8186749,1.38927292 C32.7334743,1.47570583 32.629664,1.51910635 32.5072068,1.51910635 C32.3847495,1.51910635 32.2796313,1.47570583 32.1917401,1.38927292 C32.1038863,1.30265595 32.0600528,1.19914259 32.0600528,1.07851198 C32.0600528,0.957881376 32.1038863,0.855693228 32.1917401,0.771763478 C32.2796313,0.68783373 32.3847495,0.645758423 32.5072068,0.645758423 C32.629664,0.645758423 32.7334743,0.68783373 32.8186749,0.771763478 C32.9038382,0.855693228 32.9464013,0.957881376 32.9464013,1.07851198 Z M38.4043258,2.1562362 L38.4043258,5.9323018 L37.717601,5.9323018 L37.717601,5.49170744 C37.5471997,5.67528536 37.3476507,5.8181868 37.1186553,5.92041176 C36.8897345,6.02274715 36.6422042,6.07387804 36.3759895,6.07387804 C36.1098496,6.07387804 35.8608992,6.02142195 35.6292879,5.91654658 C35.3977514,5.81163438 35.1954745,5.66744456 35.02242,5.48382983 C34.8493655,5.3002151 34.7122971,5.08527396 34.61114,4.83885917 C34.5100203,4.59226032 34.459423,4.32736625 34.459423,4.0442506 C34.459423,3.76632534 34.5100203,3.50397126 34.61114,3.25755646 C34.7122971,3.01110485 34.8493655,2.79601647 35.02242,2.61254898 C35.1954745,2.42897107 35.3977514,2.2833824 35.6292879,2.17596705 C35.8608992,2.06844126 36.1098496,2.01465997 36.3759895,2.01465997 C36.6422042,2.01465997 36.8897345,2.06575404 37.1186553,2.16808944 C37.3476507,2.27027758 37.5471997,2.41321583 37.717601,2.59679376 L37.717601,2.1562362 L38.4043258,2.1562362 Z M36.4319305,5.4208457 C36.6076008,5.4208457 36.7739289,5.38414485 36.9309523,5.31077993 C37.0880877,5.23737822 37.2250814,5.13905526 37.3422697,5.01573743 C37.4593831,4.89245641 37.5511981,4.7470518 37.6177892,4.5791555 C37.6843428,4.411296 37.717601,4.23305572 37.717601,4.0442506 C37.717601,3.85544548 37.6843428,3.6772052 37.6177892,3.5093457 C37.5511981,3.34148621 37.4593831,3.19589754 37.3422697,3.07276377 C37.2250814,2.94948275 37.0880877,2.85112297 36.9309523,2.77775807 C36.7739289,2.70435635 36.6076008,2.66765549 36.4319305,2.66765549 C36.2561854,2.66765549 36.0898199,2.70435635 35.9327592,2.77775807 C35.7757359,2.85112297 35.63863,2.94948275 35.5214791,3.07276377 C35.404403,3.19589754 35.3111681,3.34148621 35.2420733,3.5093457 C35.1728291,3.6772052 35.1381883,3.85544548 35.1381883,4.0442506 C35.1381883,4.23305572 35.1728291,4.411296 35.2420733,4.5791555 C35.3111681,4.7470518 35.404403,4.89245641 35.5214791,5.01573743 C35.63863,5.13905526 35.7757359,5.23737822 35.9327592,5.31077993 C36.0898199,5.38414485 36.2561854,5.4208457 36.4319305,5.4208457 Z M43.7904277,3.28903012 C43.8011151,3.3466766 43.809112,3.39777067 43.814381,3.44249639 C43.8197995,3.48703806 43.8223779,3.52778816 43.8223779,3.56445221 L43.8223779,3.67451797 L43.8223779,5.9323018 L43.14365,5.9323018 L43.14365,3.70599163 C43.14365,3.62209869 43.1342705,3.51972648 43.1156609,3.39909588 C43.0969765,3.27850209 43.0558336,3.16320912 42.9918957,3.05299611 C42.9280325,2.94293034 42.8321818,2.84843575 42.7043435,2.76988045 C42.5766172,2.6911411 42.4062533,2.65193707 42.1932889,2.65193707 C41.9377243,2.65193707 41.7340649,2.68981589 41.5823853,2.76583121 C41.4306683,2.84192015 41.3135548,2.93372752 41.2310072,3.04129012 C41.1484598,3.1488159 41.0939388,3.25623125 41.0673323,3.36375704 C41.0406511,3.47128282 41.024732,3.55657459 41.0193508,3.61941147 L41.0193508,5.9323018 L40.3405482,5.9323018 L40.3405482,2.1562362 L41.0193508,2.1562362 L41.0193508,2.49445836 C41.024732,2.49445836 41.0526837,2.46832234 41.1033184,2.41586625 C41.1538035,2.36344697 41.2283541,2.30834046 41.326858,2.25069398 C41.4253246,2.19293706 41.5477445,2.13930301 41.6941924,2.08935008 C41.840603,2.03961802 42.0096217,2.01465997 42.2012111,2.01465997 C42.4940697,2.01465997 42.737639,2.05787643 42.9319937,2.14445659 C43.1262735,2.23092631 43.2833343,2.33848891 43.4031384,2.46696033 C43.5229051,2.59546855 43.6120668,2.73435755 43.6706983,2.88395865 C43.7293299,3.03341249 43.7691275,3.16843632 43.7904277,3.28903012 Z M49.0168531,2.68326348 C49.4214815,2.78294846 49.7502141,2.90354225 50.0030881,3.04511849 C50.2559248,3.18684197 50.4542032,3.33758421 50.5980728,3.49745566 C50.7417928,3.65743753 50.8389141,3.81878143 50.8894366,3.98126648 C50.9400712,4.14393558 50.965482,4.29857982 50.965482,4.44545688 C50.965482,4.67096286 50.9121941,4.88207562 50.8055812,5.07872155 C50.6991552,5.27540429 50.5540524,5.44712896 50.3704225,5.59389559 C50.186718,5.74080946 49.9711379,5.85757488 49.7236449,5.9440078 C49.4760771,6.03062477 49.2112825,6.07387804 48.9291114,6.07387804 C48.6681656,6.07387804 48.4205979,6.03714037 48.1862587,5.96362822 C47.9521064,5.8902265 47.7457938,5.78803835 47.5673955,5.65687971 C47.3891841,5.52572107 47.2413908,5.37240204 47.1242399,5.19666493 C47.0070143,5.02096463 46.9352664,4.83098154 46.9085851,4.62638438 L47.5713566,4.49253852 C47.6459445,4.73379974 47.8043131,4.93718213 48.0466492,5.10220716 C48.2887985,5.26752667 48.5830023,5.35013121 48.9291114,5.35013121 C49.1047817,5.35013121 49.2711098,5.32653517 49.4280957,5.27930628 C49.5851938,5.23200377 49.7222997,5.16651648 49.8394505,5.08258674 C49.956452,4.9986938 50.0482669,4.90302125 50.1149701,4.79545865 C50.1814864,4.6880433 50.2147445,4.57127787 50.2147445,4.44545688 C50.2147445,3.96300808 49.7569778,3.60903069 48.8411454,3.3835247 C48.6230242,3.33110542 48.4019135,3.27062447 48.1782992,3.2025972 C47.9548343,3.13423863 47.753828,3.04379328 47.575355,2.93104029 C47.3969941,2.8182873 47.2505835,2.67538586 47.1361232,2.50233597 C47.0217002,2.32928609 46.9645634,2.10900731 46.9645634,1.84161008 C46.9645634,1.6161041 47.0097422,1.40753132 47.1002492,1.21622302 C47.1907189,1.02473068 47.3185946,0.86088362 47.4835401,0.724534589 C47.6487098,0.58814875 47.848184,0.480586152 48.0825606,0.402030853 C48.3166755,0.323291498 48.5750428,0.284087471 48.8571393,0.284087471 C49.1073227,0.284087471 49.3416993,0.320751519 49.5598578,0.394190048 C49.7782406,0.467554955 49.9698673,0.568565142 50.1348502,0.697036554 C50.2999826,0.825507966 50.4343604,0.977501796 50.5382081,1.1532389 C50.6420183,1.32897602 50.7071146,1.52160952 50.7338332,1.73154432 L50.0709123,1.87308374 C50.0124303,1.62129449 49.8792482,1.41408373 49.6717397,1.25159868 C49.4640818,1.08904001 49.1925234,1.00768705 48.8571393,1.00768705 C48.5003801,1.00768705 48.22217,1.0863896 48.0226212,1.24372107 C47.8229975,1.40101572 47.7231483,1.60034887 47.7231483,1.84161008 C47.7231483,1.93592061 47.7405248,2.02121238 47.7750535,2.0972277 C47.8095821,2.17331664 47.87352,2.24281636 47.9667176,2.30565324 C48.0599151,2.36863736 48.1903319,2.43029628 48.3580053,2.49059318 C48.5257161,2.55089007 48.7452573,2.61508897 49.0168531,2.68326348 Z M54.3070669,5.98726107 C54.2910731,5.9925987 54.2485848,6.00566671 54.1793406,6.02661234 C54.1101337,6.04755797 54.0235878,6.06195118 53.9198896,6.06982879 C53.8160794,6.07770641 53.7015069,6.071154 53.5764712,6.05024519 C53.4513234,6.02929956 53.3302113,5.97938345 53.2130979,5.90079134 C52.8564882,5.66475733 52.6780153,5.22162299 52.6780153,4.57127787 L52.6780153,2.80923173 L52.1909888,2.80923173 L52.1909888,2.1562362 L52.6780153,2.1562362 L52.6780153,0.40990847 L53.3408241,0.40990847 L53.3408241,2.1562362 L54.1394309,2.1562362 L54.1394309,2.80923173 L53.3408241,2.80923173 L53.3408241,4.57127787 C53.3408241,4.98558898 53.4207184,5.24775901 53.5804323,5.35800883 C53.6283763,5.38951929 53.6802441,5.4077777 53.7361851,5.41296809 C53.7920139,5.41830572 53.8439564,5.41963093 53.8917884,5.41698052 C53.9397324,5.4143301 53.9810996,5.4077777 54.0156282,5.39739691 C54.0503064,5.38679526 54.0676082,5.38164168 54.0676082,5.38164168 L54.3070669,5.98726107 Z M55.7083188,4.79943427 C55.6870187,4.6997861 55.6763686,4.60797874 55.6763686,4.52404899 L55.6763686,4.41398323 L55.6763686,2.1562362 L56.3552086,2.1562362 L56.3552086,4.38247275 C56.3552086,4.47162971 56.3645508,4.57650508 56.3831604,4.69709887 C56.4018447,4.81772948 56.4429877,4.93313289 56.5069255,5.04319865 C56.5708634,5.15348529 56.6652194,5.24775901 56.7904046,5.32653517 C56.9155898,5.40512728 57.0846085,5.44447855 57.297498,5.44447855 C57.5529505,5.44447855 57.7579179,5.40512728 57.9123255,5.32653517 C58.0667703,5.24775901 58.1839212,5.15598846 58.2637034,5.05107626 C58.3435977,4.94623771 58.3968108,4.83885917 58.4235294,4.72860934 C58.4500985,4.61850677 58.4660923,4.5319266 58.4714735,4.46908973 L58.4714735,2.1562362 L59.1581983,2.1562362 L59.1581983,5.9323018 L58.4714735,5.9323018 L58.4714735,5.59389559 C58.4714735,5.59389559 58.4461748,5.62017886 58.3955029,5.67263495 C58.3450177,5.72505423 58.2704672,5.78016073 58.172038,5.83780722 C58.0734219,5.89560095 57.9509647,5.949235 57.8047036,5.9991143 C57.658293,6.04891998 57.4864716,6.07387804 57.2895385,6.07387804 C56.9967173,6.07387804 56.7544932,6.03062477 56.5628291,5.9440078 C56.371165,5.85757488 56.2154122,5.7500491 56.0957203,5.62150406 C55.9758041,5.49303265 55.8866797,5.3539964 55.8281603,5.20454255 C55.7695661,5.05512551 55.7295443,4.92010169 55.7083188,4.79943427 Z M64.7198584,0.417786087 L64.7198584,5.9323018 L64.0411678,5.9323018 L64.0411678,5.49958506 C63.8654975,5.68316298 63.6631086,5.82473921 63.4342252,5.92442419 C63.2052672,6.02392512 62.9576995,6.07387804 62.6915221,6.07387804 C62.4253448,6.07387804 62.1765438,6.02142195 61.9449699,5.91654658 C61.713284,5.81163438 61.5111192,5.66744456 61.33799,5.48382983 C61.1650102,5.3002151 61.0279418,5.08527396 60.9267099,4.83885917 C60.8255528,4.59226032 60.7750677,4.33005348 60.7750677,4.05212821 C60.7750677,3.76882851 60.8255528,3.50397126 60.9267099,3.25755646 C61.0279418,3.01110485 61.1650102,2.79601647 61.33799,2.61254898 C61.5111192,2.42897107 61.713284,2.2833824 61.9449699,2.17596705 C62.1765438,2.06844126 62.4253448,2.01465997 62.6915221,2.01465997 C62.9576995,2.01465997 63.2052672,2.06711606 63.4342252,2.17195462 C63.6631086,2.27683 63.8654975,2.42109345 64.0411678,2.60467137 L64.0411678,0.417786087 L64.7198584,0.417786087 Z M62.7475004,5.4208457 C62.9231707,5.4208457 63.0894989,5.38547005 63.2465969,5.31464513 C63.4037323,5.24393063 63.5406513,5.14693287 63.6578396,5.02361504 C63.7749905,4.90033402 63.8681881,4.7548926 63.9373949,4.58703311 C64.0066391,4.41917362 64.0411678,4.24093333 64.0411678,4.05212821 C64.0411678,3.86332309 64.0066391,3.68489875 63.9373949,3.51718651 C63.8681881,3.34936382 63.7749905,3.2025972 63.6578396,3.07662896 C63.5406513,2.95080795 63.4037323,2.85112297 63.2465969,2.77775807 C63.0894989,2.70435635 62.9231707,2.66765549 62.7475004,2.66765549 C62.5718301,2.66765549 62.405502,2.70435635 62.2483666,2.77775807 C62.0913432,2.85112297 61.9543121,2.95080795 61.8371612,3.07662896 C61.7199356,3.2025972 61.6281207,3.34936382 61.5616417,3.51718651 C61.4951254,3.68489875 61.4617925,3.86332309 61.4617925,4.05212821 C61.4617925,4.24093333 61.4951254,4.41917362 61.5616417,4.58703311 C61.6281207,4.7548926 61.7199356,4.90033402 61.8371612,5.02361504 C61.9543121,5.14693287 62.0913432,5.24393063 62.2483666,5.31464513 C62.405502,5.38547005 62.5718301,5.4208457 62.7475004,5.4208457 Z M67.0154931,4.2251781 C67.036868,4.3930376 67.0834294,4.55036906 67.1552521,4.69709887 C67.2271495,4.84401274 67.3176565,4.96983374 67.4268478,5.07470911 C67.5358898,5.17962131 67.661187,5.26355105 67.8022166,5.32653517 C67.9432835,5.38951929 68.0936552,5.4208457 68.2533317,5.4208457 C68.4982836,5.4208457 68.7205153,5.36319922 68.9202137,5.24775901 C69.1198,5.13250284 69.2808965,4.97771136 69.403279,4.78371584 L69.9623524,5.13773005 C69.7813756,5.4208457 69.5417301,5.64764008 69.2436026,5.8181868 C68.9455124,5.98858627 68.6153971,6.07387804 68.2533317,6.07387804 C68.0032229,6.07387804 67.7676131,6.02661234 67.5465398,5.9323018 C67.3256907,5.83780722 67.1300656,5.70797379 66.9596643,5.54280152 C66.7893003,5.37759243 66.6494666,5.18227171 66.5404246,4.95676574 C66.431308,4.73129657 66.3659875,4.48738494 66.3447621,4.2251781 C66.3447621,4.19889484 66.3433794,4.1700716 66.340801,4.13856113 C66.3381104,4.10708747 66.3367278,4.07572426 66.3367278,4.0442506 C66.3367278,3.87639111 66.3554122,3.71909645 66.3927061,3.57218258 C66.4405008,3.35201424 66.5231229,3.14612867 66.6401244,2.95467314 C66.7572753,2.76332804 66.897109,2.59815577 67.0595134,2.45908271 C67.2218805,2.32023051 67.4055851,2.21134271 67.6105525,2.13260335 C67.8154078,2.05401124 68.0297173,2.01465997 68.2533317,2.01465997 C68.476946,2.01465997 68.6912556,2.05401124 68.8961856,2.13260335 C69.1011156,2.21134271 69.2848202,2.32023051 69.4472246,2.45908271 C69.609629,2.59815577 69.749388,2.76332804 69.8663895,2.95467314 C69.9836151,3.14612867 70.0660879,3.35201424 70.1140319,3.57218258 C70.1512512,3.71909645 70.1700103,3.87639111 70.1700103,4.0442506 L70.1700103,4.13856113 C70.1700103,4.1700716 70.167245,4.19889484 70.161976,4.2251781 L67.0154931,4.2251781 Z M69.4273071,3.57218258 C69.3368001,3.30478535 69.1863163,3.08715698 68.9761173,2.91929749 C68.7657688,2.75147481 68.5249275,2.66765549 68.2533317,2.66765549 C67.9818854,2.66765549 67.7409693,2.75147481 67.530546,2.91929749 C67.320347,3.08715698 67.1698632,3.30478535 67.0794309,3.57218258 L69.4273071,3.57218258 Z M75.2366097,3.28903012 C75.2472597,3.3466766 75.2552941,3.39777067 75.2605631,3.44249639 C75.2658694,3.48703806 75.26856,3.52778816 75.26856,3.56445221 L75.26856,3.67451797 L75.26856,5.9323018 L74.5897947,5.9323018 L74.5897947,3.70599163 C74.5897947,3.62209869 74.5804525,3.51972648 74.5619176,3.39909588 C74.5432333,3.27850209 74.5019408,3.16320912 74.4381524,3.05299611 C74.3742146,2.94293034 74.2782891,2.84843575 74.1505629,2.76988045 C74.0228365,2.6911411 73.8524352,2.65193707 73.6395457,2.65193707 C73.3839437,2.65193707 73.1803215,2.68981589 73.028642,2.76583121 C72.8768877,2.84192015 72.7597741,2.93372752 72.6773014,3.04129012 C72.5946044,3.1488159 72.5402329,3.25623125 72.5135143,3.36375704 C72.4867957,3.47128282 72.4709514,3.55657459 72.4655702,3.61941147 L72.4655702,5.9323018 L71.7868049,5.9323018 L71.7868049,2.1562362 L72.4655702,2.1562362 L72.4655702,2.49445836 C72.4709514,2.49445836 72.4989031,2.46832234 72.5494256,2.41586625 C72.6000602,2.36344697 72.6745734,2.30834046 72.77304,2.25069398 C72.8715065,2.19293706 72.9939638,2.13930301 73.1403745,2.08935008 C73.2867851,2.03961802 73.4558411,2.01465997 73.6475052,2.01465997 C73.9403264,2.01465997 74.1838583,2.05787643 74.378213,2.14445659 C74.5724929,2.23092631 74.7294415,2.33848891 74.8493577,2.46696033 C74.9690497,2.59546855 75.0583609,2.73435755 75.1168429,2.88395865 C75.1755118,3.03341249 75.2153095,3.16843632 75.2366097,3.28903012 Z M78.9217252,5.98726107 C78.9057314,5.9925987 78.8632805,6.00566671 78.7939989,6.02661234 C78.7248295,6.04755797 78.6382461,6.06195118 78.5344732,6.06982879 C78.4306255,6.07770641 78.3161652,6.071154 78.1911295,6.05024519 C78.0659817,6.02929956 77.9449071,5.97938345 77.8277562,5.90079134 C77.4710718,5.66475733 77.2926736,5.22162299 77.2926736,4.57127787 L77.2926736,2.80923173 L76.8056472,2.80923173 L76.8056472,2.1562362 L77.2926736,2.1562362 L77.2926736,0.40990847 L77.9554824,0.40990847 L77.9554824,2.1562362 L78.7540892,2.1562362 L78.7540892,2.80923173 L77.9554824,2.80923173 L77.9554824,4.57127787 C77.9554824,4.98558898 78.0353767,5.24775901 78.1950906,5.35800883 C78.2430346,5.38951929 78.2948651,5.4077777 78.3508434,5.41296809 C78.4065975,5.41830572 78.4586521,5.41963093 78.5064467,5.41698052 C78.5543907,5.4143301 78.5957205,5.4077777 78.6302118,5.39739691 C78.6649647,5.38679526 78.6822665,5.38164168 78.6822665,5.38164168 L78.9217252,5.98726107 Z M80.8739414,1.9045942 L80.4506287,1.71578908 L81.0736399,0.00866537834 L81.7603646,0.307536265 L80.8739414,1.9045942 Z M84.4473992,3.62728908 C84.5911193,3.65876274 84.7560648,3.69811402 84.9424599,3.74523247 C85.1288177,3.79246136 85.3057211,3.86199788 85.4733572,3.95380525 C85.641255,4.04557581 85.7835552,4.16738437 85.9007806,4.31948863 C86.0179317,4.47162971 86.0764504,4.66562522 86.0764504,4.90165923 C86.0764504,5.26885187 85.9261169,5.55586952 85.6252609,5.76308029 C85.3244055,5.97032787 84.9078939,6.07387804 84.3754644,6.07387804 C84.1838003,6.07387804 84.002861,6.05407356 83.8324224,6.01486953 C83.662021,5.97551826 83.5076509,5.91904974 83.3691998,5.84568483 C83.2308982,5.77228311 83.1083288,5.68702816 83.0018653,5.59003041 C82.8953645,5.49303265 82.8155824,5.38414485 82.7624067,5.26355105 L83.3691998,5.05107626 C83.4438624,5.15076125 83.5715888,5.23737822 83.752528,5.31077993 C83.9335795,5.38414485 84.1412374,5.4208457 84.3754644,5.4208457 C84.4552093,5.4208457 84.5511348,5.41565531 84.6630167,5.40512728 C84.7747492,5.39467287 84.8825579,5.37107683 84.9863308,5.33441279 C85.0902158,5.29771193 85.1793028,5.24525584 85.253816,5.17708132 C85.3283666,5.10890681 85.3657353,5.01709944 85.3657353,4.90165923 C85.3657353,4.84923995 85.3577758,4.79678386 85.3417819,4.74432777 C85.3257881,4.69194529 85.2844957,4.6394892 85.2179047,4.58703311 C85.1514258,4.53461383 85.0475781,4.48215774 84.9065486,4.42970165 C84.765407,4.37731918 84.5670912,4.32486308 84.3115266,4.27240699 C84.1358189,4.23559569 83.958766,4.19499284 83.7805546,4.15048799 C83.6021564,4.10590951 83.4424798,4.04160018 83.3013008,3.95763363 C83.1603087,3.87374069 83.0445404,3.76765054 82.9540334,3.63917913 C82.8634143,3.51067091 82.8183103,3.3466766 82.8183103,3.14745388 C82.8183103,2.81173489 82.9513429,2.53918408 83.2174454,2.32928609 C83.4837722,2.11953534 83.8509572,2.01465997 84.3195235,2.01465997 C84.5006122,2.01465997 84.6748999,2.03306562 84.8426481,2.06976647 C85.0102841,2.10646734 85.1633464,2.16021182 85.3017974,2.23092631 C85.4402485,2.30178806 85.5613228,2.3857178 85.6651706,2.48271556 C85.7689809,2.57975013 85.8448024,2.68863793 85.8927464,2.80923173 L85.2858036,3.02152245 C85.2220153,2.91664708 85.1088254,2.83150255 84.9463463,2.76583121 C84.7840914,2.70034392 84.5990788,2.66765549 84.3914209,2.66765549 C84.1198624,2.66765549 83.9082808,2.71208672 83.7566012,2.8013541 C83.6048469,2.89047425 83.5290257,3.00591446 83.5290257,3.14745388 C83.5290257,3.19457234 83.5356774,3.23793604 83.5489433,3.27732412 C83.5622466,3.31652815 83.5980832,3.35451741 83.6567521,3.39125508 C83.7153088,3.42810318 83.8071237,3.465982 83.9322715,3.50533327 C84.0574567,3.54468454 84.2290538,3.58539784 84.4473992,3.62728908 Z M92.1733059,5.35013121 C92.5566337,5.35013121 92.9107027,5.25964905 93.2353246,5.07872155 C93.5602082,4.89779405 93.8210416,4.6577476 94.0179745,4.35887672 L94.6329513,4.75220538 C94.5050759,4.95157535 94.3533217,5.13250284 94.177651,5.29502471 C94.0019812,5.45765699 93.807776,5.59658282 93.5946993,5.71198622 C93.3817347,5.82724237 93.1555796,5.91654658 92.915934,5.97938345 C92.6763261,6.04236757 92.4289079,6.07387804 92.1733059,6.07387804 C91.7686772,6.07387804 91.388077,5.9977891 91.031318,5.84568483 C90.6747086,5.69354376 90.3631275,5.48648023 90.0969507,5.22416297 C89.8308483,4.96195613 89.6204249,4.65520762 89.4662037,4.30388065 C89.3117595,3.95248005 89.2345557,3.57752021 89.2345557,3.17896435 C89.2345557,2.78040848 89.3117595,2.40533822 89.4662037,2.05401124 C89.6204249,1.70257383 89.8308483,1.39578852 90.0969507,1.13361848 C90.3631275,0.87141165 90.6747086,0.66420088 91.031318,0.512096619 C91.388077,0.359992357 91.7686772,0.284087471 92.1733059,0.284087471 C92.689779,0.284087471 93.1635762,0.403392871 93.5946993,0.641930048 C94.0260088,0.880467226 94.3720059,1.19914259 94.6329513,1.59769846 L94.0179745,1.99890474 C93.8210416,1.70003385 93.5602082,1.46013465 93.2353246,1.27920715 C92.9107027,1.0981324 92.5566337,1.00768705 92.1733059,1.00768705 C91.8699094,1.00768705 91.5863554,1.06411877 91.3228311,1.17683495 C91.0591947,1.28962474 90.8277707,1.44437942 90.6280716,1.64106216 C90.4284487,1.83756083 90.2713126,2.06844126 90.1568524,2.33326171 C90.0423547,2.59815577 89.9852182,2.87994622 89.9852182,3.17896435 C89.9852182,3.47783524 90.0423547,3.75977293 90.1568524,4.02466699 C90.2713126,4.28934019 90.4284487,4.5201838 90.6280716,4.71686654 C90.8277707,4.91354928 91.0591947,5.06819352 91.3228311,5.18094651 C91.5863554,5.29366268 91.8699094,5.35013121 92.1733059,5.35013121 Z M99.8592279,3.28115249 C99.8699522,3.33879899 99.8779121,3.3900403 99.8831811,3.43461878 C99.8884868,3.47916044 99.8912153,3.51972648 99.8912153,3.55657459 L99.8912153,3.66664036 L99.8912153,5.9323018 L99.2124501,5.9323018 L99.2124501,3.69811402 C99.2124501,3.61422108 99.203108,3.51203293 99.1844238,3.39125508 C99.1658507,3.27062447 99.1245588,3.1553315 99.0607702,3.04511849 C98.9968321,2.93505272 98.902252,2.84059494 98.7772914,2.76200283 C98.6521061,2.68326348 98.4830875,2.64405946 98.2701228,2.64405946 C98.0145208,2.64405946 97.8095912,2.68208552 97.6552213,2.75813765 C97.5007762,2.83404254 97.3837747,2.9258499 97.3038433,3.03341249 C97.2239486,3.14093828 97.1706613,3.24967884 97.1441668,3.35974461 C97.1174474,3.46995762 97.1014541,3.55657459 97.0962228,3.61941147 L97.0962228,5.9323018 L96.4094976,5.9323018 L96.4094976,0.40990847 L97.0962228,0.40990847 L97.0962228,2.49445836 C97.0962228,2.48926797 97.1215206,2.46180674 97.1720435,2.41185382 C97.2225664,2.36208495 97.2972288,2.30697845 97.3956581,2.24668155 C97.4941241,2.18638465 97.6165818,2.13127815 97.7629927,2.08147246 C97.9094027,2.03174041 98.0810002,2.00678235 98.2781571,2.00678235 C98.5709788,2.00678235 98.813128,2.04999881 99.004792,2.13661578 C99.1964559,2.2230487 99.3522832,2.3306113 99.4719757,2.45908271 C99.5917424,2.58759093 99.6808664,2.726664 99.7394611,2.87608103 C99.7979798,3.02553488 99.8380024,3.1605587 99.8592279,3.28115249 Z M103.496399,6.07387804 C103.208996,6.07387804 102.940165,6.02142195 102.689982,5.91654658 C102.439649,5.81163438 102.22149,5.66744456 102.035095,5.48382983 C101.848663,5.3002151 101.701019,5.08527396 101.591903,4.83885917 C101.482711,4.59226032 101.428115,4.32736625 101.428115,4.0442506 C101.428115,3.76632534 101.482711,3.50397126 101.591903,3.25755646 C101.701019,3.01110485 101.848663,2.79601647 102.035095,2.61254898 C102.22149,2.42897107 102.439649,2.2833824 102.689982,2.17596705 C102.940165,2.06844126 103.208996,2.01465997 103.496399,2.01465997 C103.77857,2.01465997 104.044897,2.06844126 104.29508,2.17596705 C104.545227,2.2833824 104.763572,2.42897107 104.949855,2.61254898 C105.136175,2.79601647 105.283968,3.01110485 105.393011,3.25755646 C105.502202,3.50397126 105.556797,3.76632534 105.556797,4.0442506 C105.556797,4.32736625 105.502202,4.59226032 105.393011,4.83885917 C105.283968,5.08527396 105.136175,5.3002151 104.949855,5.48382983 C104.763572,5.66744456 104.545227,5.81163438 104.29508,5.91654658 C104.044897,6.02142195 103.77857,6.07387804 103.496399,6.07387804 Z M103.496399,2.66765549 C103.304735,2.66765549 103.123796,2.70303115 102.953394,2.77370882 C102.78303,2.84460737 102.636619,2.94293034 102.514162,3.06875134 C102.391705,3.19457234 102.294621,3.34148621 102.222798,3.5093457 C102.150901,3.6772052 102.11499,3.85544548 102.11499,4.0442506 C102.11499,4.23305572 102.150901,4.411296 102.222798,4.5791555 C102.294621,4.7470518 102.391705,4.89245641 102.514162,5.01573743 C102.636619,5.13905526 102.78303,5.23605301 102.953394,5.30691475 C103.123796,5.37759243 103.304735,5.41296809 103.496399,5.41296809 C103.688063,5.41296809 103.867844,5.37759243 104.035555,5.30691475 C104.203191,5.23605301 104.349676,5.13905526 104.474637,5.01573743 C104.599785,4.89245641 104.698251,4.7470518 104.770224,4.5791555 C104.841971,4.411296 104.878033,4.23305572 104.878033,4.0442506 C104.878033,3.85544548 104.841971,3.6772052 104.770224,3.5093457 C104.698251,3.34148621 104.599785,3.19457234 104.474637,3.06875134 C104.349676,2.94293034 104.203191,2.84460737 104.035555,2.77370882 C103.867844,2.70303115 103.688063,2.66765549 103.496399,2.66765549 Z M107.173555,5.9323018 L107.85247,5.9323018 L107.85247,2.1562362 L107.173555,2.1562362 L107.173555,5.9323018 Z M107.95628,1.07851198 C107.95628,1.19914259 107.913717,1.30265595 107.828554,1.38927292 C107.743315,1.47570583 107.63958,1.51910635 107.516973,1.51910635 C107.394516,1.51910635 107.289398,1.47570583 107.201657,1.38927292 C107.113728,1.30265595 107.069857,1.19914259 107.069857,1.07851198 C107.069857,0.957881376 107.113728,0.855693228 107.201657,0.771763478 C107.289398,0.68783373 107.394516,0.645758423 107.516973,0.645758423 C107.63958,0.645758423 107.743315,0.68783373 107.828554,0.771763478 C107.913717,0.855693228 107.95628,0.957881376 107.95628,1.07851198 Z M111.537548,2.66765549 C111.345884,2.66765549 111.16487,2.70435635 110.994506,2.77775807 C110.824104,2.85112297 110.677843,2.94812073 110.555386,3.06875134 C110.432892,3.18934514 110.335695,3.33360859 110.263873,3.50146809 C110.191975,3.66932758 110.156064,3.84756786 110.156064,4.03637298 C110.156064,4.2251781 110.191975,4.4034552 110.263873,4.57127787 C110.335695,4.73917418 110.432892,4.88590399 110.555386,5.01172499 C110.677843,5.13773005 110.824104,5.23737822 110.994506,5.31077993 C111.16487,5.38414485 111.345884,5.4208457 111.537548,5.4208457 C111.787806,5.4208457 112.012691,5.36187401 112.212278,5.24393063 C112.411976,5.12598725 112.573072,4.97255778 112.695455,4.78371584 L113.262487,5.14560766 C113.076092,5.42872332 112.832523,5.65419249 112.531667,5.8220888 C112.231036,5.98991148 111.899538,6.07387804 111.537548,6.07387804 C111.250108,6.07387804 110.98124,6.02009674 110.731057,5.91253414 C110.480686,5.8051556 110.262564,5.65956694 110.076133,5.47595221 C109.889737,5.29233748 109.742093,5.07739634 109.632977,4.83098154 C109.523785,4.58438269 109.469339,4.31948863 109.469339,4.03637298 C109.469339,3.75844772 109.523785,3.49627769 109.632977,3.24967884 C109.742093,3.00322724 109.889737,2.78946406 110.076133,2.60853655 C110.262564,2.42760906 110.480686,2.2833824 110.731057,2.17596705 C110.98124,2.06844126 111.250108,2.01465997 111.537548,2.01465997 C111.899538,2.01465997 112.231036,2.09858971 112.531667,2.26644921 C112.832523,2.43416146 113.076092,2.65966745 113.262487,2.94293034 L112.703489,3.30478535 C112.581032,3.11075303 112.418627,2.95599834 112.216387,2.84059494 C112.013999,2.72530198 111.787806,2.66765549 111.537548,2.66765549 Z M115.158725,4.2251781 C115.1801,4.3930376 115.226736,4.55036906 115.298485,4.69709887 C115.370456,4.84401274 115.460963,4.96983374 115.57008,5.07470911 C115.679122,5.17962131 115.80427,5.26355105 115.945449,5.32653517 C116.086441,5.38951929 116.236962,5.4208457 116.396639,5.4208457 C116.641516,5.4208457 116.863822,5.36319922 117.063446,5.24775901 C117.263108,5.13250284 117.424129,4.97771136 117.546586,4.78371584 L118.105473,5.13773005 C117.924533,5.4208457 117.685075,5.64764008 117.38691,5.8181868 C117.088633,5.98858627 116.758517,6.07387804 116.396639,6.07387804 C116.146306,6.07387804 115.910771,6.02661234 115.689847,5.9323018 C115.468923,5.83780722 115.273186,5.70797379 115.102972,5.54280152 C114.932533,5.37759243 114.792774,5.18227171 114.683583,4.95676574 C114.57454,4.73129657 114.50922,4.48738494 114.487994,4.2251781 C114.487994,4.19889484 114.486612,4.1700716 114.484033,4.13856113 C114.481343,4.10708747 114.480035,4.07572426 114.480035,4.0442506 C114.480035,3.87639111 114.498719,3.71909645 114.535938,3.57218258 C114.583733,3.35201424 114.666356,3.14612867 114.783432,2.95467314 C114.900583,2.76332804 115.040342,2.59815577 115.202746,2.45908271 C115.365187,2.32023051 115.548817,2.21134271 115.753785,2.13260335 C115.958715,2.05401124 116.173025,2.01465997 116.396639,2.01465997 C116.620253,2.01465997 116.834563,2.05401124 117.039493,2.13260335 C117.244386,2.21134271 117.42809,2.32023051 117.590457,2.45908271 C117.752861,2.59815577 117.892546,2.76332804 118.009697,2.95467314 C118.126847,3.14612867 118.20932,3.35201424 118.257265,3.57218258 C118.294559,3.71909645 118.313243,3.87639111 118.313243,4.0442506 L118.313243,4.13856113 C118.313243,4.1700716 118.310552,4.19889484 118.305059,4.2251781 L115.158725,4.2251781 Z M117.57054,3.57218258 C117.479958,3.30478535 117.329624,3.08715698 117.119275,2.91929749 C116.909001,2.75147481 116.668085,2.66765549 116.396639,2.66765549 C116.125043,2.66765549 115.884202,2.75147481 115.673853,2.91929749 C115.463654,3.08715698 115.31317,3.30478535 115.222663,3.57218258 L117.57054,3.57218258 Z" id="Fill-8" fill="#CE5017" fill-rule="nonzero" mask="url(#mask-6)"></path>
                                </g>
                            </g>
                            <g id="Group-16" transform="translate(173.396313, 16.666667)">
                                <g id="Fill-14-Clipped">
                                    <mask id="mask-8" fill="white">
                                        <use xlink:href="#path-7"></use>
                                    </mask>
                                    <g id="path-7"></g>
                                    <polygon id="Fill-14" fill="#FFFFFF" fill-rule="nonzero" mask="url(#mask-8)" points="13.760841 0.0275085286 16.8441287 0.0275085286 5.55069469 25.6276444 2.49998889 25.6276444 6.88300744 15.650588 0.00498533101 0.0275085286 3.05422043 0.0275085286 8.407493 12.1676634"></polygon>
                                </g>
                            </g>
                        </g>
                    </g>
                </g>
            </g>
        </g>
    </g>
</svg>