<?xml version="1.0" encoding="UTF-8"?>
<svg width="320px" height="460px" viewBox="0 0 320 460" version="1.1" xmlns="http://www.w3.org/2000/svg" xmlns:xlink="http://www.w3.org/1999/xlink">
    <!-- Generator: Sketch 41.2 (35397) - http://www.bohemiancoding.com/sketch -->
    <title>Map</title>
    <desc>Created with Sketch.</desc>
    <defs></defs>
    <g id="Page-1" stroke="none" stroke-width="1" fill="none" fill-rule="evenodd" fill-opacity="0.5" opacity="0.701142724">
        <g id="EM-27/02-Home-page" transform="translate(-201.000000, -150.000000)" fill="#F1E142">
            <g id="Map" transform="translate(201.000000, 150.000000)">
                <polyline id="Fill-92" points="119.869523 176.871896 117.12339 176.871896 117.346613 179.558664 119.869523 176.871896"></polyline>
                <polyline id="Fill-93" points="116.251372 145.842303 113.392824 147.185686 114.051253 153.671209 107.897345 149.445014 108.22656 154.471454 106.246453 153.140926 104.052759 155.2717 109.325013 159.149194 109.545025 157.029668 111.635941 158.591593 110.865096 160.375272 114.708077 167.289842 121.409606 166.590832 121.851236 172.17166 124.158951 171.822959 125.808237 166.794911 129.757209 164.535584 127.672717 162.986515 124.378963 163.671062 118.557481 160.568102 119.215911 150.855888 116.251372 145.842303"></polyline>
                <polyline id="Fill-94" points="119.545126 227.219862 117.12339 217.854742 108.888201 221.238912 109.003828 228.603419 114.274477 225.241745 113.612836 230.811324 119.545126 227.219862"></polyline>
                <polyline id="Fill-95" points="124.48656 218.82532 128.885191 209.09543 118.997505 218.295037 120.972794 223.538412 124.48656 218.82532"></polyline>
                <polyline id="Fill-96" points="185.347941 99.900507 183.488279 97.0048402 180.958945 97.5736892 184.145102 102.588881 185.347941 99.900507"></polyline>
                <polyline id="Fill-97" points="116.357363 209.365392 114.602086 214.857839 117.12339 212.273914 116.357363 209.365392"></polyline>
                <polyline id="Fill-98" points="105.596053 190.982246 109.325013 189.303016 110.535881 184.935412 105.596053 190.982246"></polyline>
                <path d="M236.002056,13.1333437 L232.123745,14.0766048 L231.06544,17.6552119 C231.06544,17.6552119 235.160551,20.0575549 235.362898,20.0575549 L236.002056,13.1333437" id="Fill-99"></path>
                <polyline id="Fill-100" points="126.90669 194.13502 123.278904 193.590275 118.663473 188.371004 113.392824 192.078164 120.861985 195.737118 116.686578 197.985196 117.789849 199.767269 112.843597 203.360338 123.502127 200.969244 123.942151 202.635618 128.997606 198.824008 126.90669 194.13502"></polyline>
                <polyline id="Fill-101" points="243.651081 14.0766048 243.546696 7.56376468 241.447751 5.99059162 241.03021 9.67043464 238.727313 13.0305009 241.76733 16.1816678 243.651081 14.0766048"></polyline>
                <polyline id="Fill-102" points="249.625126 0.109270448 245.8512 3.88392166 247.429825 6.62211053 249.625126 0.109270448"></polyline>
                <polyline id="Fill-103" points="240.720267 38.1193171 239.042074 36.4899019 236.519164 41.2190626 240.720267 38.1193171"></polyline>
                <polyline id="Fill-104" points="189.964978 85.3675374 187.218844 85.8190815 189.531378 88.2744527 189.964978 85.3675374"></polyline>
                <polyline id="Fill-105" points="236.631579 28.7911561 238.934477 33.417474 242.080486 34.5680276 240.823046 29.9401027 243.450341 27.1135334 242.705191 23.9591526 245.120504 21.4282562 241.141019 20.0575549 237.885807 18.3927875 236.209221 20.0575549 237.575864 22.0613821 236.944735 24.7867156 231.06544 24.168052 227.506708 25.6383823 229.710039 28.5854706 236.631579 28.7911561"></polyline>
                <polyline id="Fill-106" points="184.479135 91.8659153 184.806744 95.9989093 190.194625 95.3015067 193.151135 97.1880288 193.268367 92.8316732 187.000439 93.4133776 189.083324 90.9612202 185.686791 87.6124024 181.397363 87.9627106 181.397363 93.2076921 183.261843 95.3272174 184.479135 91.8659153"></polyline>
                <polyline id="Fill-107" points="144.152729 221.987736 141.732599 219.530758 141.300604 223.446818 144.48355 226.106267 144.152729 221.987736"></polyline>
                <polyline id="Fill-108" points="317.520462 349.837374 316.187544 342.680159 306.497387 335.109967 293.054181 334.478448 284.684095 334.735555 284.027271 341.015392 281.811093 344.606854 277.404433 339.696112 272.120936 338.378439 280.499052 330.056209 280.499052 324.902822 273.882637 314.181462 271.245707 313.741167 265.445102 310.358604 263.02979 306.2465 260.058827 306.816956 257.977547 307.490254 254.462175 306.273817 252.368047 306.273817 256.325049 305.269493 258.847959 305.925116 263.14381 305.005959 265.772711 306.220789 268.08685 308.562069 271.044966 308.004468 273.911544 308.650449 266.101926 298.960732 262.482169 294.297455 264.783461 290.603149 266.869559 289.814152 263.02979 287.709089 261.38211 284.800567 259.729612 284.594882 255.160753 276.195519 248.327538 272.632981 238.629351 270.436324 238.194145 266.637569 235.987603 265.295792 232.901013 254.791367 229.371188 248.988785 226.947846 235.554947 224.082874 231.084501 221.449156 231.110211 213.28784 219.042254 208.449185 217.943122 204.705772 214.830521 198.524563 212.388005 196.10925 214.624836 191.257748 217.787251 184.432563 215.580952 181.169321 216.018034 175.681873 214.261672 174.037404 211.251914 177.335976 212.919895 183.928302 213.450179 189.414145 211.642395 191.069855 207.284433 196.671324 207.482084 201.71875 203.656011 196.562121 201.226351 196.224877 198.216593 194.141991 196.550218 187.000439 200.374684 185.791176 198.928457 191.277019 194.882237 197.878981 195.309677 201.71875 191.938363 202.378785 188.914142 205.020533 187.233306 208.861908 179.740245 211.286856 176.267695 210.951218 173.825179 213.700563 168.78749 212.709707 167.005417 215.129837 160.052282 219.737239 156.137829 219.737239 151.681844 212.926507 145.455035 211.498839 146.565416 199.85427 146.95429 192.714323 145.631796 190.629831 147.106947 187.112853 147.106947 182.712616 145.569127 179.64048 145.699287 179.195639 147.262819 174.805037 148.617451 170.088433 151.204589 168.215923 151.10014 165.024948 153.682457 164.037304 152.690989 168.32352 147.754536 172.829748 140.467161 169.534388 142.278158 165.463366 140.727482 167.883496 139.149488 168.76515 135.789421 180.078898 127.26472 183.374258 121.683892 187.218844 120.311584 189.083324 115.288357 187.112853 113.053134 189.303336 109.488989 189.083324 107.252158 183.374258 107.265014 181.068148 109.746096 177.440361 108.632501 171.952913 111.113583 166.895852 110.572052 162.611241 112.381442 160.200747 112.39269 157.674625 114.746826 158.219034 112.172542 155.904895 111.166612 151.185079 115.326923 152.615959 111.643866 146.129624 108.645357 145.034382 112.677115 142.839081 114.356345 143.495905 118.039401 142.179046 118.153493 142.392634 122.741244 137.674424 123.761638 139.983745 127.65038 137.997215 131.577688 135.691105 131.694994 141.300604 136.694117 143.275893 140.258261 137.562009 137.378664 135.471093 139.175198 131.303716 136.411299 131.082098 138.411912 132.180551 141.087431 130.862086 143.104114 128.666785 138.760614 126.686679 143.333903 128.885191 145.790881 127.12349 148.140196 130.532871 152.043401 133.825019 152.131781 129.978827 153.59247 126.033067 151.384564 126.90669 157.754388 126.797487 159.873914 134.043425 158.720146 129.317185 161.08553 128.803289 162.403203 130.330524 163.346464 134.921867 161.657593 133.825019 162.83225 135.684681 165.157461 132.292966 163.773905 130.932747 164.676993 129.951526 167.7912 131.812794 169.121729 129.073084 169.562024 127.324231 172.247185 130.500753 173.331855 131.210572 175.775978 126.020219 173.799468 125.034181 177.247915 127.105825 178.682893 125.901381 180.956683 123.447526 182.738755 118.363164 182.868915 116.180711 185.168416 118.094975 186.37039 122.411704 186.085966 125.303976 186.952095 124.650364 188.24245 121.32128 188.24245 125.808237 192.479894 127.232693 191.912652 129.545227 194.351954 141.300604 182.468793 139.429701 186.045793 141.194613 187.15778 137.674424 188.399928 134.807846 195.232545 135.141879 196.89892 131.523727 203.835986 133.06381 204.727826 129.978827 212.997028 130.748065 218.344852 128.551159 221.497626 130.198839 224.158682 132.284936 223.149538 128.551159 229.080673 127.894335 237.349875 125.148201 240.036643 125.363396 242.038863 131.523727 242.011545 130.642074 237.775709 133.277399 231.629246 133.06381 227.828884 136.248361 223.912824 133.825019 213.655864 136.137553 213.641402 143.386702 204.909407 137.894436 213.178609 137.2344 219.222229 139.325316 220.772905 139.75731 217.207154 143.386702 214.170078 145.034382 219.741264 148.002133 213.033987 147.343704 208.344999 149.763834 207.106065 148.772978 213.140043 154.923674 217.801713 149.641784 216.381198 147.777304 224.092799 148.983354 229.790931 152.172723 230.539755 154.037203 235.567803 149.312569 240.385344 144.541363 252.904845 145.651058 258.498528 141.453167 255.837471 141.682815 261.884305 147.407941 269.918896 145.651058 262.530286 149.614483 261.392588 159.74627 268.742632 159.966281 262.930408 155.781239 259.584804 158.421381 258.89865 166.584302 264.015078 172.306216 263.097528 172.306216 260.645371 177.59453 260.836594 179.144249 255.914603 193.457867 256.523625 183.979692 259.027204 178.251354 275.398488 185.302975 288.122067 188.8328 286.094136 188.8328 292.811055 193.457867 287.20291 199.189416 288.070646 197.206098 295.022175 198.967799 296.132555 193.268367 300.601395 195.017221 308.417446 191.943479 314.348582 195.463668 318.910623 199.635864 322.579218 203.043639 322.898994 200.731105 324.579831 196.891336 324.827296 193.592764 320.14795 190.411425 321.390098 193.041932 325.950532 195.897268 327.718143 191.400676 326.737922 187.769677 323.069328 178.543633 326.014809 174.365013 325.368828 164.806542 330.083526 159.871532 337.0222 152.940356 341.413908 149.975816 345.664207 154.376053 344.863961 156.568142 345.638496 157.229784 343.069034 167.008267 340.461005 166.129825 345.59993 169.534388 349.164075 165.911419 351.852449 167.994305 355.755654 170.300415 356.297185 163.928101 368.493696 159.311064 370.070083 154.698844 373.558702 152.394341 373.687256 146.458839 377.383168 142.179046 377.407272 135.259111 381.901822 140.74656 382.650646 141.075775 386.684011 137.118773 388.597851 144.152729 389.783757 142.392634 391.459773 145.141979 393.026518 149.100587 391.88882 153.7112 389.073499 161.185179 386.594024 161.845215 390.055326 167.777505 391.485483 162.948486 392.833688 162.397653 395.623298 170.52685 395.833805 170.52685 394.252597 174.580207 393.121326 178.763644 397.908336 182.49421 402.353072 191.834276 402.21327 194.032788 398.517358 198.428207 396.605125 204.468095 394.344191 206.77581 390.984125 211.829659 388.623562 204.909724 396.685471 197.988184 403.296333 197.654151 411.13006 192.942364 410.922768 189.202163 412.264545 184.909523 409.939334 172.829748 408.645765 164.257316 410.922768 164.364913 415.274303 160.738732 418.745246 156.022127 418.772564 155.244859 428.712961 150.197434 433.299106 148.880575 435.87821 143.275893 436.914672 141.853043 442.601556 139.429701 442.627267 138.10963 445.637025 131.303716 450.579906 128.231579 449.474346 123.502127 452.845661 123.502127 457.197196 128.666785 457.507331 128.885191 453.60734 135.141879 455.260859 137.714572 459.850218 140.791526 456.912771 139.474667 454.690403 142.341244 450.867544 143.715917 452.649617 147.228077 449.294371 149.530975 449.267054 151.294281 445.024789 156.678951 446.446912 160.855964 444.5395 164.257316 445.081031 166.680658 443.736041 169.091153 446.96916 171.952913 446.73455 175.91152 450.070513 180.518921 449.82144 179.64048 446.811682 183.261843 445.119597 184.255911 442.326773 183.261843 437.305153 186.454424 434.162021 189.083324 433.814927 190.194625 431.799851 200.506276 429.424826 205.903793 429.847445 212.158874 434.174876 214.469801 433.273395 221.27411 433.581924 224.90832 434.90281 226.655567 430.546455 232.925102 427.396895 237.209713 428.597263 243.256024 424.565505 247.526181 425.544118 249.737541 425.197024 252.698868 422.9618 253.575704 425.184168 257.205096 427.276376 261.38211 424.48998 270.829772 424.327681 276.760456 423.077498 282.474341 424.952772 285.329677 425.494303 289.617499 422.033001 294.340527 421.097775 298.514329 417.172073 301.368059 416.953532 304.339022 417.615583 303.677381 414.369608 310.383727 409.772214 314.552711 408.856271 314.889956 404.615613 313.683905 401.605855 314.994341 398.131698 307.415976 398.385591 302.024883 400.415129 298.907781 400.971123 293.882839 399.163339 292.023176 398.673229 293.767212 397.047028 295.304083 396.825273 295.792284 395.833805 291.204154 394.667182 287.271241 396.140726 292.789203 392.277694 296.450714 392.653713 300.934459 390.495622 299.619206 386.709722 295.218969 386.709722 298.514329 383.802807 300.934459 381.437423 303.574601 383.661398 307.632776 380.74002 309.280456 378.183413 307.303561 377.730262 308.623633 375.726435 303.897393 375.184904 305.76669 372.046592 308.728018 372.822734 309.601641 375.05635 313.017446 370.574655 316.322441 369.216809 316.854003 360.819054 319.938987 352.964437 317.520462 349.837374"></polyline>
                <polyline id="Fill-109" points="111.855953 171.990078 114.162062 176.552119 116.137351 174.755585 114.602086 171.524072 111.855953 171.990078"></polyline>
                <polyline id="Fill-110" points="297.213529 396.865446 295.19488 397.990289 298.633167 399.745044 301.631431 398.95444 299.946815 396.915261 297.213529 396.865446"></polyline>
                <polyline id="Fill-111" points="243.357197 427.008021 235.668024 431.055848 239.406619 431.823955 243.357197 434.716408 247.206601 434.035075 247.206601 432.018392 249.071081 428.777238 246.217351 429.10987 243.357197 427.008021"></polyline>
                <path d="M162.063621,329.32024 L168.867929,323.922601 L163.928101,324.515554 L161.617173,319.709261 L155.57568,320.509507 C155.57568,320.509507 154.037203,325.108507 154.148012,325.330262 L162.063621,329.32024" id="Fill-112"></path>
                <polyline id="Fill-113" points="134.929896 229.725048 136.349535 238.085844 141.853043 240.308212 143.495905 234.598831 139.538904 226.458183 134.929896 229.725048"></polyline>
                <polyline id="Fill-114" points="150.85747 287.05186 148.654139 294.54492 153.496006 293.728606 160.417547 286.791539 159.311064 283.767319 160.305132 278.858183 150.85747 287.05186"></polyline>
                <polyline id="Fill-115" points="130.748065 281.311947 126.466667 280.436177 128.109529 275.964123 126.466667 272.632981 129.649612 272.166975 132.946578 282.088089 131.191301 269.377365 123.384895 268.964387 127.672717 265.808399 119.215911 253.795078 118.663473 248.434398 114.382074 246.10758 105.596053 245.241451 100.094151 248.834521 96.802003 249.197684 95.0403022 251.209546 89.5849719 252.282967 86.9175289 252.81325 92.7374044 248.212643 97.8956385 245.292873 91.7513659 241.960124 87.4587259 238.188687 89.4500741 242.193127 83.5161778 242.218838 84.4973985 248.80881 80.3268089 254.842788 80.8680059 250.823886 83.1789333 248.034275 80.3268089 243.02069 76.4806163 243.80808 78.78512 247.037986 74.2772859 247.270989 71.8635793 244.828473 63.9479704 246.872473 63.8387674 250.668014 61.3222815 250.786926 59.4481659 255.48877 63.4019556 257.153537 62.30832 259.38876 58.2437215 259.504458 58.6805333 261.741289 52.9682548 263.227688 54.5051259 267.799371 60.7634193 267.775267 59.7838044 269.454497 64.8344415 267.749557 68.2325807 267.852399 61.6434667 274.789466 53.4018548 277.955095 56.2620089 280.619366 48.1296 282.115407 43.8465956 280.228884 40.2332622 284.374734 38.4635319 279.012447 25.169677 277.077718 25.169677 279.401322 17.8081126 277.437667 16.4848296 285.472259 20.1142222 281.777954 20.8898844 286.688696 22.5359585 287.567681 24.2896296 292.372366 21.0006933 292.489672 20.443437 289.700061 13.3018844 289.955561 21.5418904 295.835276 27.2605926 294.363338 29.1218607 298.935021 21.8791348 300.406958 20.8898844 303.649719 22.9759822 306.543779 14.8419674 306.686795 16.7064474 311.594324 13.8511111 312.733629 18.1421452 315.394686 21.657517 314.142896 19.5666015 316.842519 26.1573215 315.458962 27.9174163 322.604928 43.6281896 322.423347 38.5743407 327.589589 34.9497659 325.368828 29.0158696 335.211203 31.6431644 334.875357 26.8157511 341.595489 16.7064474 348.543804 20.7726519 348.543804 26.2681304 344.952342 29.6678756 346.943314 36.4850311 347.136144 41.0956444 342.537144 41.5420919 344.669524 47.2559763 345.186952 34.3941156 348.701282 24.8404622 349.08855 22.5359585 352.768393 16.2744533 354.797931 18.4697541 357.809296 17.0356622 360.613368 19.793037 361.387903 15.1695763 362.292598 11.2189985 358.958242 9.68212741 361.206321 8.36687407 359.629934 0.668065185 363.687403 1.43890963 365.808535 19.2373867 364.720651 13.3018844 369.771196 5.83593481 371.490598 3.30981333 377.640275 8.03284148 377.616171 9.13450667 381.075866 22.6451615 376.658448 12.4266548 383.299841 8.14204444 386.878449 15.3944059 386.851131 24.7296533 381.683282 24.2896296 385.366338 16.2744533 389.087961 20.6714785 389.059037 19.3498015 391.853468 26.4849304 390.042471 30.1849837 392.653713 39.8831704 391.485483 49.1413333 388.774612 56.41136 383.817269 53.9751704 378.234835 59.4931319 378.64942 57.9450193 382.009486 63.6781748 381.995024 68.9664889 376.374023 72.9299141 376.581316 74.2596207 371.206174 90.558163 369.346969 91.8766281 365.755507 94.3015763 369.992951 97.8281896 366.632884 101.139609 367.961806 109.508089 367.92324 103.779751 360.561947 107.963188 358.752557 112.373061 353.353311 111.488196 348.649861 116.122898 343.480405 117.662981 337.666574 115.45965 324.671425 111.937855 322.461913 116.122898 319.760683 116.122898 313.922748 112.373061 308.134629 113.477938 302.295087 109.072883 299.193735 111.271396 295.807958 114.745013 296.301282 115.89325 296.468401 115.45965 292.218102 118.099793 292.876939 122.509665 289.272621 122.952901 285.240863 129.77648 286.121454 130.748065 281.311947"></polyline>
                <polyline id="Fill-116" points="98.0096593 132.506487 100.648196 134.744925 105.596053 133.931824 110.643479 135.24789 114.274477 130.104144 112.514382 128.77683 114.162062 124.523317 119.105102 119.924317 118.229873 112.447326 105.265233 121.656575 106.686477 126.011323 100.648196 123.24421 97.4604326 127.277575 100.535781 130.494626 98.0096593 132.506487"></polyline>
                <polyline id="Fill-117" points="98.4561067 196.821787 103.503532 193.010177 98.8929185 192.687187 98.4561067 196.821787"></polyline>
                <polyline id="Fill-118" points="103.175923 136.073846 100.76061 137.314387 99.6589452 139.666915 97.6804444 140.778903 101.306625 143.568513 107.680545 137.947513 103.175923 136.073846"></polyline>
                <polyline id="Fill-119" points="88.346803 170.633839 86.0390874 173.542361 85.8174696 176.563368 89.6572385 174.197984 88.346803 170.633839"></polyline>
                <polyline id="Fill-120" points="89.8820681 153.309652 89.8820681 155.091725 93.5082489 156.539558 95.0403022 152.5078 89.8820681 153.309652"></polyline>
                <polyline id="Fill-121" points="93.0666193 157.780099 90.1004741 157.222498 90.3204859 160.568102 88.7836148 164.161172 89.8820681 167.932609 93.2914489 168.710358 92.1865719 163.915313 93.61424 161.228546 93.0666193 157.780099"></polyline>
                <polyline id="Fill-122" points="96.368403 149.938338 96.6976178 146.708432 89.5544593 145.945145 87.3527348 147.185686 91.3033126 151.191734 96.368403 149.938338"></polyline>
            </g>
        </g>
    </g>
</svg>