<?xml version="1.0" encoding="UTF-8"?>
<svg width="92px" height="55px" viewBox="0 0 92 55" version="1.1" xmlns="http://www.w3.org/2000/svg" xmlns:xlink="http://www.w3.org/1999/xlink">
    <!-- Generator: Sketch 49.1 (51147) - http://www.bohemiancoding.com/sketch -->
    <title>Group 2</title>
    <desc>Created with Sketch.</desc>
    <defs></defs>
    <g id="Landing-Page" stroke="none" stroke-width="1" fill="none" fill-rule="evenodd">
        <g transform="translate(-1067.000000, -9306.000000)" id="//-THEME-FEATURES-&amp;-PLUGINS">
            <g transform="translate(304.000000, 7346.000000)">
                <g id="Plugins-Section" transform="translate(0.000000, 1207.000000)">
                    <g id="Column" transform="translate(556.000000, 1.000000)">
                        <g id="MasterCard-light" transform="translate(158.812500, 710.647583)">
                            <g id="Group-2" transform="translate(48.000000, 41.000000)">
                                <path d="M55.2533309,28.0520668 C55.2533309,43.1083329 43.0339647,55.3122274 27.959574,55.3122274 C12.8847521,55.3122274 0.664523145,43.1083329 0.664523145,28.0520668 C0.664523145,12.9962315 12.8847521,0.791044604 27.959574,0.791044604 C43.0339647,0.791044604 55.2533309,12.9962315 55.2533309,28.0520668" id="Fill-333" fill="#CC0000"></path>
                                <path d="M64.60387,0.791044604 C57.5497729,0.791044604 51.1245663,3.46333906 46.279781,7.84722884 C45.2941743,8.7407221 44.374131,9.70572929 43.524827,10.7332035 L49.0394797,10.7332035 C49.7925954,11.6490987 50.4866178,12.6119518 51.1202529,13.6204705 L41.4436225,13.6204705 C40.8647673,14.5471359 40.3385352,15.509989 39.8709652,16.5077375 L52.6920475,16.5077375 C53.1302867,17.4421574 53.5159026,18.4045798 53.8480326,19.3937121 L38.7149801,19.3937121 C38.4001035,20.3337325 38.1343995,21.2970165 37.9221813,22.279256 L54.6399687,22.279256 C55.0402501,24.1403412 55.2533309,26.0712172 55.2533309,28.0520668 C55.2533309,31.0784844 54.7594492,33.9915999 53.8480326,36.7121447 L38.7149801,36.7121447 C39.0471101,37.7004154 39.432726,38.6641302 39.8701025,39.5998425 L52.6920475,39.5998425 C52.2236148,40.5950062 51.6999708,41.5587209 51.1176649,42.4866787 L41.4436225,42.4866787 C42.0746696,43.4921818 42.769986,44.4563273 43.524827,45.3709301 L49.0377544,45.3709301 C48.1901758,46.3992659 47.2692697,47.3642731 46.2806437,48.2577664 C51.1249976,52.6416562 57.5497729,55.3122274 64.60387,55.3122274 C79.6778293,55.3122274 91.8976269,43.1083329 91.8976269,28.0520668 C91.8976269,12.9975239 79.6778293,0.791044604 64.60387,0.791044604" id="Fill-334" fill="#FF9900"></path>
                                <path d="M21.5856966,31.0366962 C21.2747021,31.00137 21.1375367,30.990169 20.9240245,30.990169 C19.2443954,30.990169 18.3950914,31.5657269 18.3950914,32.702626 C18.3950914,33.402687 18.809607,33.8477104 19.4566136,33.8477104 C20.6639278,33.8477104 21.533936,32.7000411 21.5856966,31.0366962 L21.5856966,31.0366962 Z M23.7410911,36.0474098 L21.2850542,36.0474098 L21.3415594,34.8820775 C20.5927571,35.8022808 19.5933476,36.2417037 18.2359278,36.2417037 C16.6304888,36.2417037 15.5292836,34.9897792 15.5292836,33.1704821 C15.5292836,30.4318434 17.4439918,28.8348427 20.7312165,28.8348427 C21.0680913,28.8348427 21.4985663,28.8658608 21.9393935,28.9214349 C22.0308371,28.5500794 22.054992,28.3924042 22.054992,28.192079 C22.054992,27.4476449 21.5391121,27.1684821 20.1549493,27.1684821 C18.7052233,27.1538347 17.5095551,27.5144199 17.0182614,27.6755417 C17.0493178,27.4885715 17.4293263,25.1462751 17.4293263,25.1462751 C18.905364,24.7128834 19.8793245,24.5509001 20.9753537,24.5509001 C23.5202462,24.5509001 24.8681766,25.6916765 24.8651572,27.8482952 C24.8703333,28.4268687 24.774145,29.1381307 24.6253335,30.0764279 C24.3682562,31.7048775 23.8161439,35.197428 23.7410911,36.0474098 L23.7410911,36.0474098 Z" id="Fill-336" fill="#000066"></path>
                                <polyline id="Fill-337" fill="#000066" points="14.2891877 36.0474098 11.3254662 36.0474098 13.0240742 25.418545 9.23304694 36.0474098 7.21395508 36.0474098 6.96421054 25.4779963 5.18019773 36.0474098 2.40669619 36.0474098 4.72341109 22.2198046 8.98459642 22.2198046 9.24210503 29.9596792 11.8417775 22.2198046 16.580885 22.2198046 14.2891877 36.0474098"></polyline>
                                <path d="M68.2650646,31.0366962 C67.9540701,31.00137 67.81863,30.990169 67.6055492,30.990169 C65.9246261,30.990169 65.0761848,31.5657269 65.0761848,32.702626 C65.0761848,33.402687 65.488975,33.8477104 66.1377069,33.8477104 C67.3441585,33.8477104 68.214598,32.7000411 68.2650646,31.0366962 L68.2650646,31.0366962 Z M70.4217532,36.0474098 L67.9665789,36.0474098 L68.0222214,34.8820775 C67.2734191,35.8022808 66.274441,36.2417037 64.9178839,36.2417037 C63.3102882,36.2417037 62.210377,34.9897792 62.210377,33.1704821 C62.210377,30.4318434 64.1259478,28.8348427 67.4123099,28.8348427 C67.7487533,28.8348427 68.1783657,28.8658608 68.6196242,28.9214349 C68.7114991,28.5500794 68.7352227,28.3924042 68.7352227,28.192079 C68.7352227,27.4476449 68.2193428,27.1684821 66.83518,27.1684821 C65.3854539,27.1538347 64.1902171,27.5144199 63.6971981,27.6755417 C63.7299798,27.4885715 64.110851,25.1462751 64.110851,25.1462751 C65.586026,24.7128834 66.5608492,24.5509001 67.655153,24.5509001 C70.2017709,24.5509001 71.5479759,25.6916765 71.5453879,27.8482952 C71.550564,28.4268687 71.4552383,29.1381307 71.3055641,30.0764279 C71.0493495,31.7048775 70.4959432,35.197428 70.4217532,36.0474098 L70.4217532,36.0474098 Z" id="Fill-338" fill="#000066"></path>
                                <path d="M36.9098317,35.8763795 C36.0984855,36.1314171 35.4665757,36.2417037 34.7807487,36.2417037 C33.266322,36.2417037 32.4394476,35.3723356 32.4394476,33.7710268 C32.418312,33.2738758 32.6572731,31.9663772 32.8453364,30.773904 C33.0170088,29.7231663 34.1307228,23.0999429 34.1307228,23.0999429 L37.0754654,23.0999429 L36.7316892,24.8020605 L38.5109573,24.8020605 L38.1093819,27.5049422 L36.3240751,27.5049422 C35.9820243,29.6430362 35.4941813,32.3071454 35.4885739,32.6604069 C35.4885739,33.2402728 35.7982744,33.4935872 36.5035116,33.4935872 C36.841249,33.4935872 37.1026397,33.4591227 37.302349,33.3876088 L36.9098317,35.8763795" id="Fill-339" fill="#000066"></path>
                                <path d="M45.9403182,35.7854793 C44.9283999,36.0943678 43.9531453,36.2451501 42.9183661,36.2417037 C39.6207893,36.2373956 37.9019085,34.5184766 37.9019085,31.2249587 C37.9019085,27.3813006 40.0883594,24.5509001 43.0572569,24.5509001 C45.4852569,24.5509001 47.0367787,26.1354074 47.0367787,28.6194393 C47.0367787,29.4452959 46.9306696,30.250043 46.673161,31.3856497 L40.8078307,31.3856497 C40.6098467,33.0171149 41.6545466,33.6964972 43.3691141,33.6964972 C44.4220094,33.6964972 45.3735404,33.4793706 46.4307492,32.9895433 L45.9403182,35.7854793 L45.9403182,35.7854793 Z M44.284844,29.1191752 C44.3016662,28.8843855 44.5967012,27.1116156 42.9131901,27.1116156 C41.9763246,27.1116156 41.3047317,27.8258932 41.0325576,29.1191752 L44.284844,29.1191752 L44.284844,29.1191752 Z" id="Fill-340" fill="#000066"></path>
                                <path d="M25.5182025,28.3575088 C25.5182025,29.7787404 26.2083429,30.7596874 27.7740988,31.4967978 C28.973649,32.0607239 29.1604182,32.2274461 29.1604182,32.7379521 C29.1604182,33.4380132 28.6307355,33.7559486 27.4587909,33.7559486 C26.5741173,33.7559486 25.7519876,33.6172288 24.8034759,33.3109252 C24.8034759,33.3109252 24.4148407,35.790649 24.3962931,35.9091208 C25.0696113,36.0547335 25.6700334,36.1904377 27.4799265,36.2417037 C30.6062623,36.2417037 32.050381,35.052677 32.050381,32.4829145 C32.050381,30.9380414 31.4465082,30.0311931 29.9618437,29.3487952 C28.7200224,28.7796994 28.576387,28.6521806 28.576387,28.127458 C28.576387,27.5195896 29.069406,27.2089779 30.0265444,27.2089779 C30.608419,27.2089779 31.4025117,27.2710141 32.1560587,27.3774234 L32.5774757,24.7693191 C31.8105572,24.6474008 30.646808,24.5509001 29.9696078,24.5509001 C26.6552088,24.5509001 25.5074191,26.2797277 25.5182025,28.3575088" id="Fill-341" fill="#000066"></path>
                                <path d="M60.3517428,24.847726 C61.1747351,24.847726 61.9433789,25.0614061 62.999725,25.5943141 L63.48498,22.5933141 C63.0493289,22.4227146 61.521962,21.4228121 60.2279488,21.4228121 C58.2455207,21.4228121 56.5676169,22.4067748 55.3896336,24.0270391 C53.6694588,23.4583741 52.9616336,24.6077666 52.0955075,25.7537126 L51.3255696,25.9329282 C51.3838002,25.5559723 51.4368548,25.1816012 51.4200326,24.8020605 L48.6974289,24.8020605 C48.3264785,28.28341 47.6678258,31.8082711 47.1523772,35.2909131 L47.0173685,36.0474098 L49.9819526,36.0474098 C50.476697,32.8361761 50.7471458,30.7807969 50.9119168,29.3884294 L52.0282188,28.7706525 C52.1960092,28.1498599 52.7166338,27.9413495 53.7639218,27.9667671 C53.6271877,28.7000002 53.5529976,29.4724367 53.5529976,30.2715833 C53.5529976,33.951104 55.5431899,36.2417037 58.7316383,36.2417037 C59.5533366,36.2417037 60.2590051,36.134002 61.3515836,35.8367453 L61.8709142,32.6858245 C60.8883269,33.1678973 60.083882,33.3949325 59.35449,33.3949325 C57.6317271,33.3949325 56.5891838,32.1244833 56.5891838,30.0260235 C56.5891838,26.9806503 58.1385489,24.847726 60.3517428,24.847726" id="Fill-342" fill="#000066"></path>
                                <path d="M85.4392072,22.2198046 L84.7805545,26.2146759 C83.9717963,25.1501523 83.1013568,24.3790082 81.9522731,24.3790082 C80.4572565,24.3790082 79.096386,25.5111684 78.2052423,27.1783906 C76.9642837,26.921199 75.6819166,26.4839301 75.6819166,26.4839301 L75.681054,26.4947003 C75.7798303,25.5628652 75.8216701,24.9959235 75.8117493,24.8020605 L73.089577,24.8020605 C72.7199205,28.28341 72.0604052,31.8082711 71.5453879,35.2909131 L71.4090852,36.0474098 L74.374532,36.0474098 C74.7748134,33.4522298 75.0806319,31.2947494 75.3062215,29.5861697 C76.3198651,28.6711361 76.8271183,27.875436 77.8489574,27.9271328 C77.3956214,29.0222437 77.1312114,30.2827843 77.1312114,31.5760663 C77.1312114,34.3862189 78.5537632,36.2417037 80.7087264,36.2417037 C81.7948348,36.2417037 82.6281793,35.8673326 83.4408195,35.0005493 L83.3010661,36.0465482 L86.1047613,36.0465482 L88.3619516,22.2198046 L85.4392072,22.2198046 L85.4392072,22.2198046 Z M81.7335849,33.4496449 C80.7251173,33.4496449 80.2144134,32.702626 80.2144134,31.2327132 C80.2144134,29.0222437 81.1689638,27.4553994 82.5125808,27.4553994 C83.5309691,27.4553994 84.0830814,28.2291284 84.0830814,29.6576837 C84.0830814,31.8871087 83.1125715,33.4496449 81.7335849,33.4496449 L81.7335849,33.4496449 Z" id="Fill-343" fill="#000066"></path>
                                <polyline id="Fill-344" fill="#FFFFFF" points="15.141511 35.2267229 12.1786522 35.2267229 13.8768288 24.597858 10.0866643 35.2267229 8.06670975 35.2267229 7.81739655 24.6594634 6.0329524 35.2267229 3.25945087 35.2267229 5.57616576 21.4004101 9.83735109 21.4004101 9.9564003 29.9596792 12.8316975 21.4004101 17.4336397 21.4004101 15.141511 35.2267229"></polyline>
                                <path d="M22.4384512,30.2177325 C22.1278881,30.1815447 21.9907227,30.1716362 21.7772105,30.1716362 C20.0975814,30.1716362 19.2478461,30.7463324 19.2478461,31.8823699 C19.2478461,32.5815693 19.662793,33.0291775 20.3102309,33.0291775 C21.5171139,33.0291775 22.387122,31.8815083 22.4384512,30.2177325 L22.4384512,30.2177325 Z M24.5934145,35.2267229 L22.1386715,35.2267229 L22.1947454,34.0622522 C21.4459431,34.9820247 20.4465336,35.4218784 19.0891138,35.4218784 C17.4832435,35.4218784 16.3824696,34.1682306 16.3824696,32.3493644 C16.3824696,29.6102949 18.2976091,28.0154482 21.5848339,28.0154482 C21.920846,28.0154482 22.351321,28.0460355 22.7925795,28.102902 C22.8840231,27.7306849 22.908178,27.5725789 22.908178,27.3713921 C22.908178,26.6273888 22.3922981,26.35038 21.0081353,26.35038 C19.5579779,26.3331477 18.3627411,26.693733 17.8710161,26.854424 C17.9025038,26.6683154 18.282081,24.326019 18.282081,24.326019 C19.75855,23.893489 20.7325105,23.7302132 21.8285397,23.7302132 C24.3730009,23.7302132 25.7204999,24.872282 25.7183432,27.0280391 C25.723088,27.605751 25.6277623,28.3204594 25.4785195,29.2561717 C25.2210109,30.883329 24.6688986,34.3780335 24.5934145,35.2267229 L24.5934145,35.2267229 Z" id="Fill-345" fill="#FFFFFF"></path>
                                <path d="M64.3373033,21.7726272 L63.8520484,24.7731964 C62.7939769,24.2420116 62.0274898,24.0270391 61.2053601,24.0270391 C58.9930289,24.0270391 57.4410758,26.1625483 57.4410758,29.2083522 C57.4410758,31.306812 58.4840504,32.5746764 60.2068133,32.5746764 C60.9366367,32.5746764 61.7428069,32.3493644 62.7232375,31.8655684 L62.2026129,35.0164892 C61.1117598,35.3133151 60.40566,35.4218784 59.584393,35.4218784 C56.3937878,35.4218784 54.406615,33.1308479 54.406615,29.4521888 C54.406615,24.5091118 57.1538049,21.0544723 61.0807035,21.0544723 C62.3747167,21.0544723 63.9029462,21.6020277 64.3373033,21.7726272" id="Fill-346" fill="#FFFFFF"></path>
                                <path d="M69.1173879,30.2177325 C68.8085501,30.1815447 68.6709534,30.1716362 68.4578725,30.1716362 C66.7791061,30.1716362 65.9289395,30.7463324 65.9289395,31.8823699 C65.9289395,32.5815693 66.343455,33.0291775 66.9904616,33.0291775 C68.1969132,33.0291775 69.0677841,31.8815083 69.1173879,30.2177325 L69.1173879,30.2177325 Z M71.2740765,35.2267229 L68.8193335,35.2267229 L68.8749761,34.0622522 C68.1261738,34.9820247 67.1267643,35.4218784 65.7706385,35.4218784 C64.1630428,35.4218784 63.063563,34.1682306 63.063563,32.3493644 C63.063563,29.6102949 64.9769771,28.0154482 68.2650646,28.0154482 C68.6010766,28.0154482 69.030689,28.0460355 69.4715162,28.102902 C69.5633911,27.7306849 69.587546,27.5725789 69.587546,27.3713921 C69.587546,26.6273888 69.0729601,26.35038 67.6879347,26.35038 C66.2390713,26.3331477 65.0442658,26.693733 64.5516781,26.854424 C64.5827344,26.6683154 64.962743,24.326019 64.962743,24.326019 C66.439212,23.893489 67.4123099,23.7302132 68.508339,23.7302132 C71.0528002,23.7302132 72.4015933,24.872282 72.3981426,27.0280391 C72.4041813,27.605751 72.307993,28.3204594 72.1587502,29.2561717 C71.9021042,30.883329 71.3499919,34.3780335 71.2740765,35.2267229 L71.2740765,35.2267229 Z" id="Fill-347" fill="#FFFFFF"></path>
                                <path d="M37.762155,35.0561234 C36.9516715,35.311161 36.318899,35.4218784 35.6339347,35.4218784 C34.1190767,35.4218784 33.2917709,34.5520795 33.2917709,32.9524939 C33.2710667,32.4536197 33.5104591,31.1482751 33.6989537,29.9545095 C33.8693321,28.9029102 34.9834775,22.2805484 34.9834775,22.2805484 L37.9290827,22.2805484 L37.5844439,23.9822352 L39.096714,23.9822352 L38.6938445,26.6842553 L37.1768298,26.6842553 C36.834779,28.8245034 36.346936,31.4868892 36.3408973,31.8401508 C36.3408973,32.42174 36.6518918,32.6733311 37.3562663,32.6733311 C37.6940037,32.6733311 37.954963,32.640159 38.155535,32.5669218 L37.762155,35.0561234" id="Fill-348" fill="#FFFFFF"></path>
                                <path d="M46.7943669,34.9669464 C45.7820173,35.2766965 44.804606,35.42274 43.7711208,35.4218784 C40.4731126,35.4197243 38.7555258,33.6986513 38.7555258,30.4055642 C38.7555258,26.5606137 40.9415454,23.7302132 43.9082862,23.7302132 C46.3388743,23.7302132 47.8895334,25.3147205 47.8895334,27.8017681 C47.8895334,28.6259014 47.7816989,29.4302177 47.5272097,30.5662552 L41.6610167,30.5662552 C41.46217,32.1977204 42.508164,32.8783951 44.2210061,32.8783951 C45.2747641,32.8783951 46.2258638,32.6604069 47.2843665,32.1692872 L46.7943669,34.9669464 L46.7943669,34.9669464 Z M45.1384614,28.2984883 C45.1544209,28.0632678 45.4507499,26.2913595 43.7676701,26.2913595 C42.8299419,26.2913595 42.1583491,27.0069296 41.8853123,28.2984883 L45.1384614,28.2984883 L45.1384614,28.2984883 Z" id="Fill-349" fill="#FFFFFF"></path>
                                <path d="M26.3705259,27.5368219 C26.3705259,28.9606383 27.0615289,29.9394313 28.6277162,30.6774033 C29.8272664,31.2408986 30.0131729,31.4076208 30.0131729,31.9185576 C30.0131729,32.6194803 29.4839215,32.9356924 28.3111143,32.9356924 C27.4273033,32.9356924 26.6047423,32.7986959 25.6557993,32.4932539 C25.6557993,32.4932539 25.2675953,34.9712545 25.2494791,35.0880031 C25.922366,35.235339 26.5232194,35.3697508 28.3322498,35.4218784 C31.4594483,35.4218784 32.903567,34.2332825 32.903567,31.66352 C32.903567,30.1177853 32.2988315,29.2113678 30.8145984,28.5306931 C29.5723458,27.9598741 29.429573,27.8336478 29.429573,27.3080635 C29.429573,26.7001951 29.9221607,26.3874294 30.8801617,26.3874294 C31.4607423,26.3874294 32.2556977,26.4520504 33.0088134,26.5580289 L33.4306617,23.9503555 C32.6633119,23.8292987 31.5004254,23.7302132 30.8227938,23.7302132 C27.5075321,23.7302132 26.3606051,25.4594716 26.3705259,27.5368219" id="Fill-350" fill="#FFFFFF"></path>
                                <path d="M86.957516,35.2267229 L84.1546835,35.2267229 L84.2935742,34.1802932 C83.4805026,35.0475073 82.6475895,35.4218784 81.5614811,35.4218784 C79.4082432,35.4218784 77.9835347,33.5685476 77.9835347,30.7553793 C77.9835347,27.0151149 80.1924152,23.8624709 82.8050277,23.8624709 C83.9541114,23.8624709 84.8241196,24.3311886 85.6346032,25.396143 L86.2919619,21.4004101 L89.2142749,21.4004101 L86.957516,35.2267229 L86.957516,35.2267229 Z M82.5859082,32.6285272 C83.9666202,32.6285272 84.9354047,31.0668526 84.9354047,28.8395816 C84.9354047,27.4105955 84.3837238,26.6342817 83.3653354,26.6342817 C82.0212871,26.6342817 81.0671681,28.2015567 81.0671681,30.4128879 C81.0671681,31.8845239 81.5783033,32.6285272 82.5859082,32.6285272 L82.5859082,32.6285272 Z" id="Fill-351" fill="#FFFFFF"></path>
                                <path d="M73.9431943,23.9822352 C73.5726752,27.4627231 72.9135912,30.9875842 72.3981426,34.470657 L72.2631339,35.2267229 L75.2268554,35.2267229 C76.2870835,28.3501851 76.5420041,27.008222 78.2052423,27.1758058 C78.4696523,25.7683601 78.9626713,24.5358219 79.3297397,23.9145985 C78.0887811,23.6561144 77.3956214,24.3566062 76.4872242,25.6877992 C76.5596889,25.1118105 76.6903842,24.5530541 76.665798,23.9822352 L73.9431943,23.9822352" id="Fill-352" fill="#FFFFFF"></path>
                                <path d="M49.5514776,23.9822352 C49.1792331,27.4627231 48.5192864,30.9875842 48.0047005,34.470657 L47.8701232,35.2267229 L50.8347073,35.2267229 C51.8953668,28.3501851 52.1494247,27.008222 53.8100749,27.1758058 C54.0762103,25.7683601 54.570092,24.5358219 54.9362977,23.9145985 C53.6966331,23.6561144 53.0021794,24.3566062 52.0955075,25.6877992 C52.1671095,25.1118105 52.2986675,24.5530541 52.2727873,23.9822352 L49.5514776,23.9822352" id="Fill-353" fill="#FFFFFF"></path>
                            </g>
                        </g>
                    </g>
                </g>
            </g>
        </g>
    </g>
</svg>