<?xml version="1.0" encoding="UTF-8"?>
<svg width="97px" height="97px" viewBox="0 0 97 97" version="1.1" xmlns="http://www.w3.org/2000/svg" xmlns:xlink="http://www.w3.org/1999/xlink">
    <!-- Generator: Sketch 41.2 (35397) - http://www.bohemiancoding.com/sketch -->
    <title>money-bag</title>
    <desc>Created with Sketch.</desc>
    <defs></defs>
    <g id="Styleguide" stroke="none" stroke-width="1" fill="none" fill-rule="evenodd">
        <g id="OZ-27/02-Home-page" transform="translate(-645.000000, -705.000000)">
            <g id="Group-12" transform="translate(0.000000, 655.000000)">
                <g id="Group-2" transform="translate(533.000000, 50.000000)">
                    <g id="money-bag" transform="translate(112.000000, 0.000000)">
                        <g id="Layer_1">
                            <circle id="Oval" fill="#2E2917" cx="48.5" cy="48.5" r="48.5"></circle>
                            <path d="M32.0787402,38.4944882 C29.1,35.0574803 26.3503937,31.4677165 23.7535433,27.8015748 C22.9133858,26.6559055 22.0732283,25.1283465 22.7606299,23.9062992 C23.3716535,22.8370079 24.7464567,22.607874 25.9685039,22.607874 C27.1905512,22.684252 28.4125984,22.8370079 29.5582677,22.3787402 C30.9330709,21.7677165 31.6204724,20.1637795 32.8425197,19.4 C34.9811024,18.0251969 37.8070866,19.2472441 40.2511811,19.8582677 C43.611811,20.6984252 47.2015748,20.3929134 50.3330709,18.9417323 C51.3259843,18.4834646 52.3188976,17.9488189 53.388189,17.9488189 C54.4574803,17.9488189 55.4503937,18.6362205 56.1377953,19.5527559 C56.7488189,20.4692913 57.1307087,21.5385827 57.3598425,22.607874 C57.5125984,23.2188976 57.5889764,23.9062992 57.4362205,24.5173228 C57.2834646,25.1283465 56.7488189,25.6629921 56.4433071,26.2740157 C55.2976378,28.0307087 55.1448819,30.3220472 54.1519685,32.1551181 C52.5480315,35.1338583 48.8818898,36.7377953 48.0417323,40.0220472" id="Shape" fill="#E6E9EE"></path>
                            <g id="Group" transform="translate(29.405512, 20.049213)" fill="#CED5E0">
                                <path d="M0.0763779528,2.32952756 C0.0763779528,2.32952756 0.381889764,2.63503937 0.84015748,3.24606299 C1.2984252,3.85708661 1.98582677,4.69724409 2.7496063,5.76653543 C3.13149606,6.3011811 3.51338583,6.91220472 3.89527559,7.52322835 C4.27716535,8.13425197 4.73543307,8.82165354 5.11732283,9.50905512 C5.95748031,10.8838583 6.7976378,12.4114173 7.63779528,13.9389764 C8.47795276,15.4665354 9.16535433,17.0704724 9.85275591,18.5216535 C10.4637795,20.0492126 11.0748031,21.4240157 11.4566929,22.7224409 C11.9149606,23.9444882 12.2204724,25.0137795 12.3732283,25.7775591 C12.5259843,26.5413386 12.6787402,26.9996063 12.6787402,26.9996063 C12.6787402,26.9996063 12.4496063,26.6177165 11.9913386,26.0066929 C11.6094488,25.3956693 10.9984252,24.4791339 10.3110236,23.3334646 C9.92913386,22.7988189 9.62362205,22.1877953 9.24173228,21.5003937 C8.85984252,20.8893701 8.47795276,20.2019685 8.09606299,19.438189 C7.33228346,17.9870079 6.49212598,16.5358268 5.6519685,14.9318898 C4.88818898,13.4043307 4.12440945,11.8767717 3.36062992,10.3492126 C2.67322835,8.8980315 2.06220472,7.52322835 1.52755906,6.3011811 C0.992913386,5.07913386 0.611023622,4.08622047 0.381889764,3.32244094 C0.229133858,2.71141732 0.0763779528,2.32952756 0.0763779528,2.32952756 Z" id="Shape"></path>
                                <path d="M17.1086614,0.0381889764 C17.1086614,0.0381889764 17.1086614,0.496456693 17.0322835,1.26023622 C16.9559055,2.02401575 16.8031496,3.16968504 16.5740157,4.46811024 C16.4976378,5.15551181 16.3448819,5.84291339 16.192126,6.60669291 C16.0393701,7.37047244 15.8866142,8.13425197 15.6574803,8.97440945 C15.2755906,10.5783465 14.8173228,12.3350394 14.2826772,14.0153543 C14.0535433,14.8555118 13.7480315,15.6956693 13.4425197,16.5358268 C13.1370079,17.3759843 12.8314961,18.1397638 12.5259843,18.9799213 C11.9149606,20.5074803 11.303937,21.9586614 10.6929134,23.1807087 C10.0818898,24.4027559 9.54724409,25.3956693 9.16535433,26.0066929 C8.78346457,26.6940945 8.47795276,27.0759843 8.47795276,27.0759843 C8.47795276,27.0759843 8.55433071,26.6177165 8.70708661,25.853937 C8.85984252,25.0901575 9.08897638,24.0208661 9.47086614,22.7224409 C9.62362205,22.1114173 9.77637795,21.3476378 10.0055118,20.6602362 C10.1582677,19.8964567 10.3874016,19.1326772 10.6165354,18.3688976 C11.0748031,16.7649606 11.5330709,15.0846457 12.0677165,13.4043307 C12.6023622,11.7240157 13.1370079,10.0437008 13.6716535,8.43976378 C14.2062992,6.91220472 14.7409449,5.38464567 15.2755906,4.16259843 C15.7338583,2.94055118 16.192126,1.87125984 16.4976378,1.18385827 C16.8795276,0.42007874 17.1086614,0.0381889764 17.1086614,0.0381889764 Z" id="Shape"></path>
                            </g>
                            <path d="M58.2,66.296063 C58.2,76.6070866 49.8748031,79.1275591 39.5637795,79.1275591 C29.2527559,79.1275591 20.9275591,76.6070866 20.9275591,66.296063 C20.9275591,55.9850394 29.2527559,34.6755906 39.5637795,34.6755906 C49.8748031,34.5992126 58.2,55.9850394 58.2,66.296063 Z" id="Shape" fill="#ACB41A"></path>
                            <path d="M77.6,64.7685039 C77.6,71.9480315 71.7952756,77.7527559 64.615748,77.7527559 C57.4362205,77.7527559 51.6314961,71.9480315 51.6314961,64.7685039 C51.6314961,57.5889764 57.4362205,51.784252 64.615748,51.784252 C71.7188976,51.784252 77.6,57.5889764 77.6,64.7685039 Z" id="Shape" fill="#F9B54C"></path>
                            <path d="M64.5393701,74.8503937 C58.9637795,74.8503937 54.4574803,70.3440945 54.4574803,64.7685039 C54.4574803,59.1929134 59.0401575,54.6866142 64.5393701,54.6866142 C70.1149606,54.6866142 74.6212598,59.1929134 74.6212598,64.7685039 C74.6212598,70.3440945 70.1149606,74.8503937 64.5393701,74.8503937 Z" id="Shape" fill="#FFD05B"></path>
                            <path d="M64.9976378,69.2748031 L64.9976378,70.6496063 L64.0811024,70.6496063 L64.0811024,69.2748031 C63.2409449,69.2748031 62.4007874,69.0456693 61.6370079,68.6637795 L61.6370079,66.8307087 C61.8661417,67.0598425 62.2480315,67.2125984 62.7826772,67.3653543 C63.3173228,67.5181102 63.6992126,67.6708661 64.0811024,67.6708661 L64.0811024,65.3031496 C63.088189,64.9212598 62.4007874,64.5393701 62.0188976,64.0811024 C61.6370079,63.7755906 61.484252,63.2409449 61.484252,62.6299213 C61.484252,61.9425197 61.7133858,61.407874 62.1716535,60.8732283 C62.6299213,60.4149606 63.3173228,60.1094488 64.0811024,60.0330709 L64.0811024,58.8110236 L64.9976378,58.8110236 L64.9976378,59.9566929 C65.9141732,60.0330709 66.6015748,60.1094488 67.0598425,60.4149606 L67.0598425,62.2480315 C66.4488189,61.8661417 65.7614173,61.6370079 64.9976378,61.5606299 L64.9976378,64.0047244 C65.9141732,64.3102362 66.6015748,64.7685039 67.0598425,65.1503937 C67.4417323,65.6086614 67.6708661,66.1433071 67.6708661,66.7543307 C67.6708661,67.4417323 67.4417323,68.0527559 66.9834646,68.5110236 C66.5251969,68.9692913 65.8377953,69.1984252 64.9976378,69.2748031 Z M64.0811024,63.6228346 L64.0811024,61.5606299 C63.4700787,61.6370079 63.1645669,62.0188976 63.1645669,62.4771654 C63.1645669,62.9354331 63.4700787,63.3173228 64.0811024,63.6228346 Z M64.9976378,65.8377953 L64.9976378,67.823622 C65.6086614,67.7472441 65.9141732,67.4417323 65.9141732,66.9070866 C65.9141732,66.4488189 65.6086614,66.0669291 64.9976378,65.8377953 Z" id="Shape" fill="#F9B54C"></path>
                        </g>
                    </g>
                </g>
            </g>
        </g>
    </g>
</svg>