<?xml version="1.0" encoding="UTF-8"?>
<svg width="254px" height="133px" viewBox="0 0 254 133" version="1.1" xmlns="http://www.w3.org/2000/svg" xmlns:xlink="http://www.w3.org/1999/xlink">
    <!-- Generator: Sketch 41.2 (35397) - http://www.bohemiancoding.com/sketch -->
    <title>Group 3</title>
    <desc>Created with Sketch.</desc>
    <defs>
        <rect id="path-1" x="26" y="12" width="228" height="88" rx="44"></rect>
        <mask id="mask-2" maskContentUnits="userSpaceOnUse" maskUnits="objectBoundingBox" x="0" y="0" width="228" height="88" fill="white">
            <use xlink:href="#path-1"></use>
        </mask>
    </defs>
    <g id="Page-1" stroke="none" stroke-width="1" fill="none" fill-rule="evenodd">
        <g id="Artboard" transform="translate(-332.000000, -137.000000)">
            <g id="Group-3" transform="translate(332.000000, 137.000000)">
                <g id="Group">
                    <use id="Rectangle" stroke="#BFBFBF" mask="url(#mask-2)" stroke-width="8" fill="#FFFFFF" xlink:href="#path-1"></use>
                    <circle id="Oval" fill="#FFB518" cx="47.9" cy="55.9" r="47.8"></circle>
                    <circle id="Oval" fill="#FFFFFF" cx="47.9" cy="55.9" r="32.5"></circle>
                    <path d="M28.3,41.6 L24.2,45.8 C24.2,45.8 38.7,61.6 45.5,78.2 L50.6,78.2 L64.6,52 L64.6,48.2 L67.6,48.2 L67.6,43.6 L71.1,43.6 L71.1,40.4 L75.6,40.4 L75.6,37.3 L71.2,37.3 L71.2,24 L67.9,24 L67.9,30.6 L63.6,30.6 L63.6,33 L61.4,33 L61.4,37 L58.8,37 L47.1,59.9 C47.2,59.9 33.9,44.8 28.3,41.6 L28.3,41.6 Z" id="Shape" fill="#000000"></path>
                    <polygon id="Shape" fill="#000000" points="71.2 28.6 80 28.6 80 33 71.2 33"></polygon>
                    <polygon id="Shape" fill="#000000" points="75.6 19.7 77.8 19.7 77.8 37.3 75.6 37.3"></polygon>
                    <polygon id="Shape" fill="#000000" points="71.2 21.9 79.5 21.9 79.5 24.2 71.2 24.2"></polygon>
                    <polygon id="Shape" fill="#000000" points="75.6 19.7 80 19.7 80 32.9 75.6 32.9"></polygon>
                    <polygon id="Shape" fill="#000000" points="77.8 24.2 83.4 24.2 83.4 29.6 77.8 29.6"></polygon>
                    <polygon id="Shape" fill="#154163" points="78.6 24.2 87.6 24.2 87.6 25.3 78.6 25.3"></polygon>
                    <path d="M84.4,19.7 L87.7,19.7 L87.7,25.3 L84.4,25.3 L84.4,19.7 Z M80,16.5 L84.4,16.5 L84.4,19.9 L80,19.9 L80,16.5 Z M76.7,13.3 L80,13.3 L80,16.6 L76.7,16.6 L76.7,13.3 Z M84.4,10 L87.7,10 L87.7,16.5 L84.4,16.5 L84.4,10 Z" id="Shape" fill="#000000"></path>
                    <path d="M87.6,16.5 L90.9,16.5 L90.9,19.8 L87.6,19.8 L87.6,16.5 Z M90.9,13.2 L95.3,13.2 L95.3,16.4 L90.9,16.4 L90.9,13.2 Z M87.6,6.7 L95.2,6.7 L95.2,9.9 L87.6,9.9 L87.6,6.7 Z M95.3,3.3 L98.6,3.3 L98.6,6.8 L95.3,6.8 L95.3,3.3 Z" id="Shape" fill="#000000"></path>
                    <path d="M87.6,10 L90.9,10 L90.9,13.2 L87.6,13.2 L87.6,10 Z M98.6,6.6 L101.9,6.6 L101.9,9.8 L98.6,9.8 L98.6,6.6 Z M98.6,0.1 L101.9,0.1 L101.9,3.3 L98.6,3.3 L98.6,0.1 Z" id="Shape" fill="#FFB518"></path>
                </g>
                <path d="M102.654297,23.0898438 L109.328915,23.0898438 L121.45895,44.3535665 L121.45895,23.0898438 L127.389648,23.0898438 L127.389648,53.5492483 L121.024996,53.5492483 L108.584995,31.9135654 L108.584995,53.5492483 L102.654297,53.5492483 L102.654297,23.0898438 Z M146.21221,47.5565568 C147.135227,46.3304597 147.596728,44.5877749 147.596728,42.32845 C147.596728,40.0691251 147.135227,38.3298843 146.21221,37.1106755 C145.289193,35.8914666 143.966681,35.2818713 142.244635,35.2818713 C140.522588,35.2818713 139.196632,35.8914666 138.266727,37.1106755 C137.336822,38.3298843 136.871877,40.0691251 136.871877,42.32845 C136.871877,44.5877749 137.336822,46.3304597 138.266727,47.5565568 C139.196632,48.7826538 140.522588,49.3956931 142.244635,49.3956931 C143.966681,49.3956931 145.289193,48.7826538 146.21221,47.5565568 Z M150.923705,50.8112082 C149.022566,53.1600795 146.136459,54.3344975 142.265299,54.3344975 C138.394139,54.3344975 135.508032,53.1600795 133.606893,50.8112082 C131.705754,48.4623369 130.755198,45.6347791 130.755198,42.32845 C130.755198,39.0772264 131.705754,36.2600007 133.606893,33.8766885 C135.508032,31.4933763 138.394139,30.301738 142.265299,30.301738 C146.136459,30.301738 149.022566,31.4933763 150.923705,33.8766885 C152.824844,36.2600007 153.7754,39.0772264 153.7754,42.32845 C153.7754,45.6347791 152.824844,48.4623369 150.923705,50.8112082 Z M170.767421,31.2486436 L170.767421,35.5721445 C170.395459,35.5308154 168.891578,35.5721445 168.712486,35.5721445 C166.34295,35.5721445 164.649039,37.2312104 163.836233,38.774164 C163.381613,39.6420754 163.154306,40.9783633 163.154306,42.783068 L163.154306,53.5492483 L157.223608,53.5492483 L157.223608,31.0249939 L161.515303,31.0912567 L162.84434,34.9512401 C163.330566,34.1482291 164.271012,32.980842 165.682889,32.2213797 C167.094767,31.4619174 168.593653,31.2486436 169.414043,31.2486436 C169.524254,31.2486436 170.50567,31.2348672 170.767421,31.2486436 Z M170.730254,35.5545273 L170.735406,31.2316384 L173.876403,31.2316384 L175.234137,24.9741172 L179.703779,24.9496446 L179.703779,31.2316384 L183.361387,31.2316384 L183.361387,35.4265225 L179.703779,35.4265225 L179.703779,47.3292478 C179.703779,48.2522646 179.820876,48.8274195 180.055074,49.0547296 C180.289273,49.2820398 181.005633,49.3956931 182.204177,49.3956931 C182.38327,49.3956931 182.572692,49.3922491 182.77245,49.3853609 C182.972207,49.3784727 183.168518,49.3681406 183.361387,49.3543642 L183.361387,53.7558928 L180.571686,53.8592151 C177.788859,53.9556497 175.887748,53.4734839 174.868296,52.4127033 C174.207031,51.7376611 173.876403,50.6975607 173.876403,49.2923709 L173.874336,35.5545273 L170.730254,35.5545273 Z M200.510128,47.5565568 C201.433145,46.3304597 201.894646,44.5877749 201.894646,42.32845 C201.894646,40.0691251 201.433145,38.3298843 200.510128,37.1106755 C199.587111,35.8914666 198.264599,35.2818713 196.542553,35.2818713 C194.820507,35.2818713 193.494551,35.8914666 192.564646,37.1106755 C191.634741,38.3298843 191.169795,40.0691251 191.169795,42.32845 C191.169795,44.5877749 191.634741,46.3304597 192.564646,47.5565568 C193.494551,48.7826538 194.820507,49.3956931 196.542553,49.3956931 C198.264599,49.3956931 199.587111,48.7826538 200.510128,47.5565568 Z M205.221623,50.8112082 C203.320484,53.1600795 200.434378,54.3344975 196.563217,54.3344975 C192.692057,54.3344975 189.805951,53.1600795 187.904811,50.8112082 C186.003672,48.4623369 185.053117,45.6347791 185.053117,42.32845 C185.053117,39.0772264 186.003672,36.2600007 187.904811,33.8766885 C189.805951,31.4933763 192.692057,30.301738 196.563217,30.301738 C200.434378,30.301738 203.320484,31.4933763 205.221623,33.8766885 C207.122763,36.2600007 208.073318,39.0772264 208.073318,42.32845 C208.073318,45.6347791 207.122763,48.4623369 205.221623,50.8112082 Z M229.778571,32.3165223 C231.259531,33.5357311 232,35.5573833 232,38.3815394 L232,53.5492483 L225.96598,53.5492483 L225.96598,39.8487156 C225.96598,38.6639477 225.807554,37.7547208 225.490697,37.1210077 C224.91209,35.9637925 223.809996,35.3851936 222.184385,35.3851936 C220.186811,35.3851936 218.816082,36.2324277 218.072158,37.9269214 C217.68642,38.8223855 217.493554,39.9658072 217.493554,41.3572207 L217.493554,53.5492483 L211.624849,53.5492483 L211.624849,31.0663228 L216.150067,31.0628775 L217.307574,34.3519709 C218.065274,33.1947557 218.781635,32.3612978 219.456677,31.8515721 C220.668997,30.9423316 222.20504,30.4877181 224.06485,30.4877181 C226.393057,30.4877181 228.297611,31.0973134 229.778571,32.3165223 Z" id="Norton" fill="#000000"></path>
                <path d="M106.871082,63.82 C103.064591,63.82 100.293689,65.9471567 100.293689,69.1658807 C100.293689,72.1047157 102.05699,73.7280721 106.115381,74.9875728 C109.138183,75.9112067 109.949861,76.6389182 109.949861,78.2622746 C109.949861,80.1375312 108.466449,81.1451318 106.39527,81.1451318 C104.380069,81.1451318 102.84068,80.4174202 101.441234,79.2138974 L99.51,81.3410541 C101.105368,82.9084327 103.400458,84 106.479237,84 C111.097406,84 113.81233,81.5369764 113.81233,78.0663523 C113.81233,74.4277947 111.461262,73.0283495 108.074605,71.9647712 C104.855881,70.9571706 104.10018,70.3414147 104.10018,68.9419695 C104.10018,67.4305687 105.359681,66.6468793 107.094993,66.6468793 C108.690361,66.6468793 110.033828,67.1506796 111.433273,68.2982247 L113.252552,66.1990569 C111.573218,64.6596671 109.697961,63.82 106.871082,63.82 Z M131.463999,64.2398336 L120.240448,64.2398336 L120.240448,83.5801664 L131.575955,83.5801664 L131.575955,80.8092649 L123.934984,80.8092649 L123.934984,75.1275173 L130.148521,75.1275173 L130.148521,72.3846047 L123.934984,72.3846047 L123.934984,66.9827462 L131.072154,66.9827462 L131.463999,64.2398336 Z M145.673033,63.82 C140.970897,63.82 137.276362,67.3745908 137.276362,73.8680166 C137.276362,80.4454092 140.774975,84 145.784988,84 C148.415946,84 150.431147,82.8524549 151.606681,81.648932 L149.871369,79.4098197 C148.751812,80.2494868 147.604267,81.0331761 145.952922,81.0331761 C143.18202,81.0331761 141.166819,78.9619972 141.166819,73.8680166 C141.166819,68.6340915 143.237998,66.6748682 145.896944,66.6748682 C147.240412,66.6748682 148.387957,67.1506796 149.479524,68.0743135 L151.382769,65.86319 C149.815391,64.5477115 148.220023,63.82 145.673033,63.82 Z M171.609418,64.2398336 L167.886893,64.2398336 L167.886893,77.0587517 C167.886893,79.7736755 166.795326,81.1171429 164.38828,81.1171429 C162.009223,81.1171429 160.917656,79.7736755 160.917656,77.0587517 L160.917656,64.2398336 L157.223121,64.2398336 L157.223121,77.2546741 C157.223121,81.2290985 159.630167,84 164.38828,84 C169.118405,84 171.609418,81.1451318 171.609418,77.2546741 L171.609418,64.2398336 Z M189.457009,83.5801664 L193.711322,83.5801664 L188.645331,75.1555062 C191.276288,74.1199168 192.563777,72.580527 192.563777,69.9215811 C192.563777,66.0871012 189.960809,64.2398336 184.894817,64.2398336 L179.129103,64.2398336 L179.129103,83.5801664 L182.823639,83.5801664 L182.823639,75.8272399 L185.174707,75.8272399 L189.457009,83.5801664 Z M182.823639,66.9267684 L184.810851,66.9267684 C187.497786,66.9267684 188.701308,67.8224133 188.701308,69.9215811 C188.701308,72.2446602 187.413819,73.168294 185.118729,73.168294 L182.823639,73.168294 L182.823639,66.9267684 Z M210.719247,64.2398336 L199.495696,64.2398336 L199.495696,83.5801664 L210.831202,83.5801664 L210.831202,80.8092649 L203.190231,80.8092649 L203.190231,75.1275173 L209.403768,75.1275173 L209.403768,72.3846047 L203.190231,72.3846047 L203.190231,66.9827462 L210.327402,66.9827462 L210.719247,64.2398336 Z M222.353301,64.2398336 L217.595187,64.2398336 L217.595187,83.5801664 L222.857101,83.5801664 C227.475271,83.5801664 232.261373,81.648932 232.261373,73.8120388 C232.261373,65.8072122 227.447282,64.2398336 222.353301,64.2398336 Z M222.997046,67.0107351 C225.851914,67.0107351 228.370916,67.9903467 228.370916,73.8120388 C228.370916,79.5217753 225.991859,80.8092649 223.109002,80.8092649 L221.289723,80.8092649 L221.289723,67.0107351 L222.997046,67.0107351 Z" id="secured" fill="#989898"></path>
                <text id="TM" font-family="Helvetica" font-size="10" font-weight="normal" letter-spacing="-0.166666657" fill="#BFBFBF">
                    <tspan x="240" y="16">TM</tspan>
                </text>
                <g id="Group-2" transform="translate(34.000000, 111.000000)">
                    <path d="M7.44962617,14.4123326 C8.06353872,13.6352082 8.3704904,12.473222 8.3704904,10.9263393 C8.3704904,9.98347743 8.23447588,9.17321767 7.96244277,8.49553571 C7.44778554,7.19173455 6.50671215,6.53984375 5.13919437,6.53984375 C3.76432434,6.53984375 2.82325094,7.22856454 2.31594596,8.60602679 C2.04391285,9.34263761 1.90789834,10.2781193 1.90789834,11.4125 C1.90789834,12.3258974 2.04391285,13.1030102 2.31594596,13.7438616 C2.83060319,14.9666356 3.77167658,15.5780134 5.13919437,15.5780134 C6.06557738,15.5780134 6.83571362,15.189457 7.44962617,14.4123326 Z M0,5.13660714 L1.92995497,5.13660714 L1.92995497,6.70558036 C2.32697626,6.16785445 2.76075228,5.75167558 3.23129603,5.45703125 C3.90035043,5.01506475 4.68702897,4.79408482 5.59135524,4.79408482 C6.92946405,4.79408482 8.06536904,5.30786317 8.9991043,6.33543527 C9.93283956,7.36300737 10.3997002,8.83068243 10.3997002,10.7385045 C10.3997002,13.3166424 9.72697976,15.1581418 8.38151871,16.263058 C7.52865816,16.9628383 6.53611981,17.3127232 5.40387391,17.3127232 C4.51425212,17.3127232 3.76801033,17.1175243 3.16512614,16.7271205 C2.81221833,16.5061373 2.41887906,16.1267884 1.98509654,15.5890625 L1.98509654,21.6329241 L0,21.6329241 L0,5.13660714 Z M19.7336976,14.1361049 C20.222622,13.1379972 20.4670805,12.0275731 20.4670805,10.8047991 C20.4670805,9.69988287 20.2906293,8.80123114 19.9377215,8.10881696 C19.3789508,7.01863294 18.415821,6.47354911 17.0483032,6.47354911 C15.8351826,6.47354911 14.9529262,6.93760697 14.4015078,7.86573661 C13.8500893,8.79386625 13.5743842,9.91349791 13.5743842,11.2246652 C13.5743842,12.4842697 13.8500893,13.5339244 14.4015078,14.3736607 C14.9529262,15.2133971 15.8278304,15.6332589 17.0262465,15.6332589 C18.3422986,15.6332589 19.2447733,15.1342126 19.7336976,14.1361049 Z M20.9633547,6.26361607 C22.0147259,7.28013901 22.5404036,8.77543656 22.5404036,10.7495536 C22.5404036,12.6573756 22.077219,14.2336991 21.150836,15.4785714 C20.224453,16.7234437 18.7871104,17.3458705 16.8387652,17.3458705 C15.2139188,17.3458705 13.923619,16.7952622 12.967827,15.694029 C12.012035,14.5927958 11.5341461,13.1140718 11.5341461,11.2578125 C11.5341461,9.26896327 12.0377674,7.68527375 13.0450252,6.50669643 C14.0522829,5.32811911 15.4050759,4.73883929 17.1034447,4.73883929 C18.6253597,4.73883929 19.9119835,5.24709313 20.9633547,6.26361607 Z M25.4393798,5.08136161 L27.7112125,14.406808 L30.0161301,5.08136161 L32.2438496,5.08136161 L34.5597955,14.3515625 L36.9749963,5.08136161 L38.9600928,5.08136161 L35.5302872,16.9149554 L33.4679924,16.9149554 L31.06382,7.75524554 L28.7368457,16.9149554 L26.674551,16.9149554 L23.2668019,5.08136161 L25.4393798,5.08136161 Z M47.8143586,5.40731027 C48.601049,5.80139706 49.2002481,6.31149241 49.6119738,6.93761161 C50.0089951,7.53426638 50.273672,8.23035317 50.4060125,9.02589286 C50.5236484,9.57098487 50.5824655,10.4401726 50.5824655,11.6334821 L41.9252389,11.6334821 C41.9620002,12.8341578 42.2450574,13.797262 42.7744191,14.5228237 C43.3037808,15.2483853 44.123544,15.6111607 45.2337331,15.6111607 C46.2703999,15.6111607 47.0975151,15.2686418 47.7151038,14.5835938 C48.0680116,14.1858239 48.3179843,13.725449 48.4650292,13.2024554 L50.4170408,13.2024554 C50.365575,13.6370557 50.1946379,14.1213701 49.9042242,14.6554129 C49.6138104,15.1894558 49.2884784,15.6258912 48.9282184,15.9647321 C48.3253342,16.5540208 47.5790924,16.9517847 46.6894706,17.1580357 C46.2115746,17.2758934 45.6711926,17.3348214 45.0683084,17.3348214 C43.5978592,17.3348214 42.3516722,16.7989451 41.32971,15.7271763 C40.3077477,14.6554076 39.7967743,13.1545855 39.7967743,11.2246652 C39.7967743,9.32420925 40.3114238,7.78103272 41.3407383,6.59508929 C42.3700527,5.40914586 43.7154936,4.81618304 45.3771012,4.81618304 C46.2152573,4.81618304 47.0276683,5.01322348 47.8143586,5.40731027 Z M48.5422274,10.0534598 C48.4613527,9.19162516 48.2738732,8.50290436 47.9797834,7.98727679 C47.4357171,7.02968271 46.5277284,6.55089286 45.2557898,6.55089286 C44.3441113,6.55089286 43.5794891,6.88052126 42.9619004,7.53978795 C42.3443118,8.19905464 42.0171417,9.03693688 41.9803805,10.0534598 L48.5422274,10.0534598 Z M52.6984314,5.08136161 L54.5842731,5.08136161 L54.5842731,7.12544643 C54.7386702,6.72767658 55.1173052,6.24336223 55.7201894,5.67248884 C56.3230736,5.10161545 57.0178505,4.81618304 57.8045408,4.81618304 C57.841302,4.81618304 57.9037952,4.81986603 57.9920221,4.82723214 C58.0802491,4.83459825 58.2309679,4.84933025 58.444183,4.87142857 L58.444183,6.97075893 C58.3265471,6.9486606 58.2181031,6.93392861 58.1188477,6.9265625 C58.0195924,6.91919639 57.9111484,6.91551339 57.7935125,6.91551339 C56.793607,6.91551339 56.0253088,7.2377758 55.4885948,7.88231027 C54.9518809,8.52684474 54.6835279,9.26896902 54.6835279,10.1087054 L54.6835279,16.9149554 L52.6984314,16.9149554 L52.6984314,5.08136161 Z M67.1440524,5.40731027 C67.9307427,5.80139706 68.5299418,6.31149241 68.9416676,6.93761161 C69.3386889,7.53426638 69.6033658,8.23035317 69.7357062,9.02589286 C69.8533422,9.57098487 69.9121592,10.4401726 69.9121592,11.6334821 L61.2549327,11.6334821 C61.2916939,12.8341578 61.5747511,13.797262 62.1041129,14.5228237 C62.6334746,15.2483853 63.4532377,15.6111607 64.5634269,15.6111607 C65.6000936,15.6111607 66.4272089,15.2686418 67.0447976,14.5835938 C67.3977054,14.1858239 67.647678,13.725449 67.7947229,13.2024554 L69.7467345,13.2024554 C69.6952688,13.6370557 69.5243317,14.1213701 69.2339179,14.6554129 C68.9435042,15.1894558 68.6181722,15.6258912 68.2579121,15.9647321 C67.6550279,16.5540208 66.9087862,16.9517847 66.0191644,17.1580357 C65.5412684,17.2758934 65.0008864,17.3348214 64.3980022,17.3348214 C62.927553,17.3348214 61.6813659,16.7989451 60.6594037,15.7271763 C59.6374415,14.6554076 59.1264681,13.1545855 59.1264681,11.2246652 C59.1264681,9.32420925 59.6411176,7.78103272 60.670432,6.59508929 C61.6997465,5.40914586 63.0451874,4.81618304 64.706795,4.81618304 C65.5449511,4.81618304 66.3573621,5.01322348 67.1440524,5.40731027 Z M67.8719211,10.0534598 C67.7910464,9.19162516 67.603567,8.50290436 67.3094771,7.98727679 C66.7654109,7.02968271 65.8574221,6.55089286 64.5854835,6.55089286 C63.673805,6.55089286 62.9091829,6.88052126 62.2915942,7.53978795 C61.6740055,8.19905464 61.3468355,9.03693688 61.3100743,10.0534598 L67.8719211,10.0534598 Z M74.0352783,14.3184152 C74.5719923,15.1728837 75.4321922,15.6001116 76.6159038,15.6001116 C77.5349346,15.6001116 78.2903665,15.2041892 78.8822223,14.4123326 C79.4740782,13.620476 79.7700016,12.4842708 79.7700016,11.003683 C79.7700016,9.50836306 79.464888,8.40162189 78.8546516,7.68342634 C78.2444151,6.96523078 77.4908212,6.60613839 76.5938472,6.60613839 C75.5939417,6.60613839 74.7833687,6.98917028 74.1621039,7.75524554 C73.5408391,8.52132079 73.2302114,9.64831845 73.2302114,11.1362723 C73.2302114,12.4032429 73.4985643,13.4639466 74.0352783,14.3184152 Z M78.4907172,5.44598214 C78.843625,5.66696539 79.2443164,6.05368027 79.6928034,6.60613839 L79.6928034,0.628571429 L81.6007018,0.628571429 L81.6007018,16.9149554 L79.8141149,16.9149554 L79.8141149,15.2686384 C79.3509234,15.9978831 78.8031893,16.524552 78.1708961,16.8486607 C77.5386029,17.1727695 76.8144175,17.3348214 75.9983182,17.3348214 C74.6822661,17.3348214 73.5426851,16.7805301 72.5795408,15.6719308 C71.6163966,14.5633315 71.1348317,13.0882905 71.1348317,11.2467634 C71.1348317,9.52309406 71.5741218,8.02963801 72.4527152,6.76635045 C73.3313086,5.50306288 74.5866858,4.87142857 76.2188845,4.87142857 C77.1232108,4.87142857 77.8804808,5.06294451 78.4907172,5.44598214 Z M89.9020814,0.628571429 L91.8320364,0.628571429 L91.8320364,6.51774554 C92.2658189,5.9505552 92.7841445,5.51780283 93.3870287,5.21947545 C93.9899129,4.92114806 94.644253,4.77198661 95.3500686,4.77198661 C96.8205178,4.77198661 98.0134019,5.27839895 98.9287565,6.29123884 C99.8441112,7.30407872 100.301782,8.79753477 100.301782,10.7716518 C100.301782,12.6426433 99.8496253,14.1968688 98.945299,15.434375 C98.0409727,16.6718812 96.7874336,17.290625 95.1846439,17.290625 C94.2876699,17.290625 93.5303999,17.0733281 92.9128112,16.6387277 C92.5451989,16.3809139 92.1518596,15.968418 91.7327816,15.4012277 L91.7327816,16.9149554 L89.9020814,16.9149554 L89.9020814,0.628571429 Z M97.4730191,14.2521205 C98.0060569,13.397652 98.2725718,12.2706543 98.2725718,10.8710937 C98.2725718,9.62622145 98.0060569,8.59498177 97.4730191,7.77734375 C96.9399812,6.95970573 96.1551407,6.55089286 95.118474,6.55089286 C94.2141477,6.55089286 93.4219551,6.88604576 92.7418723,7.55636161 C92.0617895,8.22667746 91.7217533,9.33157712 91.7217533,10.8710937 C91.7217533,11.9833761 91.8614438,12.8857108 92.1408292,13.578125 C92.6628387,14.8819262 93.6369967,15.533817 95.0633324,15.533817 C96.1367604,15.533817 96.9399812,15.1065891 97.4730191,14.2521205 Z M109.619237,5.08136161 L111.813871,5.08136161 C111.534486,5.84007076 110.91323,7.57108023 109.950086,10.274442 C109.229566,12.3074878 108.626691,13.9648373 108.141443,15.2465402 C106.994492,18.2666446 106.185757,20.108144 105.715213,20.7710938 C105.24467,21.4340435 104.435935,21.7655134 103.288984,21.7655134 C103.009599,21.7655134 102.794549,21.7544644 102.643828,21.7323661 C102.493107,21.7102677 102.307465,21.6697548 102.086898,21.6108259 L102.086898,19.7987723 C102.432454,19.8945317 102.682426,19.9534597 102.836823,19.975558 C102.991221,19.9976564 103.127235,20.0087054 103.244871,20.0087054 C103.612483,20.0087054 103.882674,19.9479359 104.055452,19.8263951 C104.22823,19.7048543 104.373435,19.5556928 104.491071,19.3789063 C104.527832,19.3199774 104.66017,19.0179715 104.88809,18.4728795 C105.11601,17.9277875 105.281433,17.5226576 105.384364,17.2574777 L101.017152,5.08136161 L103.266928,5.08136161 L106.432054,14.716183 L109.619237,5.08136161 Z" id="powered-by" fill="#BFBFBF"></path>
                    <path d="M119.693969,0.740290179 L124.347917,14.5627232 L128.946724,0.740290179 L131.406039,0.740290179 L125.494862,16.9714286 L123.167888,16.9714286 L117.26774,0.740290179 L119.693969,0.740290179 Z M138.958963,5.46378348 C139.745654,5.85787027 140.344853,6.36796562 140.756578,6.99408482 C141.1536,7.59073959 141.418277,8.28682638 141.550617,9.08236607 C141.668253,9.62745808 141.72707,10.4966458 141.72707,11.6899554 L133.069844,11.6899554 C133.106605,12.890631 133.389662,13.8537352 133.919024,14.5792969 C134.448385,15.3048585 135.268149,15.6676339 136.378338,15.6676339 C137.415004,15.6676339 138.24212,15.325115 138.859708,14.640067 C139.212616,14.2422971 139.462589,13.7819223 139.609634,13.2589286 L141.561645,13.2589286 C141.51018,13.693529 141.339242,14.1778433 141.048829,14.7118862 C140.758415,15.245929 140.433083,15.6823644 140.072823,16.0212054 C139.469939,16.610494 138.723697,17.0082579 137.834075,17.2145089 C137.356179,17.3323667 136.815797,17.3912946 136.212913,17.3912946 C134.742464,17.3912946 133.496277,16.8554183 132.474315,15.7836496 C131.452352,14.7118808 130.941379,13.2110588 130.941379,11.2811384 C130.941379,9.38068246 131.456028,7.83750593 132.485343,6.6515625 C133.514657,5.46561907 134.860098,4.87265625 136.521706,4.87265625 C137.359862,4.87265625 138.172273,5.06969669 138.958963,5.46378348 Z M139.686832,10.109933 C139.605957,9.24809837 139.418478,8.55937758 139.124388,8.04375 C138.580322,7.08615593 137.672333,6.60736607 136.400394,6.60736607 C135.488716,6.60736607 134.724094,6.93699447 134.106505,7.59626116 C133.488916,8.25552785 133.161746,9.0934101 133.124985,10.109933 L139.686832,10.109933 Z M143.843036,5.13783482 L145.728878,5.13783482 L145.728878,7.18191964 C145.883275,6.7841498 146.26191,6.29983544 146.864794,5.72896205 C147.467678,5.15808866 148.162455,4.87265625 148.949145,4.87265625 C148.985907,4.87265625 149.0484,4.87633925 149.136627,4.88370536 C149.224854,4.89107147 149.375572,4.90580346 149.588788,4.92790179 L149.588788,7.02723214 C149.471152,7.00513382 149.362708,6.99040182 149.263452,6.98303571 C149.164197,6.97566961 149.055753,6.97198661 148.938117,6.97198661 C147.938212,6.97198661 147.169913,7.29424901 146.633199,7.93878348 C146.096485,8.58331795 145.828133,9.32544223 145.828133,10.1651786 L145.828133,16.9714286 L143.843036,16.9714286 L143.843036,5.13783482 Z M150.932772,5.19308036 L152.950953,5.19308036 L152.950953,16.9714286 L150.932772,16.9714286 L150.932772,5.19308036 Z M150.932772,0.740290179 L152.950953,0.740290179 L152.950953,2.99430804 L150.932772,2.99430804 L150.932772,0.740290179 Z M157.272582,11.7341518 C157.324047,12.6549153 157.540935,13.4025641 157.923252,13.9771205 C158.651125,15.0525723 159.934072,15.5902902 161.772134,15.5902902 C162.595585,15.5902902 163.345503,15.4724342 164.02191,15.2367188 C165.33061,14.78002 165.98495,13.9623943 165.98495,12.783817 C165.98495,11.899884 165.709245,11.2700912 165.157826,10.8944196 C164.599056,10.5261142 163.724151,10.2056933 162.533088,9.93314732 L160.338453,9.4359375 C158.904765,9.11182874 157.89017,8.75457784 157.294638,8.36417411 C156.265324,7.68649215 155.750674,6.67366745 155.750674,5.32566964 C155.750674,3.86718021 156.254296,2.67020557 157.261553,1.73470982 C158.268811,0.799214073 159.695125,0.331473214 161.540539,0.331473214 C163.238908,0.331473214 164.681765,0.74212759 165.869153,1.56344866 C167.05654,2.38476973 167.650225,3.69775883 167.650225,5.50245536 L165.587931,5.50245536 C165.477647,4.63325458 165.242378,3.96663178 164.882118,3.50256696 C164.213064,2.65546451 163.077159,2.23191964 161.474369,2.23191964 C160.180374,2.23191964 159.250329,2.50446156 158.684206,3.04955357 C158.118083,3.59464558 157.835026,4.22812139 157.835026,4.95 C157.835026,5.74553969 158.165872,6.32745352 158.827574,6.69575893 C159.261357,6.93147439 160.242867,7.2261143 161.772134,7.5796875 L164.043967,8.09899554 C165.139451,8.34944322 165.984947,8.69196211 166.580479,9.1265625 C167.609793,9.88527165 168.124443,10.9864883 168.124443,12.4302455 C168.124443,14.227576 167.471941,15.5129426 166.166917,16.2863839 C164.861893,17.0598253 163.345515,17.4465402 161.617737,17.4465402 C159.603222,17.4465402 158.026189,16.9309203 156.886591,15.8996652 C155.746993,14.8757761 155.18823,13.4872856 155.210287,11.7341518 L157.272582,11.7341518 Z M170.262465,5.19308036 L172.280647,5.19308036 L172.280647,16.9714286 L170.262465,16.9714286 L170.262465,5.19308036 Z M170.262465,0.740290179 L172.280647,0.740290179 L172.280647,2.99430804 L170.262465,2.99430804 L170.262465,0.740290179 Z M186.903915,5.13783482 L188.789757,5.13783482 L188.789757,6.81729911 C189.348528,6.12488493 189.940374,5.62768008 190.565315,5.32566964 C191.190256,5.0236592 191.885033,4.87265625 192.649667,4.87265625 C194.325979,4.87265625 195.458208,5.45825307 196.046387,6.62946429 C196.369886,7.2703157 196.531633,8.18738243 196.531633,9.38069196 L196.531633,16.9714286 L194.513452,16.9714286 L194.513452,9.51328125 C194.513452,8.79140264 194.406846,8.20948882 194.193631,7.76752232 C193.840723,7.0309115 193.201087,6.66261161 192.274704,6.66261161 C191.80416,6.66261161 191.418173,6.71049059 191.116731,6.80625 C190.572665,6.96830438 190.094776,7.29240828 189.68305,7.77857143 C189.352199,8.16897517 189.137149,8.57226354 189.037894,8.98844866 C188.938639,9.40463378 188.889012,9.9994381 188.889012,10.7728795 L188.889012,16.9714286 L186.903915,16.9714286 L186.903915,5.13783482 Z M181.683664,5.61294643 C182.058628,5.87076022 182.440939,6.2464261 182.830608,6.73995536 L182.830608,5.24832589 L184.661308,5.24832589 L184.661308,16.0101563 C184.661308,17.5128423 184.440744,18.698768 183.99961,19.5679688 C183.176158,21.1737804 181.621181,21.9766741 179.334633,21.9766741 C178.062694,21.9766741 176.992958,21.6912417 176.125393,21.1203683 C175.257828,20.5494949 174.772587,19.6563677 174.669656,18.4409598 L176.687837,18.4409598 C176.783416,18.9713196 176.974572,19.3801325 177.26131,19.6674107 C177.709797,20.1093772 178.415602,20.3303571 179.378746,20.3303571 C180.900661,20.3303571 181.896875,19.7926393 182.367419,18.7171875 C182.646804,18.0837022 182.775467,16.9530215 182.75341,15.3251116 C182.356389,15.9291325 181.8785,16.3784583 181.319729,16.6731027 C180.760958,16.967747 180.022069,17.115067 179.103038,17.115067 C177.823747,17.115067 176.704385,16.6602166 175.744916,15.7505022 C174.785448,14.8407879 174.305721,13.3362828 174.305721,11.236942 C174.305721,9.25545884 174.789124,7.70859931 175.755945,6.59631696 C176.722765,5.48403462 177.889917,4.92790179 179.257434,4.92790179 C180.183817,4.92790179 180.992552,5.15624772 181.683664,5.61294643 Z M181.926286,7.74542411 C181.323402,7.03827771 180.555104,6.68470982 179.621369,6.68470982 C178.224442,6.68470982 177.268664,7.34028362 176.754007,8.65145089 C176.481974,9.35123118 176.34596,10.2682979 176.34596,11.4026786 C176.34596,12.7359442 176.616151,13.7506104 177.156541,14.4467076 C177.696931,15.1428048 178.422954,15.4908482 179.334633,15.4908482 C180.760968,15.4908482 181.764535,14.8463234 182.345362,13.5572545 C182.668861,12.8280097 182.830608,11.977237 182.830608,11.0049107 C182.830608,9.53905517 182.529171,8.4525705 181.926286,7.74542411 Z" id="VeriSing" fill="#A20068"></path>
                </g>
            </g>
        </g>
    </g>
</svg>