<?xml version="1.0" encoding="utf-8"?>
<!-- Generator: Adobe Illustrator 21.0.0, SVG Export Plug-In . SVG Version: 6.00 Build 0)  -->
<svg version="1.1" id="Layer_1" xmlns="http://www.w3.org/2000/svg" xmlns:xlink="http://www.w3.org/1999/xlink" x="0px" y="0px"
	 viewBox="0 0 504 128.8" style="enable-background:new 0 0 504 128.8;" xml:space="preserve">
<style type="text/css">
	.st0{fill:#139AD6;}
	.st1{fill:#263B80;}
	.st2{fill:#232C65;}
</style>
<path class="st0" d="M389.6,33.6h-27.2c-1.6,0-3.2,1.6-4,3.2l-11.2,70.4c0,1.6,0.8,2.4,2.4,2.4H364c1.6,0,2.4-0.8,2.4-2.4l3.2-20
	c0-1.6,1.6-3.2,4-3.2h8.8c18.4,0,28.8-8.8,31.2-26.4c1.6-7.2,0-13.6-3.2-17.6C405.6,36,398.4,33.6,389.6,33.6 M392.8,60
	c-1.6,9.6-8.8,9.6-16,9.6H372l3.2-18.4c0-0.8,0.8-1.6,2.4-1.6h1.6c4.8,0,9.6,0,12,3.2C392.8,53.6,392.8,56,392.8,60"/>
<g>
	<path class="st1" d="M193.6,33.6h-27.2c-1.6,0-3.2,1.6-4,3.2l-11.2,70.4c0,1.6,0.8,2.4,2.4,2.4h12.8c1.6,0,3.2-1.6,4-3.2l3.2-19.2
		c0-1.6,1.6-3.2,4-3.2h8.8c18.4,0,28.8-8.8,31.2-26.4c1.6-7.2,0-13.6-3.2-17.6C209.6,36,203.2,33.6,193.6,33.6 M196.8,60
		c-1.6,9.6-8.8,9.6-16,9.6h-4l3.2-18.4c0-0.8,0.8-1.6,2.4-1.6h1.6c4.8,0,9.6,0,12,3.2C196.8,53.6,197.6,56,196.8,60"/>
	<path class="st1" d="M276,59.2h-12.8c-0.8,0-2.4,0.8-2.4,1.6l-0.8,4l-0.8-1.6c-3.2-4-8.8-5.6-15.2-5.6c-14.4,0-27.2,11.2-29.6,26.4
		c-1.6,8,0.8,15.2,4.8,20s9.6,6.4,16.8,6.4c12,0,18.4-7.2,18.4-7.2l-0.8,4c0,1.6,0.8,2.4,2.4,2.4h12c1.6,0,3.2-1.6,4-3.2l7.2-44.8
		C278.4,60.8,276.8,59.2,276,59.2 M257.6,84.8c-1.6,7.2-7.2,12.8-15.2,12.8c-4,0-7.2-1.6-8.8-3.2c-1.6-2.4-2.4-5.6-2.4-9.6
		c0.8-7.2,7.2-12.8,14.4-12.8c4,0,6.4,1.6,8.8,3.2C256.8,77.6,257.6,81.6,257.6,84.8"/>
</g>
<path class="st0" d="M471.2,59.2h-12.8c-0.8,0-2.4,0.8-2.4,1.6l-0.8,4l-0.8-1.6c-3.2-4-8.8-5.6-15.2-5.6
	c-14.4,0-27.2,11.2-29.6,26.4c-1.6,8,0.8,15.2,4.8,20s9.6,6.4,16.8,6.4c12,0,18.4-7.2,18.4-7.2l-0.8,4c0,1.6,0.8,2.4,2.4,2.4h12
	c1.6,0,3.2-1.6,4-3.2l7.2-44.8C473.6,60.8,472.8,59.2,471.2,59.2 M452.8,84.8c-1.6,7.2-7.2,12.8-15.2,12.8c-4,0-7.2-1.6-8.8-3.2
	c-1.6-2.4-2.4-5.6-2.4-9.6c0.8-7.2,7.2-12.8,14.4-12.8c4,0,6.4,1.6,8.8,3.2C452.8,77.6,453.6,81.6,452.8,84.8"/>
<path class="st1" d="M345.6,59.2H332c-1.6,0-2.4,0.8-3.2,1.6L311.2,88l-8-25.6c-0.8-1.6-1.6-2.4-4-2.4h-12.8c-1.6,0-2.4,1.6-2.4,3.2
	l14.4,42.4l-13.6,19.2c-0.8,1.6,0,4,1.6,4h12.8c1.6,0,2.4-0.8,3.2-1.6l44-63.2C348.8,61.6,347.2,59.2,345.6,59.2"/>
<path class="st0" d="M486.4,36l-11.2,72c0,1.6,0.8,2.4,2.4,2.4h11.2c1.6,0,3.2-1.6,4-3.2L504,36.8c0-1.6-0.8-2.4-2.4-2.4h-12.8
	C488,33.6,487.2,34.4,486.4,36"/>
<path class="st1" d="M92,9.6C86.4,3.2,76,0,61.6,0h-40c-2.4,0-4.8,2.4-5.6,4.8L0,109.6c0,2.4,1.6,4,3.2,4H28l6.4-39.2V76
	c0.8-2.4,3.2-4.8,5.6-4.8h12c23.2,0,40.8-9.6,46.4-36c0-0.8,0-1.6,0-2.4c-0.8,0-0.8,0,0,0C99.2,22.4,97.6,16,92,9.6"/>
<path class="st0" d="M97.6,32.8L97.6,32.8c0,0.8,0,1.6,0,2.4c-5.6,27.2-23.2,36-46.4,36h-12c-2.4,0-4.8,2.4-5.6,4.8l-8,48.8
	c0,1.6,0.8,3.2,3.2,3.2h20.8c2.4,0,4.8-1.6,4.8-4v-0.8l4-24.8v-1.6c0-2.4,2.4-4,4.8-4h3.2c20,0,36-8,40-32c1.6-9.6,0.8-18.4-4-24
	C101.6,35.2,100,33.6,97.6,32.8"/>
<path class="st2" d="M92,30.4c-0.8,0-1.6-0.8-2.4-0.8s-1.6,0-2.4-0.8C84,28,80.8,28,76.8,28H45.6c-0.8,0-1.6,0-2.4,0.8
	c-1.6,0.8-2.4,2.4-2.4,4l-6.4,41.6V76c0.8-2.4,3.2-4.8,5.6-4.8h12c23.2,0,40.8-9.6,46.4-36c0-0.8,0-1.6,0.8-2.4
	c-1.6-0.8-2.4-1.6-4-1.6C92.8,30.4,92.8,30.4,92,30.4"/>
</svg>
