<?xml version="1.0" encoding="UTF-8"?>
<svg width="427px" height="372px" viewBox="0 0 427 372" version="1.1" xmlns="http://www.w3.org/2000/svg" xmlns:xlink="http://www.w3.org/1999/xlink">
    <!-- Generator: Sketch 41.2 (35397) - http://www.bohemiancoding.com/sketch -->
    <title>pci</title>
    <desc>Created with Sketch.</desc>
    <defs></defs>
    <g id="Page-1" stroke="none" stroke-width="1" fill="none" fill-rule="evenodd">
        <g id="pci">
            <g id="Слой_2">
                <g id="Layer_1">
                    <polygon id="Shape" fill="#10646D" points="0 17.57 85.98 249.73 373.11 159.52 309.3 0"></polygon>
                    <path d="M148,113.63 C148.113791,118.765646 146.831544,123.835881 144.29,128.3 C141.779515,132.61182 138.245365,136.238702 134,138.86 C129.036918,141.890953 123.586359,144.039374 117.89,145.21 C111.025282,146.678346 104.01969,147.385948 97,147.32 L91.35,147.32 L91.35,175.56 L55.42,175.56 L55.42,81.44 L97.51,81.44 C113.243333,81.44 125.596667,84.1066667 134.57,89.44 C143.543333,94.7733333 148.02,102.836667 148,113.63 L148,113.63 Z M113.5,114.03 C113.5,105.863333 107.45,101.776667 95.35,101.77 L91,101.77 L91,127 L95,127 C101,127 105.58,125.953333 108.74,123.86 C112,121.75 113.54,118.49 113.54,114 L113.5,114.03 Z" id="Shape" fill="#FFFFFF"></path>
                    <path d="M236.84,175.48 C230.643019,176.591539 224.355588,177.120513 218.06,177.06 C209.072877,177.184531 200.113556,176.033051 191.45,173.64 C184.304536,171.703164 177.589863,168.432348 171.66,164 C166.38738,159.969906 162.158968,154.733259 159.33,148.73 C156.452353,142.435395 155.007616,135.580576 155.1,128.66 C155.016987,121.758973 156.558504,114.935189 159.6,108.74 C162.622068,102.706174 166.962505,97.4292972 172.3,93.3 C178.146318,88.8278927 184.766944,85.471815 191.83,83.4 C199.920824,81.0072604 208.323218,79.834363 216.76,79.92 C223.76,79.92 230.25,80.13 235.93,81.36 C239.475623,82.0365642 242.945788,83.0615355 246.29,84.42 L246.23,109.67 C242.42703,107.565069 238.402457,105.888163 234.23,104.67 C229.628058,103.322427 224.85514,102.648762 220.06,102.67 C211.94,102.67 205.36,104.91 200.25,109.35 C195.14,113.79 192.62,120.18 192.62,128.45 C192.530152,132.34991 193.34477,136.217637 195,139.75 C196.526141,142.878629 198.729395,145.628426 201.45,147.8 C204.271479,150.010437 207.494054,151.653984 210.94,152.64 C214.737066,153.765006 218.679901,154.321047 222.64,154.29 C226.883576,154.296365 231.115213,153.840341 235.26,152.93 C239.733126,151.899736 244.130154,150.563254 248.42,148.93 L248.47,172.51 C244.656587,173.763023 240.760481,174.748744 236.81,175.46" id="Shape" fill="#FFFFFF"></path>
                    <rect id="Rectangle-path" fill="#FFFFFF" x="263.21" y="81.44" width="36.1" height="94.12"></rect>
                    <path d="M303.19,51.95 C303.19,58.2833333 301.09,63.2566667 296.89,66.87 C287.7575,74.0777223 274.8725,74.0777223 265.74,66.87 C261.533333,63.2633333 259.433333,58.29 259.44,51.95 C259.44,45.48 261.53,40.43 265.74,36.83 C274.863575,29.5966073 287.766425,29.5966073 296.89,36.83 C301.08,40.43 303.19,45.48 303.19,51.95" id="Shape" fill="#FFFFFF"></path>
                    <path d="M213.18,199.71 L240.12,180.87 L280.61,217.87 C280.61,217.87 315.15,132.42 387.55,72.26 L426.76,72.26 C426.76,72.26 368,125.17 293.67,253.76 L258.67,257.4 L213.22,201.2" id="Shape" fill="#28B34B"></path>
                    <path d="M227.72,275.23 C234.669198,274.17714 241.691891,273.685551 248.72,273.76 C261.32,273.76 269.33,275.81 275.78,280.31 C283.01,285.31 287.7,293.5 287.7,305.61 C287.7,319.09 282.62,327.79 276.27,332.77 C269.04,338.44 258.2,340.88 245.27,340.88 C239.38783,340.972766 233.507999,340.581446 227.69,339.71 L227.72,275.23 Z M245.4,327 C246.628745,327.171878 247.869898,327.238787 249.11,327.2 C260.54,327.4 269.04,321.05 269.04,306.2 C269.04,293.3 261.32,287.2 250.77,287.2 C248.971554,287.1541 247.172942,287.284726 245.4,287.59 L245.4,327 Z" id="Shape" fill="#007574"></path>
                    <path d="M298.24,322.51 C303.561392,325.139016 309.405014,326.540119 315.34,326.61 C321.4,326.61 324.34,324.56 324.34,321.24 C324.34,317.92 321.41,316.24 313.98,313.72 C302.84,309.72 295.42,303.66 295.42,293.89 C295.42,282.26 305.29,273.28 321.89,273.28 C327.982891,273.140213 334.038118,274.270885 339.67,276.6 L336,290.76 C331.526459,288.70513 326.662906,287.637604 321.74,287.63 C316.37,287.63 313.44,289.63 313.44,292.51 C313.44,295.83 316.96,297.1 325.26,300.23 C337.08,304.63 342.36,310.88 342.36,320.06 C342.36,331.39 333.57,341.06 314.36,341.06 C306.45,341.06 298.73,339.01 295.02,337.06 L298.24,322.51 Z" id="Shape" fill="#007574"></path>
                    <path d="M353,322.51 C358.321392,325.139016 364.165014,326.540119 370.1,326.61 C376.16,326.61 379.1,324.56 379.1,321.24 C379.1,317.92 376.17,316.24 368.74,313.72 C357.6,309.72 350.18,303.66 350.18,293.89 C350.18,282.26 360.05,273.28 376.65,273.28 C382.742891,273.140213 388.798118,274.270885 394.43,276.6 L390.72,290.77 C386.246459,288.71513 381.382906,287.647604 376.46,287.64 C371.09,287.64 368.16,289.64 368.16,292.52 C368.16,295.84 371.68,297.11 379.98,300.24 C391.8,304.64 397.08,310.89 397.08,320.07 C397.08,331.4 388.29,341.07 369.08,341.07 C361.17,341.07 353.45,339.02 349.74,337.07 L353,322.51 Z" id="Shape" fill="#007574"></path>
                    <path d="M228.901468,352.789334 C230.583487,351.088626 232.723357,350.238285 235.321141,350.238285 C238.797314,350.238285 241.338993,351.378303 242.946255,353.658373 C243.833987,354.938576 244.310552,356.223432 244.375964,357.51298 L240.058804,357.51298 C239.778468,356.522458 239.418708,355.774905 238.979514,355.270299 C238.194572,354.373223 237.031193,353.924691 235.489342,353.924691 C233.919458,353.924691 232.681324,354.557775 231.774903,355.823961 C230.868481,357.090148 230.415277,358.881938 230.415277,361.199386 C230.415277,363.516834 230.894178,365.252558 231.851995,366.40661 C232.809811,367.560662 234.02692,368.137679 235.503359,368.137679 C237.017176,368.137679 238.171211,367.642426 238.965497,366.651903 C239.404691,366.119264 239.769123,365.320317 240.058804,364.255039 L244.333914,364.255039 C243.960132,366.507075 243.004666,368.338579 241.467488,369.749606 C239.930309,371.160633 237.960975,371.866136 235.559426,371.866136 C232.587859,371.866136 230.251757,370.913006 228.551049,369.006718 C226.850341,367.091085 226,364.465307 226,361.129302 C226,357.522306 226.967146,354.742345 228.901468,352.789334 Z M260.838641,366.315501 C261.84318,365.053987 262.345442,363.259861 262.345442,360.933068 C262.345442,358.61562 261.84318,356.823829 260.838641,355.557643 C259.834102,354.291456 258.476827,353.658373 256.766774,353.658373 C255.056722,353.658373 253.692438,354.28912 252.673882,355.550634 C251.655327,356.812149 251.146056,358.606275 251.146056,360.933068 C251.146056,363.259861 251.655327,365.053987 252.673882,366.315501 C253.692438,367.577016 255.056722,368.207763 256.766774,368.207763 C258.476827,368.207763 259.834102,367.577016 260.838641,366.315501 Z M263.536867,369.455254 C261.976327,371.062517 259.719652,371.866136 256.766774,371.866136 C253.813897,371.866136 251.557222,371.062517 249.996682,369.455254 C247.903503,367.483554 246.85693,364.642854 246.85693,360.933068 C246.85693,357.148525 247.903503,354.307825 249.996682,352.410882 C251.557222,350.803619 253.813897,350 256.766774,350 C259.719652,350 261.976327,350.803619 263.536867,352.410882 C265.620701,354.307825 266.662603,357.148525 266.662603,360.933068 C266.662603,364.642854 265.620701,367.483554 263.536867,369.455254 Z M283.650908,350.630754 L289.86033,350.630754 L289.86033,371.291449 L285.837522,371.291449 L285.837522,357.316745 C285.837522,356.91493 285.842194,356.351929 285.851539,355.627727 C285.860883,354.903524 285.865555,354.345196 285.865555,353.952725 L281.954881,371.291449 L277.763872,371.291449 L273.881231,353.952725 C273.881231,354.345196 273.885903,354.903524 273.895248,355.627727 C273.904592,356.351929 273.909264,356.91493 273.909264,357.316745 L273.909264,371.291449 L269.886456,371.291449 L269.886456,350.630754 L276.165962,350.630754 L279.922452,366.876172 L283.650908,350.630754 Z M304.655014,354.905864 C304.089668,354.447981 303.29773,354.219043 302.279174,354.219043 L298.256366,354.219043 L298.256366,360.302314 L302.279174,360.302314 C303.29773,360.302314 304.089668,360.054687 304.655014,359.559426 C305.220359,359.064165 305.503027,358.279235 305.503027,357.204611 C305.503027,356.129988 305.220359,355.363747 304.655014,354.905864 Z M307.927926,362.34876 C306.694445,363.357971 304.933024,363.862569 302.64361,363.862569 L298.256366,363.862569 L298.256366,371.291449 L293.967239,371.291449 L293.967239,350.630754 L302.965995,350.630754 C305.040485,350.630754 306.694445,351.163385 307.927926,352.228664 C309.161406,353.293942 309.778137,354.943231 309.778137,357.176578 C309.778137,359.615505 309.161406,361.339549 307.927926,362.34876 Z M313.016007,350.630754 L317.333167,350.630754 L317.333167,367.577009 L327.565398,367.577009 L327.565398,371.291449 L313.016007,371.291449 L313.016007,350.630754 Z M334.503691,371.291449 L330.214564,371.291449 L330.214564,350.630754 L334.503691,350.630754 L334.503691,371.291449 Z M344.175251,363.484117 L349.417517,363.484117 L346.838434,355.3544 L344.175251,363.484117 Z M344.441569,350.630754 L349.3194,350.630754 L356.636145,371.291449 L351.954549,371.291449 L350.622958,367.044373 L343.01186,367.044373 L341.582151,371.291449 L337.068757,371.291449 L344.441569,350.630754 Z M359.187194,350.630754 L363.714606,350.630754 L371.94244,365.053994 L371.94244,350.630754 L375.965248,350.630754 L375.965248,371.291449 L371.648088,371.291449 L363.210002,356.615908 L363.210002,371.291449 L359.187194,371.291449 L359.187194,350.630754 Z M395,350.630754 L395,354.289127 L388.818612,354.289127 L388.818612,371.291449 L384.473418,371.291449 L384.473418,354.289127 L378.263996,354.289127 L378.263996,350.630754 L395,350.630754 Z" id="COMPLIANT" fill="#04646D"></path>
                </g>
            </g>
        </g>
    </g>
</svg>