<svg width="63" height="72" viewBox="0 0 63 72" xmlns="http://www.w3.org/2000/svg"><title>D6F235E7-7B7B-4AAB-ACA3-BCCFF897C6B5</title><g fill="none" fill-rule="evenodd"><path d="M13.619 0C11.183 0 9.19 2.025 9.19 4.5v63c0 2.475 1.993 4.5 4.429 4.5h44.286c2.435 0 4.428-2.025 4.428-4.5V18L44.62 0h-31z" fill="#E2E5E7"/><path d="M49.048 18h13.285L44.62 0v13.5c0 2.475 1.993 4.5 4.429 4.5z" fill="#B0B7BD"/><path fill="#CAD1D8" d="M62.333 31.5L49.048 18h13.285z"/><path d="M53.476 58.5c0 1.237-.996 2.25-2.214 2.25H2.548C1.33 60.75.333 59.737.333 58.5V36c0-1.237.997-2.25 2.215-2.25h48.714c1.218 0 2.214 1.013 2.214 2.25v22.5z" fill="#F15642"/><g fill="#FFF"><path d="M9.985 42.63c0-.593.461-1.241 1.203-1.241h4.09c2.302 0 4.375 1.566 4.375 4.567 0 2.844-2.073 4.428-4.375 4.428H12.32v2.376c0 .792-.496 1.24-1.133 1.24a1.202 1.202 0 0 1-1.203-1.24V42.63zm2.336 1.024v4.482h2.957c1.186 0 2.125-1.064 2.125-2.18 0-1.258-.939-2.302-2.125-2.302H12.32zM23.12 54c-.584 0-1.222-.324-1.222-1.114v-10.22c0-.645.638-1.115 1.223-1.115h4.054c8.09 0 7.914 12.449.16 12.449H23.12zm1.117-10.253v8.06h2.938c4.78 0 4.993-8.06 0-8.06h-2.938zM37.958 43.89v2.86h4.515c.638 0 1.276.648 1.276 1.276 0 .594-.638 1.08-1.276 1.08h-4.515v3.778c0 .63-.44 1.114-1.06 1.114-.78 0-1.256-.484-1.256-1.114v-10.22c0-.645.479-1.115 1.256-1.115h6.215c.78 0 1.24.47 1.24 1.116 0 .576-.46 1.224-1.24 1.224h-5.155v.002z"/></g><path d="M51.262 60.75H9.19V63h42.072c1.218 0 2.214-1.013 2.214-2.25V58.5c0 1.237-.996 2.25-2.214 2.25z" fill="#CAD1D8"/></g></svg>