<?xml version="1.0" encoding="UTF-8" standalone="no"?>
<svg width="27px" height="25px" viewBox="0 0 27 25" version="1.1" xmlns="http://www.w3.org/2000/svg" xmlns:xlink="http://www.w3.org/1999/xlink">
    <!-- Generator: Sketch 41.2 (35397) - http://www.bohemiancoding.com/sketch -->
    <title>Capa_1</title>
    <desc>Created with Sketch.</desc>
    <defs></defs>
    <g id="Page-1" stroke="none" stroke-width="1" fill="none" fill-rule="evenodd">
        <g id="Get-back-to-old-website-version" transform="translate(-477.000000, -6.000000)" fill="#FFFFFF">
            <g id="kangaroo-looking-right" transform="translate(477.000000, 6.000000)">
                <g id="Capa_1">
                    <path d="M24.0251023,2.95954774 C24.0251023,2.95954774 24.0251023,0.0270100503 22.9142093,0.116080402 C21.8045721,0.20540201 22.9142093,2.95954774 22.9142093,2.95954774 C22.9142093,2.95954774 21.6714558,4.3388191 21.2266465,5.67135678 C20.7824651,7.00414573 19.4505488,7.84886935 17.7623581,8.38128141 C16.0747953,8.91482412 10.877986,12.0698492 10.9230698,17.7570352 C11.0111023,21.6669598 10.2647721,23.710804 0.449330233,23.3110553 C-0.261209302,23.3110553 0.178074419,23.6486181 1.95894419,24.1997487 C4.15787442,24.8798995 5.90270233,24.9810302 6.88135814,24.9551508 C9.23550698,24.891206 12.0852,24.3684673 13.3963953,22.1560302 C13.9431767,21.311809 14.2095349,21.311809 14.431186,21.311809 C14.6535907,21.311809 15.0973953,21.4451005 15.4530419,21.7555276 C15.8079349,22.0667085 16.1192512,22.3777638 16.1192512,22.7334171 C16.1192512,23.0883166 15.7204047,23.3664573 15.4974977,23.9329146 C15.3508186,24.304397 15.2306372,24.9336683 16.385107,24.9664573 C17.5410837,24.9992462 23.564093,24.9664573 23.564093,24.9664573 C23.564093,24.9664573 24.4078744,24.7767588 24.4517023,24.1998744 C24.4965349,23.6221106 23.8304512,23.3111809 23.0752047,23.3551508 C22.3199581,23.3997487 18.2503674,23.6668342 17.8515209,23.1778894 C17.4519209,22.6884422 17.3180512,21.311809 18.029093,20.7781407 C18.7396326,20.2453518 20.7028465,18.0275126 20.4712744,15.4913317 C20.2806419,13.3991206 20.6424419,13.1859296 20.9424558,13.0915829 C21.3317581,12.971608 21.7298512,13.0615578 22.0503349,13.6826633 C22.3709442,14.3036432 22.4304698,15.6272613 23.022586,15.646608 C23.6134465,15.6669598 23.6836465,14.9154523 23.6730977,14.7144472 C23.6630512,14.5143216 23.7432977,13.0503769 21.9600419,11.5468593 C21.7601163,11.386809 21.5395953,11.0655779 21.9901814,10.3736181 C22.4412698,9.68190955 23.1219209,8.70954774 23.4731721,6.76557789 C23.5328233,6.37437186 23.6433349,6.22399497 24.1138884,6.22399497 C24.5850698,6.22399497 26.3380605,6.24321608 26.3380605,6.24321608 C26.3380605,6.24321608 26.969107,6.19321608 26.969107,5.75213568 C26.9694837,5.31130653 25.2540419,3.28241206 24.0251023,2.95954774 Z" id="Shape"></path>
                </g>
            </g>
        </g>
    </g>
</svg>