<?xml version="1.0" encoding="UTF-8" standalone="no"?>
<svg width="30px" height="43px" viewBox="0 0 30 43" version="1.1" xmlns="http://www.w3.org/2000/svg" xmlns:xlink="http://www.w3.org/1999/xlink">
    <!-- Generator: Sketch 41.2 (35397) - http://www.bohemiancoding.com/sketch -->
    <title>question</title>
    <desc>Created with Sketch.</desc>
    <defs></defs>
    <g id="Page-1" stroke="none" stroke-width="1" fill="none" fill-rule="evenodd">
        <g id="PW_16.02-Copy" transform="translate(-1175.000000, -1911.000000)">
            <g id="question" transform="translate(1175.000000, 1911.000000)">
                <g id="Group" transform="translate(0.239770, 0.284469)" fill="#FFFFFF">
                    <path d="M6.7551087,14.8578432 C6.19012788,14.8578432 5.73213555,14.3976202 5.73213555,13.8298876 L5.73213555,13.3624911 C5.73213555,12.4320767 6.42032928,11.6454121 7.33297634,11.5329649 C9.72028453,11.2397823 11.4937532,9.19300108 11.4602845,6.77198586 C11.4258887,4.27988761 9.30234335,2.14553356 6.82232417,2.11106341 C5.5546867,2.09820698 4.3550991,2.57687617 3.45116688,3.47235461 C2.54723465,4.36839203 2.04928389,5.56422654 2.04928389,6.83952871 C2.04928389,7.4072613 1.59129156,7.8674843 1.02631074,7.8674843 C0.461329923,7.8674843 0.00333759591,7.4072613 0.00333759591,6.83952871 C0.00333759591,5.00962988 0.717768542,3.29413465 2.01414642,2.00877093 C3.28808824,0.746325199 4.96810422,0.0547795802 6.75436701,0.0547795802 C6.7863523,0.0547795802 6.8183376,0.0547795802 6.85106458,0.0551522304 C10.4699457,0.105739496 13.4558887,3.10622579 13.5063235,6.74319863 C13.5535134,10.1496873 11.1045524,13.0401486 7.77826726,13.5469529 L7.77826726,13.8299808 C7.77817455,14.3976202 7.32008951,14.8578432 6.7551087,14.8578432 Z" id="Shape"></path>
                    <path d="M6.7551087,18.7642421 C6.07831841,18.7642421 5.52752238,18.2107634 5.52752238,17.5306768 C5.52752238,16.8505902 6.07831841,16.2971114 6.7551087,16.2971114 C7.43189898,16.2971114 7.98269501,16.8505902 7.98269501,17.5306768 C7.98269501,18.2107634 7.43189898,18.7642421 6.7551087,18.7642421 Z" id="Shape"></path>
                </g>
                <path d="M29.9104412,34.2630877 L29.9104412,28.2122732 C29.9104412,27.1368047 29.1402909,26.1568278 28.0753197,26.0496909 C26.8507001,25.92653 25.8183632,26.8896444 25.8183632,28.0950747 L25.8183632,27.3898342 C25.8183632,26.3143657 25.0482129,25.3343888 23.9832417,25.2272518 C22.7586221,25.104091 21.7262852,26.0672054 21.7262852,27.2726357 L21.7262852,26.5673952 C21.7262852,25.4919267 20.9561349,24.5119498 19.8911637,24.4048128 C18.6665441,24.281652 17.6342072,25.2447664 17.6342072,26.4501967 L17.6342072,15.0539012 C17.6342072,13.9784327 16.8640569,12.9984559 15.7990857,12.8913189 C14.5744661,12.768158 13.5421292,13.7312725 13.5421292,14.9367027 L13.5421292,34.2630877 C13.5421292,38.8051347 17.2062532,42.4871051 21.7262852,42.4871051 L21.7262852,42.4871051 C26.2463171,42.4871051 29.9104412,38.8051347 29.9104412,34.2630877 Z" id="Shape" fill="#F0C087"></path>
                <g id="Group" transform="translate(13.497442, 12.861414)" fill="#E6AF78">
                    <path d="M1.68159207,21.401674 L1.68159207,2.07528899 C1.68159207,1.23589441 2.18723785,0.523480376 2.90472826,0.20411915 C2.7170812,0.117105327 2.51765985,0.051705216 2.30173593,0.0299983415 C1.07711637,-0.0932557139 0.0447794118,0.869858742 0.0447794118,2.07528899 L0.0447794118,21.401674 C0.0447794118,25.943721 3.70890345,29.6256913 8.22893542,29.6256913 C8.50521419,29.6256913 8.77806266,29.6109717 9.04738811,29.5841408 C4.91164322,29.1714307 1.68159207,25.6660034 1.68159207,21.401674 Z" id="Shape"></path>
                    <path d="M4.95521739,14.8224414 C5.4071835,14.8224414 5.77367008,14.4541698 5.77367008,14.0000024 L5.77367008,13.5887829 C5.77367008,12.7493883 6.27931586,12.0369743 6.99680627,11.7176131 C6.80915921,11.6305992 6.60973785,11.5651991 6.39381394,11.5434923 C5.16919437,11.4202382 4.13685742,12.3833527 4.13685742,13.5887829 L4.13685742,14.0000024 C4.13685742,14.454263 4.50325128,14.8224414 4.95521739,14.8224414 L4.95521739,14.8224414 Z" id="Shape"></path>
                    <path d="M9.0472954,15.6448804 C9.49926151,15.6448804 9.86574808,15.2766088 9.86574808,14.8224414 L9.86574808,14.4112219 C9.86574808,13.5718273 10.3713939,12.8594133 11.0888843,12.5400521 C10.9012372,12.4530382 10.7018159,12.3876381 10.4858919,12.3659313 C9.26127238,12.2426772 8.22893542,13.2057917 8.22893542,14.4112219 L8.22893542,14.8224414 C8.22893542,15.2766088 8.59532928,15.6448804 9.0472954,15.6448804 L9.0472954,15.6448804 Z" id="Shape"></path>
                    <path d="M13.1393734,16.4673194 C13.5913395,16.4673194 13.9578261,16.0990479 13.9578261,15.6448804 L13.9578261,15.2336609 C13.9578261,14.3942663 14.4634719,13.6818523 15.1809623,13.3624911 C14.9933152,13.2754772 14.7938939,13.2100771 14.5779699,13.1883703 C13.3533504,13.0651162 12.3210134,14.0282307 12.3210134,15.2336609 L12.3210134,15.6448804 C12.3210134,16.0990479 12.6874073,16.4673194 13.1393734,16.4673194 L13.1393734,16.4673194 Z" id="Shape"></path>
                </g>
            </g>
        </g>
    </g>
</svg>