<svg xmlns="http://www.w3.org/2000/svg" width="185" height="189" viewBox="0 0 185 189">
    <g fill="none" fill-rule="nonzero">
        <path fill="#D9EAF3" d="M107.202 38.965c10.444 0 20.342 4.082 27.883 11.612l32.51 32.478c7.446 7.44 11.535 17.24 11.535 27.672 0 10.43-4.089 20.23-11.536 27.67l-32.51 32.48c-7.449 7.437-17.347 11.612-27.882 11.612a38.829 38.829 0 0 1-27.61-11.433l-32.513-32.478a39.047 39.047 0 0 1-11.533-27.76c0-10.433 4.086-20.323 11.533-27.763l32.513-32.478c7.447-7.618 17.254-11.612 27.61-11.612m0 149.057c11.988 0 23.248-4.718 31.875-13.248L171.59 142.3c8.538-8.53 13.168-19.687 13.168-31.663 0-11.884-4.72-23.135-13.168-31.662l-32.51-32.481c-8.536-8.525-19.797-13.243-31.785-13.243-11.9 0-23.16 4.628-31.607 13.152L43.175 78.885a44.518 44.518 0 0 0-13.165 31.751c0 11.976 4.72 23.224 13.165 31.751l32.513 32.478c8.447 8.53 19.614 13.157 31.514 13.157"/>
        <path fill="#4B6269" d="M139.805 72.259a3.832 3.832 0 0 0 0 5.354l.182.182a3.842 3.842 0 0 0 5.357 0l13.26-13.245a3.832 3.832 0 0 0 0-5.355l-.183-.181a3.842 3.842 0 0 0-5.357 0l-13.259 13.245zm.452 70.4a3.832 3.832 0 0 0 0 5.355l13.262 13.243a3.842 3.842 0 0 0 5.357 0l.182-.182a3.832 3.832 0 0 0 0-5.35l-13.256-13.247a3.842 3.842 0 0 0-5.363 0l-.182.182zm-83.55 13.519a3.832 3.832 0 0 0 0 5.354l.182.179c1.45 1.454 3.902 1.454 5.357 0l13.169-13.245a3.83 3.83 0 0 0 0-5.352l-.182-.181a3.842 3.842 0 0 0-5.36 0l-13.168 13.245h.002zm-.455-96.53a3.832 3.832 0 0 0 0 5.353l13.262 13.246c1.45 1.454 3.9 1.454 5.355 0l.182-.182a3.832 3.832 0 0 0 0-5.352L61.794 59.468a3.842 3.842 0 0 0-5.36 0l-.182.182v-.003z"/>
        <path fill="#6E9B0B" d="M107.381 146.923c20.072 0 36.417-16.33 36.417-36.378 0-20.05-16.345-36.378-36.417-36.378-20.07 0-36.416 16.328-36.416 36.378 0 20.14 16.258 36.378 36.416 36.378m0-102.154c36.417 0 65.937 29.487 65.937 65.867 0 36.378-29.518 65.863-65.937 65.863-36.416 0-65.934-29.485-65.934-65.863S70.965 44.77 107.38 44.77"/>
        <path fill="#D9EAF3" d="M100.298 75.98h14.078l2.36-32.663h-18.71l2.272 32.665v-.002zm41.412 28.214v13.97l32.7 1.817v-18.78l-32.7 2.993zm-27.334 40.733h-14.078l-2.27 33.568h18.71l-2.365-33.568h.003zM72.69 117.62v-14.066l-34.512-2.357v18.78l34.512-2.362v.005z"/>
        <path fill="#55677B" d="M42.762 95.033l59.61-45.27L77.04 16.478 25.235 55.825z"/>
        <path fill="#414E5B" d="M76.475 69.429l33.61-25.527-33.038-27.428-25.905 19.672z"/>
        <path fill="#313D45" d="M94.008-.022l1.195 1.568L62.02 49.98 1.498 72.848.242 71.197z"/>
        <path fill="#55677B" d="M94.026.004L60.944 48.29.264 71.218l39.158-45.752z"/>
        <path fill="#273136" d="M28.53 84.798h-2.708V61.56l20.514-28.163.996.878-18.775 26.262z"/>
        <path fill="#6E9B0B" d="M30.108 88.721l.006-1.849a2.939 2.939 0 0 0-1.461-2.551 2.945 2.945 0 0 0-2.943-.012 2.939 2.939 0 0 0-1.481 2.54l-.008 1.849 5.887.023z"/>
        <path fill="#6E9B0B" d="M31.676 92.64c-.458.615-4.526.54-4.526.54s-4.187.02-4.54-.657c-.354-.676 2.313-3.89 2.313-3.89l2.321-3.892 2.212 3.952s2.67 3.331 2.217 3.946"/>
    </g>
</svg>
