<svg xmlns="http://www.w3.org/2000/svg" xmlns:xlink="http://www.w3.org/1999/xlink" width="254" height="322" viewBox="0 0 254 322">
    <defs>
        <path id="a" d="M2.833 1.99C2.032.903 1.326.032 1.108.007h-.013c-.097 0-.431.083-.94.23V5.82h2.678V1.99z"/>
        <path id="c" d="M2.902 1.99C2.1.903 1.395.032 1.177.007h-.013C1.055.006.656.11.05.286V5.82h2.852V1.99z"/>
        <path id="e" d="M.27 9.408c3.937 9.793 23.93 63.66 24.726 64.76.878 1.21 18.938-2.754 18.165-5.881C40.08 55.807 23.538.955 22.533.04 9.83 6.378 2.38 7.643.27 7.888v1.52z"/>
        <path id="g" d="M.873.067L.285.058v6.08h.588V.068z"/>
        <path id="i" d="M.865.067L.095.055v6.083h.77V.068z"/>
        <path id="k" d="M.836.044L.248.036v6.102h.588V.044z"/>
        <path id="m" d="M.828.044l-.77-.01v6.104h.77V.044z"/>
        <path id="o" d="M.867.025L.279.018v6.12h.588V.025z"/>
        <path id="q" d="M.859.025l-.77-.01v6.123h.77V.025z"/>
        <path id="s" d="M.595.007L.007.001v6.137h.588V.008z"/>
        <path id="u" d="M.9.024L.13.016v6.14H.9V.024z"/>
        <path id="w" d="M.733.01L.146.005v6.15h.587V.01z"/>
        <path id="y" d="M.794.01L.024.003v6.153h.77V.01z"/>
        <path id="A" d="M.59.292L.002.289v6.216H.59V.292z"/>
        <path id="C" d="M.78.291L.194.287v6.218h.588V.291z"/>
        <path id="E" d="M.599.025L.01.015v6.1H.6V.025z"/>
        <path id="G" d="M.904.025L.134.01v6.104h.77V.025z"/>
        <path id="I" d="M.59.056L.003.044v6.07H.59V.057z"/>
        <path id="K" d="M.964.056L.194.04v6.075h.77V.056z"/>
        <path id="M" d="M.677.095L.089.08v6.245h.588V.095z"/>
        <path id="O" d="M1.05.095a232.05 232.05 0 0 0-.77-.02v6.25h.77V.095z"/>
        <path id="Q" d="M.645.142L.058.12v6.204h.587V.142z"/>
        <path id="S" d="M.95.142C.713.132.456.124.18.115v6.21h.77V.142z"/>
        <path id="U" d="M.85.223A14.131 14.131 0 0 0 .261.18v6.144h.587V.223z"/>
        <path id="W" d="M.842.223C.662.204.4.187.072.17v6.155h.77V.223z"/>
        <path id="Y" d="M.012.293c.417 2.391 1.94 69.47 2.367 70.875.435 1.432 18.8 3.58 19.09.372.862-9.55 2.333-43.823 2.755-61.123V.293C7.482 2.486.106.321.013.293H.012z"/>
        <path id="aa" d="M38.14.202c2.522 2.225 8.177 6.54 18.687 11.527-.098 1.356-33.009 48.242-40.918 58.373C13.928 72.64-.34 60.873.07 59.434.44 58.138 30 9.866 35.594.202h2.547z"/>
        <path id="ac" d="M4 .618L3.336 0H.062v5.243H4V.618z"/>
        <path id="ae" d="M4.153 1.141L3.212.268H.062v5.357h4.09V1.14z"/>
        <path id="ag" d="M3.984.686L3.35.099H.045v5.243h3.939V.686z"/>
        <path id="ai" d="M4.136.895l-.91-.842H.045V5.41h4.091V.895z"/>
        <path id="ak" d="M4.017.803L3.41.243H.08v5.243h3.938V.803z"/>
        <path id="am" d="M4.17.944L3.286.13H.078v5.357H4.17V.944z"/>
        <path id="ao" d="M4.058.549L3.475.012H.12v5.242h3.938V.55z"/>
        <path id="aq" d="M4.21 1.071L3.35.28H.12v5.357h4.09V1.071z"/>
        <path id="as" d="M4.222.792C4.025.61 3.837.437 3.66.275H.284v5.242h3.938V.792z"/>
        <path id="au" d="M4.375.933L3.535.16H.283v5.357h4.091V.933z"/>
        <path id="aw" d="M4.386.655L3.893.202H1.91C1.41.503.814.886.246 1.312v3.975h4.14V.655z"/>
        <path id="ay" d="M4.534.79L3.76.082H2.114C1.574.398.893.826.246 1.312v3.975h4.288V.79z"/>
        <path id="aA" d="M3.989.597L3.354.005H.05v5.243H3.99V.597z"/>
        <path id="aC" d="M4.141 1.052l-.91-.848H.051V5.56h4.09V1.052z"/>
        <path id="aE" d="M4.023.869L3.348.235H.085v5.243h3.938V.868z"/>
        <path id="aG" d="M4.176 1.012L3.225.12H.085v5.358h4.09V1.012z"/>
        <path id="aI" d="M4.004.409L3.586.013H.066v5.242h3.938V.41z"/>
        <path id="aK" d="M4.157.867c-.22-.21-.452-.429-.692-.656h-3.4v5.357h4.092v-4.7z"/>
        <path id="aM" d="M4.233.592L3.759.136H.294v5.242h3.939V.592z"/>
        <path id="aO" d="M4.274 5.378l.111-.234V.74C4.16.52 3.91.28 3.639.02H.294v5.357h3.98z"/>
        <path id="aQ" d="M2.67 5.25c.55-1.121 1.125-2.343 1.471-3.207V.563a27.211 27.211 0 0 0-.548-.555H.203V5.25H2.67z"/>
        <path id="aS" d="M2.67 5.564c.64-1.308 1.317-2.753 1.624-3.607v-.918a22.007 22.007 0 0 0-.818-.832H.203v5.357H2.67z"/>
        <path id="aU" d="M63.925 15.041c-.322 1.333-40.275 42.36-49.696 51.098C11.87 68.33-.34 54.436.293 53.081.865 51.86 37.807 8.844 44.82.251h2.148c1.924 2.43 6.815 7.803 16.957 14.79z"/>
        <path id="aW" d="M65.79 15.902c-.39 1.302-42.687 39.923-52.605 48.094C10.7 66.043-.675 51.46.038 50.143.68 48.957 40.11 8.15 47.594.006h2.04c1.708 2.469 6.263 8.188 16.156 15.896z"/>
        <path id="aY" d="M46.654.026H.137v26.836h46.517V.026z"/>
        <path id="ba" d="M17.166 7.929c.309-4.173.52-7.859.52-7.859H.155V7.93h17.01z"/>
        <path id="bc" d="M19.148.005c.128 19.24-13.93 41.712-13.93 41.712-3.799 1.431-3.592-4.773-3.592-4.773C-.78 23.37.093 9.52 1.316.005h17.832z"/>
        <path id="be" d="M4.01.13C2.33 6.345-2.37 25.732 1.926 33.561c2.681 4.888 7.043 1.604 7.043 1.604S14.969 15.213 18.342.13H4.01z"/>
        <path id="bg" d="M85.914 107.15c-38.67-7.01-64.64-44.554-64.964-83.249-.07-8.338 1.477-16.357 4.014-23.865H3.699C-2.17 21.97-1.423 45.688 11.584 67.971c31.017 53.133 72.774 63.916 72.774 63.916-.098 3.638-1.275 13.69-2.735 25.02h4.291v-49.756z"/>
        <path id="bi" d="M64.623.121C70.236 10.372 75.63 24.756 78.47 44.51c7.512 52.262-36.848 96.648-61.174 110.966-6.866 4.042-12.536 6.547-17.137 8.062v60.51h9.93C4.514 202.36 4.27 185.544 4.27 185.544c30.62-10.738 101.746-69.085 98.526-134.273-.99-20.064-5.574-37.133-11.445-51.149H64.623z"/>
        <path id="bk" d="M45.406 2.684c-3.59.02-5.183-.83-5.183-.83H25.576l-2.524 9.253L20.502.01 5.698 1.855a74.464 74.464 0 0 1-5.662-.233v15.093h45.37V2.684z"/>
    </defs>
    <g fill="none" fill-rule="evenodd">
        <path fill="#8C6449" d="M134.426 95.45c-27.542-2.677-44.36-2.033-47.58.822-3.22 2.856 5.792 11.626 43.947 15.921 38.155 4.296 51.545-3.143 51.928-5.721.383-2.578-20.57-8.327-48.295-11.022"/>
        <path fill="#CC8758" d="M134.922 96.504c24.7 2.48 44.624 6.61 45.344 9.348l5.775.62c-.259-3.857-22.81-9.2-50.912-12.022-26.357-2.647-48.365-2.148-51.841 1l5.99.643c3.859-1.98 22.907-1.871 45.644.411"/>
        <path fill="#F2C9A5" d="M62.64 57.523c.658 1.12 12.313 3.67 15.673 4.743 3.36 1.074 6.48-1.557 6.748-3.363.63-4.253-11.272-9.442-13.24-9.934-1.967-.492-12.282 3.282-9.182 8.554"/>
        <path fill="#F2C9A5" d="M62.64 57.523s11.74-.941 13.875-4.487c2.135-3.546 11.756-6.066 13.498-8.26 1.742-2.195 7.287-.849 3.959-3.553-3.328-2.705-13.088.22-16.427 1.53-3.339 1.31-24.088 10.572-14.906 14.77"/>
        <path fill="#E2B998" d="M103.303 42.753c.893-1.051 2.212 7.142-1.194 10.283-3.406 3.142-3.576-4.672 1.194-10.283"/>
        <path fill="#F2C9A5" d="M78.738 33.915s9.195-5.258 11.275-4.953c2.08.305 12.54 6.626 14.465 9.073 1.925 2.448-1.862 10.255-2.354 11.244-.491.988-3.665 1.24-3.665 1.24s1.119-7.841 0-9.296c-1.119-1.456-17.573-4.588-19.721-7.308"/>
        <path fill="#FFF" d="M76.523 47.95s15.596-5.262 16.185-5.197c.59.066 4.728 6.305 4.728 6.305s-13.49 8.161-19.287 5.525c-1.846-.84-1.626-6.633-1.626-6.633M84.478 44.823l2.678 5.987"/>
        <path fill="#8E8E8E" d="M84.652 44.745l2.504 6.065-2.852-5.908z"/>
        <path fill="#FFF" d="M83 45.334l2.678 5.986"/>
        <path fill="#8E8E8E" d="M83.174 45.256l2.504 6.064-2.852-5.908z"/>
        <path fill="#FFF" d="M81.586 45.822l2.678 5.986"/>
        <path fill="#8E8E8E" d="M81.76 45.744l2.504 6.064-2.852-5.908z"/>
        <path fill="#FFF" d="M80.182 46.307l2.677 5.986"/>
        <path fill="#8E8E8E" d="M80.356 46.23l2.503 6.063-2.852-5.907z"/>
        <path fill="#FFF" d="M78.934 46.738l2.679 5.986"/>
        <path fill="#8E8E8E" d="M79.109 46.66l2.503 6.064-2.852-5.908z"/>
        <path fill="#FFF" d="M77.728 47.193l2.442 6.086"/>
        <path fill="#8E8E8E" d="M77.905 47.122l2.266 6.157-2.62-6.015z"/>
        <path fill="#FFF" d="M85.973 44.355l2.677 5.986"/>
        <path fill="#8E8E8E" d="M86.147 44.277l2.504 6.064-2.853-5.908z"/>
        <path fill="#FFF" d="M87.473 43.837l2.677 5.986"/>
        <path fill="#8E8E8E" d="M87.647 43.759l2.504 6.064-2.853-5.908z"/>
        <path fill="#FFF" d="M89.066 43.51l2.678 5.985"/>
        <path fill="#8E8E8E" d="M89.24 43.431l2.504 6.064-2.852-5.908z"/>
        <path fill="#FFF" d="M90.415 43.044l2.677 5.986"/>
        <path fill="#8E8E8E" d="M90.589 42.966l2.503 6.064-2.852-5.909z"/>
        <g transform="translate(91.6 42.746)">
            <mask id="b" fill="#fff">
                <use xlink:href="#a"/>
            </mask>
            <path fill="#FFF" d="M.155-.166L2.833 5.82" mask="url(#b)"/>
        </g>
        <g transform="translate(91.531 42.746)">
            <mask id="d" fill="#fff">
                <use xlink:href="#c"/>
            </mask>
            <path fill="#8E8E8E" d="M.398-.244L2.902 5.82.05-.088z" mask="url(#d)"/>
        </g>
        <path fill="#78A21B" d="M76.743 57.183s7.681-.318 22.887-7.905c1.005.915 17.546 55.767 20.628 68.247.772 3.127-17.287 7.092-18.165 5.88-.862-1.188-24.177-64.103-25.35-66.222"/>
        <g transform="translate(77.096 49.238)">
            <mask id="f" fill="#fff">
                <use xlink:href="#e"/>
            </mask>
            <path fill="#9ED400" d="M.27 9.752s19.73 48.47 21 50.808c1.269 2.339 14.761-2.328 16.318-5.888L22.533.04S45.226 66.2 44.42 69.62c-.807 3.42-16.773 8.705-21.502 5.782C18.188 72.48.27 9.752.27 9.752" mask="url(#f)"/>
        </g>
        <path fill="#7ED321" d="M76.743 57.183s-2.47-8.077-2.226-9.014c.245-.936 2.536-.876 2.536-.876s1.63 6.457 2.335 6.768c2.806 1.24 16.147-4.441 16.336-5.264.19-.822-3.418-6.11-3.226-6.649.193-.54 2.023-1.267 2.423-.931.4.335 4.508 6.553 4.709 8.061.2 1.509-14.864 8.763-22.887 7.905"/>
        <path fill="#ACB41A" d="M83.465 63.823s10.88-2.243 15.485-5.348c0 0 5.284 14.585 5.525 16.016.242 1.431-14.212 6.913-15.023 5.693-.713-1.072-5.987-16.36-5.987-16.36"/>
        <path fill="#D6BD08" d="M79.898 59.754s11.07-.92 19.452-6.718l.778 2.256s-7.874 5.496-19.452 6.718l-.778-2.256z"/>
        <path fill="#A8910B" d="M102.109 120.464s9.321-.494 16.508-5.153l.597 1.915s-6.752 4.418-16.509 5.152l-.596-1.914z"/>
        <path fill="#D6BD08" d="M88.828 82.217s9.403-.52 16.666-5.201l.596 1.914s-6.822 4.44-16.666 5.201l-.596-1.914z"/>
        <path fill="#FFDFBE" d="M51.072 48.753S68.593 32.515 74.5 31.368c5.907-1.146 23.169 3.672 25.628 6.394 2.46 2.721 1.74 8.687 1.98 9.403.24.716-2.275.94-5.484-2.39-3.21-3.328-6.61-2.022-6.61-2.022s-9.298 1.077-10.525 0c0 0-3.976 11.52-18.223 12.62-14.248 1.099-10.194-6.62-10.194-6.62"/>
        <path fill="#E8B587" d="M64.627 54.453s9.533-.206 14.503-12.059c0 0-3.178 14.789-14.503 12.059"/>
        <path fill="#FFF" d="M113.498 28.962s16.458.118 16.993.372c.536.254 2.414 7.503 2.414 7.503s-15.414 3.311-20.033-1.074c-1.472-1.396.626-6.801.626-6.801"/>
        <g transform="translate(121.751 28.998)">
            <mask id="h" fill="#fff">
                <use xlink:href="#g"/>
            </mask>
            <path fill="#FFF" d="M.285-.394l.61 6.532" mask="url(#h)"/>
        </g>
        <g transform="translate(121.751 28.998)">
            <mask id="j" fill="#fff">
                <use xlink:href="#i"/>
            </mask>
            <path fill="#8E8E8E" d="M.475-.411l.39 6.55-.77-6.517z" mask="url(#j)"/>
        </g>
        <g transform="translate(120.225 28.998)">
            <mask id="l" fill="#fff">
                <use xlink:href="#k"/>
            </mask>
            <path fill="#FFF" d="M.248-.394l.61 6.532" mask="url(#l)"/>
        </g>
        <g transform="translate(120.225 28.998)">
            <mask id="n" fill="#fff">
                <use xlink:href="#m"/>
            </mask>
            <path fill="#8E8E8E" d="M.438-.411l.39 6.55-.77-6.517z" mask="url(#n)"/>
        </g>
        <g transform="translate(118.698 28.998)">
            <mask id="p" fill="#fff">
                <use xlink:href="#o"/>
            </mask>
            <path fill="#FFF" d="M.28-.394l.61 6.532" mask="url(#p)"/>
        </g>
        <g transform="translate(118.698 28.998)">
            <mask id="r" fill="#fff">
                <use xlink:href="#q"/>
            </mask>
            <path fill="#8E8E8E" d="M.47-.411l.389 6.55-.77-6.517z" mask="url(#r)"/>
        </g>
        <g transform="translate(117.484 28.998)">
            <mask id="t" fill="#fff">
                <use xlink:href="#s"/>
            </mask>
            <path fill="#FFF" d="M.007-.394l.61 6.532" mask="url(#t)"/>
        </g>
        <g transform="translate(117.171 28.98)">
            <mask id="v" fill="#fff">
                <use xlink:href="#u"/>
            </mask>
            <path fill="#8E8E8E" d="M.51-.394l.39 6.55L.13-.36z" mask="url(#v)"/>
        </g>
        <g transform="translate(116.026 28.98)">
            <mask id="x" fill="#fff">
                <use xlink:href="#w"/>
            </mask>
            <path fill="#FFF" d="M.146-.377l.61 6.533" mask="url(#x)"/>
        </g>
        <g transform="translate(115.958 28.98)">
            <mask id="z" fill="#fff">
                <use xlink:href="#y"/>
            </mask>
            <path fill="#8E8E8E" d="M.405-.394l.389 6.55L.024-.36z" mask="url(#z)"/>
        </g>
        <g transform="translate(114.881 28.685)">
            <mask id="B" fill="#fff">
                <use xlink:href="#A"/>
            </mask>
            <path fill="#FFF" d="M.002-.045l.519 6.55" mask="url(#B)"/>
        </g>
        <g transform="translate(114.5 28.685)">
            <mask id="D" fill="#fff">
                <use xlink:href="#C"/>
            </mask>
            <path fill="#8E8E8E" d="M.628-.055l.153 6.56-.588-6.54z" mask="url(#D)"/>
        </g>
        <g transform="translate(123.591 29.067)">
            <mask id="F" fill="#fff">
                <use xlink:href="#E"/>
            </mask>
            <path fill="#FFF" d="M.011-.418l.61 6.533" mask="url(#F)"/>
        </g>
        <g transform="translate(123.278 29.067)">
            <mask id="H" fill="#fff">
                <use xlink:href="#G"/>
            </mask>
            <path fill="#8E8E8E" d="M.514-.435l.39 6.55-.77-6.516z" mask="url(#H)"/>
        </g>
        <g transform="translate(125.186 29.067)">
            <mask id="J" fill="#fff">
                <use xlink:href="#I"/>
            </mask>
            <path fill="#FFF" d="M.003-.418l.61 6.533" mask="url(#J)"/>
        </g>
        <g transform="translate(124.805 29.067)">
            <mask id="L" fill="#fff">
                <use xlink:href="#K"/>
            </mask>
            <path fill="#8E8E8E" d="M.575-.435l.389 6.55-.77-6.516z" mask="url(#L)"/>
        </g>
        <g transform="translate(126.713 29.067)">
            <mask id="N" fill="#fff">
                <use xlink:href="#M"/>
            </mask>
            <path fill="#FFF" d="M.089-.207l.61 6.532" mask="url(#N)"/>
        </g>
        <g transform="translate(126.331 29.067)">
            <mask id="P" fill="#fff">
                <use xlink:href="#O"/>
            </mask>
            <path fill="#8E8E8E" d="M.66-.224l.39 6.55L.28-.192z" mask="url(#P)"/>
        </g>
        <g transform="translate(128.171 29.067)">
            <mask id="R" fill="#fff">
                <use xlink:href="#Q"/>
            </mask>
            <path fill="#FFF" d="M.058-.207l.61 6.532" mask="url(#R)"/>
        </g>
        <g transform="translate(127.858 29.067)">
            <mask id="T" fill="#fff">
                <use xlink:href="#S"/>
            </mask>
            <path fill="#8E8E8E" d="M.56-.224l.39 6.55L.18-.192z" mask="url(#T)"/>
        </g>
        <g transform="translate(129.385 29.067)">
            <mask id="V" fill="#fff">
                <use xlink:href="#U"/>
            </mask>
            <path fill="#FFF" d="M.262-.207l.61 6.532" mask="url(#V)"/>
        </g>
        <g transform="translate(129.385 29.067)">
            <mask id="X" fill="#fff">
                <use xlink:href="#W"/>
            </mask>
            <path fill="#8E8E8E" d="M.452-.224l.39 6.55-.77-6.517z" mask="url(#X)"/>
        </g>
        <path fill="#417505" d="M110.695 37.762s7.364 2.207 24.212 0c.652 1.193-1.6 58.444-2.756 71.246-.29 3.208-18.654 1.06-19.089-.372-.427-1.404-1.95-68.488-2.367-70.874"/>
        <g transform="translate(110.683 37.469)">
            <mask id="Z" fill="#fff">
                <use xlink:href="#Y"/>
            </mask>
            <path fill="#519405" d="M.012 2.206s2.844 52.257 3.282 54.882c.437 2.626 14.713 2.62 17.346-.238L24.224.293S24.1 70.24 22.222 73.21c-1.878 2.97-18.693 2.753-22.21-1.554-3.518-4.306 0-69.45 0-69.45" mask="url(#Z)"/>
        </g>
        <g>
            <path fill="#519305" d="M110.695 37.762s.298-8.442.835-9.248c.537-.805 2.683 0 2.683 0s-.564 6.636 0 7.16c2.249 2.088 16.711 1.074 17.159.358.447-.716-1.24-6.891-.882-7.338.358-.448 2.326-.537 2.594-.09.268.447 2.125 7.666 1.823 9.158-.303 1.491-16.909 3.43-24.212 0"/>
            <path fill="#ACB41A" d="M114.884 46.233s11.015 1.432 16.381 0c0 0 .239 15.512 0 16.943-.238 1.432-15.689 1.895-16.057.478-.324-1.248-.324-17.42-.324-17.42"/>
            <path fill="#D6BD08" d="M112.839 41.222s10.763 2.744 20.578 0v2.387s-9.235 2.624-20.578 0v-2.387z"/>
            <path fill="#A8910B" d="M114.037 105.86s8.973 2.577 17.286.52l-.06 2.004s-7.824 1.972-17.286-.519l.06-2.005z"/>
            <path fill="#D6BD08" d="M113.955 65.371s9.058 2.579 17.45.524l-.06 2.005s-7.898 1.969-17.45-.524l.06-2.005z"/>
            <path fill="#FFF" d="M151.167 71.815s13.765 9.028 14.078 9.532c.312.504-2.037 7.614-2.037 7.614s-14.746-5.58-16.252-11.77c-.48-1.971 4.21-5.376 4.21-5.376"/>
        </g>
        <g>
            <path fill="#FFF" d="M158.536 76.147l-3.053 5.803"/>
            <path fill="#8E8E8E" d="M158.705 76.236l-3.222 5.714 2.884-5.892z"/>
            <path fill="#FFF" d="M157.222 75.299l-3.053 5.803"/>
            <path fill="#8E8E8E" d="M157.391 75.388l-3.221 5.714 2.883-5.892z"/>
            <path fill="#FFF" d="M155.965 74.487l-3.052 5.804"/>
            <path fill="#8E8E8E" d="M156.134 74.576l-3.221 5.715 2.883-5.893z"/>
            <path fill="#FFF" d="M154.717 73.681l-3.053 5.804"/>
            <path fill="#8E8E8E" d="M154.886 73.77l-3.222 5.715 2.884-5.893z"/>
            <path fill="#FFF" d="M153.608 72.966l-3.052 5.803"/>
            <path fill="#8E8E8E" d="M153.777 73.054l-3.221 5.715 2.883-5.892z"/>
            <path fill="#FFF" d="M152.506 72.297l-3.277 5.68"/>
            <path fill="#8E8E8E" d="M152.671 72.392l-3.442 5.585 3.112-5.776z"/>
            <path fill="#FFF" d="M159.827 77.034l-3.052 5.803"/>
            <path fill="#8E8E8E" d="M159.996 77.123l-3.221 5.714 2.883-5.892z"/>
            <path fill="#FFF" d="M161.16 77.895l-3.052 5.803"/>
            <path fill="#8E8E8E" d="M161.33 77.983l-3.222 5.715 2.884-5.893z"/>
            <path fill="#FFF" d="M162.402 78.947l-3.053 5.803"/>
            <path fill="#8E8E8E" d="M162.57 79.036l-3.22 5.714 2.883-5.892z"/>
            <path fill="#FFF" d="M163.6 79.72l-3.052 5.804"/>
            <path fill="#8E8E8E" d="M163.77 79.81l-3.222 5.714 2.884-5.892z"/>
            <path fill="#FFF" d="M164.792 80.49l-3.053 5.803"/>
            <path fill="#8E8E8E" d="M164.961 80.579l-3.221 5.714 2.883-5.892z"/>
        </g>
        <path fill="#78A21B" d="M144.044 77.69s4.992 5.849 20.344 13.133c-.098 1.356-33.01 48.243-40.918 58.373-1.981 2.539-16.249-9.228-15.839-10.667.403-1.412 35.47-58.608 36.413-60.84"/>
        <g transform="translate(107.561 79.095)">
            <mask id="ab" fill="#fff">
                <use xlink:href="#aa"/>
            </mask>
            <path fill="#8E4006" d="M35.446.202S9.522 45.656 8.467 48.099c-1.054 2.443 10.945 10.182 14.705 9.21l33.655-45.58s-38.002 58.708-41.19 60.185C12.45 73.39-1.56 64.087-2.182 58.56-2.806 53.033 35.447.202 35.447.202" mask="url(#ab)"/>
        </g>
        <g>
            <path fill="#7ED321" d="M144.044 77.69s4.825-6.932 5.712-7.318c.887-.386 2.255 1.456 2.255 1.456s-4.07 5.27-3.88 6.015c.759 2.975 13.461 9.968 14.225 9.609.763-.36 2.692-6.462 3.235-6.644.543-.182 2.245.81 2.228 1.331-.017.522-2.369 7.595-3.43 8.684-1.063 1.09-16.067-6.29-20.345-13.134"/>
            <path fill="#ACB41A" d="M142.974 87.08s8.48 7.179 13.765 8.887c0 0-8.204 13.163-9.18 14.237-.977 1.073-14.21-6.92-13.752-8.31.403-1.224 9.167-14.814 9.167-14.814"/>
            <path fill="#D6BD08" d="M143.97 81.76s7.558 8.145 17.292 11.163l-1.294 2.005s-9.182-2.804-17.291-11.163l1.293-2.005z"/>
            <path fill="#A8910B" d="M109.955 136.725s6.143 7.032 14.243 9.813l-1.137 1.651s-7.642-2.587-14.243-9.813l1.137-1.651z"/>
            <path fill="#D6BD08" d="M131.824 102.658s6.214 7.08 14.379 9.906l-1.137 1.652s-7.703-2.63-14.379-9.907l1.137-1.651z"/>
            <path fill="#FFF" d="M195.5 57.604s12.151 11.108 12.38 11.655c.227.548-3.225 7.192-3.225 7.192s-13.668-7.86-14.169-14.212c-.16-2.023 5.014-4.635 5.014-4.635"/>
        </g>
        <g>
            <g transform="translate(198.085 63.055)">
                <mask id="ad" fill="#fff">
                    <use xlink:href="#ac"/>
                </mask>
                <path fill="#FFF" d="M4 0L.062 5.243" mask="url(#ad)"/>
            </g>
            <g transform="translate(198.085 62.673)">
                <mask id="af" fill="#fff">
                    <use xlink:href="#ae"/>
                </mask>
                <path fill="#8E8E8E" d="M4.153.497L.062 5.625 3.848.268z" mask="url(#af)"/>
            </g>
            <g transform="translate(196.94 61.91)">
                <mask id="ah" fill="#fff">
                    <use xlink:href="#ag"/>
                </mask>
                <path fill="#FFF" d="M3.984.1L.045 5.341" mask="url(#ah)"/>
            </g>
            <g transform="translate(196.94 61.84)">
                <mask id="aj" fill="#fff">
                    <use xlink:href="#ai"/>
                </mask>
                <path fill="#8E8E8E" d="M4.136.283L.045 5.41 3.83.053z" mask="url(#aj)"/>
            </g>
            <g transform="translate(195.795 60.764)">
                <mask id="al" fill="#fff">
                    <use xlink:href="#ak"/>
                </mask>
                <path fill="#FFF" d="M4.017.243L.08 5.486" mask="url(#al)"/>
            </g>
            <g transform="translate(195.795 60.764)">
                <mask id="an" fill="#fff">
                    <use xlink:href="#am"/>
                </mask>
                <path fill="#8E8E8E" d="M4.17.358L.078 5.486 3.865.129z" mask="url(#an)"/>
            </g>
            <g transform="translate(194.65 60)">
                <mask id="ap" fill="#fff">
                    <use xlink:href="#ao"/>
                </mask>
                <path fill="#FFF" d="M4.058.012L.12 5.254" mask="url(#ap)"/>
            </g>
            <g transform="translate(194.65 59.618)">
                <mask id="ar" fill="#fff">
                    <use xlink:href="#aq"/>
                </mask>
                <path fill="#8E8E8E" d="M4.21.509L.12 5.636 3.904.28z" mask="url(#ar)"/>
            </g>
            <g transform="translate(193.505 58.854)">
                <mask id="at" fill="#fff">
                    <use xlink:href="#as"/>
                </mask>
                <path fill="#FFF" d="M4.222.275L.284 5.517" mask="url(#at)"/>
            </g>
            <g transform="translate(193.505 58.854)">
                <mask id="av" fill="#fff">
                    <use xlink:href="#au"/>
                </mask>
                <path fill="#8E8E8E" d="M4.375.39L.284 5.516 4.07.16z" mask="url(#av)"/>
            </g>
            <g transform="translate(192.36 58.09)">
                <mask id="ax" fill="#fff">
                    <use xlink:href="#aw"/>
                </mask>
                <path fill="#FFF" d="M4.386.202L.246 5.287" mask="url(#ax)"/>
            </g>
            <g transform="translate(192.36 58.09)">
                <mask id="az" fill="#fff">
                    <use xlink:href="#ay"/>
                </mask>
                <path fill="#8E8E8E" d="M4.534.323L.246 5.287 4.238.082z" mask="url(#az)"/>
            </g>
            <g transform="translate(199.23 64.132)">
                <mask id="aB" fill="#fff">
                    <use xlink:href="#aA"/>
                </mask>
                <path fill="#FFF" d="M3.989.005L.05 5.248" mask="url(#aB)"/>
            </g>
            <g transform="translate(199.23 63.819)">
                <mask id="aD" fill="#fff">
                    <use xlink:href="#aC"/>
                </mask>
                <path fill="#8E8E8E" d="M4.141.433L.051 5.561 3.835.204z" mask="url(#aD)"/>
            </g>
            <g transform="translate(200.375 64.965)">
                <mask id="aF" fill="#fff">
                    <use xlink:href="#aE"/>
                </mask>
                <path fill="#FFF" d="M4.023.235L.085 5.478" mask="url(#aF)"/>
            </g>
            <g transform="translate(200.375 64.965)">
                <mask id="aH" fill="#fff">
                    <use xlink:href="#aG"/>
                </mask>
                <path fill="#8E8E8E" d="M4.176.35L.084 5.478 3.871.12z" mask="url(#aH)"/>
            </g>
            <g transform="translate(201.45 66.424)">
                <mask id="aJ" fill="#fff">
                    <use xlink:href="#aI"/>
                </mask>
                <path fill="#FFF" d="M4.004.013L.066 5.255" mask="url(#aJ)"/>
            </g>
            <g transform="translate(201.45 66.11)">
                <mask id="aL" fill="#fff">
                    <use xlink:href="#aK"/>
                </mask>
                <path fill="#8E8E8E" d="M4.157.44L.066 5.569 3.852.211z" mask="url(#aL)"/>
            </g>
            <g transform="translate(202.283 67.256)">
                <mask id="aN" fill="#fff">
                    <use xlink:href="#aM"/>
                </mask>
                <path fill="#FFF" d="M4.233.136L.294 5.378" mask="url(#aN)"/>
            </g>
            <g transform="translate(202.283 67.256)">
                <mask id="aP" fill="#fff">
                    <use xlink:href="#aO"/>
                </mask>
                <path fill="#8E8E8E" d="M4.385.25L.294 5.379 4.08.02z" mask="url(#aP)"/>
            </g>
            <g transform="translate(203.428 68.333)">
                <mask id="aR" fill="#fff">
                    <use xlink:href="#aQ"/>
                </mask>
                <path fill="#FFF" d="M4.141.008L.203 5.25" mask="url(#aR)"/>
            </g>
            <g transform="translate(203.428 68.02)">
                <mask id="aT" fill="#fff">
                    <use xlink:href="#aS"/>
                </mask>
                <path fill="#8E8E8E" d="M4.294.436L.203 5.564 3.989.207z" mask="url(#aT)"/>
            </g>
        </g>
        <path fill="#78A21B" d="M187.532 62.266s3.996 6.572 17.992 16.212c-.314 1.323-40.275 42.36-49.697 51.098-2.36 2.19-14.57-11.702-13.936-13.058.622-1.33 44.355-52.199 45.641-54.252"/>
        <g transform="translate(141.598 63.437)">
            <mask id="aV" fill="#fff">
                <use xlink:href="#aU"/>
            </mask>
            <path fill="#ACB41A" d="M44.655.25S11.82 40.988 10.39 43.23c-1.43 2.245 9.181 11.8 13.049 11.438l40.487-39.627s-46.87 51.895-50.253 52.844c-3.381.949-15.731-10.471-15.465-16.026C-1.526 46.303 44.655.25 44.655.25" mask="url(#aV)"/>
        </g>
        <g>
            <path fill="#ACB41A" d="M187.532 62.266s5.868-6.073 6.805-6.312c.937-.239 1.994 1.797 1.994 1.797s-4.857 4.553-4.788 5.32c.275 3.057 11.7 11.987 12.51 11.755.812-.233 3.689-5.95 4.254-6.043.565-.093 2.087 1.158 1.987 1.67-.1.512-3.548 7.119-4.77 8.025-1.222.906-14.859-8.772-17.992-16.212M184.98 71.366s7.227 8.44 12.172 10.97c0 0-10.196 11.685-11.33 12.59-1.136.904-12.926-9.098-12.253-10.398.594-1.143 11.41-13.162 11.41-13.162"/>
            <path fill="#D6BD08" d="M186.81 66.274s6.164 9.245 15.292 13.778l-1.596 1.774s-8.617-4.234-15.291-13.779l1.596-1.773z"/>
            <path fill="#A8910B" d="M144.472 115.108s4.944 7.923 12.497 11.96l-1.385 1.45s-7.132-3.774-12.497-11.96l1.385-1.45z"/>
            <path fill="#D6BD08" d="M171.49 84.966s5.006 7.981 12.616 12.073l-1.385 1.45s-7.185-3.825-12.616-12.074l1.385-1.45z"/>
            <path fill="#E2B998" d="M162.78 16.996s-3.704 8.002-3.91 11.33c-.207 3.327 1.054 6.337 5.163 3.042 4.11-3.294 6.62-15.606-1.253-14.372"/>
            <path fill="#F2C9A5" d="M196.98 33.915s-9.164 9.306-12.873 10.86c-3.711 1.555-8.362-.633-8.72-1.776-.357-1.144 13.006-18.189 16.353-18.63 3.347-.442 12.088-5.746 9.584.769-2.505 6.515-1.637 6.122-4.343 8.777M176.19 5.858s-12.748 5.19-13.468 6.353c-.72 1.164-4.633 13.713-2.413 15.476 2.218 1.762 10.16-5.363 12.455-10.195 2.295-4.833 3.426-11.634 3.426-11.634"/>
            <path fill="#FFF" d="M182.957 12.017s11.48 11.801 11.675 12.361c.195.56-3.64 6.99-3.64 6.99S177.808 22.72 177.68 16.35c-.04-2.028 5.277-4.332 5.277-4.332"/>
        </g>
        <g>
            <path fill="#FFF" d="M189.211 17.845l-4.239 5.003"/>
            <path fill="#8E8E8E" d="M189.356 17.969l-4.384 4.879 4.093-5.126z"/>
            <path fill="#FFF" d="M188.112 16.732l-4.238 5.002"/>
            <path fill="#8E8E8E" d="M188.258 16.856l-4.385 4.878 4.094-5.125z"/>
            <path fill="#FFF" d="M187.062 15.667l-4.24 5.002"/>
            <path fill="#8E8E8E" d="M187.207 15.79l-4.384 4.88 4.093-5.126z"/>
            <path fill="#FFF" d="M186.018 14.609l-4.24 5.002"/>
            <path fill="#8E8E8E" d="M186.163 14.733l-4.384 4.878 4.093-5.125z"/>
            <path fill="#FFF" d="M185.09 13.67l-4.238 5.002"/>
            <path fill="#8E8E8E" d="M185.236 13.793l-4.384 4.879 4.093-5.125z"/>
            <path fill="#FFF" d="M184.16 12.778l-4.43 4.832"/>
            <path fill="#8E8E8E" d="M184.3 12.907l-4.571 4.703 4.29-4.962z"/>
            <path fill="#FFF" d="M190.279 18.992l-4.238 5.002"/>
            <path fill="#8E8E8E" d="M190.425 19.115l-4.385 4.879 4.093-5.126z"/>
            <path fill="#FFF" d="M191.394 20.121l-4.239 5.003"/>
            <path fill="#8E8E8E" d="M191.54 20.245l-4.385 4.879 4.093-5.126z"/>
            <path fill="#FFF" d="M192.377 21.418l-4.238 5.002"/>
            <path fill="#8E8E8E" d="M192.523 21.542l-4.384 4.878 4.093-5.125z"/>
            <path fill="#FFF" d="M193.38 22.434l-4.24 5.002"/>
            <path fill="#8E8E8E" d="M193.525 22.558l-4.384 4.878 4.093-5.126z"/>
            <path fill="#FFF" d="M194.376 23.444l-4.239 5.002"/>
            <path fill="#8E8E8E" d="M194.521 23.567l-4.384 4.879 4.093-5.126z"/>
        </g>
        <path fill="#78A21B" d="M174.73 16.204s3.603 6.794 17.01 17.24c-.39 1.301-42.687 39.922-52.606 48.094-2.484 2.047-13.859-12.538-13.146-13.854.698-1.29 47.337-49.507 48.742-51.48"/>
        <g transform="translate(125.95 17.541)">
            <mask id="aX" fill="#fff">
                <use xlink:href="#aW"/>
            </mask>
            <path fill="#417505" d="M47.42.006s-35.167 38.74-36.727 40.896c-1.559 2.156 8.475 12.316 12.357 12.183l42.74-37.184S15.958 64.957 12.527 65.706c-3.432.75-15.091-11.376-14.5-16.906C-1.38 43.27 47.42.006 47.42.006" mask="url(#aX)"/>
        </g>
        <path fill="#7ED321" d="M174.73 16.204s6.213-5.719 7.163-5.902c.95-.184 1.885 1.91 1.885 1.91s-5.115 4.26-5.091 5.03c.095 3.068 10.977 12.653 11.8 12.468.823-.184 4.03-5.723 4.6-5.783.57-.06 2.015 1.28 1.885 1.784-.13.506-3.96 6.9-5.232 7.732-1.273.833-14.319-9.629-17.01-17.24"/>
        <path fill="#ACB41A" d="M171.648 25.138s6.72 8.85 11.509 11.664c0 0-10.864 11.068-12.05 11.904-1.185.836-12.37-9.84-11.62-11.098.659-1.107 12.16-12.47 12.16-12.47"/>
        <path fill="#D6BD08" d="M173.775 20.161s5.61 9.592 14.457 14.653l-1.697 1.676s-8.355-4.731-14.457-14.652l1.697-1.677z"/>
        <path fill="#A8910B" d="M128.647 66.428s4.471 8.199 11.775 12.673l-1.468 1.365s-6.899-4.185-11.775-12.672l1.468-1.366z"/>
        <path fill="#D6BD08" d="M157.385 37.923s4.53 8.261 11.887 12.793l-1.468 1.365s-6.949-4.24-11.887-12.793l1.468-1.365z"/>
        <g transform="translate(162.208 .043)">
            <mask id="aZ" fill="#fff">
                <use xlink:href="#aY"/>
            </mask>
            <path fill="#FFDFBE" d="M45.682 13.892S31.067 1.184 27.31.11C23.554-.963 5.667 8.522 4.594 9.417 3.52 10.312-.96 20.1.386 21.65c1.346 1.55 6.831-.5 9.484-2.994 2.652-2.495 5.687-5.211 5.687-5.211s3.989-2.231 5.192-1.47c1.203.76 4.043 17.61 17.018 14.507 12.976-3.104 7.915-12.59 7.915-12.59" mask="url(#aZ)"/>
        </g>
        <path fill="#E8B587" d="M185.232 17.283s4.025 9.296 11.937 9.619c0 0-8.594 2.752-11.937-9.619"/>
        <path fill="#FFDFBE" d="M110.457 204.545v16.824c0 3.221 2.862 8.948 6.797 9.664 3.936.717 8.565-2.147 9.291-7.158.726-5.012 1.442-17.54 1.442-17.54l-17.53-1.79z"/>
        <g transform="translate(110.301 206.265)">
            <mask id="bb" fill="#fff">
                <use xlink:href="#ba"/>
            </mask>
            <path fill="#E2B998" d="M17.202 7.438L17.686.07H.156v7.368s14.417 1.104 17.046 0" mask="url(#bb)"/>
        </g>
        <g>
            <path fill="#754117" d="M2.8 65.55S-3.36 80.694 2.75 87.495c6.11 6.801 7.898-4.295 7.898-4.295s-.715 18.613 17.172 18.256c0 0 6.081 14.318 11.448 12.886 5.366-1.432 4.356-10.381 4.356-10.381s12.738 17.898 21.363 16.108c8.624-1.79 3.258-9.9 3.258-9.9s20.598-1.949 16.202-14.46L2.8 65.552z"/>
            <path fill="#CC8758" d="M84.446 95.709c-1.13 3.06-20.321-1.211-42.867-9.54C19.034 77.843 1.672 68.61 2.801 65.552c1.129-3.06 20.32 1.21 42.866 9.539 22.546 8.327 39.907 17.559 38.779 20.619"/>
            <path fill="#8C6449" d="M79.896 94.028c-.798 2.162-17.685-2.083-37.717-9.483-20.033-7.4-35.626-15.151-34.828-17.313.797-2.163 17.684 2.083 37.717 9.483 20.032 7.4 35.625 15.15 34.828 17.313"/>
            <path fill="#FFDFBE" d="M86.37 108.215c0 .995-3.012 83.327 2.193 89.171 13.282 14.915 53.614 14.915 61.246 6.563 7.632-8.353 23.611-67.535 25.758-79.943 2.146-12.41-1.704-13.426-24.821-14.23-23.117-.805-62.183-8.321-62.183-8.321l-2.194 6.76z"/>
            <path fill="#E2B998" d="M86.245 146.008s12.765-15.38 16.163-28.267c0 0 16.099 14.405 20.57 10.693 4.472-3.712 1.792-9.798 1.792-9.798s17.407 17.003 23.727 10.56 1.491-10.38 1.491-10.38 11.984 7.749 16.635 6.29c0 0-1.968 18.058 0 19.933 1.967 1.876 6.44-27.298 6.44-27.298l-30.886-7.573-44.598-5.134-11.334 40.974z"/>
            <path fill="#754117" d="M84.605 150.148s14.166-22.644 13.928-41.933c0 0 17.41 18.654 20.033 14.12 2.624-4.534 0-12.886 0-12.886s18.364 17.659 23.611 13.363c5.247-4.295 0-12.644 0-12.644s18.007 13.36 28.023 10.258c0 0-7.781 25.998-2.63 35.385 2.681 4.887 7.043 1.604 7.043 1.604s13.314-44.284 11.427-50.778c0 0-15.406 5.481-55.165.426-38.436-4.888-48.062-10.79-48.062-10.79s-6.074 24.989-1.801 49.102c0 0-.207 6.205 3.593 4.773"/>
        </g>
        <g>
            <g transform="translate(79.386 108.432)">
                <mask id="bd" fill="#fff">
                    <use xlink:href="#bc"/>
                </mask>
                <path fill="#603111" d="M1.316.005s-.69 16.908 2.43 21.373c3.12 4.466 9.352.732 14.327-11.163 4.974-11.894-6.396 34.594-12.962 33.9-6.566-.693-9.4-24.455-3.795-44.11" mask="url(#bd)"/>
            </g>
            <g transform="translate(165.643 122.248)">
                <mask id="bf" fill="#fff">
                    <use xlink:href="#be"/>
                </mask>
                <path fill="#603111" d="M3.94.39S.79 22.269 4.974 22.474C11.463 22.791 19.572.13 19.572.13S16.937 37.316 7.419 37.47C-2.098 37.62-4.267 22.984 3.94.39" mask="url(#bf)"/>
            </g>
        </g>
        <path fill="#CC8758" d="M180.266 105.852c.018.07.028.139.02.207-.273 2.734-21.028 2.888-46.356.345-25.328-2.543-45.639-6.82-45.365-9.554.028-.28.274-.532.714-.757l-5.991-.643c-.284.257-.446.53-.475.822-.388 3.869 22.405 9.325 50.91 12.187 28.506 2.862 51.928 2.046 52.317-1.822a.992.992 0 0 0 0-.165l-5.774-.62z"/>
        <path fill="#FFDFBE" d="M164.834 156.46s4.61-9.545 11.25-10.023c6.637-.477 11.645 12.17 8.545 19.568-3.1 7.398-14.748 14.146-20.975 3.088-3.351-5.951 1.18-12.633 1.18-12.633"/>
        <path fill="#CC9F76" d="M166.17 160.676s6.128-6.017 9.913-5.165c3.786.852 4.999 6.57 4.999 6.57s-3.12-4.668-5.894-4.499c-2.774.17-9.018 3.094-9.018 3.094"/>
        <path fill="#CC9F76" d="M169.583 164.53s5.489-1.517 7.074-7.712l1.75 1.099s-3.28 6.803-8.824 6.612"/>
        <path fill="#FFDFBE" d="M87.047 146.456s-2.104-8.34-8.543-9.055c-6.44-.716-14.787 9.788-13.356 17.065 1.43 7.275 13.664 13.602 21.899 3.983 3.41-3.983 0-11.993 0-11.993"/>
        <path fill="#CC9F76" d="M83.133 147.87s-9.685-9.096-15.083 3.636c0 0 6.588-9.049 15.083-3.637"/>
        <path fill="#CC9F76" d="M77.412 155.429s-5.496-2.35-5.349-7.56l2.673-1.86s-.965 5.363 2.676 9.42"/>
        <path fill="#E5978F" d="M98.974 181.435c2.69 8.068 8.453 16.846 20.804 18.218 2.445.271 4.694.2 6.767-.141-3.422-13.272-19.714-17.03-27.571-18.077"/>
        <path fill="#7C2213" d="M149.093 173.164c-16.28 1.602-52.468-5.869-52.468-5.869s-.107 6.774 2.349 14.14c7.857 1.047 24.15 4.805 27.571 18.077 17.976-2.949 22.548-26.348 22.548-26.348"/>
        <path fill="#E2B998" d="M123.873 165.528s-7.87.358-12.164-5.727c0 0 19.336 5.118 23.063.875 1.687-1.92 0 0 0 0s1.264 5.21-10.9 4.852"/>
        <path fill="#CC9F76" d="M130.73 147.87s-3.817 6.442-2.624 7.636c1.193 1.193 6.916 1.67 6.32 6.204-.596 4.534-15.86 4.534-21.345 0 0 0 6.916 6.443 13.832 5.488 6.917-.954 9.302-3.261 9.54-6.522.239-3.261-6.748-6.242-6.748-6.242s-.168-3.94 1.024-6.565"/>
        <path fill="#19110C" d="M137.646 141.665s2.385 6.92 8.347 6.204c5.962-.716 7.274-4.773 7.751-6.204 0 0 1.908 7.875-8.05 8.655-8.164.64-8.048-8.655-8.048-8.655M99.986 140.695s2.385 6.921 8.347 6.205c5.963-.716 7.274-4.773 7.751-6.205 0 0 1.908 7.875-8.049 8.656-8.165.64-8.05-8.656-8.05-8.656"/>
        <path fill="#51280D" d="M139.673 127.345s13.117-.834 17.648 4.416c0 0-6.558-11.338-17.648-4.416M118.924 126.75s-12.593-2.744-19.95 2.983c0 0 9.695-11.813 19.95-2.983"/>
        <path fill="#EFEFEF" d="M114.704 219.937l2.55 11.097 2.525-9.253h14.647s9.301 4.957 33.628-9.361c24.327-14.318 68.686-58.704 61.174-110.966-7.513-52.261-32.913-66.937-32.913-66.937s10.017-22.551 12.879-25.057c0 0 41.14 33.567 44.36 98.755 3.22 65.188-67.907 123.535-98.526 134.273 0 0 .505 34.722 16.603 68.727 0 0-41.856 8.591-48.653 8.233l-3.2-5.011-5.074 7.159s-31.546-6.443-37.93-7.517c0 0 8.458-58.705 8.729-68.727 0 0-41.757-10.783-72.774-63.916-31.017-53.135 7.691-114.44 39.53-140.213 0 0 8.522 6.374 11.78 18.902 0 0-42.302 34.403-41.944 77.241.358 42.838 32.15 84.266 77.807 84.415l14.802-1.844z"/>
        <g transform="translate(1.145 113.465)">
            <mask id="bh" fill="#fff">
                <use xlink:href="#bg"/>
            </mask>
            <path fill="#D8D8D8" d="M1.746.036s-9.67 33.567 17.095 73.174c30.049 44.468 67.073 48.654 67.073 48.654s-3.49 28.9-4.251 34.735C80.903 162.435-32.107 84.506 1.746.036" mask="url(#bh)"/>
        </g>
        <g transform="translate(150.758 56.945)">
            <mask id="bj" fill="#fff">
                <use xlink:href="#bi"/>
            </mask>
            <path fill="#D8D8D8" d="M91.35.121s21.746 49.717-8.024 105.015C69.424 130.96 48.428 153.319.164 181.273c0 0-.518 27.645 9.663 41.741C20.01 237.111 147.13 104.065 91.35.121" mask="url(#bj)"/>
        </g>
        <g transform="translate(94.203 219.927)">
            <mask id="bl" fill="#fff">
                <use xlink:href="#bk"/>
            </mask>
            <path fill="#B7B7B7" d="M3.49 1.814L.037 4.55l17.47 10.853 2.994-4.186 2.431 3.829 5.724-5.2 3.687 6.87S44.636 7.895 45.35 4.549C46.067 1.203 39.627.01 39.627.01L3.49 1.814z" mask="url(#bl)"/>
        </g>
        <path fill="#FFF" d="M103.303 212.42l11.401 7.517-4.247 11.205s-12.999-5.477-13.833-7.625l6.679-11.097zM132.856 214.926l-13.078 6.855s5.227 10.684 6.54 12.117c1.311 1.431 11.328-9.486 11.328-9.486l-4.79-9.486z"/>
        <path fill="#919191" d="M220.782 24.851s-8.137 11.307-10.483 17.81c0 0-.959-8.469 10.483-17.81M215.53 22.155a3.07 3.07 0 1 1-3.07-3.071 3.07 3.07 0 0 1 3.07 3.071M43.623 52.081s7.611 6.168 10.038 15.155c0 0 1.768-9.114-10.038-15.155M56.088 52.081a2.428 2.428 0 1 1-4.855.002 2.428 2.428 0 0 1 4.855-.002"/>
        <path fill="#B7B7B7" d="M116.508 236.747s5.52 44.3 3.27 70.777c0 0-4.017-65.064-3.27-70.777M114.905 243.536a2.146 2.146 0 1 1-4.292.001 2.146 2.146 0 0 1 4.292-.001M116.001 258.906a2.147 2.147 0 1 1-4.293.002 2.147 2.147 0 0 1 4.293-.002M116.001 272.135a2.147 2.147 0 1 1-4.293.002 2.147 2.147 0 0 1 4.293-.002M117.051 288.175a2.147 2.147 0 1 1-4.293.001 2.147 2.147 0 0 1 4.293-.001M117.051 302.942a2.146 2.146 0 1 1-4.293 0 2.146 2.146 0 0 1 4.293 0"/>
    </g>
</svg>
