<?xml version="1.0" encoding="UTF-8"?>
<svg width="96px" height="94px" viewBox="0 0 96 94" version="1.1" xmlns="http://www.w3.org/2000/svg" xmlns:xlink="http://www.w3.org/1999/xlink">
    <!-- Generator: Sketch 41.2 (35397) - http://www.bohemiancoding.com/sketch -->
    <title>stopwatch</title>
    <desc>Created with Sketch.</desc>
    <defs></defs>
    <g id="Styleguide" stroke="none" stroke-width="1" fill="none" fill-rule="evenodd">
        <g id="OZ-27/02-Home-page" transform="translate(-215.000000, -705.000000)">
            <g id="Group-12" transform="translate(0.000000, 655.000000)">
                <g id="Group-14" transform="translate(135.000000, 50.000000)">
                    <g id="stopwatch" transform="translate(80.000000, 0.000000)">
                        <g id="Capa_1">
                            <g id="Group">
                                <g>
                                    <ellipse id="Oval" fill="#ECF0F1" cx="46.8833333" cy="46.8139831" rx="46.8833333" ry="46.6949153"></ellipse>
                                    <path d="M46.8833333,6.55974576 C69.1690833,6.55974576 87.3,24.6177966 87.3,46.8139831 C87.3,69.0101695 69.1690833,87.0682203 46.8833333,87.0682203 C24.5975833,87.0682203 6.46666667,69.0101695 6.46666667,46.8139831 C6.46666667,24.6177966 24.5975833,6.55974576 46.8833333,6.55974576 L46.8833333,6.55974576 Z M46.8833333,0.119067797 C20.9908,0.119067797 0,21.0255085 0,46.8139831 C0,72.6024576 20.9908,93.5088983 46.8833333,93.5088983 C72.7758667,93.5088983 93.7666667,72.6024576 93.7666667,46.8139831 C93.7666667,21.0255085 72.7758667,0.119067797 46.8833333,0.119067797 L46.8833333,0.119067797 Z" id="Shape" fill="#2E2917"></path>
                                    <g transform="translate(9.700000, 8.661017)" id="Shape">
                                        <path d="M37.1833333,0.922627119 C36.2909333,0.922627119 35.5666667,1.64237288 35.5666667,2.53279661 L35.5666667,4.1429661 C35.5666667,5.03338983 36.2909333,5.75313559 37.1833333,5.75313559 C38.0757333,5.75313559 38.8,5.03338983 38.8,4.1429661 L38.8,2.53279661 C38.8,1.64398305 38.0757333,0.922627119 37.1833333,0.922627119 Z" fill="#D0011B"></path>
                                        <path d="M37.1833333,70.1599153 C36.2909333,70.1599153 35.5666667,70.879661 35.5666667,71.7700847 L35.5666667,73.3802542 C35.5666667,74.270678 36.2909333,74.9904237 37.1833333,74.9904237 C38.0757333,74.9904237 38.8,74.270678 38.8,73.3802542 L38.8,71.7700847 C38.8,70.8812712 38.0757333,70.1599153 37.1833333,70.1599153 Z" fill="#D0011B"></path>
                                        <path d="M72.75,36.3463559 L71.1333333,36.3463559 C70.2409333,36.3463559 69.5166667,37.0661017 69.5166667,37.9565254 C69.5166667,38.8469492 70.2409333,39.5666949 71.1333333,39.5666949 L72.75,39.5666949 C73.6424,39.5666949 74.3666667,38.8469492 74.3666667,37.9565254 C74.3666667,37.0661017 73.6424,36.3463559 72.75,36.3463559 Z" fill="#D0011B"></path>
                                        <path d="M3.23333333,36.3463559 L1.61666667,36.3463559 C0.724266667,36.3463559 0,37.0661017 0,37.9565254 C0,38.8469492 0.724266667,39.5666949 1.61666667,39.5666949 L3.23333333,39.5666949 C4.12573333,39.5666949 4.85,38.8469492 4.85,37.9565254 C4.85,37.0661017 4.12573333,36.3463559 3.23333333,36.3463559 Z" fill="#D0011B"></path>
                                        <path d="M61.1892167,11.770339 L60.0462333,12.9087288 C59.4141167,13.5383051 59.4141167,14.5559322 60.0462333,15.1855085 C60.3614833,15.4994915 60.77535,15.6572881 61.1892167,15.6572881 C61.6030833,15.6572881 62.01695,15.4994915 62.3322,15.1855085 L63.4751833,14.0471186 C64.1073,13.4175424 64.1073,12.3999153 63.4751833,11.770339 C62.8430667,11.1407627 61.8213333,11.1407627 61.1892167,11.770339 Z" fill="#D0011B"></path>
                                        <path d="M12.0344667,60.7291525 L10.8914833,61.8675424 C10.2593667,62.4971186 10.2593667,63.5147458 10.8914833,64.144322 C11.2067333,64.4583051 11.6206,64.6161017 12.0344667,64.6161017 C12.4483333,64.6161017 12.8622,64.4583051 13.17745,64.144322 L14.3204333,63.0059322 C14.95255,62.3763559 14.95255,61.3587288 14.3204333,60.7291525 C13.6883167,60.0995763 12.6649667,60.0995763 12.0344667,60.7291525 Z" fill="#D0011B"></path>
                                        <path d="M62.3322,60.7291525 C61.7000833,60.0995763 60.67835,60.0995763 60.0462333,60.7291525 C59.4141167,61.3587288 59.4141167,62.3763559 60.0462333,63.0059322 L61.1892167,64.144322 C61.5044667,64.4583051 61.9183333,64.6161017 62.3322,64.6161017 C62.7460667,64.6161017 63.1599333,64.4583051 63.4751833,64.144322 C64.1073,63.5147458 64.1073,62.4971186 63.4751833,61.8675424 L62.3322,60.7291525 Z" fill="#8697CB"></path>
                                        <path d="M13.17745,11.770339 C12.5453333,11.1407627 11.5236,11.1407627 10.8914833,11.770339 C10.2593667,12.3999153 10.2593667,13.4175424 10.8914833,14.0471186 L12.0344667,15.1855085 C12.3497167,15.4994915 12.7635833,15.6572881 13.17745,15.6572881 C13.5913167,15.6572881 14.0051833,15.4994915 14.3204333,15.1855085 C14.95255,14.5559322 14.95255,13.5383051 14.3204333,12.9087288 L13.17745,11.770339 Z" fill="#D0011B"></path>
                                    </g>
                                    <path d="M42.0333333,48.229322 L29.1,48.229322 C28.2076,48.229322 27.4833333,47.5095763 27.4833333,46.6191525 C27.4833333,45.7287288 28.2076,45.0089831 29.1,45.0089831 L42.0333333,45.0089831 C42.9257333,45.0089831 43.65,45.7287288 43.65,46.6191525 C43.65,47.5095763 42.9257333,48.229322 42.0333333,48.229322 Z" id="Shape" fill="#2E2917"></path>
                                    <path d="M46.8833333,43.3988136 C45.9909333,43.3988136 45.2666667,42.6790678 45.2666667,41.7886441 L45.2666667,24.0767797 C45.2666667,23.1863559 45.9909333,22.4666102 46.8833333,22.4666102 C47.7757333,22.4666102 48.5,23.1863559 48.5,24.0767797 L48.5,41.7886441 C48.5,42.6774576 47.7757333,43.3988136 46.8833333,43.3988136 Z" id="Shape" fill="#2E2917"></path>
                                    <path d="M46.8833333,53.0598305 C43.3169667,53.0598305 40.4166667,50.1711864 40.4166667,46.6191525 C40.4166667,43.0671186 43.3169667,40.1784746 46.8833333,40.1784746 C50.4497,40.1784746 53.35,43.0671186 53.35,46.6191525 C53.35,50.1711864 50.4497,53.0598305 46.8833333,53.0598305 Z M46.8833333,43.3988136 C45.10015,43.3988136 43.65,44.8431356 43.65,46.6191525 C43.65,48.3951695 45.10015,49.8394915 46.8833333,49.8394915 C48.6665167,49.8394915 50.1166667,48.3951695 50.1166667,46.6191525 C50.1166667,44.8431356 48.6665167,43.3988136 46.8833333,43.3988136 Z" id="Shape" fill="#2E2917"></path>
                                </g>
                                <g transform="translate(56.583333, 54.745763)">
                                    <ellipse id="Oval" fill="#ACB41A" cx="20.0305" cy="19.4411017" rx="19.4" ry="19.3220339"></ellipse>
                                    <path d="M30.6536167,10.0683051 C29.9180333,9.55949153 28.9124667,9.73983051 28.4032167,10.4708475 L19.35635,23.4166102 L12.9721333,18.1964407 C12.2834333,17.6312712 11.2633167,17.7327119 10.6974833,18.4202542 C10.1300333,19.1077966 10.2302667,20.1222034 10.9222,20.6857627 L18.6595667,27.0121186 C18.9505667,27.2488136 19.3127,27.3776271 19.6845333,27.3776271 C19.7572833,27.3776271 19.83165,27.3727966 19.9060167,27.3631356 C20.3522167,27.300339 20.75315,27.0572034 21.0118167,26.6884746 L31.0577833,12.3112712 C31.5670333,11.5802542 31.3859667,10.5755085 30.6536167,10.0683051 Z" id="Shape" fill="#FFFFFF"></path>
                                </g>
                            </g>
                        </g>
                    </g>
                </g>
            </g>
        </g>
    </g>
</svg>