<?xml version="1.0" encoding="UTF-8"?>
<svg width="614px" height="135px" viewBox="0 0 614 135" version="1.1" xmlns="http://www.w3.org/2000/svg" xmlns:xlink="http://www.w3.org/1999/xlink">
    <!-- Generator: Sketch 41.2 (35397) - http://www.bohemiancoding.com/sketch -->
    <title>AZ</title>
    <desc>Created with Sketch.</desc>
    <defs></defs>
    <g id="Page-1" stroke="none" stroke-width="1" fill="none" fill-rule="evenodd">
        <g id="AZ">
            <g>
                <path d="M43.828125,1.1796875 L55.078125,1.1796875 L26.390625,53 L16.1601562,53 L9.65625,1.1796875 L21.2226562,1.1796875 L24.1054688,40.5195312 L43.828125,1.1796875 Z M56.7609376,30.0078125 L72.3351563,30.0078125 C72.7335958,27.3593618 72.3527402,25.3496162 71.1925782,23.9785156 C70.0324161,22.607415 68.3859482,21.921875 66.2531251,21.921875 C63.932801,21.921875 61.9816486,22.6484302 60.3996094,24.1015625 C58.8175703,25.5546948 57.6046918,27.5234251 56.7609376,30.0078125 Z M81.3703126,21.1132812 C82.4015677,23.3867301 82.8117199,26.0234225 82.6007813,29.0234375 C82.5070309,30.7812588 82.0851601,33.3124835 81.3351563,36.6171875 L55.1085938,36.6171875 C54.4289029,40.4609567 55.0617091,43.1562423 57.0070313,44.703125 C58.1789122,45.6640673 59.7374903,46.1445312 61.6828126,46.1445312 C63.7453229,46.1445312 65.5499923,45.5585996 67.0968751,44.3867188 C67.9171917,43.7539031 68.7257773,42.8750056 69.5226563,41.75 L79.7531251,41.75 C79.0031213,44.0234489 77.3273568,46.3320195 74.7257813,48.6757812 C70.6476359,52.4023624 65.6554984,54.265625 59.7492188,54.265625 C54.8741944,54.265625 50.9074372,52.6953282 47.8488282,49.5546875 C44.7902192,46.4140468 44.0109301,41.3047229 45.5109376,34.2265625 C46.9171946,27.5937168 49.6769326,22.5078302 53.7902344,18.96875 C57.9035363,15.4296698 62.6437232,13.6601562 68.0109376,13.6601562 C71.1984535,13.6601562 73.9464729,14.2578065 76.2550782,15.453125 C78.5636835,16.6484435 80.2687446,18.5351434 81.3703126,21.1132812 Z M113.85,13.8359375 L111.670313,24.1015625 C111.060935,24.0312496 110.510159,23.9843751 110.017969,23.9609375 C109.525779,23.9374999 109.127345,23.9257812 108.822656,23.9257812 C104.791386,23.9257812 101.803135,25.2382681 99.8578126,27.8632812 C98.7796823,29.3398511 97.9125034,31.6132659 97.2562501,34.6835938 L93.3890626,53 L83.2992189,53 L91.4203126,14.6796875 L100.982813,14.6796875 L99.5765626,21.359375 C101.662511,18.8046747 103.373431,17.0585984 104.709375,16.1210938 C106.935949,14.5507734 109.549204,13.765625 112.549219,13.765625 C112.73672,13.765625 112.894921,13.7714843 113.023828,13.7832031 C113.152735,13.7949219 113.428123,13.8124999 113.85,13.8359375 Z M129.630469,10.109375 L119.470313,10.109375 L121.439063,0.86328125 L131.599219,0.86328125 L129.630469,10.109375 Z M118.485938,14.6796875 L128.646094,14.6796875 L120.525,53 L110.364844,53 L118.485938,14.6796875 Z M170.630469,10.109375 L160.470313,10.109375 L162.439063,0.86328125 L172.599219,0.86328125 L170.630469,10.109375 Z M159.485938,14.6796875 L169.646094,14.6796875 L161.525,53 L151.364844,53 L159.485938,14.6796875 Z M158.067188,0.86328125 L156.309375,9.01953125 C155.77031,8.9492184 154.844538,8.89648455 153.532032,8.86132812 C152.219525,8.8261717 151.241019,9.11913752 150.596485,9.74023438 C149.95195,10.3613312 149.559376,11.0468713 149.41875,11.796875 C149.254687,12.5468787 149.020314,13.624993 148.715625,15.03125 L155.289844,15.03125 L153.778125,22.0976562 L147.203907,22.0976562 L140.664844,53 L130.680469,53 L137.219532,22.0976562 L131.629688,22.0976562 L133.141407,15.03125 L138.625782,15.03125 L139.153125,12.5703125 C140.020317,8.46872949 141.309367,5.64453898 143.020313,4.09765625 C144.965635,1.80076977 148.715598,0.65234375 154.270313,0.65234375 C154.903128,0.65234375 155.471482,0.669921699 155.975391,0.705078125 C156.4793,0.740234551 157.176558,0.792968398 158.067188,0.86328125 Z M181.784375,30.0078125 L197.358594,30.0078125 C197.757034,27.3593618 197.376178,25.3496162 196.216016,23.9785156 C195.055854,22.607415 193.409386,21.921875 191.276563,21.921875 C188.956239,21.921875 187.005086,22.6484302 185.423047,24.1015625 C183.841008,25.5546948 182.62813,27.5234251 181.784375,30.0078125 Z M206.39375,21.1132812 C207.425006,23.3867301 207.835158,26.0234225 207.624219,29.0234375 C207.530469,30.7812588 207.108598,33.3124835 206.358594,36.6171875 L180.132032,36.6171875 C179.452341,40.4609567 180.085147,43.1562423 182.030469,44.703125 C183.20235,45.6640673 184.760928,46.1445312 186.70625,46.1445312 C188.768761,46.1445312 190.57343,45.5585996 192.120313,44.3867188 C192.94063,43.7539031 193.749215,42.8750056 194.546094,41.75 L204.776563,41.75 C204.026559,44.0234489 202.350795,46.3320195 199.749219,48.6757812 C195.671074,52.4023624 190.678936,54.265625 184.772657,54.265625 C179.897632,54.265625 175.930875,52.6953282 172.872266,49.5546875 C169.813657,46.4140468 169.034368,41.3047229 170.534375,34.2265625 C171.940632,27.5937168 174.70037,22.5078302 178.813672,18.96875 C182.926974,15.4296698 187.667161,13.6601562 193.034375,13.6601562 C196.221891,13.6601562 198.969911,14.2578065 201.278516,15.453125 C203.587121,16.6484435 205.292182,18.5351434 206.39375,21.1132812 Z M240.244532,19.53125 L244.111719,1.25 L254.271876,1.25 L243.303126,53 L233.564844,53 L234.689844,47.6914062 C232.76796,49.9648551 230.781651,51.6171823 228.73086,52.6484375 C226.680068,53.6796927 224.295327,54.1953125 221.576563,54.1953125 C217.099978,54.1953125 213.719153,52.3847837 211.433985,48.7636719 C209.148817,45.14256 208.603901,40.4961221 209.799219,34.8242188 C211.205476,28.2851236 213.812872,23.1406437 217.621485,19.390625 C221.430098,15.6406062 225.853882,13.765625 230.892969,13.765625 C233.213293,13.765625 235.164446,14.2753855 236.746485,15.2949219 C238.328524,16.3144582 239.494528,17.7265535 240.244532,19.53125 Z M237.361719,34.4023438 C238.346099,29.7148203 237.877354,26.3632913 235.955469,24.3476562 C234.760151,23.1289002 233.201573,22.5195312 231.279688,22.5195312 C228.349986,22.5195312 225.965244,23.6269421 224.125391,25.8417969 C222.285538,28.0566517 221.014067,30.8046711 220.310938,34.0859375 C219.560934,37.6250177 219.654683,40.4550675 220.592188,42.5761719 C221.529693,44.6972762 223.416393,45.7578125 226.252344,45.7578125 C229.088296,45.7578125 231.473038,44.7031355 233.406641,42.59375 C235.340245,40.4843645 236.658591,37.753923 237.361719,34.4023438 Z M310.969532,33.3476562 C309.703901,39.300811 307.248847,44.2343554 303.604298,48.1484375 C299.959748,52.0625196 295.617995,54.0195312 290.578907,54.0195312 C287.414829,54.0195312 285.012509,53.3867251 283.371876,52.1210938 C282.387496,51.37109 281.426568,50.0586031 280.489063,48.1835938 L279.469532,53 L269.660938,53 L280.629688,1.25 L290.614063,1.25 L286.711719,19.671875 C288.352353,17.8906161 290.039836,16.5312547 291.774219,15.59375 C293.813292,14.4218691 296.22733,13.8359375 299.016407,13.8359375 C304.055495,13.8359375 307.6121,15.6523256 309.686329,19.2851562 C311.760558,22.9179869 312.188288,27.60544 310.969532,33.3476562 Z M300.246876,34.4023438 C300.832816,31.6835802 300.961721,29.4336027 300.633594,27.6523438 C300.000779,24.2773269 297.891425,22.5898438 294.305469,22.5898438 C290.672639,22.5898438 287.825011,24.242171 285.762501,27.546875 C284.68437,29.3046963 283.852347,31.5781111 283.266407,34.3671875 C282.563278,37.6484539 282.709761,40.3671767 283.70586,42.5234375 C284.701959,44.6796983 286.688267,45.7578125 289.664844,45.7578125 C292.242982,45.7578125 294.469523,44.7148542 296.344532,42.6289062 C298.219541,40.5429583 299.52031,37.8007982 300.246876,34.4023438 Z M330.898438,14.6796875 L326.011719,37.7773438 C325.542967,39.9570421 325.449218,41.5976507 325.730469,42.6992188 C326.222659,44.644541 327.804675,45.6171875 330.476563,45.6171875 C333.898455,45.6171875 336.535148,44.2343888 338.386719,41.46875 C339.371099,39.9687425 340.121092,37.9882936 340.636719,35.5273438 L345.066407,14.6796875 L355.226563,14.6796875 L347.105469,53 L337.367188,53 L338.492188,47.5859375 C338.375,47.7031256 338.070316,48.0546846 337.578126,48.640625 C337.085936,49.2265654 336.53516,49.7421853 335.925782,50.1875 C334.050773,51.593757 332.322274,52.5546849 330.740235,53.0703125 C329.158196,53.5859401 327.382823,53.84375 325.414063,53.84375 C319.74216,53.84375 316.355475,51.8047079 315.253907,47.7265625 C314.644529,45.4765512 314.80859,42.1601782 315.746094,37.7773438 L320.632813,14.6796875 L330.898438,14.6796875 Z M365.944532,40.765625 C365.780469,42.5468839 365.979685,43.8124963 366.542188,44.5625 C367.479693,45.8984442 369.624203,46.5664062 372.975782,46.5664062 C374.944542,46.5664062 376.573432,46.2734404 377.862501,45.6875 C379.15157,45.1015596 379.924999,44.2226621 380.182813,43.0507812 C380.417189,41.9257756 380.124224,41.0703154 379.303907,40.484375 C378.48359,39.8984346 375.214092,38.8906321 369.495313,37.4609375 C365.39373,36.3828071 362.628133,35.0351643 361.198438,33.4179688 C359.745306,31.8242108 359.346873,29.5273588 360.003126,26.5273438 C360.75313,22.9882636 362.786312,19.9472783 366.102735,17.4042969 C369.419158,14.8613154 373.596851,13.5898438 378.635938,13.5898438 C383.417212,13.5898438 387.108582,14.5449123 389.710157,16.4550781 C392.311733,18.3652439 393.342972,21.6640391 392.803907,26.3515625 L382.784376,26.3515625 C382.901564,25.0624936 382.749222,24.0429725 382.327345,23.2929688 C381.507028,21.933587 379.77267,21.2539062 377.12422,21.2539062 C374.944521,21.2539062 373.32149,21.5937466 372.255079,22.2734375 C371.188667,22.9531284 370.56172,23.7499954 370.37422,24.6640625 C370.116406,25.8125057 370.432809,26.6445287 371.323438,27.1601562 C372.19063,27.6992214 375.471847,28.6249934 381.167188,29.9375 C384.940645,30.8750047 387.624212,32.2929593 389.21797,34.1914062 C390.78829,36.1132909 391.268754,38.5156106 390.659376,41.3984375 C389.839059,45.1953315 387.764861,48.2949099 384.43672,50.6972656 C381.108578,53.0996214 376.491437,54.3007812 370.585157,54.3007812 C364.561689,54.3007812 360.383997,53.0293096 358.051954,50.4863281 C355.719911,47.9433467 354.964059,44.7031447 355.784376,40.765625 L365.944532,40.765625 Z M413.822657,10.109375 L403.662501,10.109375 L405.631251,0.86328125 L415.791407,0.86328125 L413.822657,10.109375 Z M402.678126,14.6796875 L412.838282,14.6796875 L404.717188,53 L394.557032,53 L402.678126,14.6796875 Z M453.439063,27.1953125 L447.954688,53 L437.689063,53 L442.610938,29.6914062 C443.056253,27.6757712 443.114846,26.1289116 442.78672,25.0507812 C442.224217,23.0820214 440.560171,22.0976562 437.794532,22.0976562 C434.396078,22.0976562 431.759385,23.5390481 429.884376,26.421875 C428.899996,27.9453201 428.161722,29.8906132 427.669532,32.2578125 L423.275001,53 L413.290626,53 L421.41172,14.75 L431.079688,14.75 L429.884376,20.3398438 C431.595322,18.3710839 433.118744,16.9531293 434.454688,16.0859375 C436.845325,14.5390548 439.622641,13.765625 442.78672,13.765625 C446.747677,13.765625 449.765225,14.802724 451.839454,16.8769531 C453.913683,18.9511822 454.446881,22.390601 453.439063,27.1953125 Z M468.200001,30.0078125 L483.77422,30.0078125 C484.172659,27.3593618 483.791804,25.3496162 482.631642,23.9785156 C481.47148,22.607415 479.825012,21.921875 477.692189,21.921875 C475.371864,21.921875 473.420712,22.6484302 471.838673,24.1015625 C470.256634,25.5546948 469.043755,27.5234251 468.200001,30.0078125 Z M492.809376,21.1132812 C493.840631,23.3867301 494.250783,26.0234225 494.039845,29.0234375 C493.946094,30.7812588 493.524224,33.3124835 492.77422,36.6171875 L466.547657,36.6171875 C465.867966,40.4609567 466.500773,43.1562423 468.446095,44.703125 C469.617976,45.6640673 471.176554,46.1445312 473.121876,46.1445312 C475.184386,46.1445312 476.989056,45.5585996 478.535939,44.3867188 C479.356255,43.7539031 480.164841,42.8750056 480.96172,41.75 L491.192189,41.75 C490.442185,44.0234489 488.76642,46.3320195 486.164845,48.6757812 C482.086699,52.4023624 477.094562,54.265625 471.188282,54.265625 C466.313258,54.265625 462.346501,52.6953282 459.287892,49.5546875 C456.229283,46.4140468 455.449994,41.3047229 456.950001,34.2265625 C458.356258,27.5937168 461.115996,22.5078302 465.229298,18.96875 C469.3426,15.4296698 474.082787,13.6601562 479.450001,13.6601562 C482.637517,13.6601562 485.385536,14.2578065 487.694142,15.453125 C490.002747,16.6484435 491.707808,18.5351434 492.809376,21.1132812 Z M505.214845,40.765625 C505.050782,42.5468839 505.249998,43.8124963 505.812501,44.5625 C506.750006,45.8984442 508.894516,46.5664062 512.246095,46.5664062 C514.214855,46.5664062 515.843745,46.2734404 517.132814,45.6875 C518.421883,45.1015596 519.195312,44.2226621 519.453126,43.0507812 C519.687502,41.9257756 519.394536,41.0703154 518.57422,40.484375 C517.753903,39.8984346 514.484405,38.8906321 508.765626,37.4609375 C504.664043,36.3828071 501.898446,35.0351643 500.468751,33.4179688 C499.015619,31.8242108 498.617185,29.5273588 499.273439,26.5273438 C500.023442,22.9882636 502.056625,19.9472783 505.373048,17.4042969 C508.689471,14.8613154 512.867163,13.5898438 517.906251,13.5898438 C522.687525,13.5898438 526.378894,14.5449123 528.98047,16.4550781 C531.582045,18.3652439 532.613285,21.6640391 532.07422,26.3515625 L522.054689,26.3515625 C522.171877,25.0624936 522.019534,24.0429725 521.597657,23.2929688 C520.777341,21.933587 519.042983,21.2539062 516.394532,21.2539062 C514.214834,21.2539062 512.591803,21.5937466 511.525392,22.2734375 C510.45898,22.9531284 509.832033,23.7499954 509.644532,24.6640625 C509.386719,25.8125057 509.703122,26.6445287 510.593751,27.1601562 C511.460943,27.6992214 514.74216,28.6249934 520.437501,29.9375 C524.210957,30.8750047 526.894524,32.2929593 528.488282,34.1914062 C530.058603,36.1132909 530.539067,38.5156106 529.929689,41.3984375 C529.109372,45.1953315 527.035174,48.2949099 523.707032,50.6972656 C520.378891,53.0996214 515.761749,54.3007812 509.85547,54.3007812 C503.832002,54.3007812 499.65431,53.0293096 497.322267,50.4863281 C494.990224,47.9433467 494.234372,44.7031447 495.054689,40.765625 L505.214845,40.765625 Z M544.057814,40.765625 C543.89375,42.5468839 544.092967,43.8124963 544.65547,44.5625 C545.592975,45.8984442 547.737484,46.5664062 551.089064,46.5664062 C553.057823,46.5664062 554.686713,46.2734404 555.975782,45.6875 C557.264851,45.1015596 558.038281,44.2226621 558.296095,43.0507812 C558.530471,41.9257756 558.237505,41.0703154 557.417189,40.484375 C556.596872,39.8984346 553.327373,38.8906321 547.608595,37.4609375 C543.507012,36.3828071 540.741415,35.0351643 539.31172,33.4179688 C537.858588,31.8242108 537.460154,29.5273588 538.116407,26.5273438 C538.866411,22.9882636 540.899594,19.9472783 544.216017,17.4042969 C547.53244,14.8613154 551.710132,13.5898438 556.74922,13.5898438 C561.530494,13.5898438 565.221863,14.5449123 567.823439,16.4550781 C570.425014,18.3652439 571.456254,21.6640391 570.917189,26.3515625 L560.897657,26.3515625 C561.014845,25.0624936 560.862503,24.0429725 560.440626,23.2929688 C559.62031,21.933587 557.885952,21.2539062 555.237501,21.2539062 C553.057803,21.2539062 551.434772,21.5937466 550.368361,22.2734375 C549.301949,22.9531284 548.675002,23.7499954 548.487501,24.6640625 C548.229687,25.8125057 548.54609,26.6445287 549.43672,27.1601562 C550.303912,27.6992214 553.585129,28.6249934 559.28047,29.9375 C563.053926,30.8750047 565.737493,32.2929593 567.331251,34.1914062 C568.901571,36.1132909 569.382035,38.5156106 568.772657,41.3984375 C567.952341,45.1953315 565.878143,48.2949099 562.550001,50.6972656 C559.22186,53.0996214 554.604718,54.3007812 548.698439,54.3007812 C542.674971,54.3007812 538.497278,53.0293096 536.165236,50.4863281 C533.833193,47.9433467 533.077341,44.7031447 533.897657,40.765625 L544.057814,40.765625 Z" id="Verifued-business" fill="#000000"></path>
                <path d="M31.8583984,107.987793 C30.8915967,112.535342 29.0162086,116.304022 26.2321777,119.293945 C23.4481469,122.283869 20.1315297,123.778809 16.2822266,123.778809 C13.8652223,123.778809 12.0301169,123.295415 10.7768555,122.328613 C10.0248986,121.755694 9.29085645,120.7531 8.57470703,119.320801 L7.79589844,123 L0.303222656,123 L8.68212891,83.46875 L16.309082,83.46875 L13.328125,97.5410156 C14.5813865,96.1803317 15.8704361,95.1419307 17.1953125,94.4257812 C18.7529375,93.5305945 20.5969946,93.0830078 22.7275391,93.0830078 C26.5768422,93.0830078 29.2936932,94.4705265 30.8781738,97.2456055 C32.4626544,100.020684 32.7893927,103.601378 31.8583984,107.987793 Z M23.6674805,108.793457 C24.1150739,106.716624 24.2135429,104.997891 23.9628906,103.637207 C23.4794898,101.059069 21.8681778,99.7700195 19.1289062,99.7700195 C16.3538273,99.7700195 14.1785561,101.032214 12.6030273,103.556641 C11.7794555,104.899421 11.1438824,106.636057 10.6962891,108.766602 C10.159177,111.273125 10.2710737,113.349927 11.0319824,114.99707 C11.7928912,116.644214 13.31021,117.467773 15.5839844,117.467773 C17.5533953,117.467773 19.2542246,116.671069 20.6865234,115.077637 C22.1188223,113.484204 23.1124647,111.389499 23.6674805,108.793457 Z M33.2244467,128.612793 L34.1912436,128.666504 C34.9252967,128.702311 35.6414354,128.675456 36.3396811,128.585938 C37.0379268,128.496419 37.6555964,128.290529 38.1927084,127.968262 C38.7119168,127.663898 39.2669242,127.028325 39.8577475,126.061523 C40.4485708,125.094722 40.7260745,124.503907 40.690267,124.289062 L36.447103,93.7275391 L44.9602866,93.7275391 L46.759603,115.319336 L57.3943686,93.7275391 L65.5315756,93.7275391 L49.3645834,122.516602 C46.2493335,128.06676 43.9890208,131.508701 42.5835776,132.842529 C41.1781343,134.176358 38.7835457,134.843262 35.3997397,134.843262 C34.7193977,134.843262 34.173342,134.838786 33.7615561,134.829834 C33.3497702,134.820882 32.7410523,134.789551 31.9353842,134.73584 L33.2244467,128.612793 Z M89.8823245,108.041504 L99.9262698,108.041504 L98.2880862,92.465332 L89.8823245,108.041504 Z M95.6293948,83.4150391 L104.975098,83.4150391 L110.587891,123 L101.618164,123 L100.785645,114.862793 L86.2031253,114.862793 L81.7451175,123 L73.0976565,123 L95.6293948,83.4150391 Z M113.377279,116.017578 L139.239095,90.4243164 L119.312338,90.4243164 L120.816244,83.4150391 L151.055502,83.4150391 L149.632162,90.0483398 L123.421224,116.017578 L144.180502,116.017578 L142.703451,123 L111.900228,123 L113.377279,116.017578 Z M170.303712,110.780762 C170.178385,112.589039 170.384275,113.940751 170.921387,114.835938 C171.923996,116.465177 174.054509,117.279785 177.312989,117.279785 C179.264496,117.279785 180.893712,117.064944 182.200684,116.635254 C184.689303,115.811682 186.166339,114.280936 186.631837,112.042969 C186.918296,110.735996 186.560227,109.72445 185.557618,109.008301 C184.572912,108.310055 182.90789,107.692385 180.562501,107.155273 L176.561036,106.215332 C172.640118,105.284338 170.008308,104.272792 168.665528,103.180664 C166.391754,101.354483 165.666663,98.4988801 166.490235,94.6137695 C167.242192,91.0688299 169.157863,88.1237096 172.237305,85.7783203 C175.316748,83.432931 179.35398,82.2602539 184.349122,82.2602539 C188.520692,82.2602539 191.841785,83.365793 194.312501,85.5769043 C196.783216,87.7880156 197.642582,90.997212 196.890626,95.2045898 L188.941407,95.2045898 C189.317385,92.823393 188.646005,91.1315154 186.927247,90.1289062 C185.781408,89.466468 184.250661,89.1352539 182.334962,89.1352539 C180.204417,89.1352539 178.409594,89.5649371 176.95044,90.4243164 C175.491286,91.2836957 174.600588,92.483228 174.278321,94.0229492 C173.973957,95.4373443 174.376785,96.4936489 175.486817,97.1918945 C176.185063,97.6573917 177.787423,98.2034474 180.293946,98.8300781 L186.766114,100.468262 C189.594904,101.184411 191.644851,102.142247 192.916016,103.341797 C194.885427,105.203785 195.494145,107.898257 194.742188,111.425293 C193.972327,115.041848 191.949236,118.045154 188.672852,120.435303 C185.396469,122.825451 181.233913,124.020508 176.185059,124.020508 C171.028783,124.020508 167.224297,122.843355 164.771485,120.489014 C162.318673,118.134672 161.530921,114.898621 162.408204,110.780762 L170.303712,110.780762 Z M206.205893,105.436523 L218.102865,105.436523 C218.407229,103.413401 218.116297,101.878179 217.230063,100.830811 C216.343828,99.783442 215.086109,99.2597656 213.456869,99.2597656 C211.684399,99.2597656 210.193936,99.8147731 208.985434,100.924805 C207.776932,102.034836 206.850427,103.538727 206.205893,105.436523 Z M225.004721,98.6420898 C225.792485,100.378752 226.105796,102.392892 225.944662,104.68457 C225.873047,106.02735 225.550785,107.960925 224.977865,110.485352 L204.943686,110.485352 C204.424477,113.421564 204.907871,115.480463 206.393881,116.662109 C207.289068,117.396163 208.479648,117.763184 209.965658,117.763184 C211.541187,117.763184 212.919754,117.315597 214.1014,116.42041 C214.728031,115.937009 215.345701,115.265629 215.954428,114.40625 L223.769369,114.40625 C223.19645,116.142912 221.916352,117.906404 219.929037,119.696777 C216.813787,122.543471 213.000349,123.966797 208.488607,123.966797 C204.764631,123.966797 201.734469,122.767265 199.398031,120.368164 C197.061594,117.969064 196.466304,114.066108 197.612143,108.65918 C198.686367,103.592423 200.7945,99.7073703 203.936606,97.0039062 C207.078711,94.3004422 210.699687,92.9487305 214.799643,92.9487305 C217.234551,92.9487305 219.333732,93.4052689 221.09725,94.3183594 C222.860768,95.2314499 224.163245,96.672679 225.004721,98.6420898 Z M248.016277,104.228027 C248.105796,103.135899 247.944664,102.151209 247.532878,101.273926 C246.924151,100.092279 245.715667,99.5014648 243.90739,99.5014648 C241.329252,99.5014648 239.297209,100.781563 237.811199,103.341797 C237.023434,104.702481 236.387861,106.510731 235.90446,108.766602 C235.456867,110.91505 235.340495,112.642734 235.555339,113.949707 C235.949222,116.384615 237.408354,117.602051 239.932781,117.602051 C241.723154,117.602051 243.097245,117.118657 244.055095,116.151855 C245.012945,115.185054 245.73356,113.931811 246.21696,112.39209 L254.031902,112.39209 C253.369464,114.719575 252.062511,116.921702 250.111003,118.998535 C246.995753,122.346534 243.083846,124.020508 238.375164,124.020508 C233.666481,124.020508 230.502043,122.624037 228.881755,119.831055 C227.261467,117.038072 226.925777,113.41262 227.874675,108.95459 C228.930996,103.92364 230.985418,100.011733 234.038005,97.21875 C237.090592,94.4257673 240.774231,93.0292969 245.089031,93.0292969 C248.759296,93.0292969 251.588044,93.8528563 253.575359,95.5 C255.562673,97.1471437 256.323571,100.056457 255.858074,104.228027 L248.016277,104.228027 Z M279.487306,93.0830078 L277.822267,100.924805 C277.356769,100.871093 276.936038,100.835287 276.560059,100.817383 C276.184081,100.799479 275.879722,100.790527 275.646974,100.790527 C272.567531,100.790527 270.284839,101.793121 268.798829,103.79834 C267.975257,104.926275 267.312829,106.662911 266.811524,109.008301 L263.857423,123 L256.149903,123 L262.353517,93.7275391 L269.658204,93.7275391 L268.583985,98.8300781 C270.177418,96.878571 271.484371,95.5447627 272.504884,94.8286133 C274.205739,93.629063 276.201975,93.0292969 278.493653,93.0292969 C278.636883,93.0292969 278.757732,93.0337727 278.856202,93.0427246 C278.954673,93.0516765 279.165038,93.0651041 279.487306,93.0830078 Z M286.036459,105.436523 L297.933432,105.436523 C298.237795,103.413401 297.946864,101.878179 297.060629,100.830811 C296.174394,99.783442 294.916676,99.2597656 293.287436,99.2597656 C291.514966,99.2597656 290.024502,99.8147731 288.816,100.924805 C287.607498,102.034836 286.680994,103.538727 286.036459,105.436523 Z M304.835287,98.6420898 C305.623052,100.378752 305.936362,102.392892 305.775229,104.68457 C305.703614,106.02735 305.381352,107.960925 304.808432,110.485352 L284.774252,110.485352 C284.255044,113.421564 284.738438,115.480463 286.224448,116.662109 C287.119634,117.396163 288.310215,117.763184 289.796225,117.763184 C291.371754,117.763184 292.750321,117.315597 293.931967,116.42041 C294.558598,115.937009 295.176267,115.265629 295.784994,114.40625 L303.599936,114.40625 C303.027016,116.142912 301.746918,117.906404 299.759604,119.696777 C296.644354,122.543471 292.830915,123.966797 288.319174,123.966797 C284.595197,123.966797 281.565035,122.767265 279.228598,120.368164 C276.892161,117.969064 276.29687,114.066108 277.442709,108.65918 C278.516933,103.592423 280.625067,99.7073703 283.767172,97.0039062 C286.909278,94.3004422 290.530254,92.9487305 294.630209,92.9487305 C297.065117,92.9487305 299.164299,93.4052689 300.927817,94.3183594 C302.691335,95.2314499 303.993812,96.672679 304.835287,98.6420898 Z M308.376629,99.4477539 L309.531414,93.9960938 L313.613445,93.9960938 L315.359051,85.8320312 L322.932293,85.8320312 L321.186687,93.9960938 L325.940105,93.9960938 L324.78532,99.4477539 L320.031902,99.4477539 L316.728679,114.916504 C316.478027,116.116054 316.473551,116.863524 316.715252,117.158936 C316.956952,117.454347 317.856601,117.602051 319.414226,117.602051 C319.646975,117.602051 319.893148,117.597575 320.152752,117.588623 C320.412356,117.579671 320.676432,117.566244 320.944988,117.54834 L319.709637,123.268555 L316.057293,123.402832 C312.422834,123.528158 310.086432,122.901537 309.048015,121.522949 C308.385577,120.645666 308.242349,119.293954 308.618328,117.467773 L312.45866,99.4477539 L308.376629,99.4477539 Z M342.936036,108.766602 C342.398924,109.070965 341.86182,109.317138 341.324708,109.505127 C340.787596,109.693116 340.071457,109.867675 339.176271,110.028809 L337.40381,110.351074 C335.720859,110.637534 334.485519,110.986652 333.697755,111.398438 C332.372879,112.096683 331.558271,113.179843 331.253907,114.647949 C330.967448,115.954922 331.124103,116.89933 331.723878,117.481201 C332.323653,118.063073 333.142737,118.354004 334.181154,118.354004 C335.828297,118.354004 337.448561,117.87061 339.041993,116.903809 C340.635426,115.937007 341.736489,114.173515 342.345216,111.613281 L342.936036,108.766602 Z M339.041993,105.194824 C340.5101,105.015787 341.575356,104.791994 342.237794,104.523438 C343.419441,104.05794 344.117676,103.33285 344.332521,102.348145 C344.583173,101.148594 344.341476,100.320559 343.607423,99.8640137 C342.87337,99.4074684 341.700693,99.1791992 340.089357,99.1791992 C338.281079,99.1791992 336.902512,99.6267859 335.953614,100.521973 C335.291176,101.184411 334.745121,102.079584 334.315431,103.20752 L326.930177,103.20752 C327.646326,100.647285 328.810052,98.543628 330.421388,96.8964844 C332.999526,94.3183465 336.750302,93.0292969 341.673829,93.0292969 C344.878598,93.0292969 347.590973,93.6648699 349.811036,94.9360352 C352.0311,96.2072004 352.765142,98.6062649 352.013185,102.133301 L349.13965,115.561035 C348.942709,116.492029 348.727867,117.619948 348.495118,118.944824 C348.333985,119.947433 348.338461,120.627765 348.508546,120.98584 C348.678632,121.343915 348.987466,121.639322 349.43506,121.87207 L349.220216,123 L340.895021,123 C340.787598,122.409177 340.74284,121.854169 340.760743,121.334961 C340.778647,120.815753 340.832358,120.224938 340.921876,119.5625 C339.614904,120.708339 338.191578,121.684078 336.651857,122.489746 C334.789868,123.438644 332.820487,123.913086 330.743654,123.913086 C328.093901,123.913086 326.066333,123.156664 324.66089,121.643799 C323.255447,120.130933 322.848143,117.986993 323.438966,115.211914 C324.208827,111.613263 326.151353,109.008309 329.266603,107.396973 C330.967458,106.51969 333.339667,105.893068 336.383302,105.51709 L339.041993,105.194824 Z M376.716635,93.0830078 L375.051596,100.924805 C374.586099,100.871093 374.165368,100.835287 373.789389,100.817383 C373.413411,100.799479 373.109052,100.790527 372.876303,100.790527 C369.796861,100.790527 367.514169,101.793121 366.028159,103.79834 C365.204587,104.926275 364.542159,106.662911 364.040854,109.008301 L361.086753,123 L353.379233,123 L359.582846,93.7275391 L366.887534,93.7275391 L365.813315,98.8300781 C367.406748,96.878571 368.713701,95.5447627 369.734214,94.8286133 C371.435068,93.629063 373.431305,93.0292969 375.722983,93.0292969 C375.866213,93.0292969 375.987061,93.0337727 376.085532,93.0427246 C376.184002,93.0516765 376.394368,93.0651041 376.716635,93.0830078 Z M373.920086,128.612793 L374.886883,128.666504 C375.620936,128.702311 376.337075,128.675456 377.03532,128.585938 C377.733566,128.496419 378.351236,128.290529 378.888348,127.968262 C379.407556,127.663898 379.962564,127.028325 380.553387,126.061523 C381.14421,125.094722 381.421714,124.503907 381.385906,124.289062 L377.142742,93.7275391 L385.655926,93.7275391 L387.455242,115.319336 L398.090008,93.7275391 L406.227215,93.7275391 L390.060223,122.516602 C386.944973,128.06676 384.68466,131.508701 383.279217,132.842529 C381.873774,134.176358 379.479185,134.843262 376.095379,134.843262 C375.415037,134.843262 374.868981,134.838786 374.457195,134.829834 C374.045409,134.820882 373.436692,134.789551 372.631024,134.73584 L373.920086,128.612793 Z M493.167319,110.780762 C493.041993,112.589039 493.247883,113.940751 493.784995,114.835938 C494.787604,116.465177 496.918117,117.279785 500.176597,117.279785 C502.128104,117.279785 503.757319,117.064944 505.064292,116.635254 C507.552911,115.811682 509.029947,114.280936 509.495444,112.042969 C509.781904,110.735996 509.423835,109.72445 508.421226,109.008301 C507.43652,108.310055 505.771498,107.692385 503.426108,107.155273 L499.424644,106.215332 C495.503725,105.284338 492.871916,104.272792 491.529136,103.180664 C489.255361,101.354483 488.530271,98.4988801 489.353843,94.6137695 C490.1058,91.0688299 492.021471,88.1237096 495.100913,85.7783203 C498.180356,83.432931 502.217587,82.2602539 507.212729,82.2602539 C511.3843,82.2602539 514.705393,83.365793 517.176108,85.5769043 C519.646824,87.7880156 520.50619,90.997212 519.754233,95.2045898 L511.805015,95.2045898 C512.180993,92.823393 511.509613,91.1315154 509.790854,90.1289062 C508.645015,89.466468 507.114269,89.1352539 505.198569,89.1352539 C503.068025,89.1352539 501.273202,89.5649371 499.814048,90.4243164 C498.354893,91.2836957 497.464196,92.483228 497.141929,94.0229492 C496.837565,95.4373443 497.240393,96.4936489 498.350425,97.1918945 C499.04867,97.6573917 500.651031,98.2034474 503.157554,98.8300781 L509.629722,100.468262 C512.458512,101.184411 514.508459,102.142247 515.779624,103.341797 C517.749035,105.203785 518.357753,107.898257 517.605796,111.425293 C516.835935,115.041848 514.812843,118.045154 511.53646,120.435303 C508.260076,122.825451 504.09752,124.020508 499.048667,124.020508 C493.892391,124.020508 490.087904,122.843355 487.635093,120.489014 C485.182281,118.134672 484.394528,114.898621 485.271811,110.780762 L493.167319,110.780762 Z M521.737957,99.4477539 L522.892743,93.9960938 L526.974774,93.9960938 L528.720379,85.8320312 L536.293621,85.8320312 L534.548016,93.9960938 L539.301434,93.9960938 L538.146649,99.4477539 L533.393231,99.4477539 L530.090008,114.916504 C529.839356,116.116054 529.83488,116.863524 530.07658,117.158936 C530.318281,117.454347 531.21793,117.602051 532.775555,117.602051 C533.008304,117.602051 533.254476,117.597575 533.51408,117.588623 C533.773685,117.579671 534.037761,117.566244 534.306317,117.54834 L533.070965,123.268555 L529.418621,123.402832 C525.784163,123.528158 523.447761,122.901537 522.409344,121.522949 C521.746906,120.645666 521.603678,119.293954 521.979657,117.467773 L525.819989,99.4477539 L521.737957,99.4477539 Z M556.297365,108.766602 C555.760253,109.070965 555.223149,109.317138 554.686037,109.505127 C554.148925,109.693116 553.432786,109.867675 552.537599,110.028809 L550.765139,110.351074 C549.082187,110.637534 547.846848,110.986652 547.059084,111.398438 C545.734207,112.096683 544.9196,113.179843 544.615236,114.647949 C544.328776,115.954922 544.485432,116.89933 545.085207,117.481201 C545.684982,118.063073 546.504066,118.354004 547.542482,118.354004 C549.189626,118.354004 550.80989,117.87061 552.403322,116.903809 C553.996755,115.937007 555.097818,114.173515 555.706545,111.613281 L556.297365,108.766602 Z M552.403322,105.194824 C553.871428,105.015787 554.936685,104.791994 555.599123,104.523438 C556.780769,104.05794 557.479005,103.33285 557.693849,102.348145 C557.944502,101.148594 557.702805,100.320559 556.968752,99.8640137 C556.234699,99.4074684 555.062022,99.1791992 553.450685,99.1791992 C551.642408,99.1791992 550.263841,99.6267859 549.314943,100.521973 C548.652505,101.184411 548.106449,102.079584 547.67676,103.20752 L540.291506,103.20752 C541.007655,100.647285 542.17138,98.543628 543.782717,96.8964844 C546.360855,94.3183465 550.111631,93.0292969 555.035158,93.0292969 C558.239927,93.0292969 560.952302,93.6648699 563.172365,94.9360352 C565.392428,96.2072004 566.12647,98.6062649 565.374514,102.133301 L562.500978,115.561035 C562.304037,116.492029 562.089196,117.619948 561.856447,118.944824 C561.695313,119.947433 561.699789,120.627765 561.869875,120.98584 C562.03996,121.343915 562.348795,121.639322 562.796389,121.87207 L562.581545,123 L554.256349,123 C554.148927,122.409177 554.104168,121.854169 554.122072,121.334961 C554.139976,120.815753 554.193686,120.224938 554.283205,119.5625 C552.976232,120.708339 551.552907,121.684078 550.013185,122.489746 C548.151197,123.438644 546.181816,123.913086 544.104982,123.913086 C541.455229,123.913086 539.427662,123.156664 538.022219,121.643799 C536.616775,120.130933 536.209471,117.986993 536.800295,115.211914 C537.570155,111.613263 539.512682,109.008309 542.627931,107.396973 C544.328786,106.51969 546.700996,105.893068 549.744631,105.51709 L552.403322,105.194824 Z M568.808433,99.4477539 L569.963218,93.9960938 L574.045249,93.9960938 L575.790855,85.8320312 L583.364097,85.8320312 L581.618491,93.9960938 L586.371909,93.9960938 L585.217124,99.4477539 L580.463706,99.4477539 L577.160484,114.916504 C576.909831,116.116054 576.905355,116.863524 577.147056,117.158936 C577.388756,117.454347 578.288406,117.602051 579.846031,117.602051 C580.078779,117.602051 580.324952,117.597575 580.584556,117.588623 C580.84416,117.579671 581.108236,117.566244 581.376792,117.54834 L580.141441,123.268555 L576.489097,123.402832 C572.854639,123.528158 570.518236,122.901537 569.47982,121.522949 C568.817381,120.645666 568.674154,119.293954 569.050132,117.467773 L572.890464,99.4477539 L568.808433,99.4477539 Z M593.538739,105.436523 L605.435712,105.436523 C605.740075,103.413401 605.449144,101.878179 604.562909,100.830811 C603.676674,99.783442 602.418955,99.2597656 600.789716,99.2597656 C599.017246,99.2597656 597.526782,99.8147731 596.31828,100.924805 C595.109778,102.034836 594.183273,103.538727 593.538739,105.436523 Z M612.337567,98.6420898 C613.125331,100.378752 613.438642,102.392892 613.277508,104.68457 C613.205894,106.02735 612.883631,107.960925 612.310712,110.485352 L592.276532,110.485352 C591.757324,113.421564 592.240717,115.480463 593.726727,116.662109 C594.621914,117.396163 595.812495,117.763184 597.298505,117.763184 C598.874033,117.763184 600.2526,117.315597 601.434247,116.42041 C602.060878,115.937009 602.678547,115.265629 603.287274,114.40625 L611.102216,114.40625 C610.529296,116.142912 609.249198,117.906404 607.261883,119.696777 C604.146634,122.543471 600.333195,123.966797 595.821454,123.966797 C592.097477,123.966797 589.067315,122.767265 586.730878,120.368164 C584.39444,117.969064 583.79915,114.066108 584.944989,108.65918 C586.019213,103.592423 588.127346,99.7073703 591.269452,97.0039062 C594.411557,94.3004422 598.032534,92.9487305 602.132489,92.9487305 C604.567397,92.9487305 606.666578,93.4052689 608.430096,94.3183594 C610.193614,95.2314499 611.496092,96.672679 612.337567,98.6420898 Z" id="by-AZ-Secretary-Stat" fill="#FDB642"></path>
                <path d="M441.345251,107.405273 C441.971882,104.469061 441.851033,102.208748 440.982702,100.624268 C440.114371,99.039787 438.561245,98.2475586 436.323278,98.2475586 C434.085311,98.2475586 432.196496,99.039787 430.656774,100.624268 C429.117053,102.208748 428.033893,104.469061 427.407263,107.405273 C426.780632,110.341486 426.90148,112.606275 427.769811,114.199707 C428.638143,115.793139 430.191268,116.589844 432.429235,116.589844 C434.667202,116.589844 436.556018,115.793139 438.095739,114.199707 C439.63546,112.606275 440.71862,110.341486 441.345251,107.405273 Z M431.086462,123.008301 C426.055512,123.008301 422.631474,121.48203 420.814245,118.429443 C418.997016,115.376856 418.544953,111.70217 419.458044,107.405273 C420.353231,103.179992 422.367371,99.5187329 425.500524,96.4213867 C428.633678,93.3240405 432.715668,91.7753906 437.746618,91.7753906 C442.777568,91.7753906 446.19713,93.3240405 448.005407,96.4213867 C449.813684,99.5187329 450.270223,103.179992 449.375036,107.405273 C448.461946,111.70217 446.44333,115.376856 443.319128,118.429443 C440.194926,121.48203 436.117411,123.008301 431.086462,123.008301 Z M473.94779,82.1611328 L472.605017,88.3916016 C472.193231,88.3378904 471.486044,88.2976076 470.483435,88.270752 C469.480825,88.2438964 468.733356,88.4676897 468.241003,88.9421387 C467.74865,89.4165877 467.448767,89.9402641 467.341345,90.5131836 C467.216019,91.0861031 467.036984,91.9096626 466.804235,92.9838867 L471.826208,92.9838867 L470.671423,98.3818359 L465.64945,98.3818359 L460.654333,121.987793 L453.02738,121.987793 L458.022497,98.3818359 L453.752477,98.3818359 L454.907263,92.9838867 L459.096716,92.9838867 L459.499548,91.1040039 C460.161986,87.9708502 461.146677,85.8134825 462.453649,84.6318359 C463.939659,82.8772699 466.804214,82 471.047399,82 C471.5308,82 471.964959,82.0134276 472.34989,82.0402832 C472.73482,82.0671388 473.267448,82.1074216 473.94779,82.1611328 Z" id="of" fill="#FDB642"></path>
            </g>
        </g>
    </g>
</svg>