<?xml version="1.0" encoding="UTF-8"?>
<svg width="147px" height="49px" viewBox="0 0 147 49" version="1.1" xmlns="http://www.w3.org/2000/svg" xmlns:xlink="http://www.w3.org/1999/xlink">
    <!-- Generator: Sketch 49.1 (51147) - http://www.bohemiancoding.com/sketch -->
    <title>Group 3</title>
    <desc>Created with Sketch.</desc>
    <defs></defs>
    <g id="Landing-Page" stroke="none" stroke-width="1" fill="none" fill-rule="evenodd">
        <g transform="translate(-1193.000000, -9310.000000)" id="Group-3">
            <g transform="translate(1193.000000, 9310.000000)">
                <polyline id="Fill-1" fill="#26337A" points="52.1686237 47.5804253 59.5672103 1.64111052 71.3935853 1.64111052 63.9956751 47.5804253 52.1686237 47.5804253"></polyline>
                <path d="M106.893679,2.76868043 C104.555325,1.84667832 100.877677,0.841227896 96.2963434,0.841227896 C84.6038978,0.841227896 76.3733253,7.07542758 76.3050077,16.0023619 C76.2306025,22.6056338 82.178287,26.2882147 86.6622174,28.4829732 C91.2706075,30.7326855 92.818913,32.1723385 92.8006499,34.1839178 C92.7688585,37.2606504 89.1223253,38.670452 85.7220057,38.670452 C80.9871267,38.670452 78.4715531,37.9764062 74.5821882,36.2613059 L73.0609392,35.5299459 L71.4071136,45.8130849 C74.1648424,47.0926258 79.2771589,48.2032346 84.5829291,48.2615806 C97.0092809,48.2615806 105.083602,42.1026879 105.1783,32.5699053 C105.220914,27.3336932 102.069514,23.3648099 95.2445239,20.0879371 C91.1116509,17.9576305 88.5751085,16.546472 88.6041942,14.3903847 C88.6068999,12.4812501 90.7470652,10.4371056 95.3791297,10.4371056 C99.2475259,10.374689 102.047869,11.268875 104.229971,12.2024106 L105.291937,12.7275244 L106.893679,2.76868043" id="Fill-2" fill="#26337A"></path>
                <path d="M122.64121,31.2930782 C123.62133,28.6525836 127.352415,18.4522144 127.352415,18.4522144 C127.283421,18.5736555 128.327124,15.7913666 128.924395,14.0694818 L129.72256,18.0315807 C129.72256,18.0315807 131.99192,28.9965535 132.45932,31.2930782 L122.64121,31.2930782 L122.64121,31.2930782 Z M137.231402,1.68792299 L128.091733,1.68792299 C125.256893,1.68792299 123.134991,2.500696 121.893099,5.49601558 L104.33008,47.5967079 L116.751697,47.5967079 C116.751697,47.5967079 118.778225,41.9330775 119.238185,40.6901726 C120.593037,40.6901726 132.66292,40.713918 134.38574,40.713918 C134.740179,42.3170755 135.825819,47.5967079 135.825819,47.5967079 L146.802622,47.5967079 L137.231402,1.68792299 L137.231402,1.68792299 Z" id="Fill-3" fill="#26337A"></path>
                <path d="M42.2470228,1.67978169 L30.6715964,32.9993588 L29.4317345,26.632863 C27.2746589,19.2975527 20.5599241,11.3468958 13.0490531,7.36308681 L23.6389483,47.5403972 L36.1552628,47.5329343 L54.7795712,1.67978169 L42.2470228,1.67978169" id="Fill-4" fill="#26337A"></path>
                <path d="M19.9261267,1.64857338 L0.854710349,1.64857338 L0.69778293,2.60042691 C15.5375702,6.40580574 25.3563565,15.5912263 29.4317345,26.632863 L25.2873626,5.52451013 C24.5723958,2.6133173 22.4944603,1.75033961 19.9261267,1.64857338" id="Fill-5" fill="#EC982D"></path>
            </g>
        </g>
    </g>
</svg>