<?xml version="1.0" encoding="UTF-8"?>
<svg width="18px" height="14px" viewBox="0 0 18 14" version="1.1" xmlns="http://www.w3.org/2000/svg" xmlns:xlink="http://www.w3.org/1999/xlink">
    <!-- Generator: Sketch 50.2 (55047) - http://www.bohemiancoding.com/sketch -->
    <title>А</title>
    <desc>Created with Sketch.</desc>
    <defs></defs>
    <g id="Page-1" stroke="none" stroke-width="1" fill="none" fill-rule="evenodd">
        <g id="OZessay_writers-page_desktop" transform="translate(-874.000000, -1313.000000)" fill="#F2484B" fill-rule="nonzero">
            <g id="card_writer_1" transform="translate(685.000000, 1164.000000)">
                <g id="Completed-works" transform="translate(176.000000, 149.000000)">
                    <g id="Group-17" transform="translate(13.000000, 0.000000)">
                        <g id="А">
                            <path d="M16.8375,3.06675269 L14.9625,3.06675269 L14.9625,1.18503226 C14.9625,0.561354839 14.45895,0.056 13.8375,0.056 C13.21605,0.056 12.7125,0.561354839 12.7125,1.18503226 L12.7125,3.06675269 L10.8375,3.06675269 C10.21605,3.06675269 9.7125,3.57210753 9.7125,4.19578495 C9.7125,4.81946237 10.21605,5.3248172 10.8375,5.3248172 L12.7125,5.3248172 L12.7125,7.20653763 C12.7125,7.83021505 13.21605,8.33556989 13.8375,8.33556989 C14.45895,8.33556989 14.9625,7.83021505 14.9625,7.20653763 L14.9625,5.3248172 L16.8375,5.3248172 C17.45895,5.3248172 17.9625,4.81946237 17.9625,4.19578495 C17.9625,3.57210753 17.45895,3.06675269 16.8375,3.06675269 Z" id="Shape"></path>
                            <path d="M9.9846,7.79845161 C9.98235,7.79273118 9.9801,7.78716129 9.9777,7.7815914 L7.07685,0.752989247 C6.90285,0.331032258 6.49245,0.056 6.0375,0.056 C5.58255,0.056 5.17215,0.331032258 4.99815,0.752989247 L2.09625,7.78384946 C2.0946,7.7876129 2.0931,7.79137634 2.0916,7.79529032 L0.19815,12.3829247 C-0.03975,12.9590323 0.2328,13.6194409 0.807,13.858043 C1.3809,14.0972473 2.0391,13.8232688 2.27685,13.2470108 L3.8823,9.35711828 L8.1927,9.35711828 L9.79815,13.2470108 C9.97755,13.681914 10.39635,13.9443011 10.83795,13.9443011 C10.98135,13.9443011 11.1273,13.9164516 11.268,13.858043 C11.84205,13.6194409 12.11475,12.9590323 11.87685,12.3829247 L9.9846,7.79845161 Z M4.81425,7.09905376 L6.0375,4.13526882 L7.26075,7.09905376 L4.81425,7.09905376 Z" id="Shape"></path>
                        </g>
                    </g>
                </g>
            </g>
        </g>
    </g>
</svg>