<?xml version="1.0" encoding="UTF-8"?>
<svg width="15px" height="16px" viewBox="0 0 15 16" version="1.1" xmlns="http://www.w3.org/2000/svg" xmlns:xlink="http://www.w3.org/1999/xlink">
    <!-- Generator: Sketch 50.2 (55047) - http://www.bohemiancoding.com/sketch -->
    <title>like (1)</title>
    <desc>Created with Sketch.</desc>
    <defs></defs>
    <g id="Page-1" stroke="none" stroke-width="1" fill="none" fill-rule="evenodd">
        <g id="OZessay_writers-page_desktop" transform="translate(-790.000000, -1311.000000)" fill-rule="nonzero">
            <g id="card_writer_1" transform="translate(685.000000, 1164.000000)">
                <g id="satisfaction-rate" transform="translate(85.000000, 147.000000)">
                    <g id="Group-16" transform="translate(20.000000, 0.000000)">
                        <g id="like-(1)">
                            <rect id="Rectangle-path" fill="#4B6DAA" x="0.138888889" y="5.71428571" width="3.88888889" height="10.2857143"></rect>
                            <ellipse id="Oval" fill="#D8A852" cx="2.08333333" cy="13.4285714" rx="1.11111111" ry="1.14285714"></ellipse>
                            <path d="M14.5833333,7.42857143 C14.5833333,6.79742857 14.0858333,6.28571429 13.4722222,6.28571429 L10.9722222,6.28571429 L10.1388889,6.28571429 L9.13833333,6.28571429 L9.41277778,4.966 C9.62222222,3.95914286 9.56611111,2.732 9.44166667,1.87 C9.31722222,1.008 8.56666667,0 7.78138889,0 L7.715,0 C7.04555556,0 6.80555556,0.759714286 6.80555556,1.71428571 C6.80555556,6.35714286 4.58333333,6.28571429 4.58333333,6.28571429 L4.02777778,6.28571429 L4.02777778,15.4285714 L8.19444444,15.4285714 L10.9722222,15.4285714 L12.0833333,15.4285714 C12.6969444,15.4285714 13.1944444,14.9168571 13.1944444,14.2857143 C13.1944444,13.6545714 12.6969444,13.1428571 12.0833333,13.1428571 L12.9166667,13.1428571 C13.5302778,13.1428571 14.0277778,12.6311429 14.0277778,12 C14.0277778,11.3688571 13.5302778,10.8571429 12.9166667,10.8571429 L13.75,10.8571429 C14.3636111,10.8571429 14.8611111,10.3454286 14.8611111,9.71428571 C14.8611111,9.002 14.4130556,8.73085714 13.75,8.62971429 C13.4269444,8.58028571 12.84,8.57142857 12.6388889,8.57142857 L13.4722222,8.57142857 C14.0858333,8.57142857 14.5833333,8.05971429 14.5833333,7.42857143 Z" id="Shape" fill="#FBCE9D"></path>
                            <path d="M14.2,8.28571429 L10.6944444,8.28571429 C10.5411111,8.28571429 10.4166667,8.41342857 10.4166667,8.57142857 C10.4166667,8.72942857 10.5411111,8.85714286 10.6944444,8.85714286 L14.4322222,8.85714286 C14.2497222,8.742 14.0188889,8.67057143 13.75,8.62971429 C13.4269444,8.58028571 12.84,8.57142857 12.6388889,8.57142857 L13.4722222,8.57142857 C13.7522222,8.57142857 14.0047222,8.46142857 14.2,8.28571429 Z" id="Shape" fill="#F7B563"></path>
                            <path d="M14.4777778,10.5714286 L10.6944444,10.5714286 C10.5411111,10.5714286 10.4166667,10.6991429 10.4166667,10.8571429 C10.4166667,11.0151429 10.5411111,11.1428571 10.6944444,11.1428571 L13.6447222,11.1428571 C13.4494444,10.9671429 13.1966667,10.8571429 12.9166667,10.8571429 L13.75,10.8571429 C14.03,10.8571429 14.2825,10.7471429 14.4777778,10.5714286 Z" id="Shape" fill="#F7B563"></path>
                            <path d="M13.6444444,12.8571429 L10.1388889,12.8571429 C9.98555556,12.8571429 9.86111111,12.9848571 9.86111111,13.1428571 C9.86111111,13.3008571 9.98555556,13.4285714 10.1388889,13.4285714 L12.8113889,13.4285714 C12.6161111,13.2528571 12.3633333,13.1428571 12.0833333,13.1428571 L12.9166667,13.1428571 C13.1966667,13.1428571 13.4491667,13.0328571 13.6444444,12.8571429 Z" id="Shape" fill="#F7B563"></path>
                        </g>
                    </g>
                </g>
            </g>
        </g>
    </g>
</svg>