<?xml version="1.0" encoding="UTF-8"?>
<svg width="17px" height="16px" viewBox="0 0 17 16" version="1.1" xmlns="http://www.w3.org/2000/svg" xmlns:xlink="http://www.w3.org/1999/xlink">
    <!-- Generator: Sketch 50.2 (55047) - http://www.bohemiancoding.com/sketch -->
    <title>rating</title>
    <desc>Created with Sketch.</desc>
    <defs></defs>
    <g id="Page-1" stroke="none" stroke-width="1" fill="none" fill-rule="evenodd">
        <g id="OZessay_writers-page_desktop" transform="translate(-710.000000, -1311.000000)" fill-rule="nonzero">
            <g id="card_writer_1" transform="translate(685.000000, 1164.000000)">
                <g id="rate-in-top" transform="translate(16.000000, 147.000000)">
                    <g id="Group-15" transform="translate(9.000000, 0.000000)">
                        <g id="rating">
                            <path d="M16.8346108,6.21587209 C16.6490251,5.65818535 16.164898,5.25943335 15.5710459,5.17506731 L11.7658695,4.63468922 L10.064184,1.26516402 C9.79850456,0.739264227 9.26068462,0.412577149 8.66048291,0.412577149 C8.06039259,0.412577149 7.52257265,0.739264227 7.25689316,1.26516402 L5.55543048,4.63468922 L1.75036553,5.17506731 C1.15640199,5.25932449 0.672274929,5.65807649 0.486689174,6.21587209 C0.301103419,6.77355883 0.452936182,7.37446275 0.882701994,7.78420955 L3.6361886,10.4069592 L2.98630427,14.1103562 C2.88482251,14.6885085 3.12343276,15.2616533 3.60878519,15.6065199 C3.88326496,15.8013782 4.20419687,15.9002226 4.52746809,15.9002226 C4.77621538,15.9002226 5.02618803,15.8415474 5.25733476,15.7228906 L8.6607057,13.9743908 L12.0640766,15.7228906 C12.5953242,15.9958011 13.2268282,15.9511688 13.712292,15.6065199 C14.1978672,15.261871 14.4364775,14.6885085 14.3349957,14.1103562 L13.685,10.4069592 L16.4384866,7.78399184 C16.8684752,7.37457161 17.0200852,6.77366769 16.8346108,6.21587209 Z" id="Shape" fill="#F7CB4F"></path>
                            <path d="M15.5711573,5.17506731 L15.4866077,5.16309277 L11.1841595,9.31313991 C10.9631499,9.523674 10.8623365,9.82695631 10.9144698,10.1241425 L11.9281735,15.6527851 L12.064188,15.7226729 C12.5954356,15.9955834 13.2269396,15.9509511 13.7124034,15.6063022 C14.1979786,15.2616533 14.4365889,14.6882908 14.3351071,14.1101385 L13.6851114,10.4067415 L16.438598,7.78377412 C16.8684752,7.37435389 17.0201966,6.77344997 16.8347222,6.21554551 C16.6490251,5.65796763 16.164898,5.25921563 15.5711573,5.17506731 Z" id="Shape" fill="#FBAB00"></path>
                        </g>
                    </g>
                </g>
            </g>
        </g>
    </g>
</svg>