<?xml version="1.0" encoding="UTF-8"?>
<svg width="96px" height="92px" viewBox="0 0 96 92" version="1.1" xmlns="http://www.w3.org/2000/svg" xmlns:xlink="http://www.w3.org/1999/xlink">
    <!-- Generator: Sketch 49.3 (51167) - http://www.bohemiancoding.com/sketch -->
    <title>badge</title>
    <desc>Created with Sketch.</desc>
    <defs></defs>
    <g id="Page-1" stroke="none" stroke-width="1" fill="none" fill-rule="evenodd">
        <g id="ozEssay_Desktop_price-page" transform="translate(-1050.000000, -1375.000000)">
            <g id="Factors-that-affect-pricing" transform="translate(401.000000, 1281.000000)">
                <g id="badge" transform="translate(649.000000, 94.000000)">
                    <path d="M95.9848825,60.3162845 C95.9103049,59.8075082 95.5678191,59.3759973 95.0891115,59.1882086 L94.9816123,59.1467204 C94.0858412,58.7682876 93.2056912,58.2351558 92.2741431,57.6689342 C91.2431582,57.0437558 90.125166,56.3656673 88.8175385,55.797766 L88.8329916,7.43327454 C88.8329916,6.64214328 88.1908516,6 87.3997243,6 L18.6002093,6 C17.8090821,6 17.1669421,6.64214328 17.1669421,7.43327454 L17.1669421,55.8607542 C15.3512127,55.6346687 13.583522,55.2881498 11.941975,54.819014 L11.7929878,54.7803813 C11.2197145,54.6270261 10.6104961,54.8505921 10.2649868,55.3365247 C9.92098926,55.8209457 9.91091121,56.4674561 10.2406315,56.9619552 L15.3231621,64.5843621 L10.419517,69.4861846 C10.0555313,69.8501722 9.91494243,70.3806164 10.0511641,70.8764592 C10.1858741,71.37247 10.5757268,71.7579575 11.0730788,71.8869573 L11.1878006,71.9170236 C14.5746986,72.8845217 18.0576741,73.3675989 21.5406495,73.3675989 C21.5472003,73.3675989 21.553919,73.3674309 21.5604697,73.3674309 C27.8589175,84.8836819 39.8224074,92 52.9997989,92 C66.5603244,92 79.0062171,84.2615268 85.0520416,72.1815739 C86.2992008,72.6357605 87.3835994,73.3151927 88.5373686,74.0388007 C89.6367164,74.7296548 90.7733529,75.4420089 92.1537103,76.0253632 L92.2969867,76.0826405 C92.4689855,76.1515075 92.6482068,76.1844293 92.8259165,76.1844293 C93.2201364,76.1844293 93.605622,76.0209961 93.8837763,75.7186529 C94.2850508,75.2800873 94.3739056,74.6379441 94.1059974,74.106156 L89.9881045,65.9232384 L95.449066,61.6519694 C95.8545397,61.335349 96.0594601,60.8250609 95.9848825,60.3162845 Z" id="Path" fill="#B0D5FF" opacity="0.5"></path>
                    <path d="M89.8094048,56.7319298 C89.73151,56.2005263 89.3737907,55.7498246 88.8737907,55.5536842 L88.76151,55.5103509 C87.825896,55.1150877 86.9065978,54.5582456 85.9336153,53.9668421 C84.8567732,53.3138596 83.6890539,52.605614 82.3232644,52.0124561 L82.3394048,1.49701754 C82.3394048,0.670701754 81.668703,0 80.8423872,0 L8.9827381,0 C8.15642231,0 7.48572056,0.670701754 7.48572056,1.49701754 L7.48572056,52.0782456 C5.58922933,51.8421053 3.74291354,51.4801754 2.02835214,50.9901754 L1.8727381,50.9498246 C1.27396617,50.7896491 0.637650384,51.0231579 0.276773191,51.5307018 C-0.082525055,52.0366667 -0.0930513708,52.7119298 0.251334594,53.2284211 L5.55993109,61.1898246 L0.438176699,66.3096491 C0.0580012608,66.6898246 -0.0888408444,67.2438596 0.0534398573,67.7617544 C0.194141612,68.2798246 0.601334594,68.6824561 1.12080828,68.817193 L1.24063284,68.8485965 C4.7781767,69.8591228 8.41607144,70.3636842 12.0539662,70.3636842 C12.0608083,70.3636842 12.0678258,70.3635088 12.0746679,70.3635088 C18.6532644,82.3919298 31.1488785,89.8247368 44.9123872,89.8247368 C59.0760714,89.8247368 72.0755451,81.7421053 78.390282,69.1249123 C79.6929135,69.5992982 80.8255451,70.3089474 82.0306328,71.0647368 C83.1788785,71.7863158 84.3660714,72.5303509 85.8078258,73.1396491 L85.9574749,73.1994737 C86.1371241,73.2714035 86.3243171,73.3057895 86.5099311,73.3057895 C86.9216855,73.3057895 87.3243171,73.1350877 87.6148434,72.8192982 C88.0339662,72.3612281 88.1267732,71.6905263 87.8469486,71.1350877 L83.545896,62.5882456 L89.2497556,58.1270175 C89.6732644,57.7963158 89.8872995,57.2633333 89.8094048,56.7319298 Z M10.4797556,2.99403509 L79.3451942,2.99403509 L79.3451942,51.042807 C78.433089,50.8421053 77.4406328,50.7096491 76.3509837,50.6719298 L76.3509837,7.48526316 C76.3509837,6.65894737 75.680282,5.98824561 74.8539662,5.98824561 L14.9709837,5.98824561 C14.1446679,5.98824561 13.4739662,6.65894737 13.4739662,7.48526316 L13.4739662,52.3854386 C12.4865978,52.4029825 11.4855451,52.3873684 10.4797556,52.3345614 L10.4797556,2.99403509 Z M73.3569486,50.7992982 C73.1801065,50.8192982 73.0013346,50.8415789 72.8201065,50.8663158 C72.8123872,50.8673684 72.8046679,50.8684211 72.7969486,50.8694737 C72.7365978,50.8777193 72.675896,50.8866667 72.6151942,50.8954386 C72.5053697,50.9114035 72.3957206,50.9270175 72.2841416,50.9447368 C72.2760714,50.9459649 72.2680013,50.9470175 72.2599311,50.9484211 C69.4237907,49.2066667 59.0813346,43.8245614 46.8704574,47.852807 C46.7674749,47.8866667 46.6644925,47.9198246 46.5613346,47.9550877 C46.4637907,47.9884211 46.3660714,48.0236842 46.2683521,48.0582456 C46.1255451,48.1085965 45.9825627,48.1596491 45.8392293,48.212807 C45.7592293,48.2424561 45.6790539,48.2731579 45.5988785,48.3035088 C45.4339662,48.3661404 45.2688785,48.4305263 45.1034399,48.4966667 C45.0383521,48.522807 44.973089,48.5489474 44.9078258,48.575614 C44.7195802,48.6524561 44.5309837,48.7319298 44.3420363,48.8135088 C44.2967732,48.8331579 44.25151,48.8522807 44.2060714,48.8721053 C43.9753697,48.9729825 43.7441416,49.077193 43.5125627,49.1854386 C43.5074749,49.1878947 43.5023872,49.19 43.4971241,49.1924561 C43.2472995,49.3092982 42.9969486,49.4291228 42.7460714,49.5545614 C34.5009837,53.6761404 28.805896,52.55 25.520282,50.9329825 C23.3485276,49.8638596 22.2288785,48.5805263 22.1239662,48.4566667 C22.1060714,48.4345614 22.0860714,48.4152632 22.0672995,48.3945614 C22.0474749,48.3726316 22.028703,48.3498246 22.0076504,48.3292982 C21.9972995,48.3191228 21.985896,48.3105263 21.9751942,48.3007018 C21.9425627,48.2705263 21.9095802,48.2408772 21.8746679,48.2138596 C21.8718609,48.2117544 21.8690539,48.21 21.8662469,48.2080702 C21.6074749,48.0105263 21.2890539,47.9003509 20.9588785,47.9003509 C20.9390539,47.9003509 20.9188785,47.9007018 20.8978258,47.9017544 C20.8951942,47.9017544 20.8927381,47.9014035 20.8901065,47.9014035 C20.4139662,47.9238596 19.9769486,48.1708772 19.7118609,48.5675439 L19.5153697,48.8629825 L18.4092293,50.5247368 C18.0439662,51.0875439 17.7655451,51.5364912 17.5171241,52.1052632 C17.4751942,52.1105263 17.4325627,52.1147368 17.3906328,52.1198246 C17.0904574,52.1545614 16.7843171,52.1875439 16.4674749,52.2163158 L16.4674749,8.9822807 L73.3569486,8.9822807 L73.3564223,50.7992982 L73.3569486,50.7992982 Z M19.9918609,54.04 L20.9606328,52.0966667 L21.2301065,51.6924561 C21.2813346,51.7336842 21.3343171,51.775614 21.3883521,51.8178947 C21.4137907,51.8378947 21.4401065,51.8580702 21.4660714,51.8782456 C21.4948434,51.9005263 21.5237907,51.922807 21.5532644,51.9452632 C21.5853697,51.9696491 21.6178258,51.9942105 21.6508083,52.0189474 C21.6750188,52.0370175 21.6995802,52.0552632 21.7243171,52.0735088 C21.7611592,52.1008772 21.7981767,52.1280702 21.8360714,52.155614 C21.8544925,52.1689474 21.8736153,52.1824561 21.8922118,52.1959649 C22.0334399,52.2977193 22.1818609,52.4007018 22.3372995,52.5047368 C22.3574749,52.5182456 22.3774749,52.5317544 22.3978258,52.5452632 C22.4446679,52.5763158 22.4922118,52.6073684 22.540282,52.6384211 C22.5627381,52.6529825 22.5851942,52.6673684 22.6078258,52.6819298 C22.6569486,52.7133333 22.7064223,52.7449123 22.7567732,52.7763158 C22.7757206,52.7882456 22.7951942,52.8 22.8143171,52.8119298 C22.9827381,52.9163158 23.1583521,53.0207018 23.3408083,53.124386 C23.3699311,53.1408772 23.3988785,53.1575439 23.4283521,53.1740351 C23.4783521,53.2021053 23.5292293,53.23 23.580282,53.2580702 C23.6141416,53.2766667 23.6483521,53.2950877 23.6827381,53.3136842 C23.7329135,53.3407018 23.7832644,53.3675439 23.8343171,53.394386 C23.8722118,53.4142105 23.9106328,53.4340351 23.9490539,53.4536842 C23.998703,53.4792982 24.0481767,53.5049123 24.098703,53.5303509 C24.1809837,53.5717544 24.2643171,53.612807 24.3488785,53.6535088 C24.3925627,53.6745614 24.4371241,53.6952632 24.4813346,53.7161404 C24.5325627,53.7403509 24.5839662,53.764386 24.6360714,53.7884211 C24.6816855,53.8092982 24.7278258,53.83 24.7739662,53.8507018 C24.8276504,53.8747368 24.8816855,53.8985965 24.9362469,53.9224561 C24.9811592,53.9419298 25.0260714,53.9614035 25.07151,53.9807018 C25.1339662,54.007193 25.1971241,54.0333333 25.2606328,54.0594737 C25.2995802,54.0754386 25.3380013,54.0915789 25.3771241,54.1073684 C25.4785276,54.1482456 25.5809837,54.1884211 25.6851942,54.2280702 C25.7095802,54.2373684 25.7344925,54.2463158 25.7590539,54.2554386 C25.8434399,54.2870175 25.9283521,54.3182456 26.0144925,54.3489474 C26.0513346,54.3621053 26.088703,54.3749123 26.125896,54.3878947 C26.203089,54.4147368 26.2808083,54.4414035 26.3592293,54.4675439 C26.3967732,54.48 26.4343171,54.4924561 26.4722118,54.5047368 C26.5590539,54.5329825 26.6469486,54.5607018 26.7355451,54.5878947 C26.7639662,54.5966667 26.7920363,54.605614 26.8206328,54.6142105 C27.0609837,54.6868421 27.3074749,54.7554386 27.5601065,54.8198246 C27.585896,54.8263158 27.6120363,54.8326316 27.6378258,54.8391228 C27.7399311,54.8645614 27.8429135,54.8892982 27.9469486,54.9133333 C27.9772995,54.9203509 28.0076504,54.927193 28.0381767,54.9342105 C28.1467732,54.9585965 28.2564223,54.9822807 28.3669486,55.0049123 C28.388703,55.0092982 28.4101065,55.0140351 28.4320363,55.0184211 C28.7046679,55.0733333 28.9836153,55.122807 29.2690539,55.1664912 C29.2843171,55.1687719 29.2999311,55.1708772 29.3151942,55.1733333 C29.4404574,55.1921053 29.5671241,55.2098246 29.6948434,55.2261404 C29.7209837,55.2294737 29.7472995,55.232807 29.7734399,55.2361404 C29.8990539,55.2517544 30.025896,55.2663158 30.1539662,55.2794737 C30.1734399,55.2814035 30.1927381,55.2836842 30.2122118,55.285614 C30.5153697,55.3159649 30.8250188,55.3398246 31.1413346,55.3557895 C31.1467732,55.3561404 31.1523872,55.3563158 31.1576504,55.3564912 C31.3050188,55.3638596 31.4541416,55.3692982 31.6044925,55.3735088 C31.6290539,55.3742105 31.6536153,55.3747368 31.6781767,55.3752632 C31.8171241,55.3784211 31.9572995,55.3803509 32.098703,55.3805263 C32.1123872,55.3805263 32.1255451,55.3810526 32.1392293,55.3810526 C32.1457206,55.3810526 32.1525627,55.3807018 32.1590539,55.3807018 C32.3590539,55.3805263 32.5611592,55.3775439 32.765896,55.3712281 C32.7697556,55.3710526 32.7737907,55.3708772 32.7776504,55.3707018 C32.9780013,55.364386 33.1808083,55.3547368 33.3857206,55.3422807 C33.4009837,55.3414035 33.4162469,55.3405263 33.4316855,55.3396491 C33.6409837,55.3264912 33.8525627,55.31 34.0665978,55.2901754 C34.0765978,55.2892982 34.0867732,55.2880702 34.0969486,55.287193 C34.3046679,55.2675439 34.5146679,55.2447368 34.7269486,55.2184211 C34.7401065,55.2168421 34.7532644,55.2152632 34.7665978,55.2136842 C34.9846679,55.1863158 35.2053697,55.1554386 35.4281767,55.1208772 C35.4448434,55.1182456 35.4618609,55.1154386 35.4785276,55.112807 C35.6927381,55.0791228 35.9090539,55.0421053 36.1276504,55.0015789 C36.140282,54.9992982 36.1527381,54.997193 36.1651942,54.9947368 C36.3904574,54.9524561 36.6181767,54.9063158 36.8481767,54.8563158 C36.8736153,54.8507018 36.8994048,54.8449123 36.9250188,54.8392982 C37.1443171,54.7910526 37.3655451,54.7394737 37.5890539,54.6840351 C37.6016855,54.6808772 37.6141416,54.6780702 37.6267732,54.6749123 C37.8583521,54.6170175 38.0923872,54.5547368 38.3285276,54.4889474 C38.3632644,54.4792982 38.3983521,54.4691228 38.4332644,54.4592982 C38.6567732,54.3959649 38.8818609,54.3296491 39.1094048,54.2589474 C39.1234399,54.2545614 39.1372995,54.2505263 39.1513346,54.2461404 C39.3880013,54.1721053 39.6272995,54.0933333 39.8683521,54.0112281 C39.9129135,53.9959649 39.9576504,53.9803509 40.0023872,53.9649123 C40.2311592,53.885614 40.46151,53.8035088 40.6941416,53.7166667 C40.7083521,53.7114035 40.7223872,53.7064912 40.7367732,53.7010526 C40.9788785,53.6103509 41.2234399,53.514386 41.4695802,53.4150877 C41.523089,53.3935088 41.5769486,53.3714035 41.6306328,53.3494737 C41.8685276,53.2521053 42.1078258,53.1519298 42.3495802,53.0463158 C42.360282,53.0417544 42.3706328,53.0373684 42.3813346,53.032807 C42.6295802,52.9242105 42.8806328,52.8098246 43.1329135,52.6922807 C43.1937907,52.6640351 43.2548434,52.6352632 43.315896,52.6064912 C43.570282,52.4863158 43.8260714,52.3635088 44.0844925,52.2342105 C44.3736153,52.0896491 44.6620363,51.9536842 44.9497556,51.8219298 C45.0772995,51.7635088 45.2050188,51.7040351 45.3323872,51.6480702 C45.343089,51.6433333 45.3537907,51.6391228 45.3644925,51.634386 C51.7823872,48.8242105 57.840282,49.0987719 62.4525627,50.1757895 C62.4564223,50.1766667 62.4601065,50.1775439 62.4639662,50.1784211 C62.6080013,50.2121053 62.7508083,50.2466667 62.8920363,50.2817544 C62.8994048,50.2835088 62.9067732,50.2854386 62.9141416,50.2873684 C63.0511592,50.3215789 63.1869486,50.3564912 63.3211592,50.3921053 C63.3276504,50.3938596 63.3341416,50.395614 63.3406328,50.3973684 C63.3471241,50.3991228 63.3534399,50.4008772 63.3597556,50.4024561 C63.4880013,50.4364912 63.6150188,50.4712281 63.7408083,50.5063158 C63.7601065,50.5117544 63.7790539,50.517193 63.7981767,50.5226316 C63.9164223,50.5559649 64.0336153,50.5896491 64.1495802,50.6236842 C64.1751942,50.6312281 64.2004574,50.6389474 64.225896,50.6464912 C64.3343171,50.6787719 64.4422118,50.7112281 64.5485276,50.7442105 C64.5797556,50.7538596 64.6104574,50.7636842 64.64151,50.7733333 C64.7409837,50.804386 64.8399311,50.8357895 64.9376504,50.8673684 C64.9741416,50.8792982 65.010282,50.8912281 65.0465978,50.9031579 C65.1371241,50.932807 65.2271241,50.9626316 65.315896,50.9926316 C65.3580013,51.0068421 65.3995802,51.0212281 65.44151,51.035614 C65.5227381,51.0635088 65.6036153,51.0912281 65.6832644,51.1192982 C65.7309837,51.1361404 65.7778258,51.1529825 65.8250188,51.1698246 C65.8972995,51.195614 65.9694048,51.2214035 66.0404574,51.2473684 C66.0927381,51.2664912 66.1441416,51.285614 66.1957206,51.3047368 C66.2597556,51.3285965 66.3239662,51.3522807 66.3869486,51.3763158 C66.4432644,51.3977193 66.498703,51.4191228 66.5541416,51.4403509 C66.610282,51.4619298 66.6665978,51.4836842 66.7218609,51.5052632 C66.7827381,51.5291228 66.8427381,51.5531579 66.9025627,51.5770175 C66.9501065,51.5959649 66.9976504,51.6149123 67.0443171,51.6338596 C67.1097556,51.6603509 67.1741416,51.6868421 67.2381767,51.7133333 C67.2778258,51.7296491 67.3176504,51.7459649 67.3565978,51.7622807 C67.4250188,51.7908772 67.4920363,51.8192982 67.558703,51.8477193 C67.5916855,51.8617544 67.6248434,51.8757895 67.6572995,51.8898246 C67.7290539,51.9207018 67.7995802,51.9515789 67.8692293,51.9821053 C67.8944925,51.9931579 67.9199311,52.004386 67.9450188,52.0154386 C68.020282,52.0487719 68.0939662,52.0817544 68.1665978,52.1147368 C68.1846679,52.1229825 68.2029135,52.1312281 68.2208083,52.1392982 C68.2978258,52.174386 68.3734399,52.2091228 68.4474749,52.2436842 C68.460282,52.2496491 68.4732644,52.255614 68.4860714,52.2615789 C68.5651942,52.2985965 68.6427381,52.3352632 68.7185276,52.3714035 C68.7244925,52.3742105 68.7308083,52.377193 68.7367732,52.38 C68.8176504,52.4187719 68.8965978,52.4570175 68.9734399,52.4947368 C68.9848434,52.5003509 68.9953697,52.505614 69.0065978,52.5112281 C69.0734399,52.5442105 69.1395802,52.5768421 69.2032644,52.6087719 C69.228703,52.6215789 69.2525627,52.6338596 69.2772995,52.6463158 C69.3251942,52.6705263 69.3736153,52.6949123 69.4197556,52.7185965 C69.4694048,52.7440351 69.5169486,52.7689474 69.5643171,52.7936842 C69.5827381,52.8033333 69.6022118,52.8133333 69.6204574,52.822807 C70.2169486,53.1357895 70.6306328,53.3835088 70.8357206,53.5110526 C70.8667732,53.5459649 70.9008083,53.577193 70.9344925,53.6085965 C70.9523872,53.6294737 70.9699311,53.6505263 70.9874749,53.6714035 C71.0318609,53.7242105 71.0769486,53.7763158 71.1201065,53.8298246 C71.1525627,53.87 71.1832644,53.9110526 71.2150188,53.9517544 C71.2660714,54.0170175 71.3176504,54.0821053 71.3669486,54.1482456 C71.3972995,54.1889474 71.425896,54.2307018 71.4555451,54.2719298 C71.5032644,54.3380702 71.5513346,54.4040351 71.5972995,54.4710526 C71.6357206,54.527193 71.6720363,54.5842105 71.7092293,54.6408772 C71.7434399,54.6929825 71.7785276,54.7447368 71.8116855,54.7973684 C71.8695802,54.8892982 71.9251942,54.9822807 71.9797556,55.075614 C71.9899311,55.0929825 72.0008083,55.1098246 72.0108083,55.127193 C73.558703,57.8085965 73.7801065,61.0359649 72.5371241,63.5526316 C72.3571241,63.9159649 72.1481767,64.2657895 71.9064223,64.5964912 L71.4022118,65.3535088 C70.1939662,64.6915789 67.9639662,63.6031579 65.0190539,62.7340351 C64.925896,62.7057895 64.8322118,62.6778947 64.7378258,62.6501754 C64.6990539,62.6387719 64.6601065,62.6275439 64.6209837,62.6161404 C64.5239662,62.5880702 64.4264223,62.5601754 64.3280013,62.532807 C64.2878258,62.5215789 64.2472995,62.5103509 64.2067732,62.4992982 C64.1080013,62.4721053 64.0088785,62.4450877 63.9088785,62.4185965 C63.8681767,62.4077193 63.8271241,62.397193 63.7862469,62.3864912 C63.6851942,62.3601754 63.5837907,62.3338596 63.48151,62.3082456 C63.44151,62.2982456 63.4011592,62.2884211 63.3608083,62.2784211 C63.2560714,62.2526316 63.1509837,62.2268421 63.0448434,62.2017544 C63.0080013,62.1929825 62.9706328,62.1845614 62.9336153,62.1759649 C62.8232644,62.1503509 62.7129135,62.1247368 62.6011592,62.1 C62.5701065,62.0931579 62.5385276,62.0864912 62.5072995,62.0796491 C62.388703,62.0536842 62.2697556,62.0280702 62.1495802,62.0031579 C62.1346679,62 62.1194048,61.997193 62.1043171,61.9940351 C61.5467732,61.8796491 60.9729135,61.7777193 60.3839662,61.6905263 C60.3581767,61.6866667 60.3325627,61.6824561 60.3067732,61.6787719 C60.1927381,61.6621053 60.0776504,61.6468421 59.9625627,61.6314035 C59.9143171,61.6249123 59.8664223,61.6180702 59.8178258,61.6117544 C59.7113346,61.5980702 59.6039662,61.5852632 59.4964223,61.5726316 C59.4381767,61.5657895 59.380282,61.5585965 59.3218609,61.5519298 C59.2194048,61.5403509 59.1162469,61.5298246 59.0129135,61.5191228 C58.9483521,61.5124561 58.8841416,61.505614 58.8192293,61.4994737 C58.7190539,61.4898246 58.6181767,61.4810526 58.5172995,61.4724561 C58.4483521,61.4664912 58.3794048,61.4605263 58.3101065,61.4550877 C58.2111592,61.447193 58.1116855,61.4401754 58.0120363,61.4333333 C57.9399311,61.4284211 57.8676504,61.4233333 57.7951942,61.4189474 C57.6964223,61.412807 57.5974749,61.4073684 57.4981767,61.4021053 C57.4239662,61.3982456 57.3497556,61.3945614 57.2751942,61.3912281 C57.1760714,61.3868421 57.0767732,61.3829825 56.9771241,61.3794737 C56.9011592,61.3768421 56.8250188,61.3745614 56.7488785,61.3726316 C56.6494048,61.37 56.5497556,61.3677193 56.4495802,61.3659649 C56.3725627,61.3647368 56.2951942,61.3638596 56.2178258,61.3631579 C56.1174749,61.3622807 56.0171241,61.3615789 55.9160714,61.3617544 C55.8380013,61.3619298 55.7595802,61.3626316 55.6809837,61.3633333 C55.5795802,61.3642105 55.4783521,61.3652632 55.3764223,61.3673684 C55.2980013,61.3689474 55.2192293,61.3714035 55.1404574,61.3735088 C55.0376504,61.3763158 54.9348434,61.3791228 54.83151,61.3831579 C54.753089,61.3861404 54.6743171,61.3901754 54.5955451,61.3938596 C54.4909837,61.3987719 54.3865978,61.4033333 54.28151,61.4094737 C54.2036153,61.4140351 54.1251942,61.4196491 54.0469486,61.4247368 C53.9401065,61.4317544 53.8336153,61.4384211 53.7262469,61.4466667 C53.6527381,61.4522807 53.578703,61.4592982 53.5048434,61.465614 C53.3916855,61.4752632 53.278703,61.4842105 53.1650188,61.4952632 C53.1199311,61.4996491 53.0743171,61.5050877 53.0290539,61.5096491 C52.7444925,61.5384211 52.4580013,61.5717544 52.1699311,61.6096491 C52.1316855,61.6147368 52.0937907,61.6189474 52.0555451,61.6240351 C51.940282,61.6396491 51.8243171,61.6573684 51.7085276,61.6745614 C51.6329135,61.6857895 51.5574749,61.6961404 51.48151,61.7080702 C51.3711592,61.7252632 51.260282,61.7445614 51.1494048,61.7631579 C51.0674749,61.7770175 50.985896,61.7901754 50.9037907,61.8047368 C50.7948434,61.8240351 50.6855451,61.8450877 50.5760714,61.8657895 C50.4911592,61.8819298 50.4065978,61.8975439 50.32151,61.914386 C50.2129135,61.9359649 50.1037907,61.9591228 49.9946679,61.9821053 C49.908703,62.0001754 49.8227381,62.0180702 49.7364223,62.037193 C49.6272995,62.0612281 49.5176504,62.0866667 49.4080013,62.1122807 C49.3209837,62.1324561 49.2341416,62.1526316 49.1469486,62.1738596 C49.0371241,62.2005263 48.9269486,62.2282456 48.8165978,62.2564912 C48.7294048,62.2787719 48.6422118,62.3010526 48.5548434,62.3242105 C48.4437907,62.3536842 48.3327381,62.3840351 48.2213346,62.4149123 C48.1343171,62.4391228 48.0471241,62.4636842 47.9597556,62.4887719 C47.8472995,62.5210526 47.7346679,62.5542105 47.6218609,62.5882456 C47.5353697,62.6142105 47.4488785,62.6408772 47.3622118,62.6677193 C47.2481767,62.7031579 47.1339662,62.7391228 47.0195802,62.7763158 C46.9339662,62.8040351 46.8483521,62.8326316 46.7625627,62.8612281 C46.6462469,62.9001754 46.5299311,62.9392982 46.4132644,62.98 C46.3297556,63.0091228 46.2460714,63.0391228 46.1625627,63.0691228 C46.0434399,63.1117544 45.9241416,63.1547368 45.8046679,63.1991228 C45.7237907,63.2292982 45.6427381,63.2605263 45.5616855,63.2915789 C45.4388785,63.3385965 45.315896,63.385614 45.1927381,63.4345614 C45.1169486,63.4647368 45.0409837,63.4961404 44.9650188,63.5270175 C44.8362469,63.5792982 44.7074749,63.6315789 44.5783521,63.6861404 C44.51151,63.714386 44.4444925,63.7442105 44.3774749,63.7729825 C44.2388785,63.8326316 44.1004574,63.8922807 43.96151,63.9545614 C43.9157206,63.9750877 43.8697556,63.9968421 43.8239662,64.0177193 C43.4655451,64.1805263 43.1062469,64.3498246 42.7455451,64.5303509 C42.6418609,64.5822807 42.5394048,64.6315789 42.4365978,64.6817544 C42.3588785,64.7196491 42.2806328,64.7585965 42.2032644,64.795614 C42.0888785,64.8503509 41.9755451,64.9029825 41.8620363,64.9557895 C41.7894048,64.9896491 41.7167732,65.0235088 41.6444925,65.0564912 C41.5280013,65.1096491 41.4120363,65.1617544 41.2965978,65.212807 C41.2327381,65.2410526 41.1690539,65.2687719 41.1055451,65.2964912 C40.9832644,65.3496491 40.8611592,65.4024561 40.7401065,65.4531579 C40.70151,65.4692982 40.6634399,65.4847368 40.6250188,65.5005263 C40.1708083,65.6889474 39.7248434,65.8615789 39.2878258,66.0180702 C39.2778258,66.0217544 39.2676504,66.0254386 39.2574749,66.0291228 C39.108703,66.0821053 38.9611592,66.1333333 38.8143171,66.182807 C38.8016855,66.1870175 38.7892293,66.1912281 38.7767732,66.1954386 C32.8885276,68.1726316 28.5967732,67.3240351 25.8192293,66.0352632 C25.8057206,66.0289474 25.7918609,66.0226316 25.7783521,66.0163158 C25.7401065,65.9984211 25.7027381,65.9803509 25.6651942,65.9622807 C24.7390539,65.5163158 23.9736153,65.0185965 23.365896,64.5533333 C23.3634399,64.5514035 23.3608083,64.5501754 23.3583521,64.5482456 C23.1755451,64.407193 23.0101065,64.2714035 22.8627381,64.1440351 C22.8604574,64.1421053 22.8578258,64.1407018 22.8555451,64.1387719 C22.4525627,63.7907018 22.2088785,63.5294737 22.1299311,63.4415789 C22.1222118,63.4326316 22.1160714,63.4254386 22.1113346,63.42 C22.0895802,63.3940351 22.0662469,63.3696491 22.0429135,63.3450877 C22.0337907,63.3354386 22.0257206,63.3250877 22.0162469,63.3154386 C21.9992293,63.2984211 21.983089,63.2807018 21.9662469,63.2635088 C21.9013346,63.1975439 21.8372995,63.1310526 21.7748434,63.0631579 C21.7441416,63.0298246 21.7143171,62.995614 21.6841416,62.9617544 C21.6341416,62.905614 21.5844925,62.8492982 21.5360714,62.7922807 C21.5072995,62.7582456 21.4788785,62.7238596 21.4506328,62.6892982 C21.400282,62.6277193 21.3506328,62.5657895 21.3022118,62.5031579 C21.2794048,62.4736842 21.2565978,62.444386 21.2341416,62.4147368 C21.1723872,62.332807 21.1118609,62.25 21.0532644,62.1661404 C21.0460714,62.1557895 21.0385276,62.1457895 21.0313346,62.1354386 C19.4072995,59.7896491 19.0292293,56.747193 19.9918609,54.04 Z M22.325896,68.9984211 C22.5065978,68.9494737 22.6871241,68.9003509 22.8672995,68.8487719 C22.8795802,68.8452632 22.8909837,68.8403509 22.9029135,68.8366667 C22.9329135,68.827193 22.9629135,68.8177193 22.9918609,68.8063158 C23.0244925,68.7938596 23.055896,68.7794737 23.0872995,68.7649123 C23.0962469,68.7607018 23.1051942,68.7570175 23.1141416,68.7526316 C23.1795802,68.7207018 23.2418609,68.684386 23.3009837,68.6438596 C23.3129135,68.6357895 23.3241416,68.627193 23.3357206,68.6187719 C23.3927381,68.5773684 23.4472995,68.5335088 23.4972995,68.4849123 C23.5023872,68.48 23.5069486,68.4745614 23.5118609,68.4694737 C23.558703,68.422807 23.60151,68.3726316 23.64151,68.3205263 C23.6465978,68.3138596 23.6532644,68.3080702 23.6581767,68.3012281 C27.0778258,70.1559649 32.7620363,71.6642105 40.7057206,68.6868421 C40.7565978,68.6678947 40.8083521,68.6468421 40.8594048,68.6275439 C41.0739662,68.5457895 41.2892293,68.4631579 41.5071241,68.3749123 C41.6323872,68.3242105 41.7595802,68.2692982 41.885896,68.2163158 C42.0429135,68.1507018 42.1992293,68.0864912 42.3576504,68.0173684 C42.4125627,67.9933333 42.4685276,67.967193 42.5236153,67.942807 C43.035896,67.7163158 43.5551942,67.4750877 44.0843171,67.2103509 C44.1999311,67.1526316 44.3153697,67.0970175 44.4308083,67.0414035 C44.4894048,67.0131579 44.5481767,66.9840351 44.6067732,66.9563158 C44.7250188,66.9001754 44.8432644,66.8457895 44.9613346,66.7919298 C45.03151,66.7598246 45.10151,66.7280702 45.1716855,66.6968421 C45.288703,66.6445614 45.4055451,66.592807 45.5222118,66.5424561 C45.5872995,66.514386 45.6522118,66.4875439 45.7171241,66.4601754 C45.9437907,66.3647368 46.1699311,66.272807 46.3957206,66.1849123 C46.4497556,66.1638596 46.5039662,66.1419298 46.5581767,66.1212281 C46.6744925,66.0768421 46.7904574,66.0340351 46.9064223,65.9915789 C46.9767732,65.9657895 47.0471241,65.9401754 47.1172995,65.9150877 C47.23151,65.874386 47.3455451,65.8342105 47.4595802,65.7952632 C47.5280013,65.7719298 47.5962469,65.7494737 47.6646679,65.7266667 C47.8964223,65.6494737 48.1276504,65.5759649 48.3581767,65.5063158 C48.3997556,65.4936842 48.44151,65.4803509 48.4829135,65.4680702 C48.5960714,65.434386 48.7088785,65.4026316 48.8218609,65.3708772 C48.8932644,65.3507018 48.9646679,65.3305263 49.0357206,65.3112281 C49.1457206,65.2812281 49.2555451,65.2517544 49.3651942,65.2233333 C49.4378258,65.2045614 49.5101065,65.1864912 49.5825627,65.1684211 C49.9551942,65.0752632 50.3257206,64.9912281 50.6937907,64.9161404 C50.7701065,64.9005263 50.8465978,64.8849123 50.9227381,64.8701754 C51.0251942,64.8501754 51.1272995,64.8310526 51.2292293,64.8124561 C51.3092293,64.7978947 51.3890539,64.7840351 51.4688785,64.7701754 C51.5660714,64.7533333 51.6634399,64.7363158 51.760282,64.7207018 C51.7665978,64.7196491 51.7729135,64.7187719 51.7792293,64.7177193 C51.8983521,64.6985965 52.0171241,64.6808772 52.1355451,64.6636842 C52.2590539,64.645614 52.3822118,64.6287719 52.5050188,64.6126316 C52.5941416,64.6008772 52.6834399,64.5891228 52.7722118,64.5784211 C52.8620363,64.5675439 52.95151,64.5573684 53.0408083,64.5475439 C53.1334399,64.5373684 53.225896,64.5277193 53.3181767,64.5185965 C53.3964223,64.5108772 53.4748434,64.502807 53.5527381,64.4957895 C53.5688785,64.494386 53.5850188,64.4929825 53.6013346,64.4915789 C53.7471241,64.4785965 53.8925627,64.4664912 54.0372995,64.4559649 C54.1022118,64.4512281 54.1665978,64.4477193 54.2311592,64.4435088 C54.3476504,64.4359649 54.4641416,64.4287719 54.5801065,64.422807 C54.6494048,64.4192982 54.7183521,64.4161404 54.7872995,64.4131579 C54.9013346,64.4082456 55.0148434,64.4040351 55.1281767,64.4005263 C55.1783521,64.3989474 55.2285276,64.397193 55.2785276,64.3959649 C55.3055451,64.3952632 55.3325627,64.3949123 55.3595802,64.3942105 C55.5011592,64.3910526 55.6425627,64.3884211 55.7829135,64.3875439 C55.8334399,64.387193 55.8836153,64.3877193 55.9341416,64.3875439 C56.0692293,64.3873684 56.2039662,64.3878947 56.3378258,64.3896491 C56.3523872,64.3898246 56.3667732,64.3901754 56.3813346,64.3903509 C56.42151,64.3910526 56.4613346,64.3921053 56.50151,64.392807 C56.6306328,64.3954386 56.7595802,64.3984211 56.8876504,64.402807 C56.8978258,64.4031579 56.9078258,64.4035088 56.9180013,64.4038596 C56.9653697,64.405614 57.0123872,64.4077193 57.0595802,64.4096491 C57.1909837,64.4149123 57.3220363,64.4207018 57.4522118,64.4278947 C57.5053697,64.4308772 57.5581767,64.434386 57.6113346,64.4375439 C57.7395802,64.4452632 57.8674749,64.4535088 57.9943171,64.4629825 C58.0480013,64.4670175 58.1013346,64.4715789 58.1548434,64.4757895 C58.2801065,64.4857895 58.4050188,64.4963158 58.5290539,64.5078947 C58.583089,64.5129825 58.6365978,64.5185965 58.690282,64.5238596 C58.8127381,64.5359649 58.9348434,64.5485965 59.0560714,64.5622807 C59.1104574,64.5684211 59.1643171,64.5750877 59.2183521,64.5814035 C59.3372995,64.5954386 59.4560714,64.61 59.5737907,64.6254386 C59.6292293,64.6326316 59.6841416,64.6403509 59.7392293,64.6478947 C59.8548434,64.6636842 59.970282,64.68 60.0846679,64.6970175 C60.1397556,64.7052632 60.1943171,64.7138596 60.2490539,64.7222807 C60.3622118,64.7398246 60.4748434,64.7577193 60.5865978,64.7763158 C60.6418609,64.785614 60.6967732,64.7950877 60.7516855,64.8047368 C60.86151,64.8236842 60.9708083,64.8429825 61.0794048,64.8629825 C61.1350188,64.8731579 61.1901065,64.8838596 61.2451942,64.894386 C61.3516855,64.9147368 61.4578258,64.9352632 61.563089,64.9564912 C61.6188785,64.9677193 61.6741416,64.9792982 61.7295802,64.9907018 C61.8329135,65.0121053 61.9357206,65.0338596 62.0376504,65.0561404 C62.0934399,65.0684211 62.1488785,65.0808772 62.2043171,65.0933333 C62.3043171,65.1157895 62.4037907,65.1384211 62.5023872,65.1617544 C62.558703,65.1750877 62.6144925,65.1884211 62.6704574,65.2019298 C62.7665978,65.2250877 62.8622118,65.2485965 62.9571241,65.2724561 C63.0136153,65.2866667 63.0695802,65.3010526 63.1255451,65.3154386 C63.218703,65.3394737 63.3113346,65.3636842 63.403089,65.3882456 C63.4590539,65.4031579 63.5146679,65.4184211 63.5701065,65.4335088 C63.6597556,65.4580702 63.7488785,65.482807 63.8371241,65.5077193 C63.8936153,65.5236842 63.9497556,65.5398246 64.0057206,65.5561404 C64.0911592,65.5808772 64.1762469,65.6057895 64.2604574,65.6308772 C64.3174749,65.6478947 64.3739662,65.6650877 64.430282,65.6822807 C64.5122118,65.707193 64.5936153,65.7324561 64.6741416,65.7577193 C64.7308083,65.7754386 64.7871241,65.7933333 64.8432644,65.8114035 C64.92151,65.8364912 64.9992293,65.8615789 65.0762469,65.8870175 C65.133089,65.9057895 65.1895802,65.924386 65.2457206,65.9433333 C65.3201065,65.9682456 65.3937907,65.9933333 65.4669486,66.0184211 C65.5241416,66.0380702 65.5808083,66.0577193 65.6372995,66.0775439 C65.7071241,66.1019298 65.7764223,66.1264912 65.8451942,66.1510526 C65.903089,66.1717544 65.9606328,66.1924561 66.0176504,66.2133333 C66.083089,66.237193 66.1480013,66.2612281 66.2123872,66.2850877 C66.2706328,66.3066667 66.3283521,66.3284211 66.3857206,66.3501754 C66.4464223,66.3731579 66.5065978,66.3961404 66.5662469,66.4192982 C66.6253697,66.4421053 66.6841416,66.4649123 66.7422118,66.4877193 C66.7981767,66.5096491 66.8534399,66.5315789 66.9085276,66.5536842 C66.9681767,66.5775439 67.0274749,66.6014035 67.085896,66.6250877 C67.1371241,66.6459649 67.1876504,66.6666667 67.2380013,66.6873684 C67.2985276,66.7124561 67.358703,66.7373684 67.4180013,66.7622807 C67.4636153,66.7814035 67.508703,66.8007018 67.5536153,66.8198246 C67.6151942,66.8461404 67.6764223,66.8722807 67.7365978,66.8984211 C67.7772995,66.9161404 67.8172995,66.9336842 67.8572995,66.9512281 C67.9192293,66.9784211 67.9808083,67.005614 68.0411592,67.0326316 C68.0771241,67.0487719 68.1125627,67.0647368 68.1478258,67.0807018 C68.2106328,67.1091228 68.2729135,67.1373684 68.3339662,67.1654386 C68.3639662,67.1792982 68.3936153,67.1929825 68.423089,67.2066667 C68.4871241,67.2364912 68.5506328,67.2661404 68.6125627,67.2952632 C68.6271241,67.3021053 68.6411592,67.3089474 68.6555451,67.3157895 C63.4051942,75.6966667 54.4413346,80.842807 44.9132644,80.842807 C35.9906328,80.842807 27.6774749,76.4563158 22.2953697,69.0070175 C22.3051942,69.0042105 22.3155451,69.0012281 22.325896,68.9984211 Z M8.54343986,62.4398246 C9.04800126,61.9352632 9.12729951,61.1433333 8.73063284,60.5505263 L4.83975565,54.7119298 C8.64835214,55.4050877 12.7294048,55.5847368 16.6113346,55.2178947 C16.1129135,58.3910526 16.9129135,61.65 18.8365978,64.2059649 C18.85151,64.2257895 18.8662469,64.245614 18.8813346,64.2654386 C18.9751942,64.3884211 19.0709837,64.5101754 19.1701065,64.6296491 C19.1834399,64.6457895 19.1974749,64.6615789 19.2109837,64.6775439 C19.2944925,64.7773684 19.3801065,64.8757895 19.4672995,64.9729825 C19.4969486,65.0061404 19.5267732,65.0392982 19.5569486,65.0721053 C19.6564223,65.1805263 19.7572995,65.2878947 19.8613346,65.3929825 C19.86151,65.3931579 19.8616855,65.3933333 19.8618609,65.3936842 C19.9890539,65.5389474 20.2225627,65.7889474 20.5534399,66.0957895 L20.6201065,66.3431579 C20.5432644,66.3615789 20.4664223,66.3805263 20.3894048,66.3985965 C20.2641416,66.4280702 20.1385276,66.4561404 20.013089,66.484386 C19.8565978,66.5192982 19.700282,66.5547368 19.5436153,66.5880702 C19.5413346,66.5885965 19.5394048,66.5894737 19.5371241,66.5898246 C19.4378258,66.6107018 19.3381767,66.6294737 19.238703,66.6494737 C19.0557206,66.6864912 18.8727381,66.724386 18.6892293,66.7584211 C18.4753697,66.7980702 18.2606328,66.8335088 18.0460714,66.8692982 C17.9399311,66.8870175 17.8339662,66.9063158 17.7278258,66.9231579 C17.4923872,66.9603509 17.2562469,66.9933333 17.0201065,67.0259649 C16.9327381,67.0380702 16.8457206,67.0514035 16.7583521,67.062807 C16.5183521,67.0940351 16.2780013,67.1214035 16.0374749,67.1478947 C15.9516855,67.1573684 15.8660714,67.1678947 15.780282,67.1766667 C15.5450188,67.2008772 15.3095802,67.2214035 15.0737907,67.2410526 C14.9795802,67.2489474 14.8855451,67.2575439 14.7911592,67.2647368 C14.5669486,67.2817544 14.3423872,67.2952632 14.1176504,67.3080702 C14.0090539,67.3142105 13.9004574,67.3208772 13.7916855,67.3261404 C13.5820363,67.3361404 13.3722118,67.3433333 13.1623872,67.3498246 C10.24151,67.4384211 7.30958021,67.177193 4.42519424,66.5584211 L8.54343986,62.4398246 Z M44.9123872,86.8307018 C32.7506328,86.8307018 21.6622118,80.5226316 15.4418609,70.2175439 C16.6811592,70.1103509 17.9167732,69.9431579 19.1446679,69.7182456 C25.048703,78.5784211 34.6069486,83.837193 44.9127381,83.837193 C55.5329135,83.837193 65.5029135,78.0929825 71.2827381,68.7501754 C71.2913346,68.7536842 71.3001065,68.7561404 71.308703,68.7594737 C71.4346679,68.8098246 71.5676504,68.8431579 71.7055451,68.8575439 C71.7094048,68.8578947 71.7134399,68.8580702 71.7174749,68.8584211 C71.7816855,68.8645614 71.8465978,68.8661404 71.9123872,68.8638596 C71.9229135,68.8635088 71.9332644,68.8633333 71.9437907,68.862807 C72.0132644,68.8587719 72.083089,68.8517544 72.1536153,68.8375439 C72.1536153,68.8375439 72.1536153,68.8375439 72.1536153,68.8375439 C72.1539662,68.8375439 72.1543171,68.8375439 72.1546679,68.8373684 C72.298703,68.8085965 72.4401065,68.7822807 72.5797556,68.7578947 C73.2665978,68.6382456 73.9204574,68.5673684 74.5437907,68.5438596 C74.5567732,68.5433333 74.570282,68.5424561 74.583089,68.5421053 C74.6643171,68.5392982 74.7441416,68.5385965 74.8241416,68.5375439 C74.8736153,68.5368421 74.9241416,68.5352632 74.9729135,68.5352632 C74.9971241,68.5352632 75.0206328,68.5361404 75.0448434,68.5361404 C75.1385276,68.5366667 75.2318609,68.5378947 75.3236153,68.5407018 C69.3799311,79.7154386 57.6581767,86.8307018 44.9123872,86.8307018 Z M80.7341416,60.9864912 C80.1713346,61.4250877 79.9990539,62.2007018 80.3194048,62.8384211 L82.9827381,68.1305263 C81.5704574,67.257193 80.0274749,66.3896491 78.0922118,65.914386 C78.0395802,65.8957895 77.9855451,65.88 77.9304574,65.867193 C76.9769486,65.6463158 75.9841416,65.5407018 74.9413346,65.5436842 L74.8701065,65.5436842 C74.8780013,65.5305263 74.8851942,65.5170175 74.8929135,65.5038596 C74.9099311,65.4752632 74.9257206,65.4463158 74.9423872,65.4175439 C74.9974749,65.3226316 75.0511592,65.2270175 75.1029135,65.1305263 C75.1332644,65.0740351 75.1629135,65.017193 75.1922118,64.9603509 C75.2250188,64.8963158 75.2569486,64.8319298 75.2883521,64.767193 C75.3251942,64.6919298 75.3618609,64.6164912 75.3967732,64.5403509 C75.40151,64.5301754 75.4057206,64.5198246 75.410282,64.5096491 C76.9297556,61.1678947 76.630282,57.1003509 74.6604574,53.6959649 C74.7294048,53.6917544 74.7980013,53.685614 74.8671241,53.6821053 C74.9165978,53.6796491 74.9653697,53.6747368 75.0134399,53.6677193 C76.9399311,53.5864912 78.6665978,53.8412281 80.3148434,54.4396491 C80.340282,54.4489474 80.3664223,54.4547368 80.3922118,54.4624561 C81.8834399,55.0135088 83.1420363,55.775614 84.3806328,56.5268421 C84.7623872,56.7589474 85.1501065,56.9938596 85.5453697,57.2229825 L80.7341416,60.9864912 Z" id="Shape" fill="#555C6A" fill-rule="nonzero"></path>
                    <path d="M48.8449656,36.701093 C48.9380268,36.701093 49.027986,36.701093 49.1179451,36.6979896 C50.2083704,31.3739509 54.3666851,27.213139 59.6881492,26.1214379 C59.6925931,25.9404307 59.6925931,25.7593416 59.6881492,25.5783344 C54.3671256,24.4868621 50.2089225,20.3267723 49.1179451,15.0033344 C48.93702,14.9988885 48.7560131,14.9988885 48.575088,15.0033344 C47.483882,20.327213 43.3249571,24.4874144 38.0033329,25.5783344 C37.998889,25.7593416 37.998889,25.9404307 38.0033329,26.1214379 C43.3253976,27.2125866 47.4844341,31.3735102 48.575088,36.6979896 L48.8465166,36.701093 L48.8449656,36.701093 Z M64.0852921,64.5545413 C64.151986,64.5545413 64.2171288,64.5545413 64.2822717,64.5514379 C65.0717798,60.698862 68.0810757,57.6882008 71.9319043,56.8983344 C71.9351388,56.766975 71.9351388,56.6355559 71.9319043,56.5041965 C68.0810757,55.7143301 65.0717798,52.7036689 64.2822717,48.851093 C64.1509719,48.8478571 64.0196123,48.8478571 63.8883125,48.851093 C63.0988044,52.7036689 60.0895085,55.7143301 56.2386798,56.5041965 C56.235446,56.6355559 56.235446,56.766975 56.2386798,56.8983344 C60.0895085,57.6882008 63.0988044,60.698862 63.8883125,64.5514379 L64.0852921,64.5545413 Z" id="Shape" stroke="#555C6A" stroke-width="3.10344828" fill="#FFFFFF" fill-rule="nonzero" stroke-linecap="round" stroke-linejoin="round"></path>
                </g>
            </g>
        </g>
    </g>
</svg>