<?xml version="1.0" encoding="UTF-8"?>
<svg width="110px" height="92px" viewBox="0 0 110 92" version="1.1" xmlns="http://www.w3.org/2000/svg" xmlns:xlink="http://www.w3.org/1999/xlink">
    <!-- Generator: Sketch 49.3 (51167) - http://www.bohemiancoding.com/sketch -->
    <title>fourth_icon 2</title>
    <desc>Created with Sketch.</desc>
    <defs></defs>
    <g id="Page-1" stroke="none" stroke-width="1" fill="none" fill-rule="evenodd">
        <g id="ozEssay_Desktop_price-page" transform="translate(-758.000000, -1378.000000)">
            <g id="Factors-that-affect-pricing" transform="translate(401.000000, 1281.000000)">
                <g id="fourth_icon-2" transform="translate(357.000000, 99.000000)">
                    <path d="M44.8431837,6.20689655 C43.6102679,6.20647712 42.4279329,6.69724401 41.5574404,7.57075201 C40.6869479,8.44426001 40.1999581,9.6286006 40.2040816,10.862069 L40.2040816,85.3448276 C40.2040816,87.9160345 42.2933061,90 44.864898,90 L105.339184,90 C107.908395,90.0042891 109.994865,87.9245137 110,85.3541379 L110,33.1758621 C110,30.6093103 108.535837,27.0651724 106.707184,25.2356897 L90.9798367,9.5012069 C89.1651429,7.68103448 85.6179592,6.20689655 83.0510204,6.20689655 L44.8431837,6.20689655 Z" id="Shape" fill="#B0D5FF" fill-rule="nonzero" opacity="0.5"></path>
                    <polygon id="Shape" stroke="#555C6A" stroke-width="3.10344828" stroke-linecap="round" stroke-linejoin="round" fill-rule="nonzero" points="81.4844898 0 34 0 34 83.7931034 103.795918 83.7931034 103.795918 22.3215517"></polygon>
                    <polygon id="Shape" stroke="#555C6A" stroke-width="3.10344828" fill="#FFFFFF" fill-rule="nonzero" stroke-linecap="round" stroke-linejoin="round" points="82.0816327 0 103.795918 21.7241379 82.0816327 21.7241379"></polygon>
                    <g id="zero-to-one-binary-interface-symbol-with-two-numbers-in-rounded-squares" transform="translate(0.000000, 55.000000)">
                        <path d="M51.0903206,3.63118065 L35.9324908,3.63118065 C35.1496095,3.63118065 34.4057748,3.79174964 33.7185573,4.0683926 C32.6525894,1.68113798 30.2414714,0 27.4496506,0 L6.86241266,0 C3.08857378,0 0,3.06048364 0,6.8 L0,27.2 C0,30.9395164 3.08857378,34 6.86241266,34 L27.4496506,34 C30.2414714,34 32.6525894,32.3207966 33.7185573,29.9316074 C34.4038224,30.2082504 35.1476572,30.3668848 35.9324908,30.3668848 L51.0903206,30.3668848 C54.3487464,30.3668848 57,27.7416785 57,24.5109531 L57,9.49098151 C57,6.25832148 54.3487464,3.63118065 51.0903206,3.63118065 Z M17.0906289,28.0125178 C11.5304151,28.0125178 9.08220304,23.061963 9.04901356,17.0319203 C9.04901356,10.8645235 11.6963625,5.97780939 17.2546239,5.97780939 C23.0100699,5.97780939 25.2630497,11.0618492 25.2630497,16.9003698 C25.2630497,23.4895021 22.5825113,28.0125178 17.0906289,28.0125178 Z" id="Shape" fill="#555C6A" fill-rule="nonzero"></path>
                        <path d="M54,23.4364481 C54,25.4014592 52.3846584,27 50.4006703,27 L37.3908025,27 C36.8579408,27 36,27 36,27 C36,27 36,26.0581212 36,25.7397397 L36,8.25860211 C36,8.09211933 36,7 36,7 C36,7 37.1387187,7 37.3908025,7 L50.4006703,7 C52.386334,7 54,8.60019899 54,10.5635519 L54,23.4364481 Z" id="Path" fill="#FFFFFF"></path>
                        <polygon id="Shape" fill="#555C6A" fill-rule="nonzero" points="40 10.9704142 40.5874126 13.7771203 43.5 12.3293886 43.5470683 12.3293886 43.5470683 25 47 25 47 9 44.042227 9"></polygon>
                        <path d="M17.0165961,9 C15.2024433,9 13.9681304,11.4085691 14.0006627,16.5360384 C13.9681304,21.5894287 15.135465,24 17.0491284,24 C18.9627917,24 19.9999973,21.4873198 19.9999973,16.4659637 C20.0019109,11.5787507 18.9972377,9 17.0165961,9 Z" id="Shape" fill="#555C6A" fill-rule="nonzero"></path>
                    </g>
                    <path d="M61.9085714,35.7075862 C62.0016327,35.7075862 62.0915918,35.7075862 62.181551,35.7044828 C63.2719762,30.3804441 67.430291,26.2196322 72.7517551,25.127931 C72.756199,24.9469238 72.756199,24.7658348 72.7517551,24.5848276 C67.4307315,23.4933553 63.2725283,19.3332655 62.181551,14.0098276 C62.0006259,14.0053817 61.819619,14.0053817 61.6386939,14.0098276 C60.5474879,19.3337062 56.3885629,23.4939076 51.0669388,24.5848276 C51.0624949,24.7658348 51.0624949,24.9469238 51.0669388,25.127931 C56.3890034,26.2190798 60.54804,30.3800034 61.6386939,35.7044828 L61.9101224,35.7075862 L61.9085714,35.7075862 Z M77.148898,63.5610345 C77.2155918,63.5610345 77.2807347,63.5610345 77.3458776,63.557931 C78.1353857,59.7053552 81.1446815,56.6946939 84.9955102,55.9048276 C84.9987447,55.7734682 84.9987447,55.642049 84.9955102,55.5106897 C81.1446815,54.7208233 78.1353857,51.7101621 77.3458776,47.8575862 C77.2145777,47.8543503 77.0832182,47.8543503 76.9519184,47.8575862 C76.1624102,51.7101621 73.1531144,54.7208233 69.3022857,55.5106897 C69.2990519,55.642049 69.2990519,55.7734682 69.3022857,55.9048276 C73.1531144,56.6946939 76.1624102,59.7053552 76.9519184,63.557931 L77.148898,63.5610345 Z" id="Shape" stroke="#555C6A" stroke-width="3.10344828" fill="#FFFFFF" fill-rule="nonzero" stroke-linecap="round" stroke-linejoin="round"></path>
                </g>
            </g>
        </g>
    </g>
</svg>