<?xml version="1.0" encoding="UTF-8"?>
<svg width="81px" height="92px" viewBox="0 0 81 92" version="1.1" xmlns="http://www.w3.org/2000/svg" xmlns:xlink="http://www.w3.org/1999/xlink">
    <!-- Generator: Sketch 49.3 (51167) - http://www.bohemiancoding.com/sketch -->
    <title>urgency</title>
    <desc>Created with Sketch.</desc>
    <defs></defs>
    <g id="Page-1" stroke="none" stroke-width="1" fill="none" fill-rule="evenodd">
        <g id="ozEssay_Desktop_price-page" transform="translate(-1358.000000, -1375.000000)" fill-rule="nonzero">
            <g id="Factors-that-affect-pricing" transform="translate(401.000000, 1281.000000)">
                <g id="urgency" transform="translate(957.000000, 94.000000)">
                    <path d="M79.5,87 L75,87 L75,81 L67.5,81 L67.5,65.667 C67.5,61.617 65.487,57.855 62.1165,55.608 L46.2045,45 L62.1165,34.392 C65.487,32.145 67.5,28.383 67.5,24.333 L67.5,9 L75,9 L75,3 L79.5,3 C80.328,3 81,2.3295 81,1.5 C81,0.6705 80.328,0 79.5,0 L75,0 L73.5,0 L13.5,0 L12,0 L7.5,0 C6.672,0 6,0.6705 6,1.5 C6,2.3295 6.672,3 7.5,3 L12,3 L12,9 L19.5,9 L19.5,24.333 C19.5,28.383 21.513,32.145 24.8835,34.392 L40.7955,45 L24.8835,55.608 C21.513,57.855 19.5,61.617 19.5,65.667 L19.5,81 L12,81 L12,87 L7.5,87 C6.672,87 6,87.6705 6,88.5 C6,89.3295 6.672,90 7.5,90 L12,90 L13.5,90 L73.5,90 L75,90 L79.5,90 C80.328,90 81,89.3295 81,88.5 C81,87.6705 80.328,87 79.5,87 Z" id="Shape" fill="#B0D5FF" opacity="0.5"></path>
                    <g id="hourglass-(2)" transform="translate(0.000000, 2.000000)" fill="#555C6A">
                        <path d="M73.5,87 L69,87 L69,81 L61.5,81 L61.5,65.667 C61.5,61.617 59.487,57.855 56.1165,55.608 L40.2045,45 L56.1165,34.392 C59.487,32.145 61.5,28.383 61.5,24.333 L61.5,9 L69,9 L69,3 L73.5,3 C74.328,3 75,2.3295 75,1.5 C75,0.6705 74.328,0 73.5,0 L69,0 L67.5,0 L7.5,0 L6,0 L1.5,0 C0.672,0 0,0.6705 0,1.5 C0,2.3295 0.672,3 1.5,3 L6,3 L6,9 L13.5,9 L13.5,24.333 C13.5,28.383 15.513,32.145 18.8835,34.392 L34.7955,45 L18.8835,55.608 C15.513,57.855 13.5,61.617 13.5,65.667 L13.5,81 L6,81 L6,87 L1.5,87 C0.672,87 0,87.6705 0,88.5 C0,89.3295 0.672,90 1.5,90 L6,90 L7.5,90 L67.5,90 L69,90 L73.5,90 C74.328,90 75,89.3295 75,88.5 C75,87.6705 74.328,87 73.5,87 Z M9,6 L9,3 L66,3 L66,6 L61.5,6 L13.5,6 L9,6 Z M20.547,31.896 C18.0135,30.2055 16.5,27.378 16.5,24.333 L16.5,9 L58.5,9 L58.5,24.333 C58.5,27.378 56.9865,30.2055 54.453,31.896 L37.5,43.197 L20.547,31.896 Z M16.5,65.667 C16.5,62.622 18.0135,59.7945 20.547,58.104 L37.5,46.803 L54.453,58.104 C56.9865,59.7945 58.5,62.622 58.5,65.667 L58.5,81 L16.5,81 L16.5,65.667 Z M9,84 L13.5,84 L61.5,84 L66,84 L66,87 L9,87 L9,84 Z" id="Shape"></path>
                        <path d="M23.8755,26.904 C23.0145,26.3295 22.5,25.368 22.5,24.333 L22.5,21 C22.5,20.1705 21.828,19.5 21,19.5 C20.172,19.5 19.5,20.1705 19.5,21 L19.5,24.333 C19.5,26.3745 20.514,28.269 22.212,29.4 L29.169,34.038 C29.424,34.2075 29.7135,34.29 30,34.29 C30.4845,34.29 30.96,34.056 31.2495,33.6225 C31.7085,32.9325 31.5225,32.0025 30.834,31.542 L23.8755,26.904 Z" id="Shape"></path>
                        <path d="M52.788,61.89 L45.831,57.252 C45.141,56.7915 44.211,56.9775 43.7505,57.6675 C43.2915,58.3575 43.4775,59.2875 44.166,59.748 L51.123,64.386 C51.9855,64.9605 52.5,65.9205 52.5,66.957 L52.5,70.29 C52.5,71.1195 53.172,71.79 54,71.79 C54.828,71.79 55.5,71.1195 55.5,70.29 L55.5,66.957 C55.5,64.914 54.486,63.021 52.788,61.89 Z" id="Shape"></path>
                    </g>
                    <path d="M55.9992135,32 C56.0935983,32 56.184837,32 56.2760756,31.9968538 C57.38201,26.5994828 61.5994684,22.3813606 66.9966197,21.2746226 C67.0011268,21.0911222 67.0011268,20.9075388 66.9966197,20.7240385 C61.5999152,19.6175324 57.3825699,15.4001423 56.2760756,10.0033803 C56.0925772,9.99887322 55.9089958,9.99887322 55.7254974,10.0033803 C54.6187712,15.4005891 50.4006939,19.6180924 45.0033803,20.7240385 C44.9988732,20.9075388 44.9988732,21.0911222 45.0033803,21.2746226 C50.4011407,22.3808006 54.6193312,26.599036 55.7254974,31.9968538 L56.0007865,32 L55.9992135,32 Z M70.9999998,60 C71.0679764,60 71.1343721,60 71.2007679,59.9968384 C72.0054608,56.0721152 75.0726351,53.0050731 78.9975275,52.2004149 C79.0008242,52.0665955 79.0008242,51.9327153 78.9975275,51.7988959 C75.0726351,50.9942377 72.0054608,47.9271957 71.2007679,44.0024724 C71.0669428,43.9991759 70.9330567,43.9991759 70.7992316,44.0024724 C69.9945387,47.9271957 66.9273645,50.9942377 63.002472,51.7988959 C62.999176,51.9327153 62.999176,52.0665955 63.002472,52.2004149 C66.9273645,53.0050731 69.9945387,56.0721152 70.7992316,59.9968384 L70.9999998,60 Z" id="Shape" stroke="#555C6A" stroke-width="3.10344828" fill="#FFFFFF" stroke-linecap="round" stroke-linejoin="round"></path>
                </g>
            </g>
        </g>
    </g>
</svg>