<?xml version="1.0" encoding="UTF-8"?>
<svg width="96px" height="99px" viewBox="0 0 96 99" version="1.1" xmlns="http://www.w3.org/2000/svg" xmlns:xlink="http://www.w3.org/1999/xlink">
    <!-- Generator: Sketch 49.3 (51167) - http://www.bohemiancoding.com/sketch -->
    <title>puzzle</title>
    <desc>Created with Sketch.</desc>
    <defs></defs>
    <g id="Page-1" stroke="none" stroke-width="1" fill="none" fill-rule="evenodd">
        <g id="ozEssay_Desktop_price-page" transform="translate(-475.000000, -1371.000000)" fill-rule="nonzero">
            <g id="Factors-that-affect-pricing" transform="translate(401.000000, 1281.000000)">
                <g id="puzzle" transform="translate(74.000000, 92.000000)">
                    <path d="M90.1272187,16 L25.8727812,16 C22.6346172,16 20,18.6346172 20,21.8727812 L20,86.1270703 C20,89.3653828 22.6346172,92 25.8727812,92 L90.1270703,92 C93.3653828,92 96,89.3653828 96,86.1272187 L96,21.8727812 C96,18.6346172 93.3653828,16 90.1272187,16 Z" id="Shape" fill="#B0D5FF" opacity="0.5"></path>
                    <g id="Group-15" transform="translate(53.000000, 0.000000)" fill="#FFFFFF" stroke="#555C6A" stroke-linecap="round" stroke-linejoin="round" stroke-width="2.43243243">
                        <path d="M8.52701078,17.0089648 C8.60018152,17.0089648 8.67091322,17.0089648 8.74164493,17.0065324 C9.59900751,12.8336372 12.8685425,9.57246029 17.0526205,8.71680265 C17.0561146,8.57493215 17.0561146,8.43299747 17.0526205,8.29112697 C12.8688889,7.43564867 9.5994416,4.17503774 8.74164493,0.00261345851 C8.59938996,-0.000871152835 8.45707063,-0.000871152835 8.31481566,0.00261345851 C7.45683917,4.17538314 4.18682439,7.43608159 0.00262054105,8.29112697 C-0.000873513683,8.43299747 -0.000873513683,8.57493215 0.00262054105,8.71680265 C4.18717073,9.57202735 7.45727328,12.8332918 8.31481566,17.0065324 L8.5282303,17.0089648 L8.52701078,17.0089648 Z M20.5099376,38.8400459 C20.5623766,38.8400459 20.6135962,38.8400459 20.6648157,38.8376135 C21.2855778,35.818027 23.6516802,33.4583195 26.6794498,32.8392351 C26.681993,32.7362777 26.681993,32.6332735 26.6794498,32.5303162 C23.6516802,31.9112317 21.2855778,29.5515243 20.6648157,26.5319378 C20.5615793,26.5294015 20.4582959,26.5294015 20.3550596,26.5319378 C19.7342974,29.5515243 17.3681951,31.9112317 14.3404254,32.5303162 C14.3378828,32.6332735 14.3378828,32.7362777 14.3404254,32.8392351 C17.3681951,33.4583195 19.7342974,35.818027 20.3550596,38.8376135 L20.5099376,38.8400459 Z" id="Shape"></path>
                    </g>
                    <path d="M88.5,22 L52.5,22 C51.671625,22 51,22.671625 51,23.5 L51,37 C51.0005625,37.828375 51.67275,38.4994375 52.501125,38.498875 C52.6618125,38.4986875 52.8215625,38.4728125 52.974,38.422 L54.8595,37.7935 C56.906625,37.123375 59.1091875,38.23975 59.779125,40.286875 C60.4490625,42.334 59.332875,44.5365625 57.28575,45.2065 C56.4975,45.4645 55.6475625,45.4645 54.8593125,45.2065 L52.9738125,44.578 C52.1878125,44.31625 51.3384375,44.741125 51.0766875,45.527125 C51.025875,45.6795625 51,45.8393125 50.9998125,46 L50.9998125,58 L38.9998125,58 C38.1714375,58.0005625 37.500375,58.67275 37.5009375,59.501125 C37.501125,59.6618125 37.527,59.8215625 37.5778125,59.974 L38.2063125,61.8595 C38.8764375,63.906625 37.7600625,66.1091875 35.7129375,66.779125 C33.6658125,67.44925 31.46325,66.332875 30.7933125,64.28575 C30.5353125,63.4975 30.5353125,62.6475625 30.7933125,61.8593125 L31.4218125,59.9738125 C31.6835625,59.1878125 31.2586875,58.3384375 30.4726875,58.0766875 C30.32025,58.025875 30.1605,58 29.9998125,57.9998125 L16.5,57.9998125 C15.671625,57.9998125 15,58.6714375 15,59.4998125 L15,95.4998125 C15,96.3281875 15.671625,96.9998125 16.5,96.9998125 L88.5,96.9998125 C89.328375,96.9998125 90,96.3281875 90,95.4998125 L90,23.5 C90,22.671625 89.328375,22 88.5,22 Z M51.076875,81.527125 C51.0260625,81.6795625 51.0001875,81.8393125 51,82 L51,94 L18,94 L18,60.9998125 L27.9195,61 C26.7733125,64.6343125 28.7904375,68.50975 32.42475,69.65575 C36.0590625,70.8019375 39.9345,68.7848125 41.0805,65.1505 C41.5065,63.79975 41.5065,62.3505625 41.0805,60.9998125 L51,60.9998125 L51,72.9998125 C51.0005625,73.8281875 51.67275,74.49925 52.501125,74.4986875 C52.6618125,74.4985 52.8215625,74.472625 52.974,74.4218125 L54.8595,73.7933125 C56.906625,73.123375 59.1091875,74.2395625 59.779125,76.2866875 C60.4490625,78.3338125 59.332875,80.536375 57.28575,81.2063125 C56.4975,81.4643125 55.6475625,81.4643125 54.8593125,81.2063125 L52.9738125,80.5778125 C52.188,80.31625 51.338625,80.741125 51.076875,81.527125 Z M87,94 L53.9998125,94 L54,84.0805 C57.6343125,85.2266875 61.50975,83.2095625 62.65575,79.57525 C63.8019375,75.9409375 61.7848125,72.0655 58.1505,70.9195 C56.79975,70.4935 55.3505625,70.4935 53.9998125,70.9195 L53.9998125,61 L65.9998125,61 C66.8281875,60.9994375 67.49925,60.32725 67.4986875,59.498875 C67.4985,59.3381875 67.472625,59.1784375 67.4218125,59.026 L66.7933125,57.1405 C66.123375,55.093375 67.2395625,52.8908125 69.2866875,52.220875 C71.3338125,51.5509375 73.536375,52.667125 74.2063125,54.71425 C74.4643125,55.5025 74.4643125,56.3524375 74.2063125,57.1406875 L73.5778125,59.0261875 C73.3160625,59.8121875 73.7409375,60.6615625 74.5269375,60.9233125 C74.679375,60.974125 74.839125,61 74.9998125,61.0001875 L86.9998125,61.0001875 L87,94 Z M87,58.0001875 L77.0805,58 C78.2266875,54.3656875 76.2095625,50.49025 72.57525,49.34425 C68.9409375,48.1980625 65.0655,50.2151875 63.9195,53.8495 C63.4935,55.20025 63.4935,56.6494375 63.9195,58.0001875 L54,58.0001875 L54,48.0806875 C56.0833125,48.755875 58.3640625,48.3915625 60.1335,47.1011875 C63.235875,44.8883125 63.957,40.579375 61.744125,37.477 C59.996625,35.027125 56.8629375,33.9923125 54,34.9196875 L54,25 L87,25 L87,58.0001875 Z" id="Shape" fill="#555C6A"></path>
                    <path d="M43.1506875,19.9195 C41.7999375,19.4935 40.35075,19.4935 39,19.9195 L39,8.5 C39,7.671625 38.328375,7 37.5,7 L1.5,7 C0.671625,7 0,7.671625 0,8.5 L0,44.5 C0,45.328375 0.671625,46 1.5,46 L12.9195,46 C11.7733125,49.6343125 13.7904375,53.50975 17.42475,54.65575 C21.0590625,55.80175 24.9345,53.7848125 26.0805,50.1505 C26.5065,48.79975 26.5065,47.3505625 26.0805,45.9998125 L37.5,45.9998125 C38.328375,45.9998125 39,45.3281875 39,44.4998125 L39,33.0803125 C42.6343125,34.2265 46.50975,32.209375 47.65575,28.5750625 C48.8019375,24.9409375 46.785,21.0656875 43.1506875,19.9195 Z M42.2859375,30.2065 C41.4976875,30.4645 40.64775,30.4645 39.8595,30.2065 L37.974,29.578 C37.188,29.31625 36.338625,29.741125 36.076875,30.527125 C36.0260625,30.6795625 36.0001875,30.8393125 36,31 L36,43 L24,43 C23.171625,43.0005625 22.5005625,43.67275 22.501125,44.501125 C22.5013125,44.6618125 22.5271875,44.8215625 22.578,44.974 L23.2065,46.8595 C23.876625,48.906625 22.76025,51.1091875 20.713125,51.779125 C18.666,52.4490625 16.4634375,51.332875 15.7935,49.28575 C15.5355,48.4975 15.5355,47.6475625 15.7935,46.8593125 L16.422,44.9738125 C16.68375,44.1878125 16.258875,43.3384375 15.472875,43.0766875 C15.3204375,43.025875 15.1606875,43 15,42.9998125 L3,42.9998125 L3,10 L36,10 L36,22 C36.0005625,22.828375 36.67275,23.4994375 37.501125,23.498875 C37.6618125,23.4986875 37.8215625,23.4728125 37.974,23.422 L39.8595,22.7935 C41.906625,22.1235625 44.1091875,23.23975 44.779125,25.286875 C45.44925,27.3338125 44.332875,29.5365625 42.2859375,30.2065 Z" id="Shape" fill="#555C6A"></path>
                </g>
            </g>
        </g>
    </g>
</svg>