<svg xmlns="http://www.w3.org/2000/svg" width="278.78" height="93.795" version="1"><text x="138.905" y="-31.192" fill="#fff" style="text-transform:uppercase" font-weight="300" font-size="16" font-family="Roboto" text-anchor="middle"><tspan x="139.405" y="-18.192">Plagiarism check</tspan></text><g fill="#fff"><path d="M7.12.85V7.6q0 1.63-1 2.5-1 .85-2.6.85-1.56 0-2.54-.86Q0 9.2 0 7.6V.85h.82V7.6q0 1.27.75 1.97t1.96.7q1.23 0 2-.7.78-.7.78-1.97V.85h.82z"/><path d="M10.07 3.4l.07 1.3q.36-.68.96-1.05.6-.38 1.44-.38 1.2 0 1.83.74.63.74.63 2.3v4.5h-.82V6.3q0-1.26-.48-1.8-.47-.5-1.35-.5-.86 0-1.4.44-.55.45-.78 1.2v5.17h-.82V3.4h.72z"/><path d="M18.05 10.8h-.8V3.4h.8v7.4zm0-9.5h-.8V.13h.8V1.3z"/><path d="M20 7.17q0-1.77.73-2.83.76-1.07 2.1-1.07.75 0 1.32.33.58.3.94.9l.08-1.1h.7v10.25h-.8v-3.8q-.38.53-.95.8t-1.32.3q-1.3 0-2.07-.98-.74-1-.74-2.66v-.13zm.8.14q0 1.35.54 2.16.54.8 1.62.8.77 0 1.3-.34.5-.35.8-.94V5.35q-.27-.6-.8-1-.5-.38-1.28-.38-1.08 0-1.63.9-.54.9-.54 2.3v.14z"/><path d="M32.95 9.6q-.36.65-.96 1t-1.43.35q-1.17 0-1.83-.8-.67-.78-.67-2.45V3.4h.83v4.3q0 1.36.45 1.95.47.6 1.32.6.93 0 1.48-.43t.77-1.15V3.4h.82v7.4h-.72l-.07-1.2z"/><path d="M38.67 10.95q-1.4 0-2.3-1.02-.93-1.03-.93-2.6v-.38q0-1.58.9-2.63.93-1.05 2.23-1.05 1.36 0 2.14.87.8.86.8 2.3v.7h-5.24v.2q0 1.24.67 2.08.66.84 1.74.84.77 0 1.3-.2.55-.22.93-.62l.35.56q-.42.44-1.06.7-.65.25-1.53.25zm-.1-6.98q-.9 0-1.53.7-.6.7-.7 1.74v.04h4.33v-.2q0-.97-.56-1.62-.56-.65-1.53-.65z"/><path d="M49.27 10.26q.82 0 1.44-.46.63-.47.63-1.3h.73v.05q.04 1.02-.8 1.7-.87.7-2 .7-1.5 0-2.32-1.03-.83-1.04-.83-2.67v-.28q0-1.62.84-2.66.83-1.03 2.33-1.03 1.2 0 2.02.72.8.7.78 1.88l-.02.04h-.73q0-.9-.6-1.4-.6-.55-1.46-.55-1.2 0-1.77.86-.57.84-.57 2.14v.28q0 1.32.57 2.16.57.86 1.77.86z"/><path d="M53.32 7q0-1.63.9-2.68t2.37-1.05q1.47 0 2.37 1.05.9 1.05.9 2.68v.23q0 1.64-.9 2.68-.9 1.05-2.37 1.05-1.5 0-2.38-1.04-.9-1.03-.9-2.67V7zm.82.23q0 1.28.65 2.16t1.8.86q1.14 0 1.8-.87.65-.9.65-2.17V7q0-1.26-.66-2.15-.66-.88-1.8-.88t-1.8.88q-.66.9-.66 2.15v.23z"/><path d="M62.3 3.4l.07 1.3q.36-.68.96-1.05.6-.38 1.43-.38 1.2 0 1.84.74.62.74.62 2.3v4.5h-.82V6.3q0-1.26-.47-1.8-.48-.5-1.35-.5-.86 0-1.4.44-.55.45-.8 1.2v5.17h-.8V3.4h.72z"/><path d="M70.65 1.52v1.9h1.63v.66h-1.63V8.9q0 .73.26 1.03.28.3.7.3.2 0 .4 0 .2-.03.43-.07l.13.6q-.2.1-.5.14t-.6.05q-.77 0-1.2-.5-.44-.48-.44-1.55V4.08h-1.28V3.4h1.28V1.53h.83z"/><path d="M76.8 10.95q-1.4 0-2.32-1.02-.92-1.03-.92-2.6v-.38q0-1.58.9-2.63.93-1.05 2.23-1.05 1.35 0 2.13.87.77.86.77 2.3v.7h-5.22v.2q0 1.24.66 2.08.67.84 1.75.84.75 0 1.3-.2.53-.22.92-.62l.35.56q-.42.44-1.06.7-.63.25-1.5.25zm-.1-6.98q-.92 0-1.54.7-.6.7-.72 1.74l.02.04h4.33v-.2q0-.97-.58-1.62-.56-.65-1.53-.65z"/><path d="M81.96 3.4l.07 1.3q.36-.68.96-1.05.6-.38 1.42-.38 1.2 0 1.84.74.62.74.62 2.3v4.5h-.82V6.3q0-1.26-.47-1.8-.5-.5-1.36-.5-.86 0-1.4.44-.55.45-.8 1.2v5.17h-.8V3.4h.72z"/><path d="M90.3 1.52v1.9h1.64v.66H90.3V8.9q0 .73.27 1.03.27.3.7.3.2 0 .4 0 .18-.03.42-.07l.12.6q-.2.1-.5.14t-.6.05q-.77 0-1.2-.5-.44-.48-.44-1.55V4.08H88.2V3.4h1.28V1.53h.83z"/><path d="M98 10.8h-.8V3.4h.8v7.4zm0-9.5h-.8V.13h.8V1.3z"/><path d="M104.7 8.93q0-.52-.44-.9-.42-.4-1.54-.65-1.32-.28-1.96-.76-.63-.47-.63-1.33 0-.86.7-1.44.73-.6 1.9-.6 1.26 0 2 .64.72.6.68 1.54v.04h-.76q0-.6-.52-1.06-.5-.45-1.4-.45-.88 0-1.33.4-.46.37-.46.9 0 .5.4.84.38.35 1.53.6 1.32.3 1.98.8.65.5.65 1.4 0 .9-.75 1.48-.74.57-1.97.57-1.35 0-2.12-.64-.77-.63-.73-1.52l.02-.04h.75q.05.8.65 1.16.6.36 1.43.36.88 0 1.4-.4.5-.38.5-.93z"/><path d="M115.5 10.8q-.08-.37-.12-.64-.03-.27-.03-.56-.4.6-1.1.97-.68.38-1.53.38-1.08 0-1.68-.57-.6-.58-.6-1.54 0-1.03.88-1.64.9-.62 2.4-.62h1.63v-.9q0-.8-.5-1.26-.52-.45-1.43-.45-.86 0-1.43.43t-.57 1.06h-.75V5.4q-.05-.82.74-1.47.8-.66 2.03-.66 1.22 0 1.97.63.74.62.74 1.78v3.64q0 .4.04.76.05.37.15.73h-.85zm-2.7-.57q.9 0 1.57-.4.68-.43.98-1.07V7.2h-1.65q-1.1 0-1.78.5-.67.46-.67 1.17 0 .6.42.98.4.38 1.14.38z"/><path d="M127.7 7.3q0 1.68-.74 2.67-.75.98-2.07.98-.8 0-1.38-.3-.58-.3-.95-.83v3.83h-.82V3.4h.7l.1 1.16q.36-.62.94-.95.58-.33 1.37-.33 1.34 0 2.1 1.07.74 1.06.74 2.83v.14zm-.8-.13q0-1.4-.57-2.3-.56-.88-1.64-.88-.84 0-1.36.38-.5.4-.77 1.02v3.56q.28.6.8.95.54.36 1.33.36 1.08 0 1.63-.8.56-.8.56-2.15v-.13z"/><path d="M132.95 4.12l-.6-.05q-.78 0-1.28.44t-.7 1.2v5.1h-.82V3.4h.7l.12 1.24v.08q.32-.68.86-1.06t1.28-.4q.17 0 .3.04.16.02.26.05l-.1.77z"/><path d="M135.22 10.8h-.8V3.4h.8v7.4zm0-9.5h-.8V.13h.8V1.3z"/><path d="M137.02 7q0-1.63.9-2.68t2.37-1.05q1.47 0 2.37 1.05t.9 2.68v.23q0 1.64-.9 2.68-.9 1.05-2.37 1.05-1.5 0-2.38-1.04-.9-1.03-.9-2.67V7zm.82.23q0 1.28.65 2.16.64.86 1.8.86 1.14 0 1.8-.87.65-.9.65-2.17V7q0-1.26-.66-2.15-.66-.88-1.8-.88t-1.8.88q-.66.9-.66 2.15v.23z"/><path d="M148.67 4.12l-.6-.05q-.78 0-1.28.44t-.7 1.2v5.1h-.83V3.4h.7l.12 1.24v.08q.3-.68.85-1.06t1.28-.4q.16 0 .3.04.15.02.25.05l-.1.77z"/><path d="M150.94 10.8h-.8V3.4h.8v7.4zm0-9.5h-.8V.13h.8V1.3z"/><path d="M154.5 1.52v1.9h1.62v.66h-1.63V8.9q0 .73.25 1.03.27.3.7.3.2 0 .4 0 .18-.03.42-.07l.13.6q-.2.1-.5.14-.3.05-.6.05-.77 0-1.2-.5-.44-.48-.44-1.55V4.08h-1.28V3.4h1.28V1.53h.83z"/><path d="M159.95 8.8l.26.9h.05l2.24-6.3h.9l-3.2 8.6q-.3.74-.76 1.27-.45.52-1.34.52-.14 0-.34-.04-.2-.03-.3-.06l.1-.68q.07 0 .25.02.2.02.28.02.53 0 .85-.38.32-.38.55-.97l.4-1L157 3.4h.92l2.03 5.4z"/><path d="M168.72 10.8V4.1h-1.22V3.4h1.22V2.34q0-1.1.55-1.72.57-.6 1.57-.6.23 0 .46.03t.47.1l-.1.68q-.16-.03-.34-.05-.17-.03-.4-.03-.67 0-1.03.42-.36.43-.36 1.2V3.4h1.77v.68h-1.76v6.73h-.82z"/><path d="M172.27 7q0-1.63.9-2.68t2.37-1.05q1.48 0 2.38 1.05.9 1.05.9 2.68v.23q0 1.64-.9 2.68-.9 1.05-2.37 1.05-1.5 0-2.4-1.04-.9-1.03-.9-2.67V7zm.82.23q0 1.28.64 2.16.65.86 1.8.86t1.8-.87q.66-.9.66-2.17V7q0-1.26-.67-2.15-.65-.88-1.8-.88t-1.8.88q-.64.9-.64 2.15v.23z"/><path d="M183.92 4.12l-.6-.05q-.78 0-1.28.44t-.7 1.2v5.1h-.82V3.4h.7l.12 1.24v.08q.32-.68.86-1.06t1.28-.4q.16 0 .3.04.15.02.25.05l-.1.77z"/><path d="M193.54 9.6q-.36.65-.96 1t-1.42.35q-1.17 0-1.83-.8-.66-.78-.66-2.45V3.4h.82v4.3q0 1.36.44 1.95.47.6 1.32.6.93 0 1.48-.43t.77-1.15V3.4h.83v7.4h-.72l-.06-1.2z"/><path d="M200.92 8.93q0-.52-.43-.9-.43-.4-1.55-.65-1.32-.28-1.96-.76-.64-.47-.64-1.33 0-.86.7-1.44.73-.6 1.9-.6 1.26 0 2 .64.72.6.68 1.54v.04h-.77q0-.6-.52-1.06-.5-.45-1.4-.45-.88 0-1.33.4-.45.37-.45.9 0 .5.4.84.38.35 1.53.6 1.32.3 1.98.8.65.5.65 1.4 0 .9-.75 1.48-.74.57-1.97.57-1.34 0-2.1-.64-.78-.63-.74-1.52l.02-.04h.75q.05.8.65 1.16.6.36 1.43.36.9 0 1.4-.4.52-.38.52-.93z"/><path d="M204.62 10.8h-.94V9.7h.94v1.1z"/><path d="M212.34 8l.3 1.52h.04l.38-1.53 2.1-7.15h.78l2.1 7.14.36 1.53h.04l.33-1.54 1.8-7.15h.83l-2.56 9.96h-.77l-2.24-7.63-.26-1.04h-.04l-.25 1.04-2.26 7.64h-.78L209.7.86h.83l1.8 7.14z"/><path d="M225.48 10.95q-1.4 0-2.3-1.02-.93-1.03-.93-2.6v-.38q0-1.58.9-2.63.93-1.05 2.23-1.05 1.36 0 2.14.87.78.86.78 2.3v.7h-5.23v.2q0 1.24.67 2.08.66.84 1.74.84.77 0 1.3-.2.55-.22.93-.62l.36.56q-.42.44-1.06.7-.64.25-1.52.25zm-.1-6.98q-.9 0-1.53.7-.6.7-.7 1.74v.04h4.33v-.2q0-.97-.56-1.62-.57-.65-1.54-.65z"/><path d="M234.94 8.4l.28 1.33h.04l.35-1.32 1.58-5h.7l1.58 5 .35 1.36h.06l.3-1.35 1.35-5h.86l-2.16 7.4h-.7l-1.63-5.05-.33-1.28h-.04l-.32 1.28-1.62 5.06h-.7l-2.15-7.4h.86l1.38 5z"/><path d="M247.36 4.12l-.6-.05q-.78 0-1.28.44t-.7 1.2v5.1h-.83V3.4h.72l.1 1.24v.08q.33-.68.87-1.06t1.28-.4q.16 0 .3.04.15.02.25.05l-.1.77z"/><path d="M249.63 10.8h-.8V3.4h.8v7.4zm0-9.5h-.8V.13h.8V1.3z"/><path d="M253.17 1.52v1.9h1.63v.66h-1.63V8.9q0 .73.26 1.03.27.3.7.3.2 0 .4 0 .18-.03.42-.07l.13.6q-.2.1-.5.14-.3.05-.6.05-.77 0-1.2-.5-.44-.48-.44-1.55V4.08h-1.28V3.4h1.28V1.53h.83z"/><path d="M259.3 10.95q-1.38 0-2.3-1.02-.92-1.03-.92-2.6v-.38q0-1.58.9-2.63.93-1.05 2.23-1.05 1.37 0 2.15.87.78.86.78 2.3v.7h-5.23v.2q0 1.24.67 2.08.66.84 1.74.84.78 0 1.32-.2.54-.22.92-.62l.35.56q-.43.44-1.07.7-.64.25-1.52.25zm-.1-6.98q-.9 0-1.52.7-.6.7-.7 1.74v.04h4.33v-.2q0-.97-.55-1.62-.57-.65-1.54-.65z"/><path d="M271.85 10.8q-.08-.37-.12-.64-.03-.27-.03-.56-.4.6-1.1.97-.68.38-1.53.38-1.08 0-1.68-.57-.6-.58-.6-1.54 0-1.03.87-1.64.9-.62 2.4-.62h1.63v-.9q0-.8-.5-1.26-.52-.45-1.44-.45-.85 0-1.42.43-.56.43-.56 1.06h-.75V5.4q-.05-.82.74-1.47.8-.66 2.03-.66 1.22 0 1.97.63.74.62.74 1.78v3.64q0 .4.05.76.05.37.15.73h-.85zm-2.7-.57q.9 0 1.57-.4.68-.43.98-1.07V7.2h-1.65q-1.1 0-1.78.5-.67.46-.67 1.17 0 .6.42.98.4.38 1.14.38z"/><path d="M275.6 10.8h-.8V.15h.8V10.8z"/><path d="M278.78 10.8h-.8V.15h.8V10.8z"/><path d="M7.63 27.3q0 1.68-.75 2.67-.76.98-2.07.98-.77 0-1.36-.3-.58-.3-.95-.83v3.83h-.83V23.4h.7l.1 1.16q.36-.62.94-.95.6-.33 1.4-.33 1.33 0 2.08 1.07.75 1.06.75 2.83v.14zm-.82-.13q0-1.4-.55-2.3Q5.7 24 4.6 24q-.82 0-1.34.38-.5.4-.77 1.02v3.56q.27.6.8.95.53.36 1.32.36 1.07 0 1.63-.8.56-.8.56-2.15v-.13z"/><path d="M14.15 30.8q-.08-.37-.12-.64-.03-.27-.03-.56-.4.6-1.1.97-.68.38-1.53.38-1.08 0-1.68-.57-.6-.58-.6-1.54 0-1.03.87-1.64.9-.62 2.4-.62H14v-.9q0-.8-.5-1.26-.52-.45-1.43-.45-.86 0-1.43.43-.56.43-.56 1.05h-.75v-.04q-.05-.82.74-1.47.8-.66 2.03-.66 1.22 0 1.97.63.74.62.74 1.78v3.64q0 .4.05.76t.15.73h-.85zm-2.7-.57q.9 0 1.57-.4.68-.43.98-1.07V27.2h-1.65q-1.1 0-1.78.5-.67.46-.67 1.17 0 .6.4.98.43.38 1.16.38z"/><path d="M22.94 27.3q0 1.68-.75 2.67-.76.98-2.08.98-.78 0-1.37-.3-.58-.3-.95-.83v3.83h-.82V23.4h.7l.1 1.16q.36-.62.94-.95.6-.33 1.38-.33 1.34 0 2.1 1.07.74 1.06.74 2.83v.14zm-.82-.13q0-1.4-.56-2.3Q21 24 19.92 24q-.83 0-1.35.38-.5.4-.77 1.02v3.56q.28.6.8.95.54.36 1.33.36 1.08 0 1.63-.8.56-.8.56-2.15v-.13z"/><path d="M27.56 30.95q-1.4 0-2.3-1.02-.93-1.03-.93-2.6v-.38q0-1.58.9-2.63.92-1.05 2.22-1.05 1.36 0 2.14.87.77.86.77 2.3v.7h-5.22v.2q0 1.24.66 2.08.68.84 1.76.84.76 0 1.3-.2.54-.22.92-.62l.35.56q-.4.44-1.06.7-.63.25-1.5.25zm-.1-6.98q-.92 0-1.53.7-.62.7-.72 1.74l.02.04h4.34v-.2q0-.97-.57-1.62-.58-.65-1.55-.65z"/><path d="M35.4 24.1l-.6-.03q-.78 0-1.28.44t-.7 1.2v5.1H32v-7.4h.72l.1 1.24v.08q.32-.68.86-1.06t1.3-.4q.14 0 .3.04.14.02.23.05l-.1.77z"/><path d="M41.2 28.93q0-.52-.44-.9-.43-.4-1.54-.65-1.33-.28-1.96-.76-.63-.47-.63-1.33 0-.86.7-1.44.73-.6 1.9-.6 1.25 0 1.98.64.75.6.7 1.54v.04h-.76q0-.6-.52-1.06-.5-.45-1.4-.45-.88 0-1.33.4-.46.37-.46.9 0 .5.38.84.4.35 1.55.6 1.32.3 1.97.8.66.5.66 1.4 0 .9-.75 1.48-.75.57-1.98.57-1.35 0-2.12-.64-.76-.63-.72-1.52v-.04h.76q.04.8.64 1.16.6.36 1.43.36.9 0 1.4-.4.52-.38.52-.93z"/><path d="M47.9 30.8V24.1H46.7v-.67h1.23v-1.07q0-1.1.56-1.72.56-.6 1.56-.6.23 0 .46.03t.47.1l-.1.68q-.16-.03-.34-.05-.16-.03-.4-.03-.66 0-1.02.42-.35.43-.35 1.2v1.07h1.76v.68h-1.77v6.73h-.82z"/><path d="M55.3 24.1l-.6-.03q-.77 0-1.27.44t-.7 1.2v5.1h-.82v-7.4h.72l.1 1.24v.08q.33-.68.87-1.06t1.27-.4q.16 0 .3.04.15.02.25.05l-.1.77z"/><path d="M56.07 27q0-1.63.9-2.68t2.37-1.05q1.48 0 2.37 1.05.9 1.05.9 2.68v.23q0 1.64-.88 2.68-.9 1.05-2.37 1.05-1.5 0-2.4-1.04-.88-1.03-.88-2.67V27zm.82.23q0 1.28.64 2.16t1.8.86q1.15 0 1.8-.87.66-.9.66-2.17V27q0-1.26-.66-2.15-.66-.88-1.8-.88t-1.8.88q-.65.88-.65 2.15v.23z"/><path d="M65 23.4l.1 1.23q.34-.64.93-1 .6-.36 1.4-.36.86 0 1.43.4.57.42.82 1.27.33-.78.95-1.22.62-.45 1.5-.45 1.2 0 1.83.8.65.78.65 2.42v4.3h-.8V26.5q0-1.37-.5-1.93-.48-.56-1.34-.56-.95 0-1.47.58-.53.6-.65 1.52 0 .05 0 .14 0 .1 0 .13v4.44h-.82V26.5q0-1.34-.5-1.9-.48-.6-1.33-.6-.87 0-1.38.45-.5.44-.7 1.18v5.2h-.84v-7.4H65z"/><path d="M84.58 28.93q0-.52-.43-.9-.42-.4-1.54-.65-1.3-.28-1.95-.76-.63-.47-.63-1.33 0-.86.7-1.44.73-.6 1.9-.6 1.26 0 2 .64.72.6.7 1.54l-.03.04h-.77q0-.6-.52-1.06-.5-.45-1.37-.45-.9 0-1.35.4-.45.37-.45.9 0 .5.4.84.38.35 1.53.6 1.32.3 1.98.8.65.5.65 1.4 0 .9-.76 1.48-.74.57-1.97.57-1.35 0-2.12-.64-.77-.63-.73-1.52l.02-.04h.75q.04.8.64 1.16.6.36 1.43.36.9 0 1.4-.4.5-.38.5-.93z"/><path d="M90.03 30.26q.8 0 1.43-.46.63-.47.63-1.3h.7l.02.05q.04 1.02-.82 1.7-.85.7-1.97.7-1.5 0-2.34-1.03-.83-1.04-.83-2.67v-.28q0-1.62.83-2.66.83-1.03 2.32-1.03 1.22 0 2.03.72.8.7.78 1.88v.04h-.74q0-.9-.62-1.4-.6-.55-1.46-.55-1.2 0-1.76.86-.57.84-.57 2.14v.28q0 1.32.56 2.16.57.86 1.77.86z"/><path d="M97.94 24.1l-.6-.03q-.78 0-1.28.44t-.7 1.2v5.1h-.83v-7.4h.72l.1 1.24v.08q.33-.68.87-1.06t1.28-.4q.16 0 .3.04.15.02.25.05l-.1.77z"/><path d="M103.97 30.8q-.08-.37-.12-.64-.03-.27-.03-.56-.4.6-1.1.97-.68.38-1.53.38-1.1 0-1.7-.57-.6-.58-.6-1.54 0-1.03.9-1.64.88-.62 2.4-.62h1.62v-.9q0-.8-.5-1.26-.52-.45-1.43-.45-.87 0-1.44.43-.56.43-.56 1.06h-.75v-.05q-.05-.82.74-1.47.8-.66 2.02-.66t1.97.63q.73.62.73 1.78v3.64q0 .4.04.76.05.37.15.73h-.85zm-2.7-.57q.9 0 1.57-.4.68-.43.98-1.07V27.2h-1.65q-1.1 0-1.78.5-.68.46-.68 1.17 0 .6.42.98.4.38 1.14.38z"/><path d="M108.1 21.52v1.9h1.63v.66h-1.63v4.82q0 .73.26 1.03.27.3.7.3.2 0 .4 0 .18-.03.42-.07l.13.6q-.2.1-.5.14-.3.05-.58.05-.78 0-1.22-.5-.43-.48-.43-1.55v-4.82H106v-.67h1.27v-1.88h.83z"/><path d="M114.2 30.26q.8 0 1.44-.46.62-.47.62-1.3h.72l.02.05q.03 1.02-.82 1.7-.86.7-1.98.7-1.5 0-2.34-1.03-.82-1.04-.82-2.67v-.28q0-1.62.83-2.66.83-1.03 2.32-1.03 1.2 0 2.02.72.8.7.78 1.88v.04h-.74q0-.9-.6-1.4-.6-.55-1.47-.55-1.2 0-1.77.86-.57.84-.57 2.14v.28q0 1.32.57 2.16.57.86 1.77.86z"/><path d="M119.53 24.68q.37-.67.98-1.04.63-.37 1.45-.37 1.17 0 1.8.73.62.72.62 2.25v4.56h-.82v-4.57q0-1.2-.48-1.72-.47-.5-1.3-.5-.85 0-1.4.43-.57.44-.84 1.17v5.2h-.82V20.15h.83v4.54z"/><path d="M134.6 30.8q-.08-.37-.12-.64-.03-.27-.03-.56-.4.6-1.1.97-.68.38-1.53.38-1.08 0-1.68-.57-.6-.58-.6-1.54 0-1.03.88-1.64.9-.62 2.4-.62h1.63v-.9q0-.8-.5-1.26-.52-.45-1.43-.45-.86 0-1.43.43t-.57 1.06h-.75v-.05q-.05-.82.74-1.47.8-.66 2.03-.66 1.22 0 1.97.63.74.62.74 1.78v3.64q0 .4.04.76.05.37.15.73h-.85zm-2.7-.57q.9 0 1.57-.4.68-.43.98-1.07V27.2h-1.65q-1.1 0-1.78.5-.67.46-.67 1.17 0 .6.42.98.4.38 1.14.38z"/><path d="M138.16 23.4l.08 1.3q.35-.68.95-1.05.6-.38 1.43-.38 1.2 0 1.83.74.63.74.63 2.3v4.5h-.83v-4.5q0-1.26-.48-1.8-.48-.5-1.36-.5-.86 0-1.4.44-.55.45-.78 1.2v5.17h-.82v-7.4h.72z"/><path d="M144.9 27.17q0-1.77.76-2.83.75-1.07 2.1-1.07.76 0 1.33.33.55.33.93.93v-4.4h.8v10.68h-.7l-.08-1.07q-.37.6-.95.9-.58.32-1.37.32-1.32 0-2.07-.98-.75-1-.75-2.66v-.13zm.83.14q0 1.35.53 2.15.54.8 1.62.8.8 0 1.32-.37.54-.35.83-.98v-3.47q-.28-.64-.8-1.04-.5-.4-1.33-.4-1.08 0-1.63.87-.54.9-.54 2.3v.14z"/><path d="M161.12 30.8q-.08-.37-.12-.64-.03-.27-.03-.56-.4.6-1.1.97-.68.38-1.53.38-1.08 0-1.68-.57-.6-.58-.6-1.54 0-1.03.88-1.64.9-.62 2.4-.62h1.63v-.9q0-.8-.5-1.26-.52-.45-1.43-.45-.86 0-1.43.43-.55.43-.55 1.06h-.75v-.05q-.05-.82.74-1.47.8-.66 2.03-.66 1.22 0 1.97.63.74.62.74 1.78v3.64q0 .4.04.76.05.37.15.73h-.85zm-2.7-.57q.9 0 1.57-.4.67-.43.97-1.07V27.2h-1.65q-1.1 0-1.78.5-.67.46-.67 1.17 0 .6.42.98.4.38 1.13.38z"/><path d="M163.64 27.17q0-1.77.75-2.83.74-1.07 2.08-1.07.77 0 1.34.33.56.33.94.93v-4.4h.8v10.68h-.7l-.08-1.07q-.37.6-.95.9-.58.32-1.37.32-1.32 0-2.07-.98-.76-1-.76-2.66v-.13zm.82.14q0 1.35.53 2.15.53.8 1.6.8.8 0 1.33-.37.54-.35.83-.98v-3.47q-.28-.64-.8-1.04-.5-.4-1.33-.4-1.08 0-1.63.87-.54.9-.54 2.3v.14z"/><path d="M171.43 27.17q0-1.77.75-2.83.75-1.07 2.1-1.07.76 0 1.33.33.57.33.95.93v-4.4h.8v10.68h-.7l-.08-1.07q-.37.6-.95.9t-1.37.32q-1.32 0-2.07-.98-.75-1-.75-2.66v-.13zm.82.14q0 1.35.53 2.15.54.8 1.62.8.8 0 1.32-.37.54-.35.83-.98v-3.47q-.28-.64-.8-1.04-.5-.4-1.33-.4-1.08 0-1.63.87-.55.9-.55 2.3v.14z"/><path d="M180.46 30.8h-.8v-7.4h.8v7.4zm0-9.5h-.8v-1.16h.8v1.15z"/><path d="M184 21.52v1.9h1.63v.66H184v4.82q0 .73.26 1.03.27.3.7.3.2 0 .4 0 .18-.03.42-.07l.13.6q-.2.1-.5.14-.3.05-.58.05-.78 0-1.22-.5-.43-.48-.43-1.55v-4.82h-1.28v-.67h1.27v-1.88h.83z"/><path d="M188.28 30.8h-.8v-7.4h.8v7.4zm0-9.5h-.8v-1.16h.8v1.15z"/><path d="M190.08 27q0-1.63.9-2.68.9-1.05 2.37-1.05 1.48 0 2.38 1.05.9 1.05.9 2.68v.23q0 1.64-.9 2.68-.9 1.05-2.37 1.05-1.5 0-2.38-1.04-.9-1.03-.9-2.67V27zm.82.23q0 1.28.65 2.16.65.86 1.8.86t1.8-.87q.66-.9.66-2.17V27q0-1.26-.65-2.15-.65-.88-1.8-.88t-1.8.88q-.65.88-.65 2.15v.23z"/><path d="M199.06 23.4l.08 1.3q.35-.68.95-1.05.6-.38 1.43-.38 1.2 0 1.83.74.63.74.63 2.3v4.5h-.83v-4.5q0-1.26-.48-1.8-.48-.5-1.36-.5-.86 0-1.4.44-.55.45-.78 1.2v5.17h-.82v-7.4h.72z"/><path d="M210.8 30.8q-.07-.37-.1-.64-.04-.27-.04-.56-.4.6-1.1.97-.68.38-1.53.38-1.08 0-1.68-.57-.6-.58-.6-1.54 0-1.03.88-1.64.9-.62 2.4-.62h1.63v-.9q0-.8-.5-1.26-.52-.45-1.43-.45-.86 0-1.43.43-.56.43-.56 1.06H206l-.02-.05q-.04-.82.75-1.47.8-.66 2.03-.66 1.22 0 1.97.63.74.62.74 1.78v3.64q0 .4.04.76.06.37.16.73h-.85zm-2.68-.57q.9 0 1.56-.4.68-.43.98-1.07V27.2H209q-1.1 0-1.77.5-.67.46-.67 1.17 0 .6.42.98.4.38 1.14.38z"/><path d="M214.56 30.8h-.8V20.15h.8V30.8z"/><path d="M217.73 30.8h-.8V20.15h.8V30.8z"/><path d="M222.1 28.8l.25.9h.04l2.23-6.3h.9l-3.2 8.6q-.3.74-.75 1.27t-1.34.53q-.14 0-.34-.04-.2-.03-.3-.06l.1-.68q.07 0 .25.02t.27.02q.53 0 .85-.38.32-.38.55-.97l.4-1-2.87-7.3h.9l2.04 5.4z"/><path d="M229.95 27.17q0-1.77.75-2.83.75-1.07 2.1-1.07.76 0 1.33.33.56.33.94.93v-4.4h.8v10.68h-.7l-.08-1.07q-.38.6-.96.9-.58.32-1.37.32-1.32 0-2.07-.98-.75-1-.75-2.66v-.13zm.82.14q0 1.35.53 2.15.54.8 1.62.8.8 0 1.32-.37.54-.35.83-.98v-3.47q-.28-.64-.8-1.04-.5-.4-1.33-.4-1.08 0-1.63.87-.53.9-.53 2.3v.14z"/><path d="M237.6 27q0-1.63.9-2.68.9-1.05 2.37-1.05 1.48 0 2.38 1.05.9 1.05.9 2.68v.23q0 1.64-.9 2.68-.9 1.05-2.37 1.05-1.5 0-2.38-1.04-.9-1.03-.9-2.67V27zm.82.23q0 1.28.65 2.16.65.86 1.8.86t1.8-.87q.66-.9.66-2.17V27q0-1.26-.66-2.15-.65-.88-1.8-.88t-1.8.88q-.65.88-.65 2.15v.23z"/><path d="M248.95 27.17q0-1.77.75-2.83.75-1.07 2.1-1.07.76 0 1.33.33.56.33.94.93v-4.4h.8v10.68h-.7l-.08-1.07q-.38.6-.96.9-.58.32-1.37.32-1.32 0-2.07-.98-.75-1-.75-2.66v-.13zm.82.14q0 1.35.53 2.15.54.8 1.62.8.8 0 1.32-.37.54-.35.83-.98v-3.47q-.28-.64-.8-1.04-.5-.4-1.33-.4-1.08 0-1.63.87-.53.9-.53 2.3v.14z"/><path d="M259.84 30.95q-1.4 0-2.3-1.02-.93-1.03-.93-2.6v-.38q0-1.58.92-2.63.92-1.05 2.22-1.05 1.36 0 2.14.87.78.86.78 2.3v.7h-5.23v.2q0 1.24.67 2.08.66.84 1.74.84.77 0 1.3-.2.55-.22.93-.62l.35.56q-.42.44-1.06.7-.64.25-1.52.25zm-.1-6.98q-.9 0-1.53.7-.6.7-.7 1.74v.04h4.34v-.2q0-.97-.56-1.62-.57-.65-1.54-.65z"/><path d="M267.06 30.95q-1.4 0-2.3-1.02-.93-1.03-.93-2.6v-.38q0-1.58.9-2.63.93-1.05 2.23-1.05 1.36 0 2.14.87.78.86.78 2.3v.7h-5.23v.2q0 1.24.67 2.08.66.84 1.74.84.77 0 1.3-.2.55-.22.93-.62l.34.56q-.42.44-1.06.7-.64.25-1.52.25zm-.1-6.98q-.9 0-1.53.7-.6.7-.7 1.74v.04h4.33v-.2q0-.97-.56-1.62-.57-.65-1.54-.65z"/><path d="M277.46 27.3q0 1.68-.75 2.67-.74.98-2.06.98-.78 0-1.37-.3-.58-.3-.95-.83v3.83h-.82V23.4h.7l.1 1.16q.36-.62.94-.95.6-.33 1.38-.33 1.34 0 2.1 1.07.74 1.06.74 2.83v.14zm-.82-.13q0-1.4-.56-2.3-.56-.9-1.64-.9-.83 0-1.35.4-.52.4-.78 1.03v3.55q.28.6.8.96.54.36 1.33.36 1.08 0 1.63-.8.56-.8.56-2.15v-.13z"/><path d="M8.37 47.3q0 1.68-.75 2.67-.76.98-2.08.98-.78 0-1.36-.3-.58-.3-.95-.83v3.83H2.4V43.4h.7l.1 1.16q.37-.62.95-.95.6-.33 1.38-.33 1.33 0 2.1 1.07.74 1.06.74 2.83v.14zm-.82-.13q0-1.4-.56-2.3Q6.42 44 5.34 44q-.83 0-1.35.38-.5.4-.77 1.02v3.56q.28.6.8.95.54.36 1.33.36 1.07 0 1.63-.8.55-.8.55-2.15v-.13z"/><path d="M11.12 50.8h-.8V40.15h.8V50.8z"/><path d="M18.06 50.8q-.08-.37-.12-.64-.03-.27-.03-.56-.4.6-1.08.97-.7.38-1.54.38-1.08 0-1.68-.57-.6-.58-.6-1.54 0-1.03.88-1.64.9-.62 2.4-.62h1.63v-.9q0-.8-.5-1.26-.5-.45-1.42-.45-.86 0-1.43.43-.56.43-.56 1.06h-.76v-.05q-.05-.82.74-1.47.8-.66 2.03-.66 1.23 0 1.98.63.74.62.74 1.78v3.64q0 .4.05.76.04.37.15.73h-.86zm-2.7-.57q.9 0 1.57-.4.68-.43.98-1.07V47.2h-1.64q-1.1 0-1.78.5-.66.46-.66 1.17 0 .6.4.98.42.38 1.15.38z"/><path d="M20.58 47.17q0-1.77.75-2.83.76-1.07 2.1-1.07.8 0 1.36.35.57.34.94.97l.1-1.2h.7v7.3q0 1.44-.8 2.27-.8.83-2.2.83-.53 0-1.13-.13-.6-.13-1.04-.36l.2-.68q.44.22.93.33.48.1 1.03.1 1.08 0 1.63-.6.55-.63.55-1.74v-.92q-.37.56-.94.87-.57.3-1.34.3-1.33 0-2.1-1-.74-.98-.74-2.64v-.13zm.82.14q0 1.35.54 2.15.55.8 1.63.8.8 0 1.32-.37.52-.36.8-1v-3.43q-.26-.64-.78-1.05-.5-.4-1.34-.4-1.08 0-1.63.87-.55.9-.55 2.3v.14z"/><path d="M29.6 50.8h-.8v-7.4h.8v7.4zm0-9.5h-.8v-1.16h.8v1.15z"/><path d="M36.55 50.8q-.1-.37-.12-.64-.04-.27-.04-.56-.42.6-1.1.97-.68.38-1.54.38-1.08 0-1.68-.57-.6-.58-.6-1.54 0-1.03.9-1.64.88-.62 2.38-.62h1.63v-.9q0-.8-.52-1.26-.5-.45-1.42-.45-.85 0-1.42.43-.56.43-.56 1.06h-.75l-.02-.05q-.03-.82.76-1.47.8-.66 2.03-.66 1.22 0 1.96.63.75.62.75 1.78v3.64q0 .4.05.76.05.37.15.73h-.85zm-2.7-.57q.9 0 1.57-.4.67-.43.97-1.07V47.2h-1.65q-1.12 0-1.8.5-.65.46-.65 1.17 0 .6.4.98.43.38 1.16.38z"/><path d="M42.8 44.12l-.62-.05q-.77 0-1.27.44t-.7 1.2v5.1h-.82v-7.4h.72l.1 1.24v.08q.32-.68.86-1.06t1.3-.4q.15 0 .3.04.14.02.24.05l-.1.77z"/><path d="M45.06 50.8h-.82v-7.4h.82v7.4zm0-9.5h-.82v-1.16h.82v1.15z"/><path d="M51.74 48.93q0-.52-.43-.9-.4-.4-1.53-.65-1.32-.28-1.96-.76-.62-.47-.62-1.33 0-.86.7-1.44.73-.6 1.9-.6 1.26 0 2 .64.72.6.7 1.54l-.03.04h-.76q0-.6-.53-1.06-.5-.45-1.38-.45-.9 0-1.36.4-.45.37-.45.9 0 .5.38.84.4.35 1.54.6 1.32.3 1.98.8.65.5.65 1.4 0 .9-.75 1.48-.74.57-1.97.57-1.35 0-2.12-.64-.76-.63-.72-1.52l.02-.04h.75q.05.8.65 1.16.6.36 1.43.36.9 0 1.4-.4.5-.38.5-.93z"/><path d="M55.14 43.4l.07 1.23q.37-.64.96-1 .6-.36 1.4-.36.86 0 1.43.4.56.42.8 1.27.34-.78.96-1.22.62-.45 1.5-.45 1.2 0 1.83.8.64.78.64 2.42v4.3h-.82V46.5q0-1.37-.5-1.93-.47-.56-1.33-.56-.96 0-1.48.58-.52.6-.64 1.52 0 .05 0 .14 0 .1 0 .13v4.44h-.82V46.5q0-1.34-.5-1.9-.48-.6-1.33-.6-.87 0-1.38.45-.5.44-.72 1.18v5.2h-.82v-7.4h.74z"/><path d="M73.02 50.26q.8 0 1.44-.46.62-.47.62-1.3h.72l.02.05q.03 1.02-.82 1.7-.86.7-1.98.7-1.5 0-2.34-1.03-.82-1.04-.82-2.67v-.28q0-1.62.83-2.66.82-1.03 2.3-1.03 1.23 0 2.04.72.8.7.78 1.88v.04h-.74q0-.9-.6-1.4-.6-.55-1.47-.55-1.18 0-1.75.86-.57.84-.57 2.14v.28q0 1.32.57 2.16.57.86 1.77.86z"/><path d="M78.35 44.68q.37-.67.98-1.04.62-.37 1.44-.37 1.17 0 1.8.73.62.72.62 2.25v4.56h-.83v-4.57q0-1.2-.48-1.72-.48-.5-1.32-.5-.84 0-1.4.43-.57.44-.83 1.17v5.2h-.82V40.15h.82v4.54z"/><path d="M88.1 50.95q-1.4 0-2.32-1.02-.9-1.03-.9-2.6v-.38q0-1.58.9-2.63.9-1.05 2.2-1.05 1.37 0 2.15.87.78.86.78 2.3v.7h-5.2v.2q0 1.24.65 2.08.66.84 1.74.84.76 0 1.3-.2.54-.22.92-.62l.35.56q-.4.44-1.06.7-.62.25-1.5.25zm-.1-6.98q-.92 0-1.53.7-.62.7-.72 1.74v.04h4.35v-.2q0-.97-.57-1.62-.57-.65-1.54-.65z"/><path d="M95.28 50.26q.8 0 1.43-.46.64-.47.64-1.3h.72v.05q.05 1.02-.8 1.7-.86.7-1.98.7-1.5 0-2.34-1.03-.82-1.04-.82-2.67v-.28q0-1.62.83-2.66.83-1.03 2.32-1.03 1.22 0 2.03.72.8.7.78 1.88v.04h-.74q0-.9-.6-1.4-.6-.55-1.47-.55-1.2 0-1.76.86-.56.84-.56 2.14v.28q0 1.32.57 2.16.58.86 1.78.86z"/><path d="M101.55 47.2h-.94v3.6h-.8V40.15h.8v6.36h.87l2.75-3.1h.95l.02.05-2.97 3.33 3.26 4-.03.03h-.93l-3-3.6z"/><path d="M111.7 48.4l.27 1.33h.04l.36-1.32 1.57-5h.7l1.58 5 .36 1.36h.05l.3-1.35 1.36-5h.85l-2.15 7.4h-.7l-1.63-5.05-.33-1.28h-.05l-.32 1.28-1.62 5.06h-.7l-2.14-7.4h.85l1.4 5z"/><path d="M121.62 50.8h-.8v-7.4h.8v7.4zm0-9.5h-.8v-1.16h.8v1.15z"/><path d="M125.16 41.52v1.9h1.63v.66h-1.64v4.82q0 .73.26 1.03.27.3.7.3.2 0 .4 0 .18-.03.42-.07l.13.6q-.2.1-.5.14-.3.05-.6.05-.77 0-1.2-.5-.44-.48-.44-1.55v-4.82h-1.28v-.67h1.28v-1.88h.83z"/><path d="M129.34 44.68q.37-.67.98-1.04.62-.37 1.44-.37 1.17 0 1.8.73.62.72.62 2.25v4.56h-.82v-4.57q0-1.2-.48-1.72-.47-.5-1.3-.5-.85 0-1.4.43-.57.44-.84 1.17v5.2h-.82V40.15h.82v4.54z"/><path d="M144.16 48.93q0-.52-.43-.9-.42-.4-1.54-.65-1.33-.28-1.97-.76-.63-.47-.63-1.33 0-.86.7-1.44.73-.6 1.9-.6 1.26 0 2 .64.72.6.68 1.54v.04h-.77q0-.6-.5-1.06-.52-.45-1.4-.45-.9 0-1.34.4-.45.37-.45.9 0 .5.4.84.4.35 1.54.6 1.32.3 1.98.8.65.5.65 1.4 0 .9-.75 1.48-.74.57-1.97.57-1.35 0-2.12-.64-.77-.63-.73-1.52l.02-.04h.75q.05.8.65 1.16.6.36 1.43.36.88 0 1.4-.4.5-.38.5-.93z"/><path d="M152.82 47.3q0 1.68-.75 2.67-.75.98-2.07.98-.78 0-1.37-.3-.58-.3-.95-.83v3.83h-.82V43.4h.7l.1 1.16q.36-.62.94-.95.6-.33 1.38-.33 1.34 0 2.1 1.07.74 1.06.74 2.83v.14zm-.82-.13q0-1.4-.56-2.3-.56-.9-1.64-.9-.83 0-1.35.4-.5.4-.77 1.03v3.55q.28.6.8.96.54.36 1.33.36 1.1 0 1.64-.8.56-.8.56-2.15v-.13z"/><path d="M157.44 50.95q-1.4 0-2.3-1.02-.93-1.03-.93-2.6v-.38q0-1.58.92-2.63.92-1.05 2.22-1.05 1.36 0 2.14.87.78.86.78 2.3v.7h-5.23v.2q0 1.24.67 2.08.66.84 1.74.84.77 0 1.3-.2.55-.22.93-.62l.35.56q-.42.44-1.06.7-.64.25-1.52.25zm-.1-6.98q-.9 0-1.53.7-.6.7-.7 1.74v.04h4.34v-.2q0-.97-.56-1.62-.57-.65-1.54-.65z"/><path d="M164.62 50.26q.8 0 1.44-.46.62-.47.62-1.3h.72l.02.05q.03 1.02-.82 1.7-.86.7-1.98.7-1.5 0-2.34-1.03-.82-1.04-.82-2.67v-.28q0-1.62.83-2.66.82-1.03 2.3-1.03 1.23 0 2.04.72.8.7.78 1.88v.04h-.74q0-.9-.6-1.4-.6-.55-1.47-.55-1.18 0-1.75.86-.57.84-.57 2.14v.28q0 1.32.57 2.16.57.86 1.77.86z"/><path d="M170.04 50.8h-.8v-7.4h.8v7.4zm0-9.5h-.8v-1.16h.8v1.15z"/><path d="M176.98 50.8q-.08-.37-.12-.64-.03-.27-.03-.56-.4.6-1.1.97-.68.38-1.53.38-1.08 0-1.68-.57-.6-.58-.6-1.54 0-1.03.88-1.64.9-.62 2.4-.62h1.63v-.9q0-.8-.5-1.26-.52-.45-1.43-.45-.86 0-1.43.43-.56.43-.56 1.06h-.74v-.05q-.05-.82.74-1.47.8-.66 2.03-.66 1.22 0 1.97.63.74.62.74 1.78v3.64q0 .4.04.76.05.37.15.73h-.85zm-2.7-.57q.9 0 1.57-.4.68-.43.98-1.07V47.2h-1.65q-1.1 0-1.78.5-.67.46-.67 1.17 0 .6.42.98.4.38 1.14.38z"/><path d="M180.74 50.8h-.8V40.15h.8V50.8z"/><path d="M190.84 48.93q0-.52-.43-.9-.4-.4-1.53-.65-1.32-.28-1.96-.76-.62-.47-.62-1.33 0-.86.7-1.44.73-.6 1.9-.6 1.26 0 2 .64.72.6.68 1.54v.04h-.77q0-.6-.53-1.06-.5-.45-1.4-.45-.88 0-1.33.4-.45.37-.45.9 0 .5.38.84.4.35 1.54.6 1.32.3 1.98.8.65.5.65 1.4 0 .9-.75 1.48-.74.57-1.97.57-1.35 0-2.12-.64-.76-.63-.72-1.52l.02-.04h.75q.05.8.65 1.16.6.36 1.43.36.88 0 1.4-.4.5-.38.5-.93z"/><path d="M193.1 47q0-1.63.9-2.68t2.36-1.05q1.48 0 2.38 1.05.9 1.05.9 2.68v.23q0 1.64-.9 2.68-.9 1.05-2.37 1.05-1.5 0-2.38-1.04-.9-1.03-.9-2.67V47zm.8.23q0 1.28.66 2.16.65.86 1.8.86t1.8-.87q.66-.9.66-2.17V47q0-1.26-.66-2.15-.65-.88-1.8-.88t-1.8.88q-.65.88-.65 2.15v.23z"/><path d="M201.93 50.8V44.1h-1.22v-.67h1.23v-1.07q0-1.1.55-1.72.57-.6 1.57-.6.23 0 .46.03t.48.1l-.1.68q-.16-.03-.34-.05-.17-.03-.4-.03-.67 0-1.03.42-.35.43-.35 1.2v1.07h1.77v.68h-1.77v6.73h-.82z"/><path d="M207.22 41.52v1.9h1.63v.66h-1.63v4.82q0 .73.26 1.03.27.3.7.3.2 0 .4 0 .18-.03.42-.07l.13.6q-.2.1-.5.14-.3.05-.6.05-.77 0-1.2-.5-.44-.48-.44-1.55v-4.82h-1.3v-.67h1.3v-1.88h.82z"/><path d="M212.17 48.4l.28 1.33h.04l.34-1.32 1.57-5h.72l1.57 5 .34 1.36h.05l.3-1.35 1.34-5h.85l-2.17 7.4h-.7l-1.63-5.05-.33-1.28h-.04l-.32 1.28-1.6 5.06h-.7l-2.16-7.4h.85l1.37 5z"/><path d="M225.87 50.8q-.08-.37-.12-.64-.03-.27-.03-.56-.4.6-1.1.97-.68.38-1.53.38-1.1 0-1.7-.57-.6-.58-.6-1.54 0-1.03.9-1.64.88-.62 2.4-.62h1.62v-.9q0-.8-.5-1.26-.52-.45-1.43-.45-.87 0-1.44.43-.56.43-.56 1.06h-.75v-.05q-.05-.82.74-1.47.8-.66 2.02-.66t1.97.63q.73.62.73 1.78v3.64q0 .4.04.76.05.37.15.73h-.85zm-2.7-.57q.9 0 1.57-.4.68-.43.98-1.07V47.2h-1.65q-1.1 0-1.78.5-.68.46-.68 1.17 0 .6.42.98.4.38 1.14.38z"/><path d="M232.1 44.12l-.6-.05q-.77 0-1.27.44t-.7 1.2v5.1h-.82v-7.4h.72l.1 1.24v.08q.33-.68.87-1.06t1.27-.4q.16 0 .3.04.15.02.25.05l-.1.77z"/><path d="M236.1 50.95q-1.38 0-2.3-1.02-.92-1.03-.92-2.6v-.38q0-1.58.9-2.63.93-1.05 2.23-1.05 1.37 0 2.15.87.78.86.78 2.3v.7h-5.23v.2q0 1.24.67 2.08.66.84 1.74.84.78 0 1.32-.2.54-.22.92-.62l.35.56q-.43.44-1.07.7-.64.25-1.52.25zm-.1-6.98q-.9 0-1.52.7-.6.7-.7 1.74v.04h4.33v-.2q0-.97-.55-1.62-.57-.65-1.54-.65z"/><path d="M241.55 50.8h-.94v-1.1h.95v1.1z"/><path d="M253.22 48.37q0-.82-.6-1.33-.62-.52-2.13-.92-1.64-.4-2.48-1.06-.84-.66-.84-1.77 0-1.15.93-1.87.96-.72 2.43-.72 1.54 0 2.48.87.96.85.93 2.08l-.02.04h-.74q0-1-.7-1.65-.72-.64-1.93-.64-1.2 0-1.87.54-.67.53-.67 1.33 0 .75.6 1.26.63.5 2.16.88 1.6.42 2.44 1.1.84.7.84 1.85 0 1.2-.98 1.9-.97.7-2.48.7-1.5 0-2.6-.74-1.1-.75-1.08-2.18l.02-.04h.75q0 1.16.87 1.72t2.04.56q1.18 0 1.9-.52.74-.52.74-1.37z"/><path d="M260.57 49.6q-.36.65-.96 1t-1.4.35q-1.18 0-1.84-.8-.66-.78-.66-2.45v-4.3h.82v4.3q0 1.36.45 1.95.47.6 1.32.6.92 0 1.47-.43t.77-1.14V43.4h.82v7.4h-.72l-.07-1.2z"/><path d="M266.26 50.26q.8 0 1.44-.46.62-.47.62-1.3h.72l.02.05q.03 1.02-.82 1.7-.86.7-1.98.7-1.5 0-2.34-1.03-.82-1.04-.82-2.67v-.28q0-1.62.83-2.66.83-1.03 2.32-1.03 1.22 0 2.03.72.8.7.78 1.88v.04h-.74q0-.9-.6-1.4-.6-.55-1.47-.55-1.2 0-1.76.86-.58.84-.58 2.14v.28q0 1.32.57 2.16.56.86 1.76.86z"/><path d="M271.58 44.68q.37-.67.98-1.04.62-.37 1.44-.37 1.17 0 1.8.73.62.72.62 2.25v4.56h-.82v-4.57q0-1.2-.48-1.72-.47-.5-1.3-.5-.85 0-1.4.43-.57.44-.84 1.17v5.2h-.82V40.15h.82v4.54z"/><path d="M12.44 67.3q0 1.68-.75 2.67-.76.98-2.08.98-.78 0-1.37-.3-.58-.3-.95-.83v3.83h-.82V63.4h.7l.1 1.16q.36-.62.94-.95.6-.33 1.38-.33 1.34 0 2.1 1.07.74 1.06.74 2.83v.14zm-.82-.13q0-1.4-.56-2.3Q10.5 64 9.42 64q-.83 0-1.35.38-.5.4-.77 1.02v3.56q.28.6.8.95.54.36 1.33.36 1.08 0 1.63-.8.56-.8.56-2.15v-.13z"/><path d="M17.68 64.11l-.6-.03q-.78 0-1.27.44-.5.44-.7 1.2v5.1h-.82v-7.4H15l.1 1.24v.08q.32-.68.86-1.06t1.3-.4q.14 0 .3.04.14.02.23.05l-.1.77z"/><path d="M18.44 67q0-1.63.9-2.68t2.37-1.05q1.5 0 2.4 1.05.88 1.05.88 2.68v.23q0 1.64-.9 2.68-.88 1.05-2.36 1.05-1.5 0-2.38-1.04-.9-1.03-.9-2.67V67zm.82.23q0 1.28.65 2.16t1.82.86q1.15 0 1.8-.87.65-.9.65-2.17V67q0-1.26-.65-2.15-.66-.88-1.8-.88t-1.8.88q-.66.88-.66 2.15v.23z"/><path d="M29.44 70.26q.8 0 1.43-.46.62-.47.62-1.3h.72v.05q.05 1.02-.8 1.7-.86.7-1.98.7-1.5 0-2.34-1.03-.82-1.04-.82-2.67v-.28q0-1.62.82-2.66.83-1.03 2.33-1.03 1.22 0 2.02.72.82.7.8 1.88l-.03.04h-.73q0-.9-.6-1.4-.6-.55-1.47-.55-1.2 0-1.76.86-.57.84-.57 2.14v.28q0 1.32.57 2.16.56.86 1.77.86z"/><path d="M36.72 70.95q-1.4 0-2.3-1.02-.93-1.03-.93-2.6v-.38q0-1.58.9-2.63.9-1.05 2.2-1.05 1.37 0 2.15.87.78.86.78 2.3v.7H34.3v.2q0 1.24.67 2.08.67.84 1.75.84.76 0 1.3-.2.54-.22.92-.62l.35.56q-.42.44-1.07.7-.63.25-1.5.25zm-.1-6.98q-.92 0-1.53.7-.63.7-.73 1.74v.04h4.35v-.2q0-.97-.57-1.62-.57-.65-1.54-.65z"/><path d="M40.84 67.17q0-1.77.74-2.83.76-1.07 2.1-1.07.77 0 1.33.33.58.33.96.93v-4.4h.8v10.68h-.7l-.08-1.07q-.37.6-.95.9-.58.32-1.37.32-1.33 0-2.08-.98-.74-1-.74-2.66v-.13zm.82.14q0 1.35.53 2.15.53.8 1.6.8.8 0 1.33-.37.53-.35.83-.98v-3.47q-.28-.64-.8-1.04-.5-.4-1.33-.4-1.08 0-1.63.87-.54.9-.54 2.3v.14z"/><path d="M53.8 69.6q-.36.65-.96 1t-1.42.35q-1.17 0-1.83-.8-.68-.78-.68-2.45v-4.3h.83v4.3q0 1.36.45 1.95.47.6 1.32.6.93 0 1.48-.43t.77-1.14V63.4h.82v7.4h-.73l-.07-1.2z"/><path d="M60.15 64.11l-.6-.03q-.78 0-1.28.44t-.7 1.2v5.1h-.83v-7.4h.72l.1 1.24v.08q.33-.68.87-1.06t1.28-.4q.17 0 .3.04.16.02.26.05l-.1.77z"/><path d="M64.14 70.95q-1.4 0-2.3-1.02-.92-1.03-.92-2.6v-.38q0-1.58.9-2.63.92-1.05 2.22-1.05 1.36 0 2.14.87.78.86.78 2.3v.7h-5.22v.2q0 1.24.66 2.08.66.84 1.74.84.77 0 1.3-.2.55-.22.93-.62l.35.56q-.42.44-1.06.7-.64.25-1.52.25zm-.1-6.98q-.9 0-1.52.7t-.72 1.74v.04h4.34v-.2q0-.97-.56-1.62-.57-.65-1.54-.65z"/><path d="M74.78 70.95q-1.4 0-2.3-1.02-.93-1.03-.93-2.6v-.38q0-1.58.9-2.63.93-1.05 2.23-1.05 1.36 0 2.14.87.77.86.77 2.3v.7h-5.23v.2q0 1.24.66 2.08.67.84 1.75.84.76 0 1.3-.2.54-.22.93-.62l.36.56q-.42.44-1.06.7-.64.25-1.52.25zm-.1-6.98q-.9 0-1.53.7-.6.7-.72 1.74l.02.04h4.33v-.2q0-.97-.57-1.62-.55-.65-1.52-.65z"/><path d="M79.95 63.4l.07 1.3q.36-.68.96-1.05.6-.38 1.43-.38 1.22 0 1.85.74.62.74.62 2.3v4.5h-.82v-4.5q0-1.26-.47-1.8-.48-.5-1.35-.5-.86 0-1.4.44-.55.45-.8 1.2v5.17h-.8v-7.4h.72z"/><path d="M91.44 68.93q0-.52-.43-.9-.4-.4-1.52-.65-1.33-.28-1.97-.76-.62-.47-.62-1.33 0-.86.72-1.44.7-.6 1.9-.6 1.24 0 1.97.64.73.6.7 1.54l-.02.04h-.75q0-.6-.52-1.06-.52-.45-1.4-.45-.9 0-1.34.4-.44.37-.44.9 0 .5.38.84.4.35 1.55.6 1.3.3 1.97.8.66.5.66 1.4 0 .9-.75 1.48-.74.57-1.97.57-1.35 0-2.12-.64-.75-.63-.7-1.52v-.04h.75q.05.8.65 1.16.6.36 1.43.36.9 0 1.4-.4.5-.38.5-.93z"/><path d="M99 69.6q-.36.65-.96 1t-1.42.35q-1.17 0-1.83-.8-.68-.78-.68-2.45v-4.3h.82v4.3q0 1.36.46 1.95.47.6 1.3.6.94 0 1.5-.43t.77-1.14V63.4h.82v7.4h-.73L99 69.6z"/><path d="M105.35 64.11l-.6-.03q-.78 0-1.28.44t-.7 1.2v5.1h-.82v-7.4h.7l.12 1.24v.08q.32-.68.86-1.06t1.28-.4q.17 0 .3.04.16.02.26.05l-.1.77z"/><path d="M109.34 70.95q-1.4 0-2.3-1.02-.93-1.03-.93-2.6v-.38q0-1.58.92-2.63.92-1.05 2.22-1.05 1.36 0 2.14.87.78.86.78 2.3v.7h-5.23v.2q0 1.24.67 2.08.66.84 1.74.84.77 0 1.3-.2.55-.22.93-.62l.35.56q-.42.44-1.06.7-.64.25-1.52.25zm-.1-6.98q-.9 0-1.53.7-.6.7-.7 1.74v.04h4.34v-.2q0-.97-.56-1.62-.57-.65-1.54-.65z"/><path d="M118.2 68.93q0-.52-.42-.9-.42-.4-1.54-.65-1.32-.28-1.96-.76-.63-.47-.63-1.33 0-.86.7-1.44.73-.6 1.9-.6 1.26 0 2 .64.72.6.68 1.54v.04h-.77q0-.6-.52-1.06-.5-.45-1.4-.45-.88 0-1.33.4-.44.37-.44.9 0 .5.4.84.38.35 1.53.6 1.3.3 1.97.8.65.5.65 1.4 0 .9-.75 1.48-.74.57-1.97.57-1.35 0-2.12-.64-.77-.63-.73-1.52l.02-.04h.75q.05.8.65 1.16.6.36 1.43.36.88 0 1.4-.4.5-.38.5-.93z"/><path d="M127.08 70.26q.8 0 1.44-.46.62-.47.62-1.3h.72l.02.05q.03 1.02-.82 1.7-.86.7-1.98.7-1.5 0-2.34-1.03-.82-1.04-.82-2.67v-.28q0-1.62.83-2.66.83-1.03 2.32-1.03 1.22 0 2.03.72.8.7.78 1.88v.04h-.74q0-.9-.6-1.4-.6-.55-1.47-.55-1.2 0-1.76.86-.56.84-.56 2.14v.28q0 1.32.57 2.16.58.86 1.78.86z"/><path d="M131.13 67q0-1.63.9-2.68t2.37-1.05q1.48 0 2.38 1.05.9 1.05.9 2.68v.23q0 1.64-.9 2.68-.9 1.05-2.37 1.05-1.48 0-2.37-1.04-.9-1.03-.9-2.67V67zm.82.23q0 1.28.65 2.16t1.8.86q1.15 0 1.8-.87.66-.9.66-2.17V67q0-1.26-.66-2.15-.65-.88-1.8-.88t-1.8.88q-.65.88-.65 2.15v.23z"/><path d="M140.1 63.4l.08 1.3q.35-.68.95-1.05.6-.38 1.44-.38 1.2 0 1.83.74.63.74.63 2.3v4.5h-.82v-4.5q0-1.26-.47-1.8-.47-.5-1.35-.5-.86 0-1.4.44-.55.45-.78 1.2v5.17h-.82v-7.4h.72z"/><path d="M148.46 61.52v1.9h1.63v.66h-1.64v4.82q0 .73.26 1.03.27.3.7.3.2 0 .4 0 .18-.03.42-.07l.13.6q-.2.1-.5.14-.3.05-.6.05-.77 0-1.2-.5-.44-.48-.44-1.55v-4.82h-1.28v-.67h1.28v-1.88h.83z"/><path d="M154.6 70.95q-1.4 0-2.32-1.02-.92-1.03-.92-2.6v-.38q0-1.58.9-2.63.93-1.05 2.23-1.05 1.35 0 2.13.87.78.86.78 2.3v.7h-5.22v.2q0 1.24.67 2.08.66.84 1.74.84.76 0 1.3-.2.54-.22.92-.62l.35.56q-.42.44-1.06.7-.63.25-1.5.25zm-.1-6.98q-.92 0-1.54.7-.6.7-.7 1.74v.04h4.33v-.2q0-.97-.57-1.62-.57-.65-1.54-.65z"/><path d="M159.76 63.4l.08 1.3q.35-.68.95-1.05.6-.38 1.43-.38 1.2 0 1.83.74.63.74.63 2.3v4.5h-.83v-4.5q0-1.26-.48-1.8-.48-.5-1.36-.5-.86 0-1.4.44-.55.45-.78 1.2v5.17h-.82v-7.4h.72z"/><path d="M168.12 61.52v1.9h1.63v.66h-1.63v4.82q0 .73.26 1.03.27.3.7.3.2 0 .4 0 .18-.03.42-.07l.13.6q-.2.1-.5.14-.3.05-.6.05-.77 0-1.2-.5-.44-.48-.44-1.55v-4.82H166v-.67h1.3v-1.88h.82z"/><path d="M179.74 69.6q-.36.65-.96 1t-1.42.35q-1.17 0-1.83-.8-.66-.78-.66-2.45v-4.3h.82v4.3q0 1.36.44 1.95.47.6 1.32.6.93 0 1.48-.43.55-.4.77-1.14V63.4h.83v7.4h-.72l-.06-1.2z"/><path d="M183.42 63.4l.08 1.3q.35-.68.95-1.05.6-.38 1.44-.38 1.2 0 1.82.74.63.74.63 2.3v4.5h-.82v-4.5q0-1.26-.48-1.8-.47-.5-1.35-.5-.86 0-1.4.44-.55.45-.78 1.2v5.17h-.82v-7.4h.72z"/><path d="M191.4 70.8h-.8v-7.4h.8v7.4zm0-9.5h-.8v-1.16h.8v1.15z"/><path d="M193.33 67.17q0-1.77.75-2.83.75-1.07 2.1-1.07.75 0 1.3.33.6.3.96.9l.08-1.1h.7v10.25h-.8v-3.8q-.38.53-.95.8-.56.3-1.32.3-1.32 0-2.07-.98-.75-1-.75-2.66v-.13zm.82.14q0 1.35.53 2.16.54.8 1.62.8.77 0 1.3-.34.52-.35.82-.94v-3.63q-.28-.6-.8-1-.52-.38-1.3-.38-1.08 0-1.63.9-.55.9-.55 2.3v.14z"/><path d="M206.3 69.6q-.37.65-.97 1t-1.42.35q-1.16 0-1.82-.8-.66-.78-.66-2.45v-4.3h.82v4.3q0 1.36.45 1.95.46.6 1.3.6.94 0 1.5-.43t.76-1.14V63.4h.82v7.4h-.72l-.07-1.2z"/><path d="M212.02 70.95q-1.4 0-2.3-1.02-.93-1.03-.93-2.6v-.38q0-1.58.9-2.63.92-1.05 2.22-1.05 1.36 0 2.14.87.78.86.78 2.3v.7h-5.23v.2q0 1.24.68 2.08.66.84 1.74.84.77 0 1.3-.2.55-.22.93-.62l.35.56q-.42.44-1.06.7-.64.25-1.52.25zm-.1-6.98q-.9 0-1.53.7-.62.7-.72 1.74v.04h4.34v-.2q0-.97-.56-1.62-.57-.65-1.54-.65z"/><path d="M217.18 63.4l.08 1.3q.35-.68.95-1.05.62-.38 1.45-.38 1.2 0 1.83.74.63.74.63 2.3v4.5h-.8v-4.5q0-1.26-.5-1.8-.46-.5-1.34-.5-.86 0-1.4.44-.55.45-.78 1.2v5.17h-.82v-7.4h.72z"/><path d="M227.03 70.95q-1.4 0-2.3-1.02-.93-1.03-.93-2.6v-.38q0-1.58.9-2.63.93-1.05 2.23-1.05 1.36 0 2.14.87.78.86.78 2.3v.7h-5.23v.2q0 1.24.67 2.08.65.84 1.73.84.77 0 1.3-.2.55-.22.93-.62l.35.56q-.4.44-1.05.7-.64.25-1.52.25zm-.1-6.98q-.9 0-1.53.7-.6.7-.7 1.74v.04h4.33v-.2q0-.97-.56-1.62-.57-.65-1.54-.65z"/><path d="M235.9 68.93q0-.52-.43-.9-.42-.4-1.54-.65-1.32-.28-1.96-.76-.63-.47-.63-1.33 0-.86.7-1.44.73-.6 1.9-.6 1.26 0 2 .64.72.6.68 1.54v.04h-.77q0-.6-.52-1.06-.5-.45-1.4-.45-.88 0-1.33.4-.45.37-.45.9 0 .5.4.84.38.35 1.53.6 1.32.3 1.98.8.65.5.65 1.4 0 .9-.74 1.48-.74.57-1.97.57-1.36 0-2.13-.64-.77-.63-.73-1.52l.02-.04h.75q.06.8.66 1.16.6.36 1.43.36.87 0 1.4-.4.5-.38.5-.93z"/><path d="M243.04 68.93q0-.52-.43-.9-.4-.4-1.53-.65-1.32-.28-1.96-.76-.62-.47-.62-1.33 0-.86.7-1.44.73-.6 1.9-.6 1.26 0 2 .64.72.6.68 1.54v.04h-.77q0-.6-.53-1.06-.5-.45-1.4-.45-.88 0-1.33.4-.45.37-.45.9 0 .5.38.84.4.35 1.54.6 1.32.3 1.98.8.65.5.65 1.4 0 .9-.75 1.48-.74.57-1.97.57-1.35 0-2.12-.64-.76-.63-.72-1.52l.02-.04h.75q.05.8.65 1.16.6.36 1.43.36.88 0 1.4-.4.5-.38.5-.93z"/><path d="M246.74 70.8h-.94v-1.1h.94v1.1z"/><path d="M260 66.64q0 1.93-1.07 3.12-1.05 1.2-2.83 1.2-1.75 0-2.8-1.2-1.03-1.2-1.03-3.12v-1.62q0-1.92 1.03-3.1t2.8-1.2q1.77 0 2.83 1.2T260 65v1.63zm-.82-1.63q0-1.6-.82-2.6-.82-.97-2.27-.97-1.43 0-2.22.98-.8 1-.8 2.6v1.65q0 1.62.8 2.6.8 1 2.22 1 1.46 0 2.26-1 .82-.97.82-2.6V65z"/><path d="M266.78 69.6q-.36.65-.96 1t-1.42.35q-1.17 0-1.83-.8-.66-.78-.66-2.45v-4.3h.83v4.3q0 1.36.45 1.95.47.6 1.32.6.93 0 1.48-.43t.77-1.14V63.4h.82v7.4h-.72l-.07-1.2z"/><path d="M273.13 64.11l-.6-.03q-.78 0-1.28.44t-.7 1.2v5.1h-.82v-7.4h.7l.12 1.24v.08q.32-.68.86-1.06t1.3-.4q.15 0 .3.04.14.02.24.05l-.1.77z"/><path d="M33.24 90.26q.8 0 1.43-.46.62-.47.62-1.3H36v.05q.05 1.02-.8 1.7-.86.7-1.98.7-1.5 0-2.34-1.03-.82-1.04-.82-2.67v-.28q0-1.62.82-2.66.83-1.03 2.33-1.03 1.22 0 2.02.72.82.7.8 1.88l-.03.04h-.73q0-.9-.6-1.4-.6-.55-1.47-.55-1.2 0-1.76.86-.57.84-.57 2.14v.28q0 1.32.57 2.16.56.86 1.77.86z"/><path d="M38.66 90.8h-.82V80.15h.82V90.8z"/><path d="M41.83 90.8h-.8v-7.4h.8v7.4zm0-9.5h-.8v-1.16h.8v1.15z"/><path d="M46.86 90.95q-1.4 0-2.3-1.02-.93-1.03-.93-2.6v-.38q0-1.58.9-2.63.93-1.05 2.23-1.05 1.36 0 2.14.87.78.86.78 2.3v.7h-5.23v.2q0 1.24.67 2.08.66.84 1.74.84.77 0 1.3-.2.55-.22.93-.62l.34.56q-.42.44-1.06.7-.64.25-1.52.25zm-.1-6.98q-.9 0-1.53.7-.6.7-.7 1.74v.04h4.33v-.2q0-.97-.56-1.62-.57-.65-1.54-.65z"/><path d="M52.03 83.4l.07 1.3q.36-.68.96-1.05.6-.38 1.44-.38 1.2 0 1.83.74.63.74.63 2.3v4.5h-.82v-4.5q0-1.26-.48-1.8-.47-.5-1.35-.5-.85 0-1.4.44-.54.45-.78 1.2v5.17h-.82v-7.4h.73z"/><path d="M60.38 81.52v1.9H62v.66H60.4v4.82q0 .73.26 1.03.27.3.7.3.2 0 .4 0 .18-.03.43-.07l.12.6q-.22.1-.5.14t-.6.05q-.78 0-1.2-.5-.45-.48-.45-1.55v-4.82h-1.27v-.67h1.27v-1.88h.83z"/><path d="M68.17 88.93q0-.52-.43-.9-.42-.4-1.53-.65-1.32-.28-1.96-.76-.62-.47-.62-1.33 0-.86.7-1.44.72-.6 1.9-.6 1.25 0 1.98.64.73.6.7 1.54v.04h-.77q0-.6-.52-1.06-.5-.45-1.38-.45-.9 0-1.35.4-.44.37-.44.9 0 .5.38.84.4.35 1.56.6 1.32.3 1.97.8.66.5.66 1.4 0 .9-.76 1.48-.75.57-1.98.57-1.35 0-2.12-.64-.76-.63-.72-1.52v-.04h.76q.05.8.65 1.16.6.36 1.43.36.9 0 1.4-.4.52-.38.52-.93z"/><path d="M73.98 87.17q0-1.77.75-2.83.76-1.07 2.1-1.07.8 0 1.37.35.57.34.95.97l.1-1.2h.68v7.3q0 1.44-.8 2.27-.78.83-2.18.83-.54 0-1.14-.13-.6-.13-1.04-.36l.2-.68q.45.22.93.33.48.1 1.03.1 1.08 0 1.63-.6.55-.63.55-1.74v-.92q-.36.56-.94.87-.57.3-1.34.3-1.33 0-2.1-1-.74-.98-.74-2.64v-.13zm.82.14q0 1.35.55 2.15.54.8 1.62.8.8 0 1.32-.37.53-.36.8-1v-3.43q-.25-.64-.77-1.05Q77.8 84 77 84q-1.1 0-1.65.87-.55.9-.55 2.3v.14z"/><path d="M84.87 90.95q-1.4 0-2.3-1.02-.93-1.03-.93-2.6v-.38q0-1.58.9-2.63.93-1.05 2.23-1.05 1.36 0 2.14.87.78.86.78 2.3v.7h-5.22v.2q0 1.24.66 2.08.67.84 1.75.84.76 0 1.3-.2.54-.22.93-.62l.35.56q-.42.44-1.06.7-.65.25-1.53.25zm-.1-6.98q-.9 0-1.53.7-.6.7-.72 1.74l.02.04h4.33v-.2q0-.97-.57-1.62-.56-.65-1.53-.65z"/><path d="M90.6 81.52v1.9h1.62v.66H90.6v4.82q0 .73.26 1.03.26.3.7.3.2 0 .38 0 .2-.03.44-.07l.12.6q-.2.1-.5.14-.3.05-.58.05-.78 0-1.22-.5-.43-.48-.43-1.55v-4.82H88.5v-.67h1.27v-1.88h.83z"/><path d="M96.92 87q0-1.63.9-2.68t2.37-1.05q1.47 0 2.37 1.05t.9 2.68v.23q0 1.64-.9 2.68-.9 1.05-2.37 1.05-1.5 0-2.38-1.04-.9-1.03-.9-2.67V87zm.82.23q0 1.28.65 2.16t1.8.86q1.14 0 1.8-.87.65-.9.65-2.17V87q0-1.26-.66-2.15-.66-.88-1.8-.88t-1.8.88q-.66.88-.66 2.15v.23z"/><path d="M105.9 83.4l.08 1.3q.35-.68.95-1.05.6-.38 1.44-.38 1.2 0 1.83.74.63.74.63 2.3v4.5H110v-4.5q0-1.26-.47-1.8-.47-.5-1.35-.5-.86 0-1.4.44-.55.45-.78 1.2v5.17h-.82v-7.4h.72z"/><path d="M113.88 90.8h-.8V80.15h.8V90.8z"/><path d="M118.23 88.8l.26.9h.03l2.24-6.3h.9l-3.2 8.6q-.3.74-.75 1.27t-1.34.53q-.14 0-.34-.04-.2-.03-.3-.06l.1-.68q.07 0 .25.02.17.02.26.02.53 0 .85-.38.33-.38.56-.97l.4-1-2.87-7.3h.9l2.03 5.4z"/><path d="M129.97 90.86h-.82V81.7l-2.53.3v-.57l3.35-.6v10.02z"/><path d="M140.34 86.94q0 1.93-.83 2.97-.83 1.05-2.3 1.05-1.5 0-2.34-1.04-.84-1.03-.84-2.96v-2.22q0-1.92.84-2.96.83-1.05 2.3-1.05t2.34 1.06q.84 1.04.84 2.96v2.22zm-.82-2.35q0-1.54-.6-2.37-.6-.82-1.75-.82t-1.73.83q-.6.83-.6 2.36v2.47q0 1.52.6 2.36.6.83 1.75.83t1.72-.83q.6-.84.6-2.36V84.6z"/><path d="M148.52 86.94q0 1.93-.83 2.97-.85 1.05-2.33 1.05t-2.33-1.04q-.84-1.03-.84-2.96v-2.22q0-1.92.84-2.96.83-1.05 2.3-1.05t2.34 1.06q.84 1.04.84 2.96v2.22zm-.82-2.35q0-1.54-.6-2.37-.6-.82-1.75-.82t-1.73.83q-.6.83-.6 2.36v2.47q0 1.52.6 2.36.6.83 1.75.83t1.73-.83q.6-.84.6-2.36V84.6z"/><path d="M150.2 82.77q0-.87.54-1.46.54-.6 1.42-.6.87 0 1.4.6.54.6.54 1.47v.53q0 .86-.53 1.45-.54.6-1.4.6-.88 0-1.42-.6-.54-.6-.54-1.45v-.53zm.67.53q0 .6.33 1.02.34.42.97.42.6 0 .94-.42.34-.42.34-1.02v-.53q0-.6-.33-1.03-.33-.43-.94-.43-.62 0-.96.44-.33.43-.33 1.03v.53zm4.34 5.07q0-.86.55-1.45.54-.6 1.4-.6.88 0 1.42.6.54.6.54 1.45v.54q0 .87-.53 1.46-.53.6-1.4.6-.88 0-1.42-.6-.54-.6-.54-1.45v-.53zm.68.54q0 .6.33 1.03.35.43.98.43.6 0 .93-.43.35-.42.35-1.02v-.53q0-.62-.34-1.03-.32-.42-.94-.42-.6 0-.95.42-.32.42-.32 1.03v.54zM152.6 90l-.5-.33 4.86-7.78.5.33-4.86 7.78z"/><path d="M163.86 87q0-1.63.9-2.68t2.37-1.05q1.48 0 2.38 1.05t.9 2.68v.23q0 1.64-.9 2.68-.88 1.05-2.36 1.05-1.5 0-2.38-1.04-.9-1.03-.9-2.67V87zm.82.23q0 1.28.65 2.16.65.86 1.8.86t1.8-.87q.66-.9.66-2.17V87q0-1.26-.67-2.15-.65-.88-1.8-.88t-1.8.88q-.65.88-.65 2.15v.23z"/><path d="M175.5 84.11l-.6-.03q-.77 0-1.27.44t-.7 1.2v5.1h-.82v-7.4h.72l.1 1.24v.08q.33-.68.87-1.06t1.27-.4q.16 0 .3.04.15.02.25.05l-.1.77z"/><path d="M177.78 90.8h-.8v-7.4h.8v7.4zm0-9.5h-.8v-1.16h.8v1.15z"/><path d="M179.72 87.17q0-1.77.75-2.83.76-1.07 2.1-1.07.8 0 1.37.35.57.34.95.97l.08-1.2h.7v7.3q0 1.44-.8 2.27-.78.83-2.2.83-.53 0-1.13-.13-.6-.13-1.05-.36l.2-.68q.45.22.93.33.5.1 1.04.1 1.08 0 1.63-.6.55-.63.55-1.74v-.92q-.37.56-.95.87-.57.3-1.34.3-1.33 0-2.1-1-.74-.98-.74-2.64v-.13zm.82.14q0 1.35.55 2.15.53.8 1.6.8.8 0 1.33-.37.54-.36.82-1v-3.43q-.26-.64-.78-1.05-.52-.4-1.34-.4-1.08 0-1.64.87-.56.9-.56 2.3v.14z"/><path d="M188.75 90.8h-.8v-7.4h.8v7.4zm0-9.5h-.8v-1.16h.8v1.15z"/><path d="M191.73 83.4l.08 1.3q.36-.68.96-1.05.6-.38 1.44-.38 1.2 0 1.83.74.63.74.63 2.3v4.5h-.82v-4.5q0-1.26-.48-1.8-.47-.5-1.35-.5-.85 0-1.4.44-.54.45-.77 1.2v5.17H191v-7.4h.73z"/><path d="M203.48 90.8q-.08-.37-.12-.64-.03-.27-.03-.56-.4.6-1.1.97-.68.38-1.53.38-1.08 0-1.68-.57-.6-.58-.6-1.54 0-1.03.88-1.64.9-.62 2.4-.62h1.63v-.9q0-.8-.5-1.26-.52-.45-1.44-.45-.86 0-1.43.43-.56.43-.56 1.06h-.74v-.05q-.05-.82.74-1.47.8-.66 2.03-.66 1.22 0 1.97.63.74.62.74 1.78v3.64q0 .4.04.76.05.37.15.73h-.85zm-2.7-.57q.9 0 1.57-.4.68-.43.98-1.07V87.2h-1.65q-1.1 0-1.78.5-.67.46-.67 1.17 0 .6.42.98.4.38 1.14.38z"/><path d="M207.23 90.8h-.8V80.15h.8V90.8z"/><path d="M218.86 87.3q0 1.68-.75 2.67-.74.98-2.06.98-.78 0-1.37-.3-.58-.3-.95-.83v3.83h-.82V83.4h.7l.1 1.16q.36-.62.94-.95.6-.33 1.38-.33 1.34 0 2.1 1.07.74 1.06.74 2.83v.14zm-.82-.13q0-1.4-.56-2.3-.56-.9-1.64-.9-.83 0-1.35.4-.52.4-.78 1.03v3.55q.28.6.8.96.54.36 1.33.36 1.08 0 1.63-.8.56-.8.56-2.15v-.13z"/><path d="M225.38 90.8q-.08-.37-.12-.64-.03-.27-.03-.56-.4.6-1.1.97-.68.38-1.53.38-1.08 0-1.68-.57-.6-.58-.6-1.54 0-1.03.88-1.64.9-.62 2.4-.62h1.63v-.9q0-.8-.5-1.26-.52-.45-1.43-.45-.86 0-1.43.43-.56.43-.56 1.06h-.74v-.05q-.05-.82.74-1.47.8-.66 2.03-.66 1.22 0 1.97.63.74.62.74 1.78v3.64q0 .4.04.76.05.37.15.73h-.85zm-2.7-.57q.9 0 1.57-.4.68-.43.98-1.07V87.2h-1.65q-1.1 0-1.78.5-.67.46-.67 1.17 0 .6.42.98.4.38 1.14.38z"/><path d="M234.17 87.3q0 1.68-.75 2.67-.75.98-2.07.98-.78 0-1.37-.3-.58-.3-.95-.83v3.83h-.82V83.4h.7l.1 1.16q.37-.62.95-.95.6-.33 1.38-.33 1.34 0 2.1 1.07.74 1.06.74 2.83v.14zm-.82-.13q0-1.4-.56-2.3-.57-.9-1.65-.9-.83 0-1.35.4-.5.4-.77 1.03v3.55q.28.6.8.96.54.36 1.33.36 1.08 0 1.63-.8.55-.8.55-2.15v-.13z"/><path d="M238.8 90.95q-1.4 0-2.32-1.02-.92-1.03-.92-2.6v-.38q0-1.58.9-2.63.93-1.05 2.23-1.05 1.35 0 2.13.87.78.86.78 2.3v.7h-5.22v.2q0 1.24.67 2.08.66.84 1.74.84.76 0 1.3-.2.54-.22.92-.62l.35.56q-.42.44-1.06.7-.63.25-1.5.25zm-.1-6.98q-.92 0-1.54.7-.6.7-.7 1.74v.04h4.33v-.2q0-.97-.57-1.62-.57-.65-1.54-.65z"/><path d="M246.63 84.11l-.6-.03q-.78 0-1.28.44t-.7 1.2v5.1h-.82v-7.4h.7l.12 1.24v.08q.32-.68.86-1.06t1.3-.4q.15 0 .3.04.14.02.24.05l-.1.77z"/><path d="M248.14 90.8h-.94v-1.1h.94v1.1z"/></g></svg>