<svg xmlns="http://www.w3.org/2000/svg" width="304.01" height="93.651" version="1"><text x="151.935" y="-31.192" fill="#fff" style="text-transform:uppercase" font-weight="300" font-size="16" font-family="Roboto" text-anchor="middle"><tspan x="152.435" y="-18.192">Formatting &amp; Editing</tspan></text><g fill="#fff"><path d="M16.43 6h-4.8v4.12h5.5v.7h-6.3V.84h6.27v.7h-5.46V5.3h4.8V6z"/><path d="M18.2 7.17q0-1.77.76-2.83.75-1.07 2.1-1.07.76 0 1.33.33.56.33.93.93V.13h.8v10.68h-.7l-.08-1.07q-.37.6-.95.9t-1.37.32q-1.32 0-2.07-.98-.75-1-.75-2.66v-.13zm.83.14q0 1.35.53 2.15.54.8 1.62.8.8 0 1.32-.37.54-.35.83-.98V5.43q-.28-.64-.8-1.04-.5-.4-1.33-.4-1.08 0-1.63.87-.54.9-.54 2.3v.14z"/><path d="M27.24 10.8h-.8V3.4h.8v7.4zm0-9.5h-.8V.13h.8V1.3z"/><path d="M30.78 1.52v1.9h1.63v.66H30.8V8.9q0 .73.26 1.03.27.3.7.3.2 0 .4 0 .18-.03.43-.07l.12.6q-.22.1-.5.14-.3.05-.6.05-.78 0-1.2-.5-.45-.48-.45-1.55V4.08h-1.27V3.4h1.27V1.53h.83z"/><path d="M35.06 10.8h-.8V3.4h.8v7.4zm0-9.5h-.8V.13h.8V1.3z"/><path d="M38.04 3.4l.08 1.3q.35-.68.95-1.05.6-.38 1.44-.38 1.2 0 1.84.74.63.74.63 2.3v4.5h-.82V6.3q0-1.26-.48-1.8-.47-.5-1.34-.5-.87 0-1.4.44-.55.45-.8 1.2v5.17h-.8V3.4h.7z"/><path d="M44.8 7.17q0-1.77.74-2.83.76-1.07 2.1-1.07.8 0 1.37.35.58.34.96.97l.1-1.2h.68v7.3q0 1.44-.8 2.27-.78.82-2.18.82-.54 0-1.14-.13-.6-.13-1.05-.36l.2-.68q.45.22.93.33.5.1 1.04.1 1.08 0 1.63-.6.55-.63.55-1.74V9.8q-.37.56-.95.87-.57.3-1.34.3-1.33 0-2.1-1-.74-.98-.74-2.64v-.13zm.8.14q0 1.35.56 2.15.54.8 1.62.8.8 0 1.32-.37.54-.36.82-1V5.45q-.26-.64-.78-1.05-.52-.4-1.34-.4-1.08 0-1.64.87-.55.9-.55 2.3v.14z"/><path d="M61 10.8q-.08-.37-.1-.64-.05-.27-.05-.56-.4.6-1.1.97-.67.38-1.53.38-1.08 0-1.68-.57-.6-.58-.6-1.54 0-1.03.9-1.64.88-.62 2.38-.62h1.63v-.9q0-.8-.5-1.26-.5-.45-1.43-.45-.86 0-1.42.43-.56.43-.56 1.06h-.76V5.4q-.05-.82.74-1.47.8-.66 2.03-.66 1.23 0 1.97.63.75.62.75 1.78v3.64q0 .4.04.76.06.37.16.73H61zm-2.68-.57q.88 0 1.56-.4.67-.43.97-1.07V7.2H59.2q-1.1 0-1.78.5-.66.46-.66 1.17 0 .6.4.98.43.38 1.16.38z"/><path d="M64.56 3.4l.08 1.3q.36-.68.96-1.05.6-.38 1.43-.38 1.2 0 1.83.74.63.74.63 2.3v4.5h-.83V6.3q0-1.26-.48-1.8-.48-.5-1.35-.5-.86 0-1.4.44-.55.45-.8 1.2v5.17h-.8V3.4h.7z"/><path d="M71.3 7.17q0-1.77.76-2.83.75-1.07 2.1-1.07.76 0 1.33.33.56.33.93.93V.13h.82v10.68h-.73l-.07-1.07q-.37.6-.95.9t-1.36.32q-1.33 0-2.08-.98-.75-1-.75-2.66v-.13zm.83.14q0 1.35.54 2.15.54.8 1.62.8.78 0 1.3-.37.54-.35.83-.98V5.43q-.28-.64-.8-1.04-.5-.4-1.33-.4-1.08 0-1.63.87-.54.9-.54 2.3v.14z"/><path d="M83.44 10.8V4.1h-1.22V3.4h1.22V2.34q0-1.1.55-1.72.55-.6 1.56-.6.22 0 .46.03t.47.1l-.1.68q-.18-.03-.36-.05-.17-.03-.4-.03-.67 0-1.03.42-.34.43-.34 1.2V3.4h1.76v.68h-1.76v6.73h-.82z"/><path d="M86.98 7q0-1.63.9-2.68t2.37-1.05q1.48 0 2.38 1.05.9 1.05.9 2.68v.23q0 1.64-.9 2.68-.9 1.05-2.37 1.05-1.5 0-2.38-1.04-.9-1.03-.9-2.67V7zm.82.23q0 1.28.65 2.16t1.8.86q1.15 0 1.8-.87.66-.9.66-2.17V7q0-1.26-.65-2.15-.65-.88-1.8-.88t-1.8.88q-.65.9-.65 2.15v.23z"/><path d="M98.64 4.12l-.6-.05q-.78 0-1.28.44t-.7 1.2v5.1h-.83V3.4h.72l.1 1.24v.08q.32-.68.86-1.06t1.3-.4q.16 0 .3.04.15.02.25.05l-.1.77z"/><path d="M100.68 3.4l.08 1.23q.35-.64.94-1 .6-.36 1.4-.36.86 0 1.43.4.57.42.82 1.27.33-.78.95-1.22.62-.45 1.5-.45 1.2 0 1.83.8.65.78.65 2.42v4.3h-.82V6.5q0-1.37-.5-1.93-.47-.56-1.33-.56-.95 0-1.47.58-.52.6-.64 1.52 0 .05 0 .14 0 .1 0 .13v4.44h-.82V6.5q0-1.34-.5-1.9-.48-.6-1.33-.6-.87 0-1.38.45-.52.44-.72 1.18v5.2h-.83V3.4h.73z"/><path d="M117.1 10.8q-.1-.37-.13-.64t-.03-.56q-.4.6-1.1.97-.68.38-1.53.38-1.07 0-1.67-.57-.6-.58-.6-1.54 0-1.03.88-1.64.9-.62 2.4-.62h1.64v-.9q0-.8-.5-1.26-.52-.45-1.43-.45-.85 0-1.42.43-.56.43-.56 1.06h-.75V5.4q-.05-.82.74-1.47.8-.66 2.04-.66 1.22 0 1.97.63.75.62.75 1.78v3.64q0 .4.04.76.04.37.14.73h-.85zm-2.7-.57q.9 0 1.56-.4.68-.43.98-1.07V7.2h-1.65q-1.12 0-1.8.5-.66.46-.66 1.17 0 .6.42.98.4.38 1.14.38z"/><path d="M121.2 1.52v1.9h1.64v.66h-1.63V8.9q0 .73.27 1.03.27.3.7.3.2 0 .4 0 .18-.03.42-.07l.12.6q-.2.1-.5.14-.3.05-.6.05-.77 0-1.2-.5-.44-.48-.44-1.55V4.08h-1.28V3.4h1.28V1.53h.83z"/><path d="M125.86 1.52v1.9h1.63v.66h-1.64V8.9q0 .73.26 1.03.27.3.7.3.2 0 .4 0 .18-.03.42-.07l.13.6q-.2.1-.5.14-.3.05-.6.05-.77 0-1.2-.5-.44-.48-.44-1.55V4.08h-1.28V3.4h1.28V1.53h.83z"/><path d="M130.14 10.8h-.8V3.4h.8v7.4zm0-9.5h-.8V.13h.8V1.3z"/><path d="M133.12 3.4l.08 1.3q.35-.68.95-1.05.6-.38 1.44-.38 1.2 0 1.82.74.63.74.63 2.3v4.5h-.82V6.3q0-1.26-.48-1.8-.47-.5-1.35-.5-.86 0-1.4.44-.55.45-.78 1.2v5.17h-.82V3.4h.72z"/><path d="M139.86 7.17q0-1.77.75-2.83.77-1.07 2.12-1.07.78 0 1.36.35.57.34.95.97l.1-1.2h.68v7.3q0 1.44-.78 2.27-.78.82-2.2.82-.53 0-1.13-.13-.6-.13-1.06-.36l.2-.68q.45.22.93.33.5.1 1.04.1 1.1 0 1.64-.6.55-.63.55-1.74V9.8q-.38.56-.96.87-.57.3-1.34.3-1.33 0-2.1-1-.74-.98-.74-2.64v-.13zm.82.14q0 1.35.55 2.15.54.8 1.62.8.8 0 1.32-.37.54-.36.82-1V5.45q-.27-.64-.8-1.05-.5-.4-1.33-.4-1.08 0-1.64.87-.55.9-.55 2.3v.14z"/><path d="M156.08 10.8q-.08-.37-.12-.64-.03-.27-.03-.56-.4.6-1.1.97-.68.38-1.53.38-1.08 0-1.68-.57-.6-.58-.6-1.54 0-1.03.88-1.64.9-.62 2.4-.62h1.63v-.9q0-.8-.5-1.26-.52-.45-1.43-.45-.86 0-1.43.43-.56.43-.56 1.06h-.74V5.4q-.05-.82.74-1.47.8-.66 2.03-.66 1.22 0 1.97.63.74.62.74 1.78v3.64q0 .4.04.76.05.37.15.73h-.85zm-2.7-.57q.9 0 1.57-.4.68-.43.98-1.07V7.2h-1.65q-1.1 0-1.78.5-.67.46-.67 1.17 0 .6.42.98.4.38 1.14.38z"/><path d="M162.32 4.12l-.6-.05q-.78 0-1.28.44t-.7 1.2v5.1h-.82V3.4h.7l.12 1.24v.08q.32-.68.86-1.06t1.28-.4q.16 0 .3.04.15.02.25.05l-.1.77z"/><path d="M166.3 10.95q-1.38 0-2.3-1.02-.92-1.03-.92-2.6v-.38q0-1.58.9-2.63.93-1.05 2.23-1.05 1.37 0 2.15.87.78.86.78 2.3v.7h-5.23v.2q0 1.24.67 2.08.66.84 1.74.84.78 0 1.32-.2.54-.22.92-.62l.35.56q-.43.44-1.07.7-.64.25-1.52.25zm-.1-6.98q-.9 0-1.52.7-.6.7-.7 1.74v.04h4.33v-.2q0-.97-.55-1.62-.57-.65-1.54-.65z"/><path d="M176.95 10.95q-1.4 0-2.3-1.02-.93-1.03-.93-2.6v-.38q0-1.58.9-2.63.93-1.05 2.23-1.05 1.36 0 2.14.87.77.86.77 2.3v.7h-5.23v.2q0 1.24.67 2.08.67.84 1.75.84.77 0 1.3-.2.55-.22.93-.62l.35.56q-.42.44-1.06.7-.64.25-1.52.25zm-.1-6.98q-.9 0-1.52.7t-.72 1.74l.02.04h4.34v-.2q0-.97-.57-1.62-.58-.65-1.55-.65z"/><path d="M185.82 8.93q0-.52-.43-.9-.43-.4-1.55-.65-1.32-.28-1.96-.76-.64-.47-.64-1.33 0-.86.7-1.44.73-.6 1.9-.6 1.26 0 2 .64.72.6.68 1.54v.04h-.77q0-.6-.52-1.06-.5-.45-1.4-.45-.88 0-1.33.4-.45.37-.45.9 0 .5.4.84.38.35 1.53.6 1.32.3 1.98.8.65.5.65 1.4 0 .9-.75 1.48-.74.57-1.97.57-1.34 0-2.1-.64-.78-.63-.74-1.52l.02-.04h.75q.05.8.65 1.16.6.36 1.43.36.9 0 1.4-.4.52-.38.52-.93z"/><path d="M192.96 8.93q0-.52-.43-.9-.42-.4-1.54-.65-1.33-.28-1.97-.76-.63-.47-.63-1.33 0-.86.7-1.44.73-.6 1.9-.6 1.26 0 2 .64.72.6.68 1.54v.04h-.77q0-.6-.5-1.06-.52-.45-1.4-.45-.9 0-1.34.4-.45.37-.45.9 0 .5.4.84.4.35 1.54.6 1.32.3 1.98.8.65.5.65 1.4 0 .9-.75 1.48-.74.57-1.97.57-1.35 0-2.12-.64-.77-.63-.73-1.52l.02-.04h.75q.05.8.65 1.16.6.36 1.43.36.88 0 1.4-.4.5-.38.5-.93z"/><path d="M198.44 10.95q-1.4 0-2.3-1.02-.93-1.03-.93-2.6v-.38q0-1.58.92-2.63.92-1.05 2.22-1.05 1.36 0 2.14.87.78.86.78 2.3v.7h-5.23v.2q0 1.24.67 2.08.66.84 1.74.84.77 0 1.3-.2.55-.22.93-.62l.35.56q-.42.44-1.06.7-.64.25-1.52.25zm-.1-6.98q-.9 0-1.53.7-.6.7-.7 1.74v.04h4.34v-.2q0-.97-.56-1.62-.57-.65-1.54-.65z"/><path d="M203.6 3.4l.1 1.3q.34-.68.94-1.05.6-.38 1.44-.38 1.2 0 1.83.74.64.74.64 2.3v4.5h-.82V6.3q0-1.26-.48-1.8-.47-.5-1.35-.5-.87 0-1.4.44-.56.45-.8 1.2v5.17h-.8V3.4h.7z"/><path d="M211.96 1.52v1.9h1.63v.66h-1.64V8.9q0 .73.26 1.03.27.3.7.3.2 0 .4 0 .18-.03.42-.07l.13.6q-.2.1-.5.14-.3.05-.6.05-.77 0-1.2-.5-.44-.48-.44-1.55V4.08h-1.28V3.4h1.28V1.53h.83z"/><path d="M216.24 10.8h-.8V3.4h.8v7.4zm0-9.5h-.8V.13h.8V1.3z"/><path d="M223.18 10.8q-.08-.37-.12-.64-.03-.27-.03-.56-.4.6-1.1.97-.68.38-1.53.38-1.08 0-1.68-.57-.6-.58-.6-1.54 0-1.03.88-1.64.9-.62 2.4-.62h1.63v-.9q0-.8-.5-1.26-.52-.45-1.43-.45-.86 0-1.43.43-.56.43-.56 1.06h-.74V5.4q-.05-.82.74-1.47.8-.66 2.03-.66 1.22 0 1.97.63.74.62.74 1.78v3.64q0 .4.04.76.05.37.15.73h-.85zm-2.7-.57q.9 0 1.57-.4.68-.43.98-1.07V7.2h-1.65q-1.1 0-1.78.5-.67.46-.67 1.17 0 .6.42.98.4.38 1.14.38z"/><path d="M226.93 10.8h-.8V.15h.8V10.8z"/><path d="M238.56 7.3q0 1.68-.75 2.67-.74.98-2.06.98-.78 0-1.37-.3-.58-.3-.95-.83v3.83h-.82V3.4h.7l.1 1.16q.36-.62.94-.95.6-.33 1.38-.33 1.34 0 2.1 1.07.74 1.06.74 2.83v.14zm-.82-.13q0-1.4-.56-2.3-.56-.88-1.64-.88-.83 0-1.35.38-.52.4-.78 1.02v3.56q.28.6.8.95.54.36 1.33.36 1.08 0 1.63-.8.56-.8.56-2.15v-.13z"/><path d="M245.08 10.8q-.08-.37-.12-.64-.03-.27-.03-.56-.4.6-1.1.97-.68.38-1.53.38-1.08 0-1.68-.57-.6-.58-.6-1.54 0-1.03.88-1.64.9-.62 2.4-.62h1.63v-.9q0-.8-.5-1.26-.52-.45-1.43-.45-.86 0-1.43.43-.56.43-.56 1.06h-.74V5.4q-.05-.82.74-1.47.8-.66 2.03-.66 1.22 0 1.97.63.74.62.74 1.78v3.64q0 .4.04.76.05.37.15.73h-.85zm-2.7-.57q.9 0 1.57-.4.68-.43.98-1.07V7.2h-1.65q-1.1 0-1.78.5-.67.46-.67 1.17 0 .6.42.98.4.38 1.14.38z"/><path d="M251.32 4.12l-.6-.05q-.78 0-1.28.44t-.7 1.2v5.1h-.82V3.4h.7l.12 1.24v.08q.32-.68.86-1.06.54-.4 1.28-.4.16 0 .3.04.15.02.25.05l-.1.77z"/><path d="M254.18 1.52v1.9h1.63v.66h-1.62V8.9q0 .73.26 1.03.27.3.7.3.2 0 .4 0 .18-.03.42-.07l.13.6q-.22.1-.5.14-.3.05-.6.05-.78 0-1.22-.5-.43-.48-.43-1.55V4.08h-1.28V3.4h1.28V1.53h.83z"/><path d="M260.5 7q0-1.63.9-2.68.9-1.05 2.37-1.05 1.48 0 2.38 1.05.9 1.05.9 2.68v.23q0 1.64-.9 2.68-.9 1.05-2.36 1.05-1.5 0-2.4-1.04-.9-1.03-.9-2.67V7zm.82.23q0 1.28.65 2.16.65.86 1.8.86t1.8-.87q.66-.9.66-2.17V7q0-1.26-.66-2.15-.65-.88-1.8-.88t-1.8.88q-.65.9-.65 2.15v.23z"/><path d="M269.35 10.8V4.1h-1.22V3.4h1.22V2.34q0-1.1.55-1.72.56-.6 1.57-.6.23 0 .46.03t.47.1l-.1.68q-.16-.03-.34-.05-.17-.03-.4-.03-.67 0-1.03.42-.36.43-.36 1.2V3.4h1.77v.68h-1.77v6.73h-.82z"/><path d="M278.05 1.52v1.9h1.63v.66h-1.63V8.9q0 .73.26 1.03.28.3.7.3.2 0 .4 0 .2-.03.43-.07l.13.6q-.2.1-.5.14-.3.05-.6.05-.77 0-1.2-.5-.44-.48-.44-1.55V4.08h-1.28V3.4h1.28V1.53h.83z"/><path d="M282.24 4.68q.37-.67.98-1.04.62-.37 1.44-.37 1.17 0 1.8.73.62.72.62 2.25v4.56h-.82V6.24q0-1.2-.48-1.72-.47-.5-1.3-.5-.85 0-1.4.43-.57.44-.84 1.17v5.2h-.82V.15h.82v4.54z"/><path d="M291.98 10.95q-1.4 0-2.3-1.02-.93-1.03-.93-2.6v-.38q0-1.58.9-2.63.93-1.05 2.23-1.05 1.36 0 2.14.87.78.86.78 2.3v.7h-5.23v.2q0 1.24.67 2.08.66.84 1.74.84.77 0 1.3-.2.55-.22.93-.62l.36.56q-.42.44-1.06.7-.64.25-1.52.25zm-.1-6.98q-.9 0-1.53.7-.6.7-.7 1.74v.04h4.33v-.2q0-.97-.56-1.62-.57-.65-1.54-.65z"/><path d="M6.8 28.4l.28 1.33h.04l.34-1.32 1.58-5h.7l1.57 5 .37 1.36h.04l.32-1.35 1.34-5h.85l-2.14 7.4h-.7l-1.64-5.05-.32-1.28h-.04l-.33 1.28-1.6 5.06H6.7l-2.13-7.4h.84l1.4 5z"/><path d="M19.22 24.1l-.6-.03q-.78 0-1.28.44t-.7 1.2v5.1h-.83v-7.4h.73l.1 1.24v.08q.32-.68.86-1.06t1.28-.4q.16 0 .3.04.15.02.25.05l-.1.77z"/><path d="M21.48 30.8h-.8v-7.4h.8v7.4zm0-9.5h-.8v-1.16h.8v1.15z"/><path d="M25.03 21.52v1.9h1.62v.66h-1.62v4.82q0 .73.26 1.03.25.3.7.3.2 0 .37 0 .2-.03.44-.07l.13.6q-.2.1-.5.14t-.58.05q-.78 0-1.22-.5-.43-.48-.43-1.55v-4.82h-1.28v-.67h1.28v-1.88h.83z"/><path d="M29.3 30.8h-.8v-7.4h.8v7.4zm0-9.5h-.8v-1.16h.8v1.15z"/><path d="M32.3 23.4l.06 1.3q.36-.68.96-1.05.6-.38 1.43-.38 1.2 0 1.84.74.6.74.6 2.3v4.5h-.8v-4.5q0-1.26-.48-1.8-.48-.5-1.35-.5-.86 0-1.4.44-.55.45-.8 1.2v5.17h-.8v-7.4h.72z"/><path d="M39.03 27.17q0-1.77.75-2.83.76-1.07 2.1-1.07.8 0 1.37.35.58.34.95.97l.1-1.2h.7v7.3q0 1.44-.8 2.27-.8.82-2.2.82-.53 0-1.13-.13-.6-.13-1.06-.36l.22-.68q.44.22.93.33.48.1 1.04.1 1.07 0 1.6-.6.57-.63.57-1.74v-.92q-.38.56-.95.87-.58.3-1.34.3-1.34 0-2.1-1-.75-.98-.75-2.64v-.13zm.82.14q0 1.35.55 2.15.55.8 1.63.8.8 0 1.32-.37.53-.36.82-1v-3.43q-.27-.64-.8-1.05-.5-.4-1.33-.4-1.08 0-1.63.87-.55.9-.55 2.3v.14z"/><path d="M56.52 27.3q0 1.68-.75 2.67-.75.98-2.07.98-.78 0-1.37-.3-.58-.3-.95-.83v3.83h-.82V23.4h.7l.1 1.16q.36-.62.94-.95.6-.33 1.38-.33 1.34 0 2.1 1.07.74 1.06.74 2.83v.14zm-.82-.13q0-1.4-.56-2.3-.56-.9-1.64-.9-.83 0-1.35.4-.5.4-.77 1.03v3.55q.28.6.8.96.54.36 1.33.36 1.1 0 1.64-.8.56-.8.56-2.15v-.13z"/><path d="M61.76 24.1l-.6-.03q-.78 0-1.28.44t-.7 1.2v5.1h-.82v-7.4h.72l.1 1.24v.08q.32-.68.86-1.06.54-.4 1.3-.4.14 0 .3.04.14.02.23.05l-.1.77z"/><path d="M62.52 27q0-1.63.9-2.68t2.37-1.05q1.47 0 2.37 1.05.9 1.05.9 2.68v.23q0 1.64-.9 2.68-.9 1.05-2.37 1.05-1.5 0-2.38-1.04-.9-1.03-.9-2.67V27zm.82.23q0 1.28.65 2.16t1.8.86q1.14 0 1.8-.87.65-.9.65-2.17V27q0-1.27-.66-2.15-.66-.88-1.8-.88t-1.8.88q-.66.88-.66 2.15v.22z"/><path d="M73.5 30.26q.83 0 1.45-.46.62-.47.62-1.3h.73v.05q.04 1.02-.8 1.7-.86.7-2 .7-1.5 0-2.32-1.03-.82-1.04-.82-2.67v-.28q0-1.62.82-2.66.83-1.03 2.33-1.03 1.22 0 2.03.72.8.7.8 1.88l-.03.04h-.73q0-.9-.6-1.4-.6-.55-1.46-.55-1.18 0-1.76.86-.56.84-.56 2.14v.28q0 1.32.56 2.16.57.86 1.77.86z"/><path d="M80.8 30.95q-1.4 0-2.32-1.02-.9-1.03-.9-2.6v-.38q0-1.58.9-2.63.9-1.05 2.2-1.05 1.37 0 2.15.87.78.86.78 2.3v.7h-5.2v.2q0 1.24.65 2.08.66.84 1.74.84.76 0 1.3-.2.54-.22.92-.62l.35.56q-.42.44-1.06.7-.62.25-1.5.25zm-.1-6.98q-.92 0-1.53.7-.62.7-.72 1.74v.04h4.35v-.2q0-.97-.57-1.62-.57-.65-1.54-.65z"/><path d="M89.67 28.93q0-.52-.43-.9-.43-.4-1.54-.65-1.33-.28-1.96-.76-.63-.47-.63-1.33 0-.86.72-1.44.72-.6 1.9-.6 1.24 0 1.97.64.73.6.7 1.54l-.02.04h-.76q0-.6-.52-1.06-.5-.45-1.4-.45-.88 0-1.33.4-.45.37-.45.9 0 .5.38.84.4.35 1.55.6 1.32.3 1.97.8.66.5.66 1.4 0 .9-.75 1.48-.75.57-1.98.57-1.34 0-2.12-.64-.76-.63-.72-1.52l.02-.04h.75q.05.8.65 1.16.6.36 1.43.36.9 0 1.4-.4.52-.38.52-.93z"/><path d="M96.8 28.93q0-.52-.43-.9-.42-.4-1.53-.65-1.33-.28-1.97-.76-.63-.47-.63-1.33 0-.86.72-1.44.7-.6 1.9-.6 1.24 0 1.97.64.73.6.7 1.54l-.02.04h-.74q0-.6-.52-1.06-.52-.45-1.4-.45-.9 0-1.34.4-.44.37-.44.9 0 .5.38.84.4.35 1.55.6 1.3.3 1.96.8.66.5.66 1.4 0 .9-.75 1.48-.75.57-1.98.57-1.36 0-2.13-.64-.76-.63-.72-1.52v-.04h.76q.06.8.66 1.16.6.36 1.43.36.88 0 1.4-.4.5-.38.5-.93z"/><path d="M100.5 30.8h-.93v-1.1h.94v1.1z"/><path d="M113.16 21.55h-3.42v9.26h-.83v-9.25h-3.4v-.7h7.66v.7z"/><path d="M115.37 24.68q.37-.67.98-1.04.62-.37 1.44-.37 1.16 0 1.78.73.63.72.63 2.25v4.56h-.8v-4.57q0-1.2-.5-1.72-.46-.5-1.3-.5-.84 0-1.4.43-.56.44-.83 1.17v5.2h-.82V20.15h.82v4.54z"/><path d="M125.12 30.95q-1.4 0-2.3-1.02-.93-1.03-.93-2.6v-.38q0-1.58.9-2.63.92-1.05 2.22-1.05 1.36 0 2.14.87.78.86.78 2.3v.7h-5.23v.2q0 1.24.68 2.08.66.84 1.74.84.77 0 1.3-.2.55-.22.93-.62l.35.56q-.42.44-1.06.7-.64.25-1.52.25zm-.1-6.98q-.9 0-1.53.7-.62.7-.72 1.74v.04h4.34v-.2q0-.97-.56-1.62-.57-.65-1.54-.65z"/><path d="M132.97 24.1l-.6-.03q-.78 0-1.28.44t-.7 1.2v5.1h-.83v-7.4h.7l.12 1.24v.08q.3-.68.85-1.06t1.28-.4q.16 0 .3.04.15.02.25.05l-.1.77z"/><path d="M136.96 30.95q-1.4 0-2.3-1.02-.93-1.03-.93-2.6v-.38q0-1.58.9-2.63.93-1.05 2.23-1.05 1.36 0 2.14.87.78.86.78 2.3v.7h-5.23v.2q0 1.24.67 2.08.66.84 1.74.84.77 0 1.3-.2.55-.22.93-.62l.34.56q-.42.44-1.06.7-.64.25-1.52.25zm-.1-6.98q-.9 0-1.53.7-.6.7-.7 1.74v.04h4.33v-.2q0-.97-.56-1.62-.57-.65-1.54-.65z"/><path d="M142 30.8V24.1h-1.22v-.67H142v-1.07q0-1.1.55-1.72.56-.6 1.57-.6.23 0 .46.03t.47.1l-.1.68q-.16-.03-.34-.05-.16-.03-.4-.03-.66 0-1.02.42-.36.43-.36 1.2v1.07h1.77v.68h-1.78v6.73H142z"/><path d="M145.54 27q0-1.63.9-2.68.9-1.05 2.37-1.05 1.5 0 2.4 1.05.88 1.05.88 2.68v.23q0 1.64-.9 2.68-.9 1.05-2.36 1.05-1.5 0-2.4-1.04-.9-1.03-.9-2.67V27zm.82.23q0 1.28.65 2.16.66.86 1.82.86 1.14 0 1.8-.87.65-.9.65-2.17V27q0-1.26-.66-2.15-.64-.88-1.8-.88t-1.8.88q-.64.88-.64 2.15v.23z"/><path d="M157.2 24.1l-.62-.03q-.77 0-1.27.44-.48.44-.7 1.2v5.1h-.8v-7.4h.7l.1 1.24v.08q.33-.68.87-1.06t1.28-.4q.16 0 .3.04.15.02.25.05l-.1.77z"/><path d="M161.18 30.95q-1.4 0-2.3-1.02-.93-1.03-.93-2.6v-.38q0-1.58.9-2.63.93-1.05 2.23-1.05 1.36 0 2.14.87.78.86.78 2.3v.7h-5.23v.2q0 1.24.67 2.08.66.84 1.74.84.77 0 1.3-.2.55-.22.93-.62l.36.56q-.42.44-1.06.7-.64.25-1.52.25zm-.1-6.98q-.9 0-1.53.7-.6.7-.7 1.74v.04h4.33v-.2q0-.97-.56-1.62-.57-.65-1.54-.65z"/><path d="M168.6 27q0-1.63.9-2.68t2.36-1.05q1.48 0 2.38 1.05.9 1.05.9 2.68v.23q0 1.64-.9 2.68-.9 1.05-2.37 1.05-1.5 0-2.38-1.04-.9-1.03-.9-2.67V27zm.8.23q0 1.28.66 2.16.65.86 1.8.86t1.8-.87q.66-.9.66-2.17V27q0-1.26-.66-2.15-.65-.88-1.8-.88t-1.8.88q-.65.88-.65 2.15v.23z"/><path d="M181.7 29.6q-.37.65-.97 1t-1.42.35q-1.16 0-1.82-.8-.66-.78-.66-2.45v-4.3h.82v4.3q0 1.36.45 1.95.46.6 1.3.6.94 0 1.5-.43t.76-1.14V23.4h.82v7.4h-.72l-.07-1.2z"/><path d="M188.04 24.1l-.6-.03q-.78 0-1.28.44t-.7 1.2v5.1h-.82v-7.4h.7l.12 1.24v.08q.32-.68.86-1.06t1.28-.4q.16 0 .3.04.15.02.25.05l-.1.77z"/><path d="M195.58 30.95q-1.4 0-2.3-1.02-.93-1.03-.93-2.6v-.38q0-1.58.9-2.63.93-1.05 2.23-1.05 1.36 0 2.14.87.78.86.78 2.3v.7h-5.23v.2q0 1.24.67 2.08.66.84 1.74.84.77 0 1.3-.2.55-.22.93-.62l.36.56q-.42.44-1.06.7-.64.25-1.52.25zm-.1-6.98q-.9 0-1.53.7-.6.7-.7 1.74v.04h4.33v-.2q0-.97-.56-1.62-.57-.65-1.54-.65z"/><path d="M202.35 26.43l2-3.02h.97l-2.5 3.64 2.6 3.77h-.95l-2.1-3.14-2.1 3.15h-.98l2.6-3.76-2.5-3.63h.96l2 3.03z"/><path d="M212.84 27.3q0 1.68-.75 2.67-.76.98-2.08.98-.78 0-1.37-.3-.58-.3-.95-.83v3.83h-.82V23.4h.7l.1 1.16q.36-.62.94-.95.6-.33 1.38-.33 1.34 0 2.1 1.07.74 1.06.74 2.83v.14zm-.82-.13q0-1.4-.56-2.3-.56-.9-1.64-.9-.83 0-1.35.4-.5.4-.77 1.03v3.55q.28.6.8.96.54.36 1.33.36 1.08 0 1.63-.8.56-.8.56-2.15v-.13z"/><path d="M217.46 30.95q-1.4 0-2.3-1.02-.93-1.03-.93-2.6v-.38q0-1.58.9-2.63.93-1.05 2.23-1.05 1.36 0 2.14.87.78.86.78 2.3v.7h-5.23v.2q0 1.24.67 2.08.66.84 1.74.84.77 0 1.3-.2.55-.22.93-.62l.34.56q-.42.44-1.06.7-.64.25-1.52.25zm-.1-6.98q-.9 0-1.53.7-.6.7-.7 1.74v.04h4.33v-.2q0-.97-.56-1.62-.57-.65-1.54-.65z"/><path d="M225.3 24.1l-.6-.03q-.77 0-1.27.44t-.7 1.2v5.1h-.82v-7.4h.72l.1 1.24v.08q.33-.68.87-1.06t1.27-.4q.16 0 .3.04.15.02.25.05l-.1.77z"/><path d="M228.16 21.52v1.9h1.63v.66h-1.64v4.82q0 .73.26 1.03.27.3.7.3.2 0 .4 0 .18-.03.42-.07l.13.6q-.2.1-.5.14-.3.05-.6.05-.77 0-1.2-.5-.44-.48-.44-1.55v-4.82h-1.28v-.67h1.28v-1.88h.83z"/><path d="M235.96 28.93q0-.52-.43-.9-.42-.4-1.54-.65-1.33-.28-1.97-.76-.63-.47-.63-1.33 0-.86.7-1.44.73-.6 1.9-.6 1.26 0 2 .64.72.6.68 1.54v.04h-.77q0-.6-.5-1.06-.52-.45-1.4-.45-.9 0-1.34.4-.45.37-.45.9 0 .5.4.84.4.35 1.54.6 1.32.3 1.98.8.65.5.65 1.4 0 .9-.75 1.48-.74.57-1.97.57-1.35 0-2.12-.64-.77-.63-.73-1.52l.02-.04h.75q.05.8.65 1.16.6.36 1.43.36.88 0 1.4-.4.5-.38.5-.93z"/><path d="M248.04 27.3q0 1.68-.75 2.67-.76.98-2.08.98-.78 0-1.37-.3-.58-.3-.95-.83v3.83h-.82V23.4h.7l.1 1.16q.36-.62.94-.95.6-.33 1.38-.33 1.34 0 2.1 1.07.74 1.06.74 2.83v.14zm-.82-.13q0-1.4-.56-2.3-.56-.9-1.64-.9-.83 0-1.35.4-.5.4-.77 1.03v3.55q.28.6.8.96.54.36 1.33.36 1.08 0 1.63-.8.56-.8.56-2.15v-.13z"/><path d="M253.28 24.1l-.6-.03q-.78 0-1.28.44t-.7 1.2v5.1h-.82v-7.4h.7l.12 1.24v.08q.32-.68.86-1.06t1.28-.4q.16 0 .3.04.15.02.25.05l-.12.77z"/><path d="M254.04 27q0-1.63.9-2.68.9-1.05 2.37-1.05 1.5 0 2.4 1.05.88 1.05.88 2.68v.23q0 1.64-.9 2.68-.9 1.05-2.36 1.05-1.5 0-2.4-1.04-.9-1.03-.9-2.67V27zm.82.23q0 1.28.65 2.16.66.86 1.82.86 1.14 0 1.8-.87.65-.9.65-2.17V27q0-1.26-.66-2.15-.64-.88-1.8-.88t-1.8.88q-.64.88-.64 2.15v.23z"/><path d="M261.83 27q0-1.63.9-2.68.9-1.05 2.37-1.05 1.48 0 2.38 1.05.9 1.05.9 2.68v.23q0 1.64-.9 2.68-.9 1.05-2.37 1.05-1.48 0-2.37-1.04-.9-1.03-.9-2.67V27zm.82.23q0 1.28.65 2.16.65.86 1.8.86t1.8-.87q.66-.9.66-2.17V27q0-1.26-.66-2.15-.65-.88-1.8-.88t-1.8.88q-.65.88-.65 2.15v.23z"/><path d="M270.68 30.8V24.1h-1.22v-.67h1.22v-1.07q0-1.1.55-1.72.56-.6 1.56-.6.22 0 .45.03t.47.1l-.1.68q-.16-.03-.34-.05-.17-.03-.4-.03-.67 0-1.03.42-.36.43-.36 1.2v1.07h1.76v.68h-1.77v6.73h-.83z"/><path d="M278.08 24.1l-.6-.03q-.78 0-1.28.44t-.7 1.2v5.1h-.82v-7.4h.7l.12 1.24v.08q.32-.68.86-1.06.54-.4 1.28-.4.16 0 .3.04.15.02.25.05l-.12.77z"/><path d="M282.07 30.95q-1.4 0-2.3-1.02-.93-1.03-.93-2.6v-.38q0-1.58.9-2.63.93-1.05 2.23-1.05 1.36 0 2.14.87.8.86.8 2.3v.7h-5.24v.2q0 1.24.67 2.08.66.84 1.74.84.77 0 1.3-.2.55-.22.93-.62l.35.56q-.42.44-1.06.7-.65.25-1.53.25zm-.1-6.98q-.9 0-1.53.7-.6.7-.7 1.74v.04h4.33v-.2q0-.97-.56-1.62-.56-.65-1.53-.65z"/><path d="M291.2 30.8q-.08-.37-.12-.64-.03-.27-.03-.56-.4.6-1.1.97-.68.38-1.53.38-1.08 0-1.68-.57-.6-.58-.6-1.54 0-1.03.88-1.64.9-.62 2.4-.62h1.63v-.9q0-.8-.5-1.26-.52-.45-1.44-.45-.84 0-1.4.43-.57.43-.57 1.06h-.75v-.05q-.05-.82.74-1.47.8-.66 2.03-.66 1.22 0 1.97.63.74.62.74 1.78v3.64q0 .4.04.76.05.37.15.73h-.85zm-2.7-.57q.9 0 1.57-.4.68-.43.98-1.07V27.2h-1.65q-1.1 0-1.78.5-.67.46-.67 1.17 0 .6.42.98.4.38 1.14.38z"/><path d="M293.7 27.17q0-1.77.76-2.83.75-1.07 2.1-1.07.76 0 1.33.33.55.33.93.93v-4.4h.8v10.68h-.7l-.08-1.07q-.37.6-.95.9t-1.37.32q-1.32 0-2.07-.98-.75-1-.75-2.66v-.13zm.83.14q0 1.35.53 2.15.54.8 1.62.8.8 0 1.32-.37.54-.35.83-.98v-3.47q-.28-.64-.8-1.04-.5-.4-1.33-.4-1.08 0-1.63.87-.54.9-.54 2.3v.14z"/><path d="M2.94 48.8l.26.9h.04l2.24-6.3h.9L3.2 52q-.3.74-.75 1.27t-1.34.53q-.15 0-.35-.04-.2-.03-.3-.06l.1-.68q.07 0 .25.02t.27.02q.53 0 .85-.38.32-.38.55-.97l.4-1L0 43.4h.9l2.04 5.4z"/><path d="M7.14 47q0-1.63.9-2.68t2.36-1.05q1.5 0 2.38 1.05.9 1.05.9 2.68v.23q0 1.64-.9 2.68-.88 1.05-2.36 1.05-1.5 0-2.4-1.04-.88-1.03-.88-2.67V47zm.82.23q0 1.28.65 2.16t1.82.86q1.14 0 1.8-.87.65-.9.65-2.17V47q0-1.26-.66-2.15-.65-.88-1.8-.88t-1.8.88q-.64.88-.64 2.15v.23z"/><path d="M20.23 49.6q-.35.65-.95 1t-1.42.35q-1.17 0-1.84-.8-.66-.78-.66-2.45v-4.3h.82v4.3q0 1.36.46 1.95.46.6 1.3.6.94 0 1.5-.43t.77-1.14V43.4h.83v7.4h-.73l-.07-1.2z"/><path d="M26.59 44.12l-.62-.05q-.78 0-1.27.44-.5.44-.7 1.2v5.1h-.82v-7.4h.72l.1 1.24v.08q.32-.68.86-1.06t1.3-.4q.14 0 .3.04.14.02.23.05l-.1.77z"/><path d="M37.3 47.3q0 1.68-.74 2.67-.75.98-2.07.98-.8 0-1.38-.3-.58-.3-.95-.83v3.83h-.82V43.4h.7l.1 1.16q.36-.62.94-.95.58-.33 1.37-.33 1.34 0 2.1 1.07.74 1.06.74 2.83v.14zm-.8-.13q0-1.4-.57-2.3-.56-.9-1.64-.9-.84 0-1.36.4-.5.4-.77 1.03v3.55q.28.6.8.96.54.36 1.33.36 1.08 0 1.63-.8.56-.8.56-2.15v-.13z"/><path d="M43.83 50.8q-.08-.37-.1-.64-.05-.28-.05-.56-.4.6-1.1.97-.68.38-1.53.38-1.08 0-1.68-.57-.6-.58-.6-1.54 0-1.03.9-1.64.87-.62 2.38-.62h1.63v-.9q0-.8-.5-1.26-.52-.45-1.43-.45-.86 0-1.42.43-.57.43-.57 1.05H39v-.04q-.04-.82.75-1.47.8-.66 2.03-.66 1.23 0 1.97.63.75.62.75 1.78v3.64q0 .4.04.76.04.37.15.73h-.87zm-2.68-.57q.88 0 1.55-.4.68-.43.98-1.07V47.2h-1.65q-1.1 0-1.78.5-.66.46-.66 1.17 0 .6.4.98t1.15.38z"/><path d="M52.62 47.3q0 1.68-.75 2.67-.75.98-2.07.98-.78 0-1.37-.3-.58-.3-.95-.83v3.83h-.82V43.4h.7l.1 1.16q.36-.62.95-.95.6-.33 1.4-.33 1.32 0 2.07 1.07.75 1.06.75 2.83v.14zm-.82-.13q0-1.4-.56-2.3-.56-.9-1.64-.9-.83 0-1.35.4-.5.4-.77 1.03v3.55q.28.6.8.96.54.36 1.34.36 1.07 0 1.62-.8.56-.8.56-2.15v-.13z"/><path d="M57.24 50.95q-1.4 0-2.3-1.02-.93-1.03-.93-2.6v-.38q0-1.58.92-2.63.92-1.05 2.2-1.05 1.37 0 2.15.87.78.86.78 2.3v.7h-5.22v.2q0 1.24.66 2.08.66.84 1.74.84.76 0 1.3-.2.54-.22.93-.62l.34.56q-.4.44-1.05.7-.63.25-1.5.25zm-.1-6.98q-.9 0-1.53.7-.6.7-.7 1.74v.04h4.34v-.2q0-.97-.57-1.62-.56-.65-1.53-.65z"/><path d="M65.08 44.12l-.6-.05q-.78 0-1.27.44-.5.44-.7 1.2v5.1h-.82v-7.4h.72l.1 1.24v.08q.32-.68.86-1.06t1.3-.4q.14 0 .3.04.14.02.23.05l-.1.77z"/><path d="M74.54 50.8q-.08-.37-.12-.64-.03-.27-.03-.56-.42.6-1.1.97-.7.38-1.54.38-1.08 0-1.68-.57-.6-.58-.6-1.54 0-1.03.88-1.64.9-.62 2.4-.62h1.63v-.9q0-.8-.52-1.26-.5-.45-1.43-.45-.85 0-1.42.43-.56.43-.56 1.06h-.75v-.05q-.06-.82.74-1.47.8-.66 2.03-.66 1.2 0 1.96.63.74.62.74 1.78v3.64q0 .4.04.76.05.37.15.73h-.86zm-2.7-.57q.9 0 1.57-.4.7-.43 1-1.07V47.2h-1.66q-1.1 0-1.78.5-.67.46-.67 1.17 0 .6.4.98.42.38 1.15.38z"/><path d="M78.1 43.4l.08 1.3q.35-.68.95-1.05.6-.38 1.44-.38 1.2 0 1.83.74.63.74.63 2.3v4.5h-.82v-4.5q0-1.26-.47-1.8-.47-.5-1.35-.5-.86 0-1.4.44-.54.45-.78 1.2v5.17h-.82v-7.4h.72z"/><path d="M84.85 47.17q0-1.77.74-2.83.75-1.07 2.08-1.07.78 0 1.34.33.57.33.95.93v-4.4h.8v10.68h-.7l-.08-1.07q-.38.6-.96.9t-1.37.32q-1.33 0-2.08-.98-.75-1-.75-2.66v-.13zm.82.14q0 1.35.53 2.15.54.8 1.62.8.8 0 1.32-.37.53-.35.83-.98v-3.47q-.28-.64-.8-1.04-.5-.4-1.33-.4-1.08 0-1.63.87-.53.9-.53 2.3v.14z"/><path d="M96.97 50.8V44.1h-1.22v-.67h1.22v-1.07q0-1.1.56-1.72.56-.6 1.56-.6.22 0 .45.03t.47.1l-.1.68q-.16-.03-.34-.05-.17-.03-.4-.03-.67 0-1.03.42-.36.43-.36 1.2v1.07h1.76v.68H97.8v6.73h-.83z"/><path d="M100.52 47q0-1.63.9-2.68.9-1.05 2.37-1.05 1.47 0 2.37 1.05.9 1.05.9 2.68v.23q0 1.64-.9 2.68-.9 1.05-2.37 1.05-1.5 0-2.38-1.04-.9-1.03-.9-2.67V47zm.82.23q0 1.28.65 2.16.64.86 1.8.86 1.14 0 1.8-.87.65-.9.65-2.17V47q0-1.26-.66-2.15-.66-.88-1.8-.88t-1.8.88q-.66.88-.66 2.15v.23z"/><path d="M112.17 44.12l-.6-.05q-.78 0-1.28.44t-.7 1.2v5.1h-.83v-7.4h.7l.12 1.24v.08q.3-.68.85-1.06t1.28-.4q.16 0 .3.04.15.02.25.05l-.1.77z"/><path d="M114.2 43.4l.1 1.23q.34-.64.93-1 .6-.36 1.4-.36.86 0 1.43.4.57.42.82 1.27.33-.78.95-1.22.62-.45 1.5-.45 1.2 0 1.84.8.64.78.64 2.42v4.3h-.8V46.5q0-1.37-.5-1.93-.48-.56-1.34-.56-.95 0-1.47.58-.53.6-.65 1.52 0 .05 0 .14 0 .1 0 .13v4.44h-.82V46.5q0-1.34-.5-1.9-.48-.6-1.33-.6-.87 0-1.38.45-.5.44-.7 1.18v5.2h-.84v-7.4h.73z"/><path d="M130.62 50.8q-.08-.37-.12-.64-.03-.27-.03-.56-.4.6-1.1.97-.68.38-1.53.38-1.08 0-1.68-.57-.6-.58-.6-1.54 0-1.03.88-1.64.9-.62 2.4-.62h1.63v-.9q0-.8-.5-1.26-.52-.45-1.43-.45-.86 0-1.43.43-.55.43-.55 1.06h-.75v-.05q-.05-.82.74-1.47.8-.66 2.03-.66 1.22 0 1.97.63.74.62.74 1.78v3.64q0 .4.04.76.05.37.15.73h-.85zm-2.7-.57q.9 0 1.57-.4.67-.43.97-1.07V47.2h-1.65q-1.1 0-1.78.5-.67.46-.67 1.17 0 .6.42.98.4.38 1.13.38z"/><path d="M134.74 41.52v1.9h1.63v.66h-1.63v4.82q0 .73.26 1.03.27.3.7.3.2 0 .4 0 .18-.03.42-.07l.13.6q-.2.1-.5.14-.3.05-.6.05-.77 0-1.2-.5-.44-.48-.44-1.55v-4.82h-1.27v-.67h1.28v-1.88h.84z"/><path d="M142.44 50.8h-.8v-7.4h.8v7.4zm0-9.5h-.8v-1.16h.8v1.15z"/><path d="M145.98 41.52v1.9h1.63v.66H146v4.82q0 .73.26 1.03.27.3.7.3.2 0 .4 0 .18-.03.42-.07l.13.6q-.22.1-.5.14-.3.05-.6.05-.78 0-1.22-.5-.43-.48-.43-1.55v-4.82h-1.28v-.67h1.28v-1.88h.83z"/><path d="M157.45 50.8q-.08-.37-.12-.64-.03-.27-.03-.56-.4.6-1.1.97-.68.38-1.53.38-1.08 0-1.68-.57-.6-.58-.6-1.54 0-1.03.87-1.64.9-.62 2.4-.62h1.63v-.9q0-.8-.5-1.26-.52-.45-1.44-.45-.85 0-1.42.43-.56.43-.56 1.06h-.75v-.05q-.05-.82.74-1.47.8-.66 2.03-.66 1.22 0 1.97.63.74.62.74 1.78v3.64q0 .4.05.76.05.37.15.73h-.85zm-2.7-.57q.9 0 1.57-.4.68-.43.98-1.07V47.2h-1.65q-1.1 0-1.78.5-.67.46-.67 1.17 0 .6.42.98.4.38 1.14.38z"/><path d="M163.02 50.26q.8 0 1.44-.46.62-.47.62-1.3h.72l.02.05q.03 1.02-.82 1.7-.86.7-1.98.7-1.5 0-2.34-1.03-.82-1.04-.82-2.67v-.28q0-1.62.83-2.66.82-1.03 2.3-1.03 1.23 0 2.04.72.8.7.78 1.88v.04h-.74q0-.9-.6-1.4-.6-.55-1.47-.55-1.18 0-1.75.86-.57.84-.57 2.14v.28q0 1.32.57 2.16.57.86 1.77.86z"/><path d="M170.27 50.26q.8 0 1.44-.46.63-.47.63-1.3h.72l.02.05q.03 1.02-.82 1.7-.86.7-1.98.7-1.5 0-2.34-1.03-.82-1.04-.82-2.67v-.28q0-1.62.84-2.66.83-1.03 2.32-1.03 1.22 0 2.03.72.8.7.77 1.88v.04h-.74q0-.9-.6-1.4-.6-.55-1.47-.55-1.2 0-1.76.86-.57.84-.57 2.14v.28q0 1.32.57 2.16.57.86 1.77.86z"/><path d="M174.32 47q0-1.63.9-2.68.9-1.05 2.37-1.05 1.47 0 2.37 1.05.9 1.05.9 2.68v.23q0 1.64-.9 2.68-.9 1.05-2.37 1.05-1.5 0-2.4-1.04-.9-1.03-.9-2.67V47zm.82.23q0 1.28.65 2.16.64.86 1.8.86 1.14 0 1.8-.87.65-.9.65-2.17V47q0-1.26-.66-2.15-.66-.88-1.8-.88t-1.8.88q-.66.88-.66 2.15v.23z"/><path d="M185.97 44.12l-.6-.05q-.78 0-1.28.44t-.7 1.2v5.1h-.83v-7.4h.7l.12 1.24v.08q.3-.68.85-1.06t1.28-.4q.16 0 .3.04.15.02.25.05l-.1.77z"/><path d="M186.87 47.17q0-1.77.75-2.83.75-1.07 2.1-1.07.76 0 1.33.33.56.33.94.93v-4.4h.8v10.68h-.72l-.07-1.07q-.36.6-.94.9-.58.32-1.37.32-1.33 0-2.08-.98-.75-1-.75-2.66v-.13zm.82.14q0 1.35.52 2.15.54.8 1.62.8.8 0 1.32-.37.54-.35.83-.98v-3.47q-.3-.64-.8-1.04-.52-.4-1.34-.4-1.08 0-1.63.87-.54.9-.54 2.3v.14z"/><path d="M195.9 50.8h-.8v-7.4h.8v7.4zm0-9.5h-.8v-1.16h.8v1.15z"/><path d="M198.88 43.4l.08 1.3q.35-.68.95-1.05.62-.38 1.45-.38 1.2 0 1.83.74.63.74.63 2.3v4.5h-.8v-4.5q0-1.26-.5-1.8-.46-.5-1.34-.5-.86 0-1.4.44-.55.45-.78 1.2v5.17h-.82v-7.4h.72z"/><path d="M205.62 47.17q0-1.77.75-2.83.76-1.07 2.1-1.07.8 0 1.37.35.57.34.95.97l.08-1.2h.7v7.3q0 1.44-.8 2.27-.78.83-2.2.83-.53 0-1.13-.13-.6-.13-1.05-.36l.2-.68q.45.22.93.33.5.1 1.04.1 1.08 0 1.63-.6.55-.63.55-1.74v-.92q-.37.56-.95.87-.57.3-1.34.3-1.33 0-2.1-1-.75-.98-.75-2.64v-.13zm.82.14q0 1.35.55 2.15.53.8 1.6.8.8 0 1.33-.37.54-.36.82-1v-3.43q-.26-.64-.78-1.05-.52-.4-1.34-.4-1.08 0-1.64.87-.56.9-.56 2.3v.14z"/><path d="M218.44 41.52v1.9h1.63v.66h-1.63v4.82q0 .73.26 1.03.27.3.7.3.2 0 .4 0 .18-.03.42-.07l.13.6q-.2.1-.5.14-.3.05-.6.05-.77 0-1.2-.5-.44-.48-.44-1.55v-4.82h-1.27v-.67h1.28v-1.88h.84z"/><path d="M221.2 47q0-1.63.9-2.68.9-1.05 2.38-1.05t2.38 1.05q.9 1.05.9 2.68v.23q0 1.64-.9 2.68-.9 1.05-2.37 1.05-1.5 0-2.4-1.04-.9-1.03-.9-2.67V47zm.83.23q0 1.28.65 2.16.65.86 1.8.86t1.8-.87q.66-.9.66-2.17V47q0-1.26-.66-2.15-.65-.88-1.8-.88t-1.8.88q-.65.88-.65 2.15v.23z"/><path d="M234.17 41.52v1.9h1.63v.66h-1.63v4.82q0 .73.26 1.03.27.3.7.3.2 0 .4 0 .18-.03.42-.07l.13.6q-.2.1-.5.14-.3.05-.6.05-.77 0-1.2-.5-.44-.48-.44-1.55v-4.82h-1.28v-.67h1.28v-1.88h.83z"/><path d="M238.35 44.68q.37-.67.98-1.04.62-.37 1.44-.37 1.17 0 1.8.73.62.72.62 2.25v4.56h-.83v-4.57q0-1.2-.48-1.72-.48-.5-1.3-.5-.86 0-1.42.43-.56.44-.83 1.17v5.2h-.82V40.15h.82v4.54z"/><path d="M248.1 50.95q-1.4 0-2.3-1.02-.93-1.03-.93-2.6v-.38q0-1.58.9-2.63.93-1.05 2.23-1.05 1.36 0 2.14.87.78.86.78 2.3v.7h-5.23v.2q0 1.24.66 2.08.66.84 1.74.84.77 0 1.3-.2.55-.22.93-.62l.35.56q-.42.44-1.06.7-.64.25-1.52.25zm-.1-6.98q-.9 0-1.53.7-.6.7-.7 1.74v.04h4.33v-.2q0-.97-.56-1.62-.57-.65-1.54-.65z"/><path d="M259.36 44.12l-.6-.05q-.78 0-1.28.44t-.7 1.2v5.1h-.82v-7.4h.7l.12 1.24v.08q.32-.68.86-1.06t1.28-.4q.16 0 .3.04.15.02.25.05l-.1.77z"/><path d="M263.35 50.95q-1.4 0-2.3-1.02-.93-1.03-.93-2.6v-.38q0-1.58.9-2.63.93-1.05 2.23-1.05 1.36 0 2.14.87.77.86.77 2.3v.7h-5.23v.2q0 1.24.67 2.08.67.84 1.75.84.77 0 1.3-.2.55-.22.93-.62l.35.56q-.42.44-1.06.7-.64.25-1.52.25zm-.1-6.98q-.9 0-1.53.7-.6.7-.7 1.74v.04h4.33v-.2q0-.97-.56-1.62-.58-.65-1.55-.65z"/><path d="M267.48 47.17q0-1.77.75-2.83.75-1.07 2.1-1.07.75 0 1.3.33.6.3.96.9l.07-1.1h.7v10.25h-.8v-3.8q-.38.53-.95.8t-1.32.3q-1.32 0-2.07-.98-.75-1-.75-2.66v-.13zm.82.14q0 1.35.53 2.16.54.8 1.62.8.77 0 1.3-.34.52-.35.82-.94v-3.63q-.28-.6-.8-1-.52-.38-1.3-.38-1.08 0-1.63.9-.54.9-.54 2.3v.14z"/><path d="M280.44 49.6q-.36.65-.96 1t-1.42.35q-1.17 0-1.83-.8-.66-.78-.66-2.45v-4.3h.82v4.3q0 1.36.44 1.95.47.6 1.32.6.93 0 1.48-.43.55-.4.77-1.14V43.4h.83v7.4h-.72l-.06-1.2z"/><path d="M284.3 50.8h-.8v-7.4h.8v7.4zm0-9.5h-.8v-1.16h.8v1.15z"/><path d="M289.96 44.12l-.6-.05q-.78 0-1.28.44t-.7 1.2v5.1h-.82v-7.4h.7l.12 1.24v.08q.32-.68.86-1.06.54-.4 1.28-.4.16 0 .3.04.15.02.25.05l-.1.77z"/><path d="M293.95 50.95q-1.4 0-2.3-1.02-.93-1.03-.93-2.6v-.38q0-1.58.9-2.63.93-1.05 2.23-1.05 1.36 0 2.14.87.77.86.77 2.3v.7h-5.23v.2q0 1.24.67 2.08.67.84 1.75.84.77 0 1.3-.2.55-.22.93-.62l.35.56q-.42.44-1.06.7-.64.25-1.52.25zm-.1-6.98q-.9 0-1.53.7-.6.7-.7 1.74v.04h4.33v-.2q0-.97-.56-1.62-.58-.65-1.55-.65z"/><path d="M298.07 47.17q0-1.77.75-2.83.75-1.07 2.1-1.07.76 0 1.33.33.56.33.94.93v-4.4h.8v10.68h-.72l-.07-1.07q-.36.6-.94.9-.58.32-1.37.32-1.33 0-2.08-.98-.75-1-.75-2.66v-.13zm.82.14q0 1.35.52 2.15.54.8 1.62.8.8 0 1.32-.37.54-.35.83-.98v-3.47q-.3-.64-.8-1.04-.52-.4-1.34-.4-1.08 0-1.63.87-.54.9-.54 2.3v.14z"/><path d="M16.2 68.93q0-.52-.44-.9-.42-.4-1.53-.65-1.33-.28-1.97-.76-.63-.47-.63-1.33 0-.86.72-1.44.7-.6 1.9-.6 1.24 0 1.97.64.73.6.7 1.54l-.02.04h-.75q0-.6-.52-1.06-.52-.45-1.4-.45-.9 0-1.34.4-.45.37-.45.9 0 .5.38.84.4.35 1.55.6 1.3.3 1.97.8.66.5.66 1.4 0 .9-.74 1.48-.75.57-1.98.57-1.35 0-2.12-.64-.76-.63-.72-1.52v-.04h.76q.05.8.65 1.16.6.36 1.43.36.9 0 1.4-.4.5-.38.5-.93z"/><path d="M20.2 61.52v1.9h1.6v.66h-1.6v4.82q0 .73.25 1.03.26.3.7.3.2 0 .38 0 .2-.03.44-.07l.12.6q-.2.1-.5.14-.3.05-.6.05-.77 0-1.2-.5-.44-.48-.44-1.55v-4.82h-1.28v-.67h1.28v-1.88h.83z"/><path d="M25.65 68.8l.26.9h.05l2.23-6.3h.92L25.9 72q-.3.74-.76 1.27t-1.34.53q-.14 0-.35-.04-.2-.03-.3-.06l.1-.68q.08 0 .26.02.2.02.28.02.53 0 .85-.38.32-.38.55-.97l.4-1-2.87-7.3h.92l2.03 5.4z"/><path d="M31.33 70.8h-.8V60.15h.8V70.8z"/><path d="M36.36 70.95q-1.4 0-2.3-1.02-.93-1.03-.93-2.6v-.38q0-1.58.9-2.63.93-1.05 2.23-1.05 1.36 0 2.14.87.78.86.78 2.3v.7h-5.23v.2q0 1.24.67 2.08.66.84 1.74.84.77 0 1.3-.2.55-.22.93-.62l.34.56q-.42.44-1.06.7-.64.25-1.52.25zm-.1-6.98q-.9 0-1.53.7-.6.7-.7 1.74v.04h4.33v-.2q0-.97-.56-1.62-.57-.65-1.54-.65z"/><path d="M43.9 67.17q0-1.77.75-2.83.76-1.07 2.1-1.07.8 0 1.37.35.57.34.95.97l.1-1.2h.68v7.3q0 1.44-.8 2.27-.77.83-2.18.83-.54 0-1.14-.13-.6-.13-1.05-.36l.2-.68q.45.22.93.33.5.1 1.05.1 1.08 0 1.63-.6.55-.63.55-1.74v-.92q-.37.56-.95.87-.57.3-1.34.3-1.33 0-2.1-1-.74-.98-.74-2.64v-.13zm.82.14q0 1.35.55 2.15.54.8 1.62.8.8 0 1.3-.37.55-.36.83-1v-3.43q-.26-.64-.78-1.05-.52-.4-1.34-.4-1.07 0-1.63.87-.55.9-.55 2.3v.14z"/><path d="M56.86 69.6q-.35.65-.96 1-.6.35-1.42.35-1.17 0-1.83-.8-.66-.78-.66-2.45v-4.3h.8v4.3q0 1.36.47 1.95.46.6 1.3.6.94 0 1.5-.43t.76-1.14V63.4h.82v7.4h-.72l-.07-1.2z"/><path d="M60.72 70.8h-.8v-7.4h.8v7.4zm0-9.5h-.8v-1.16h.8v1.15z"/><path d="M62.66 67.17q0-1.77.74-2.83.76-1.07 2.1-1.07.77 0 1.33.33.57.33.95.93v-4.4h.8v10.68h-.7l-.08-1.07q-.37.6-.95.9t-1.37.32q-1.33 0-2.08-.98-.74-1-.74-2.66v-.13zm.82.14q0 1.35.53 2.15.55.8 1.63.8.8 0 1.32-.37.53-.35.83-.98v-3.47q-.28-.64-.8-1.04-.5-.4-1.33-.4-1.08 0-1.63.87-.54.9-.54 2.3v.14z"/><path d="M73.55 70.95q-1.4 0-2.3-1.02-.93-1.03-.93-2.6v-.38q0-1.58.9-2.63.93-1.05 2.23-1.05 1.36 0 2.14.87.76.86.76 2.3v.7h-5.22v.2q0 1.24.66 2.08.67.84 1.75.84.76 0 1.3-.2.54-.22.93-.62l.34.56q-.4.44-1.06.7-.63.25-1.5.25zm-.1-6.98q-.9 0-1.53.7-.6.7-.72 1.74l.02.04h4.33v-.2q0-.97-.57-1.62-.56-.65-1.53-.65z"/><path d="M79 70.8h-.95v-1.1H79v1.1z"/><path d="M87.9 66.39l3.1-5.55h.94l-3.63 6.32v3.64h-.8v-3.68l-3.6-6.27h.94l3.06 5.53z"/><path d="M92.35 67q0-1.63.9-2.68t2.37-1.05q1.5 0 2.38 1.05.9 1.05.9 2.68v.23q0 1.64-.9 2.68-.9 1.05-2.36 1.05-1.5 0-2.4-1.04-.9-1.03-.9-2.67V67zm.82.23q0 1.28.65 2.16t1.82.86q1.14 0 1.8-.87.64-.9.64-2.17V67q0-1.26-.65-2.15-.66-.88-1.8-.88t-1.8.88q-.66.88-.66 2.15v.23z"/><path d="M105.45 69.6q-.36.65-.96 1t-1.43.35q-1.17 0-1.83-.8-.66-.78-.66-2.45v-4.3h.82v4.3q0 1.36.45 1.95.47.6 1.32.6.93 0 1.48-.43t.77-1.14V63.4h.82v7.4h-.72l-.07-1.2z"/><path d="M116.5 70.8q-.08-.37-.12-.64-.03-.27-.03-.56-.4.6-1.1.97-.68.38-1.53.38-1.08 0-1.68-.57-.6-.58-.6-1.54 0-1.03.88-1.64.9-.62 2.4-.62h1.63v-.9q0-.8-.5-1.26-.52-.45-1.43-.45-.86 0-1.43.43t-.57 1.06h-.75v-.05q-.05-.82.74-1.47.8-.66 2.03-.66 1.22 0 1.97.63.74.62.74 1.78v3.64q0 .4.04.76.05.37.15.73h-.85zm-2.7-.57q.9 0 1.57-.4.68-.43.98-1.07V67.2h-1.65q-1.1 0-1.78.5-.67.46-.67 1.17 0 .6.42.98.4.38 1.14.38z"/><path d="M120.25 70.8h-.8V60.15h.8V70.8z"/><path d="M124.1 68.4l.28 1.33h.04l.35-1.32 1.57-5h.7l1.58 5 .35 1.36h.05l.3-1.35 1.35-5h.85l-2.16 7.4h-.7l-1.63-5.05-.33-1.28h-.04l-.32 1.28-1.62 5.06h-.7l-2.15-7.4h.85l1.38 5z"/><path d="M137.8 70.8q-.08-.37-.12-.64-.03-.27-.03-.56-.4.6-1.1.97-.68.38-1.53.38-1.08 0-1.68-.57-.6-.58-.6-1.54 0-1.03.88-1.64.9-.62 2.4-.62h1.63v-.9q0-.8-.5-1.26-.52-.45-1.43-.45-.86 0-1.43.43t-.57 1.06h-.75v-.05q-.05-.82.74-1.47.8-.66 2.03-.66 1.22 0 1.97.63.74.62.74 1.78v3.64q0 .4.04.76.05.37.15.73h-.85zm-2.7-.57q.9 0 1.57-.4.68-.43.98-1.07V67.2H136q-1.1 0-1.78.5-.67.46-.67 1.17 0 .6.42.98.4.38 1.14.38z"/><path d="M142.62 68.8l.26.9h.04l2.24-6.3h.9l-3.2 8.6q-.3.74-.75 1.27-.44.53-1.33.53-.14 0-.34-.04-.2-.03-.3-.06l.1-.68q.07 0 .25.02t.27.02q.53 0 .85-.38.32-.38.55-.97l.4-1-2.87-7.3h.9l2.04 5.4z"/><path d="M151.82 68.93q0-.52-.43-.9-.43-.4-1.55-.65-1.32-.28-1.96-.76-.64-.47-.64-1.33 0-.86.7-1.44.73-.6 1.9-.6 1.26 0 2 .64.72.6.68 1.54v.04h-.77q0-.6-.52-1.06-.5-.45-1.4-.45-.88 0-1.33.4-.45.37-.45.9 0 .5.4.84.38.35 1.53.6 1.32.3 1.98.8.65.5.65 1.4 0 .9-.75 1.48-.74.57-1.97.57-1.34 0-2.1-.64-.78-.63-.74-1.52l.02-.04h.75q.05.8.65 1.16.6.36 1.43.36.9 0 1.4-.4.52-.38.52-.93z"/><path d="M157.62 67.17q0-1.77.75-2.83.76-1.07 2.1-1.07.8 0 1.37.35.57.34.95.97l.08-1.2h.7v7.3q0 1.44-.8 2.27-.78.83-2.2.83-.53 0-1.13-.13-.6-.13-1.05-.36l.2-.68q.45.22.93.33.5.1 1.04.1 1.08 0 1.63-.6.55-.63.55-1.74v-.92q-.37.56-.95.87-.57.3-1.34.3-1.33 0-2.1-1-.74-.98-.74-2.64v-.13zm.82.14q0 1.35.55 2.15.53.8 1.6.8.8 0 1.33-.37.54-.36.82-1v-3.43q-.26-.64-.78-1.05-.52-.4-1.34-.4-1.08 0-1.64.87-.56.9-.56 2.3v.14z"/><path d="M168.5 70.95q-1.38 0-2.3-1.02-.92-1.03-.92-2.6v-.38q0-1.58.9-2.63.93-1.05 2.23-1.05 1.37 0 2.15.87.78.86.78 2.3v.7h-5.23v.2q0 1.24.67 2.08.66.84 1.74.84.78 0 1.32-.2.54-.22.92-.62l.35.56q-.43.44-1.07.7-.64.25-1.52.25zm-.1-6.98q-.9 0-1.52.7-.6.7-.7 1.74v.04h4.33v-.2q0-.97-.55-1.62-.57-.65-1.54-.65z"/><path d="M174.24 61.52v1.9h1.63v.66h-1.63v4.82q0 .73.26 1.03.27.3.7.3.2 0 .4 0 .18-.03.42-.07l.13.6q-.2.1-.5.14-.3.05-.6.05-.77 0-1.2-.5-.44-.48-.44-1.55v-4.82h-1.27v-.67h1.28v-1.88h.84z"/><path d="M183.12 68.8l.26.9h.04l2.24-6.3h.9l-3.2 8.6q-.3.74-.75 1.27-.44.53-1.33.53-.14 0-.34-.04-.2-.03-.3-.06l.1-.68q.07 0 .25.02t.27.02q.53 0 .85-.38.32-.38.55-.97l.4-1-2.87-7.3h.9l2.04 5.4z"/><path d="M187.32 67q0-1.63.9-2.68.9-1.05 2.37-1.05 1.47 0 2.37 1.05.9 1.05.9 2.68v.23q0 1.64-.9 2.68-.9 1.05-2.37 1.05-1.5 0-2.38-1.04-.9-1.03-.9-2.67V67zm.82.23q0 1.28.65 2.16.64.86 1.8.86 1.14 0 1.8-.87.65-.9.65-2.17V67q0-1.26-.66-2.15-.66-.88-1.8-.88t-1.8.88q-.66.88-.66 2.15v.23z"/><path d="M200.42 69.6q-.36.65-.96 1t-1.42.35q-1.17 0-1.83-.8-.65-.78-.65-2.45v-4.3h.82v4.3q0 1.36.45 1.95.47.6 1.32.6.93 0 1.48-.43t.77-1.14V63.4h.8v7.4h-.7l-.08-1.2z"/><path d="M206.77 64.11l-.6-.03q-.78 0-1.28.44t-.7 1.2v5.1h-.83v-7.4h.7l.12 1.24v.08q.3-.68.85-1.06.54-.4 1.28-.4.16 0 .3.04.15.02.25.05l-.1.77z"/><path d="M212.82 61.52v1.9h1.63v.66h-1.63v4.82q0 .73.26 1.03.27.3.7.3.2 0 .4 0 .18-.03.42-.07l.13.6q-.2.1-.5.14-.3.05-.6.05-.77 0-1.2-.5-.44-.48-.44-1.55v-4.82h-1.3v-.67h1.3v-1.88h.82z"/><path d="M220.87 70.8q-.08-.37-.12-.64-.03-.27-.03-.56-.4.6-1.1.97-.68.38-1.53.38-1.1 0-1.7-.57-.6-.58-.6-1.54 0-1.03.9-1.64.88-.62 2.4-.62h1.62v-.9q0-.8-.5-1.26-.52-.45-1.43-.45-.87 0-1.44.43-.56.43-.56 1.06h-.75v-.05q-.05-.82.74-1.47.8-.66 2.02-.66t1.97.63q.73.62.73 1.78v3.64q0 .4.04.76.05.37.15.73h-.85zm-2.7-.57q.9 0 1.57-.4.68-.43.98-1.07V67.2h-1.65q-1.1 0-1.78.5-.68.46-.68 1.17 0 .6.42.98.4.38 1.14.38z"/><path d="M228.14 68.93q0-.52-.43-.9-.4-.4-1.53-.65-1.32-.28-1.96-.76-.62-.47-.62-1.33 0-.86.7-1.44.73-.6 1.9-.6 1.26 0 2 .64.72.6.68 1.54v.04h-.77q0-.6-.53-1.06-.5-.45-1.4-.45-.88 0-1.33.4-.45.37-.45.9 0 .5.38.84.4.35 1.54.6 1.32.3 1.98.8.65.5.65 1.4 0 .9-.75 1.48-.74.57-1.97.57-1.35 0-2.12-.64-.76-.63-.72-1.52l.02-.04h.75q.05.8.65 1.16.6.36 1.43.36.88 0 1.4-.4.5-.38.5-.93z"/><path d="M232.6 67.2h-.93v3.6h-.82V60.15h.82v6.36h.86l2.75-3.1h.95l.02.05-2.96 3.33 3.25 4-.02.03h-.93l-3-3.6z"/><path d="M241.97 64.68q.37-.67.98-1.04.62-.37 1.44-.37 1.16 0 1.78.73.63.72.63 2.25v4.56h-.8v-4.57q0-1.2-.5-1.72-.46-.5-1.3-.5-.84 0-1.4.43-.56.44-.83 1.17v5.2h-.82V60.15h.82v4.54z"/><path d="M248.5 67q0-1.63.9-2.68.88-1.05 2.36-1.05t2.38 1.05q.9 1.05.9 2.68v.23q0 1.64-.9 2.68-.9 1.05-2.37 1.05-1.5 0-2.38-1.04-.9-1.03-.9-2.67V67zm.8.23q0 1.28.66 2.16.65.86 1.8.86t1.8-.87q.66-.9.66-2.17V67q0-1.26-.66-2.15-.65-.88-1.8-.88t-1.8.88q-.65.88-.65 2.15v.23z"/><path d="M257.46 63.4l.08 1.3q.35-.68.95-1.05.6-.38 1.43-.38 1.2 0 1.83.74.63.74.63 2.3v4.5h-.83v-4.5q0-1.26-.48-1.8-.48-.5-1.36-.5-.86 0-1.4.44-.55.45-.78 1.2v5.17h-.82v-7.4h.72z"/><path d="M267.3 70.95q-1.38 0-2.3-1.02-.92-1.03-.92-2.6v-.38q0-1.58.9-2.63.93-1.05 2.23-1.05 1.37 0 2.15.87.78.86.78 2.3v.7h-5.23v.2q0 1.24.67 2.08.66.84 1.74.84.78 0 1.32-.2.54-.22.92-.62l.35.56q-.43.44-1.07.7-.64.25-1.52.25zm-.1-6.98q-.9 0-1.52.7-.6.7-.7 1.74v.04h4.33v-.2q0-.97-.55-1.62-.57-.65-1.54-.65z"/><path d="M271.43 67.17q0-1.77.75-2.83.75-1.07 2.1-1.07.76 0 1.33.33.57.33.95.93v-4.4h.8v10.68h-.7l-.08-1.07q-.37.6-.95.9-.58.32-1.37.32-1.32 0-2.07-.98-.75-1-.75-2.66v-.13zm.82.14q0 1.35.53 2.15.54.8 1.62.8.8 0 1.32-.37.54-.35.83-.98v-3.47q-.28-.64-.8-1.04-.5-.4-1.33-.4-1.08 0-1.63.87-.55.9-.55 2.3v.14z"/><path d="M284.25 61.52v1.9h1.63v.66h-1.63v4.82q0 .73.26 1.03.28.3.7.3.2 0 .4 0 .2-.03.43-.07l.13.6q-.2.1-.5.14t-.6.05q-.77 0-1.2-.5-.44-.48-.44-1.55v-4.82h-1.28v-.67h1.28v-1.88h.83z"/><path d="M287 67q0-1.63.9-2.68t2.38-1.05q1.48 0 2.38 1.05t.9 2.68v.23q0 1.64-.9 2.68-.9 1.05-2.37 1.05-1.5 0-2.4-1.04-.9-1.03-.9-2.67V67zm.83.23q0 1.28.65 2.16.65.86 1.8.86t1.8-.87q.66-.9.66-2.17V67q0-1.26-.66-2.15-.65-.88-1.8-.88t-1.8.88q-.65.88-.65 2.15v.23z"/><path d="M126.8 87.3q0 1.68-.76 2.67-.75.98-2.07.98-.78 0-1.37-.3-.58-.3-.95-.83v3.83h-.82V83.4h.7l.1 1.16q.36-.62.94-.95.6-.33 1.38-.33 1.34 0 2.1 1.07.74 1.06.74 2.83v.14zm-.83-.13q0-1.4-.56-2.3-.55-.9-1.63-.9-.83 0-1.35.4-.5.4-.77 1.03v3.55q.28.6.8.96.54.36 1.33.36 1.08 0 1.63-.8.57-.8.57-2.15v-.13z"/><path d="M131.4 90.95q-1.38 0-2.3-1.02-.92-1.03-.92-2.6v-.38q0-1.58.9-2.63.93-1.05 2.23-1.05 1.37 0 2.15.87.78.86.78 2.3v.7H129v.2q0 1.24.67 2.08.66.84 1.74.84.78 0 1.32-.2.54-.22.92-.62l.35.56q-.43.44-1.07.7-.64.25-1.52.25zm-.1-6.98q-.9 0-1.52.7-.6.7-.7 1.74v.04h4.33v-.2q0-.97-.55-1.62-.57-.65-1.54-.65z"/><path d="M139.25 84.11l-.6-.03q-.78 0-1.28.44t-.7 1.2v5.1h-.82v-7.4h.7l.12 1.24v.08q.32-.68.86-1.06t1.28-.4q.17 0 .3.04.16.02.26.05l-.1.77z"/><path d="M141.3 90.8V84.1h-1.2v-.67h1.2v-1.07q0-1.1.56-1.72.57-.6 1.57-.6.23 0 .46.03t.46.1l-.1.68q-.16-.03-.34-.05-.17-.03-.4-.03-.67 0-1.03.42-.37.43-.37 1.2v1.07h1.77v.68h-1.77v6.73h-.82z"/><path d="M147.92 90.95q-1.4 0-2.3-1.02-.93-1.03-.93-2.6v-.38q0-1.58.9-2.63.92-1.05 2.22-1.05 1.36 0 2.14.87.78.86.78 2.3v.7h-5.23v.2q0 1.24.68 2.08.66.84 1.74.84.77 0 1.3-.2.55-.22.93-.62l.36.56q-.4.44-1.05.7-.64.25-1.52.25zm-.1-6.98q-.9 0-1.53.7-.62.7-.72 1.74v.04h4.34v-.2q0-.97-.56-1.62-.57-.65-1.54-.65z"/><path d="M155.1 90.26q.82 0 1.45-.46.62-.47.62-1.3h.72v.05q.04 1.02-.8 1.7-.87.7-2 .7-1.5 0-2.33-1.03-.82-1.04-.82-2.67v-.28q0-1.62.83-2.66.83-1.03 2.32-1.03 1.22 0 2.03.72.8.7.78 1.88v.04h-.73q0-.9-.6-1.4-.6-.55-1.47-.55-1.2 0-1.76.86-.57.84-.57 2.14v.28q0 1.32.57 2.16.57.86 1.77.86z"/><path d="M160.9 81.52v1.9h1.63v.66h-1.63v4.82q0 .73.26 1.03.27.3.7.3.2 0 .4 0 .18-.03.42-.07l.13.6q-.2.1-.5.14-.3.05-.58.05-.78 0-1.22-.5-.43-.48-.43-1.55v-4.82h-1.28v-.67h1.27v-1.88h.83z"/><path d="M165.18 90.8h-.8v-7.4h.8v7.4zm0-9.5h-.8v-1.16h.8v1.15z"/><path d="M166.97 87q0-1.63.9-2.68.9-1.05 2.37-1.05 1.48 0 2.38 1.05.9 1.05.9 2.68v.23q0 1.64-.9 2.68-.9 1.05-2.36 1.05-1.5 0-2.4-1.04-.9-1.03-.9-2.67V87zm.82.23q0 1.28.64 2.16.65.86 1.8.86t1.8-.87q.66-.9.66-2.17V87q0-1.26-.66-2.15-.65-.88-1.8-.88t-1.8.88q-.65.88-.65 2.15v.23z"/><path d="M175.95 83.4l.08 1.3q.35-.68.95-1.05.6-.38 1.44-.38 1.2 0 1.83.74.63.74.63 2.3v4.5h-.82v-4.5q0-1.26-.48-1.8-.47-.5-1.35-.5-.86 0-1.4.44-.55.45-.78 1.2v5.17h-.82v-7.4h.72z"/><path d="M183.9 87.54h-.8v-6.7h.8v6.7zm.1 3.27H183v-1.13h.97v1.14z"/></g></svg>