<svg xmlns="http://www.w3.org/2000/svg" width="303.91" height="93.795" version="1"><text x="151.511" y="-31.192" fill="#fff" style="text-transform:uppercase" font-weight="300" font-size="16" font-family="Roboto" text-anchor="middle"><tspan x="152.011" y="-18.192">Academic writing</tspan></text><g fill="#fff"><path d="M2.65 8l.3 1.52H3L3.36 8 5.47.84h.78L8.35 8l.37 1.53h.04l.32-1.54 1.8-7.15h.83L9.16 10.8h-.77L6.15 3.18 5.9 2.13h-.06L5.6 3.17 3.33 10.8h-.78L0 .86h.84L2.64 8z"/><path d="M15.8 10.95q-1.4 0-2.3-1.02-.93-1.03-.93-2.6v-.38q0-1.58.9-2.63.93-1.05 2.22-1.05 1.35 0 2.13.87.78.86.78 2.3v.7h-5.2v.2q0 1.24.65 2.08.67.84 1.75.84.76 0 1.3-.2.54-.22.93-.62l.34.56q-.4.44-1.06.7-.62.25-1.5.25zm-.1-6.98q-.9 0-1.53.7-.6.7-.72 1.74l.02.04h4.33v-.2q0-.97-.57-1.62-.56-.65-1.53-.65z"/><path d="M23.2 7q0-1.63.9-2.68t2.37-1.05q1.48 0 2.38 1.05.9 1.05.9 2.68v.23q0 1.64-.9 2.68-.9 1.05-2.37 1.05-1.5 0-2.38-1.04-.9-1.03-.9-2.67V7zm.82.23q0 1.28.65 2.16t1.8.86q1.15 0 1.8-.87.66-.9.66-2.17V7q0-1.26-.66-2.15-.65-.88-1.8-.88t-1.8.88q-.65.9-.65 2.15v.23z"/><path d="M32.05 10.8V4.1h-1.23V3.4h1.23V2.34q0-1.1.55-1.72.56-.6 1.57-.6.22 0 .45.03t.48.1L35 .8q-.17-.03-.35-.05-.17-.03-.4-.03-.67 0-1.03.42-.35.43-.35 1.2V3.4h1.76v.68h-1.76v6.73h-.82z"/><path d="M36.64 10.8V4.1h-1.22V3.4h1.22V2.34q0-1.1.55-1.72.55-.6 1.56-.6.23 0 .46.03t.47.1l-.1.68q-.18-.03-.35-.05-.18-.03-.4-.03-.68 0-1.03.42-.36.43-.36 1.2V3.4h1.76v.68h-1.76v6.73h-.82z"/><path d="M43.25 10.95q-1.4 0-2.3-1.02Q40 8.9 40 7.33v-.38q0-1.58.9-2.63.93-1.05 2.23-1.05 1.36 0 2.14.87.77.86.77 2.3v.7h-5.23v.2q0 1.24.67 2.08.67.84 1.75.84.77 0 1.3-.2.55-.22.93-.62l.35.56q-.42.44-1.06.7-.64.25-1.52.25zm-.1-6.98q-.9 0-1.53.7-.6.7-.7 1.74v.04h4.33v-.2q0-.97-.56-1.62-.58-.65-1.55-.65z"/><path d="M51.1 4.12l-.6-.05q-.78 0-1.28.44t-.7 1.2v5.1h-.83V3.4h.7l.1 1.24v.08q.34-.68.88-1.06t1.28-.4q.16 0 .3.04.15.02.25.05l-.1.77z"/><path d="M57.46 8.4l.28 1.33h.04l.35-1.32 1.58-5h.7l1.58 5 .36 1.36h.04l.3-1.35 1.35-5h.85l-2.15 7.4h-.7L60.4 5.76l-.33-1.28h-.04l-.33 1.28-1.6 5.06h-.72l-2.15-7.4h.85l1.38 5z"/><path d="M67.4 10.8h-.82V3.4h.82v7.4zm0-9.5h-.82V.13h.82V1.3z"/><path d="M69.33 7.17q0-1.77.75-2.83.75-1.07 2.1-1.07.76 0 1.33.33.57.33.95.93V.13h.8v10.68h-.7l-.08-1.07q-.37.6-.95.9t-1.37.32q-1.32 0-2.07-.98-.75-1-.75-2.66v-.13zm.82.14q0 1.35.53 2.15.54.8 1.62.8.8 0 1.32-.37.54-.35.83-.98V5.43q-.28-.64-.8-1.04-.5-.4-1.33-.4-1.08 0-1.63.87-.55.9-.55 2.3v.14z"/><path d="M80.22 10.95q-1.4 0-2.3-1.02-.93-1.03-.93-2.6v-.38q0-1.58.9-2.63.92-1.05 2.22-1.05 1.36 0 2.14.87.78.86.78 2.3v.7H77.8v.2q0 1.24.68 2.08.66.84 1.74.84.76 0 1.3-.2.54-.22.93-.62l.35.56q-.42.44-1.06.7-.64.25-1.52.25zm-.1-6.98q-.9 0-1.53.7-.62.7-.72 1.74v.04h4.34v-.2q0-.97-.56-1.62-.57-.65-1.54-.65z"/><path d="M90.82 10.26q.82 0 1.44-.46.62-.47.62-1.3h.72l.02.05q.03 1.02-.82 1.7-.86.7-1.98.7-1.5 0-2.34-1.03-.82-1.04-.82-2.67v-.28q0-1.62.83-2.66.82-1.03 2.32-1.03 1.2 0 2.02.72.8.7.78 1.88v.04h-.74q0-.9-.6-1.4-.6-.55-1.46-.55-1.2 0-1.77.86-.57.84-.57 2.14v.28q0 1.32.57 2.16.57.86 1.77.86z"/><path d="M96.15 4.68q.37-.67.98-1.04.62-.37 1.44-.37 1.17 0 1.8.73.62.72.62 2.25v4.56h-.83V6.24q0-1.2-.48-1.72-.48-.5-1.32-.5-.84 0-1.4.43-.57.44-.83 1.17v5.2h-.82V.15h.82v4.54z"/><path d="M102.66 7q0-1.63.9-2.68t2.37-1.05q1.48 0 2.38 1.05.9 1.05.9 2.68v.23q0 1.64-.9 2.68-.9 1.05-2.36 1.05-1.5 0-2.4-1.04-.9-1.03-.9-2.67V7zm.82.23q0 1.28.65 2.16.65.86 1.8.86t1.8-.87q.66-.9.66-2.17V7q0-1.26-.67-2.15-.65-.88-1.8-.88t-1.8.88q-.65.9-.65 2.15v.23z"/><path d="M111.83 10.8h-.8V3.4h.8v7.4zm0-9.5h-.8V.13h.8V1.3z"/><path d="M116.83 10.26q.8 0 1.44-.46.62-.47.62-1.3h.7l.03.05q.03 1.02-.82 1.7-.85.7-1.97.7-1.5 0-2.34-1.03-.83-1.04-.83-2.67v-.28q0-1.62.83-2.66.83-1.03 2.32-1.03 1.22 0 2.03.72.8.7.78 1.88v.04h-.74q0-.9-.6-1.4-.6-.55-1.48-.55-1.2 0-1.76.86-.57.84-.57 2.14v.28q0 1.32.56 2.16.57.86 1.77.86z"/><path d="M124.1 10.95q-1.38 0-2.3-1.02-.92-1.03-.92-2.6v-.38q0-1.58.9-2.63.93-1.05 2.23-1.05 1.37 0 2.15.87.78.86.78 2.3v.7h-5.23v.2q0 1.24.67 2.08.66.84 1.74.84.78 0 1.32-.2.54-.22.92-.62l.35.56q-.43.44-1.07.7-.64.25-1.52.25zm-.1-6.98q-.9 0-1.52.7-.6.7-.7 1.74v.04h4.33v-.2q0-.97-.55-1.62-.57-.65-1.54-.65z"/><path d="M131.5 7q0-1.63.9-2.68.9-1.05 2.38-1.05t2.38 1.05q.9 1.05.9 2.68v.23q0 1.64-.9 2.68-.9 1.05-2.37 1.05-1.5 0-2.4-1.04-.9-1.03-.9-2.67V7zm.83.23q0 1.28.65 2.16.65.86 1.8.86t1.8-.87q.66-.9.66-2.17V7q0-1.26-.66-2.15-.65-.88-1.8-.88t-1.8.88q-.65.9-.65 2.15v.23z"/><path d="M140.36 10.8V4.1h-1.22V3.4h1.22V2.34q0-1.1.55-1.72.57-.6 1.57-.6.23 0 .46.03t.47.1l-.1.68q-.16-.03-.34-.05-.17-.03-.4-.03-.67 0-1.03.42-.36.43-.36 1.2V3.4h1.77v.68h-1.77v6.73h-.82z"/><path d="M152.2 8.93q0-.52-.43-.9-.42-.4-1.54-.65-1.32-.28-1.96-.76-.63-.47-.63-1.33 0-.86.7-1.44.73-.6 1.9-.6 1.26 0 2 .64.72.6.68 1.54v.04h-.77q0-.6-.52-1.06-.5-.45-1.4-.45-.88 0-1.33.4-.45.37-.45.9 0 .5.4.84.38.35 1.53.6 1.32.3 1.98.8.65.5.65 1.4 0 .9-.74 1.48-.74.57-1.97.57-1.36 0-2.13-.64-.77-.63-.73-1.52l.02-.04h.75q.06.8.66 1.16.6.36 1.43.36.87 0 1.4-.4.5-.38.5-.93z"/><path d="M159.76 9.6q-.36.65-.96 1t-1.42.35q-1.17 0-1.83-.8-.66-.78-.66-2.45V3.4h.8v4.3q0 1.36.46 1.95.47.6 1.32.6.93 0 1.48-.43t.77-1.15V3.4h.82v7.4h-.72l-.07-1.2z"/><path d="M168.66 7.3q0 1.68-.75 2.67-.74.98-2.06.98-.82 0-1.4-.32-.6-.33-.95-.94l-.1 1.1h-.7V.15h.8v4.43q.38-.62.96-.95.57-.35 1.36-.35 1.34 0 2.1 1.07.74 1.06.74 2.83v.14zm-.83-.13q0-1.4-.54-2.3-.56-.88-1.63-.88-.86 0-1.4.4-.5.43-.76 1.1v3.34q.3.64.83 1.02.54.38 1.35.38 1.07 0 1.6-.8.55-.8.55-2.13v-.13z"/><path d="M171.46 3.4v8.02q0 1.14-.55 1.75-.53.62-1.5.62-.2 0-.4-.04-.17-.03-.37-.1l.1-.7q.1.05.3.08.18.04.32.04.6 0 .95-.43.35-.4.35-1.23v-8h.8zm-.04-2.14h-.8V.14h.8v1.12z"/><path d="M176.58 10.95q-1.4 0-2.3-1.02-.93-1.03-.93-2.6v-.38q0-1.58.9-2.63.93-1.05 2.23-1.05 1.36 0 2.14.87.78.86.78 2.3v.7h-5.23v.2q0 1.24.67 2.08.66.84 1.74.84.77 0 1.3-.2.55-.22.93-.62l.36.56q-.42.44-1.06.7-.64.25-1.52.25zm-.1-6.98q-.9 0-1.53.7-.6.7-.7 1.74v.04h4.33v-.2q0-.97-.56-1.62-.57-.65-1.54-.65z"/><path d="M183.76 10.26q.8 0 1.44-.46.62-.47.62-1.3h.72l.02.05q.03 1.02-.82 1.7-.86.7-1.98.7-1.5 0-2.34-1.03-.82-1.04-.82-2.67v-.28q0-1.62.83-2.66.83-1.03 2.32-1.03 1.22 0 2.03.72.8.7.78 1.88v.04h-.74q0-.9-.6-1.4-.6-.55-1.47-.55-1.2 0-1.76.86-.58.84-.58 2.14v.28q0 1.32.57 2.16.56.86 1.76.86z"/><path d="M189.55 1.52v1.9h1.63v.66h-1.63V8.9q0 .73.26 1.03.28.3.7.3.2 0 .4 0 .2-.03.43-.07l.13.6q-.2.1-.5.14-.3.05-.6.05-.77 0-1.2-.5-.44-.48-.44-1.55V4.08h-1.28V3.4h1.28V1.53h.83z"/><path d="M197.35 8.93q0-.52-.43-.9-.42-.4-1.54-.65-1.32-.28-1.96-.76-.63-.47-.63-1.33 0-.86.7-1.44.72-.6 1.9-.6 1.25 0 1.98.64.73.6.7 1.54l-.02.04h-.76q0-.6-.52-1.06-.5-.45-1.4-.45-.88 0-1.33.4-.45.37-.45.9 0 .5.4.84.38.35 1.53.6 1.32.3 1.98.8.66.5.66 1.4 0 .9-.75 1.48-.73.57-1.96.57-1.35 0-2.12-.64-.77-.63-.73-1.52v-.04h.76q.05.8.65 1.16.62.36 1.44.36.88 0 1.4-.4.5-.38.5-.93z"/><path d="M208.15 10.8q-.08-.37-.12-.64-.03-.27-.03-.56-.4.6-1.1.97-.68.38-1.53.38-1.08 0-1.68-.57-.6-.58-.6-1.54 0-1.03.87-1.64.9-.62 2.4-.62H208v-.9q0-.8-.5-1.26-.52-.45-1.43-.45-.86 0-1.43.43-.56.43-.56 1.06h-.75V5.4q-.05-.82.74-1.47.8-.66 2.03-.66 1.22 0 1.97.63.74.62.74 1.78v3.64q0 .4.05.76.05.37.15.73h-.85zm-2.7-.57q.9 0 1.57-.4.68-.43.98-1.07V7.2h-1.65q-1.1 0-1.78.5-.67.46-.67 1.17 0 .6.42.98.4.38 1.14.38z"/><path d="M211.72 3.4l.08 1.3q.35-.68.95-1.05.6-.38 1.44-.38 1.2 0 1.82.74.63.74.63 2.3v4.5h-.82V6.3q0-1.26-.48-1.8-.47-.5-1.35-.5-.86 0-1.4.44-.55.45-.78 1.2v5.17H211V3.4h.72z"/><path d="M218.46 7.17q0-1.77.75-2.83.76-1.07 2.1-1.07.77 0 1.34.33.56.33.94.93V.13h.8v10.68h-.7l-.08-1.07q-.37.6-.95.9t-1.37.32q-1.32 0-2.07-.98-.74-1-.74-2.66v-.13zm.82.14q0 1.35.53 2.15.55.8 1.63.8.8 0 1.32-.37.54-.35.83-.98V5.43q-.28-.64-.8-1.04-.5-.4-1.33-.4-1.08 0-1.63.87-.54.9-.54 2.3v.14z"/><path d="M235.95 7.3q0 1.68-.75 2.67-.75.98-2.07.98-.78 0-1.37-.3-.58-.3-.95-.83v3.83h-.8V3.4h.68l.1 1.16q.37-.62.95-.95.6-.33 1.38-.33 1.35 0 2.1 1.07.75 1.06.75 2.83v.14zm-.82-.13q0-1.4-.56-2.3Q234 4 232.93 4q-.83 0-1.35.38-.5.4-.77 1.02v3.56q.3.6.82.95.53.36 1.32.36 1.08 0 1.63-.8.56-.8.56-2.15v-.13z"/><path d="M242.47 10.8q-.08-.37-.12-.64-.03-.27-.03-.56-.4.6-1.1.97-.68.38-1.53.38-1.1 0-1.7-.57-.6-.58-.6-1.54 0-1.03.9-1.64.88-.62 2.4-.62h1.62v-.9q0-.8-.5-1.26-.52-.45-1.43-.45-.87 0-1.44.43-.56.43-.56 1.06h-.75V5.4q-.05-.82.74-1.47.8-.66 2.02-.66t1.97.63q.73.62.73 1.78v3.64q0 .4.04.76.05.37.15.73h-.85zm-2.7-.57q.9 0 1.57-.4.68-.43.98-1.07V7.2h-1.65q-1.1 0-1.78.5-.68.46-.68 1.17 0 .6.42.98.4.38 1.14.38z"/><path d="M251.26 7.3q0 1.68-.75 2.67-.74.98-2.06.98-.78 0-1.37-.3-.58-.3-.95-.83v3.83h-.82V3.4h.7l.1 1.16q.36-.62.94-.95.6-.33 1.38-.33 1.34 0 2.1 1.07.74 1.06.74 2.83v.14zm-.82-.13q0-1.4-.56-2.3-.56-.88-1.64-.88-.83 0-1.35.38-.52.4-.78 1.02v3.56q.28.6.8.95.54.36 1.33.36 1.08 0 1.63-.8.56-.8.56-2.15v-.13z"/><path d="M255.88 10.95q-1.4 0-2.3-1.02-.93-1.03-.93-2.6v-.38q0-1.58.9-2.63.93-1.05 2.23-1.05 1.36 0 2.14.87.78.86.78 2.3v.7h-5.23v.2q0 1.24.67 2.08.66.84 1.74.84.77 0 1.3-.2.55-.22.93-.62l.36.56q-.42.44-1.06.7-.64.25-1.52.25zm-.1-6.98q-.9 0-1.53.7-.6.7-.7 1.74v.04h4.33v-.2q0-.97-.56-1.62-.57-.65-1.54-.65z"/><path d="M263.72 4.12l-.6-.05q-.78 0-1.28.44t-.7 1.2v5.1h-.82V3.4h.7l.12 1.24v.08q.32-.68.86-1.06t1.28-.4q.16 0 .3.04.15.02.25.05l-.1.77z"/><path d="M269.78 1.52v1.9h1.63v.66h-1.62V8.9q0 .73.26 1.03.27.3.7.3.2 0 .4 0 .18-.03.42-.07l.13.6q-.22.1-.5.14-.3.05-.6.05-.78 0-1.22-.5-.43-.48-.43-1.55V4.08h-1.28V3.4h1.28V1.53h.83z"/><path d="M275.24 8.8l.26.9h.04l2.24-6.3h.9l-3.2 8.6q-.3.74-.75 1.27-.45.52-1.34.52-.15 0-.35-.04-.2-.03-.3-.06l.1-.68q.07 0 .25.02t.27.02q.53 0 .85-.38.32-.38.55-.97l.4-1-2.87-7.3h.9l2.04 5.4z"/><path d="M285.96 7.3q0 1.68-.75 2.67-.74.98-2.06.98-.78 0-1.37-.3-.58-.3-.95-.83v3.83H280V3.4h.7l.1 1.16q.36-.62.94-.95.6-.33 1.38-.33 1.34 0 2.1 1.07.74 1.06.74 2.83v.14zm-.82-.13q0-1.4-.56-2.3-.56-.88-1.64-.88-.83 0-1.35.38-.52.4-.78 1.02v3.56q.28.6.8.95.54.36 1.33.36 1.08 0 1.63-.8.56-.8.56-2.15v-.13z"/><path d="M290.58 10.95q-1.4 0-2.3-1.02-.93-1.03-.93-2.6v-.38q0-1.58.9-2.63.93-1.05 2.23-1.05 1.36 0 2.14.87.78.86.78 2.3v.7h-5.23v.2q0 1.24.67 2.08.66.84 1.74.84.77 0 1.3-.2.55-.22.93-.62l.36.56q-.42.44-1.06.7-.64.25-1.52.25zm-.1-6.98q-.9 0-1.53.7-.6.7-.7 1.74v.04h4.33v-.2q0-.97-.56-1.62-.57-.65-1.54-.65z"/><path d="M299.45 8.93q0-.52-.43-.9-.42-.4-1.54-.65-1.32-.28-1.96-.76-.63-.47-.63-1.33 0-.86.7-1.44.72-.6 1.9-.6 1.25 0 1.98.64.73.6.7 1.54l-.02.04h-.76q0-.6-.52-1.06-.5-.45-1.4-.45-.88 0-1.33.4-.45.37-.45.9 0 .5.4.84.38.35 1.53.6 1.32.3 1.98.8.66.5.66 1.4 0 .9-.75 1.48-.73.57-1.96.57-1.35 0-2.12-.64-.77-.63-.73-1.52v-.04h.76q.05.8.65 1.16.62.36 1.44.36.88 0 1.4-.4.5-.38.5-.93z"/><path d="M303.15 10.8h-.94V9.7h.95v1.1z"/><path d="M5.55 28l.3 1.52h.04L6.26 28l2.1-7.15h.78l2.1 7.14.36 1.53h.06l.32-1.54 1.8-7.15h.83l-2.55 9.96h-.77l-2.24-7.63-.26-1.04h-.04l-.25 1.04-2.27 7.64h-.77L2.9 20.86h.84L5.54 28z"/><path d="M18.7 30.95q-1.4 0-2.3-1.02-.93-1.03-.93-2.6v-.38q0-1.58.9-2.63.92-1.05 2.22-1.05 1.35 0 2.13.87.78.86.78 2.3v.7h-5.2v.2q0 1.24.65 2.08.67.84 1.75.84.76 0 1.3-.2.54-.22.92-.62l.35.56q-.4.44-1.06.7-.62.25-1.5.25zm-.1-6.98q-.92 0-1.53.7-.62.7-.72 1.74l.02.04h4.33v-.2q0-.97-.57-1.62-.57-.65-1.54-.65z"/><path d="M29.3 30.26q.8 0 1.43-.46.63-.47.63-1.3h.72v.05q.05 1.02-.8 1.7-.86.7-1.98.7-1.5 0-2.34-1.03-.82-1.04-.82-2.67v-.28q0-1.62.83-2.66.83-1.03 2.32-1.03 1.2 0 2.02.72.8.7.78 1.88v.04h-.74q0-.9-.6-1.4-.6-.55-1.47-.55-1.2 0-1.77.86-.57.84-.57 2.14v.28q0 1.32.57 2.16.57.86 1.77.86z"/><path d="M38.5 30.8q-.1-.37-.13-.64t-.03-.56q-.4.6-1.1.97-.68.38-1.54.38-1.08 0-1.68-.57-.6-.58-.6-1.54 0-1.03.9-1.64.88-.62 2.38-.62h1.64v-.9q0-.8-.52-1.26-.5-.45-1.42-.45-.85 0-1.42.43-.56.43-.56 1.06h-.75l-.02-.05q-.04-.82.75-1.47.8-.66 2.04-.66 1.22 0 1.96.63.75.62.75 1.78v3.64q0 .4.04.76.04.37.14.73h-.85zm-2.7-.57q.88 0 1.56-.4.67-.43.98-1.07V27.2H36.7q-1.13 0-1.8.5-.66.46-.66 1.17 0 .6.4.98.43.38 1.16.38z"/><path d="M42.05 23.4l.07 1.3q.36-.68.96-1.05.6-.38 1.44-.38 1.2 0 1.83.74.63.74.63 2.3v4.5h-.82v-4.5q0-1.26-.48-1.8-.47-.5-1.35-.5-.86 0-1.4.44-.55.45-.8 1.2v5.17h-.8v-7.4h.72z"/><path d="M58.5 27.3q0 1.68-.76 2.67-.76.98-2.08.98-.77 0-1.36-.3-.58-.3-.95-.83v3.83h-.82V23.4h.7l.1 1.16q.36-.62.94-.95.6-.33 1.38-.33 1.33 0 2.1 1.07.74 1.06.74 2.83v.14zm-.83-.13q0-1.4-.56-2.3-.55-.9-1.63-.9-.83 0-1.35.4-.5.4-.77 1.03v3.55q.28.6.8.96.54.36 1.33.36 1.07 0 1.63-.8.57-.8.57-2.15v-.13z"/><path d="M63.73 24.1l-.6-.03q-.78 0-1.28.44t-.7 1.2v5.1h-.82v-7.4h.7l.12 1.24v.08q.32-.68.86-1.06t1.3-.4q.15 0 .3.04.14.02.24.05l-.1.77z"/><path d="M64.5 27q0-1.63.9-2.68t2.36-1.05q1.48 0 2.38 1.05.9 1.05.9 2.68v.23q0 1.64-.9 2.68-.9 1.05-2.37 1.05-1.5 0-2.38-1.04-.9-1.03-.9-2.67V27zm.8.23q0 1.28.66 2.16t1.8.86q1.15 0 1.8-.87.66-.9.66-2.17V27q0-1.26-.66-2.15-.65-.88-1.8-.88t-1.8.88q-.65.88-.65 2.15v.23z"/><path d="M72.42 27.17q0-1.77.75-2.83.75-1.07 2.1-1.07.76 0 1.33.33.56.33.94.93v-4.4h.8v10.68h-.7l-.08-1.07q-.37.6-.95.9t-1.36.32q-1.32 0-2.07-.98-.75-1-.75-2.66v-.13zm.82.14q0 1.35.53 2.15.54.8 1.62.8.8 0 1.3-.37.55-.35.84-.98v-3.47q-.28-.64-.8-1.04-.5-.4-1.33-.4-1.07 0-1.62.87-.54.9-.54 2.3v.14z"/><path d="M85.38 29.6q-.35.65-.96 1-.6.35-1.42.35-1.17 0-1.83-.8-.66-.78-.66-2.45v-4.3h.83v4.3q0 1.36.46 1.95.45.6 1.3.6.93 0 1.48-.43t.77-1.14V23.4h.82v7.4h-.72l-.07-1.2z"/><path d="M91.07 30.26q.8 0 1.43-.46.63-.47.63-1.3h.72v.05q.05 1.02-.8 1.7-.86.7-1.98.7-1.5 0-2.34-1.03-.82-1.04-.82-2.67v-.28q0-1.62.84-2.66.82-1.03 2.32-1.03 1.22 0 2.02.72.82.7.8 1.88l-.02.04h-.73q0-.9-.6-1.4-.6-.55-1.47-.55-1.2 0-1.76.86-.57.84-.57 2.14v.28q0 1.32.57 2.16.56.86 1.77.86z"/><path d="M98.35 30.95q-1.4 0-2.3-1.02-.93-1.03-.93-2.6v-.38q0-1.58.9-2.63.93-1.05 2.23-1.05 1.36 0 2.14.87.77.86.77 2.3v.7h-5.23v.2q0 1.24.67 2.08.67.84 1.75.84.76 0 1.3-.2.54-.22.93-.62l.35.56q-.42.44-1.06.7-.64.25-1.52.25zm-.1-6.98q-.9 0-1.53.7-.6.7-.72 1.74l.02.04h4.33v-.2q0-.97-.57-1.62-.56-.65-1.53-.65z"/><path d="M110.9 30.8q-.1-.37-.13-.64t-.03-.56q-.4.6-1.1.97-.68.38-1.53.38-1.07 0-1.67-.57-.6-.58-.6-1.54 0-1.03.88-1.64.9-.62 2.4-.62h1.64v-.9q0-.8-.5-1.26-.52-.45-1.43-.45-.85 0-1.42.43-.56.43-.56 1.06h-.75v-.05q-.05-.82.74-1.47.8-.66 2.04-.66 1.22 0 1.97.63.75.62.75 1.78v3.64q0 .4.04.76.04.37.14.73h-.85zm-2.7-.57q.9 0 1.56-.4.68-.43.98-1.07V27.2h-1.65q-1.12 0-1.8.5-.66.46-.66 1.17 0 .6.42.98.4.38 1.14.38z"/><path d="M114.45 23.4l.08 1.3q.35-.68.95-1.05.6-.38 1.44-.38 1.2 0 1.83.74.63.74.63 2.3v4.5h-.82v-4.5q0-1.26-.48-1.8-.47-.5-1.35-.5-.86 0-1.4.44-.55.45-.78 1.2v5.17h-.82v-7.4h.72z"/><path d="M123.62 28.8l.26.9h.04l2.24-6.3h.9l-3.2 8.6q-.3.74-.75 1.27-.44.53-1.33.53-.14 0-.34-.04-.2-.03-.3-.06l.1-.68q.07 0 .25.02t.27.02q.53 0 .85-.38.32-.38.55-.97l.4-1-2.87-7.3h.9l2.04 5.4z"/><path d="M129.67 21.52v1.9h1.63v.66h-1.63v4.82q0 .73.26 1.03.27.3.7.3.2 0 .4 0 .18-.03.42-.07l.13.6q-.2.1-.5.14-.3.05-.6.05-.77 0-1.2-.5-.44-.48-.44-1.55v-4.82h-1.28v-.67h1.28v-1.88h.83z"/><path d="M133.85 24.68q.37-.67.98-1.04.62-.37 1.44-.37 1.17 0 1.8.73.62.72.62 2.25v4.56h-.83v-4.57q0-1.2-.48-1.72-.48-.5-1.3-.5-.86 0-1.42.43-.56.44-.83 1.17v5.2h-.82V20.15h.82v4.54z"/><path d="M141.74 30.8h-.8v-7.4h.8v7.4zm0-9.5h-.8v-1.16h.8v1.15z"/><path d="M144.72 23.4l.08 1.3q.35-.68.95-1.05.6-.38 1.44-.38 1.2 0 1.82.74.63.74.63 2.3v4.5h-.82v-4.5q0-1.26-.48-1.8-.47-.5-1.35-.5-.86 0-1.4.44-.55.45-.78 1.2v5.17H144v-7.4h.72z"/><path d="M151.47 27.17q0-1.77.75-2.83.76-1.07 2.1-1.07.8 0 1.37.35.56.34.94.97l.1-1.2h.68v7.3q0 1.44-.8 2.27-.77.83-2.18.83-.54 0-1.14-.13-.6-.13-1.05-.36l.2-.68q.45.22.93.33.5.1 1.04.1 1.08 0 1.63-.6.55-.63.55-1.74v-.92q-.37.56-.95.87-.57.3-1.34.3-1.32 0-2.08-1-.75-.98-.75-2.64v-.13zm.82.14q0 1.35.54 2.15.54.8 1.62.8.8 0 1.32-.37.54-.36.82-1v-3.43q-.26-.64-.78-1.05-.52-.4-1.34-.4-1.08 0-1.64.87-.55.9-.55 2.3v.14z"/><path d="M163.6 30.8V24.1h-1.22v-.67h1.22v-1.07q0-1.1.55-1.72.56-.6 1.57-.6.23 0 .46.03.23.04.47.1l-.1.68q-.16-.03-.34-.05-.16-.03-.4-.03-.66 0-1.02.42-.36.43-.36 1.2v1.07h1.77v.68h-1.78v6.73h-.82z"/><path d="M171 24.1l-.6-.03q-.78 0-1.28.44t-.7 1.2v5.1h-.82v-7.4h.7l.12 1.24v.08q.32-.68.86-1.06t1.28-.4q.16 0 .3.04.15.02.25.05l-.1.77z"/><path d="M171.76 27q0-1.63.9-2.68.9-1.05 2.37-1.05 1.48 0 2.38 1.05.9 1.05.9 2.68v.23q0 1.64-.9 2.68-.88 1.05-2.36 1.05-1.5 0-2.38-1.04-.9-1.03-.9-2.67V27zm.82.23q0 1.28.65 2.16.65.86 1.8.86t1.8-.87q.66-.9.66-2.17V27q0-1.26-.67-2.15-.65-.88-1.8-.88t-1.8.88q-.65.88-.65 2.15v.23z"/><path d="M180.7 23.4l.08 1.23q.35-.64.94-1 .6-.36 1.4-.36.86 0 1.43.4.57.42.82 1.27.33-.78.95-1.22.62-.45 1.5-.45 1.2 0 1.83.8.65.78.65 2.42v4.3h-.82V26.5q0-1.37-.5-1.93-.47-.56-1.33-.56-.95 0-1.47.58-.52.6-.64 1.52 0 .05 0 .14 0 .1 0 .13v4.44h-.82V26.5q0-1.34-.5-1.9-.48-.6-1.33-.6-.88 0-1.4.45-.5.44-.7 1.18v5.2h-.83v-7.4h.73z"/><path d="M200.53 30.8q-.08-.37-.12-.64-.02-.27-.02-.56-.4.6-1.1.97-.68.38-1.53.38-1.08 0-1.68-.57-.6-.58-.6-1.54 0-1.03.88-1.64.9-.62 2.4-.62h1.63v-.9q0-.8-.5-1.26-.52-.45-1.43-.45-.86 0-1.43.43-.56.43-.56 1.06h-.75v-.05q-.04-.82.75-1.47.8-.66 2.03-.66 1.22 0 1.97.63.74.62.74 1.78v3.64q0 .4.03.76.05.37.15.73h-.85zm-2.7-.57q.9 0 1.57-.4.68-.43.98-1.07V27.2h-1.65q-1.1 0-1.78.5-.67.46-.67 1.17 0 .6.42.98.4.38 1.14.38z"/><path d="M211.2 28.93q0-.52-.42-.9-.42-.4-1.54-.65-1.32-.28-1.96-.76-.63-.47-.63-1.33 0-.86.7-1.44.73-.6 1.9-.6 1.26 0 2 .64.72.6.68 1.54v.04h-.77q0-.6-.52-1.06-.5-.45-1.4-.45-.88 0-1.33.4-.44.37-.44.9 0 .5.4.84.38.35 1.53.6 1.3.3 1.97.8.65.5.65 1.4 0 .9-.75 1.48-.74.57-1.97.57-1.35 0-2.12-.64-.77-.63-.73-1.52l.02-.04h.75q.05.8.65 1.16.6.36 1.43.36.88 0 1.4-.4.5-.38.5-.93z"/><path d="M214.83 30.8h-.8v-7.4h.8v7.4zm0-9.5h-.8v-1.16h.8v1.15z"/><path d="M217.78 23.4l.08 1.23q.35-.64.94-1 .6-.36 1.4-.36.86 0 1.43.4.57.42.82 1.27.33-.78.95-1.22.62-.45 1.5-.45 1.2 0 1.83.8.65.78.65 2.42v4.3h-.82V26.5q0-1.37-.5-1.93-.47-.56-1.33-.56-.95 0-1.47.58-.52.6-.64 1.52 0 .05 0 .14 0 .1 0 .13v4.44h-.82V26.5q0-1.34-.5-1.9-.48-.6-1.33-.6-.87 0-1.38.45-.52.44-.72 1.18v5.2h-.83v-7.4h.73z"/><path d="M235.46 27.3q0 1.68-.75 2.67-.74.98-2.06.98-.78 0-1.37-.3-.58-.3-.95-.83v3.83h-.82V23.4h.7l.1 1.16q.36-.62.94-.95.6-.33 1.38-.33 1.34 0 2.1 1.07.74 1.06.74 2.83v.14zm-.82-.13q0-1.4-.56-2.3-.56-.9-1.64-.9-.83 0-1.35.4-.52.4-.78 1.03v3.55q.28.6.8.96.54.36 1.33.36 1.08 0 1.63-.8.56-.8.56-2.15v-.13z"/><path d="M238.2 30.8h-.8V20.15h.8V30.8z"/><path d="M243.24 30.95q-1.4 0-2.3-1.02-.93-1.03-.93-2.6v-.38q0-1.58.92-2.63.92-1.05 2.22-1.05 1.36 0 2.14.87.78.86.78 2.3v.7h-5.23v.2q0 1.24.67 2.08.66.84 1.74.84.77 0 1.3-.2.55-.22.93-.62l.35.56q-.42.44-1.06.7-.64.25-1.52.25zm-.1-6.98q-.9 0-1.53.7-.6.7-.7 1.74v.04h4.34v-.2q0-.97-.56-1.62-.57-.65-1.54-.65z"/><path d="M253.88 30.95q-1.4 0-2.3-1.02-.93-1.03-.93-2.6v-.38q0-1.58.9-2.63.93-1.05 2.23-1.05 1.36 0 2.14.87.78.86.78 2.3v.7h-5.23v.2q0 1.24.67 2.08.66.84 1.74.84.77 0 1.3-.2.55-.22.93-.62l.36.56q-.42.44-1.06.7-.64.25-1.52.25zm-.1-6.98q-.9 0-1.53.7-.6.7-.7 1.74v.04h4.33v-.2q0-.97-.56-1.62-.57-.65-1.54-.65z"/><path d="M262.75 28.93q0-.52-.43-.9-.42-.4-1.54-.65-1.32-.28-1.96-.76-.63-.47-.63-1.33 0-.86.7-1.44.72-.6 1.9-.6 1.25 0 1.98.64.73.6.7 1.54l-.02.04h-.76q0-.6-.52-1.06-.5-.45-1.4-.45-.88 0-1.33.4-.45.37-.45.9 0 .5.4.84.38.35 1.53.6 1.32.3 1.98.8.66.5.66 1.4 0 .9-.75 1.48-.73.57-1.96.57-1.35 0-2.12-.64-.77-.63-.73-1.52v-.04h.76q.05.8.65 1.16.62.36 1.44.36.88 0 1.4-.4.5-.38.5-.93z"/><path d="M269.9 28.93q0-.52-.44-.9-.42-.4-1.54-.65-1.32-.28-1.96-.76-.63-.47-.63-1.33 0-.86.7-1.44.73-.6 1.9-.6 1.26 0 2 .64.72.6.68 1.54v.04h-.76q0-.6-.52-1.06-.5-.45-1.4-.45-.88 0-1.33.4-.46.37-.46.9 0 .5.4.84.38.35 1.53.6 1.32.3 1.98.8.65.5.65 1.4 0 .9-.75 1.48-.74.57-1.97.57-1.35 0-2.12-.64-.77-.63-.73-1.52l.02-.04h.75q.05.8.65 1.16.6.36 1.43.36.88 0 1.4-.4.5-.38.5-.93z"/><path d="M277.28 30.8q-.08-.37-.12-.64-.03-.27-.03-.56-.4.6-1.1.97-.68.38-1.53.38-1.08 0-1.68-.57-.6-.58-.6-1.54 0-1.03.88-1.64.9-.62 2.4-.62h1.63v-.9q0-.8-.5-1.26-.52-.45-1.44-.45-.86 0-1.43.43-.56.43-.56 1.06h-.74v-.05q-.05-.82.74-1.47.8-.66 2.03-.66 1.22 0 1.97.63.74.62.74 1.78v3.64q0 .4.04.76.05.37.15.73h-.85zm-2.7-.57q.9 0 1.57-.4.68-.43.98-1.07V27.2h-1.65q-1.1 0-1.78.5-.67.46-.67 1.17 0 .6.42.98.4.38 1.14.38z"/><path d="M282.1 28.8l.27.9h.04l2.25-6.3h.9l-3.2 8.6q-.3.74-.75 1.27t-1.34.53q-.14 0-.34-.04-.2-.03-.3-.06l.1-.68q.07 0 .25.02t.27.02q.53 0 .85-.38.3-.38.54-.97l.4-1-2.87-7.3h.9l2.04 5.4z"/><path d="M291.57 21.52v1.9h1.63v.66h-1.63v4.82q0 .73.26 1.03.27.3.7.3.2 0 .4 0 .18-.03.42-.07l.13.6q-.2.1-.5.14-.3.05-.6.05-.77 0-1.2-.5-.44-.48-.44-1.55v-4.82h-1.28v-.67h1.28v-1.88h.83z"/><path d="M294.34 27q0-1.63.9-2.68.9-1.05 2.37-1.05 1.5 0 2.4 1.05.88 1.05.88 2.68v.23q0 1.64-.9 2.68-.88 1.05-2.36 1.05-1.5 0-2.38-1.04-.9-1.03-.9-2.67V27zm.82.23q0 1.28.65 2.16.66.86 1.82.86 1.14 0 1.8-.87.65-.9.65-2.17V27q0-1.26-.66-2.15-.64-.88-1.8-.88t-1.8.88q-.64.88-.64 2.15v.23z"/><path d="M11.92 47.17q0-1.77.75-2.83.75-1.07 2.1-1.07.76 0 1.33.33.57.33.94.93v-4.4h.82v10.68h-.73l-.07-1.07q-.37.6-.95.9t-1.35.32q-1.33 0-2.08-.98-.75-1-.75-2.66v-.13zm.82.14q0 1.35.54 2.15.54.8 1.62.8.8 0 1.3-.37.55-.35.84-.98v-3.47q-.28-.64-.8-1.04-.5-.4-1.33-.4-1.07 0-1.62.87-.54.9-.54 2.3v.14z"/><path d="M20.95 50.8h-.8v-7.4h.8v7.4zm0-9.5h-.8v-1.16h.8v1.15z"/><path d="M27.64 48.93q0-.52-.43-.9-.42-.4-1.53-.65-1.33-.28-1.96-.76-.62-.47-.62-1.33 0-.86.7-1.44.73-.6 1.9-.6 1.25 0 2 .64.72.6.68 1.54v.04h-.77q0-.6-.53-1.06-.5-.45-1.4-.45-.88 0-1.33.4-.45.37-.45.9 0 .5.37.84.4.35 1.55.6 1.32.3 1.98.8.65.5.65 1.4 0 .9-.75 1.48-.75.57-1.98.57-1.34 0-2.12-.64-.76-.63-.72-1.52v-.04h.77q.04.8.65 1.16.6.36 1.42.36.9 0 1.4-.4.52-.38.52-.93z"/><path d="M34.77 48.93q0-.52-.43-.9-.42-.4-1.53-.65-1.32-.28-1.96-.76-.63-.47-.63-1.33 0-.86.73-1.44.7-.6 1.9-.6 1.24 0 1.97.64.73.6.7 1.54l-.02.04h-.75q0-.6-.52-1.06-.5-.45-1.38-.45-.9 0-1.35.4-.44.37-.44.9 0 .5.38.84.4.35 1.56.6 1.3.3 1.97.8.66.5.66 1.4 0 .9-.76 1.48-.75.57-1.98.57-1.35 0-2.12-.64-.76-.63-.72-1.52v-.04h.76q.05.8.65 1.16.6.36 1.43.36.9 0 1.4-.4.5-.38.5-.93z"/><path d="M40.26 50.95q-1.4 0-2.3-1.02-.93-1.03-.93-2.6v-.38q0-1.58.9-2.63.93-1.05 2.22-1.05 1.36 0 2.14.87.77.86.77 2.3v.7h-5.22v.2q0 1.24.66 2.08.68.84 1.76.84.76 0 1.3-.2.54-.22.93-.62l.33.56q-.4.44-1.06.7-.63.25-1.5.25zm-.1-6.98q-.92 0-1.53.7-.62.7-.72 1.74l.03.04h4.33v-.2q0-.97-.57-1.62-.58-.65-1.55-.65z"/><path d="M48.1 44.12l-.6-.05q-.78 0-1.28.44t-.7 1.2v5.1h-.82v-7.4h.72l.1 1.24v.08q.32-.68.86-1.06t1.3-.4q.14 0 .3.04.14.02.23.05l-.1.77z"/><path d="M50.96 41.52v1.9h1.63v.66h-1.64v4.82q0 .73.26 1.03.27.3.7.3.2 0 .4 0 .18-.03.43-.07l.12.6q-.2.1-.5.14t-.6.05q-.77 0-1.2-.5-.44-.48-.44-1.55v-4.82h-1.27v-.67h1.27v-1.88h.83z"/><path d="M59 50.8q-.07-.37-.1-.64-.04-.27-.04-.56-.4.6-1.1.97-.68.38-1.53.38-1.08 0-1.7-.57-.58-.58-.58-1.54 0-1.03.88-1.64.9-.62 2.4-.62h1.63v-.9q0-.8-.52-1.26-.5-.45-1.42-.45-.85 0-1.42.43-.56.43-.56 1.06h-.75l-.03-.05q-.04-.82.76-1.47.8-.66 2.03-.66 1.22 0 1.97.63.74.62.74 1.78v3.64q0 .4.04.76.06.37.16.73H59zm-2.68-.57q.88 0 1.56-.4.68-.43.98-1.07V47.2H57.2q-1.1 0-1.77.5-.67.46-.67 1.17 0 .6.4.98.43.38 1.16.38z"/><path d="M63.13 41.52v1.9h1.63v.66h-1.63v4.82q0 .73.26 1.03.26.3.7.3.2 0 .38 0 .2-.03.43-.07l.14.6q-.2.1-.5.14t-.6.05q-.77 0-1.2-.5-.44-.48-.44-1.55v-4.82h-1.28v-.67h1.28v-1.88h.83z"/><path d="M67.4 50.8h-.8v-7.4h.8v7.4zm0-9.5h-.8v-1.16h.8v1.15z"/><path d="M69.2 47q0-1.63.9-2.68t2.37-1.05q1.5 0 2.38 1.05.9 1.05.9 2.68v.23q0 1.64-.9 2.68-.9 1.05-2.36 1.05-1.5 0-2.4-1.04-.9-1.03-.9-2.67V47zm.83.23q0 1.28.65 2.16t1.8.86q1.15 0 1.8-.87.66-.9.66-2.17V47q0-1.26-.66-2.15-.66-.88-1.8-.88t-1.8.88q-.65.88-.65 2.15v.23z"/><path d="M78.18 43.4l.08 1.3q.35-.68.96-1.05.6-.38 1.43-.38 1.2 0 1.83.74.63.74.63 2.3v4.5h-.8v-4.5q0-1.26-.5-1.8-.46-.5-1.33-.5-.87 0-1.4.44-.55.45-.8 1.2v5.17h-.8v-7.4h.7z"/><path d="M86.25 50.8h-.94v-1.1h.95v1.1z"/><path d="M99.56 50.8h-.8l-5.67-8.55h-.05v8.56h-.82v-9.95h.82l5.65 8.55h.05v-8.55h.8v9.96z"/><path d="M101.5 47q0-1.63.9-2.68t2.37-1.05q1.48 0 2.38 1.05.9 1.05.9 2.68v.23q0 1.64-.9 2.68-.9 1.05-2.37 1.05-1.5 0-2.38-1.04-.9-1.03-.9-2.67V47zm.82.23q0 1.28.65 2.16.65.86 1.8.86t1.8-.87q.66-.9.66-2.17V47q0-1.26-.66-2.15-.65-.88-1.8-.88t-1.8.88q-.65.88-.65 2.15v.23z"/><path d="M113.86 43.4l.08 1.23q.35-.64.94-1 .6-.36 1.4-.36.86 0 1.43.4.58.42.83 1.27.33-.78.95-1.22.62-.45 1.5-.45 1.2 0 1.83.8.66.78.66 2.42v4.3h-.82V46.5q0-1.37-.5-1.93-.47-.56-1.33-.56-.94 0-1.46.58-.52.6-.64 1.52 0 .05 0 .14 0 .1 0 .13v4.44h-.82V46.5q0-1.34-.5-1.9-.48-.6-1.33-.6-.87 0-1.38.45-.5.44-.7 1.18v5.2h-.84v-7.4h.73z"/><path d="M130.27 50.8q-.08-.37-.12-.64-.03-.27-.03-.56-.4.6-1.1.97-.68.38-1.53.38-1.1 0-1.7-.57-.6-.58-.6-1.54 0-1.03.9-1.64.88-.62 2.4-.62h1.62v-.9q0-.8-.5-1.26-.52-.45-1.43-.45-.87 0-1.44.43-.56.43-.56 1.06h-.75v-.05q-.05-.82.74-1.47.8-.66 2.02-.66t1.97.63q.73.62.73 1.78v3.64q0 .4.04.76.05.37.15.73h-.85zm-2.7-.57q.9 0 1.57-.4.68-.43.98-1.07V47.2h-1.65q-1.1 0-1.78.5-.68.46-.68 1.17 0 .6.42.98.4.38 1.14.38z"/><path d="M134.4 41.52v1.9H136v.66h-1.63v4.82q0 .73.25 1.03.27.3.7.3.2 0 .4 0 .18-.03.42-.07l.13.6q-.2.1-.5.14-.3.05-.6.05-.77 0-1.2-.5-.44-.48-.44-1.55v-4.82h-1.28v-.67h1.28v-1.88h.83z"/><path d="M139.04 41.52v1.9h1.63v.66h-1.63v4.82q0 .73.26 1.03.27.3.7.3.2 0 .4 0 .18-.03.42-.07l.13.6q-.2.1-.5.14-.3.05-.6.05-.77 0-1.2-.5-.44-.48-.44-1.55v-4.82h-1.27v-.67h1.28v-1.88h.84z"/><path d="M145.17 50.95q-1.4 0-2.3-1.02-.93-1.03-.93-2.6v-.38q0-1.58.9-2.63.93-1.05 2.23-1.05 1.36 0 2.14.87.8.86.8 2.3v.7h-5.24v.2q0 1.24.67 2.08.66.84 1.74.84.77 0 1.3-.2.55-.22.93-.62l.35.56q-.42.44-1.06.7-.65.25-1.53.25zm-.1-6.98q-.9 0-1.53.7-.6.7-.7 1.74v.04h4.33v-.2q0-.97-.56-1.62-.56-.65-1.53-.65z"/><path d="M153.02 44.12l-.6-.05q-.78 0-1.28.44t-.7 1.2v5.1h-.82v-7.4h.7l.12 1.24v.08q.32-.68.86-1.06.54-.4 1.28-.4.16 0 .3.04.15.02.25.05l-.1.77z"/><path d="M158.6 44.68q.38-.67 1-1.04.6-.37 1.43-.37 1.17 0 1.8.73.62.72.62 2.25v4.56h-.82v-4.57q0-1.2-.48-1.72-.47-.5-1.3-.5-.85 0-1.4.43-.57.44-.84 1.17v5.2h-.8V40.15h.8v4.54z"/><path d="M165.13 47q0-1.63.9-2.68.9-1.05 2.37-1.05 1.48 0 2.38 1.05.9 1.05.9 2.68v.23q0 1.64-.9 2.68-.9 1.05-2.37 1.05-1.48 0-2.38-1.04-.9-1.03-.9-2.67V47zm.82.23q0 1.28.65 2.16.65.86 1.8.86t1.8-.87q.66-.9.66-2.17V47q0-1.26-.66-2.15-.65-.88-1.8-.88t-1.8.88q-.65.88-.65 2.15v.23z"/><path d="M174.97 48.4l.28 1.33h.04l.34-1.32 1.57-5h.72l1.57 5 .34 1.36h.05l.3-1.35 1.34-5h.85l-2.17 7.4h-.7l-1.63-5.05-.33-1.28h-.04l-.32 1.28-1.6 5.06h-.7l-2.16-7.4h.85l1.37 5z"/><path d="M190.15 50.26q.8 0 1.44-.46.6-.47.6-1.3h.73l.02.05q.03 1.02-.82 1.7-.86.7-1.98.7-1.5 0-2.34-1.03-.8-1.04-.8-2.67v-.28q0-1.62.82-2.66.83-1.03 2.32-1.03 1.22 0 2.03.72.8.7.78 1.88v.04h-.74q0-.9-.6-1.4-.6-.55-1.46-.55-1.2 0-1.76.86-.57.84-.57 2.14v.28q0 1.32.58 2.16.57.86 1.77.86z"/><path d="M194.2 47q0-1.63.9-2.68t2.37-1.05q1.48 0 2.38 1.05t.9 2.68v.23q0 1.64-.9 2.68-.9 1.05-2.37 1.05-1.5 0-2.38-1.04-.9-1.03-.9-2.67V47zm.82.23q0 1.28.65 2.16.65.86 1.8.86t1.8-.87q.66-.9.66-2.17V47q0-1.26-.66-2.15-.65-.88-1.8-.88t-1.8.88q-.65.88-.65 2.15v.23z"/><path d="M203.14 43.4l.08 1.23q.35-.64.94-1 .6-.36 1.4-.36.86 0 1.43.4.56.42.8 1.27.34-.78.96-1.22.62-.45 1.5-.45 1.2 0 1.83.8.64.78.64 2.42v4.3h-.82V46.5q0-1.37-.5-1.93-.47-.56-1.33-.56-.96 0-1.48.58-.52.6-.64 1.52 0 .05 0 .14 0 .1 0 .13v4.44h-.82V46.5q0-1.34-.5-1.9-.48-.6-1.33-.6-.87 0-1.38.45-.5.44-.7 1.18v5.2h-.84v-7.4h.74z"/><path d="M220.8 47.3q0 1.68-.74 2.67-.75.98-2.07.98-.8 0-1.38-.3-.58-.3-.95-.83v3.83h-.82V43.4h.7l.1 1.16q.36-.62.94-.95.58-.33 1.37-.33 1.34 0 2.1 1.07.74 1.06.74 2.83v.14zm-.8-.13q0-1.4-.57-2.3-.56-.9-1.64-.9-.84 0-1.36.4-.5.4-.77 1.03v3.55q.28.6.8.96.54.36 1.33.36 1.08 0 1.63-.8.56-.8.56-2.15v-.13z"/><path d="M223.57 50.8h-.8V40.15h.8V50.8z"/><path d="M226.74 50.8h-.8v-7.4h.8v7.4zm0-9.5h-.8v-1.16h.8v1.15z"/><path d="M231.74 50.26q.8 0 1.44-.46.62-.47.62-1.3h.72l.02.05q.03 1.02-.82 1.7-.86.7-1.98.7-1.5 0-2.34-1.03-.82-1.04-.82-2.67v-.28q0-1.62.83-2.66.84-1.03 2.33-1.03 1.22 0 2.03.72.8.7.78 1.88v.04h-.74q0-.9-.6-1.4-.6-.55-1.47-.55-1.2 0-1.76.86-.57.84-.57 2.14v.28q0 1.32.57 2.16.57.86 1.77.86z"/><path d="M240.93 50.8q-.08-.37-.12-.64-.02-.27-.02-.56-.4.6-1.1.97-.68.38-1.53.38-1.08 0-1.68-.57-.6-.58-.6-1.54 0-1.03.88-1.64.9-.62 2.4-.62h1.63v-.9q0-.8-.5-1.26-.52-.45-1.43-.45-.86 0-1.43.43-.56.43-.56 1.06h-.75v-.05q-.04-.82.75-1.47.8-.66 2.03-.66 1.22 0 1.97.63.74.62.74 1.78v3.64q0 .4.03.76.05.37.15.73h-.85zm-2.7-.57q.9 0 1.57-.4.68-.43.98-1.07V47.2h-1.65q-1.1 0-1.78.5-.67.46-.67 1.17 0 .6.42.98.4.38 1.14.38z"/><path d="M245.05 41.52v1.9h1.63v.66h-1.63v4.82q0 .73.26 1.03.28.3.7.3.2 0 .4 0 .2-.03.43-.07l.13.6q-.2.1-.5.14-.3.05-.6.05-.77 0-1.2-.5-.44-.48-.44-1.55v-4.82h-1.28v-.67h1.28v-1.88h.83z"/><path d="M251.2 50.95q-1.4 0-2.32-1.02-.92-1.03-.92-2.6v-.38q0-1.58.9-2.63.93-1.05 2.23-1.05 1.35 0 2.13.87.78.86.78 2.3v.7h-5.22v.2q0 1.24.67 2.08.66.84 1.74.84.76 0 1.3-.2.54-.22.92-.62l.35.56q-.42.44-1.06.7-.63.25-1.5.25zm-.1-6.98q-.92 0-1.54.7-.6.7-.7 1.74v.04h4.33v-.2q0-.97-.57-1.62-.57-.65-1.54-.65z"/><path d="M255.3 47.17q0-1.77.76-2.83.75-1.07 2.1-1.07.76 0 1.33.33.55.33.93.93v-4.4h.8v10.68h-.7l-.08-1.07q-.37.6-.95.9-.58.32-1.37.32-1.32 0-2.07-.98-.75-1-.75-2.66v-.13zm.83.14q0 1.35.53 2.15.54.8 1.62.8.8 0 1.32-.37.54-.35.83-.98v-3.47q-.28-.64-.8-1.04-.5-.4-1.33-.4-1.08 0-1.63.87-.54.9-.54 2.3v.14z"/><path d="M268.94 48.8l.26.9h.04l2.24-6.3h.9l-3.2 8.6q-.3.74-.75 1.27t-1.34.53q-.15 0-.35-.04-.2-.03-.3-.06l.1-.68q.07 0 .25.02t.27.02q.53 0 .85-.38.32-.38.55-.97l.37-1-2.86-7.3h.9l2.04 5.4z"/><path d="M273.14 47q0-1.63.9-2.68.9-1.05 2.37-1.05 1.5 0 2.4 1.05.88 1.05.88 2.68v.23q0 1.64-.9 2.68-.88 1.05-2.36 1.05-1.5 0-2.38-1.04-.9-1.03-.9-2.67V47zm.82.23q0 1.28.65 2.16.66.86 1.82.86 1.14 0 1.8-.87.65-.9.65-2.17V47q0-1.26-.66-2.15-.64-.88-1.8-.88t-1.8.88q-.64.88-.64 2.15v.23z"/><path d="M286.23 49.6q-.36.65-.96 1t-1.42.35q-1.17 0-1.83-.8-.66-.78-.66-2.45v-4.3h.82v4.3q0 1.36.45 1.95.47.6 1.32.6.93 0 1.48-.43t.77-1.14V43.4h.82v7.4h-.72l-.07-1.2z"/><path d="M292.58 44.12l-.6-.05q-.78 0-1.28.44t-.7 1.2v5.1h-.82v-7.4h.7l.12 1.24v.08q.32-.68.86-1.06.54-.4 1.28-.4.16 0 .3.04.15.02.25.05l-.12.77z"/><path d="M5.47 70.8q-.08-.37-.12-.64-.03-.27-.03-.56-.4.6-1.1.97-.68.38-1.53.38-1.1 0-1.7-.57-.6-.58-.6-1.54 0-1.03.9-1.64.88-.62 2.38-.62h1.64v-.9q0-.8-.5-1.26-.52-.45-1.44-.45-.85 0-1.42.43-.56.43-.56 1.06H.65v-.05q-.06-.82.74-1.47.8-.66 2.02-.66t1.97.63q.73.62.73 1.78v3.64q0 .4.04.76.05.37.15.73h-.85zm-2.7-.57q.9 0 1.57-.4.68-.43.98-1.07V67.2H3.67q-1.1 0-1.78.5-.68.46-.68 1.17 0 .6.4.98.43.38 1.16.38z"/><path d="M12.73 68.93q0-.52-.43-.9-.42-.4-1.53-.65-1.33-.28-1.97-.76-.62-.47-.62-1.33 0-.86.7-1.44.72-.6 1.9-.6 1.25 0 1.98.64.73.6.7 1.54v.04h-.77q0-.6-.53-1.06-.52-.45-1.4-.45-.9 0-1.34.4-.44.37-.44.9 0 .5.37.84.4.35 1.55.6 1.32.3 1.97.8.65.5.65 1.4 0 .9-.75 1.48-.75.57-1.98.57-1.35 0-2.12-.64-.76-.63-.72-1.52v-.04h.76q.05.8.65 1.16.6.36 1.42.36.9 0 1.4-.4.52-.38.52-.93z"/><path d="M19.87 68.93q0-.52-.43-.9-.42-.4-1.54-.65-1.32-.28-1.96-.76-.63-.47-.63-1.33 0-.86.72-1.44.72-.6 1.9-.6 1.25 0 1.98.64.73.6.7 1.54l-.02.04h-.76q0-.6-.52-1.06-.5-.45-1.38-.45-.9 0-1.35.4-.44.37-.44.9 0 .5.38.84.4.35 1.55.6 1.32.3 1.98.8.66.5.66 1.4 0 .9-.77 1.48-.74.57-1.97.57-1.35 0-2.12-.64-.77-.63-.73-1.52l.03-.04h.75q.05.8.65 1.16.6.36 1.43.36.9 0 1.4-.4.5-.38.5-.93z"/><path d="M23.5 70.8h-.82v-7.4h.82v7.4zm0-9.5h-.82v-1.16h.82v1.15z"/><path d="M25.43 67.17q0-1.77.75-2.83.76-1.07 2.1-1.07.8 0 1.37.35.57.34.95.97l.1-1.2h.68v7.3q0 1.44-.8 2.27-.77.83-2.18.83-.54 0-1.14-.13-.6-.13-1.05-.36l.22-.68q.44.22.92.33.5.1 1.04.1 1.08 0 1.63-.6.56-.63.56-1.74v-.92q-.37.56-.95.87-.56.3-1.33.3-1.33 0-2.1-1-.74-.98-.74-2.64v-.13zm.82.14q0 1.35.55 2.15.54.8 1.62.8.8 0 1.32-.37.54-.36.82-1v-3.43q-.26-.64-.78-1.05-.52-.42-1.34-.42-1.08 0-1.64.9-.55.88-.55 2.3v.14z"/><path d="M34.27 63.4l.07 1.3q.36-.68.96-1.05.6-.38 1.44-.38 1.2 0 1.83.74.63.74.63 2.3v4.5h-.82v-4.5q0-1.26-.48-1.8-.47-.5-1.35-.5-.86 0-1.4.44-.55.45-.8 1.2v5.17h-.8v-7.4h.72z"/><path d="M42.03 63.4l.07 1.23q.36-.64.95-1 .6-.36 1.4-.36.86 0 1.43.4.57.42.82 1.27.33-.78.95-1.22.62-.45 1.5-.45 1.2 0 1.83.8.64.78.64 2.42v4.3h-.82V66.5q0-1.37-.48-1.93-.48-.57-1.34-.57-.95 0-1.47.6-.5.6-.63 1.52 0 .05 0 .14 0 .1 0 .13v4.44h-.82V66.5q0-1.34-.5-1.9-.48-.6-1.34-.6-.85 0-1.37.45-.5.44-.7 1.18v5.2h-.83v-7.4h.73z"/><path d="M56.53 70.95q-1.4 0-2.3-1.02-.93-1.03-.93-2.6v-.38q0-1.58.9-2.63.92-1.05 2.22-1.05 1.36 0 2.14.87.78.86.78 2.3v.7h-5.22v.2q0 1.24.66 2.08.67.84 1.75.84.76 0 1.3-.2.54-.22.92-.62l.35.56q-.4.44-1.06.7-.63.25-1.5.25zm-.1-6.98q-.92 0-1.53.7-.62.7-.72 1.74l.02.04h4.33v-.2q0-.97-.57-1.62-.57-.65-1.54-.65z"/><path d="M61.7 63.4l.07 1.3q.35-.68.96-1.05.6-.38 1.43-.38 1.2 0 1.83.74.62.74.62 2.3v4.5h-.82v-4.5q0-1.26-.48-1.8-.47-.5-1.34-.5-.86 0-1.4.44-.55.45-.8 1.2v5.17H61v-7.4h.7z"/><path d="M70.05 61.52v1.9h1.63v.66h-1.63v4.82q0 .73.26 1.03.27.3.7.3.2 0 .4 0 .2-.03.43-.07l.13.6q-.2.1-.5.14-.3.05-.6.05-.77 0-1.2-.5-.44-.48-.44-1.55v-4.82h-1.28v-.67h1.28v-1.88h.83z"/><path d="M77.75 70.8h-.82v-7.4h.8v7.4zm0-9.5h-.82v-1.16h.8v1.15z"/><path d="M84.43 68.93q0-.52-.43-.9-.42-.4-1.54-.65-1.32-.28-1.96-.76-.63-.47-.63-1.33 0-.86.7-1.44.73-.6 1.9-.6 1.26 0 2 .64.72.6.7 1.54l-.03.04h-.76q0-.6-.52-1.06-.5-.45-1.38-.45-.9 0-1.35.4-.45.37-.45.9 0 .5.4.84.38.35 1.53.6 1.33.3 2 .8.64.5.64 1.4 0 .9-.75 1.48-.75.57-1.98.57-1.35 0-2.12-.64-.77-.63-.73-1.52l.02-.04h.74q.05.8.65 1.16.6.36 1.42.36.9 0 1.4-.4.5-.38.5-.93z"/><path d="M90.1 67q0-1.63.9-2.68t2.37-1.05q1.48 0 2.37 1.05.9 1.05.9 2.68v.23q0 1.64-.9 2.68-.88 1.05-2.36 1.05-1.5 0-2.4-1.04-.88-1.03-.88-2.67V67zm.82.23q0 1.28.65 2.16t1.8.86q1.15 0 1.8-.87.66-.9.66-2.17V67q0-1.26-.66-2.15-.66-.88-1.8-.88t-1.8.88q-.65.88-.65 2.15v.23z"/><path d="M101.75 64.11l-.6-.03q-.78 0-1.28.44t-.7 1.2v5.1h-.82v-7.4h.7l.12 1.24v.08q.32-.68.86-1.06.54-.4 1.28-.4.17 0 .3.04.16.02.26.05l-.1.77z"/><path d="M108.12 68.4l.28 1.33h.04l.35-1.32 1.56-5h.7l1.58 5 .35 1.36h.04l.3-1.35 1.35-5h.84l-2.16 7.4h-.7l-1.63-5.05-.33-1.28h-.04l-.32 1.28-1.62 5.06h-.7l-2.15-7.4h.84l1.38 5z"/><path d="M117.95 64.68q.37-.67.98-1.04.62-.37 1.44-.37 1.17 0 1.8.73.62.72.62 2.25v4.56h-.83v-4.57q0-1.2-.48-1.72-.48-.5-1.3-.5-.86 0-1.42.43-.56.44-.83 1.17v5.2h-.82V60.15h.82v4.54z"/><path d="M129.6 70.8q-.07-.37-.1-.64-.04-.27-.04-.56-.4.6-1.1.97-.68.38-1.53.38-1.08 0-1.68-.57-.6-.58-.6-1.54 0-1.03.88-1.64.9-.62 2.4-.62h1.63v-.9q0-.8-.5-1.26-.52-.45-1.43-.45-.86 0-1.43.43-.56.43-.56 1.06h-.75l-.02-.05q-.04-.82.75-1.47.8-.66 2.03-.66 1.22 0 1.97.63.74.62.74 1.78v3.64q0 .4.04.76.06.37.16.73h-.85zm-2.68-.57q.9 0 1.56-.4.68-.43.98-1.07V67.2h-1.65q-1.1 0-1.77.5-.67.46-.67 1.17 0 .6.42.98.4.38 1.14.38z"/><path d="M133.73 61.52v1.9h1.63v.66h-1.63v4.82q0 .73.26 1.03.26.3.7.3.2 0 .38 0 .2-.03.43-.07l.14.6q-.2.1-.5.14-.3.05-.6.05-.77 0-1.2-.5-.44-.48-.44-1.55v-4.82h-1.28v-.67h1.28v-1.88h.83z"/><path d="M141.8 61.52v1.9h1.63v.66h-1.63v4.82q0 .73.26 1.03.27.3.7.3.2 0 .4 0 .18-.03.42-.07l.13.6q-.2.1-.5.14-.3.05-.58.05-.78 0-1.22-.5-.43-.48-.43-1.55v-4.82h-1.28v-.67h1.27v-1.88h.83z"/><path d="M144.57 67q0-1.63.9-2.68.9-1.05 2.37-1.05 1.48 0 2.38 1.05.9 1.05.9 2.68v.23q0 1.64-.9 2.68-.9 1.05-2.37 1.05-1.5 0-2.4-1.04-.9-1.03-.9-2.67V67zm.82.23q0 1.28.64 2.16.65.86 1.8.86t1.8-.87q.66-.9.66-2.17V67q0-1.26-.66-2.15-.65-.88-1.8-.88t-1.8.88q-.65.88-.65 2.15v.23z"/><path d="M158.77 67.3q0 1.68-.75 2.67-.75.98-2.07.98-.78 0-1.37-.3-.58-.3-.95-.83v3.83h-.82V63.4h.7l.1 1.16q.37-.62.95-.95.6-.33 1.38-.33 1.34 0 2.1 1.07.74 1.06.74 2.83v.14zm-.82-.13q0-1.4-.56-2.3-.57-.9-1.65-.9-.83 0-1.35.4-.5.4-.77 1.03v3.55q.28.6.8.96.54.36 1.33.36 1.08 0 1.63-.8.55-.8.55-2.15v-.13z"/><path d="M161.53 70.8h-.8v-7.4h.8v7.4zm0-9.5h-.8v-1.16h.8v1.15z"/><path d="M166.52 70.26q.8 0 1.44-.46.62-.47.62-1.3h.72l.02.05q.03 1.02-.82 1.7-.86.7-1.98.7-1.5 0-2.34-1.03-.82-1.04-.82-2.67v-.28q0-1.62.83-2.66.82-1.03 2.3-1.03 1.23 0 2.04.72.8.7.78 1.88v.04h-.74q0-.9-.6-1.4-.6-.55-1.47-.55-1.18 0-1.75.86-.57.84-.57 2.14v.28q0 1.32.57 2.16.57.86 1.77.86z"/><path d="M176.54 68.8l.26.9h.04l2.24-6.3h.9l-3.2 8.6q-.3.74-.75 1.27t-1.34.53q-.15 0-.35-.04-.2-.03-.3-.06l.1-.68q.07 0 .25.02t.27.02q.53 0 .85-.38.32-.38.55-.97l.4-1-2.87-7.3h.9l2.04 5.4z"/><path d="M180.74 67q0-1.63.9-2.68.9-1.05 2.37-1.05 1.5 0 2.4 1.05.88 1.05.88 2.68v.23q0 1.64-.9 2.68-.88 1.05-2.36 1.05-1.5 0-2.38-1.04-.9-1.03-.9-2.67V67zm.82.23q0 1.28.65 2.16.66.86 1.82.86 1.14 0 1.8-.87.65-.9.65-2.17V67q0-1.26-.66-2.15-.64-.88-1.8-.88t-1.8.88q-.64.88-.64 2.15v.23z"/><path d="M193.84 69.6q-.36.65-.96 1t-1.42.35q-1.17 0-1.83-.8-.66-.78-.66-2.45v-4.3h.82v4.3q0 1.36.44 1.95.47.6 1.32.6.93 0 1.48-.43t.77-1.14V63.4h.83v7.4h-.72l-.06-1.2z"/><path d="M201.02 64.68q.37-.67.98-1.04.62-.37 1.44-.37 1.17 0 1.8.73.62.72.62 2.25v4.56h-.82v-4.57q0-1.2-.48-1.72-.47-.5-1.3-.5-.85 0-1.4.43-.57.44-.84 1.17v5.2h-.82V60.15h.82v4.54z"/><path d="M212.68 70.8q-.08-.37-.12-.64-.03-.27-.03-.56-.4.6-1.1.97-.68.38-1.53.38-1.08 0-1.68-.57-.6-.58-.6-1.54 0-1.03.88-1.64.9-.62 2.4-.62h1.63v-.9q0-.8-.5-1.26-.52-.45-1.43-.45-.86 0-1.43.43-.56.43-.56 1.06h-.74v-.05q-.05-.82.74-1.47.8-.66 2.03-.66 1.22 0 1.97.63.74.62.74 1.78v3.64q0 .4.04.76.05.37.15.73h-.85zm-2.7-.57q.9 0 1.57-.4.68-.43.98-1.07V67.2h-1.65q-1.1 0-1.78.5-.67.46-.67 1.17 0 .6.42.98.4.38 1.14.38z"/><path d="M217.5 68.95l.25.87h.04l.25-.86 2-5.55h.86l-2.8 7.4h-.66l-2.8-7.4h.83l2.04 5.55z"/><path d="M224.96 70.95q-1.4 0-2.3-1.02-.93-1.03-.93-2.6v-.38q0-1.58.9-2.63.93-1.05 2.23-1.05 1.36 0 2.14.87.78.86.78 2.3v.7h-5.23v.2q0 1.24.67 2.08.66.84 1.74.84.77 0 1.3-.2.55-.22.93-.62l.34.56q-.42.44-1.06.7-.64.25-1.52.25zm-.1-6.98q-.9 0-1.53.7-.6.7-.7 1.74v.04h4.33v-.2q0-.97-.56-1.62-.57-.65-1.54-.65z"/><path d="M234.1 61.52v1.9h1.64v.66h-1.63v4.82q0 .73.27 1.03.27.3.7.3.2 0 .4 0 .18-.03.42-.07l.12.6q-.2.1-.5.14-.3.05-.6.05-.77 0-1.2-.5-.44-.48-.44-1.55v-4.82H232v-.67h1.28v-1.88h.83z"/><path d="M236.88 67q0-1.63.9-2.68.9-1.05 2.37-1.05 1.48 0 2.38 1.05.9 1.05.9 2.68v.23q0 1.64-.9 2.68-.9 1.05-2.37 1.05-1.5 0-2.4-1.04-.9-1.03-.9-2.67V67zm.82.23q0 1.28.65 2.16.65.86 1.8.86t1.8-.87q.66-.9.66-2.17V67q0-1.26-.65-2.15-.65-.88-1.8-.88t-1.8.88q-.65.88-.65 2.15v.23z"/><path d="M250.14 68.4l.28 1.33h.04l.35-1.32 1.58-5h.7l1.58 5 .35 1.36h.06l.3-1.35 1.35-5h.86l-2.16 7.4h-.7l-1.63-5.05-.33-1.28h-.04l-.32 1.28-1.62 5.06h-.7l-2.15-7.4h.86l1.38 5z"/><path d="M262.56 64.11l-.6-.03q-.78 0-1.28.44t-.7 1.2v5.1h-.82v-7.4h.7l.12 1.24v.08q.32-.68.86-1.06t1.28-.4q.16 0 .3.04.15.02.25.05l-.1.77z"/><path d="M264.83 70.8h-.8v-7.4h.8v7.4zm0-9.5h-.8v-1.16h.8v1.15z"/><path d="M268.37 61.52v1.9H270v.66h-1.63v4.82q0 .73.26 1.03.27.3.7.3.2 0 .4 0 .18-.03.42-.07l.13.6q-.2.1-.5.14-.3.05-.6.05-.77 0-1.2-.5-.44-.48-.44-1.55v-4.82h-1.28v-.67h1.28v-1.88h.83z"/><path d="M274.5 70.95q-1.38 0-2.3-1.02-.92-1.03-.92-2.6v-.38q0-1.58.9-2.63.93-1.05 2.23-1.05 1.37 0 2.15.87.78.86.78 2.3v.7h-5.23v.2q0 1.24.67 2.08.66.84 1.74.84.78 0 1.32-.2.54-.22.92-.62l.35.56q-.43.44-1.07.7-.64.25-1.52.25zm-.1-6.98q-.9 0-1.5.7-.63.7-.73 1.74v.04h4.35v-.2q0-.97-.57-1.62-.57-.65-1.54-.65z"/><path d="M281.9 67q0-1.63.9-2.68t2.38-1.05q1.48 0 2.38 1.05t.9 2.68v.23q0 1.64-.9 2.68-.9 1.05-2.37 1.05-1.5 0-2.4-1.04-.9-1.03-.9-2.67V67zm.83.23q0 1.28.65 2.16.65.86 1.8.86t1.8-.87q.66-.9.66-2.17V67q0-1.26-.66-2.15-.65-.88-1.8-.88t-1.8.88q-.65.88-.65 2.15v.23z"/><path d="M290.9 63.4l.07 1.3q.35-.68.95-1.05.6-.38 1.44-.38 1.2 0 1.83.74.62.74.62 2.3v4.5H295v-4.5q0-1.26-.48-1.8-.47-.5-1.35-.5-.86 0-1.4.44-.55.45-.78 1.2v5.17h-.83v-7.4h.72z"/><path d="M303.9 66.9h-3.26v-.68h3.27v.7z"/><path d="M93.89 87.17q-.02-1.77.73-2.83.75-1.07 2.1-1.07.75 0 1.32.33.57.3.94.9l.07-1.1h.7v10.25h-.8v-3.8q-.38.53-.94.8t-1.32.3q-1.32 0-2.07-.98-.74-1-.74-2.66v-.13zm.8.14q0 1.35.54 2.16.54.8 1.62.8.76 0 1.28-.34.53-.35.83-.94v-3.63q-.28-.6-.8-1-.5-.38-1.3-.38-1.08 0-1.63.9-.54.9-.54 2.3v.14z"/><path d="M106.85 89.6q-.36.65-.96 1t-1.43.35q-1.17 0-1.83-.8-.66-.78-.66-2.45v-4.3h.82v4.3q0 1.36.45 1.95.47.6 1.32.6.93 0 1.48-.43t.77-1.14V83.4h.82v7.4h-.72l-.07-1.2z"/><path d="M114.47 90.8q-.08-.37-.12-.64-.03-.27-.03-.56-.4.6-1.1.97-.68.38-1.53.38-1.1 0-1.7-.57-.6-.58-.6-1.54 0-1.03.9-1.64.88-.62 2.4-.62h1.62v-.9q0-.8-.5-1.26-.52-.45-1.43-.45-.87 0-1.44.43-.56.43-.56 1.06h-.75v-.05q-.05-.82.74-1.47.8-.66 2.02-.66t1.97.63q.73.62.73 1.78v3.64q0 .4.04.76.05.37.15.73h-.85zm-2.7-.57q.9 0 1.57-.4.68-.43.98-1.07V87.2h-1.65q-1.1 0-1.78.5-.68.46-.68 1.17 0 .6.42.98.4.38 1.14.38z"/><path d="M118.23 90.8h-.8V80.15h.8V90.8z"/><path d="M121.4 90.8h-.8v-7.4h.8v7.4zm0-9.5h-.8v-1.16h.8v1.15z"/><path d="M124.94 81.52v1.9h1.63v.66h-1.63v4.82q0 .73.26 1.03.27.3.7.3.2 0 .4 0 .18-.03.42-.07l.13.6q-.2.1-.5.14-.3.05-.6.05-.77 0-1.2-.5-.44-.48-.44-1.55v-4.82h-1.27v-.67h1.28v-1.88h.84z"/><path d="M130.4 88.8l.26.9h.04l2.24-6.3h.9l-3.2 8.6q-.3.74-.75 1.27-.46.53-1.35.53-.14 0-.34-.04-.2-.03-.3-.06l.1-.68q.08 0 .26.02t.27.02q.53 0 .85-.38.32-.38.55-.97l.4-1-2.87-7.3h.9l2.04 5.4z"/><path d="M138.26 87.17q0-1.77.75-2.83.77-1.07 2.12-1.07.78 0 1.36.35.57.34.95.97l.1-1.2h.68v7.3q0 1.44-.78 2.27-.78.83-2.2.83-.53 0-1.13-.13-.6-.13-1.06-.36l.2-.68q.45.22.93.33.5.1 1.04.1 1.1 0 1.64-.6.55-.63.55-1.74v-.92q-.38.56-.96.87-.57.3-1.34.3-1.33 0-2.1-1-.74-.98-.74-2.64v-.13zm.82.14q0 1.35.55 2.15.54.8 1.62.8.8 0 1.32-.37.54-.36.82-1v-3.43q-.27-.64-.8-1.05-.5-.4-1.33-.4-1.08 0-1.64.87-.55.9-.55 2.3v.14z"/><path d="M151.22 89.6q-.36.65-.96 1t-1.42.35q-1.17 0-1.83-.8-.65-.78-.65-2.45v-4.3h.82v4.3q0 1.36.45 1.95.47.6 1.32.6.93 0 1.48-.43t.77-1.14V83.4h.8v7.4h-.7l-.08-1.2z"/><path d="M158.85 90.8q-.08-.37-.12-.64-.03-.27-.03-.56-.4.6-1.1.97-.68.38-1.53.38-1.08 0-1.68-.57-.6-.58-.6-1.54 0-1.03.87-1.64.9-.62 2.4-.62h1.63v-.9q0-.8-.5-1.26-.52-.45-1.43-.45-.86 0-1.43.43-.56.43-.56 1.06h-.75v-.05q-.05-.82.74-1.47.8-.66 2.03-.66 1.22 0 1.97.63.74.62.74 1.78v3.64q0 .4.05.76.05.37.15.73h-.85zm-2.7-.57q.9 0 1.57-.4.68-.43.98-1.07V87.2h-1.65q-1.1 0-1.78.5-.67.46-.67 1.17 0 .6.42.98.4.38 1.14.38z"/><path d="M165.1 84.11l-.62-.03q-.77 0-1.27.44-.48.44-.7 1.2v5.1h-.8v-7.4h.7l.1 1.24v.08q.33-.68.87-1.06t1.28-.4q.16 0 .3.04.15.02.25.05l-.1.77z"/><path d="M171.13 90.8q-.08-.37-.12-.64-.02-.27-.02-.56-.4.6-1.1.97-.68.38-1.53.38-1.08 0-1.68-.57-.6-.58-.6-1.54 0-1.03.88-1.64.9-.62 2.4-.62h1.63v-.9q0-.8-.5-1.26-.52-.45-1.43-.45-.86 0-1.43.43-.56.43-.56 1.06h-.75v-.05q-.04-.82.75-1.47.8-.66 2.03-.66 1.22 0 1.97.63.74.62.74 1.78v3.64q0 .4.03.76.05.37.15.73h-.85zm-2.7-.57q.9 0 1.57-.4.68-.43.98-1.07V87.2h-1.65q-1.1 0-1.78.5-.67.46-.67 1.17 0 .6.42.98.4.38 1.14.38z"/><path d="M174.7 83.4l.07 1.3q.35-.68.95-1.05.6-.38 1.44-.38 1.2 0 1.83.74.62.74.62 2.3v4.5h-.82v-4.5q0-1.26-.48-1.8-.47-.5-1.35-.5-.86 0-1.4.44-.55.45-.78 1.2v5.17h-.83v-7.4h.72z"/><path d="M183.05 81.52v1.9h1.63v.66h-1.63v4.82q0 .73.26 1.03.28.3.7.3.2 0 .4 0 .2-.03.43-.07l.13.6q-.2.1-.5.14-.3.05-.6.05-.77 0-1.2-.5-.44-.48-.44-1.55v-4.82h-1.28v-.67h1.28v-1.88h.83z"/><path d="M189.18 90.95q-1.4 0-2.3-1.02-.93-1.03-.93-2.6v-.38q0-1.58.9-2.63.93-1.05 2.23-1.05 1.36 0 2.14.87.78.86.78 2.3v.7h-5.23v.2q0 1.24.67 2.08.66.84 1.74.84.77 0 1.3-.2.55-.22.93-.62l.36.56q-.42.44-1.06.7-.64.25-1.52.25zm-.1-6.98q-.9 0-1.53.7-.6.7-.7 1.74v.04h4.33v-.2q0-.97-.56-1.62-.57-.65-1.54-.65z"/><path d="M196.4 90.95q-1.4 0-2.3-1.02-.93-1.03-.93-2.6v-.38q0-1.58.9-2.63.93-1.05 2.23-1.05 1.36 0 2.14.87.78.86.78 2.3v.7H194v.2q0 1.24.66 2.08.66.84 1.74.84.77 0 1.3-.2.55-.22.93-.62l.35.56q-.42.44-1.06.7-.64.25-1.52.25zm-.1-6.98q-.9 0-1.53.7-.6.7-.7 1.74v.04h4.33v-.2q0-.97-.56-1.62-.57-.65-1.54-.65z"/><path d="M200.53 87.17q0-1.77.75-2.83.75-1.07 2.1-1.07.76 0 1.33.33.57.33.95.93v-4.4h.8v10.68h-.7l-.08-1.07q-.37.6-.95.9t-1.37.32q-1.32 0-2.07-.98-.75-1-.75-2.66v-.13zm.82.14q0 1.35.53 2.15.54.8 1.62.8.8 0 1.32-.37.54-.35.83-.98v-3.47q-.28-.64-.8-1.04-.5-.4-1.33-.4-1.08 0-1.63.87-.55.9-.55 2.3v.14z"/><path d="M209.64 90.8h-.94v-1.1h.94v1.1z"/></g></svg>