<?xml version="1.0" encoding="UTF-8"?>
<svg width="56px" height="60px" viewBox="0 0 56 60" version="1.1" xmlns="http://www.w3.org/2000/svg" xmlns:xlink="http://www.w3.org/1999/xlink">
    <!-- Generator: Sketch 51.1 (57501) - http://www.bohemiancoding.com/sketch -->
    <title>icon</title>
    <desc>Created with Sketch.</desc>
    <defs>
        <linearGradient x1="-1.88040761%" y1="50%" x2="130.586984%" y2="50%" id="linearGradient-1">
            <stop stop-color="#F26C3A" offset="0%"></stop>
            <stop stop-color="#FFAE50" offset="100%"></stop>
        </linearGradient>
    </defs>
    <g id="Page-1" stroke="none" stroke-width="1" fill="none" fill-rule="evenodd">
        <g id="OZessay_About-us" transform="translate(-413.000000, -1784.000000)" fill="url(#linearGradient-1)" fill-rule="nonzero">
            <g id="about-us-icons" transform="translate(375.000000, 1746.000000)">
                <g id="1">
                    <g id="icon" transform="translate(38.000000, 38.000000)">
                        <path d="M44.9565217,58 L2.04347826,58 L2.04347826,2 L34.7391304,2 L34.7391304,12 L44.9565217,12 L44.9565217,15 L47,15 L47,10.586 L36.1838696,0 L0,0 L0,60 L47,60 L47,43 L44.9565217,43 L44.9565217,58 Z M36.7826087,3.414 L43.5117826,10 L36.7826087,10 L36.7826087,3.414 Z" id="Shape"></path>
                        <g id="Group" transform="translate(6.000000, 6.000000)">
                            <polygon id="Shape" points="0.0299442235 0 2.07741249 0 2.07741249 1.96499153 0.0299442235 1.96499153"></polygon>
                            <polygon id="Shape" points="4.12488076 0 24.5995635 0 24.5995635 1.96499153 4.12488076 1.96499153"></polygon>
                            <polygon id="Shape" points="0.0299442235 3.92998306 24.5995635 3.92998306 24.5995635 5.89497459 0.0299442235 5.89497459"></polygon>
                            <polygon id="Shape" points="0.0299442235 7.85996612 34.8369048 7.85996612 34.8369048 9.82495765 0.0299442235 9.82495765"></polygon>
                            <polygon id="Shape" points="0.0299442235 11.7899492 34.8369048 11.7899492 34.8369048 13.7549407 0.0299442235 13.7549407"></polygon>
                            <polygon id="Shape" points="0.0299442235 15.7199322 34.8369048 15.7199322 34.8369048 17.6849238 0.0299442235 17.6849238"></polygon>
                            <polygon id="Shape" points="0.0299442235 19.6499153 34.8369048 19.6499153 34.8369048 21.6149068 0.0299442235 21.6149068"></polygon>
                            <polygon id="Shape" points="0.0299442235 23.5798984 30.7419683 23.5798984 30.7419683 25.5448899 0.0299442235 25.5448899"></polygon>
                            <polygon id="Shape" points="0.0299442235 27.5098814 30.7419683 27.5098814 30.7419683 29.474873 0.0299442235 29.474873"></polygon>
                            <polygon id="Shape" points="0.0299442235 31.4398645 28.6945 31.4398645 28.6945 33.404856 0.0299442235 33.404856"></polygon>
                            <polygon id="Shape" points="0.0299442235 35.3698475 26.6470317 35.3698475 26.6470317 37.3348391 0.0299442235 37.3348391"></polygon>
                            <path d="M18.8666523,44.6839074 C19.557161,44.6886971 20.2241238,44.4430731 20.7339434,43.9961604 C20.9898769,43.7996612 21.066657,43.7407115 21.3215668,43.7407115 C21.5764766,43.7407115 21.6532566,43.7996612 21.9091902,43.9961604 C22.9722101,44.9124605 24.5838236,44.9124605 25.6468435,43.9961604 C25.902777,43.7996612 25.9805808,43.739729 26.2365143,43.739729 C26.4924479,43.739729 26.5702517,43.7986787 26.8272089,43.9961604 C27.3381802,44.4425819 28.0055269,44.688083 28.6965475,44.6839074 L28.6965475,42.7189159 C28.4406139,42.7189159 28.3628101,42.6599661 28.1058529,42.4624845 C27.0421931,41.547044 25.4308356,41.547044 24.3671758,42.4624845 C24.1112423,42.6589836 24.0334385,42.7189159 23.777505,42.7189159 C23.5215714,42.7189159 23.4458151,42.6599661 23.1888578,42.463467 C22.1268616,41.5465528 20.5152482,41.5465528 19.453252,42.463467 C19.1973184,42.6599661 19.1205384,42.7189159 18.8666523,42.7189159 C18.6127662,42.7189159 18.5349624,42.6599661 18.2790289,42.463467 C17.7686974,42.016063 17.1008389,41.770439 16.4096904,41.7757199 L16.4096904,43.7407115 C16.6635765,43.7407115 16.7403565,43.7996612 16.99629,43.9961604 C17.5073893,44.4430731 18.1752479,44.6886971 18.8666523,44.6839074 Z" id="Shape"></path>
                            <path d="M48.0676448,7.71160926 L46.2003537,6.90399774 C44.6536194,6.23602343 42.8353396,6.89785714 42.1393284,8.38228543 C42.1393284,8.38240824 42.1392004,8.38253106 42.1392004,8.38265387 L28.5491298,37.3495765 L30.0417341,43.7407115 L36.0172703,40.5770751 L49.6073409,11.60917 C50.3005369,10.1247417 49.6119477,8.381917 48.0676448,7.71160926 Z M31.0736581,39.1514737 L32.9399255,39.9581028 L31.4462974,40.7440994 L31.0736581,39.1514737 Z M34.7150805,38.5688538 L30.9764034,36.9614907 L41.9006703,13.6684811 L45.6352525,15.2827216 L34.7150805,38.5688538 Z M47.7359549,10.8074534 L46.4757382,13.4945793 L42.7411561,11.8803388 L44.0023965,9.19419537 C44.2350401,8.70012281 44.8407068,8.48028938 45.3557731,8.70294749 L47.2230641,9.50859401 C47.7382583,9.73149774 47.9678307,10.3128896 47.7359549,10.8074534 Z" id="Shape"></path>
                        </g>
                    </g>
                </g>
            </g>
        </g>
    </g>
</svg>