<?xml version="1.0" encoding="UTF-8"?>
<svg width="57px" height="58px" viewBox="0 0 57 58" version="1.1" xmlns="http://www.w3.org/2000/svg" xmlns:xlink="http://www.w3.org/1999/xlink">
    <!-- Generator: Sketch 51.1 (57501) - http://www.bohemiancoding.com/sketch -->
    <title>icon</title>
    <desc>Created with Sketch.</desc>
    <defs>
        <linearGradient x1="-1.88040761%" y1="50%" x2="130.586984%" y2="50%" id="linearGradient-1">
            <stop stop-color="#F26C3A" offset="0%"></stop>
            <stop stop-color="#FFAE50" offset="100%"></stop>
        </linearGradient>
        <linearGradient x1="-5.77775463%" y1="50%" x2="128.685208%" y2="50%" id="linearGradient-2">
            <stop stop-color="#E93E3A" offset="0%"></stop>
            <stop stop-color="#ED683C" offset="35.5%"></stop>
            <stop stop-color="#F3903F" offset="71.4%"></stop>
            <stop stop-color="#FDC70C" offset="100%"></stop>
        </linearGradient>
        <linearGradient x1="-18.454517%" y1="50%" x2="146.56821%" y2="50%" id="linearGradient-3">
            <stop stop-color="#E93E3A" offset="0%"></stop>
            <stop stop-color="#ED683C" offset="35.5%"></stop>
            <stop stop-color="#F3903F" offset="71.4%"></stop>
            <stop stop-color="#FDC70C" offset="100%"></stop>
        </linearGradient>
        <linearGradient x1="-28.9999554%" y1="50%" x2="230.321473%" y2="50%" id="linearGradient-4">
            <stop stop-color="#E93E3A" offset="0%"></stop>
            <stop stop-color="#ED683C" offset="35.5%"></stop>
            <stop stop-color="#F3903F" offset="71.4%"></stop>
            <stop stop-color="#FDC70C" offset="100%"></stop>
        </linearGradient>
        <linearGradient x1="-242.39975%" y1="50%" x2="1209.80025%" y2="50%" id="linearGradient-5">
            <stop stop-color="#E93E3A" offset="0%"></stop>
            <stop stop-color="#ED683C" offset="35.5%"></stop>
            <stop stop-color="#F3903F" offset="71.4%"></stop>
            <stop stop-color="#FDC70C" offset="100%"></stop>
        </linearGradient>
        <linearGradient x1="-173.27267%" y1="50%" x2="156.772784%" y2="50%" id="linearGradient-6">
            <stop stop-color="#E93E3A" offset="0%"></stop>
            <stop stop-color="#ED683C" offset="35.5%"></stop>
            <stop stop-color="#F3903F" offset="71.4%"></stop>
            <stop stop-color="#FDC70C" offset="100%"></stop>
        </linearGradient>
        <linearGradient x1="-2105.99938%" y1="50%" x2="1524.50062%" y2="50%" id="linearGradient-7">
            <stop stop-color="#E93E3A" offset="0%"></stop>
            <stop stop-color="#ED683C" offset="35.5%"></stop>
            <stop stop-color="#F3903F" offset="71.4%"></stop>
            <stop stop-color="#FDC70C" offset="100%"></stop>
        </linearGradient>
        <linearGradient x1="-461.199875%" y1="50%" x2="264.900125%" y2="50%" id="linearGradient-8">
            <stop stop-color="#E93E3A" offset="0%"></stop>
            <stop stop-color="#ED683C" offset="35.5%"></stop>
            <stop stop-color="#F3903F" offset="71.4%"></stop>
            <stop stop-color="#FDC70C" offset="100%"></stop>
        </linearGradient>
        <linearGradient x1="-300.857054%" y1="50%" x2="217.785804%" y2="50%" id="linearGradient-9">
            <stop stop-color="#E93E3A" offset="0%"></stop>
            <stop stop-color="#ED683C" offset="35.5%"></stop>
            <stop stop-color="#F3903F" offset="71.4%"></stop>
            <stop stop-color="#FDC70C" offset="100%"></stop>
        </linearGradient>
    </defs>
    <g id="Page-1" stroke="none" stroke-width="1" fill="none" fill-rule="evenodd">
        <g id="OZessay_About-us" transform="translate(-1023.000000, -2068.000000)">
            <g id="about-us-icons" transform="translate(375.000000, 1746.000000)">
                <g id="4" transform="translate(610.000000, 284.000000)">
                    <g id="icon" transform="translate(38.000000, 38.000000)">
                        <path d="M52,42.4428077 C51.9995,43.0051346 51.5605,43.4610192 51.019,43.4615385 L2.981,43.4615385 C2.439375,43.4610192 2.0005,43.0051346 2,42.4428077 L2,7.09565385 C2.0005,6.53319712 2.439375,6.07744231 2.981,6.07692308 L33,6.07692308 L33,4 L2.981,4 C1.3355,4.00233654 0.00225,5.38686538 0,7.09565385 L0,42.4428077 C0.00225,44.1515962 1.3355,45.536125 2.981,45.5384615 L19,45.5384615 L19,51.7692308 L18,51.7692308 C17.44775,51.7692308 17,52.2342019 17,52.8076923 L17,55.9230769 L13,55.9230769 L13,58 L41,58 L41,55.9230769 L37,55.9230769 L37,52.8076923 C37,52.2342019 36.55225,51.7692308 36,51.7692308 L35,51.7692308 L35,45.5384615 L51.019,45.5384615 C52.6645,45.536125 53.99775,44.1515962 54,42.4428077 L54,16.4615385 L52,16.4615385 L52,42.4428077 Z M19,55.9230769 L19,53.8461538 L35,53.8461538 L35,55.9230769 L19,55.9230769 Z M33,51.7692308 L21,51.7692308 L21,45.5384615 L33,45.5384615 L33,51.7692308 Z" id="Shape" fill="url(#linearGradient-2)" fill-rule="nonzero"></path>
                        <g id="Group" transform="translate(5.000000, 0.000000)" fill-rule="nonzero">
                            <polygon id="Shape" fill="url(#linearGradient-3)" points="0 35.7607143 43.5864662 35.7607143 43.5864662 37.8642857 0 37.8642857"></polygon>
                            <path d="M27.7368421,9.46607143 L1.98120301,9.46607143 C0.886959821,9.46607143 0,10.4078141 0,11.5696429 L0,33.6571429 L1.98120301,33.6571429 L1.98120301,11.5696429 L27.7368421,11.5696429 L27.7368421,9.46607143 Z" id="Shape" fill="url(#linearGradient-4)"></path>
                            <path d="M3.96240602,14.725 L3.96240602,18.9321429 L5.94360902,18.9321429 L5.94360902,15.7767857 L8.91541353,15.7767857 L8.91541353,13.6732143 L4.95300752,13.6732143 C4.40594784,13.6732143 3.96240602,14.1441513 3.96240602,14.725 Z" id="Shape" fill="url(#linearGradient-5)"></path>
                            <path d="M49.5300752,0 L31.6992481,0 C30.6050049,0 29.7180451,0.941742634 29.7180451,2.10357143 L29.7180451,12.6214286 C29.7180451,13.7832574 30.6050049,14.725 31.6992481,14.725 L33.6804511,14.725 L33.6804511,17.8803571 C33.6804511,18.4612058 34.123993,18.9321429 34.6710526,18.9321429 C34.8948047,18.9321429 35.1119941,18.8516813 35.2872068,18.7039054 L40.0094041,14.725 L49.5300752,14.725 C50.6243184,14.725 51.5112782,13.7832574 51.5112782,12.6214286 L51.5112782,2.10357143 C51.5112782,0.941742634 50.6243184,0 49.5300752,0 Z M49.5300752,12.6214286 L39.6636842,12.6214286 C39.4399321,12.6214286 39.2227427,12.7018902 39.0475301,12.8496661 L35.6616541,15.7031607 L35.6616541,13.6732143 C35.6616541,13.0923656 35.2181123,12.6214286 34.6710526,12.6214286 L31.6992481,12.6214286 L31.6992481,2.10357143 L49.5300752,2.10357143 L49.5300752,12.6214286 Z" id="Shape" fill="url(#linearGradient-6)"></path>
                            <polygon id="Shape" fill="url(#linearGradient-7)" points="33.6804511 4.20714286 35.6616541 4.20714286 35.6616541 6.31071429 33.6804511 6.31071429"></polygon>
                            <polygon id="Shape" fill="url(#linearGradient-8)" points="37.6428571 4.20714286 47.5488722 4.20714286 47.5488722 6.31071429 37.6428571 6.31071429"></polygon>
                            <polygon id="Shape" fill="url(#linearGradient-9)" points="33.6804511 8.41428571 47.5488722 8.41428571 47.5488722 10.5178571 33.6804511 10.5178571"></polygon>
                        </g>
                        <text id="24/7" font-family="ChalkboardSE-Bold, Chalkboard SE" font-size="14" font-weight="bold" letter-spacing="-1.03999996" fill="#EC553C">
                            <tspan x="14" y="29">24/</tspan>
                            <tspan x="35.0125968" y="29">7</tspan>
                        </text>
                    </g>
                </g>
            </g>
        </g>
    </g>
</svg>