<?xml version="1.0" encoding="UTF-8"?>
<svg width="57px" height="61px" viewBox="0 0 57 61" version="1.1" xmlns="http://www.w3.org/2000/svg" xmlns:xlink="http://www.w3.org/1999/xlink">
    <!-- Generator: Sketch 51.1 (57501) - http://www.bohemiancoding.com/sketch -->
    <title>icon</title>
    <desc>Created with Sketch.</desc>
    <defs>
        <linearGradient x1="-1.88040761%" y1="50%" x2="130.586984%" y2="50%" id="linearGradient-1">
            <stop stop-color="#F26C3A" offset="0%"></stop>
            <stop stop-color="#FFAE50" offset="100%"></stop>
        </linearGradient>
        <linearGradient x1="-331.248992%" y1="50.0001683%" x2="214.238009%" y2="50.0001683%" id="linearGradient-2">
            <stop stop-color="#E93E3A" offset="0%"></stop>
            <stop stop-color="#ED683C" offset="35.8%"></stop>
            <stop stop-color="#F3903F" offset="71.4%"></stop>
            <stop stop-color="#FDC70C" offset="100%"></stop>
        </linearGradient>
        <linearGradient x1="-617.25%" y1="50.000625%" x2="337.45%" y2="50.000625%" id="linearGradient-3">
            <stop stop-color="#E93E3A" offset="0%"></stop>
            <stop stop-color="#ED683C" offset="35.8%"></stop>
            <stop stop-color="#F3903F" offset="71.4%"></stop>
            <stop stop-color="#FDC70C" offset="100%"></stop>
        </linearGradient>
    </defs>
    <g id="Page-1" stroke="none" stroke-width="1" fill="none" fill-rule="evenodd">
        <g id="OZessay_About-us" transform="translate(-413.000000, -2351.000000)" fill-rule="nonzero">
            <g id="about-us-icons" transform="translate(375.000000, 1746.000000)">
                <g id="5" transform="translate(0.000000, 567.000000)">
                    <g id="icon" transform="translate(38.000000, 38.000000)">
                        <path d="M36.9565217,58 L2.04347826,58 L2.04347826,2 L34.7391304,2 L34.7391304,12 L44.9565217,12 L44.9565217,29 L47,29 L47,10.586 L36.1838696,0 L0,0 L0,60 L36.9565217,60 L36.9565217,58 Z M36.7826087,3.414 L43.5117826,10 L36.7826087,10 L36.7826087,3.414 Z" id="Shape" fill="url(#linearGradient-1)"></path>
                        <g id="Group" transform="translate(6.000000, 6.000000)" fill="url(#linearGradient-1)">
                            <polygon id="Shape" points="0.0299442235 0 2.07741249 0 2.07741249 1.96499153 0.0299442235 1.96499153"></polygon>
                            <polygon id="Shape" points="4.12488076 0 24.5995635 0 24.5995635 1.96499153 4.12488076 1.96499153"></polygon>
                            <polygon id="Shape" points="0.0299442235 3.92998306 24.5995635 3.92998306 24.5995635 5.89497459 0.0299442235 5.89497459"></polygon>
                            <polygon id="Shape" points="0.0299442235 7.85996612 34.8369048 7.85996612 34.8369048 9.82495765 0.0299442235 9.82495765"></polygon>
                            <polygon id="Shape" points="0.0299442235 11.7899492 34.8369048 11.7899492 34.8369048 13.7549407 0.0299442235 13.7549407"></polygon>
                            <polygon id="Shape" points="0.0299442235 15.7199322 34.8369048 15.7199322 34.8369048 17.6849238 0.0299442235 17.6849238"></polygon>
                            <polygon id="Shape" points="0.0299442235 19.6499153 34.8369048 19.6499153 34.8369048 21.6149068 0.0299442235 21.6149068"></polygon>
                            <polygon id="Shape" points="0.0299442235 23.5798984 34.8369048 23.5798984 34.8369048 25.5448899 0.0299442235 25.5448899"></polygon>
                            <polygon id="Shape" points="0.0299442235 27.5098814 31 27.5098814 31 29.474873 0.0299442235 29.474873"></polygon>
                            <polygon id="Shape" points="0.0299442235 31.4398645 29 31.4398645 29 33.404856 0.0299442235 33.404856"></polygon>
                            <polygon id="Shape" points="0.0299442235 35.3698475 29 35.3698475 29 37.3348391 0.0299442235 37.3348391"></polygon>
                        </g>
                        <path d="M47.0178696,33.2963167 C41.82528,33.2849003 37.6067006,37.4758882 37.5952595,42.6572473 C37.5883612,45.7381597 39.0979171,48.6258331 41.6338094,50.3834525 L41.6338094,58.8154588 C41.6336411,59.557188 42.2363194,60.1587306 42.9796562,60.1587306 C43.2456624,60.1587306 43.5056116,60.080159 43.7268628,59.9329213 L47.0178696,57.7408078 L50.3088764,59.9300672 C50.927202,60.3417285 51.7630774,60.1753515 52.175631,59.5581953 C52.3226831,59.338262 52.401425,59.0797145 52.4019298,58.8152909 L52.4019298,50.3832846 C56.6667785,47.4276166 57.7227273,41.5817568 54.7608211,37.3261321 C52.9993922,34.7958922 50.1054599,33.2896012 47.0178696,33.2963167 Z M50.595236,57.6844763 L48.066486,56.0028712 C47.478486,55.6112824 46.711986,55.6112824 46.123986,56.0028712 L43.595236,57.6844763 L43.595236,51.7089282 C43.640736,51.7228979 43.689736,51.7263903 43.735236,51.74036 C44.1495485,51.8536457 44.5695485,51.9451038 44.993486,52.0145158 C45.119486,52.0354704 45.241986,52.0721409 45.367986,52.0896031 C46.5131422,52.2596408 47.6773297,52.2596408 48.822486,52.0896031 C48.944986,52.0721409 49.060486,52.0389628 49.172486,52.0180082 C49.6034235,51.9470682 50.0304235,51.853864 50.451736,51.7386138 C50.495486,51.7263903 50.542736,51.7211517 50.586486,51.7089282 L50.595236,57.6844763 Z M50.8629796,49.2937527 C49.1442992,50.2846537 47.1018638,50.5543032 45.1841229,50.0432996 C44.5450637,49.8748389 43.9322955,49.619056 43.3632831,49.283259 C39.7709931,47.2124483 38.5413253,42.6280321 40.6166244,39.0435114 C42.6919236,35.4589908 47.2862764,34.2319825 50.8785664,36.3027932 C54.4708564,38.3736039 55.7005242,42.9580201 53.6252251,46.5425408 C52.9632552,47.6857872 52.0103941,48.6343388 50.8629796,49.2922536 L50.8629796,49.2937527 Z" id="Shape" fill="url(#linearGradient-2)"></path>
                        <path d="M47.0616142,37.5025905 C44.15657,37.5025905 41.801533,39.852534 41.801533,42.7512952 C41.801533,45.6500565 44.15657,48 47.0616142,48 C49.9666584,48 52.3216954,45.6500565 52.3216954,42.7512952 C52.3216954,39.852534 49.9666584,37.5025905 47.0616142,37.5025905 Z M47.1122304,46.165724 C45.2605937,46.165724 43.759714,44.6639143 43.759714,42.8111302 C43.759714,40.9583461 45.2605937,39.4565364 47.1122304,39.4565364 C48.9638671,39.4565364 50.4647468,40.9583461 50.4647468,42.8111302 C50.4647468,44.6639143 48.9638671,46.165724 47.1122304,46.165724 Z" id="Shape" fill="url(#linearGradient-3)"></path>
                        <path d="M25.4569619,50.9082709 C26.1474706,50.9130606 26.8144334,50.6674366 27.324253,50.2205238 C27.5801865,50.0240247 27.6569666,49.965075 27.9118764,49.965075 C28.1667862,49.965075 28.2435662,50.0240247 28.4994998,50.2205238 C29.5625197,51.136824 31.1741332,51.136824 32.2371531,50.2205238 C32.4930866,50.0240247 32.5708904,49.9640925 32.826824,49.9640925 C33.0827575,49.9640925 33.1605613,50.0230422 33.4175186,50.2205238 C33.9284899,50.6669454 34.5958365,50.9124465 35.2868571,50.9082709 L35.2868571,48.9432794 C35.0309236,48.9432794 34.9531198,48.8843296 34.6961625,48.686848 C33.6325027,47.7714075 32.0211452,47.7714075 30.9574854,48.686848 C30.7015519,48.8833471 30.6237481,48.9432794 30.3678146,48.9432794 C30.111881,48.9432794 30.0361247,48.8843296 29.7791674,48.6878305 C28.7171712,47.7709163 27.1055578,47.7709163 26.0435616,48.6878305 C25.787628,48.8843296 25.710848,48.9432794 25.4569619,48.9432794 C25.2030759,48.9432794 25.1252721,48.8843296 24.8693385,48.6878305 C24.3590071,48.2404264 23.6911485,47.9948025 23,48.0000834 L23,49.965075 C23.2538861,49.965075 23.3306661,50.0240247 23.5865997,50.2205238 C24.0976989,50.6674366 24.7655575,50.9130606 25.4569619,50.9082709 Z" id="Shape" fill="url(#linearGradient-1)"></path>
                    </g>
                </g>
            </g>
        </g>
    </g>
</svg>