<?xml version="1.0" encoding="UTF-8"?>
<svg width="57px" height="62px" viewBox="0 0 57 62" version="1.1" xmlns="http://www.w3.org/2000/svg" xmlns:xlink="http://www.w3.org/1999/xlink">
    <!-- Generator: Sketch 51.1 (57501) - http://www.bohemiancoding.com/sketch -->
    <title>Group</title>
    <desc>Created with Sketch.</desc>
    <defs>
        <linearGradient x1="-258.028571%" y1="50%" x2="274.5%" y2="50%" id="linearGradient-1">
            <stop stop-color="#E93E3A" offset="0%"></stop>
            <stop stop-color="#ED683C" offset="35.4%"></stop>
            <stop stop-color="#F3903F" offset="71.8%"></stop>
            <stop stop-color="#FDC70C" offset="100%"></stop>
        </linearGradient>
        <linearGradient x1="-5.57857143%" y1="50%" x2="127.553571%" y2="50%" id="linearGradient-2">
            <stop stop-color="#E93E3A" offset="0%"></stop>
            <stop stop-color="#ED683C" offset="35.4%"></stop>
            <stop stop-color="#F3903F" offset="71.8%"></stop>
            <stop stop-color="#FDC70C" offset="100%"></stop>
        </linearGradient>
        <linearGradient x1="-122.48%" y1="50.0003616%" x2="1368.6%" y2="50.0003616%" id="linearGradient-3">
            <stop stop-color="#E93E3A" offset="0%"></stop>
            <stop stop-color="#ED683C" offset="35.4%"></stop>
            <stop stop-color="#F3903F" offset="71.8%"></stop>
            <stop stop-color="#FDC70C" offset="100%"></stop>
        </linearGradient>
        <linearGradient x1="-1022.48%" y1="50%" x2="468.6%" y2="50%" id="linearGradient-4">
            <stop stop-color="#E93E3A" offset="0%"></stop>
            <stop stop-color="#ED683C" offset="35.4%"></stop>
            <stop stop-color="#F3903F" offset="71.8%"></stop>
            <stop stop-color="#FDC70C" offset="100%"></stop>
        </linearGradient>
        <linearGradient x1="-143.879733%" y1="50.0000157%" x2="191.302873%" y2="50.0000157%" id="linearGradient-5">
            <stop stop-color="#E93E3A" offset="0%"></stop>
            <stop stop-color="#ED683C" offset="35.4%"></stop>
            <stop stop-color="#F3903F" offset="71.8%"></stop>
            <stop stop-color="#FDC70C" offset="100%"></stop>
        </linearGradient>
    </defs>
    <g id="Page-1" stroke="none" stroke-width="1" fill="none" fill-rule="evenodd">
        <g id="OZessay_About-us" transform="translate(-1023.000000, -2350.000000)" fill-rule="nonzero">
            <g id="Group" transform="translate(1023.000000, 2350.000000)">
                <path d="M40.4231193,7.84623861 C36.7908021,7.84623861 33.8462386,10.7908021 33.8462386,14.4231193 C33.8462386,18.0554366 36.7908021,21 40.4231193,21 C44.0554366,21 47,18.0554366 47,14.4231193 C46.9958894,10.7925637 44.0536749,7.85034916 40.4231193,7.84623861 Z M40.4231193,19.1208912 C37.8286573,19.1208912 35.7253474,17.0175813 35.7253474,14.4231193 C35.7253474,11.8286573 37.8286573,9.72534738 40.4231193,9.72534738 C43.0175813,9.72534738 45.1208912,11.8286573 45.1208912,14.4231193 C45.1178377,17.0162894 43.0162894,19.1178377 40.4231193,19.1208912 Z" id="Shape" fill="url(#linearGradient-1)"></path>
                <path d="M55.9821429,0 L1.01785714,0 C0.455745536,0 0,0.455890909 0,1.01818182 L0,9.16363636 C0.00559821429,14.2222182 4.10374554,18.3216727 9.16071429,18.3272727 C9.74827232,25.2151455 15.4863147,30.5343818 22.3928571,30.5454545 L24.4285714,30.5454545 L24.4285714,54.8727273 L17.3035714,54.8727273 C16.7414598,54.8727273 16.2857143,55.3286182 16.2857143,55.8909091 L16.2857143,59.9636364 L13.2321429,59.9636364 L13.2321429,62 L43.7678571,62 L43.7678571,59.9636364 L40.7142857,59.9636364 L40.7142857,55.8909091 C40.7142857,55.3286182 40.2585402,54.8727273 39.6964286,54.8727273 L32.5714286,54.8727273 L32.5714286,30.5454545 L34.6071429,30.5454545 L34.6071429,28.5090909 L22.3928571,28.5090909 C16.2123013,28.5018364 11.2036808,23.4916182 11.1964286,17.3090909 L11.1964286,2.03636364 L45.8035714,2.03636364 L45.8035714,3.05454545 L47.8392857,3.05454545 L47.8392857,2.03636364 L54.9642857,2.03636364 L54.9642857,9.16363636 C54.9705201,10.7839455 54.4188415,12.3570364 53.401875,13.6181818 L54.9897321,14.8909091 C56.2894085,13.265 56.9982187,11.2454364 57,9.16363636 L57,1.01818182 C57,0.455890909 56.5442545,0 55.9821429,0 Z M38.6785714,59.9636364 L18.3214286,59.9636364 L18.3214286,56.9090909 L38.6785714,56.9090909 L38.6785714,59.9636364 Z M30.5357143,30.5454545 L30.5357143,55 L26.4642857,55 L26.4642857,30.5454545 L30.5357143,30.5454545 Z M2.03571429,9.16363636 L2.03571429,2.03636364 L9.16071429,2.03636364 L9.16071429,16.2909091 C5.22758705,16.2864545 2.04016741,13.0980182 2.03571429,9.16363636 Z" id="Shape" fill="url(#linearGradient-2)"></path>
                <path d="M7,3 L4,3 C3.44775,3 3,3.46384078 3,4.03593698 L3,9.21562188 C3.0015,11.6868495 4.414375,13.923049 6.6,14.9132753 C7.106125,15.1420878 7.695625,14.9025274 7.9165,14.3782138 C7.9715,14.2476858 7.999875,14.1067983 8,13.964357 L8,4.03593698 C8,3.46384078 7.55225,3 7,3 Z M6,11.9546393 C5.356,11.1981463 5.000375,10.224236 5,9.21562188 L5,5.07187396 L6,5.07187396 L6,11.9546393 Z" id="Shape" fill="url(#linearGradient-3)"></path>
                <path d="M54,9 L54,4 C54,3.44775 53.55225,3 53,3 L50,3 C49.44775,3 49,3.44775 49,4 L49,6 L51,6 L51,5 L52,5 L52,9 L54,9 Z" id="Shape" fill="url(#linearGradient-4)"></path>
                <g id="034-award-2" transform="translate(29.000000, 3.000000)" fill="url(#linearGradient-5)">
                    <path d="M22.9048989,8.09622378 C22.5407753,7.28395804 21.8965169,6.62123077 21.0835056,6.22321678 C20.7542697,6.04472727 20.4546236,5.81903497 20.1945169,5.55356643 C20.011809,5.22528671 19.8801404,4.87233566 19.8037753,4.50629371 C19.669264,3.63688112 19.2241236,2.84173427 18.5467865,2.2606993 C17.7755112,1.81346853 16.866882,1.6458042 15.9811236,1.78741259 C15.5949045,1.83046154 15.2041629,1.81623776 14.8223371,1.74511888 C14.4905169,1.58890909 14.1846685,1.38524476 13.9147416,1.14092308 C13.2689326,0.504755245 12.4143146,0.109888112 11.5,0.0251748252 C10.5855562,0.110517483 9.73080899,0.505258741 9.08422472,1.14092308 C8.81481461,1.3854965 8.50922472,1.58916084 8.17766292,1.74511888 C7.79609551,1.81611189 7.40574157,1.83033566 7.01991011,1.78741259 C6.13402247,1.64655944 5.22539326,1.81372028 4.45321348,2.25969231 C3.77574719,2.84097902 3.33060674,3.63662937 3.19622472,4.50629371 C3.11985955,4.87195804 2.98819101,5.22453147 2.80548315,5.55255944 C2.54485955,5.81853147 2.24495506,6.04485315 1.91546067,6.22422378 C1.10335393,6.62211189 0.459483146,7.28395804 0.0951011236,8.09521678 C-0.0984606742,8.94033566 0.0186067416,9.82485315 0.42588764,10.5945734 C0.591668539,10.9467692 0.700724719,11.3217483 0.749438202,11.7062937 C0.700337079,12.0894545 0.591280899,12.463049 0.42588764,12.813986 C0.0187359551,13.5833287 -0.0983314607,14.4674685 0.0951011236,15.3123357 C0.459224719,16.1246014 1.10348315,16.7873287 1.91649438,17.1853427 C2.24547191,17.3640839 2.54511798,17.5897762 2.80548315,17.854993 C2.98819101,18.1832727 3.11985955,18.5362238 3.19622472,18.9022657 C3.33073596,19.7716783 3.7758764,20.5668252 4.45321348,21.1478601 C5.00689326,21.5086154 5.66639888,21.6833287 6.33146067,21.6453147 L6.33146067,34.8671329 C6.33120225,35.4232448 6.79391573,35.8742517 7.3647809,35.8745035 C7.59982022,35.8746294 7.82775281,35.7967133 8.01123596,35.6535944 L12.5337079,32.1291189 L17.0561798,35.6535944 C17.5018371,36.0011329 18.152427,35.931021 18.5091854,35.4968811 C18.6561011,35.3181399 18.7360843,35.0960979 18.7359551,34.8671329 L18.7359551,24.7972028 C18.7359551,24.2410909 18.2731124,23.7902098 17.7022472,23.7902098 L12.5337079,23.7902098 L12.5337079,25.8041958 L16.6685393,25.8041958 L16.6685393,32.7715804 L13.1797753,30.0526993 C12.8020843,29.7581538 12.2653315,29.7581538 11.8876404,30.0526993 L8.3988764,32.7715804 L8.3988764,21.7762238 C8.63895506,21.9289091 8.86830899,22.0970769 9.08525843,22.2797203 C9.73223034,22.9128671 10.5868483,23.3048392 11.5,23.3874126 C12.4144438,23.3020699 13.269191,22.9073287 13.9157753,22.2716643 C14.1851854,22.0270909 14.4907753,21.8234266 14.8223371,21.6674685 C15.2039045,21.596979 15.5941292,21.5827552 15.9800899,21.6251748 C16.8661067,21.7679161 17.775382,21.6006294 18.5467865,21.1528951 C19.2242528,20.5716084 19.6693933,19.775958 19.8037753,18.9062937 C19.8801404,18.5406294 20.011809,18.1880559 20.1945169,17.860028 C20.454882,17.5938042 20.7549157,17.3674825 21.0845393,17.1883636 C21.8966461,16.7904755 22.5405169,16.1286294 22.9048989,15.3173706 C23.0984607,14.4722517 22.9813933,13.5877343 22.5741124,12.818014 C22.4083315,12.4658182 22.2992753,12.0908392 22.2505618,11.7062937 C22.2996629,11.3231329 22.4087191,10.9495385 22.5741124,10.5986014 C22.9822978,9.82812587 23.0993652,8.94234965 22.9048989,8.09622378 Z M20.6421124,13.533986 C20.8286966,13.8934825 20.93,14.2892308 20.9387865,14.692028 C20.859191,14.9326993 20.3619775,15.2448671 19.9629663,15.4976224 C19.4127753,15.8008531 18.9246067,16.2002517 18.5230112,16.6758042 C18.1786573,17.1988112 17.9361236,17.7790909 17.8076854,18.3876923 C17.7411404,18.7985455 17.5776854,19.1887552 17.3301124,19.5276084 C16.9289045,19.6486993 16.5048258,19.6794126 16.0896629,19.6172308 C15.452382,19.550014 14.807736,19.5967133 14.1876404,19.7551888 C13.6073427,19.9781119 13.0740787,20.3031189 12.6143371,20.7138462 C12.2225618,21.024 11.7791011,21.3764476 11.5051685,21.3764476 C11.231236,21.3764476 10.7877753,21.024 10.3970337,20.7138462 C9.93716292,20.3027413 9.40351124,19.9777343 8.82269663,19.7551888 C8.42691573,19.6396364 8.01498315,19.5855105 7.60188764,19.5950769 C7.36826966,19.5950769 7.13878652,19.6061538 6.92067416,19.6172308 C6.50564045,19.6799161 6.08130337,19.6492028 5.68022472,19.5276084 C5.43291011,19.1886294 5.26945506,18.7984196 5.20265169,18.3876923 C5.07408427,17.7790909 4.83155056,17.1988112 4.48732584,16.6758042 C4.0853427,16.2008811 3.59730337,15.8018601 3.04737079,15.4986294 C2.64835955,15.2478881 2.15114607,14.9357203 2.07155056,14.693035 C2.08033708,14.2902378 2.18164045,13.8944895 2.36822472,13.534993 C2.63091573,12.9571049 2.78287079,12.3374266 2.81685393,11.7062937 C2.77964045,11.0745315 2.62406742,10.4547273 2.35788764,9.87759441 C2.17130337,9.5180979 2.07,9.12234965 2.06121348,8.71955245 C2.14080899,8.47888112 2.63802247,8.16671329 3.036,7.91395804 C3.58670787,7.61097902 4.07526404,7.21158042 4.47698876,6.73577622 C4.8213427,6.21276923 5.0638764,5.63248951 5.19231461,5.02388811 C5.25885955,4.61303497 5.42231461,4.22282517 5.66988764,3.88397203 C6.07070787,3.76124476 6.49530337,3.73053147 6.91033708,3.79434965 C7.54761798,3.86156643 8.19226404,3.81474126 8.81235955,3.65639161 C9.3926573,3.43346853 9.92592135,3.10846154 10.3856629,2.69773427 C10.7774382,2.38758042 11.2208989,2.03513287 11.4948315,2.03513287 C11.768764,2.03513287 12.2122247,2.38758042 12.6029663,2.69773427 C13.0628371,3.10883916 13.5964888,3.43384615 14.1773034,3.65639161 C14.7973989,3.81499301 15.4420449,3.86169231 16.0793258,3.79434965 C16.4944888,3.73216783 16.9185674,3.76288112 17.3197753,3.88397203 C17.5670899,4.22295105 17.7305449,4.61316084 17.7973483,5.02388811 C17.9259157,5.63248951 18.1684494,6.21276923 18.5126742,6.73577622 C18.9146573,7.2106993 19.4026966,7.60972028 19.9526292,7.91295105 C20.3516404,8.16369231 20.8488539,8.47586014 20.9284494,8.71854545 C20.9196629,9.12134266 20.8183596,9.51709091 20.6317753,9.87658741 C20.3689551,10.4547273 20.217,11.0749091 20.1831461,11.7062937 C20.2203596,12.3380559 20.3759326,12.9578601 20.6421124,13.534993 L20.6421124,13.533986 Z" id="Shape"></path>
                </g>
            </g>
        </g>
    </g>
</svg>