<svg xmlns="http://www.w3.org/2000/svg" xmlns:xlink="http://www.w3.org/1999/xlink" width="79" height="85" viewBox="0 0 79 85"><defs><path id="jvfya" d="M236.42 321.38h2.9v2.77h-2.9z"/><path id="jvfyc" d="M242.2 321.38h28.92v2.77H242.2z"/><path id="jvfye" d="M236.42 326.92h34.7v2.77h-34.7z"/><path id="jvfyg" d="M236.42 332.46h49.16v2.77h-49.16z"/><path id="jvfyi" d="M236.42 338h49.16v2.77h-49.16z"/><path id="jvfyk" d="M236.42 343.55h49.16v2.77h-49.16z"/><path id="jvfym" d="M236.42 349.09h49.16v2.77h-49.16z"/><path id="jvfyo" d="M236.42 354.63h43.38v2.77h-43.38z"/><path id="jvfyq" d="M236.42 360.17h43.38v2.77h-43.38z"/><path id="jvfys" d="M236.42 365.71h40.49v2.77h-40.49z"/><path id="jvfyu" d="M236.42 371.25h37.6v2.77h-37.6z"/><path id="jvfyw" d="M263.03 384.38c.98 0 1.92-.34 2.64-.97.36-.28.47-.36.83-.36s.47.08.83.36a4.08 4.08 0 0 0 5.28 0c.36-.28.47-.36.83-.36s.47.08.83.36c.73.63 1.67.98 2.64.97v-2.77c-.36 0-.47-.08-.83-.36a4.08 4.08 0 0 0-5.28 0c-.36.28-.47.36-.83.36-.37 0-.47-.08-.83-.36a4.07 4.07 0 0 0-5.28 0c-.36.28-.47.36-.83.36s-.47-.08-.83-.36a3.97 3.97 0 0 0-2.64-.97v2.77c.36 0 .47.08.83.36.72.63 1.66.98 2.64.97z"/><path id="jvfyy" d="M302.02 340.41l-5.27-2.28 1.78-3.78c.33-.7 1.18-1.01 1.91-.7l2.64 1.14c.72.31 1.05 1.13.72 1.83zm-16.61 35.35l-5.28-2.26 15.43-32.84 5.27 2.27zm-5.14.83l2.61 1.13-2.1 1.1zm24-44.33l-2.64-1.14a4.42 4.42 0 0 0-5.73 2.08l-19.2 40.85 2.1 9 8.45-4.45 19.2-40.85a4.1 4.1 0 0 0-2.18-5.5z"/><path id="jvfyA" d="M280.46 317.84l9.6 9.33h-9.6v-9.33zm11.66 77.33h-61.2v-79.34h46.62V330h14.58v4.25h2.91V328l-15.43-15H228v85h67.03v-24.08h-2.91z"/><linearGradient id="jvfyb" x1="237.34" x2="239.31" y1="323.27" y2="321.38" gradientUnits="userSpaceOnUse"><stop offset="0" stop-color="#e0481b"/><stop offset="1" stop-color="#f7bc40"/></linearGradient><linearGradient id="jvfyd" x1="251.43" x2="271.12" y1="323.27" y2="321.38" gradientUnits="userSpaceOnUse"><stop offset="0" stop-color="#e0481b"/><stop offset="1" stop-color="#f7bc40"/></linearGradient><linearGradient id="jvfyf" x1="247.49" x2="271.12" y1="328.81" y2="326.92" gradientUnits="userSpaceOnUse"><stop offset="0" stop-color="#e0481b"/><stop offset="1" stop-color="#f7bc40"/></linearGradient><linearGradient id="jvfyh" x1="252.1" x2="285.58" y1="334.35" y2="332.46" gradientUnits="userSpaceOnUse"><stop offset="0" stop-color="#e0481b"/><stop offset="1" stop-color="#f7bc40"/></linearGradient><linearGradient id="jvfyj" x1="252.1" x2="285.58" y1="339.89" y2="338" gradientUnits="userSpaceOnUse"><stop offset="0" stop-color="#e0481b"/><stop offset="1" stop-color="#f7bc40"/></linearGradient><linearGradient id="jvfyl" x1="252.1" x2="285.58" y1="345.44" y2="343.55" gradientUnits="userSpaceOnUse"><stop offset="0" stop-color="#e0481b"/><stop offset="1" stop-color="#f7bc40"/></linearGradient><linearGradient id="jvfyn" x1="252.1" x2="285.58" y1="350.98" y2="349.09" gradientUnits="userSpaceOnUse"><stop offset="0" stop-color="#e0481b"/><stop offset="1" stop-color="#f7bc40"/></linearGradient><linearGradient id="jvfyp" x1="250.26" x2="279.8" y1="356.52" y2="354.63" gradientUnits="userSpaceOnUse"><stop offset="0" stop-color="#e0481b"/><stop offset="1" stop-color="#f7bc40"/></linearGradient><linearGradient id="jvfyr" x1="250.26" x2="279.8" y1="362.06" y2="360.17" gradientUnits="userSpaceOnUse"><stop offset="0" stop-color="#e0481b"/><stop offset="1" stop-color="#f7bc40"/></linearGradient><linearGradient id="jvfyt" x1="249.34" x2="276.91" y1="367.6" y2="365.71" gradientUnits="userSpaceOnUse"><stop offset="0" stop-color="#e0481b"/><stop offset="1" stop-color="#f7bc40"/></linearGradient><linearGradient id="jvfyv" x1="248.42" x2="274.02" y1="373.14" y2="371.25" gradientUnits="userSpaceOnUse"><stop offset="0" stop-color="#e0481b"/><stop offset="1" stop-color="#f7bc40"/></linearGradient><linearGradient id="jvfyx" x1="265.1" x2="276.91" y1="383.08" y2="380.28" gradientUnits="userSpaceOnUse"><stop offset="0" stop-color="#e0481b"/><stop offset="1" stop-color="#f7bc40"/></linearGradient><linearGradient id="jvfyz" x1="286.31" x2="306.83" y1="366.45" y2="330.75" gradientUnits="userSpaceOnUse"><stop offset="0" stop-color="#e0481b"/><stop offset="1" stop-color="#f7bc40"/></linearGradient><linearGradient id="jvfyB" x1="249.39" x2="295.03" y1="371.01" y2="313" gradientUnits="userSpaceOnUse"><stop offset="0" stop-color="#e0481b"/><stop offset="1" stop-color="#f7bc40"/></linearGradient></defs><g><g transform="translate(-228 -313)"><g><g><use fill="url(#jvfyb)" xlink:href="#jvfya"/></g><g><use fill="url(#jvfyd)" xlink:href="#jvfyc"/></g><g><use fill="url(#jvfyf)" xlink:href="#jvfye"/></g><g><use fill="url(#jvfyh)" xlink:href="#jvfyg"/></g><g><use fill="url(#jvfyj)" xlink:href="#jvfyi"/></g><g><use fill="url(#jvfyl)" xlink:href="#jvfyk"/></g><g><use fill="url(#jvfyn)" xlink:href="#jvfym"/></g><g><use fill="url(#jvfyp)" xlink:href="#jvfyo"/></g><g><use fill="url(#jvfyr)" xlink:href="#jvfyq"/></g><g><use fill="url(#jvfyt)" xlink:href="#jvfys"/></g><g><use fill="url(#jvfyv)" xlink:href="#jvfyu"/></g><g><use fill="url(#jvfyx)" xlink:href="#jvfyw"/></g><g><use fill="url(#jvfyz)" xlink:href="#jvfyy"/></g><g><use fill="url(#jvfyB)" xlink:href="#jvfyA"/></g></g></g></g></svg>