<?xml version="1.0" encoding="UTF-8" standalone="no"?>
<svg id="svg2" xmlns:rdf="http://www.w3.org/1999/02/22-rdf-syntax-ns#" xmlns="http://www.w3.org/2000/svg" height="70.795" width="493.07" version="1.0" xmlns:cc="http://creativecommons.org/ns#" xmlns:dc="http://purl.org/dc/elements/1.1/">
 <metadata id="metadata18">
  <rdf:RDF>
   <cc:Work rdf:about="">
    <dc:format>image/svg+xml</dc:format>
    <dc:type rdf:resource="http://purl.org/dc/dcmitype/StillImage"/>
    <dc:title/>
   </cc:Work>
  </rdf:RDF>
 </metadata>
 <g id="text4" fill="#929292">
  <path id="path3347" d="m7.6699 1.5518h-3.4248v9.2559h-0.82031v-9.2559h-3.4248v-0.69727h7.6699v0.69727z"/>
  <path id="path3349" d="m9.8779 4.6758q0.3691-0.6631 0.9841-1.0322 0.61523-0.36914 1.4355-0.36914 1.1689 0 1.791 0.72461 0.62891 0.72461 0.62891 2.249v4.5596h-0.82031v-4.5732q0-1.2031-0.47852-1.7227-0.47168-0.52637-1.3057-0.52637-0.84082 0-1.4082 0.44434-0.56055 0.4375-0.82715 1.1689v5.209h-0.82031v-10.664h0.82031v4.5322z"/>
  <path id="path3351" d="m19.626 10.951q-1.3877 0-2.3105-1.0254-0.917-1.0252-0.917-2.5975v-0.37598q0-1.5859 0.90918-2.6318 0.91602-1.0459 2.2148-1.0459 1.3604 0 2.1396 0.86133 0.7793 0.86133 0.7793 2.2969v0.69727h-5.2227v0.19824q0 1.251 0.66308 2.0918 0.66309 0.84082 1.7432 0.84082 0.76562 0 1.3057-0.21191 0.54004-0.21191 0.92285-0.6084l0.34863 0.56055q-0.41699 0.4375-1.0596 0.69726-0.63574 0.25293-1.5176 0.25293zm-0.10254-6.9795q-0.90918 0-1.5244 0.69727-0.61523 0.69043-0.71777 1.7363l0.01367 0.03418h4.334v-0.20508q0-0.96387-0.56738-1.6133-0.56738-0.64941-1.5381-0.64941z"/>
  <path id="path3353" d="m30.263 10.951q-1.3877 0-2.3105-1.0254-0.916-1.0252-0.916-2.5975v-0.37598q0-1.5859 0.90918-2.6318 0.91602-1.0459 2.2148-1.0459 1.3604 0 2.1396 0.86133 0.7793 0.86133 0.7793 2.2969v0.69727h-5.2227v0.19824q0 1.251 0.66309 2.0918 0.66309 0.84082 1.7432 0.84082 0.76562 0 1.3057-0.21191 0.54004-0.21191 0.92285-0.6084l0.34863 0.56055q-0.41699 0.4375-1.0596 0.69726-0.63574 0.25293-1.5176 0.25293zm-0.103-6.9793q-0.90918 0-1.5244 0.69727-0.61523 0.69043-0.71777 1.7363l0.01367 0.03418h4.334v-0.20508q0-0.96387-0.56738-1.6133-0.56738-0.64941-1.5381-0.64941z"/>
  <path id="path3355" d="m37.03 6.4326 2.0029-3.0215h0.9707l-2.5088 3.6299 2.6113 3.7666h-0.95703l-2.1055-3.1514-2.1055 3.1514h-0.9707l2.6182-3.7666-2.5088-3.6299h0.96387l1.9893 3.0215z"/>
  <path id="path3357" d="m47.523 7.3145q0 1.6611-0.75195 2.6523-0.75195 0.98438-2.0713 0.98438-0.7793 0-1.3672-0.29394-0.58106-0.29395-0.9502-0.84082v3.835h-0.82031v-10.24h0.69043l0.10254 1.1484q0.36914-0.61523 0.9502-0.9502 0.58789-0.33496 1.3809-0.33496 1.333 0 2.085 1.0664 0.75195 1.0596 0.75195 2.8301v0.14355zm-0.82-0.1436q0-1.4082-0.56055-2.2969-0.56055-0.88867-1.6406-0.88867-0.82715 0-1.3467 0.39648-0.5127 0.38965-0.77246 1.0186v3.5547q0.28027 0.6084 0.80664 0.95703 0.5332 0.34863 1.3262 0.34863 1.0732 0 1.627-0.80664 0.56055-0.80664 0.56055-2.1396v-0.14355z"/>
  <path id="path3359" d="m52.138 10.951q-1.3877 0-2.3105-1.0254-0.917-1.0252-0.917-2.5975v-0.37598q0-1.5859 0.90918-2.6318 0.91602-1.0459 2.2148-1.0459 1.3604 0 2.1396 0.86133 0.7793 0.86133 0.7793 2.2969v0.69727h-5.2227v0.19824q0 1.251 0.66309 2.0918 0.66309 0.84082 1.7432 0.84082 0.76562 0 1.3057-0.21191 0.54004-0.21191 0.92285-0.6084l0.34863 0.56055q-0.41699 0.4375-1.0596 0.69726-0.63574 0.25293-1.5176 0.25293zm-0.103-6.9793q-0.90918 0-1.5244 0.69727-0.61523 0.69043-0.71777 1.7363l0.01367 0.03418h4.334v-0.20508q0-0.96387-0.56738-1.6133-0.56738-0.64941-1.5381-0.64941z"/>
  <path id="path3361" d="m59.985 4.1152-0.6084-0.041016q-0.77246 0-1.2715 0.4375-0.49219 0.43066-0.7041 1.1895v5.1064h-0.82031v-7.3965h0.71777l0.10254 1.2305v0.082031q0.32129-0.68359 0.86133-1.0664t1.2852-0.38281q0.15723 0 0.30078 0.027344 0.15039 0.020508 0.24609 0.047852l-0.10938 0.76562z"/>
  <path id="path3363" d="m62.843 1.5176v1.8936h1.627v0.66992h-1.627v4.8193q0 0.72461 0.25977 1.0322 0.2666 0.30078 0.7041 0.30078 0.19824 0 0.38281-0.01367 0.19141-0.02051 0.4375-0.06152l0.123 0.609q-0.20508 0.08887-0.49902 0.13672-0.29395 0.04785-0.58789 0.04785-0.7793 0-1.2168-0.49219-0.43066-0.49219-0.43066-1.5586v-4.8193h-1.2783v-0.66992h1.2783v-1.8936h0.82715z"/>
  <path id="path3365" d="m70.444 4.6758q0.36914-0.66309 0.98438-1.0322 0.61523-0.36914 1.4355-0.36914 1.1689 0 1.791 0.72461 0.62891 0.72461 0.62891 2.249v4.5596h-0.82031v-4.5732q0-1.2031-0.47852-1.7227-0.47168-0.52637-1.3057-0.52637-0.84082 0-1.4082 0.44434-0.56055 0.4375-0.82715 1.1689v5.209h-0.82031v-10.664h0.82031v4.5322z"/>
  <path id="path3367" d="m82.1 10.808q-0.08203-0.37598-0.11621-0.64941-0.03418-0.27344-0.03418-0.55371-0.41016 0.58105-1.0938 0.96387-0.68359 0.38281-1.5381 0.38281-1.0801 0-1.6816-0.57422-0.59473-0.57422-0.59473-1.5381 0-1.0254 0.88184-1.6406 0.88867-0.61523 2.3926-0.61523h1.6338v-0.91602q0-0.79297-0.5127-1.2441-0.50586-0.45117-1.4219-0.45117-0.85449 0-1.4219 0.43066-0.56055 0.43066-0.56055 1.0527l-0.75195-0.00684-0.01367-0.041016q-0.04102-0.82715 0.75195-1.4766 0.7998-0.65625 2.0303-0.65625 1.2236 0 1.9688 0.62207 0.74512 0.62207 0.74512 1.7842v3.6367q0 0.38965 0.04102 0.75879 0.04785 0.36914 0.15039 0.73144h-0.85449zm-2.6865-0.58105q0.88184 0 1.5586-0.41016 0.67676-0.41699 0.97754-1.0596v-1.5449h-1.6475q-1.1143 0-1.7842 0.47852-0.66309 0.47168-0.66309 1.1758 0 0.60156 0.41016 0.98438 0.41699 0.37598 1.1484 0.37598z"/>
  <path id="path3369" d="m89.366 8.9277q0-0.51953-0.43066-0.90918-0.423-0.3896-1.538-0.6357-1.326-0.2871-1.961-0.7588-0.629-0.4717-0.629-1.333 0-0.84766 0.71094-1.4287 0.71777-0.58789 1.8936-0.58789 1.251 0 1.9824 0.62207 0.73144 0.61523 0.69726 1.5449l-0.01367 0.041016h-0.75879q0-0.6084-0.51953-1.0596-0.5127-0.45117-1.3877-0.45117-0.89551 0-1.3467 0.38965-0.44434 0.38281-0.44434 0.90234 0 0.5127 0.38281 0.84766 0.38965 0.33496 1.5449 0.58789 1.3193 0.29395 1.9756 0.80664 0.65625 0.50586 0.65625 1.3809 0 0.92285-0.75195 1.4971-0.74512 0.56738-1.9756 0.56738-1.3467 0-2.1191-0.64258-0.76562-0.64258-0.72461-1.5313l0.01367-0.041016h0.75195q0.04785 0.7998 0.64941 1.1621 0.6084 0.3623 1.4287 0.3623 0.88867 0 1.4014-0.38965 0.5127-0.38965 0.5127-0.94336z"/>
  <path id="path3371" d="m101.45 7.3145q0 1.6611-0.75195 2.6523-0.75196 0.98438-2.0713 0.98438-0.81348 0-1.4014-0.32129-0.58789-0.32812-0.9502-0.93652l-0.08887 1.1143h-0.7041v-10.664h0.82031v4.4297q0.36914-0.62207 0.94336-0.95703 0.57422-0.3418 1.3672-0.3418 1.333 0 2.085 1.0664 0.75195 1.0596 0.75195 2.8301v0.14355zm-0.83-0.1436q0-1.415-0.54687-2.2969-0.54688-0.88867-1.6201-0.88867-0.85449 0-1.3809 0.42383-0.51953 0.42383-0.77246 1.0869v3.3428q0.27344 0.64258 0.81348 1.0254 0.54688 0.37598 1.3535 0.37598 1.0732 0 1.6133-0.79297 0.54004-0.79297 0.54004-2.1328v-0.14355z"/>
  <path id="path3373" d="m106.06 10.951q-1.3877 0-2.3106-1.0254-0.91601-1.0254-0.91601-2.5977v-0.37598q0-1.5859 0.90918-2.6318 0.91601-1.0459 2.2148-1.0459 1.3604 0 2.1396 0.86133 0.7793 0.86133 0.7793 2.2969v0.69727h-5.2227v0.19824q0 1.251 0.66309 2.0918 0.66308 0.84082 1.7432 0.84082 0.76563 0 1.3057-0.21191 0.54004-0.21191 0.92286-0.6084l0.34863 0.56055q-0.41699 0.4375-1.0596 0.69726-0.63574 0.25293-1.5176 0.25293zm-0.10254-6.9795q-0.90918 0-1.5244 0.69727-0.61524 0.69043-0.71778 1.7363l0.0137 0.03418h4.334v-0.20508q0-0.96387-0.56738-1.6133-0.56739-0.64941-1.5381-0.64941z"/>
  <path id="path3375" d="m113.28 10.951q-1.3877 0-2.3106-1.0254-0.91601-1.0254-0.91601-2.5977v-0.37598q0-1.5859 0.90918-2.6318 0.91601-1.0459 2.2148-1.0459 1.3604 0 2.1396 0.86133 0.7793 0.86133 0.7793 2.2969v0.69727h-5.2227v0.19824q0 1.251 0.66309 2.0918 0.66308 0.84082 1.7432 0.84082 0.76563 0 1.3057-0.21191 0.54004-0.21191 0.92286-0.6084l0.34863 0.56055q-0.41699 0.4375-1.0596 0.69726-0.63574 0.25293-1.5176 0.25293zm-0.10254-6.9795q-0.90918 0-1.5244 0.69727-0.61524 0.69043-0.71778 1.7363l0.0137 0.03418h4.334v-0.20508q0-0.96387-0.56738-1.6133-0.56739-0.64941-1.5381-0.64941z"/>
  <path id="path3377" d="m118.45 3.4111 0.0752 1.292q0.35547-0.68359 0.95704-1.0527 0.60839-0.37598 1.4355-0.37598 1.2031 0 1.832 0.73828 0.62891 0.73145 0.62891 2.29v4.5049h-0.82031v-4.498q0-1.2715-0.47852-1.7979-0.47168-0.52637-1.3467-0.52637-0.86133 0-1.4082 0.45801-0.54004 0.45117-0.7793 1.2031v5.1611h-0.82031v-7.3965h0.72461z"/>
  <path id="path3379" d="m130.53 8.4082 0.28027 1.3193h0.041l0.34863-1.3193 1.5723-4.9971h0.7041l1.5723 4.9971 0.35546 1.3535h0.041l0.30762-1.3535 1.3467-4.9971h0.84765l-2.1533 7.3965h-0.69726l-1.6406-5.0586-0.32129-1.2783h-0.041l-0.32813 1.2783-1.6133 5.0586h-0.7041l-2.1465-7.3965h0.84766l1.3809 4.9971z"/>
  <path id="path3381" d="m142.95 4.1152-0.6084-0.041016q-0.77246 0-1.2715 0.4375-0.49219 0.43066-0.70411 1.1895v5.1064h-0.82031v-7.3965h0.71778l0.10253 1.2305v0.082031q0.32129-0.68359 0.86133-1.0664t1.2852-0.38281q0.15723 0 0.30078 0.027344 0.15039 0.020508 0.24609 0.047852l-0.10937 0.76562z"/>
  <path id="path3383" d="m145.22 10.808h-0.81348v-7.3965h0.81348v7.3965zm0-9.5156h-0.81348v-1.1484h0.81348v1.1484z"/>
  <path id="path3385" d="m148.76 1.5176v1.8936h1.627v0.66992h-1.627v4.8193q0 0.72461 0.25976 1.0322 0.2666 0.30078 0.7041 0.30078 0.19825 0 0.38282-0.01367 0.1914-0.02051 0.4375-0.06152l0.12304 0.6084q-0.20508 0.08887-0.49902 0.13672-0.29395 0.04785-0.58789 0.04785-0.7793 0-1.2168-0.49219-0.43066-0.49219-0.43066-1.5586v-4.8193h-1.2783v-0.66992h1.2783v-1.8936h0.82715z"/>
  <path id="path3387" d="m153.04 10.808h-0.81347v-7.3965h0.81347v7.3965zm0-9.5156h-0.81347v-1.1484h0.81347v1.1484z"/>
  <path id="path3389" d="m156.02 3.4111 0.0752 1.292q0.35547-0.68359 0.95703-1.0527 0.6084-0.37598 1.4355-0.37598 1.2031 0 1.832 0.73828 0.6289 0.73145 0.6289 2.29v4.5049h-0.82031v-4.498q0-1.2715-0.47852-1.7979-0.47168-0.52637-1.3467-0.52637-0.86132 0-1.4082 0.45801-0.54004 0.45117-0.7793 1.2031v5.1611h-0.82031v-7.3965h0.72461z"/>
  <path id="path3391" d="m162.76 7.1709q0-1.7705 0.75195-2.8301 0.75879-1.0664 2.1055-1.0664 0.78614 0 1.3604 0.34863 0.57421 0.3418 0.95019 0.9707l0.0957-1.1826h0.69043v7.3008q0 1.4287-0.79297 2.2559-0.78613 0.82715-2.1943 0.82715-0.5332 0-1.1348-0.12988-0.60156-0.12988-1.0527-0.35547l0.21191-0.69043q0.4375 0.21875 0.92285 0.32812 0.48536 0.11621 1.0391 0.11621 1.0801 0 1.627-0.62207 0.55371-0.62207 0.55371-1.7295v-0.92969q-0.37598 0.56055-0.95019 0.86816-0.57422 0.30078-1.3398 0.30078-1.333 0-2.0918-0.99121-0.75195-0.99121-0.75195-2.6455v-0.14355zm0.82031 0.14355q0 1.333 0.54688 2.1328 0.54687 0.79297 1.627 0.79297 0.79297 0 1.3193-0.3623 0.5332-0.3623 0.82031-0.99805v-3.4316q-0.2666-0.64258-0.78613-1.0527-0.5127-0.41016-1.3398-0.41016-1.0801 0-1.6338 0.88867-0.55372 0.88867-0.55372 2.2969v0.14355z"/>
  <path id="path3393" d="m178.98 10.808q-0.082-0.37598-0.11622-0.64941-0.0342-0.27344-0.0342-0.55371-0.41015 0.58105-1.0938 0.96387-0.68359 0.38281-1.5381 0.38281-1.0801 0-1.6816-0.57422-0.59473-0.57422-0.59473-1.5381 0-1.0254 0.88184-1.6406 0.88867-0.61523 2.3926-0.61523h1.6338v-0.91602q0-0.79297-0.51269-1.2441-0.50586-0.45117-1.4219-0.45117-0.85449 0-1.4219 0.43066-0.56055 0.43066-0.56055 1.0527l-0.75195-0.00684-0.0137-0.041016q-0.041-0.82715 0.75195-1.4766 0.79981-0.65625 2.0303-0.65625 1.2236 0 1.9688 0.62207 0.74512 0.62207 0.74512 1.7842v3.6367q0 0.38965 0.041 0.75879 0.0479 0.36914 0.15039 0.73144h-0.85449zm-2.6865-0.58105q0.88184 0 1.5586-0.41016 0.67675-0.41699 0.97753-1.0596v-1.5449h-1.6475q-1.1142 0-1.7842 0.47852-0.66308 0.47168-0.66308 1.1758 0 0.60156 0.41015 0.98438 0.417 0.37598 1.1484 0.37598z"/>
  <path id="path3395" d="m184.56 10.261q0.81348 0 1.4356-0.46484 0.62207-0.46484 0.62207-1.292h0.72461l0.0137 0.041016q0.0342 1.0254-0.82031 1.7158-0.8545 0.69043-1.9756 0.69043-1.5107 0-2.3379-1.0322-0.82031-1.0391-0.82031-2.666v-0.28711q0-1.6133 0.82715-2.6523 0.82714-1.0391 2.3242-1.0391 1.2168 0 2.0234 0.71777 0.81348 0.71777 0.78613 1.8867l-0.0137 0.041016h-0.73144q0-0.88867-0.60156-1.415-0.59473-0.5332-1.4629-0.5332-1.1894 0-1.7637 0.85449-0.56738 0.84766-0.56738 2.1396v0.28711q0 1.3125 0.56738 2.1602 0.56739 0.84766 1.7705 0.84766z"/>
  <path id="path3397" d="m193.74 10.808q-0.082-0.37598-0.11621-0.64941-0.0342-0.27344-0.0342-0.55371-0.41016 0.58105-1.0938 0.96387-0.68359 0.38281-1.5381 0.38281-1.0801 0-1.6816-0.57422-0.59472-0.57422-0.59472-1.5381 0-1.0254 0.88183-1.6406 0.88867-0.61523 2.3926-0.61523h1.6338v-0.91602q0-0.79297-0.5127-1.2441-0.50585-0.45117-1.4219-0.45117-0.85449 0-1.4219 0.43066-0.56054 0.43066-0.56054 1.0527l-0.75196-0.00684-0.0137-0.041016q-0.041-0.82715 0.75196-1.4766 0.7998-0.65625 2.0303-0.65625 1.2236 0 1.9688 0.62207 0.74512 0.62207 0.74512 1.7842v3.6367q0 0.38965 0.041 0.75879 0.0479 0.36914 0.15039 0.73144h-0.85449zm-2.6865-0.58105q0.88183 0 1.5586-0.41016 0.67676-0.41699 0.97754-1.0596v-1.5449h-1.6475q-1.1143 0-1.7842 0.47852-0.66309 0.47168-0.66309 1.1758 0 0.60156 0.41016 0.98438 0.41699 0.37598 1.1484 0.37598z"/>
  <path id="path3399" d="m196.26 7.1709q0-1.7705 0.74511-2.8301 0.75196-1.0664 2.0918-1.0664 0.77246 0 1.3398 0.32812 0.56739 0.32812 0.94336 0.92969v-4.3887h0.81348v10.664h-0.72461l-0.0684-1.0732q-0.36914 0.58789-0.95019 0.90234-0.58106 0.31445-1.3672 0.31445-1.3262 0-2.0781-0.98438-0.74511-0.99121-0.74511-2.6523v-0.14355zm0.82031 0.14355q0 1.3398 0.5332 2.1328 0.54004 0.79297 1.6201 0.79297 0.79297 0 1.3193-0.35547 0.53321-0.35547 0.82715-0.98438v-3.4727q-0.28027-0.64258-0.79297-1.0391-0.51269-0.40332-1.3398-0.40332-1.0801 0-1.627 0.88867-0.54004 0.88184-0.54004 2.2969v0.14355z"/>
  <path id="path3401" d="m207.15 10.951q-1.3877 0-2.3105-1.0254-0.91602-1.0254-0.91602-2.5977v-0.37598q0-1.5859 0.90918-2.6318 0.91602-1.0459 2.2148-1.0459 1.3604 0 2.1396 0.86133 0.7793 0.86133 0.7793 2.2969v0.69727h-5.2227v0.19824q0 1.251 0.66309 2.0918 0.66309 0.84082 1.7432 0.84082 0.76563 0 1.3057-0.21191 0.54004-0.21191 0.92285-0.6084l0.34863 0.56055q-0.41699 0.4375-1.0596 0.69726-0.63574 0.25293-1.5176 0.25293zm-0.10254-6.9795q-0.90917 0-1.5244 0.69727-0.61523 0.69043-0.71777 1.7363l0.0137 0.03418h4.334v-0.20508q0-0.96387-0.56738-1.6133-0.56738-0.64941-1.5381-0.64941z"/>
  <path id="path3403" d="m212.28 3.4111 0.0752 1.2236q0.35547-0.64941 0.94336-1.0049 0.59472-0.35547 1.415-0.35547 0.84765 0 1.415 0.41016 0.57421 0.41016 0.82031 1.251 0.33496-0.7793 0.95019-1.2168 0.62207-0.44434 1.5108-0.44434 1.1826 0 1.8252 0.78613 0.64258 0.78613 0.64258 2.4336v4.3135h-0.82031v-4.3271q0-1.3672-0.48535-1.9277-0.47852-0.56738-1.3398-0.56738-0.95019 0-1.4697 0.59473-0.51953 0.59473-0.64257 1.5244 0 0.047852 0 0.13672 0.007 0.088867 0.007 0.12988v4.4365h-0.82715v-4.3271q0-1.3398-0.49218-1.9141-0.48535-0.58105-1.3398-0.58105-0.86816 0-1.3809 0.44434-0.50586 0.4375-0.71093 1.1826v5.1953h-0.82715v-7.3965h0.73144z"/>
  <path id="path3405" d="m224.92 10.808h-0.81348v-7.3965h0.81348v7.3965zm0-9.5156h-0.81348v-1.1484h0.81348v1.1484z"/>
  <path id="path3407" d="m229.92 10.261q0.81348 0 1.4356-0.46484 0.62207-0.46484 0.62207-1.292h0.72461l0.0137 0.041016q0.0342 1.0254-0.82031 1.7158-0.85449 0.69043-1.9756 0.69043-1.5107 0-2.3379-1.0322-0.82031-1.0391-0.82031-2.666v-0.28711q0-1.6133 0.82715-2.6523 0.82715-1.0391 2.3242-1.0391 1.2168 0 2.0234 0.71777 0.81348 0.71777 0.78614 1.8867l-0.0137 0.041016h-0.73144q0-0.88867-0.60156-1.415-0.59473-0.5332-1.4629-0.5332-1.1895 0-1.7637 0.85449-0.56738 0.84766-0.56738 2.1396v0.28711q0 1.3125 0.56738 2.1602 0.56739 0.84766 1.7705 0.84766z"/>
  <path id="path3409" d="m243.8 7.3145q0 1.6611-0.75195 2.6523-0.75195 0.98438-2.0713 0.98438-0.77929 0-1.3672-0.29394-0.58106-0.29395-0.9502-0.84082v3.835h-0.82031v-10.24h0.69043l0.10254 1.1484q0.36914-0.61523 0.95019-0.9502 0.58789-0.33496 1.3809-0.33496 1.333 0 2.085 1.0664 0.75195 1.0596 0.75195 2.8301v0.14355zm-0.82031-0.14355q0-1.4082-0.56054-2.2969-0.56055-0.88867-1.6406-0.88867-0.82715 0-1.3467 0.39648-0.51269 0.38965-0.77246 1.0186v3.5547q0.28027 0.6084 0.80664 0.95703 0.5332 0.34863 1.3262 0.34863 1.0732 0 1.627-0.80664 0.56054-0.80664 0.56054-2.1396v-0.14355z"/>
  <path id="path3411" d="m250.32 10.808q-0.082-0.37598-0.11621-0.64941-0.0342-0.27344-0.0342-0.55371-0.41016 0.58105-1.0938 0.96387-0.6836 0.38281-1.5381 0.38281-1.0801 0-1.6816-0.57422-0.59472-0.57422-0.59472-1.5381 0-1.0254 0.88183-1.6406 0.88867-0.61523 2.3926-0.61523h1.6338v-0.91602q0-0.79297-0.5127-1.2441-0.50586-0.45117-1.4219-0.45117-0.85449 0-1.4219 0.43066-0.56054 0.43066-0.56054 1.0527l-0.75196-0.00684-0.0137-0.041016q-0.041-0.82715 0.75195-1.4766 0.79981-0.65625 2.0303-0.65625 1.2236 0 1.9688 0.62207 0.74512 0.62207 0.74512 1.7842v3.6367q0 0.38965 0.041 0.75879 0.0479 0.36914 0.15039 0.73144h-0.85449zm-2.6865-0.58105q0.88183 0 1.5586-0.41016 0.67676-0.41699 0.97754-1.0596v-1.5449h-1.6475q-1.1143 0-1.7842 0.47852-0.66309 0.47168-0.66309 1.1758 0 0.60156 0.41016 0.98438 0.41699 0.37598 1.1484 0.37598z"/>
  <path id="path3413" d="m259.11 7.3145q0 1.6611-0.75195 2.6523-0.75195 0.98438-2.0713 0.98438-0.77929 0-1.3672-0.29394-0.58106-0.29395-0.9502-0.84082v3.835h-0.82031v-10.24h0.69043l0.10254 1.1484q0.36914-0.61523 0.95019-0.9502 0.58789-0.33496 1.3809-0.33496 1.333 0 2.085 1.0664 0.75195 1.0596 0.75195 2.8301v0.14355zm-0.82031-0.14355q0-1.4082-0.56054-2.2969-0.56055-0.88867-1.6406-0.88867-0.82715 0-1.3467 0.39648-0.51269 0.38965-0.77246 1.0186v3.5547q0.28027 0.6084 0.80664 0.95703 0.5332 0.34863 1.3262 0.34863 1.0732 0 1.627-0.80664 0.56054-0.80664 0.56054-2.1396v-0.14355z"/>
  <path id="path3415" d="m263.72 10.951q-1.3877 0-2.3105-1.0254-0.91602-1.0254-0.91602-2.5977v-0.37598q0-1.5859 0.90918-2.6318 0.91602-1.0459 2.2148-1.0459 1.3604 0 2.1396 0.86133 0.7793 0.86133 0.7793 2.2969v0.69727h-5.2227v0.19824q0 1.251 0.66309 2.0918 0.66308 0.84082 1.7432 0.84082 0.76563 0 1.3057-0.21191 0.54004-0.21191 0.92285-0.6084l0.34863 0.56055q-0.41699 0.4375-1.0596 0.69726-0.63574 0.25293-1.5176 0.25293zm-0.10254-6.9795q-0.90918 0-1.5244 0.69727-0.61523 0.69043-0.71777 1.7363l0.0137 0.03418h4.334v-0.20508q0-0.96387-0.56738-1.6133-0.56738-0.64941-1.5381-0.64941z"/>
  <path id="path3417" d="m271.57 4.1152-0.6084-0.041016q-0.77246 0-1.2715 0.4375-0.49219 0.43066-0.70411 1.1895v5.1064h-0.82031v-7.3965h0.71778l0.10253 1.2305v0.082031q0.32129-0.68359 0.86133-1.0664t1.2852-0.38281q0.15723 0 0.30078 0.027344 0.15039 0.020508 0.24609 0.047852l-0.10937 0.76562z"/>
  <path id="path3419" d="m277.35 8.9277q0-0.51953-0.43066-0.90918-0.42383-0.38965-1.5381-0.63574-1.3262-0.28711-1.9619-0.75879-0.62891-0.47168-0.62891-1.333 0-0.84766 0.71094-1.4287 0.71777-0.58789 1.8936-0.58789 1.251 0 1.9824 0.62207 0.73144 0.61523 0.69726 1.5449l-0.0137 0.041016h-0.75879q0-0.6084-0.51953-1.0596-0.5127-0.45117-1.3877-0.45117-0.8955 0-1.3467 0.38965-0.44433 0.38281-0.44433 0.90234 0 0.5127 0.38281 0.84766 0.38965 0.33496 1.5449 0.58789 1.3193 0.29395 1.9756 0.80664 0.65625 0.50586 0.65625 1.3809 0 0.92285-0.75195 1.4971-0.74512 0.56738-1.9756 0.56738-1.3467 0-2.1191-0.64258-0.76563-0.64258-0.72461-1.5313l0.0137-0.041016h0.75195q0.0479 0.7998 0.64942 1.1621 0.6084 0.3623 1.4287 0.3623 0.88867 0 1.4014-0.38965 0.51269-0.38965 0.51269-0.94336z"/>
  <path id="path3421" d="m283.02 7q0-1.6338 0.89551-2.6797t2.3721-1.0459q1.4834 0 2.3789 1.0459 0.89 1.0459 0.89 2.6797v0.22559q0 1.6406-0.89551 2.6865-0.88867 1.0391-2.3652 1.0391-1.4902 0-2.3857-1.0391-0.89551-1.0459-0.89551-2.6865v-0.2256zm0.82032 0.22559q0 1.2852 0.64941 2.1602t1.8115 0.875q1.1416 0 1.791-0.875 0.65625-0.875 0.65625-2.1602v-0.2256q0-1.2646-0.65625-2.1465-0.65625-0.88184-1.8047-0.88184t-1.7978 0.88184q-0.65 0.8819-0.65 2.1465v0.22559z"/>
  <path id="path3423" d="m292 3.4111 0.0752 1.292q0.35546-0.68359 0.95703-1.0527 0.6084-0.37598 1.4355-0.37598 1.2031 0 1.832 0.73828 0.62891 0.73145 0.62891 2.29v4.5049h-0.82031v-4.498q0-1.2715-0.47852-1.7979-0.47168-0.52637-1.3467-0.52637-0.86132 0-1.4082 0.45801-0.54004 0.45117-0.7793 1.2031v5.1611h-0.82031v-7.3965h0.72461z"/>
  <path id="path3425" d="m307.17 10.808q-0.082-0.37598-0.11622-0.64941-0.0342-0.27344-0.0342-0.55371-0.41015 0.58105-1.0938 0.96387-0.68359 0.38281-1.5381 0.38281-1.0801 0-1.6816-0.57422-0.59473-0.57422-0.59473-1.5381 0-1.0254 0.88184-1.6406 0.88867-0.61523 2.3926-0.61523h1.6338v-0.91602q0-0.79297-0.51269-1.2441-0.50586-0.45117-1.4219-0.45117-0.85449 0-1.4219 0.43066-0.56055 0.43066-0.56055 1.0527l-0.75195-0.00684-0.0137-0.041016q-0.041-0.82715 0.75195-1.4766 0.79981-0.65625 2.0303-0.65625 1.2236 0 1.9688 0.62207 0.74512 0.62207 0.74512 1.7842v3.6367q0 0.38965 0.041 0.75879 0.0479 0.36914 0.15039 0.73144h-0.85449zm-2.6865-0.58105q0.88184 0 1.5586-0.41016 0.67675-0.41699 0.97753-1.0596v-1.5449h-1.6475q-1.1142 0-1.7842 0.47852-0.66308 0.47168-0.66308 1.1758 0 0.60156 0.41015 0.98438 0.417 0.37598 1.1484 0.37598z"/>
  <path id="path3427" d="m315.01 8.4082 0.28028 1.3193h0.041l0.34863-1.3193 1.5723-4.9971h0.7041l1.5723 4.9971 0.35547 1.3535h0.041l0.30762-1.3535 1.3467-4.9971h0.84765l-2.1533 7.3965h-0.69726l-1.6406-5.0586-0.32129-1.2783h-0.041l-0.32813 1.2783-1.6133 5.0586h-0.7041l-2.1465-7.3965h0.84765l1.3809 4.9971z"/>
  <path id="path3429" d="m324.95 10.808h-0.81348v-7.3965h0.81348v7.3965zm0-9.5156h-0.81348v-1.1484h0.81348v1.1484z"/>
  <path id="path3431" d="m326.88 7.1709q0-1.7705 0.74512-2.8301 0.75195-1.0664 2.0918-1.0664 0.77246 0 1.3398 0.32812 0.56738 0.32812 0.94336 0.92969v-4.3887h0.81347v10.664h-0.72461l-0.0684-1.0732q-0.36914 0.58789-0.95019 0.90234-0.58106 0.31445-1.3672 0.31445-1.3262 0-2.0781-0.98438-0.74512-0.99121-0.74512-2.6523v-0.14355zm0.82031 0.14355q0 1.3398 0.5332 2.1328 0.54004 0.79297 1.6201 0.79297 0.79297 0 1.3193-0.35547 0.5332-0.35547 0.82715-0.98438v-3.4727q-0.28028-0.64258-0.79297-1.0391-0.5127-0.40332-1.3398-0.40332-1.0801 0-1.627 0.88867-0.54004 0.88184-0.54004 2.2969v0.14355z"/>
  <path id="path3433" d="m337.77 10.951q-1.3877 0-2.3106-1.0254-0.91601-1.0254-0.91601-2.5977v-0.37598q0-1.5859 0.90917-2.6318 0.91602-1.0459 2.2148-1.0459 1.3604 0 2.1396 0.86133 0.77929 0.86133 0.77929 2.2969v0.69727h-5.2226v0.19824q0 1.251 0.66308 2.0918 0.66309 0.84082 1.7432 0.84082 0.76562 0 1.3057-0.21191 0.54004-0.21191 0.92285-0.6084l0.34864 0.56055q-0.417 0.4375-1.0596 0.69726-0.63575 0.25293-1.5176 0.25293zm-0.10254-6.9795q-0.90918 0-1.5244 0.69727-0.61523 0.69043-0.71777 1.7363l0.0137 0.03418h4.334v-0.20508q0-0.96387-0.56739-1.6133-0.56738-0.64941-1.5381-0.64941z"/>
  <path id="path3435" d="m350.31 10.808q-0.082-0.37598-0.11621-0.64941-0.0342-0.27344-0.0342-0.55371-0.41015 0.58105-1.0938 0.96387-0.68359 0.38281-1.5381 0.38281-1.0801 0-1.6816-0.57422-0.59473-0.57422-0.59473-1.5381 0-1.0254 0.88184-1.6406 0.88867-0.61523 2.3926-0.61523h1.6338v-0.91602q0-0.79297-0.51269-1.2441-0.50586-0.45117-1.4219-0.45117-0.85449 0-1.4219 0.43066-0.56055 0.43066-0.56055 1.0527l-0.75195-0.00684-0.0137-0.041016q-0.041-0.82715 0.75195-1.4766 0.7998-0.65625 2.0303-0.65625 1.2236 0 1.9688 0.62207 0.74512 0.62207 0.74512 1.7842v3.6367q0 0.38965 0.041 0.75879 0.0479 0.36914 0.1504 0.73144h-0.8545zm-2.6865-0.58105q0.88184 0 1.5586-0.41016 0.67676-0.41699 0.97754-1.0596v-1.5449h-1.6475q-1.1143 0-1.7842 0.47852-0.66308 0.47168-0.66308 1.1758 0 0.60156 0.41015 0.98438 0.41699 0.37598 1.1484 0.37598z"/>
  <path id="path3437" d="m356.56 4.1152-0.60839-0.041016q-0.77247 0-1.2715 0.4375-0.49219 0.43066-0.7041 1.1895v5.1064h-0.82031v-7.3965h0.71777l0.10254 1.2305v0.082031q0.32129-0.68359 0.86133-1.0664t1.2852-0.38281q0.15723 0 0.30079 0.027344 0.15039 0.020508 0.24609 0.047852l-0.10938 0.76562z"/>
  <path id="path3439" d="m361.31 4.1152-0.6084-0.041016q-0.77246 0-1.2715 0.4375-0.49218 0.43066-0.7041 1.1895v5.1064h-0.82031v-7.3965h0.71777l0.10254 1.2305v0.082031q0.32129-0.68359 0.86133-1.0664t1.2852-0.38281q0.15722 0 0.30078 0.027344 0.15039 0.020508 0.24609 0.047852l-0.10937 0.76562z"/>
  <path id="path3441" d="m367.35 10.808q-0.082-0.37598-0.11621-0.64941-0.0342-0.27344-0.0342-0.55371-0.41016 0.58105-1.0938 0.96387-0.6836 0.38281-1.5381 0.38281-1.0801 0-1.6816-0.57422-0.59472-0.57422-0.59472-1.5381 0-1.0254 0.88183-1.6406 0.88867-0.61523 2.3926-0.61523h1.6338v-0.91602q0-0.79297-0.5127-1.2441-0.50586-0.45117-1.4219-0.45117-0.85449 0-1.4219 0.43066-0.56054 0.43066-0.56054 1.0527l-0.75196-0.00684-0.0137-0.041016q-0.041-0.82715 0.75195-1.4766 0.79981-0.65625 2.0303-0.65625 1.2236 0 1.9688 0.62207 0.74512 0.62207 0.74512 1.7842v3.6367q0 0.38965 0.041 0.75879 0.0478 0.36914 0.15039 0.73144h-0.85449zm-2.6865-0.58105q0.88183 0 1.5586-0.41016 0.67676-0.41699 0.97754-1.0596v-1.5449h-1.6475q-1.1143 0-1.7842 0.47852-0.66309 0.47168-0.66309 1.1758 0 0.60156 0.41016 0.98438 0.41699 0.37598 1.1484 0.37598z"/>
  <path id="path3443" d="m372.18 8.8047 0.25977 0.88184h0.041l2.2354-6.2754h0.91602l-3.2129 8.5791q-0.28711 0.75195-0.74512 1.2783-0.45801 0.52637-1.3398 0.52637-0.14356 0-0.34863-0.03418-0.20508-0.02734-0.30079-0.06152l0.0957-0.68359q0.082 0.01367 0.25976 0.02734 0.18457 0.02051 0.2666 0.02051 0.53321 0 0.8545-0.38281 0.32129-0.37598 0.54687-0.9707l0.38965-0.99805-2.8574-7.3008h0.90918l2.0303 5.3936z"/>
  <path id="path3445" d="m379.9 7q0-1.6338 0.89551-2.6797t2.3721-1.0459q1.4834 0 2.3789 1.0459 0.89 1.0459 0.89 2.6797v0.22559q0 1.6406-0.89551 2.6865-0.88867 1.0391-2.3652 1.0391-1.4902 0-2.3857-1.0391-0.89551-1.0459-0.89551-2.6865v-0.2256zm0.82031 0.22559q0 1.2852 0.64942 2.1602 0.64941 0.875 1.8115 0.875 1.1416 0 1.791-0.875 0.65625-0.875 0.65625-2.1602v-0.2256q0-1.2646-0.65625-2.1465-0.65625-0.88184-1.8047-0.88184t-1.7978 0.88184q-0.65 0.8819-0.65 2.1465v0.22559z"/>
  <path id="path3447" d="m388.75 10.808v-6.7266h-1.2236v-0.66992h1.2236v-1.0801q0-1.1143 0.55371-1.7227 0.56-0.6087 1.57-0.6087 0.22559 0 0.45801 0.03418t0.47168 0.095703l-0.10254 0.67676q-0.16406-0.041016-0.34179-0.061523-0.1709-0.027344-0.40332-0.027344-0.66993 0-1.0254 0.42383-0.35546 0.42383-0.35546 1.1895v1.0801h1.7637v0.66992h-1.7637v6.7266h-0.82032z"/>
  <path id="path3449" d="m397.45 1.5176v1.8936h1.627v0.66992h-1.627v4.8193q0 0.72461 0.25977 1.0322 0.2666 0.30078 0.7041 0.30078 0.19824 0 0.38281-0.01367 0.19141-0.02051 0.4375-0.06152l0.12305 0.6084q-0.20508 0.08887-0.49902 0.13672-0.29395 0.04785-0.5879 0.04785-0.77929 0-1.2168-0.49219-0.43067-0.49219-0.43067-1.5586v-4.8193h-1.2783v-0.66992h1.2783v-1.8936h0.82715z"/>
  <path id="path3451" d="m400.22 7q0-1.6338 0.8955-2.6797 0.89551-1.0459 2.3721-1.0459 1.4834 0 2.3789 1.0459 0.89 1.0459 0.89 2.6797v0.22559q0 1.6406-0.89551 2.6865-0.88867 1.0391-2.3652 1.0391-1.4902 0-2.3858-1.0391-0.8955-1.0459-0.8955-2.6865v-0.2256zm0.82031 0.22559q0 1.2852 0.64941 2.1602 0.64942 0.875 1.8115 0.875 1.1416 0 1.791-0.875 0.65625-0.875 0.65625-2.1602v-0.2256q0-1.2646-0.65625-2.1465-0.65625-0.88184-1.8047-0.88184t-1.7978 0.88184q-0.65 0.8819-0.65 2.1465v0.22559z"/>
  <path id="path3453" d="m414.42 7.3145q0 1.6611-0.75195 2.6523-0.75195 0.98438-2.0713 0.98438-0.77929 0-1.3672-0.29394-0.58106-0.29395-0.9502-0.84082v3.835h-0.82031v-10.24h0.69043l0.10254 1.1484q0.36914-0.61523 0.95019-0.9502 0.58789-0.33496 1.3809-0.33496 1.333 0 2.085 1.0664 0.75195 1.0596 0.75195 2.8301v0.14355zm-0.82031-0.14355q0-1.4082-0.56054-2.2969-0.56055-0.88867-1.6406-0.88867-0.82715 0-1.3467 0.39648-0.51269 0.38965-0.77246 1.0186v3.5547q0.28027 0.6084 0.80664 0.95703 0.5332 0.34863 1.3262 0.34863 1.0732 0 1.627-0.80664 0.56054-0.80664 0.56054-2.1396v-0.14355z"/>
  <path id="path3455" d="m417.18 10.808h-0.81348v-7.3965h0.81348v7.3965zm0-9.5156h-0.81348v-1.1484h0.81348v1.1484z"/>
  <path id="path3457" d="m422.17 10.261q0.81347 0 1.4355-0.46484 0.62208-0.46484 0.62208-1.292h0.7246l0.0137 0.041016q0.0342 1.0254-0.82032 1.7158-0.85449 0.69043-1.9756 0.69043-1.5107 0-2.3379-1.0322-0.82032-1.0391-0.82032-2.666v-0.28711q0-1.6133 0.82715-2.6523 0.82715-1.0391 2.3242-1.0391 1.2168 0 2.0234 0.71777 0.81348 0.71777 0.78613 1.8867l-0.0137 0.041016h-0.73144q0-0.88867-0.60157-1.415-0.59472-0.5332-1.4629-0.5332-1.1894 0-1.7637 0.85449-0.56738 0.84766-0.56738 2.1396v0.28711q0 1.3125 0.56738 2.1602 0.56738 0.84766 1.7705 0.84766z"/>
  <path id="path3459" d="m431.11 8.9277q0-0.51953-0.43067-0.90918-0.42382-0.38965-1.5381-0.63574-1.3262-0.28711-1.9619-0.75879-0.6289-0.47168-0.6289-1.333 0-0.84766 0.71094-1.4287 0.71777-0.58789 1.8936-0.58789 1.251 0 1.9824 0.62207 0.73145 0.61523 0.69727 1.5449l-0.0137 0.041016h-0.75879q0-0.6084-0.51953-1.0596-0.5127-0.45117-1.3877-0.45117-0.89551 0-1.3467 0.38965-0.44434 0.38281-0.44434 0.90234 0 0.5127 0.38282 0.84766 0.38965 0.33496 1.5449 0.58789 1.3193 0.29395 1.9756 0.80664 0.65625 0.50586 0.65625 1.3809 0 0.92285-0.75195 1.4971-0.74512 0.56738-1.9756 0.56738-1.3467 0-2.1191-0.64258-0.76563-0.64258-0.72461-1.5313l0.0137-0.041016h0.75195q0.0478 0.7998 0.64941 1.1621 0.6084 0.3623 1.4287 0.3623 0.88867 0 1.4014-0.38965 0.5127-0.38965 0.5127-0.94336z"/>
  <path id="path3461" d="m437.83 10.808v-6.7266h-1.2236v-0.66992h1.2236v-1.0801q0-1.1143 0.55372-1.7227 0.56-0.6087 1.57-0.6087 0.22558 0 0.458 0.03418 0.23243 0.03418 0.47168 0.095703l-0.10254 0.67676q-0.16406-0.041016-0.34179-0.061523-0.1709-0.027344-0.40332-0.027344-0.66993 0-1.0254 0.42383t-0.35547 1.1895v1.0801h1.7637v0.66992h-1.7637v6.7266h-0.82032z"/>
  <path id="path3463" d="m441.37 7q0-1.6338 0.89551-2.6797t2.3721-1.0459q1.4834 0 2.3789 1.0459 0.89 1.0459 0.89 2.6797v0.22559q0 1.6406-0.89551 2.6865-0.88867 1.0391-2.3652 1.0391-1.4902 0-2.3857-1.0391-0.89551-1.0459-0.89551-2.6865v-0.2256zm0.82031 0.22559q0 1.2852 0.64942 2.1602 0.64941 0.875 1.8115 0.875 1.1416 0 1.791-0.875 0.65625-0.875 0.65625-2.1602v-0.2256q0-1.2646-0.65625-2.1465-0.65625-0.88184-1.8047-0.88184t-1.7978 0.88184q-0.65 0.8819-0.65 2.1465v0.22559z"/>
  <path id="path3465" d="m453.02 4.1152-0.60839-0.041016q-0.77247 0-1.2715 0.4375-0.49219 0.43066-0.7041 1.1895v5.1064h-0.82031v-7.3965h0.71777l0.10254 1.2305v0.082031q0.32129-0.68359 0.86133-1.0664t1.2852-0.38281q0.15723 0 0.30079 0.027344 0.15039 0.020508 0.24609 0.047852l-0.10938 0.76562z"/>
  <path id="path3467" d="m0.31445 26q0-1.6338 0.89551-2.6797t2.3721-1.0459q1.4834 0 2.3789 1.0459 0.8954 1.046 0.8954 2.68v0.22559q0 1.6406-0.89551 2.6865-0.88867 1.0391-2.3652 1.0391-1.4902 0-2.3857-1.0391-0.89551-1.0459-0.89551-2.6865v-0.22559zm0.82031 0.22559q0 1.2852 0.64941 2.1602t1.8115 0.875q1.1416 0 1.791-0.875 0.65625-0.875 0.65625-2.1602v-0.22559q0-1.2646-0.65625-2.1465-0.65625-0.88184-1.8047-0.88184t-1.7979 0.88184q-0.6493 0.881-0.6493 2.146v0.22559z"/>
  <path id="path3469" d="m10.562 27.955 0.23926 0.86816h0.04102l0.25977-0.86816 2.0098-5.5439h0.84766l-2.8096 7.3965h-0.65625l-2.8164-7.3965h0.84766l2.0371 5.5439z"/>
  <path id="path3471" d="m18.013 29.951q-1.3877 0-2.3105-1.0254-0.91602-1.0254-0.91602-2.5977v-0.37598q0-1.5859 0.90918-2.6318 0.91602-1.0459 2.2148-1.0459 1.3604 0 2.1396 0.86133 0.7793 0.86133 0.7793 2.2969v0.69727h-5.2227v0.19824q0 1.251 0.66309 2.0918 0.66309 0.84082 1.7432 0.84082 0.76562 0 1.3057-0.21191 0.54004-0.21191 0.92285-0.6084l0.34863 0.56055q-0.41699 0.4375-1.0596 0.69726-0.63574 0.25293-1.5176 0.25293zm-0.103-6.979q-0.90918 0-1.5244 0.69726-0.61523 0.69043-0.71777 1.7363l0.01367 0.03418h4.334v-0.20508q0-0.96387-0.56738-1.6133-0.56738-0.64941-1.5381-0.64941z"/>
  <path id="path3473" d="m25.86 23.115-0.6084-0.04102q-0.77246 0-1.2715 0.4375-0.49219 0.43066-0.7041 1.1895v5.1064h-0.82031v-7.3965h0.71777l0.10254 1.2305v0.08203q0.32129-0.68359 0.86133-1.0664t1.2852-0.38281q0.15723 0 0.30078 0.02734 0.15039 0.02051 0.24609 0.04785l-0.10938 0.76562z"/>
  <path id="path3475" d="m35.506 26.602h1.5586v0.69043h-1.5586v2.5156h-0.81348v-2.5156h-4.6689v-0.46484l4.5869-6.9727h0.89551v6.7471zm-4.5117 0h3.6982v-5.6738l-0.04102-0.01367-0.34863 0.74512-3.3086 4.9424z"/>
  <path id="path3477" d="m43.914 27.805 0.25977 0.88184h0.04102l2.2354-6.2754h0.91602l-3.2129 8.5791q-0.28711 0.75195-0.74512 1.2783-0.45801 0.52637-1.3398 0.52637-0.14355 0-0.34863-0.03418-0.20508-0.02734-0.30078-0.06152l0.0957-0.68359q0.08203 0.01367 0.25977 0.02734 0.18457 0.02051 0.2666 0.02051 0.5332 0 0.85449-0.38281 0.32129-0.37598 0.54688-0.9707l0.38965-0.99805-2.8574-7.3008h0.90918l2.0303 5.3936z"/>
  <path id="path3479" d="m51.372 29.951q-1.3877 0-2.3105-1.0254-0.91602-1.0254-0.91602-2.5977v-0.37598q0-1.5859 0.90918-2.6318 0.91602-1.0459 2.2148-1.0459 1.3604 0 2.1396 0.86133 0.7793 0.86133 0.7793 2.2969v0.69727h-5.2227v0.19824q0 1.251 0.66309 2.0918 0.66309 0.84082 1.7432 0.84082 0.76562 0 1.3057-0.21191 0.54004-0.21191 0.92285-0.6084l0.34863 0.56055q-0.41699 0.4375-1.0596 0.69726-0.63574 0.25293-1.5176 0.25293zm-0.102-6.979q-0.90918 0-1.5244 0.69726-0.61523 0.69043-0.71777 1.7363l0.01367 0.03418h4.334v-0.20508q0-0.96387-0.56738-1.6133-0.56738-0.64941-1.5381-0.64941z"/>
  <path id="path3481" d="m60.498 29.808q-0.08203-0.37598-0.11621-0.64941-0.03418-0.27344-0.03418-0.55371-0.41016 0.58106-1.0938 0.96387-0.68359 0.38281-1.5381 0.38281-1.0801 0-1.6816-0.57422-0.59473-0.57422-0.59473-1.5381 0-1.0254 0.88184-1.6406 0.88867-0.61523 2.3926-0.61523h1.6338v-0.91602q0-0.79297-0.5127-1.2441-0.50586-0.45117-1.4219-0.45117-0.85449 0-1.4219 0.43066-0.56055 0.43066-0.56055 1.0527l-0.75195-0.0068-0.01367-0.04102q-0.04102-0.82715 0.75195-1.4766 0.7998-0.65625 2.0303-0.65625 1.2236 0 1.9688 0.62207 0.74512 0.62207 0.74512 1.7842v3.6367q0 0.38965 0.04102 0.75879 0.04785 0.36914 0.15039 0.73144h-0.85449zm-2.6865-0.58106q0.88184 0 1.5586-0.41016 0.67676-0.41699 0.97754-1.0596v-1.5449h-1.6475q-1.1143 0-1.7842 0.47852-0.66309 0.47168-0.66309 1.1758 0 0.60156 0.41016 0.98438 0.41699 0.37598 1.1484 0.37598z"/>
  <path id="path3483" d="m66.739 23.115-0.6084-0.04102q-0.77246 0-1.2715 0.4375-0.49219 0.43066-0.7041 1.1895v5.1064h-0.82031v-7.3965h0.71777l0.10254 1.2305v0.08203q0.32129-0.68359 0.86133-1.0664t1.2852-0.38281q0.15723 0 0.30078 0.02734 0.15039 0.02051 0.24609 0.04785l-0.10938 0.76562z"/>
  <path id="path3485" d="m72.522 27.928q0-0.51953-0.43066-0.90918-0.42383-0.38965-1.5381-0.63574-1.3262-0.28711-1.9619-0.75879-0.62891-0.47168-0.62891-1.333 0-0.84766 0.71094-1.4287 0.71777-0.58789 1.8936-0.58789 1.251 0 1.9824 0.62207 0.73144 0.61524 0.69726 1.5449l-0.01367 0.04102h-0.75879q0-0.6084-0.51953-1.0596-0.5127-0.45117-1.3877-0.45117-0.89551 0-1.3467 0.38965-0.44434 0.38281-0.44434 0.90234 0 0.5127 0.38281 0.84766 0.38965 0.33496 1.5449 0.58789 1.3193 0.29394 1.9756 0.80664 0.65625 0.50586 0.65625 1.3809 0 0.92285-0.75195 1.4971-0.74512 0.56738-1.9756 0.56738-1.3467 0-2.1191-0.64258-0.76562-0.64258-0.72461-1.5312l0.01367-0.04102h0.75195q0.04785 0.7998 0.64941 1.1621 0.6084 0.3623 1.4287 0.3623 0.88867 0 1.4014-0.38965 0.5127-0.38965 0.5127-0.94336z"/>
  <path id="path3487" d="m76.228 29.808h-0.93652v-1.1211h0.93652v1.1211z"/>
  <path id="path3489" d="m89.496 29.808h-0.81348v-4.5801h-5.6602v4.5801h-0.81348v-9.9531h0.81348v4.6758h5.6602v-4.6758h0.81348v9.9531z"/>
  <path id="path3491" d="m92.798 29.808h-0.81348v-7.3965h0.81348v7.3965zm0-9.5156h-0.81348v-1.1484h0.81348v1.1484z"/>
  <path id="path3493" d="m99.483 27.928q0-0.51953-0.43066-0.90918-0.42383-0.38965-1.5381-0.63574-1.3262-0.28711-1.9619-0.75879-0.62891-0.47168-0.62891-1.333 0-0.84766 0.71094-1.4287 0.71777-0.58789 1.8936-0.58789 1.251 0 1.9824 0.62207 0.73145 0.61524 0.69727 1.5449l-0.0137 0.04102h-0.75879q0-0.6084-0.51953-1.0596-0.5127-0.45117-1.3877-0.45117-0.89551 0-1.3467 0.38965-0.44434 0.38281-0.44434 0.90234 0 0.5127 0.38281 0.84766 0.38965 0.33496 1.5449 0.58789 1.3193 0.29394 1.9756 0.80664 0.65626 0.50586 0.65626 1.3809 0 0.92285-0.75196 1.4971-0.74512 0.56738-1.9756 0.56738-1.3467 0-2.1191-0.64258-0.76562-0.64258-0.72461-1.5312l0.01367-0.04102h0.75195q0.04785 0.7998 0.64941 1.1621 0.6084 0.3623 1.4287 0.3623 0.88867 0 1.4014-0.38965 0.5127-0.38965 0.5127-0.94336z"/>
  <path id="path3495" d="m111.56 26.314q0 1.6611-0.75195 2.6523-0.75196 0.98438-2.0713 0.98438-0.7793 0-1.3672-0.29394-0.58105-0.29395-0.95019-0.84082v3.835h-0.82032v-10.24h0.69043l0.10254 1.1484q0.36914-0.61523 0.9502-0.9502 0.58789-0.33496 1.3809-0.33496 1.333 0 2.085 1.0664 0.75195 1.0596 0.75195 2.8301v0.14356zm-0.82031-0.14356q0-1.4082-0.56055-2.2969-0.56055-0.88867-1.6406-0.88867-0.82715 0-1.3467 0.39648-0.5127 0.38965-0.77246 1.0186v3.5547q0.28027 0.6084 0.80664 0.95703 0.5332 0.34863 1.3262 0.34863 1.0732 0 1.627-0.80664 0.56055-0.80664 0.56055-2.1396v-0.14356z"/>
  <path id="path3497" d="m112.94 26q0-1.6338 0.89551-2.6797t2.3721-1.0459q1.4834 0 2.3789 1.0459 0.89551 1.0459 0.89551 2.6797v0.22559q0 1.6406-0.89551 2.6865-0.88867 1.0391-2.3652 1.0391-1.4902 0-2.3857-1.0391-0.89551-1.0459-0.89551-2.6865v-0.22559zm0.82031 0.22559q0 1.2852 0.64942 2.1602 0.64941 0.875 1.8115 0.875 1.1416 0 1.791-0.875 0.65625-0.875 0.65625-2.1602v-0.22559q0-1.2646-0.65625-2.1465-0.65625-0.88184-1.8047-0.88184t-1.7978 0.88184q-0.65 0.881-0.65 2.146v0.22559z"/>
  <path id="path3499" d="m124.6 23.115-0.6084-0.04102q-0.77246 0-1.2715 0.4375-0.49219 0.43066-0.7041 1.1895v5.1064h-0.82031v-7.3965h0.71777l0.10254 1.2305v0.08203q0.32129-0.68359 0.86133-1.0664t1.2852-0.38281q0.15723 0 0.30078 0.02734 0.15039 0.02051 0.2461 0.04785l-0.10938 0.76562z"/>
  <path id="path3501" d="m127.46 20.518v1.8936h1.627v0.66992h-1.627v4.8193q0 0.72461 0.25977 1.0322 0.2666 0.30078 0.7041 0.30078 0.19824 0 0.38281-0.01367 0.19141-0.02051 0.4375-0.06152l0.12305 0.6084q-0.20508 0.08887-0.49902 0.13672-0.29395 0.04785-0.58789 0.04785-0.7793 0-1.2168-0.49219-0.43066-0.49219-0.43066-1.5586v-4.8193h-1.2783v-0.66992h1.2783v-1.8936h0.82714z"/>
  <path id="path3503" d="m131.41 29.808v-6.7266h-1.2236v-0.66992h1.2236v-1.0801q0-1.1143 0.55371-1.7227 0.57-0.608 1.57-0.608 0.22559 0 0.45801 0.03418t0.47168 0.0957l-0.10254 0.67676q-0.16406-0.04102-0.3418-0.06152-0.17089-0.02734-0.40332-0.02734-0.66992 0-1.0254 0.42383-0.35547 0.42383-0.35547 1.1895v1.0801h1.7637v0.66992h-1.7637v6.7266h-0.82031z"/>
  <path id="path3505" d="m134.96 26q0-1.6338 0.89551-2.6797 0.8955-1.0459 2.3721-1.0459 1.4834 0 2.3789 1.0459 0.89551 1.0459 0.89551 2.6797v0.22559q0 1.6406-0.89551 2.6865-0.88867 1.0391-2.3652 1.0391-1.4902 0-2.3857-1.0391-0.89551-1.0459-0.89551-2.6865v-0.22559zm0.82031 0.22559q0 1.2852 0.64941 2.1602 0.64942 0.875 1.8115 0.875 1.1416 0 1.791-0.875 0.65625-0.875 0.65625-2.1602v-0.22559q0-1.2646-0.65625-2.1465-0.65625-0.88184-1.8047-0.88184t-1.7979 0.88184q-0.65 0.881-0.65 2.146v0.22559z"/>
  <path id="path3507" d="m144.12 29.808h-0.81348v-10.664h0.81348v10.664z"/>
  <path id="path3509" d="m147.29 29.808h-0.81348v-7.3965h0.81348v7.3965zm0-9.5156h-0.81348v-1.1484h0.81348v1.1484z"/>
  <path id="path3511" d="m149.09 26q0-1.6338 0.8955-2.6797 0.89551-1.0459 2.3721-1.0459 1.4834 0 2.3789 1.0459 0.89551 1.0459 0.89551 2.6797v0.22559q0 1.6406-0.89551 2.6865-0.88867 1.0391-2.3652 1.0391-1.4902 0-2.3858-1.0391-0.8955-1.0459-0.8955-2.6865v-0.22559zm0.82031 0.22559q0 1.2852 0.64941 2.1602 0.64942 0.875 1.8115 0.875 1.1416 0 1.791-0.875 0.65625-0.875 0.65625-2.1602v-0.22559q0-1.2646-0.65625-2.1465-0.65625-0.88184-1.8047-0.88184t-1.7978 0.88184q-0.65 0.881-0.65 2.146v0.22559z"/>
  <path id="path3513" d="m161.68 29.808h-0.81348v-7.3965h0.81348v7.3965zm0-9.5156h-0.81348v-1.1484h0.81348v1.1484z"/>
  <path id="path3515" d="m164.66 22.411 0.0752 1.292q0.35547-0.68359 0.95703-1.0527 0.6084-0.37598 1.4356-0.37598 1.2031 0 1.832 0.73828 0.62891 0.73145 0.62891 2.29v4.5049h-0.82032v-4.498q0-1.2715-0.47851-1.7979-0.47168-0.52637-1.3467-0.52637-0.86133 0-1.4082 0.45801-0.54004 0.45117-0.7793 1.2031v5.1611h-0.82031v-7.3965h0.72461z"/>
  <path id="path3517" d="m174.47 29.261q0.81347 0 1.4355-0.46484 0.62207-0.46484 0.62207-1.292h0.72461l0.0137 0.04102q0.0342 1.0254-0.82032 1.7158-0.85449 0.69043-1.9756 0.69043-1.5108 0-2.3379-1.0322-0.82032-1.0391-0.82032-2.666v-0.28711q0-1.6133 0.82715-2.6523 0.82715-1.0391 2.3242-1.0391 1.2168 0 2.0234 0.71777 0.81347 0.71777 0.78613 1.8867l-0.0137 0.04102h-0.73145q0-0.88867-0.60156-1.415-0.59473-0.5332-1.4629-0.5332-1.1894 0-1.7637 0.85449-0.56738 0.84766-0.56738 2.1396v0.28711q0 1.3125 0.56738 2.1602 0.56738 0.84766 1.7705 0.84766z"/>
  <path id="path3519" d="m179.89 29.808h-0.81348v-10.664h0.81348v10.664z"/>
  <path id="path3521" d="m186.99 28.598q-0.35546 0.64941-0.95703 1.0049-0.60156 0.34863-1.4219 0.34863-1.169 0-1.832-0.79297-0.66309-0.79297-0.66309-2.4609v-4.2861h0.82031v4.2998q0 1.3535 0.45801 1.9414 0.46484 0.58789 1.3125 0.58789 0.92969 0 1.4834-0.41699t0.77246-1.1484v-5.2637h0.82031v7.3965h-0.72461l-0.0684-1.21z"/>
  <path id="path3523" d="m189.62 26.171q0-1.7705 0.74512-2.8301 0.75195-1.0664 2.0918-1.0664 0.77246 0 1.3398 0.32812 0.56738 0.32812 0.94336 0.92969v-4.3887h0.81348v10.664h-0.72461l-0.0684-1.0732q-0.36914 0.58789-0.9502 0.90234-0.58105 0.31445-1.3672 0.31445-1.3262 0-2.0781-0.98438-0.74512-0.99121-0.74512-2.6523v-0.14356zm0.82032 0.14356q0 1.3398 0.5332 2.1328 0.54004 0.79297 1.6201 0.79297 0.79297 0 1.3193-0.35547 0.53321-0.35547 0.82715-0.98438v-3.4727q-0.28027-0.64258-0.79297-1.0391-0.51269-0.40332-1.3398-0.40332-1.0801 0-1.627 0.88867-0.54004 0.88184-0.54004 2.2969v0.14356z"/>
  <path id="path3525" d="m200.5 29.951q-1.3877 0-2.3105-1.0254-0.91602-1.0254-0.91602-2.5977v-0.37598q0-1.5859 0.90918-2.6318 0.91602-1.0459 2.2148-1.0459 1.3604 0 2.1396 0.86133 0.7793 0.86133 0.7793 2.2969v0.69727h-5.2227v0.19824q0 1.251 0.66309 2.0918 0.66308 0.84082 1.7432 0.84082 0.76563 0 1.3057-0.21191 0.54004-0.21191 0.92285-0.6084l0.34863 0.56055q-0.41699 0.4375-1.0596 0.69726-0.63574 0.25293-1.5176 0.25293zm-0.10254-6.9795q-0.90918 0-1.5244 0.69726-0.61523 0.69043-0.71777 1.7363l0.0137 0.03418h4.334v-0.20508q0-0.96387-0.56738-1.6133-0.56738-0.64941-1.5381-0.64941z"/>
  <path id="path3527" d="m209.38 27.928q0-0.51953-0.43066-0.90918-0.42383-0.38965-1.5381-0.63574-1.3262-0.28711-1.9619-0.75879-0.62891-0.47168-0.62891-1.333 0-0.84766 0.71094-1.4287 0.71777-0.58789 1.8936-0.58789 1.251 0 1.9824 0.62207 0.73145 0.61524 0.69727 1.5449l-0.0137 0.04102h-0.75879q0-0.6084-0.51953-1.0596-0.5127-0.45117-1.3877-0.45117-0.89551 0-1.3467 0.38965-0.44433 0.38281-0.44433 0.90234 0 0.5127 0.38281 0.84766 0.38965 0.33496 1.5449 0.58789 1.3193 0.29394 1.9756 0.80664 0.65625 0.50586 0.65625 1.3809 0 0.92285-0.75196 1.4971-0.74511 0.56738-1.9756 0.56738-1.3467 0-2.1191-0.64258-0.76563-0.64258-0.72461-1.5312l0.0137-0.04102h0.75195q0.0479 0.7998 0.64942 1.1621 0.60839 0.3623 1.4287 0.3623 0.88867 0 1.4014-0.38965 0.5127-0.38965 0.5127-0.94336z"/>
  <path id="path3529" d="m220.19 29.808q-0.082-0.37598-0.11621-0.64941-0.0342-0.27344-0.0342-0.55371-0.41016 0.58106-1.0938 0.96387-0.6836 0.38281-1.5381 0.38281-1.0801 0-1.6816-0.57422-0.59473-0.57422-0.59473-1.5381 0-1.0254 0.88184-1.6406 0.88867-0.61523 2.3926-0.61523h1.6338v-0.91602q0-0.79297-0.5127-1.2441-0.50586-0.45117-1.4219-0.45117-0.8545 0-1.4219 0.43066-0.56055 0.43066-0.56055 1.0527l-0.75195-0.0068-0.0137-0.04102q-0.041-0.82715 0.75195-1.4766 0.79981-0.65625 2.0303-0.65625 1.2236 0 1.9688 0.62207 0.74511 0.62207 0.74511 1.7842v3.6367q0 0.38965 0.041 0.75879 0.0479 0.36914 0.15039 0.73144h-0.85449zm-2.6865-0.58106q0.88184 0 1.5586-0.41016 0.67675-0.41699 0.97754-1.0596v-1.5449h-1.6475q-1.1143 0-1.7842 0.47852-0.66309 0.47168-0.66309 1.1758 0 0.60156 0.41016 0.98438 0.41699 0.37598 1.1484 0.37598z"/>
  <path id="path3531" d="m227.17 22.411 0.0752 1.292q0.35547-0.68359 0.95704-1.0527 0.60839-0.37598 1.4355-0.37598 1.2031 0 1.832 0.73828 0.62891 0.73145 0.62891 2.29v4.5049h-0.82031v-4.498q0-1.2715-0.47852-1.7979-0.47168-0.52637-1.3467-0.52637-0.86133 0-1.4082 0.45801-0.54004 0.45117-0.7793 1.2031v5.1611h-0.82031v-7.3965h0.72461z"/>
  <path id="path3533" d="m239.08 28.598q-0.35547 0.64941-0.95703 1.0049-0.60157 0.34863-1.4219 0.34863-1.1689 0-1.832-0.79297-0.66309-0.79297-0.66309-2.4609v-4.2861h0.82032v4.2998q0 1.3535 0.458 1.9414 0.46485 0.58789 1.3125 0.58789 0.92969 0 1.4834-0.41699t0.77246-1.1484v-5.2637h0.82032v7.3965h-0.72461l-0.0684-1.21z"/>
  <path id="path3535" d="m242.72 22.411 0.0752 1.2236q0.35547-0.64941 0.94336-1.0049 0.59473-0.35547 1.415-0.35547 0.84766 0 1.415 0.41016 0.57422 0.41016 0.82031 1.251 0.33496-0.7793 0.9502-1.2168 0.62207-0.44434 1.5107-0.44434 1.1826 0 1.8252 0.78613 0.64258 0.78613 0.64258 2.4336v4.3135h-0.82031v-4.3271q0-1.3672-0.48535-1.9277-0.47852-0.56738-1.3398-0.56738-0.9502 0-1.4697 0.59473-0.51953 0.59473-0.64258 1.5244 0 0.04785 0 0.13672 0.007 0.08887 0.007 0.12988v4.4365h-0.82715v-4.3271q0-1.3398-0.49219-1.9141-0.48535-0.58105-1.3398-0.58105-0.86817 0-1.3809 0.44434-0.50586 0.4375-0.71094 1.1826v5.1953h-0.82715v-7.3965h0.73145z"/>
  <path id="path3537" d="m260.4 26.314q0 1.6611-0.75196 2.6523-0.75195 0.98438-2.0713 0.98438-0.81347 0-1.4014-0.32129-0.58789-0.32812-0.9502-0.93652l-0.0889 1.1143h-0.70411v-10.664h0.82032v4.4297q0.36914-0.62207 0.94336-0.95703 0.57421-0.3418 1.3672-0.3418 1.333 0 2.085 1.0664 0.75196 1.0596 0.75196 2.8301v0.14356zm-0.82715-0.14356q0-1.415-0.54688-2.2969-0.54687-0.88867-1.6201-0.88867-0.8545 0-1.3809 0.42383-0.51953 0.42383-0.77246 1.0869v3.3428q0.27343 0.64258 0.81347 1.0254 0.54688 0.37598 1.3535 0.37598 1.0732 0 1.6133-0.79297 0.54004-0.79297 0.54004-2.1328v-0.14356z"/>
  <path id="path3539" d="m265.01 29.951q-1.3877 0-2.3106-1.0254-0.91601-1.0254-0.91601-2.5977v-0.37598q0-1.5859 0.90918-2.6318 0.91601-1.0459 2.2148-1.0459 1.3604 0 2.1396 0.86133 0.7793 0.86133 0.7793 2.2969v0.69727h-5.2227v0.19824q0 1.251 0.66308 2.0918 0.66309 0.84082 1.7432 0.84082 0.76562 0 1.3057-0.21191 0.54004-0.21191 0.92285-0.6084l0.34864 0.56055q-0.41699 0.4375-1.0596 0.69726-0.63575 0.25293-1.5176 0.25293zm-0.10254-6.9795q-0.90918 0-1.5244 0.69726-0.61524 0.69043-0.71778 1.7363l0.0137 0.03418h4.334v-0.20508q0-0.96387-0.56738-1.6133-0.56739-0.64941-1.5381-0.64941z"/>
  <path id="path3541" d="m272.86 23.115-0.6084-0.04102q-0.77246 0-1.2715 0.4375-0.49219 0.43066-0.7041 1.1895v5.1064h-0.82031v-7.3965h0.71777l0.10254 1.2305v0.08203q0.32129-0.68359 0.86133-1.0664t1.2852-0.38281q0.15722 0 0.30078 0.02734 0.15039 0.02051 0.24609 0.04785l-0.10937 0.76562z"/>
  <path id="path3543" d="m277.17 26q0-1.6338 0.89551-2.6797t2.3721-1.0459q1.4834 0 2.3789 1.0459t0.8955 2.6797v0.22559q0 1.6406-0.8955 2.6865-0.88868 1.0391-2.3652 1.0391-1.4902 0-2.3857-1.0391-0.89551-1.0459-0.89551-2.6865v-0.22559zm0.82031 0.22559q0 1.2852 0.64942 2.1602 0.64941 0.875 1.8115 0.875 1.1416 0 1.791-0.875 0.65625-0.875 0.65625-2.1602v-0.22559q0-1.2646-0.65625-2.1465-0.65625-0.88184-1.8047-0.88184t-1.7978 0.88184q-0.65 0.881-0.65 2.146v0.22559z"/>
  <path id="path3545" d="m286.02 29.808v-6.7266h-1.2236v-0.66992h1.2236v-1.0801q0-1.1143 0.55372-1.7227 0.56-0.608 1.56-0.608 0.22558 0 0.458 0.03418 0.23243 0.03418 0.47168 0.0957l-0.10254 0.67676q-0.16406-0.04102-0.34179-0.06152-0.1709-0.02734-0.40332-0.02734-0.66993 0-1.0254 0.42383t-0.35547 1.1895v1.0801h1.7637v0.66992h-1.7637v6.7266h-0.82032z"/>
  <path id="path3547" d="m294.73 19.854 3.6572 8.7637h0.041l3.6709-8.7637h1.0801v9.9531h-0.81347v-4.3955l0.0684-4.3545-0.041-0.01367-3.6982 8.7637h-0.56738l-3.6914-8.7227-0.041 0.0068 0.0752 4.3203v4.3955h-0.81348v-9.9531h1.0732z"/>
  <path id="path3549" d="m311.28 27.032h-4.5596l-1.0254 2.7754h-0.84766l3.7803-9.9531h0.77246l3.7529 9.9531h-0.84766l-1.0254-2.7754zm-4.2861-0.73145h4.0195l-1.9824-5.3867h-0.041l-1.9961 5.3867z"/>
  <path id="path3551" d="m322.56 29.808q-0.082-0.37598-0.11621-0.64941-0.0342-0.27344-0.0342-0.55371-0.41016 0.58106-1.0938 0.96387-0.6836 0.38281-1.5381 0.38281-1.0801 0-1.6816-0.57422-0.59473-0.57422-0.59473-1.5381 0-1.0254 0.88184-1.6406 0.88867-0.61523 2.3926-0.61523h1.6338v-0.91602q0-0.79297-0.5127-1.2441-0.50586-0.45117-1.4219-0.45117-0.8545 0-1.4219 0.43066-0.56055 0.43066-0.56055 1.0527l-0.75195-0.0068-0.0137-0.04102q-0.041-0.82715 0.75195-1.4766 0.79981-0.65625 2.0303-0.65625 1.2236 0 1.9688 0.62207 0.74511 0.62207 0.74511 1.7842v3.6367q0 0.38965 0.041 0.75879 0.0478 0.36914 0.15039 0.73144h-0.85449zm-2.6865-0.58106q0.88184 0 1.5586-0.41016 0.67675-0.41699 0.97754-1.0596v-1.5449h-1.6475q-1.1143 0-1.7842 0.47852-0.66309 0.47168-0.66309 1.1758 0 0.60156 0.41016 0.98438 0.41699 0.37598 1.1484 0.37598z"/>
  <path id="path3553" d="m326.12 22.411 0.0752 1.292q0.35546-0.68359 0.95703-1.0527 0.6084-0.37598 1.4355-0.37598 1.2031 0 1.832 0.73828 0.62891 0.73145 0.62891 2.29v4.5049h-0.82031v-4.498q0-1.2715-0.47852-1.7979-0.47168-0.52637-1.3467-0.52637-0.86132 0-1.4082 0.45801-0.54004 0.45117-0.7793 1.2031v5.1611h-0.82031v-7.3965h0.72461z"/>
  <path id="path3555" d="m332.87 26.171q0-1.7705 0.74512-2.8301 0.75195-1.0664 2.0918-1.0664 0.77247 0 1.3398 0.32812 0.56738 0.32812 0.94336 0.92969v-4.3887h0.81347v10.664h-0.72461l-0.0684-1.0732q-0.36915 0.58789-0.9502 0.90234t-1.3672 0.31445q-1.3262 0-2.0781-0.98438-0.74512-0.99121-0.74512-2.6523v-0.14356zm0.82031 0.14356q0 1.3398 0.53321 2.1328 0.54004 0.79297 1.6201 0.79297 0.79297 0 1.3193-0.35547 0.5332-0.35547 0.82715-0.98438v-3.4727q-0.28028-0.64258-0.79297-1.0391-0.5127-0.40332-1.3398-0.40332-1.0801 0-1.627 0.88867-0.54004 0.88184-0.54004 2.2969v0.14356z"/>
  <path id="path3557" d="m345.44 25.672v4.1357h-0.81348v-9.9531h3.4248q1.5654 0 2.4199 0.7998 0.86133 0.79297 0.86133 2.1055 0 1.3262-0.86133 2.1191-0.85449 0.79297-2.4199 0.79297h-2.6113zm0-0.69727h2.6113q1.2305 0 1.8457-0.62207 0.62207-0.62891 0.62207-1.5791 0-0.95703-0.61523-1.5859-0.61524-0.63574-1.8525-0.63574h-2.6113v4.4229z"/>
  <path id="path3559" d="m353.89 23.676q0.36914-0.66309 0.98437-1.0322 0.61524-0.36914 1.4356-0.36914 1.169 0 1.791 0.72461 0.6289 0.72461 0.6289 2.249v4.5596h-0.82031v-4.5732q0-1.2031-0.47852-1.7227-0.47168-0.52637-1.3057-0.52637-0.84082 0-1.4082 0.44434-0.56055 0.4375-0.82715 1.1689v5.209h-0.82031v-10.664h0.82031v4.5322z"/>
  <path id="path3561" d="m361.09 29.808v-9.9531h2.8916q1.8252 0 3.0146 1.2168t1.1894 3.124v1.2783q0 1.9141-1.1894 3.124-1.1894 1.21-3.0146 1.21h-2.8916zm0.81348-9.2559v8.5654h2.0781q1.4766 0 2.4268-1.0322 0.95703-1.0322 0.95703-2.6113v-1.2988q0-1.5586-0.95703-2.5908t-2.4268-1.0322h-2.0781z"/>
  <path id="path3563" d="m379.42 26.314q0 1.6611-0.75195 2.6523-0.75195 0.98438-2.0713 0.98438-0.77929 0-1.3672-0.29394-0.58106-0.29395-0.9502-0.84082v3.835h-0.82031v-10.24h0.69043l0.10254 1.1484q0.36914-0.61523 0.95019-0.9502 0.58789-0.33496 1.3809-0.33496 1.333 0 2.085 1.0664 0.75195 1.0596 0.75195 2.8301v0.14356zm-0.82031-0.14356q0-1.4082-0.56054-2.2969-0.56055-0.88867-1.6406-0.88867-0.82715 0-1.3467 0.39648-0.51269 0.38965-0.77246 1.0186v3.5547q0.28027 0.6084 0.80664 0.95703 0.5332 0.34863 1.3262 0.34863 1.0732 0 1.627-0.80664 0.56054-0.80664 0.56054-2.1396v-0.14356z"/>
  <path id="path3565" d="m384.67 23.115-0.6084-0.04102q-0.77246 0-1.2715 0.4375-0.49219 0.43066-0.70411 1.1895v5.1064h-0.82031v-7.3965h0.71778l0.10253 1.2305v0.08203q0.32129-0.68359 0.86133-1.0664t1.2852-0.38281q0.15723 0 0.30078 0.02734 0.15039 0.02051 0.24609 0.04785l-0.10937 0.76562z"/>
  <path id="path3567" d="m385.42 26q0-1.6338 0.89551-2.6797 0.8955-1.0459 2.3721-1.0459 1.4834 0 2.3789 1.0459 0.89551 1.0459 0.89551 2.6797v0.22559q0 1.6406-0.89551 2.6865-0.88867 1.0391-2.3652 1.0391-1.4902 0-2.3857-1.0391-0.89551-1.0459-0.89551-2.6865v-0.22559zm0.82031 0.22559q0 1.2852 0.64941 2.1602 0.64942 0.875 1.8115 0.875 1.1416 0 1.791-0.875 0.65625-0.875 0.65625-2.1602v-0.22559q0-1.2646-0.65625-2.1465-0.65625-0.88184-1.8047-0.88184t-1.7979 0.88184q-0.65 0.881-0.65 2.146v0.22559z"/>
  <path id="path3569" d="m394.64 22.411v8.0049q0 1.1416-0.54687 1.7568-0.54688 0.62207-1.5176 0.62207-0.20508 0-0.38281-0.03418-0.18457-0.03418-0.38282-0.0957l0.0889-0.69043q0.10938 0.03418 0.30078 0.06836 0.19141 0.03418 0.33496 0.03418 0.6084 0 0.9502-0.42383 0.3418-0.41699 0.3418-1.2373v-8.0049h0.81347zm-0.041-2.1465h-0.81348v-1.1211h0.81348v1.1211z"/>
  <path id="path3571" d="m399.76 29.951q-1.3877 0-2.3106-1.0254-0.91601-1.0254-0.91601-2.5977v-0.37598q0-1.5859 0.90918-2.6318 0.91601-1.0459 2.2148-1.0459 1.3604 0 2.1396 0.86133 0.7793 0.86133 0.7793 2.2969v0.69727h-5.2227v0.19824q0 1.251 0.66308 2.0918 0.66309 0.84082 1.7432 0.84082 0.76562 0 1.3057-0.21191 0.54004-0.21191 0.92285-0.6084l0.34864 0.56055q-0.41699 0.4375-1.0596 0.69726-0.63575 0.25293-1.5176 0.25293zm-0.10254-6.9795q-0.90918 0-1.5244 0.69726-0.61524 0.69043-0.71778 1.7363l0.0137 0.03418h4.334v-0.20508q0-0.96387-0.56738-1.6133-0.56739-0.64941-1.5381-0.64941z"/>
  <path id="path3573" d="m406.94 29.261q0.81348 0 1.4356-0.46484 0.62207-0.46484 0.62207-1.292h0.72461l0.0137 0.04102q0.0342 1.0254-0.82031 1.7158-0.8545 0.69043-1.9756 0.69043-1.5107 0-2.3379-1.0322-0.82031-1.0391-0.82031-2.666v-0.28711q0-1.6133 0.82714-2.6523 0.82715-1.0391 2.3242-1.0391 1.2168 0 2.0234 0.71777 0.81348 0.71777 0.78613 1.8867l-0.0137 0.04102h-0.73144q0-0.88867-0.60157-1.415-0.59472-0.5332-1.4629-0.5332-1.1894 0-1.7637 0.85449-0.56738 0.84766-0.56738 2.1396v0.28711q0 1.3125 0.56738 2.1602 0.56738 0.84766 1.7705 0.84766z"/>
  <path id="path3575" d="m412.73 20.518v1.8936h1.627v0.66992h-1.627v4.8193q0 0.72461 0.25976 1.0322 0.26661 0.30078 0.70411 0.30078 0.19824 0 0.38281-0.01367 0.1914-0.02051 0.4375-0.06152l0.12304 0.6084q-0.20507 0.08887-0.49902 0.13672-0.29394 0.04785-0.58789 0.04785-0.7793 0-1.2168-0.49219-0.43066-0.49219-0.43066-1.5586v-4.8193h-1.2783v-0.66992h1.2783v-1.8936h0.82715z"/>
  <path id="path3577" d="m420.53 27.928q0-0.51953-0.43067-0.90918-0.42383-0.38965-1.5381-0.63574-1.3262-0.28711-1.9619-0.75879-0.6289-0.47168-0.6289-1.333 0-0.84766 0.71093-1.4287 0.71778-0.58789 1.8936-0.58789 1.251 0 1.9824 0.62207 0.73145 0.61524 0.69727 1.5449l-0.0137 0.04102h-0.75878q0-0.6084-0.51954-1.0596-0.51269-0.45117-1.3877-0.45117-0.89551 0-1.3467 0.38965-0.44434 0.38281-0.44434 0.90234 0 0.5127 0.38282 0.84766 0.38964 0.33496 1.5449 0.58789 1.3193 0.29394 1.9756 0.80664 0.65625 0.50586 0.65625 1.3809 0 0.92285-0.75195 1.4971-0.74512 0.56738-1.9756 0.56738-1.3467 0-2.1191-0.64258-0.76562-0.64258-0.72461-1.5312l0.0137-0.04102h0.75195q0.0478 0.7998 0.64941 1.1621 0.6084 0.3623 1.4287 0.3623 0.88868 0 1.4014-0.38965 0.5127-0.38965 0.5127-0.94336z"/>
  <path id="path3579" d="m424.23 29.808h-0.93653v-1.1211h0.93653v1.1211z"/>
  <path id="path3581" d="m7.8545 45.697 0.013672 0.04102q-0.12988 1.4971-1.0664 2.3584-0.93652 0.85449-2.5088 0.85449-1.6611 0-2.6797-1.1963-1.0186-1.2031-1.0186-3.1104v-1.6201q0-1.9004 1.0186-3.1035 1.0186-1.21 2.6797-1.21 1.5859 0 2.5156 0.84082 0.92969 0.84082 1.0596 2.3652l-0.013672 0.04102h-0.76562q-0.1641-1.236-0.8545-1.893-0.68359-0.65625-1.9414-0.65625-1.3057 0-2.0986 1.0117-0.78613 1.0117-0.78613 2.5908v1.6338q0 1.5996 0.78613 2.6113 0.79297 1.0049 2.0986 1.0049 1.2578 0 1.9482-0.64258 0.69043-0.64258 0.84766-1.9209h0.76562z"/>
  <path id="path3583" d="m14.588 47.598q-0.35547 0.64941-0.95703 1.0049-0.60156 0.34863-1.4219 0.34863-1.1689 0-1.832-0.79297-0.66309-0.79297-0.66309-2.4609v-4.2861h0.82031v4.2998q0 1.3535 0.45801 1.9414 0.46484 0.58789 1.3125 0.58789 0.92969 0 1.4834-0.41699t0.77246-1.1484v-5.2637h0.82031v7.3965h-0.72461l-0.06836-1.21z"/>
  <path id="path3585" d="m21.964 46.928q0-0.51953-0.43066-0.90918-0.42383-0.38965-1.5381-0.63574-1.3262-0.28711-1.9619-0.75879-0.62891-0.47168-0.62891-1.333 0-0.84766 0.71094-1.4287 0.71777-0.58789 1.8936-0.58789 1.251 0 1.9824 0.62207 0.73144 0.61524 0.69727 1.5449l-0.01367 0.04102h-0.75879q0-0.6084-0.51953-1.0596-0.5127-0.45117-1.3877-0.45117-0.89551 0-1.3467 0.38965-0.44434 0.38281-0.44434 0.90234 0 0.5127 0.38281 0.84766 0.38965 0.33496 1.5449 0.58789 1.3193 0.29394 1.9756 0.80664 0.65625 0.50586 0.65625 1.3809 0 0.92285-0.75195 1.4971-0.74512 0.56738-1.9756 0.56738-1.3467 0-2.1191-0.64258-0.76562-0.64258-0.72461-1.5312l0.01367-0.04102h0.75195q0.04785 0.7998 0.64941 1.1621 0.6084 0.3623 1.4287 0.3623 0.88867 0 1.4014-0.38965 0.5127-0.38965 0.5127-0.94336z"/>
  <path id="path3587" d="m25.956 39.518v1.8936h1.627v0.66992h-1.627v4.8193q0 0.72461 0.25976 1.0322 0.2666 0.30078 0.7041 0.30078 0.19824 0 0.38281-0.01367 0.19141-0.02051 0.4375-0.06152l0.12305 0.6084q-0.20508 0.08887-0.49902 0.13672-0.29395 0.04785-0.58789 0.04785-0.7793 0-1.2168-0.49219-0.43066-0.49219-0.43066-1.5586v-4.8193h-1.2783v-0.66992h1.2783v-1.8936h0.82715z"/>
  <path id="path3589" d="m28.725 45q0-1.6338 0.89551-2.6797t2.3721-1.0459q1.4834 0 2.3789 1.0459 0.895 1.046 0.895 2.68v0.22559q0 1.6406-0.89551 2.6865-0.88867 1.0391-2.3652 1.0391-1.4902 0-2.3857-1.0391-0.89551-1.0459-0.89551-2.6865v-0.22559zm0.82031 0.22559q0 1.2852 0.64941 2.1602t1.8115 0.875q1.1416 0 1.791-0.875 0.65625-0.875 0.65625-2.1602v-0.22559q0-1.2646-0.65625-2.1465-0.65625-0.88184-1.8047-0.88184t-1.7979 0.88184q-0.649 0.881-0.649 2.146v0.22559z"/>
  <path id="path3591" d="m37.666 41.411 0.0752 1.2236q0.35547-0.64941 0.94336-1.0049 0.59473-0.35547 1.415-0.35547 0.84766 0 1.415 0.41016 0.57422 0.41016 0.82031 1.251 0.33496-0.7793 0.9502-1.2168 0.62207-0.44434 1.5107-0.44434 1.1826 0 1.8252 0.78613 0.64258 0.78613 0.64258 2.4336v4.3135h-0.82031v-4.3271q0-1.3672-0.48535-1.9277-0.47852-0.56738-1.3398-0.56738-0.9502 0-1.4697 0.59473-0.51953 0.59473-0.64258 1.5244 0 0.04785 0 0.13672 0.0068 0.08887 0.0068 0.12988v4.4365h-0.82715v-4.3271q0-1.3398-0.49219-1.9141-0.48535-0.58105-1.3398-0.58105-0.86816 0-1.3809 0.44434-0.50586 0.4375-0.71094 1.1826v5.1953h-0.82715v-7.3965h0.73145z"/>
  <path id="path3593" d="m52.165 48.951q-1.3877 0-2.3105-1.0254-0.91602-1.0254-0.91602-2.5977v-0.37598q0-1.5859 0.90918-2.6318 0.91602-1.0459 2.2148-1.0459 1.3604 0 2.1396 0.86133 0.7793 0.86133 0.7793 2.2969v0.69727h-5.2227v0.19824q0 1.251 0.66309 2.0918 0.66309 0.84082 1.7432 0.84082 0.76562 0 1.3057-0.21191 0.54004-0.21191 0.92285-0.6084l0.34863 0.56055q-0.41699 0.4375-1.0596 0.69726-0.63574 0.25293-1.5176 0.25293zm-0.103-6.979q-0.90918 0-1.5244 0.69726-0.61523 0.69043-0.71777 1.7363l0.01367 0.03418h4.334v-0.20508q0-0.96387-0.56738-1.6133-0.568-0.65-1.539-0.65z"/>
  <path id="path3595" d="m60.013 42.115-0.6084-0.04102q-0.77246 0-1.2715 0.4375-0.49219 0.43066-0.7041 1.1895v5.1064h-0.82031v-7.3965h0.71777l0.10254 1.2305v0.08203q0.32129-0.68359 0.86133-1.0664t1.2852-0.38281q0.15723 0 0.30078 0.02734 0.15039 0.02051 0.24609 0.04785l-0.10938 0.76562z"/>
  <path id="path3597" d="m65.796 46.928q0-0.51953-0.43066-0.90918-0.42383-0.38965-1.5381-0.63574-1.3262-0.28711-1.9619-0.75879-0.62891-0.47168-0.62891-1.333 0-0.84766 0.71094-1.4287 0.71777-0.58789 1.8936-0.58789 1.251 0 1.9824 0.62207 0.73144 0.61524 0.69727 1.5449l-0.01367 0.04102h-0.75879q0-0.6084-0.51953-1.0596-0.5127-0.45117-1.3877-0.45117-0.89551 0-1.3467 0.38965-0.44434 0.38281-0.44434 0.90234 0 0.5127 0.38281 0.84766 0.38965 0.33496 1.5449 0.58789 1.3193 0.29394 1.9756 0.80664 0.65625 0.50586 0.65625 1.3809 0 0.92285-0.75195 1.4971-0.74512 0.56738-1.9756 0.56738-1.3467 0-2.1191-0.64258-0.76562-0.64258-0.72461-1.5312l0.01367-0.04102h0.75195q0.04785 0.7998 0.64941 1.1621 0.6084 0.3623 1.4287 0.3623 0.88867 0 1.4014-0.38965 0.5127-0.38965 0.5127-0.94336z"/>
  <path id="path3599" d="m74.662 48.261q0.81348 0 1.4355-0.46484 0.62207-0.46484 0.62207-1.292h0.72461l0.01367 0.04102q0.03418 1.0254-0.82031 1.7158-0.85449 0.69043-1.9756 0.69043-1.5107 0-2.3379-1.0322-0.82031-1.0391-0.82031-2.666v-0.28711q0-1.6133 0.82715-2.6523 0.82715-1.0391 2.3242-1.0391 1.2168 0 2.0234 0.71777 0.81348 0.71777 0.78613 1.8867l-0.01367 0.04102h-0.73144q0-0.88867-0.60156-1.415-0.59473-0.5332-1.4629-0.5332-1.1895 0-1.7637 0.85449-0.56738 0.84766-0.56738 2.1396v0.28711q0 1.3125 0.56738 2.1602 0.56738 0.84766 1.7705 0.84766z"/>
  <path id="path3601" d="m78.709 45q0-1.6338 0.89551-2.6797t2.3721-1.0459q1.4834 0 2.3789 1.0459 0.895 1.046 0.895 2.68v0.22559q0 1.6406-0.89551 2.6865-0.88867 1.0391-2.3652 1.0391-1.4902 0-2.3857-1.0391-0.89551-1.0459-0.89551-2.6865v-0.22559zm0.82031 0.22559q0 1.2852 0.64941 2.1602t1.8115 0.875q1.1416 0 1.791-0.875 0.65625-0.875 0.65625-2.1602l0.001-0.226q0-1.2646-0.65625-2.1465-0.65625-0.88184-1.8047-0.88184t-1.7979 0.88184q-0.65 0.881-0.65 2.146v0.22559z"/>
  <path id="path3603" d="m87.65 41.411 0.0752 1.2236q0.35547-0.64941 0.94336-1.0049 0.59473-0.35547 1.415-0.35547 0.84766 0 1.415 0.41016 0.57422 0.41016 0.82031 1.251 0.33496-0.7793 0.9502-1.2168 0.62207-0.44434 1.5107-0.44434 1.1826 0 1.8252 0.78613 0.64258 0.78613 0.64258 2.4336v4.3135h-0.82031v-4.3271q0-1.3672-0.48535-1.9277-0.47852-0.56738-1.3398-0.56738-0.9502 0-1.4697 0.59473-0.51953 0.59473-0.64258 1.5244 0 0.04785 0 0.13672 0.0068 0.08887 0.0068 0.12988v4.4365h-0.82715v-4.3271q0-1.3398-0.49219-1.9141-0.48535-0.58105-1.3398-0.58105-0.86816 0-1.3809 0.44434-0.50586 0.4375-0.71094 1.1826v5.1953h-0.82715v-7.3965h0.73145z"/>
  <path id="path3605" d="m102.15 48.951q-1.3877 0-2.3105-1.0254-0.91602-1.0254-0.91602-2.5977v-0.37598q0-1.5859 0.90918-2.6318 0.91602-1.0459 2.2148-1.0459 1.3604 0 2.1396 0.86133 0.7793 0.86133 0.7793 2.2969v0.69727h-5.2227v0.19824q0 1.251 0.66309 2.0918 0.66309 0.84082 1.7432 0.84082 0.76563 0 1.3057-0.21191 0.54004-0.21191 0.92285-0.6084l0.34863 0.56055q-0.41699 0.4375-1.0596 0.69726-0.63574 0.25293-1.5176 0.25293zm-0.10253-6.9795q-0.90918 0-1.5244 0.69726-0.61523 0.69043-0.71777 1.7363l0.01367 0.03418h4.334v-0.20508q0-0.96387-0.56738-1.6133-0.56738-0.64941-1.5381-0.64941z"/>
  <path id="path3607" d="m115.97 45.314q0 1.6611-0.75195 2.6523-0.75196 0.98438-2.0713 0.98438-0.81348 0-1.4014-0.32129-0.58789-0.32812-0.95019-0.93652l-0.0889 1.1143h-0.7041v-10.664h0.82031v4.4297q0.36914-0.62207 0.94336-0.95703 0.57422-0.3418 1.3672-0.3418 1.333 0 2.085 1.0664 0.75195 1.0596 0.75195 2.8301v0.14356zm-0.82715-0.14356q0-1.415-0.54687-2.2969-0.54688-0.88867-1.6201-0.88867-0.85449 0-1.3809 0.42383-0.51953 0.42383-0.77246 1.0869v3.3428q0.27344 0.64258 0.81348 1.0254 0.54687 0.37598 1.3535 0.37598 1.0732 0 1.6133-0.79297 0.54004-0.79297 0.54004-2.1328v-0.14356z"/>
  <path id="path3609" d="m122.49 48.808q-0.082-0.37598-0.11621-0.64941-0.0342-0.27344-0.0342-0.55371-0.41016 0.58106-1.0938 0.96387-0.6836 0.38281-1.5381 0.38281-1.0801 0-1.6816-0.57422-0.59473-0.57422-0.59473-1.5381 0-1.0254 0.88184-1.6406 0.88867-0.61523 2.3926-0.61523h1.6338v-0.91602q0-0.79297-0.5127-1.2441-0.50586-0.45117-1.4219-0.45117-0.85449 0-1.4219 0.43066-0.56054 0.43066-0.56054 1.0527l-0.75196-0.0068-0.0137-0.04102q-0.041-0.82715 0.75195-1.4766 0.79981-0.65625 2.0303-0.65625 1.2236 0 1.9688 0.62207 0.74511 0.62207 0.74511 1.7842v3.6367q0 0.38965 0.041 0.75879 0.0478 0.36914 0.15039 0.73144h-0.85449zm-2.6865-0.58106q0.88184 0 1.5586-0.41016 0.67676-0.41699 0.97754-1.0596v-1.5449h-1.6475q-1.1143 0-1.7842 0.47852-0.66309 0.47168-0.66309 1.1758 0 0.60156 0.41016 0.98438 0.41699 0.37598 1.1484 0.37598z"/>
  <path id="path3611" d="m128.06 48.261q0.81348 0 1.4356-0.46484 0.62207-0.46484 0.62207-1.292h0.72461l0.0137 0.04102q0.0342 1.0254-0.82031 1.7158-0.85449 0.69043-1.9756 0.69043-1.5107 0-2.3379-1.0322-0.82031-1.0391-0.82031-2.666v-0.28711q0-1.6133 0.82715-2.6523 0.82715-1.0391 2.3242-1.0391 1.2168 0 2.0234 0.71777 0.81348 0.71777 0.78614 1.8867l-0.0137 0.04102h-0.73145q0-0.88867-0.60156-1.415-0.59473-0.5332-1.4629-0.5332-1.1895 0-1.7637 0.85449-0.56739 0.84766-0.56739 2.1396v0.28711q0 1.3125 0.56739 2.1602 0.56738 0.84766 1.7705 0.84766z"/>
  <path id="path3613" d="m134.34 45.205h-0.94336v3.6025h-0.82031v-10.664h0.82031v6.3574h0.86133l2.748-3.0898h0.95703l0.0137 0.03418-2.96 3.3359 3.2676 3.9922-0.0205 0.03418h-0.93652l-2.9873-3.6025z"/>
  <path id="path3615" d="m144.16 39.518v1.8936h1.627v0.66992h-1.627v4.8193q0 0.72461 0.25976 1.0322 0.2666 0.30078 0.7041 0.30078 0.19825 0 0.38282-0.01367 0.1914-0.02051 0.4375-0.06152l0.12304 0.6084q-0.20508 0.08887-0.49902 0.13672-0.29395 0.04785-0.58789 0.04785-0.7793 0-1.2168-0.49219-0.43066-0.49219-0.43066-1.5586v-4.8193h-1.2783v-0.66992h1.2783v-1.8936h0.82715z"/>
  <path id="path3617" d="m146.93 45q0-1.6338 0.89551-2.6797t2.3721-1.0459q1.4834 0 2.3789 1.0459 0.89551 1.0459 0.89551 2.6797v0.22559q0 1.6406-0.89551 2.6865-0.88867 1.0391-2.3652 1.0391-1.4902 0-2.3857-1.0391-0.89551-1.0459-0.89551-2.6865v-0.22559zm0.82031 0.22559q0 1.2852 0.64942 2.1602 0.64941 0.875 1.8115 0.875 1.1416 0 1.791-0.875 0.65625-0.875 0.65625-2.1602v-0.22559q0-1.2646-0.65625-2.1465-0.65625-0.88184-1.8047-0.88184t-1.7978 0.88184q-0.65 0.881-0.65 2.146v0.22559z"/>
  <path id="path3619" d="m159.42 42.676q0.36914-0.66309 0.98437-1.0322 0.61524-0.36914 1.4356-0.36914 1.169 0 1.791 0.72461 0.6289 0.72461 0.6289 2.249v4.5596h-0.82031v-4.5732q0-1.2031-0.47852-1.7227-0.47168-0.52637-1.3057-0.52637-0.84082 0-1.4082 0.44434-0.56055 0.4375-0.82715 1.1689v5.209h-0.82031v-10.664h0.82031v4.5322z"/>
  <path id="path3621" d="m167.31 48.808h-0.81348v-7.3965h0.81348v7.3965zm0-9.5156h-0.81348v-1.1484h0.81348v1.1484z"/>
  <path id="path3623" d="m170.26 41.411 0.0752 1.2236q0.35547-0.64941 0.94336-1.0049 0.59473-0.35547 1.415-0.35547 0.84766 0 1.415 0.41016 0.57422 0.41016 0.82031 1.251 0.33497-0.7793 0.9502-1.2168 0.62207-0.44434 1.5107-0.44434 1.1826 0 1.8252 0.78613 0.64258 0.78613 0.64258 2.4336v4.3135h-0.82032v-4.3271q0-1.3672-0.48535-1.9277-0.47851-0.56738-1.3398-0.56738-0.9502 0-1.4697 0.59473-0.51953 0.59473-0.64258 1.5244 0 0.04785 0 0.13672 0.007 0.08887 0.007 0.12988v4.4365h-0.82715v-4.3271q0-1.3398-0.49219-1.9141-0.48535-0.58105-1.3398-0.58105-0.86816 0-1.3809 0.44434-0.50586 0.4375-0.71094 1.1826v5.1953h-0.82715v-7.3965h0.73145z"/>
  <path id="path3625" d="m185.99 48.808v-6.7266h-1.2236v-0.66992h1.2236v-1.0801q0-1.1143 0.55371-1.7227 0.57-0.608 1.57-0.608 0.22558 0 0.45801 0.03418 0.23242 0.03418 0.47168 0.0957l-0.10254 0.67676q-0.16407-0.04102-0.3418-0.06152-0.1709-0.02734-0.40332-0.02734-0.66992 0-1.0254 0.42383-0.35547 0.42383-0.35547 1.1895v1.0801h1.7637v0.66992h-1.7637v6.7266h-0.82031z"/>
  <path id="path3627" d="m189.53 45q0-1.6338 0.89551-2.6797t2.3721-1.0459q1.4834 0 2.3789 1.0459 0.9 1.046 0.9 2.68v0.22559q0 1.6406-0.89551 2.6865-0.88867 1.0391-2.3652 1.0391-1.4902 0-2.3857-1.0391-0.89551-1.0459-0.89551-2.6865v-0.22559zm0.82032 0.22559q0 1.2852 0.64941 2.1602t1.8115 0.875q1.1416 0 1.791-0.875 0.65625-0.875 0.65625-2.1602v-0.22559q0-1.2646-0.65625-2.1465-0.65625-0.88184-1.8047-0.88184t-1.7978 0.88184q-0.65 0.881-0.65 2.146v0.22559z"/>
  <path id="path3629" d="m201.19 42.115-0.6084-0.04102q-0.77246 0-1.2715 0.4375-0.49218 0.43066-0.7041 1.1895v5.1064h-0.82031v-7.3965h0.71777l0.10254 1.2305v0.08203q0.32129-0.68359 0.86133-1.0664t1.2852-0.38281q0.15722 0 0.30078 0.02734 0.15039 0.02051 0.24609 0.04785l-0.10937 0.76562z"/>
  <path id="path3631" d="m206.65 41.411 0.0752 1.2236q0.35546-0.64941 0.94336-1.0049 0.59472-0.35547 1.415-0.35547 0.84766 0 1.415 0.41016 0.57422 0.41016 0.82032 1.251 0.33496-0.7793 0.95019-1.2168 0.62207-0.44434 1.5107-0.44434 1.1826 0 1.8252 0.78613 0.64258 0.78613 0.64258 2.4336v4.3135h-0.82032v-4.3271q0-1.3672-0.48535-1.9277-0.47851-0.56738-1.3398-0.56738-0.9502 0-1.4697 0.59473-0.51953 0.59473-0.64258 1.5244 0 0.04785 0 0.13672 0.007 0.08887 0.007 0.12988v4.4365h-0.82715v-4.3271q0-1.3398-0.49219-1.9141-0.48535-0.58105-1.3398-0.58105-0.86816 0-1.3809 0.44434-0.50586 0.4375-0.71094 1.1826v5.1953h-0.82714v-7.3965h0.73144z"/>
  <path id="path3633" d="m217.92 45q0-1.6338 0.8955-2.6797 0.89551-1.0459 2.3721-1.0459 1.4834 0 2.3789 1.0459 0.89551 1.0459 0.89551 2.6797v0.22559q0 1.6406-0.89551 2.6865-0.88867 1.0391-2.3652 1.0391-1.4902 0-2.3858-1.0391-0.8955-1.0459-0.8955-2.6865v-0.22559zm0.82031 0.22559q0 1.2852 0.64941 2.1602 0.64942 0.875 1.8115 0.875 1.1416 0 1.791-0.875 0.65625-0.875 0.65625-2.1602v-0.22559q0-1.2646-0.65625-2.1465-0.65625-0.88184-1.8047-0.88184t-1.7978 0.88184q-0.65 0.881-0.65 2.146v0.22559z"/>
  <path id="path3635" d="m229.57 42.115-0.6084-0.04102q-0.77246 0-1.2715 0.4375-0.49219 0.43066-0.70411 1.1895v5.1064h-0.82031v-7.3965h0.71778l0.10253 1.2305v0.08203q0.32129-0.68359 0.86133-1.0664t1.2852-0.38281q0.15723 0 0.30078 0.02734 0.15039 0.02051 0.24609 0.04785l-0.10937 0.76562z"/>
  <path id="path3637" d="m233.56 48.951q-1.3877 0-2.3106-1.0254-0.91602-1.0254-0.91602-2.5977v-0.37598q0-1.5859 0.90918-2.6318 0.91602-1.0459 2.2148-1.0459 1.3604 0 2.1396 0.86133 0.77929 0.86133 0.77929 2.2969v0.69727h-5.2226v0.19824q0 1.251 0.66308 2.0918 0.66309 0.84082 1.7432 0.84082 0.76562 0 1.3057-0.21191 0.54004-0.21191 0.92285-0.6084l0.34863 0.56055q-0.41699 0.4375-1.0596 0.69726-0.63574 0.25293-1.5176 0.25293zm-0.10254-6.9795q-0.90918 0-1.5244 0.69726-0.61523 0.69043-0.71777 1.7363l0.0137 0.03418h4.334v-0.20508q0-0.96387-0.56739-1.6133-0.56738-0.64941-1.5381-0.64941z"/>
  <path id="path3639" d="m247.38 45.314q0 1.6611-0.75196 2.6523-0.75195 0.98438-2.0713 0.98438-0.77929 0-1.3672-0.29394-0.58106-0.29395-0.9502-0.84082v3.835h-0.82031v-10.24h0.69043l0.10254 1.1484q0.36914-0.61523 0.95019-0.9502 0.58789-0.33496 1.3809-0.33496 1.333 0 2.085 1.0664 0.75196 1.0596 0.75196 2.8301v0.14356zm-0.82032-0.14356q0-1.4082-0.56054-2.2969-0.56055-0.88867-1.6406-0.88867-0.82715 0-1.3467 0.39648-0.51269 0.38965-0.77246 1.0186v3.5547q0.28027 0.6084 0.80664 0.95703 0.5332 0.34863 1.3262 0.34863 1.0732 0 1.627-0.80664 0.56054-0.80664 0.56054-2.1396v-0.14356z"/>
  <path id="path3641" d="m253.9 48.808q-0.082-0.37598-0.11621-0.64941-0.0342-0.27344-0.0342-0.55371-0.41016 0.58106-1.0938 0.96387-0.68359 0.38281-1.5381 0.38281-1.0801 0-1.6816-0.57422-0.59472-0.57422-0.59472-1.5381 0-1.0254 0.88183-1.6406 0.88867-0.61523 2.3926-0.61523h1.6338v-0.91602q0-0.79297-0.5127-1.2441-0.50585-0.45117-1.4219-0.45117-0.85449 0-1.4219 0.43066-0.56054 0.43066-0.56054 1.0527l-0.75196-0.0068-0.0137-0.04102q-0.041-0.82715 0.75196-1.4766 0.7998-0.65625 2.0303-0.65625 1.2236 0 1.9688 0.62207 0.74512 0.62207 0.74512 1.7842v3.6367q0 0.38965 0.041 0.75879 0.0479 0.36914 0.15039 0.73144h-0.85449zm-2.6865-0.58106q0.88183 0 1.5586-0.41016 0.67676-0.41699 0.97754-1.0596v-1.5449h-1.6475q-1.1143 0-1.7842 0.47852-0.66309 0.47168-0.66309 1.1758 0 0.60156 0.41016 0.98438 0.41699 0.37598 1.1484 0.37598z"/>
  <path id="path3643" d="m262.69 45.314q0 1.6611-0.75196 2.6523-0.75195 0.98438-2.0713 0.98438-0.77929 0-1.3672-0.29394-0.58106-0.29395-0.9502-0.84082v3.835h-0.82031v-10.24h0.69043l0.10254 1.1484q0.36914-0.61523 0.95019-0.9502 0.58789-0.33496 1.3809-0.33496 1.333 0 2.085 1.0664 0.75196 1.0596 0.75196 2.8301v0.14356zm-0.82032-0.14356q0-1.4082-0.56054-2.2969-0.56055-0.88867-1.6406-0.88867-0.82715 0-1.3467 0.39648-0.51269 0.38965-0.77246 1.0186v3.5547q0.28027 0.6084 0.80664 0.95703 0.5332 0.34863 1.3262 0.34863 1.0732 0 1.627-0.80664 0.56054-0.80664 0.56054-2.1396v-0.14356z"/>
  <path id="path3645" d="m267.31 48.951q-1.3877 0-2.3105-1.0254-0.91602-1.0254-0.91602-2.5977v-0.37598q0-1.5859 0.90918-2.6318 0.91602-1.0459 2.2148-1.0459 1.3604 0 2.1396 0.86133 0.7793 0.86133 0.7793 2.2969v0.69727h-5.2227v0.19824q0 1.251 0.66309 2.0918 0.66309 0.84082 1.7432 0.84082 0.76563 0 1.3057-0.21191 0.54004-0.21191 0.92285-0.6084l0.34863 0.56055q-0.41699 0.4375-1.0596 0.69726-0.63574 0.25293-1.5176 0.25293zm-0.10254-6.9795q-0.90917 0-1.5244 0.69726-0.61523 0.69043-0.71777 1.7363l0.0137 0.03418h4.334v-0.20508q0-0.96387-0.56738-1.6133-0.56738-0.64941-1.5381-0.64941z"/>
  <path id="path3647" d="m275.15 42.115-0.6084-0.04102q-0.77246 0-1.2715 0.4375-0.49219 0.43066-0.7041 1.1895v5.1064h-0.82032v-7.3965h0.71778l0.10254 1.2305v0.08203q0.32128-0.68359 0.86132-1.0664t1.2852-0.38281q0.15723 0 0.30078 0.02734 0.15039 0.02051 0.2461 0.04785l-0.10938 0.76562z"/>
  <path id="path3649" d="m280.94 46.928q0-0.51953-0.43066-0.90918-0.42383-0.38965-1.5381-0.63574-1.3262-0.28711-1.9619-0.75879-0.62891-0.47168-0.62891-1.333 0-0.84766 0.71094-1.4287 0.71777-0.58789 1.8936-0.58789 1.251 0 1.9824 0.62207 0.73144 0.61524 0.69726 1.5449l-0.0137 0.04102h-0.75879q0-0.6084-0.51953-1.0596-0.51269-0.45117-1.3877-0.45117-0.89551 0-1.3467 0.38965-0.44434 0.38281-0.44434 0.90234 0 0.5127 0.38281 0.84766 0.38965 0.33496 1.5449 0.58789 1.3193 0.29394 1.9756 0.80664 0.65625 0.50586 0.65625 1.3809 0 0.92285-0.75195 1.4971-0.74512 0.56738-1.9756 0.56738-1.3467 0-2.1191-0.64258-0.76562-0.64258-0.72461-1.5312l0.0137-0.04102h0.75196q0.0478 0.7998 0.64941 1.1621 0.6084 0.3623 1.4287 0.3623 0.88867 0 1.4014-0.38965 0.51269-0.38965 0.51269-0.94336z"/>
  <path id="path3651" d="m291.74 48.808q-0.082-0.37598-0.11621-0.64941-0.0342-0.27344-0.0342-0.55371-0.41016 0.58106-1.0938 0.96387-0.68359 0.38281-1.5381 0.38281-1.0801 0-1.6816-0.57422-0.59472-0.57422-0.59472-1.5381 0-1.0254 0.88183-1.6406 0.88867-0.61523 2.3926-0.61523h1.6338v-0.91602q0-0.79297-0.5127-1.2441-0.50585-0.45117-1.4219-0.45117-0.85449 0-1.4219 0.43066-0.56054 0.43066-0.56054 1.0527l-0.75196-0.0068-0.0137-0.04102q-0.041-0.82715 0.75196-1.4766 0.7998-0.65625 2.0303-0.65625 1.2236 0 1.9688 0.62207 0.74512 0.62207 0.74512 1.7842v3.6367q0 0.38965 0.041 0.75879 0.0478 0.36914 0.15039 0.73144h-0.85449zm-2.6865-0.58106q0.88183 0 1.5586-0.41016 0.67676-0.41699 0.97754-1.0596v-1.5449h-1.6475q-1.1143 0-1.7842 0.47852-0.66309 0.47168-0.66309 1.1758 0 0.60156 0.41016 0.98438 0.41699 0.37598 1.1484 0.37598z"/>
  <path id="path3653" d="m299.01 46.928q0-0.51953-0.43066-0.90918-0.42383-0.38965-1.5381-0.63574-1.3262-0.28711-1.9619-0.75879-0.62891-0.47168-0.62891-1.333 0-0.84766 0.71094-1.4287 0.71777-0.58789 1.8936-0.58789 1.251 0 1.9824 0.62207 0.73144 0.61524 0.69726 1.5449l-0.0137 0.04102h-0.75879q0-0.6084-0.51953-1.0596-0.5127-0.45117-1.3877-0.45117-0.8955 0-1.3467 0.38965-0.44433 0.38281-0.44433 0.90234 0 0.5127 0.38281 0.84766 0.38965 0.33496 1.5449 0.58789 1.3193 0.29394 1.9756 0.80664 0.65625 0.50586 0.65625 1.3809 0 0.92285-0.75195 1.4971-0.74512 0.56738-1.9756 0.56738-1.3467 0-2.1191-0.64258-0.76563-0.64258-0.72461-1.5312l0.0137-0.04102h0.75195q0.0479 0.7998 0.64942 1.1621 0.6084 0.3623 1.4287 0.3623 0.88867 0 1.4014-0.38965 0.51269-0.38965 0.51269-0.94336z"/>
  <path id="path3655" d="m306.42 39.518v1.8936h1.627v0.66992h-1.627v4.8193q0 0.72461 0.25976 1.0322 0.26661 0.30078 0.70411 0.30078 0.19824 0 0.38281-0.01367 0.1914-0.02051 0.4375-0.06152l0.12304 0.6084q-0.20507 0.08887-0.49902 0.13672-0.29394 0.04785-0.58789 0.04785-0.7793 0-1.2168-0.49219-0.43066-0.49219-0.43066-1.5586v-4.8193h-1.2783v-0.66992h1.2783v-1.8936h0.82715z"/>
  <path id="path3657" d="m310.6 42.676q0.36914-0.66309 0.98438-1.0322 0.61523-0.36914 1.4355-0.36914 1.169 0 1.791 0.72461 0.62891 0.72461 0.62891 2.249v4.5596h-0.82032v-4.5732q0-1.2031-0.47851-1.7227-0.47168-0.52637-1.3057-0.52637-0.84082 0-1.4082 0.44434-0.56055 0.4375-0.82715 1.1689v5.209h-0.82031v-10.664h0.82031v4.5322z"/>
  <path id="path3659" d="m320.35 48.951q-1.3877 0-2.3106-1.0254-0.91601-1.0254-0.91601-2.5977v-0.37598q0-1.5859 0.90918-2.6318 0.91601-1.0459 2.2148-1.0459 1.3604 0 2.1396 0.86133 0.7793 0.86133 0.7793 2.2969v0.69727h-5.2227v0.19824q0 1.251 0.66308 2.0918 0.66309 0.84082 1.7432 0.84082 0.76562 0 1.3057-0.21191 0.54004-0.21191 0.92285-0.6084l0.34864 0.56055q-0.41699 0.4375-1.0596 0.69726-0.63575 0.25293-1.5176 0.25293zm-0.1-6.979q-0.90918 0-1.5244 0.69726-0.61524 0.69043-0.71778 1.7363l0.0137 0.03418h4.334v-0.20508q0-0.96387-0.56738-1.6133-0.57-0.65-1.54-0.65z"/>
  <path id="path3661" d="m326.81 46.805 0.25977 0.88184h0.041l2.2354-6.2754h0.91602l-3.2129 8.5791q-0.28711 0.75195-0.74512 1.2783-0.45801 0.52637-1.3398 0.52637-0.14356 0-0.34864-0.03418-0.20507-0.02734-0.30078-0.06152l0.0957-0.68359q0.082 0.01367 0.25976 0.02734 0.18457 0.02051 0.2666 0.02051 0.53321 0 0.8545-0.38281 0.32128-0.37598 0.54687-0.9707l0.38965-0.99805-2.8574-7.3008h0.90918l2.0303 5.3936z"/>
  <path id="path3663" d="m335.82 42.676q0.36914-0.66309 0.98437-1.0322 0.61524-0.36914 1.4356-0.36914 1.169 0 1.791 0.72461 0.6289 0.72461 0.6289 2.249v4.5596h-0.82031v-4.5732q0-1.2031-0.47851-1.7227-0.47168-0.52637-1.3057-0.52637-0.84082 0-1.4082 0.44434-0.56055 0.4375-0.82715 1.1689v5.209h-0.82031v-10.664h0.82031v4.5322z"/>
  <path id="path3665" d="m347.47 48.808q-0.082-0.37598-0.11621-0.64941-0.0342-0.27344-0.0342-0.55371-0.41015 0.58106-1.0938 0.96387-0.68359 0.38281-1.5381 0.38281-1.0801 0-1.6816-0.57422-0.59473-0.57422-0.59473-1.5381 0-1.0254 0.88184-1.6406 0.88867-0.61523 2.3926-0.61523h1.6338v-0.91602q0-0.79297-0.51269-1.2441-0.50586-0.45117-1.4219-0.45117-0.85449 0-1.4219 0.43066-0.56055 0.43066-0.56055 1.0527l-0.75195-0.0068-0.0137-0.04102q-0.041-0.82715 0.75195-1.4766 0.7998-0.65625 2.0303-0.65625 1.2236 0 1.9688 0.62207 0.74512 0.62207 0.74512 1.7842v3.6367q0 0.38965 0.041 0.75879 0.0479 0.36914 0.1504 0.73144h-0.8545zm-2.6865-0.58106q0.88184 0 1.5586-0.41016 0.67676-0.41699 0.97754-1.0596v-1.5449h-1.6475q-1.1143 0-1.7842 0.47852-0.66308 0.47168-0.66308 1.1758 0 0.60156 0.41015 0.98438 0.41699 0.37598 1.1484 0.37598z"/>
  <path id="path3667" d="m352.3 46.955 0.23926 0.86816h0.041l0.25977-0.86816 2.0098-5.5439h0.84765l-2.8096 7.3965h-0.65625l-2.8164-7.3965h0.84765l2.0371 5.5439z"/>
  <path id="path3669" d="m359.75 48.951q-1.3877 0-2.3105-1.0254-0.91602-1.0254-0.91602-2.5977v-0.37598q0-1.5859 0.90918-2.6318 0.91602-1.0459 2.2148-1.0459 1.3604 0 2.1396 0.86133 0.7793 0.86133 0.7793 2.2969v0.69727h-5.2227v0.19824q0 1.251 0.66309 2.0918 0.66308 0.84082 1.7432 0.84082 0.76563 0 1.3057-0.21191 0.54004-0.21191 0.92285-0.6084l0.34863 0.56055q-0.41699 0.4375-1.0596 0.69726-0.63574 0.25293-1.5176 0.25293zm-0.10254-6.9795q-0.90918 0-1.5244 0.69726-0.61523 0.69043-0.71777 1.7363l0.0137 0.03418h4.334v-0.20508q0-0.96387-0.56738-1.6133-0.56738-0.64941-1.5381-0.64941z"/>
  <path id="path3671" d="m373.58 45.314q0 1.6611-0.75195 2.6523-0.75196 0.98438-2.0713 0.98438-0.81348 0-1.4014-0.32129-0.58789-0.32812-0.9502-0.93652l-0.0889 1.1143h-0.70411v-10.664h0.82032v4.4297q0.36914-0.62207 0.94336-0.95703 0.57422-0.3418 1.3672-0.3418 1.333 0 2.085 1.0664 0.75195 1.0596 0.75195 2.8301v0.14356zm-0.83-0.143q0-1.415-0.54688-2.2969-0.54687-0.88867-1.6201-0.88867-0.85449 0-1.3809 0.42383-0.51953 0.42383-0.77246 1.0869v3.3428q0.27343 0.64258 0.81347 1.0254 0.54688 0.37598 1.3535 0.37598 1.0732 0 1.6133-0.79297 0.54004-0.79297 0.54004-2.1328v-0.14356z"/>
  <path id="path3673" d="m378.18 48.951q-1.3877 0-2.3106-1.0254-0.91601-1.0254-0.91601-2.5977v-0.37598q0-1.5859 0.90918-2.6318 0.91601-1.0459 2.2148-1.0459 1.3604 0 2.1396 0.86133 0.7793 0.86133 0.7793 2.2969v0.69727h-5.2227v0.19824q0 1.251 0.66309 2.0918 0.66308 0.84082 1.7432 0.84082 0.76563 0 1.3057-0.21191 0.54004-0.21191 0.92286-0.6084l0.34863 0.56055q-0.41699 0.4375-1.0596 0.69726-0.63574 0.25293-1.5176 0.25293zm-0.10254-6.9795q-0.90918 0-1.5244 0.69726-0.61524 0.69043-0.71778 1.7363l0.0137 0.03418h4.334v-0.20508q0-0.96387-0.56738-1.6133-0.56739-0.64941-1.5381-0.64941z"/>
  <path id="path3675" d="m385.4 48.951q-1.3877 0-2.3106-1.0254-0.91601-1.0254-0.91601-2.5977v-0.37598q0-1.5859 0.90918-2.6318 0.91601-1.0459 2.2148-1.0459 1.3604 0 2.1396 0.86133 0.7793 0.86133 0.7793 2.2969v0.69727h-5.2227v0.19824q0 1.251 0.66309 2.0918 0.66308 0.84082 1.7432 0.84082 0.76563 0 1.3057-0.21191 0.54004-0.21191 0.92286-0.6084l0.34863 0.56055q-0.41699 0.4375-1.0596 0.69726-0.63574 0.25293-1.5176 0.25293zm-0.10254-6.9795q-0.90918 0-1.5244 0.69726-0.61524 0.69043-0.71778 1.7363l0.0137 0.03418h4.334v-0.20508q0-0.96387-0.56738-1.6133-0.56739-0.64941-1.5381-0.64941z"/>
  <path id="path3677" d="m390.57 41.411 0.0752 1.292q0.35547-0.68359 0.95704-1.0527 0.60839-0.37598 1.4355-0.37598 1.2031 0 1.832 0.73828 0.62891 0.73145 0.62891 2.29v4.5049h-0.82031v-4.498q0-1.2715-0.47852-1.7979-0.47168-0.52637-1.3467-0.52637-0.86133 0-1.4082 0.45801-0.54004 0.45117-0.7793 1.2031v5.1611h-0.82031v-7.3965h0.72461z"/>
  <path id="path3679" d="m401.97 48.808h-0.81347v-7.3965h0.81347v7.3965zm0-9.5156h-0.81347v-1.1484h0.81347v1.1484z"/>
  <path id="path3681" d="m404.92 41.411 0.0752 1.2236q0.35547-0.64941 0.94336-1.0049 0.59472-0.35547 1.415-0.35547 0.84765 0 1.415 0.41016 0.57422 0.41016 0.82032 1.251 0.33496-0.7793 0.95019-1.2168 0.62207-0.44434 1.5107-0.44434 1.1826 0 1.8252 0.78613 0.64258 0.78613 0.64258 2.4336v4.3135h-0.82031v-4.3271q0-1.3672-0.48536-1.9277-0.47851-0.56738-1.3398-0.56738-0.9502 0-1.4697 0.59473-0.51953 0.59473-0.64257 1.5244 0 0.04785 0 0.13672 0.007 0.08887 0.007 0.12988v4.4365h-0.82715v-4.3271q0-1.3398-0.49218-1.9141-0.48536-0.58105-1.3398-0.58105-0.86816 0-1.3809 0.44434-0.50586 0.4375-0.71094 1.1826v5.1953h-0.82714v-7.3965h0.73144z"/>
  <path id="path3683" d="m422.6 45.314q0 1.6611-0.75196 2.6523-0.75195 0.98438-2.0713 0.98438-0.77929 0-1.3672-0.29394-0.58106-0.29395-0.9502-0.84082v3.835h-0.82031v-10.24h0.69043l0.10254 1.1484q0.36914-0.61523 0.95019-0.9502 0.58789-0.33496 1.3809-0.33496 1.333 0 2.085 1.0664 0.75196 1.0596 0.75196 2.8301v0.14356zm-0.82032-0.14356q0-1.4082-0.56054-2.2969-0.56055-0.88867-1.6406-0.88867-0.82715 0-1.3467 0.39648-0.51269 0.38965-0.77246 1.0186v3.5547q0.28027 0.6084 0.80664 0.95703 0.5332 0.34863 1.3262 0.34863 1.0732 0 1.627-0.80664 0.56054-0.80664 0.56054-2.1396v-0.14356z"/>
  <path id="path3685" d="m427.84 42.115-0.6084-0.04102q-0.77246 0-1.2715 0.4375-0.49219 0.43066-0.7041 1.1895v5.1064h-0.82032v-7.3965h0.71778l0.10254 1.2305v0.08203q0.32128-0.68359 0.86132-1.0664t1.2852-0.38281q0.15723 0 0.30078 0.02734 0.15039 0.02051 0.2461 0.04785l-0.10938 0.76562z"/>
  <path id="path3687" d="m431.83 48.951q-1.3877 0-2.3106-1.0254-0.91601-1.0254-0.91601-2.5977v-0.37598q0-1.5859 0.90917-2.6318 0.91602-1.0459 2.2148-1.0459 1.3604 0 2.1396 0.86133 0.77929 0.86133 0.77929 2.2969v0.69727h-5.2226v0.19824q0 1.251 0.66308 2.0918 0.66309 0.84082 1.7432 0.84082 0.76562 0 1.3057-0.21191 0.54004-0.21191 0.92285-0.6084l0.34864 0.56055q-0.417 0.4375-1.0596 0.69726-0.63575 0.25293-1.5176 0.25293zm-0.10254-6.9795q-0.90918 0-1.5244 0.69726-0.61523 0.69043-0.71777 1.7363l0.0137 0.03418h4.334v-0.20508q0-0.96387-0.56739-1.6133-0.56738-0.64941-1.5381-0.64941z"/>
  <path id="path3689" d="m440.71 46.928q0-0.51953-0.43066-0.90918-0.42383-0.38965-1.5381-0.63574-1.3262-0.28711-1.9619-0.75879-0.62891-0.47168-0.62891-1.333 0-0.84766 0.71094-1.4287 0.71778-0.58789 1.8936-0.58789 1.251 0 1.9824 0.62207 0.73144 0.61524 0.69726 1.5449l-0.0137 0.04102h-0.75879q0-0.6084-0.51953-1.0596-0.51269-0.45117-1.3877-0.45117-0.89551 0-1.3467 0.38965-0.44434 0.38281-0.44434 0.90234 0 0.5127 0.38281 0.84766 0.38965 0.33496 1.5449 0.58789 1.3193 0.29394 1.9756 0.80664 0.65625 0.50586 0.65625 1.3809 0 0.92285-0.75195 1.4971-0.74512 0.56738-1.9756 0.56738-1.3467 0-2.1191-0.64258-0.76562-0.64258-0.72461-1.5312l0.0137-0.04102h0.75196q0.0479 0.7998 0.64941 1.1621 0.6084 0.3623 1.4287 0.3623 0.88867 0 1.4014-0.38965 0.51269-0.38965 0.51269-0.94336z"/>
  <path id="path3691" d="m447.84 46.928q0-0.51953-0.43066-0.90918-0.42383-0.38965-1.5381-0.63574-1.3262-0.28711-1.9619-0.75879-0.62891-0.47168-0.62891-1.333 0-0.84766 0.71094-1.4287 0.71777-0.58789 1.8936-0.58789 1.251 0 1.9824 0.62207 0.73144 0.61524 0.69726 1.5449l-0.0137 0.04102h-0.75879q0-0.6084-0.51953-1.0596-0.51269-0.45117-1.3877-0.45117-0.89551 0-1.3467 0.38965-0.44434 0.38281-0.44434 0.90234 0 0.5127 0.38281 0.84766 0.38965 0.33496 1.5449 0.58789 1.3193 0.29394 1.9756 0.80664 0.65625 0.50586 0.65625 1.3809 0 0.92285-0.75195 1.4971-0.74512 0.56738-1.9756 0.56738-1.3467 0-2.1191-0.64258-0.76562-0.64258-0.72461-1.5312l0.0137-0.04102h0.75196q0.0478 0.7998 0.64941 1.1621 0.6084 0.3623 1.4287 0.3623 0.88867 0 1.4014-0.38965 0.51269-0.38965 0.51269-0.94336z"/>
  <path id="path3693" d="m453.33 48.951q-1.3877 0-2.3106-1.0254-0.91602-1.0254-0.91602-2.5977v-0.37598q0-1.5859 0.90918-2.6318 0.91602-1.0459 2.2148-1.0459 1.3604 0 2.1396 0.86133 0.7793 0.86133 0.7793 2.2969v0.69727h-5.2226v0.19824q0 1.251 0.66308 2.0918 0.66309 0.84082 1.7432 0.84082 0.76562 0 1.3057-0.21191 0.54004-0.21191 0.92285-0.6084l0.34863 0.56055q-0.41699 0.4375-1.0596 0.69726-0.63574 0.25293-1.5176 0.25293zm-0.10254-6.9795q-0.90918 0-1.5244 0.69726-0.61523 0.69043-0.71777 1.7363l0.0137 0.03418h4.334v-0.20508q0-0.96387-0.56738-1.6133-0.56738-0.64941-1.5381-0.64941z"/>
  <path id="path3695" d="m457.45 45.171q0-1.7705 0.74511-2.8301 0.75196-1.0664 2.0918-1.0664 0.77246 0 1.3398 0.32812 0.56739 0.32812 0.94336 0.92969v-4.3887h0.81348v10.664h-0.72461l-0.0684-1.0732q-0.36914 0.58789-0.95019 0.90234-0.58106 0.31445-1.3672 0.31445-1.3262 0-2.0781-0.98438-0.74511-0.99121-0.74511-2.6523v-0.14356zm0.82031 0.14356q0 1.3398 0.5332 2.1328 0.54004 0.79297 1.6201 0.79297 0.79297 0 1.3193-0.35547 0.53321-0.35547 0.82715-0.98438v-3.4727q-0.28027-0.64258-0.79297-1.0391-0.51269-0.40332-1.3398-0.40332-1.0801 0-1.627 0.88867-0.54004 0.88184-0.54004 2.2969v0.14356z"/>
  <path id="path3697" d="m470.57 46.408 0.28027 1.3193h0.041l0.34864-1.3193 1.5723-4.9971h0.7041l1.5723 4.9971 0.35547 1.3535h0.041l0.30762-1.3535 1.3467-4.9971h0.84766l-2.1533 7.3965h-0.69727l-1.6406-5.0586-0.32129-1.2783h-0.041l-0.32812 1.2783-1.6133 5.0586h-0.70411l-2.1465-7.3965h0.84766l1.3809 4.9971z"/>
  <path id="path3699" d="m480.5 48.808h-0.81347v-7.3965h0.81347v7.3965zm0-9.5156h-0.81347v-1.1484h0.81347v1.1484z"/>
  <path id="path3701" d="m484.05 39.518v1.8936h1.627v0.66992h-1.627v4.8193q0 0.72461 0.25976 1.0322 0.26661 0.30078 0.70411 0.30078 0.19824 0 0.38281-0.01367 0.1914-0.02051 0.4375-0.06152l0.12304 0.6084q-0.20507 0.08887-0.49902 0.13672-0.29394 0.04785-0.58789 0.04785-0.7793 0-1.2168-0.49219-0.43066-0.49219-0.43066-1.5586v-4.8193h-1.2783v-0.66992h1.2783v-1.8936h0.82715z"/>
  <path id="path3703" d="m488.23 42.676q0.36914-0.66309 0.98438-1.0322 0.61523-0.36914 1.4355-0.36914 1.169 0 1.791 0.72461 0.62891 0.72461 0.62891 2.249v4.5596h-0.82032v-4.5732q0-1.2031-0.47851-1.7227-0.47168-0.52637-1.3057-0.52637-0.84082 0-1.4082 0.44434-0.56055 0.4375-0.82715 1.1689v5.209h-0.82031v-10.664h0.82031v4.5322z"/>
  <path id="path3705" d="m1.5928 61.676q0.36914-0.66309 0.98438-1.0322 0.61523-0.36914 1.4355-0.36914 1.1689 0 1.791 0.72461 0.62891 0.72461 0.62891 2.249v4.5596h-0.82031v-4.5732q0-1.2031-0.47852-1.7227-0.47168-0.52637-1.3057-0.52637-0.84082 0-1.4082 0.44434-0.56055 0.4375-0.82715 1.1689v5.209h-0.82031v-10.664h0.82031v4.5322z"/>
  <path id="path3707" d="m9.4814 67.808h-0.81348v-7.3965h0.81348v7.3965zm0-9.5156h-0.81348v-1.1484h0.81348v1.1484z"/>
  <path id="path3709" d="m16.167 65.928q0-0.51953-0.43066-0.90918-0.42383-0.38965-1.5381-0.63574-1.3262-0.28711-1.9619-0.75879-0.62891-0.47168-0.62891-1.333 0-0.84766 0.71094-1.4287 0.71777-0.58789 1.8936-0.58789 1.251 0 1.9824 0.62207 0.73144 0.61524 0.69727 1.5449l-0.01367 0.04102h-0.75879q0-0.6084-0.51953-1.0596-0.5127-0.45117-1.3877-0.45117-0.89551 0-1.3467 0.38965-0.44434 0.38281-0.44434 0.90234 0 0.5127 0.38281 0.84766 0.38965 0.33496 1.5449 0.58789 1.3193 0.29394 1.9756 0.80664 0.65625 0.50586 0.65625 1.3809 0 0.92285-0.75195 1.4971-0.74512 0.56738-1.9756 0.56738-1.3467 0-2.1191-0.64258-0.76562-0.64258-0.72461-1.5312l0.01367-0.04102h0.75195q0.04785 0.7998 0.64941 1.1621 0.6084 0.3623 1.4287 0.3623 0.88867 0 1.4014-0.38965 0.5127-0.38965 0.5127-0.94336z"/>
  <path id="path3711" d="m23.208 67.808h-0.81348v-10.664h0.81348v10.664z"/>
  <path id="path3713" d="m28.239 67.951q-1.3877 0-2.3105-1.0254-0.91602-1.0254-0.91602-2.5977v-0.37598q0-1.5859 0.90918-2.6318 0.91602-1.0459 2.2148-1.0459 1.3604 0 2.1396 0.86133 0.7793 0.86133 0.7793 2.2969v0.69727h-5.2227v0.19824q0 1.251 0.66309 2.0918 0.66309 0.84082 1.7432 0.84082 0.76562 0 1.3057-0.21191 0.54004-0.21191 0.92285-0.6084l0.34863 0.56055q-0.41699 0.4375-1.0596 0.69726-0.63574 0.25293-1.5176 0.25293zm-0.102-6.979q-0.90918 0-1.5244 0.69726-0.61524 0.69043-0.71777 1.7363l0.01367 0.03418h4.334v-0.20508q0-0.96387-0.56738-1.6133-0.56738-0.64941-1.5381-0.64941z"/>
  <path id="path3715" d="m34.706 65.955 0.23926 0.86816h0.04102l0.25977-0.86816 2.0098-5.5439h0.84766l-2.8096 7.3965h-0.65625l-2.8164-7.3965h0.84766l2.0371 5.5439z"/>
  <path id="path3717" d="m42.157 67.951q-1.3877 0-2.3105-1.0254-0.91602-1.0254-0.91602-2.5977v-0.37598q0-1.5859 0.90918-2.6318 0.91602-1.0459 2.2148-1.0459 1.3604 0 2.1396 0.86133 0.7793 0.86133 0.7793 2.2969v0.69727h-5.2227v0.19824q0 1.251 0.66308 2.0918 0.66309 0.84082 1.7432 0.84082 0.76562 0 1.3057-0.21191 0.54004-0.21191 0.92285-0.6084l0.34863 0.56055q-0.41699 0.4375-1.0596 0.69726-0.63574 0.25293-1.5176 0.25293zm-0.10254-6.9795q-0.90918 0-1.5244 0.69726-0.61523 0.69043-0.71777 1.7363l0.01367 0.03418h4.334v-0.20508q0-0.96387-0.56738-1.6133-0.56738-0.64941-1.5381-0.64941z"/>
  <path id="path3719" d="m47.517 67.808h-0.81348v-10.664h0.81348v10.664z"/>
  <path id="path3721" d="m52.732 64q0-1.6338 0.89551-2.6797t2.3721-1.0459q1.4834 0 2.3789 1.0459 0.896 1.046 0.896 2.68v0.22559q0 1.6406-0.89551 2.6865-0.88867 1.0391-2.3652 1.0391-1.4902 0-2.3857-1.0391-0.89551-1.0459-0.89551-2.6865v-0.22559zm0.82031 0.22559q0 1.2852 0.64941 2.1602t1.8115 0.875q1.1416 0 1.791-0.875 0.65625-0.875 0.65625-2.1602v-0.22559q0-1.2646-0.65625-2.1465-0.656-0.882-1.804-0.882-1.1484 0-1.7979 0.88184-0.649 0.881-0.649 2.146v0.22559z"/>
  <path id="path3723" d="m61.578 67.808v-6.7266h-1.2236v-0.66992h1.2236v-1.0801q0-1.1143 0.55371-1.7227 0.56-0.608 1.565-0.608 0.22559 0 0.45801 0.03418t0.47168 0.0957l-0.10254 0.67676q-0.16406-0.04102-0.3418-0.06152-0.1709-0.02734-0.40332-0.02734-0.66992 0-1.0254 0.42383-0.35547 0.42383-0.35547 1.1895v1.0801h1.7637v0.66992h-1.7637v6.7266h-0.82031z"/>
  <path id="path3725" d="m70.588 65.408 0.28027 1.3193h0.04102l0.34863-1.3193 1.5723-4.9971h0.7041l1.5723 4.9971 0.35547 1.3535h0.04102l0.30762-1.3535 1.3467-4.9971h0.84766l-2.1533 7.3965h-0.69726l-1.6406-5.0586-0.32129-1.2783h-0.04102l-0.32812 1.2783-1.6133 5.0586h-0.7041l-2.1465-7.3965h0.84766l1.3809 4.9971z"/>
  <path id="path3727" d="m83.009 61.115-0.6084-0.04102q-0.77246 0-1.2715 0.4375-0.49219 0.43066-0.7041 1.1895v5.1064h-0.82031v-7.3965h0.71777l0.10254 1.2305v0.08203q0.32129-0.68359 0.86133-1.0664t1.2852-0.38281q0.15723 0 0.30078 0.02734 0.15039 0.02051 0.24609 0.04785l-0.10938 0.76562z"/>
  <path id="path3729" d="m85.278 67.808h-0.81348v-7.3965h0.81348v7.3965zm0-9.5156h-0.81348v-1.1484h0.81348v1.1484z"/>
  <path id="path3731" d="m88.819 58.518v1.8936h1.627v0.66992h-1.627v4.8193q0 0.72461 0.25977 1.0322 0.2666 0.30078 0.7041 0.30078 0.19824 0 0.38281-0.01367 0.19141-0.02051 0.4375-0.06152l0.12305 0.6084q-0.20508 0.08887-0.49902 0.13672t-0.58789 0.04785q-0.7793 0-1.2168-0.49219-0.43066-0.49219-0.43066-1.5586v-4.8193h-1.2783v-0.66992h1.2783v-1.8936h0.82715z"/>
  <path id="path3733" d="m93.099 67.808h-0.81348v-7.3965h0.81348v7.3965zm0-9.5156h-0.81348v-1.1484h0.81348v1.1484z"/>
  <path id="path3735" d="m96.079 60.411 0.07519 1.292q0.35547-0.68359 0.95703-1.0527 0.6084-0.37598 1.4355-0.37598 1.2031 0 1.832 0.73828 0.6289 0.73145 0.6289 2.29v4.5049h-0.82031v-4.498q0-1.2715-0.47852-1.7979-0.47168-0.52637-1.3467-0.52637-0.86133 0-1.4082 0.45801-0.54004 0.45117-0.7793 1.2031v5.1611h-0.82031v-7.3965h0.72461z"/>
  <path id="path3737" d="m102.83 64.171q0-1.7705 0.75196-2.8301 0.75878-1.0664 2.1055-1.0664 0.78614 0 1.3604 0.34863 0.57421 0.3418 0.95019 0.9707l0.0957-1.1826h0.69043v7.3008q0 1.4287-0.79297 2.2559-0.78613 0.82715-2.1943 0.82715-0.5332 0-1.1348-0.12988-0.60156-0.12988-1.0527-0.35547l0.21191-0.69043q0.4375 0.21875 0.92285 0.32812 0.48536 0.11621 1.0391 0.11621 1.0801 0 1.627-0.62207 0.55371-0.62207 0.55371-1.7295v-0.92969q-0.37598 0.56055-0.95019 0.86816-0.57422 0.30078-1.3398 0.30078-1.333 0-2.0918-0.99121-0.75196-0.99121-0.75196-2.6455v-0.14356zm0.82031 0.14356q0 1.333 0.54688 2.1328 0.54687 0.79297 1.627 0.79297 0.79297 0 1.3193-0.3623 0.5332-0.3623 0.82031-0.99805v-3.4316q-0.2666-0.64258-0.78613-1.0527-0.5127-0.41016-1.3398-0.41016-1.0801 0-1.6338 0.88867-0.55372 0.88867-0.55372 2.2969v0.14356z"/>
  <path id="path3739" d="m119.04 67.808q-0.082-0.37598-0.11622-0.64941-0.0342-0.27344-0.0342-0.55371-0.41016 0.58106-1.0938 0.96387-0.6836 0.38281-1.5381 0.38281-1.0801 0-1.6816-0.57422-0.59473-0.57422-0.59473-1.5381 0-1.0254 0.88184-1.6406 0.88867-0.61523 2.3926-0.61523h1.6338v-0.91602q0-0.79297-0.5127-1.2441-0.50586-0.45117-1.4219-0.45117-0.85449 0-1.4219 0.43066-0.56055 0.43066-0.56055 1.0527l-0.75195-0.0068-0.0137-0.04102q-0.041-0.82715 0.75195-1.4766 0.79981-0.65625 2.0303-0.65625 1.2236 0 1.9688 0.62207 0.74512 0.62207 0.74512 1.7842v3.6367q0 0.38965 0.041 0.75879 0.0478 0.36914 0.15039 0.73144h-0.85449zm-2.6865-0.58106q0.88184 0 1.5586-0.41016 0.67675-0.41699 0.97754-1.0596v-1.5449h-1.6475q-1.1142 0-1.7842 0.47852-0.66308 0.47168-0.66308 1.1758 0 0.60156 0.41015 0.98438 0.417 0.37598 1.1484 0.37598z"/>
  <path id="path3741" d="m122.6 60.411 0.0752 1.292q0.35547-0.68359 0.95704-1.0527 0.60839-0.37598 1.4355-0.37598 1.2031 0 1.832 0.73828 0.62891 0.73145 0.62891 2.29v4.5049h-0.82031v-4.498q0-1.2715-0.47852-1.7979-0.47168-0.52637-1.3467-0.52637-0.86133 0-1.4082 0.45801-0.54004 0.45117-0.7793 1.2031v5.1611h-0.82031v-7.3965h0.72461z"/>
  <path id="path3743" d="m129.35 64.171q0-1.7705 0.74512-2.8301 0.75195-1.0664 2.0918-1.0664 0.77246 0 1.3398 0.32812 0.56738 0.32812 0.94336 0.92969v-4.3887h0.81347v10.664h-0.72461l-0.0684-1.0732q-0.36914 0.58789-0.95019 0.90234-0.58106 0.31445-1.3672 0.31445-1.3262 0-2.0781-0.98438-0.74512-0.99121-0.74512-2.6523v-0.14356zm0.82031 0.14356q0 1.3398 0.5332 2.1328 0.54004 0.79297 1.6201 0.79297 0.79297 0 1.3193-0.35547 0.5332-0.35547 0.82715-0.98438v-3.4727q-0.28028-0.64258-0.79297-1.0391-0.5127-0.40332-1.3398-0.40332-1.0801 0-1.627 0.88867-0.54004 0.88184-0.54004 2.2969v0.14356z"/>
  <path id="path3745" d="m145.31 65.928q0-0.51953-0.43066-0.90918-0.42383-0.38965-1.5381-0.63574-1.3262-0.28711-1.9619-0.75879-0.62891-0.47168-0.62891-1.333 0-0.84766 0.71094-1.4287 0.71777-0.58789 1.8936-0.58789 1.251 0 1.9824 0.62207 0.73144 0.61524 0.69726 1.5449l-0.0137 0.04102h-0.75879q0-0.6084-0.51953-1.0596-0.51269-0.45117-1.3877-0.45117-0.89551 0-1.3467 0.38965-0.44434 0.38281-0.44434 0.90234 0 0.5127 0.38281 0.84766 0.38965 0.33496 1.5449 0.58789 1.3193 0.29394 1.9756 0.80664 0.65625 0.50586 0.65625 1.3809 0 0.92285-0.75195 1.4971-0.74512 0.56738-1.9756 0.56738-1.3467 0-2.1191-0.64258-0.76562-0.64258-0.72461-1.5312l0.0137-0.04102h0.75196q0.0478 0.7998 0.64941 1.1621 0.6084 0.3623 1.4287 0.3623 0.88867 0 1.4014-0.38965 0.51269-0.38965 0.51269-0.94336z"/>
  <path id="path3747" d="m149.3 58.518v1.8936h1.627v0.66992h-1.627v4.8193q0 0.72461 0.25977 1.0322 0.2666 0.30078 0.7041 0.30078 0.19824 0 0.38281-0.01367 0.19141-0.02051 0.4375-0.06152l0.12305 0.6084q-0.20508 0.08887-0.49903 0.13672-0.29394 0.04785-0.58789 0.04785-0.77929 0-1.2168-0.49219-0.43067-0.49219-0.43067-1.5586v-4.8193h-1.2783v-0.66992h1.2783v-1.8936h0.82715z"/>
  <path id="path3749" d="m154.77 65.805 0.25977 0.88184h0.041l2.2354-6.2754h0.91601l-3.2129 8.5791q-0.28711 0.75195-0.74511 1.2783-0.45801 0.52637-1.3398 0.52637-0.14355 0-0.34863-0.03418-0.20508-0.02734-0.30078-0.06152l0.0957-0.68359q0.082 0.01367 0.25977 0.02734 0.18457 0.02051 0.2666 0.02051 0.5332 0 0.85449-0.38281 0.32129-0.37598 0.54688-0.9707l0.38964-0.99805-2.8574-7.3008h0.90918l2.0303 5.3936z"/>
  <path id="path3751" d="m160.45 67.808h-0.81348v-10.664h0.81348v10.664z"/>
  <path id="path3753" d="m165.48 67.951q-1.3877 0-2.3106-1.0254-0.91601-1.0254-0.91601-2.5977v-0.37598q0-1.5859 0.90918-2.6318 0.91601-1.0459 2.2148-1.0459 1.3604 0 2.1396 0.86133 0.7793 0.86133 0.7793 2.2969v0.69727h-5.2227v0.19824q0 1.251 0.66308 2.0918 0.66309 0.84082 1.7432 0.84082 0.76562 0 1.3057-0.21191 0.54004-0.21191 0.92285-0.6084l0.34864 0.56055q-0.41699 0.4375-1.0596 0.69726-0.63575 0.25293-1.5176 0.25293zm-0.1-6.979q-0.90918 0-1.5244 0.69726-0.61524 0.69043-0.71778 1.7363l0.0137 0.03418h4.334v-0.20508q0-0.96387-0.56738-1.6133-0.57-0.65-1.54-0.65z"/>
  <path id="path3755" d="m170.92 67.808h-0.93653v-1.1211h0.93653v1.1211z"/>
 </g>
</svg>
