<?xml version="1.0" encoding="UTF-8" standalone="no"?>
<svg id="svg2" xmlns:rdf="http://www.w3.org/1999/02/22-rdf-syntax-ns#" xmlns="http://www.w3.org/2000/svg" height="70.651" width="434.3" version="1.0" xmlns:cc="http://creativecommons.org/ns#" xmlns:dc="http://purl.org/dc/elements/1.1/">
 <metadata id="metadata18">
  <rdf:RDF>
   <cc:Work rdf:about="">
    <dc:format>image/svg+xml</dc:format>
    <dc:type rdf:resource="http://purl.org/dc/dcmitype/StillImage"/>
    <dc:title/>
   </cc:Work>
  </rdf:RDF>
 </metadata>
 <g id="text4" fill="#929292">
  <path id="path3347" d="m7.7588 1.5518h-3.4248v9.2559h-0.82031v-9.2559h-3.4248v-0.69727h7.6699v0.69727z"/>
  <path id="path3349" d="m9.9668 4.6758q0.36914-0.66309 0.98438-1.0322 0.61523-0.36914 1.4355-0.36914 1.1689 0 1.791 0.72461 0.62891 0.72461 0.62891 2.249v4.5596h-0.82031v-4.5732q0-1.2031-0.47852-1.7227-0.47168-0.52637-1.3057-0.52637-0.84082 0-1.4082 0.44434-0.56055 0.4375-0.82715 1.1689v5.209h-0.82031v-10.664h0.82031v4.5322z"/>
  <path id="path3351" d="m19.715 10.951q-1.3877 0-2.3105-1.0254-0.916-1.0252-0.916-2.5975v-0.37598q0-1.5859 0.90918-2.6318 0.91602-1.0459 2.2148-1.0459 1.3604 0 2.1396 0.86133 0.7793 0.86133 0.7793 2.2969v0.69727h-5.2227v0.19824q0 1.251 0.66309 2.0918 0.66309 0.84082 1.7432 0.84082 0.76562 0 1.3057-0.21191 0.54004-0.21191 0.92285-0.6084l0.34863 0.56055q-0.41699 0.4375-1.0596 0.69726-0.63574 0.25293-1.5176 0.25293zm-0.103-6.9793q-0.90918 0-1.5244 0.69727-0.61524 0.69043-0.71777 1.7363l0.01367 0.03418h4.334v-0.20508q0-0.96387-0.56738-1.6133-0.56738-0.64941-1.5381-0.64941z"/>
  <path id="path3353" d="m27.562 4.1152-0.6084-0.041016q-0.77246 0-1.2715 0.4375-0.49219 0.43066-0.7041 1.1895v5.1064h-0.82031v-7.3965h0.71777l0.10254 1.2305v0.082031q0.322-0.6836 0.862-1.0664t1.285-0.3828q0.15723 0 0.30078 0.027344 0.15039 0.020508 0.24609 0.047852l-0.11 0.7656z"/>
  <path id="path3355" d="m31.555 10.951q-1.3877 0-2.3105-1.0254-0.916-1.0252-0.916-2.5975v-0.37598q0-1.5859 0.90918-2.6318 0.91602-1.0459 2.2148-1.0459 1.3604 0 2.1396 0.86133 0.7793 0.86133 0.7793 2.2969v0.69727h-5.2227v0.19824q0 1.251 0.66309 2.0918 0.66309 0.84082 1.7432 0.84082 0.76562 0 1.3057-0.21191 0.54004-0.21191 0.92285-0.6084l0.34863 0.56055q-0.41699 0.4375-1.0596 0.69726-0.63574 0.25293-1.5176 0.25293zm-0.103-6.9793q-0.90918 0-1.5244 0.69727-0.616 0.6904-0.718 1.7363l0.01367 0.03418h4.334v-0.20508q0-0.96387-0.56738-1.6133-0.56738-0.64941-1.5381-0.64941z"/>
  <path id="path3357" d="m44.099 10.808q-0.08203-0.37598-0.11621-0.64941-0.03418-0.27344-0.03418-0.55371-0.41016 0.58105-1.0938 0.96387-0.68359 0.38281-1.5381 0.38281-1.0801 0-1.6816-0.57422-0.59473-0.57422-0.59473-1.5381 0-1.0254 0.88184-1.6406 0.88867-0.61523 2.3926-0.61523h1.6338v-0.91602q0-0.79297-0.5127-1.2441-0.50586-0.45117-1.4219-0.45117-0.85449 0-1.4219 0.43066-0.56055 0.43066-0.56055 1.0527l-0.75195-0.00684-0.01367-0.041016q-0.04102-0.82715 0.75195-1.4766 0.7998-0.65625 2.0303-0.65625 1.2236 0 1.9688 0.62207 0.74512 0.62207 0.74512 1.7842v3.6367q0 0.38965 0.04102 0.75879 0.04785 0.36914 0.15039 0.73144h-0.85449zm-2.6865-0.58105q0.88184 0 1.5586-0.41016 0.67676-0.41699 0.97754-1.0596v-1.5449h-1.6475q-1.1143 0-1.7842 0.47852-0.66309 0.47168-0.66309 1.1758 0 0.60156 0.41016 0.98438 0.41699 0.37598 1.1484 0.37598z"/>
  <path id="path3359" d="m50.34 4.1152-0.6084-0.041016q-0.77246 0-1.2715 0.4375-0.49219 0.43066-0.7041 1.1895v5.1064h-0.82031v-7.3965h0.71777l0.10254 1.2305v0.082031q0.32129-0.68359 0.86133-1.0664t1.2852-0.38281q0.15723 0 0.30078 0.027344 0.15039 0.020508 0.24609 0.047852l-0.10938 0.76562z"/>
  <path id="path3361" d="m54.332 10.951q-1.3877 0-2.3105-1.0254-0.917-1.0252-0.917-2.5975v-0.37598q0-1.5859 0.90918-2.6318 0.91602-1.0459 2.2148-1.0459 1.3604 0 2.1396 0.86133 0.7793 0.86133 0.7793 2.2969v0.69727h-5.2227v0.19824q0 1.251 0.66309 2.0918 0.66309 0.84082 1.7432 0.84082 0.76562 0 1.3057-0.21191 0.54004-0.21191 0.92285-0.6084l0.34863 0.56055q-0.41699 0.4375-1.0596 0.69726-0.63574 0.25293-1.5176 0.25293zm-0.103-6.9793q-0.90918 0-1.5244 0.69727-0.61523 0.69043-0.71777 1.7363l0.01367 0.03418h4.334v-0.20508q0-0.96387-0.56738-1.6133-0.56738-0.64941-1.5381-0.64941z"/>
  <path id="path3363" d="m63.479 1.5176v1.8936h1.627v0.66992h-1.627v4.8193q0 0.72461 0.25976 1.0322 0.2666 0.30078 0.7041 0.30078 0.19824 0 0.38281-0.01367 0.19141-0.02051 0.4375-0.06152l0.12305 0.6084q-0.20508 0.08887-0.49902 0.13672-0.29395 0.04785-0.58789 0.04785-0.7793 0-1.2168-0.49219-0.43066-0.49219-0.43066-1.5586v-4.8193h-1.2783v-0.66992h1.2783v-1.8936h0.82715z"/>
  <path id="path3365" d="m68.435 8.4082 0.28027 1.3193h0.04102l0.34863-1.3193 1.5723-4.9971h0.7041l1.5723 4.9971 0.35547 1.3535h0.04102l0.30762-1.3535 1.3467-4.9971h0.84766l-2.1533 7.3965h-0.69726l-1.6406-5.0586-0.32129-1.2783h-0.04102l-0.32812 1.2783-1.6133 5.0586h-0.7041l-2.1465-7.3965h0.84766l1.3809 4.9971z"/>
  <path id="path3367" d="m76.993 7q0-1.6338 0.89551-2.6797t2.3721-1.0459q1.4834 0 2.3789 1.0459 0.895 1.0459 0.895 2.6797v0.22559q0 1.6406-0.89551 2.6865-0.88867 1.0391-2.3652 1.0391-1.4902 0-2.3857-1.0391-0.896-1.0459-0.896-2.6865v-0.2256zm0.82031 0.22559q0 1.2852 0.64941 2.1602t1.8115 0.875q1.1416 0 1.791-0.875 0.65625-0.875 0.65625-2.1602l0.001-0.2256q0-1.2646-0.65625-2.1465-0.65625-0.88184-1.8047-0.88184t-1.7979 0.88184q-0.65 0.8819-0.65 2.1465v0.22559z"/>
  <path id="path3369" d="m94.616 7.3145q0 1.6611-0.75195 2.6523-0.75195 0.98438-2.0713 0.98438-0.7793 0-1.3672-0.29394-0.58105-0.29395-0.9502-0.84082v3.835h-0.82031v-10.24h0.69043l0.10254 1.1484q0.36914-0.61523 0.9502-0.9502 0.58789-0.33496 1.3809-0.33496 1.333 0 2.085 1.0664 0.75195 1.0596 0.75195 2.8301v0.14355zm-0.82-0.1436q0-1.4082-0.56055-2.2969-0.56055-0.88867-1.6406-0.88867-0.82715 0-1.3467 0.39648-0.5127 0.38965-0.77246 1.0186v3.5547q0.28027 0.6084 0.80664 0.95703 0.5332 0.34863 1.3262 0.34863 1.0732 0 1.627-0.80664 0.56055-0.80664 0.56055-2.1396v-0.14355z"/>
  <path id="path3371" d="m99.859 4.1152-0.6084-0.041016q-0.77246 0-1.2715 0.4375-0.49219 0.43066-0.7041 1.1895v5.1064h-0.82031v-7.3965h0.71777l0.10254 1.2305v0.082031q0.32129-0.68359 0.86133-1.0664t1.2852-0.38281q0.15723 0 0.30078 0.027344 0.15039 0.020508 0.24609 0.047852l-0.10938 0.76562z"/>
  <path id="path3373" d="m102.13 10.808h-0.81348v-7.3965h0.81348v7.3965zm0-9.5156h-0.81348v-1.1484h0.81348v1.1484z"/>
  <path id="path3375" d="m105.11 3.4111 0.0752 1.292q0.35547-0.68359 0.95703-1.0527 0.6084-0.37598 1.4356-0.37598 1.2031 0 1.832 0.73828 0.62891 0.73145 0.62891 2.29v4.5049h-0.82032v-4.498q0-1.2715-0.47851-1.7979-0.47168-0.52637-1.3467-0.52637-0.86133 0-1.4082 0.45801-0.54004 0.45117-0.7793 1.2031v5.1611h-0.82031v-7.3965h0.72461z"/>
  <path id="path3377" d="m114.92 10.261q0.81347 0 1.4355-0.46484 0.62207-0.46484 0.62207-1.292h0.72461l0.0137 0.041016q0.0342 1.0254-0.82031 1.7158-0.85449 0.69043-1.9756 0.69043-1.5108 0-2.3379-1.0322-0.82031-1.0391-0.82031-2.666v-0.28711q0-1.6133 0.82715-2.6523 0.82715-1.0391 2.3242-1.0391 1.2168 0 2.0234 0.71777 0.81347 0.71777 0.78613 1.8867l-0.0137 0.041016h-0.73145q0-0.88867-0.60156-1.415-0.59473-0.5332-1.4629-0.5332-1.1894 0-1.7637 0.85449-0.56739 0.84766-0.56739 2.1396v0.28711q0 1.3125 0.56739 2.1602 0.56738 0.84766 1.7705 0.84766z"/>
  <path id="path3379" d="m120.34 10.808h-0.81347v-7.3965h0.81347v7.3965zm0-9.5156h-0.81347v-1.1484h0.81347v1.1484z"/>
  <path id="path3381" d="m128.55 7.3145q0 1.6611-0.75195 2.6523-0.75195 0.98438-2.0713 0.98438-0.77929 0-1.3672-0.29394-0.58106-0.29395-0.9502-0.84082v3.835h-0.82031v-10.24h0.69043l0.10254 1.1484q0.36914-0.61523 0.95019-0.9502 0.58789-0.33496 1.3809-0.33496 1.333 0 2.085 1.0664 0.75195 1.0596 0.75195 2.8301v0.14355zm-0.82031-0.14355q0-1.4082-0.56054-2.2969-0.56055-0.88867-1.6406-0.88867-0.82715 0-1.3467 0.39648-0.51269 0.38965-0.77246 1.0186v3.5547q0.28027 0.6084 0.80664 0.95703 0.5332 0.34863 1.3262 0.34863 1.0732 0 1.627-0.80664 0.56054-0.80664 0.56054-2.1396v-0.14355z"/>
  <path id="path3383" d="m131.3 10.808h-0.81348v-10.664h0.81348v10.664z"/>
  <path id="path3385" d="m136.34 10.951q-1.3877 0-2.3106-1.0254-0.91602-1.0254-0.91602-2.5977v-0.37598q0-1.5859 0.90918-2.6318 0.91602-1.0459 2.2148-1.0459 1.3604 0 2.1396 0.86133 0.77929 0.86133 0.77929 2.2969v0.69727h-5.2226v0.19824q0 1.251 0.66308 2.0918 0.66309 0.84082 1.7432 0.84082 0.76562 0 1.3057-0.21191 0.54004-0.21191 0.92285-0.6084l0.34864 0.56055q-0.417 0.4375-1.0596 0.69726-0.63575 0.25293-1.5176 0.25293zm-0.11-6.9793q-0.90918 0-1.5244 0.69727-0.61523 0.69043-0.71777 1.7363l0.0137 0.03418h4.334v-0.20508q0-0.96387-0.56739-1.6133-0.56738-0.64941-1.5381-0.64941z"/>
  <path id="path3387" d="m145.21 8.9277q0-0.51953-0.43066-0.90918-0.42383-0.38965-1.5381-0.63574-1.3262-0.28711-1.9619-0.75879-0.62891-0.47168-0.62891-1.333 0-0.84766 0.71094-1.4287 0.71777-0.58789 1.8936-0.58789 1.251 0 1.9824 0.62207 0.73144 0.61523 0.69726 1.5449l-0.0137 0.041016h-0.75879q0-0.6084-0.51953-1.0596-0.51269-0.45117-1.3877-0.45117-0.89551 0-1.3467 0.38965-0.44434 0.38281-0.44434 0.90234 0 0.5127 0.38281 0.84766 0.38965 0.33496 1.5449 0.58789 1.3193 0.29395 1.9756 0.80664 0.65625 0.50586 0.65625 1.3809 0 0.92285-0.75195 1.4971-0.74512 0.56738-1.9756 0.56738-1.3467 0-2.1191-0.64258-0.76562-0.64258-0.72461-1.5313l0.0137-0.041016h0.75196q0.0478 0.7998 0.64941 1.1621 0.6084 0.3623 1.4287 0.3623 0.88867 0 1.4014-0.38965 0.51269-0.38965 0.51269-0.94336z"/>
  <path id="path3389" d="m152.62 1.5176v1.8936h1.627v0.66992h-1.627v4.8193q0 0.72461 0.25977 1.0322 0.2666 0.30078 0.7041 0.30078 0.19824 0 0.38281-0.01367 0.19141-0.02051 0.4375-0.06152l0.12305 0.6084q-0.20508 0.08887-0.49903 0.13672-0.29394 0.04785-0.58789 0.04785-0.77929 0-1.2168-0.49219-0.43067-0.49219-0.43067-1.5586v-4.8193h-1.2783v-0.66992h1.2783v-1.8936h0.82715z"/>
  <path id="path3391" d="m156.8 4.6758q0.36914-0.66309 0.98438-1.0322 0.61523-0.36914 1.4356-0.36914 1.1689 0 1.791 0.72461 0.62891 0.72461 0.62891 2.249v4.5596h-0.82031v-4.5732q0-1.2031-0.47852-1.7227-0.47168-0.52637-1.3057-0.52637-0.84082 0-1.4082 0.44434-0.56054 0.4375-0.82715 1.1689v5.209h-0.82031v-10.664h0.82031v4.5322z"/>
  <path id="path3393" d="m168.46 10.808q-0.082-0.37598-0.11621-0.64941-0.0342-0.27344-0.0342-0.55371-0.41016 0.58105-1.0938 0.96387-0.6836 0.38281-1.5381 0.38281-1.0801 0-1.6816-0.57422-0.59473-0.57422-0.59473-1.5381 0-1.0254 0.88184-1.6406 0.88867-0.61523 2.3926-0.61523h1.6338v-0.91602q0-0.79297-0.5127-1.2441-0.50586-0.45117-1.4219-0.45117-0.8545 0-1.4219 0.43066-0.56055 0.43066-0.56055 1.0527l-0.75195-0.00684-0.0137-0.041016q-0.041-0.82715 0.75195-1.4766 0.79981-0.65625 2.0303-0.65625 1.2236 0 1.9688 0.62207 0.74511 0.62207 0.74511 1.7842v3.6367q0 0.38965 0.041 0.75879 0.0478 0.36914 0.15039 0.73144h-0.85449zm-2.6865-0.58105q0.88184 0 1.5586-0.41016 0.67676-0.41699 0.97754-1.0596v-1.5449h-1.6475q-1.1143 0-1.7842 0.47852-0.66309 0.47168-0.66309 1.1758 0 0.60156 0.41016 0.98438 0.41699 0.37598 1.1484 0.37598z"/>
  <path id="path3395" d="m172.58 1.5176v1.8936h1.627v0.66992h-1.627v4.8193q0 0.72461 0.25976 1.0322 0.26661 0.30078 0.70411 0.30078 0.19824 0 0.38281-0.01367 0.1914-0.02051 0.4375-0.06152l0.12304 0.6084q-0.20507 0.08887-0.49902 0.13672-0.29394 0.04785-0.58789 0.04785-0.7793 0-1.2168-0.49219-0.43066-0.49219-0.43066-1.5586v-4.8193h-1.2783v-0.66992h1.2783v-1.8936h0.82715z"/>
  <path id="path3397" d="m179.04 7.1709q0-1.7705 0.74512-2.8301 0.75195-1.0664 2.0918-1.0664 0.77246 0 1.3398 0.32812 0.56738 0.32812 0.94336 0.92969v-4.3887h0.81347v10.664h-0.72461l-0.0684-1.0732q-0.36914 0.58789-0.95019 0.90234-0.58106 0.31445-1.3672 0.31445-1.3262 0-2.0781-0.98438-0.74512-0.99121-0.74512-2.6523v-0.14355zm0.82031 0.14355q0 1.3398 0.5332 2.1328 0.54004 0.79297 1.6201 0.79297 0.79297 0 1.3193-0.35547 0.5332-0.35547 0.82715-0.98438v-3.4727q-0.28028-0.64258-0.79297-1.0391-0.5127-0.40332-1.3398-0.40332-1.0801 0-1.627 0.88867-0.54004 0.88184-0.54004 2.2969v0.14355z"/>
  <path id="path3399" d="m189.93 10.951q-1.3877 0-2.3106-1.0254-0.91602-1.0254-0.91602-2.5977v-0.37598q0-1.5859 0.90918-2.6318 0.91602-1.0459 2.2148-1.0459 1.3604 0 2.1396 0.86133 0.77929 0.86133 0.77929 2.2969v0.69727h-5.2226v0.19824q0 1.251 0.66308 2.0918 0.66309 0.84082 1.7432 0.84082 0.76562 0 1.3057-0.21191 0.54004-0.21191 0.92285-0.6084l0.34864 0.56055q-0.417 0.4375-1.0596 0.69726-0.63575 0.25293-1.5176 0.25293zm-0.10254-6.9795q-0.90918 0-1.5244 0.69727-0.61523 0.69043-0.71777 1.7363l0.0137 0.03418h4.334v-0.20508q0-0.96387-0.56739-1.6133-0.56738-0.64941-1.5381-0.64941z"/>
  <path id="path3401" d="m194.85 10.808v-6.7266h-1.2305v-0.66992h1.2305v-0.94336q0-1.1758 0.64942-1.8184 0.65-0.6497 1.81-0.6497 0.45801 0 0.92969 0.10254t0.95703 0.30078l-0.13672 0.7041q-0.41699-0.1709-0.80664-0.2666-0.38965-0.095703-0.88867-0.095703-0.83398 0-1.2646 0.44434-0.42383 0.44434-0.42383 1.2783v0.94336h1.7295v0.66992h-1.7295v6.7266h-0.82031zm4.7852 0h-0.82031v-7.3965h0.82031v7.3965z"/>
  <path id="path3403" d="m202.62 3.4111 0.0752 1.292q0.35547-0.68359 0.95703-1.0527 0.6084-0.37598 1.4356-0.37598 1.2031 0 1.832 0.73828 0.62891 0.73145 0.62891 2.29v4.5049h-0.82031v-4.498q0-1.2715-0.47852-1.7979-0.47168-0.52637-1.3467-0.52637-0.86133 0-1.4082 0.45801-0.54004 0.45117-0.7793 1.2031v5.1611h-0.82031v-7.3965h0.72461z"/>
  <path id="path3405" d="m212.46 10.951q-1.3877 0-2.3106-1.0254-0.91602-1.0254-0.91602-2.5977v-0.37598q0-1.5859 0.90918-2.6318 0.91602-1.0459 2.2148-1.0459 1.3604 0 2.1396 0.86133 0.77929 0.86133 0.77929 2.2969v0.69727h-5.2226v0.19824q0 1.251 0.66308 2.0918 0.66309 0.84082 1.7432 0.84082 0.76562 0 1.3057-0.21191 0.54004-0.21191 0.92285-0.6084l0.34864 0.56055q-0.417 0.4375-1.0596 0.69726-0.63575 0.25293-1.5176 0.25293zm-0.1-6.9793q-0.90918 0-1.5244 0.69727-0.61523 0.69043-0.71777 1.7363l0.0137 0.03418h4.334v-0.20508q0-0.96387-0.56739-1.6133-0.56738-0.64941-1.5381-0.64941z"/>
  <path id="path3407" d="m221.14 4.6758q0.36914-0.66309 0.98437-1.0322 0.61524-0.36914 1.4356-0.36914 1.169 0 1.791 0.72461 0.6289 0.72461 0.6289 2.249v4.5596h-0.82031v-4.5732q0-1.2031-0.47852-1.7227-0.47168-0.52637-1.3057-0.52637-0.84082 0-1.4082 0.44434-0.56055 0.4375-0.82715 1.1689v5.209h-0.82031v-10.664h0.82031v4.5322z"/>
  <path id="path3409" d="m229.03 10.808h-0.81348v-7.3965h0.81348v7.3965zm0-9.5156h-0.81348v-1.1484h0.81348v1.1484z"/>
  <path id="path3411" d="m235.72 8.9277q0-0.51953-0.43067-0.90918-0.42383-0.38965-1.5381-0.63574-1.3262-0.28711-1.9619-0.75879-0.6289-0.47168-0.6289-1.333 0-0.84766 0.71093-1.4287 0.71778-0.58789 1.8936-0.58789 1.251 0 1.9824 0.62207 0.73145 0.61523 0.69727 1.5449l-0.0137 0.041016h-0.75878q0-0.6084-0.51954-1.0596-0.51269-0.45117-1.3877-0.45117-0.89551 0-1.3467 0.38965-0.44434 0.38281-0.44434 0.90234 0 0.5127 0.38282 0.84766 0.38964 0.33496 1.5449 0.58789 1.3193 0.29395 1.9756 0.80664 0.65625 0.50586 0.65625 1.3809 0 0.92285-0.75195 1.4971-0.74512 0.56738-1.9756 0.56738-1.3467 0-2.1191-0.64258-0.76562-0.64258-0.72461-1.5313l0.0137-0.041016h0.75195q0.0478 0.7998 0.64941 1.1621 0.6084 0.3623 1.4287 0.3623 0.88868 0 1.4014-0.38965 0.5127-0.38965 0.5127-0.94336z"/>
  <path id="path3413" d="m243.43 8.4082 0.28027 1.3193h0.041l0.34863-1.3193 1.5723-4.9971h0.7041l1.5723 4.9971 0.35547 1.3535h0.041l0.30762-1.3535 1.3467-4.9971h0.84765l-2.1533 7.3965h-0.69726l-1.6406-5.0586-0.32129-1.2783h-0.041l-0.32813 1.2783-1.6133 5.0586h-0.7041l-2.1465-7.3965h0.84766l1.3809 4.9971z"/>
  <path id="path3415" d="m251.99 7q0-1.6338 0.89551-2.6797t2.3721-1.0459q1.4834 0 2.3789 1.0459 0.9 1.0459 0.9 2.6797v0.22559q0 1.6406-0.89551 2.6865-0.88867 1.0391-2.3652 1.0391-1.4902 0-2.3857-1.0391-0.89551-1.0459-0.89551-2.6865l-0.01-0.2256zm0.82032 0.22559q0 1.2852 0.64941 2.1602t1.8115 0.875q1.1416 0 1.791-0.875 0.65625-0.875 0.65625-2.1602v-0.2256q0-1.2646-0.65625-2.1465-0.65625-0.88184-1.8047-0.88184t-1.7978 0.88184q-0.65 0.8819-0.65 2.1465v0.22559z"/>
  <path id="path3417" d="m263.65 4.1152-0.6084-0.041016q-0.77246 0-1.2715 0.4375-0.49218 0.43066-0.7041 1.1895v5.1064h-0.82031v-7.3965h0.71777l0.10254 1.2305v0.082031q0.32129-0.68359 0.86133-1.0664t1.2852-0.38281q0.15722 0 0.30078 0.027344 0.15039 0.020508 0.24609 0.047852l-0.10937 0.76562z"/>
  <path id="path3419" d="m266.77 7.2051h-0.94336v3.6025h-0.82031v-10.664h0.82031v6.3574h0.86133l2.748-3.0898h0.95703l0.0137 0.03418-2.96 3.3359 3.2676 3.9922-0.0205 0.03418h-0.93652l-2.9873-3.6025z"/>
  <path id="path3421" d="m272.81 10.808h-0.81347v-7.3965h0.81347v7.3965zm0-9.5156h-0.81347v-1.1484h0.81347v1.1484z"/>
  <path id="path3423" d="m275.79 3.4111 0.0752 1.292q0.35547-0.68359 0.95703-1.0527 0.6084-0.37598 1.4356-0.37598 1.2031 0 1.832 0.73828 0.6289 0.73145 0.6289 2.29v4.5049h-0.82031v-4.498q0-1.2715-0.47851-1.7979-0.47168-0.52637-1.3467-0.52637-0.86133 0-1.4082 0.45801-0.54004 0.45117-0.77929 1.2031v5.1611h-0.82032v-7.3965h0.72461z"/>
  <path id="path3425" d="m282.54 7.1709q0-1.7705 0.75196-2.8301 0.75878-1.0664 2.1055-1.0664 0.78614 0 1.3604 0.34863 0.57421 0.3418 0.95019 0.9707l0.0957-1.1826h0.69043v7.3008q0 1.4287-0.79296 2.2559-0.78614 0.82715-2.1943 0.82715-0.5332 0-1.1348-0.12988-0.60156-0.12988-1.0527-0.35547l0.21191-0.69043q0.4375 0.21875 0.92286 0.32812 0.48535 0.11621 1.0391 0.11621 1.0801 0 1.627-0.62207 0.55371-0.62207 0.55371-1.7295v-0.92969q-0.37597 0.56055-0.95019 0.86816-0.57422 0.30078-1.3398 0.30078-1.333 0-2.0918-0.99121-0.75196-0.99121-0.75196-2.6455v-0.14355zm0.82032 0.14355q0 1.333 0.54687 2.1328 0.54688 0.79297 1.627 0.79297 0.79297 0 1.3193-0.3623 0.5332-0.3623 0.82031-0.99805v-3.4316q-0.2666-0.64258-0.78613-1.0527-0.5127-0.41016-1.3398-0.41016-1.0801 0-1.6338 0.88867-0.55371 0.88867-0.55371 2.2969v0.14355z"/>
  <path id="path3427" d="m296.84 10.951q-1.3877 0-2.3106-1.0254-0.91601-1.0254-0.91601-2.5977v-0.37598q0-1.5859 0.90918-2.6318 0.91601-1.0459 2.2148-1.0459 1.3604 0 2.1396 0.86133 0.7793 0.86133 0.7793 2.2969v0.69727h-5.2227v0.19824q0 1.251 0.66309 2.0918 0.66308 0.84082 1.7432 0.84082 0.76562 0 1.3057-0.21191 0.54004-0.21191 0.92286-0.6084l0.34863 0.56055q-0.41699 0.4375-1.0596 0.69726-0.63574 0.25293-1.5176 0.25293zm-0.10254-6.9795q-0.90918 0-1.5244 0.69727-0.61524 0.69043-0.71778 1.7363l0.0137 0.03418h4.334v-0.20508q0-0.96387-0.56738-1.6133-0.56739-0.64941-1.5381-0.64941z"/>
  <path id="path3429" d="m302.57 1.5176v1.8936h1.627v0.66992h-1.627v4.8193q0 0.72461 0.25976 1.0322 0.2666 0.30078 0.7041 0.30078 0.19824 0 0.38282-0.01367 0.1914-0.02051 0.4375-0.06152l0.12304 0.6084q-0.20508 0.08887-0.49902 0.13672-0.29395 0.04785-0.58789 0.04785-0.7793 0-1.2168-0.49219-0.43066-0.49219-0.43066-1.5586v-4.8193h-1.2783v-0.66992h1.2783v-1.8936h0.82715z"/>
  <path id="path3431" d="m306.76 4.6758q0.36914-0.66309 0.98437-1.0322 0.61524-0.36914 1.4356-0.36914 1.169 0 1.791 0.72461 0.6289 0.72461 0.6289 2.249v4.5596h-0.82031v-4.5732q0-1.2031-0.47852-1.7227-0.47167-0.52637-1.3057-0.52637-0.84082 0-1.4082 0.44434-0.56055 0.4375-0.82715 1.1689v5.209h-0.82031v-10.664h0.82031v4.5322z"/>
  <path id="path3433" d="m314.64 10.808h-0.81348v-7.3965h0.81348v7.3965zm0-9.5156h-0.81348v-1.1484h0.81348v1.1484z"/>
  <path id="path3435" d="m319.64 10.261q0.81348 0 1.4356-0.46484 0.62207-0.46484 0.62207-1.292h0.72461l0.0137 0.041016q0.0342 1.0254-0.82031 1.7158-0.85449 0.69043-1.9756 0.69043-1.5107 0-2.3379-1.0322-0.82031-1.0391-0.82031-2.666v-0.28711q0-1.6133 0.82715-2.6523 0.82715-1.0391 2.3242-1.0391 1.2168 0 2.0234 0.71777 0.81348 0.71777 0.78614 1.8867l-0.0137 0.041016h-0.73144q0-0.88867-0.60156-1.415-0.59473-0.5332-1.4629-0.5332-1.1895 0-1.7637 0.85449-0.56738 0.84766-0.56738 2.1396v0.28711q0 1.3125 0.56738 2.1602 0.56739 0.84766 1.7705 0.84766z"/>
  <path id="path3437" d="m328.58 8.9277q0-0.51953-0.43066-0.90918-0.42383-0.38965-1.5381-0.63574-1.3262-0.28711-1.9619-0.75879-0.62891-0.47168-0.62891-1.333 0-0.84766 0.71094-1.4287 0.71777-0.58789 1.8936-0.58789 1.251 0 1.9824 0.62207 0.73144 0.61523 0.69726 1.5449l-0.0137 0.041016h-0.75879q0-0.6084-0.51953-1.0596-0.5127-0.45117-1.3877-0.45117-0.8955 0-1.3467 0.38965-0.44433 0.38281-0.44433 0.90234 0 0.5127 0.38281 0.84766 0.38965 0.33496 1.5449 0.58789 1.3193 0.29395 1.9756 0.80664 0.65625 0.50586 0.65625 1.3809 0 0.92285-0.75195 1.4971-0.74512 0.56738-1.9756 0.56738-1.3467 0-2.1191-0.64258-0.76563-0.64258-0.72461-1.5313l0.0137-0.041016h0.75195q0.0479 0.7998 0.64942 1.1621 0.6084 0.3623 1.4287 0.3623 0.88867 0 1.4014-0.38965 0.51269-0.38965 0.51269-0.94336z"/>
  <path id="path3439" d="m332.19 10.808h-0.93652v-1.1211h0.93652v1.1211zm0-6.2617h-0.93652v-1.1211h0.93652v1.1211z"/>
  <path id="path3441" d="m340.46 10.951q-1.3877 0-2.3106-1.0254-0.91601-1.0254-0.91601-2.5977v-0.37598q0-1.5859 0.90918-2.6318 0.91601-1.0459 2.2148-1.0459 1.3604 0 2.1396 0.86133 0.7793 0.86133 0.7793 2.2969v0.69727h-5.2227v0.19824q0 1.251 0.66309 2.0918 0.66308 0.84082 1.7432 0.84082 0.76563 0 1.3057-0.21191 0.54003-0.21191 0.92285-0.6084l0.34863 0.56055q-0.41699 0.4375-1.0596 0.69726-0.63574 0.25293-1.5176 0.25293zm-0.10254-6.9795q-0.90918 0-1.5244 0.69727-0.61524 0.69043-0.71778 1.7363l0.0137 0.03418h4.334v-0.20508q0-0.96387-0.56738-1.6133-0.56738-0.64941-1.5381-0.64941z"/>
  <path id="path3443" d="m347.22 6.4326 2.0029-3.0215h0.9707l-2.5088 3.6299 2.6113 3.7666h-0.95703l-2.1055-3.1514-2.1055 3.1514h-0.9707l2.6182-3.7666-2.5088-3.6299h0.96387l1.9893 3.0215z"/>
  <path id="path3445" d="m354.37 10.261q0.81348 0 1.4356-0.46484 0.62207-0.46484 0.62207-1.292h0.72461l0.0137 0.041016q0.0342 1.0254-0.82031 1.7158-0.85449 0.69043-1.9756 0.69043-1.5107 0-2.3379-1.0322-0.82031-1.0391-0.82031-2.666v-0.28711q0-1.6133 0.82715-2.6523 0.82715-1.0391 2.3242-1.0391 1.2168 0 2.0234 0.71777 0.81347 0.71777 0.78613 1.8867l-0.0137 0.041016h-0.73145q0-0.88867-0.60156-1.415-0.59473-0.5332-1.4629-0.5332-1.1895 0-1.7637 0.85449-0.56739 0.84766-0.56739 2.1396v0.28711q0 1.3125 0.56739 2.1602 0.56738 0.84766 1.7705 0.84766z"/>
  <path id="path3447" d="m361.65 10.951q-1.3877 0-2.3106-1.0254-0.91602-1.0254-0.91602-2.5977v-0.37598q0-1.5859 0.90918-2.6318 0.91602-1.0459 2.2148-1.0459 1.3604 0 2.1396 0.86133 0.77929 0.86133 0.77929 2.2969v0.69727h-5.2226v0.19824q0 1.251 0.66308 2.0918 0.66309 0.84082 1.7432 0.84082 0.76562 0 1.3057-0.21191 0.54004-0.21191 0.92285-0.6084l0.34864 0.56055q-0.417 0.4375-1.0596 0.69726-0.63575 0.25293-1.5176 0.25293zm-0.1-6.9793q-0.90918 0-1.5244 0.69727-0.61523 0.69043-0.71777 1.7363l0.0137 0.03418h4.334v-0.20508q0-0.96387-0.56739-1.6133-0.56738-0.64941-1.5381-0.64941z"/>
  <path id="path3449" d="m367.01 10.808h-0.81347v-10.664h0.81347v10.664z"/>
  <path id="path3451" d="m370.18 10.808h-0.81348v-10.664h0.81348v10.664z"/>
  <path id="path3453" d="m375.21 10.951q-1.3877 0-2.3106-1.0254-0.91602-1.0254-0.91602-2.5977v-0.37598q0-1.5859 0.90918-2.6318 0.91602-1.0459 2.2148-1.0459 1.3604 0 2.1396 0.86133 0.77929 0.86133 0.77929 2.2969v0.69727h-5.2226v0.19824q0 1.251 0.66308 2.0918 0.66309 0.84082 1.7432 0.84082 0.76562 0 1.3057-0.21191 0.54004-0.21191 0.92285-0.6084l0.34864 0.56055q-0.417 0.4375-1.0596 0.69726-0.63575 0.25293-1.5176 0.25293zm-0.1-6.9793q-0.90918 0-1.5244 0.69727-0.61523 0.69043-0.71777 1.7363l0.0137 0.03418h4.334v-0.20508q0-0.96387-0.56739-1.6133-0.56738-0.64941-1.5381-0.64941z"/>
  <path id="path3455" d="m380.38 3.4111 0.0752 1.292q0.35547-0.68359 0.95703-1.0527 0.6084-0.37598 1.4356-0.37598 1.2031 0 1.832 0.73828 0.62891 0.73145 0.62891 2.29v4.5049h-0.82032v-4.498q0-1.2715-0.47851-1.7979-0.47168-0.52637-1.3467-0.52637-0.86133 0-1.4082 0.45801-0.54004 0.45117-0.7793 1.2031v5.1611h-0.82031v-7.3965h0.72461z"/>
  <path id="path3457" d="m390.19 10.261q0.81347 0 1.4355-0.46484 0.62207-0.46484 0.62207-1.292h0.72461l0.0137 0.041016q0.0342 1.0254-0.82031 1.7158-0.85449 0.69043-1.9756 0.69043-1.5108 0-2.3379-1.0322-0.82032-1.0391-0.82032-2.666v-0.28711q0-1.6133 0.82715-2.6523 0.82715-1.0391 2.3242-1.0391 1.2168 0 2.0234 0.71777 0.81347 0.71777 0.78613 1.8867l-0.0137 0.041016h-0.73145q0-0.88867-0.60156-1.415-0.59473-0.5332-1.4629-0.5332-1.1894 0-1.7637 0.85449-0.56738 0.84766-0.56738 2.1396v0.28711q0 1.3125 0.56738 2.1602 0.56738 0.84766 1.7705 0.84766z"/>
  <path id="path3459" d="m397.47 10.951q-1.3877 0-2.3106-1.0254-0.91601-1.0254-0.91601-2.5977v-0.37598q0-1.5859 0.90918-2.6318 0.91601-1.0459 2.2148-1.0459 1.3604 0 2.1396 0.86133 0.7793 0.86133 0.7793 2.2969v0.69727h-5.2227v0.19824q0 1.251 0.66309 2.0918 0.66308 0.84082 1.7432 0.84082 0.76562 0 1.3057-0.21191 0.54004-0.21191 0.92286-0.6084l0.34863 0.56055q-0.41699 0.4375-1.0596 0.69726-0.63574 0.25293-1.5176 0.25293zm-0.10254-6.9795q-0.90918 0-1.5244 0.69727-0.61524 0.69043-0.71778 1.7363l0.0137 0.03418h4.334v-0.20508q0-0.96387-0.56738-1.6133-0.56739-0.64941-1.5381-0.64941z"/>
  <path id="path3461" d="m410.01 10.808q-0.082-0.37598-0.11622-0.64941-0.0342-0.27344-0.0342-0.55371-0.41015 0.58105-1.0938 0.96387-0.68359 0.38281-1.5381 0.38281-1.0801 0-1.6816-0.57422-0.59473-0.57422-0.59473-1.5381 0-1.0254 0.88184-1.6406 0.88867-0.61523 2.3926-0.61523h1.6338v-0.91602q0-0.79297-0.51269-1.2441-0.50586-0.45117-1.4219-0.45117-0.85449 0-1.4219 0.43066-0.56055 0.43066-0.56055 1.0527l-0.75195-0.00684-0.0137-0.041016q-0.041-0.82715 0.75195-1.4766 0.79981-0.65625 2.0303-0.65625 1.2236 0 1.9688 0.62207 0.74512 0.62207 0.74512 1.7842v3.6367q0 0.38965 0.041 0.75879 0.0479 0.36914 0.15039 0.73144h-0.85449zm-2.6865-0.58105q0.88184 0 1.5586-0.41016 0.67675-0.41699 0.97753-1.0596v-1.5449h-1.6475q-1.1142 0-1.7842 0.47852-0.66308 0.47168-0.66308 1.1758 0 0.60156 0.41015 0.98438 0.417 0.37598 1.1484 0.37598z"/>
  <path id="path3463" d="m413.57 3.4111 0.0752 1.292q0.35547-0.68359 0.95704-1.0527 0.60839-0.37598 1.4355-0.37598 1.2031 0 1.832 0.73828 0.62891 0.73145 0.62891 2.29v4.5049h-0.82031v-4.498q0-1.2715-0.47852-1.7979-0.47168-0.52637-1.3467-0.52637-0.86133 0-1.4082 0.45801-0.54004 0.45117-0.7793 1.2031v5.1611h-0.82031v-7.3965h0.72461z"/>
  <path id="path3465" d="m420.32 7.1709q0-1.7705 0.74512-2.8301 0.75195-1.0664 2.0918-1.0664 0.77246 0 1.3398 0.32812 0.56738 0.32812 0.94336 0.92969v-4.3887h0.81347v10.664h-0.72461l-0.0684-1.0732q-0.36914 0.58789-0.95019 0.90234-0.58106 0.31445-1.3672 0.31445-1.3262 0-2.0781-0.98438-0.74512-0.99121-0.74512-2.6523v-0.14355zm0.82031 0.14355q0 1.3398 0.5332 2.1328 0.54004 0.79297 1.6201 0.79297 0.79297 0 1.3193-0.35547 0.5332-0.35547 0.82715-0.98438v-3.4727q-0.28028-0.64258-0.79297-1.0391-0.5127-0.40332-1.3398-0.40332-1.0801 0-1.627 0.88867-0.54004 0.88184-0.54004 2.2969v0.14355z"/>
  <path id="path3467" d="m3.6367 29.951q-1.3877 0-2.3105-1.0254-0.91602-1.0254-0.91602-2.5977v-0.37598q0-1.5859 0.90918-2.6318 0.91602-1.0459 2.2148-1.0459 1.3604 0 2.1396 0.86133 0.7793 0.86133 0.7793 2.2969v0.69727h-5.2227v0.19824q0 1.251 0.66309 2.0918 0.66309 0.84082 1.7432 0.84082 0.76562 0 1.3057-0.21191 0.54004-0.21191 0.92285-0.6084l0.34863 0.56055q-0.41699 0.4375-1.0596 0.69726-0.63574 0.25293-1.5176 0.25293zm-0.1025-6.979q-0.90918 0-1.5244 0.69726-0.61523 0.69043-0.71777 1.7363l0.013672 0.03418h4.334v-0.20508q0-0.96387-0.56738-1.6133-0.5674-0.65-1.5381-0.65z"/>
  <path id="path3469" d="m10.404 25.433 2.0029-3.0215h0.9707l-2.5088 3.6299 2.6113 3.7666h-0.95703l-2.1055-3.1514-2.1055 3.1514h-0.9707l2.6182-3.7666-2.5088-3.6299h0.96387l1.9893 3.0215z"/>
  <path id="path3471" d="m19.626 29.808q-0.08203-0.37598-0.11621-0.64941-0.03418-0.27344-0.03418-0.55371-0.41016 0.58106-1.0938 0.96387-0.68359 0.38281-1.5381 0.38281-1.0801 0-1.6816-0.57422-0.59473-0.57422-0.59473-1.5381 0-1.0254 0.88184-1.6406 0.88867-0.61523 2.3926-0.61523h1.6338v-0.91602q0-0.79297-0.5127-1.2441-0.50586-0.45117-1.4219-0.45117-0.85449 0-1.4219 0.43066-0.56055 0.43066-0.56055 1.0527l-0.75195-0.0068-0.01367-0.04102q-0.04102-0.82715 0.75195-1.4766 0.7998-0.65625 2.0303-0.65625 1.2236 0 1.9688 0.62207 0.74512 0.62207 0.74512 1.7842v3.6367q0 0.38965 0.04102 0.75879 0.04785 0.36914 0.15039 0.73144h-0.85449zm-2.6865-0.58106q0.88184 0 1.5586-0.41016 0.67676-0.41699 0.97754-1.0596v-1.5449h-1.6475q-1.1143 0-1.7842 0.47852-0.66309 0.47168-0.66309 1.1758 0 0.60156 0.41016 0.98438 0.41699 0.37598 1.1484 0.37598z"/>
  <path id="path3473" d="m25.204 29.261q0.81348 0 1.4355-0.46484 0.62207-0.46484 0.62207-1.292h0.72461l0.013 0.041q0.03418 1.0254-0.82031 1.7158-0.85449 0.69043-1.9756 0.69043-1.5107 0-2.3379-1.0322-0.82031-1.0391-0.82031-2.666v-0.28711q0-1.6133 0.82715-2.6523 0.82715-1.0391 2.3242-1.0391 1.2168 0 2.0234 0.71777 0.81348 0.71777 0.78613 1.8867l-0.01367 0.04102h-0.73144q0-0.88867-0.60156-1.415-0.59473-0.5332-1.4629-0.5332-1.1895 0-1.7637 0.85449-0.56738 0.84766-0.56738 2.1396v0.28711q0 1.3125 0.56738 2.1602 0.56738 0.84766 1.7705 0.84766z"/>
  <path id="path3475" d="m30.994 20.518v1.8936h1.627v0.66992h-1.627v4.8193q0 0.72461 0.25976 1.0322 0.2666 0.30078 0.7041 0.30078 0.19824 0 0.38281-0.01367 0.19141-0.02051 0.4375-0.06152l0.12305 0.6084q-0.20508 0.08887-0.49902 0.13672-0.29395 0.04785-0.58789 0.04785-0.7793 0-1.2168-0.49219-0.43066-0.49219-0.43066-1.5586v-4.8193h-1.2783v-0.66992h1.2783v-1.8936h0.82715z"/>
  <path id="path3477" d="m35.082 22.411 0.0752 1.292q0.35547-0.68359 0.95703-1.0527 0.6084-0.37598 1.4355-0.37598 1.2031 0 1.832 0.73828 0.62891 0.73145 0.62891 2.29v4.5049h-0.82031v-4.498q0-1.2715-0.47852-1.7979-0.47168-0.52637-1.3467-0.52637-0.86133 0-1.4082 0.45801-0.54004 0.45117-0.7793 1.2031v5.1611h-0.82031v-7.3965h0.72461z"/>
  <path id="path3479" d="m44.926 29.951q-1.3877 0-2.3105-1.0254-0.91602-1.0254-0.91602-2.5977v-0.37598q0-1.5859 0.90918-2.6318 0.91602-1.0459 2.2148-1.0459 1.3604 0 2.1396 0.86133 0.7793 0.86133 0.7793 2.2969v0.69727h-5.2227v0.19824q0 1.251 0.66309 2.0918 0.66309 0.84082 1.7432 0.84082 0.76562 0 1.3057-0.21191 0.54004-0.21191 0.92285-0.6084l0.34863 0.56055q-0.41699 0.4375-1.0596 0.69726-0.63574 0.25293-1.5176 0.25293zm-0.103-6.979q-0.90918 0-1.5244 0.69726-0.61523 0.69043-0.71777 1.7363l0.01367 0.03418h4.334v-0.20508q0-0.96387-0.56738-1.6133-0.56738-0.64941-1.5381-0.64941z"/>
  <path id="path3481" d="m53.799 27.928q0-0.51953-0.43066-0.90918-0.42383-0.38965-1.5381-0.63574-1.3262-0.28711-1.9619-0.75879-0.62891-0.47168-0.62891-1.333 0-0.84766 0.71094-1.4287 0.71777-0.58789 1.8936-0.58789 1.251 0 1.9824 0.62207 0.73144 0.61524 0.69726 1.5449l-0.01367 0.04102h-0.75879q0-0.6084-0.51953-1.0596-0.5127-0.45117-1.3877-0.45117-0.89551 0-1.3467 0.38965-0.44434 0.38281-0.44434 0.90234 0 0.5127 0.38281 0.84766 0.38965 0.33496 1.5449 0.58789 1.3193 0.29394 1.9756 0.80664 0.65625 0.50586 0.65625 1.3809 0 0.92285-0.75195 1.4971-0.74512 0.56738-1.9756 0.56738-1.3467 0-2.1191-0.64258-0.767-0.643-0.726-1.532l0.01367-0.04102h0.75195q0.04785 0.7998 0.64941 1.1621 0.6084 0.3623 1.4287 0.3623 0.88867 0 1.4014-0.38965 0.5127-0.38965 0.5127-0.94336z"/>
  <path id="path3483" d="m60.936 27.928q0-0.51953-0.43066-0.90918-0.42383-0.38965-1.5381-0.63574-1.3262-0.28711-1.9619-0.75879-0.62891-0.47168-0.62891-1.333 0-0.84766 0.71094-1.4287 0.71777-0.58789 1.8936-0.58789 1.251 0 1.9824 0.62207 0.73144 0.61524 0.69726 1.5449l-0.01367 0.04102h-0.75879q0-0.6084-0.51953-1.0596-0.5127-0.45117-1.3877-0.45117-0.89551 0-1.3467 0.38965-0.44434 0.38281-0.44434 0.90234 0 0.5127 0.38281 0.84766 0.38965 0.33496 1.5449 0.58789 1.3193 0.29394 1.9756 0.80664 0.65625 0.50586 0.65625 1.3809 0 0.92285-0.75195 1.4971-0.74512 0.56738-1.9756 0.56738-1.3467 0-2.1191-0.64258-0.76562-0.64258-0.72461-1.5312l0.01367-0.04102h0.75195q0.04785 0.7998 0.64941 1.1621 0.6084 0.3623 1.4287 0.3623 0.88867 0 1.4014-0.38965 0.5127-0.38965 0.5127-0.94336z"/>
  <path id="path3485" d="m64.641 29.808h-0.93652v-1.1211h0.93652v1.1211z"/>
  <path id="path3487" d="m72.55 27.032h-4.5596l-1.0254 2.7754h-0.84766l3.7803-9.9531h0.77246l3.7529 9.9531h-0.84766l-1.0254-2.7754zm-4.2861-0.73145h4.0195l-1.9824-5.3867h-0.04102l-1.9961 5.3867z"/>
  <path id="path3489" d="m81.689 26.314q0 1.6611-0.75195 2.6523-0.75195 0.98438-2.0713 0.98438-0.81348 0-1.4014-0.32129-0.58789-0.32812-0.9502-0.93652l-0.08887 1.1143h-0.7041v-10.664h0.82031v4.4297q0.36914-0.62207 0.94336-0.95703 0.57422-0.3418 1.3672-0.3418 1.333 0 2.085 1.0664 0.75195 1.0596 0.75195 2.8301v0.14356zm-0.82715-0.14356q0-1.415-0.54688-2.2969-0.54688-0.88867-1.6201-0.88867-0.85449 0-1.3809 0.42383-0.51953 0.42383-0.77246 1.0869v3.3428q0.27344 0.64258 0.81348 1.0254 0.54688 0.37598 1.3535 0.37598 1.0732 0 1.6133-0.79297 0.54004-0.79297 0.54004-2.1328v-0.14356z"/>
  <path id="path3491" d="m83.063 26q0-1.6338 0.89551-2.6797t2.3721-1.0459q1.4834 0 2.3789 1.0459 0.895 1.046 0.895 2.68v0.22559q0 1.6406-0.89551 2.6865-0.88867 1.0391-2.3652 1.0391-1.4902 0-2.3857-1.0391-0.89551-1.0459-0.89551-2.6865v-0.22559zm0.82031 0.22559q0 1.2852 0.64941 2.1602t1.8115 0.875q1.1416 0 1.791-0.875 0.65625-0.875 0.65625-2.1602v-0.22559q0-1.2646-0.65625-2.1465-0.65625-0.88184-1.8047-0.88184t-1.7979 0.88184q-0.648 0.881-0.648 2.146v0.22559z"/>
  <path id="path3493" d="m93.311 27.955 0.23926 0.86816h0.04101l0.25977-0.86816 2.0098-5.5439h0.84766l-2.8096 7.3965h-0.65625l-2.8164-7.3965h0.84766l2.0371 5.5439z"/>
  <path id="path3495" d="m100.76 29.951q-1.3877 0-2.3105-1.0254-0.91602-1.0254-0.91602-2.5977v-0.37598q0-1.5859 0.90918-2.6318 0.91602-1.0459 2.2148-1.0459 1.3604 0 2.1396 0.86133 0.7793 0.86133 0.7793 2.2969v0.69727h-5.2227v0.19824q0 1.251 0.66309 2.0918 0.66309 0.84082 1.7432 0.84082 0.76562 0 1.3057-0.21191 0.54004-0.21191 0.92285-0.6084l0.34864 0.56055q-0.41699 0.4375-1.0596 0.69726-0.63575 0.25293-1.5176 0.25293zm-0.10254-6.9795q-0.90918 0-1.5244 0.69726-0.61524 0.69043-0.71777 1.7363l0.01367 0.03418h4.334v-0.20508q0-0.96387-0.56738-1.6133-0.56739-0.64941-1.5381-0.64941z"/>
  <path id="path3497" d="m113.31 29.808q-0.082-0.37598-0.11621-0.64941-0.0342-0.27344-0.0342-0.55371-0.41015 0.58106-1.0938 0.96387-0.68359 0.38281-1.5381 0.38281-1.0801 0-1.6816-0.57422-0.59473-0.57422-0.59473-1.5381 0-1.0254 0.88184-1.6406 0.88867-0.61523 2.3926-0.61523h1.6338v-0.91602q0-0.79297-0.51269-1.2441-0.50586-0.45117-1.4219-0.45117-0.85449 0-1.4219 0.43066-0.56055 0.43066-0.56055 1.0527l-0.75195-0.0068-0.0137-0.04102q-0.041-0.82715 0.75195-1.4766 0.7998-0.65625 2.0303-0.65625 1.2236 0 1.9688 0.62207 0.74512 0.62207 0.74512 1.7842v3.6367q0 0.38965 0.041 0.75879 0.0478 0.36914 0.15039 0.73144h-0.8545zm-2.6865-0.58106q0.88184 0 1.5586-0.41016 0.67676-0.41699 0.97754-1.0596v-1.5449h-1.6475q-1.1143 0-1.7842 0.47852-0.66308 0.47168-0.66308 1.1758 0 0.60156 0.41015 0.98438 0.417 0.37598 1.1484 0.37598z"/>
  <path id="path3499" d="m117.06 29.808h-0.81347v-10.664h0.81347v10.664z"/>
  <path id="path3501" d="m120.23 29.808h-0.81348v-10.664h0.81348v10.664z"/>
  <path id="path3503" d="m123.26 29.685-0.72461 1.8867h-0.56055l0.47168-1.9072v-1.1416h0.81348v1.1621z"/>
  <path id="path3505" d="m129.4 23.676q0.36914-0.66309 0.98437-1.0322 0.61524-0.36914 1.4356-0.36914 1.1689 0 1.791 0.72461 0.62891 0.72461 0.62891 2.249v4.5596h-0.82031v-4.5732q0-1.2031-0.47852-1.7227-0.47168-0.52637-1.3057-0.52637-0.84082 0-1.4082 0.44434-0.56055 0.4375-0.82715 1.1689v5.209h-0.82032v-10.664h0.82032v4.5322z"/>
  <path id="path3507" d="m137.29 29.808h-0.81348v-7.3965h0.81348v7.3965zm0-9.5156h-0.81348v-1.1484h0.81348v1.1484z"/>
  <path id="path3509" d="m143.98 27.928q0-0.51953-0.43067-0.90918-0.42383-0.38965-1.5381-0.63574-1.3262-0.28711-1.9619-0.75879-0.6289-0.47168-0.6289-1.333 0-0.84766 0.71093-1.4287 0.71778-0.58789 1.8936-0.58789 1.251 0 1.9824 0.62207 0.73144 0.61524 0.69726 1.5449l-0.0137 0.04102h-0.75879q0-0.6084-0.51953-1.0596-0.51269-0.45117-1.3877-0.45117-0.89551 0-1.3467 0.38965-0.44434 0.38281-0.44434 0.90234 0 0.5127 0.38281 0.84766 0.38965 0.33496 1.5449 0.58789 1.3193 0.29394 1.9756 0.80664 0.65625 0.50586 0.65625 1.3809 0 0.92285-0.75195 1.4971-0.74512 0.56738-1.9756 0.56738-1.3467 0-2.1191-0.64258-0.76562-0.64258-0.72461-1.5312l0.0137-0.04102h0.75196q0.0478 0.7998 0.64941 1.1621 0.6084 0.3623 1.4287 0.3623 0.88867 0 1.4014-0.38965 0.5127-0.38965 0.5127-0.94336z"/>
  <path id="path3511" d="m152.84 29.261q0.81347 0 1.4355-0.46484 0.62207-0.46484 0.62207-1.292h0.72461l0.0137 0.04102q0.0342 1.0254-0.82031 1.7158-0.85449 0.69043-1.9756 0.69043-1.5108 0-2.3379-1.0322-0.82032-1.0391-0.82032-2.666v-0.28711q0-1.6133 0.82715-2.6523 0.82715-1.0391 2.3242-1.0391 1.2168 0 2.0234 0.71777 0.81347 0.71777 0.78613 1.8867l-0.0137 0.04102h-0.73145q0-0.88867-0.60156-1.415-0.59473-0.5332-1.4629-0.5332-1.1894 0-1.7637 0.85449-0.56738 0.84766-0.56738 2.1396v0.28711q0 1.3125 0.56738 2.1602 0.56738 0.84766 1.7705 0.84766z"/>
  <path id="path3513" d="m158.27 29.808h-0.81347v-10.664h0.81347v10.664z"/>
  <path id="path3515" d="m161.44 29.808h-0.81348v-7.3965h0.81348v7.3965zm0-9.5156h-0.81348v-1.1484h0.81348v1.1484z"/>
  <path id="path3517" d="m166.47 29.951q-1.3877 0-2.3106-1.0254-0.91601-1.0254-0.91601-2.5977v-0.37598q0-1.5859 0.90918-2.6318 0.91601-1.0459 2.2148-1.0459 1.3604 0 2.1396 0.86133 0.7793 0.86133 0.7793 2.2969v0.69727h-5.2227v0.19824q0 1.251 0.66309 2.0918 0.66308 0.84082 1.7432 0.84082 0.76562 0 1.3057-0.21191 0.54004-0.21191 0.92286-0.6084l0.34863 0.56055q-0.41699 0.4375-1.0596 0.69726-0.63574 0.25293-1.5176 0.25293zm-0.10254-6.9795q-0.90918 0-1.5244 0.69726-0.61524 0.69043-0.71778 1.7363l0.0137 0.03418h4.334v-0.20508q0-0.96387-0.56738-1.6133-0.56739-0.64941-1.5381-0.64941z"/>
  <path id="path3519" d="m171.64 22.411 0.0752 1.292q0.35547-0.68359 0.95704-1.0527 0.60839-0.37598 1.4355-0.37598 1.2031 0 1.832 0.73828 0.62891 0.73145 0.62891 2.29v4.5049h-0.82031v-4.498q0-1.2715-0.47852-1.7979-0.47168-0.52637-1.3467-0.52637-0.86133 0-1.4082 0.45801-0.54004 0.45117-0.7793 1.2031v5.1611h-0.82031v-7.3965h0.72461z"/>
  <path id="path3521" d="m179.99 20.518v1.8936h1.627v0.66992h-1.627v4.8193q0 0.72461 0.25977 1.0322 0.2666 0.30078 0.7041 0.30078 0.19824 0 0.38281-0.01367 0.19141-0.02051 0.4375-0.06152l0.12305 0.6084q-0.20508 0.08887-0.49902 0.13672-0.29395 0.04785-0.58789 0.04785-0.7793 0-1.2168-0.49219-0.43066-0.49219-0.43066-1.5586v-4.8193h-1.2783v-0.66992h1.2783v-1.8936h0.82714z"/>
  <path id="path3523" d="m187.78 27.928q0-0.51953-0.43066-0.90918-0.42383-0.38965-1.5381-0.63574-1.3262-0.28711-1.9619-0.75879-0.62891-0.47168-0.62891-1.333 0-0.84766 0.71094-1.4287 0.71777-0.58789 1.8936-0.58789 1.251 0 1.9824 0.62207 0.73144 0.61524 0.69726 1.5449l-0.0137 0.04102h-0.75879q0-0.6084-0.51953-1.0596-0.5127-0.45117-1.3877-0.45117-0.8955 0-1.3467 0.38965-0.44434 0.38281-0.44434 0.90234 0 0.5127 0.38281 0.84766 0.38965 0.33496 1.5449 0.58789 1.3193 0.29394 1.9756 0.80664 0.65625 0.50586 0.65625 1.3809 0 0.92285-0.75195 1.4971-0.74512 0.56738-1.9756 0.56738-1.3467 0-2.1191-0.64258-0.76563-0.64258-0.72461-1.5312l0.0137-0.04102h0.75196q0.0478 0.7998 0.64941 1.1621 0.6084 0.3623 1.4287 0.3623 0.88867 0 1.4014-0.38965 0.51269-0.38965 0.51269-0.94336z"/>
  <path id="path3525" d="m198.59 29.808q-0.082-0.37598-0.11621-0.64941-0.0342-0.27344-0.0342-0.55371-0.41016 0.58106-1.0938 0.96387-0.68359 0.38281-1.5381 0.38281-1.0801 0-1.6816-0.57422-0.59472-0.57422-0.59472-1.5381 0-1.0254 0.88183-1.6406 0.88867-0.61523 2.3926-0.61523h1.6338v-0.91602q0-0.79297-0.5127-1.2441-0.50586-0.45117-1.4219-0.45117-0.85449 0-1.4219 0.43066-0.56054 0.43066-0.56054 1.0527l-0.75196-0.0068-0.0137-0.04102q-0.041-0.82715 0.75196-1.4766 0.7998-0.65625 2.0303-0.65625 1.2236 0 1.9688 0.62207 0.74512 0.62207 0.74512 1.7842v3.6367q0 0.38965 0.041 0.75879 0.0479 0.36914 0.15039 0.73144h-0.85449zm-2.6865-0.58106q0.88183 0 1.5586-0.41016 0.67676-0.41699 0.97754-1.0596v-1.5449h-1.6475q-1.1143 0-1.7842 0.47852-0.66309 0.47168-0.66309 1.1758 0 0.60156 0.41016 0.98438 0.41699 0.37598 1.1484 0.37598z"/>
  <path id="path3527" d="m207.38 26.314q0 1.6611-0.75196 2.6523-0.75195 0.98438-2.0713 0.98438-0.77929 0-1.3672-0.29394-0.58106-0.29395-0.9502-0.84082v3.835h-0.82031v-10.24h0.69043l0.10254 1.1484q0.36914-0.61523 0.95019-0.9502 0.58789-0.33496 1.3809-0.33496 1.333 0 2.085 1.0664 0.75196 1.0596 0.75196 2.8301v0.14356zm-0.82032-0.14356q0-1.4082-0.56054-2.2969-0.56055-0.88867-1.6406-0.88867-0.82715 0-1.3467 0.39648-0.51269 0.38965-0.77246 1.0186v3.5547q0.28027 0.6084 0.80664 0.95703 0.5332 0.34863 1.3262 0.34863 1.0732 0 1.627-0.80664 0.56054-0.80664 0.56054-2.1396v-0.14356z"/>
  <path id="path3529" d="m215.17 26.314q0 1.6611-0.75195 2.6523-0.75195 0.98438-2.0713 0.98438-0.77929 0-1.3672-0.29394-0.58105-0.29395-0.95019-0.84082v3.835h-0.82031v-10.24h0.69043l0.10254 1.1484q0.36914-0.61523 0.95019-0.9502 0.58789-0.33496 1.3809-0.33496 1.333 0 2.085 1.0664 0.75195 1.0596 0.75195 2.8301v0.14356zm-0.82031-0.14356q0-1.4082-0.56054-2.2969-0.56055-0.88867-1.6406-0.88867-0.82715 0-1.3467 0.39648-0.51269 0.38965-0.77246 1.0186v3.5547q0.28027 0.6084 0.80664 0.95703 0.5332 0.34863 1.3262 0.34863 1.0732 0 1.627-0.80664 0.56054-0.80664 0.56054-2.1396v-0.14356z"/>
  <path id="path3531" d="m220.42 23.115-0.6084-0.04102q-0.77246 0-1.2715 0.4375-0.49219 0.43066-0.70411 1.1895v5.1064h-0.82031v-7.3965h0.71778l0.10253 1.2305v0.08203q0.32129-0.68359 0.86133-1.0664t1.2852-0.38281q0.15723 0 0.30078 0.02734 0.15039 0.02051 0.24609 0.04785l-0.10937 0.76562z"/>
  <path id="path3533" d="m224.41 29.951q-1.3877 0-2.3106-1.0254-0.91602-1.0254-0.91602-2.5977v-0.37598q0-1.5859 0.90918-2.6318 0.91602-1.0459 2.2148-1.0459 1.3604 0 2.1396 0.86133 0.77929 0.86133 0.77929 2.2969v0.69727h-5.2226v0.19824q0 1.251 0.66308 2.0918 0.66309 0.84082 1.7432 0.84082 0.76562 0 1.3057-0.21191 0.54004-0.21191 0.92285-0.6084l0.34863 0.56055q-0.41699 0.4375-1.0596 0.69726-0.63574 0.25293-1.5176 0.25293zm-0.10254-6.9795q-0.90918 0-1.5244 0.69726-0.61523 0.69043-0.71777 1.7363l0.0137 0.03418h4.334v-0.20508q0-0.96387-0.56739-1.6133-0.56738-0.64941-1.5381-0.64941z"/>
  <path id="path3535" d="m231.59 29.261q0.81347 0 1.4355-0.46484 0.62207-0.46484 0.62207-1.292h0.72461l0.0137 0.04102q0.0342 1.0254-0.82031 1.7158-0.85449 0.69043-1.9756 0.69043-1.5108 0-2.3379-1.0322-0.82032-1.0391-0.82032-2.666v-0.28711q0-1.6133 0.82715-2.6523 0.82715-1.0391 2.3242-1.0391 1.2168 0 2.0234 0.71777 0.81347 0.71777 0.78613 1.8867l-0.0137 0.04102h-0.73145q0-0.88867-0.60156-1.415-0.59473-0.5332-1.4629-0.5332-1.1894 0-1.7637 0.85449-0.56738 0.84766-0.56738 2.1396v0.28711q0 1.3125 0.56738 2.1602 0.56738 0.84766 1.7705 0.84766z"/>
  <path id="path3537" d="m237.02 29.808h-0.81347v-7.3965h0.81347v7.3965zm0-9.5156h-0.81347v-1.1484h0.81347v1.1484z"/>
  <path id="path3539" d="m243.95 29.808q-0.082-0.37598-0.11621-0.64941-0.0342-0.27344-0.0342-0.55371-0.41016 0.58106-1.0938 0.96387-0.68359 0.38281-1.5381 0.38281-1.0801 0-1.6816-0.57422-0.59472-0.57422-0.59472-1.5381 0-1.0254 0.88183-1.6406 0.88868-0.61523 2.3926-0.61523h1.6338v-0.91602q0-0.79297-0.51269-1.2441-0.50586-0.45117-1.4219-0.45117-0.85449 0-1.4219 0.43066-0.56055 0.43066-0.56055 1.0527l-0.75195-0.0068-0.0137-0.04102q-0.041-0.82715 0.75196-1.4766 0.7998-0.65625 2.0303-0.65625 1.2236 0 1.9688 0.62207 0.74512 0.62207 0.74512 1.7842v3.6367q0 0.38965 0.041 0.75879 0.0479 0.36914 0.15039 0.73144h-0.85449zm-2.6865-0.58106q0.88183 0 1.5586-0.41016 0.67676-0.41699 0.97754-1.0596v-1.5449h-1.6475q-1.1143 0-1.7842 0.47852-0.66309 0.47168-0.66309 1.1758 0 0.60156 0.41016 0.98438 0.41699 0.37598 1.1484 0.37598z"/>
  <path id="path3541" d="m248.08 20.518v1.8936h1.627v0.66992h-1.627v4.8193q0 0.72461 0.25977 1.0322 0.2666 0.30078 0.7041 0.30078 0.19824 0 0.38281-0.01367 0.19141-0.02051 0.4375-0.06152l0.12305 0.6084q-0.20508 0.08887-0.49903 0.13672-0.29394 0.04785-0.58789 0.04785-0.77929 0-1.2168-0.49219-0.43067-0.49219-0.43067-1.5586v-4.8193h-1.2783v-0.66992h1.2783v-1.8936h0.82715z"/>
  <path id="path3543" d="m254.21 29.951q-1.3877 0-2.3105-1.0254-0.91602-1.0254-0.91602-2.5977v-0.37598q0-1.5859 0.90918-2.6318 0.91602-1.0459 2.2148-1.0459 1.3604 0 2.1396 0.86133 0.7793 0.86133 0.7793 2.2969v0.69727h-5.2227v0.19824q0 1.251 0.66309 2.0918 0.66309 0.84082 1.7432 0.84082 0.76563 0 1.3057-0.21191 0.54004-0.21191 0.92285-0.6084l0.34863 0.56055q-0.41699 0.4375-1.0596 0.69726-0.63574 0.25293-1.5176 0.25293zm-0.1-6.979q-0.90918 0-1.5244 0.69726-0.61523 0.69043-0.71777 1.7363l0.0137 0.03418h4.334v-0.20508q0-0.96387-0.56738-1.6133-0.56738-0.64941-1.5381-0.64941z"/>
  <path id="path3545" d="m262.9 23.676q0.36914-0.66309 0.98438-1.0322 0.61523-0.36914 1.4356-0.36914 1.1689 0 1.791 0.72461 0.62891 0.72461 0.62891 2.249v4.5596h-0.82031v-4.5732q0-1.2031-0.47852-1.7227-0.47168-0.52637-1.3057-0.52637-0.84082 0-1.4082 0.44434-0.56054 0.4375-0.82715 1.1689v5.209h-0.82031v-10.664h0.82031v4.5322z"/>
  <path id="path3547" d="m270.79 29.808h-0.81348v-7.3965h0.81348v7.3965zm0-9.5156h-0.81348v-1.1484h0.81348v1.1484z"/>
  <path id="path3549" d="m277.47 27.928q0-0.51953-0.43066-0.90918-0.42383-0.38965-1.5381-0.63574-1.3262-0.28711-1.9619-0.75879-0.62891-0.47168-0.62891-1.333 0-0.84766 0.71094-1.4287 0.71777-0.58789 1.8936-0.58789 1.251 0 1.9824 0.62207 0.73144 0.61524 0.69726 1.5449l-0.0137 0.04102h-0.75879q0-0.6084-0.51953-1.0596-0.5127-0.45117-1.3877-0.45117-0.8955 0-1.3467 0.38965-0.44434 0.38281-0.44434 0.90234 0 0.5127 0.38281 0.84766 0.38965 0.33496 1.5449 0.58789 1.3193 0.29394 1.9756 0.80664 0.65625 0.50586 0.65625 1.3809 0 0.92285-0.75195 1.4971-0.74512 0.56738-1.9756 0.56738-1.3467 0-2.1191-0.64258-0.76563-0.64258-0.72461-1.5312l0.0137-0.04102h0.75196q0.0478 0.7998 0.64941 1.1621 0.6084 0.3623 1.4287 0.3623 0.88867 0 1.4014-0.38965 0.51269-0.38965 0.51269-0.94336z"/>
  <path id="path3551" d="m283.27 26.171q0-1.7705 0.74512-2.8301 0.75195-1.0664 2.0918-1.0664 0.77246 0 1.3398 0.32812 0.56738 0.32812 0.94336 0.92969v-4.3887h0.81348v10.664h-0.72461l-0.0684-1.0732q-0.36914 0.58789-0.9502 0.90234-0.58105 0.31445-1.3672 0.31445-1.3262 0-2.0781-0.98438-0.74512-0.99121-0.74512-2.6523v-0.14356zm0.82032 0.14356q0 1.3398 0.5332 2.1328 0.54004 0.79297 1.6201 0.79297 0.79297 0 1.3193-0.35547 0.53321-0.35547 0.82715-0.98438v-3.4727q-0.28027-0.64258-0.79297-1.0391-0.51269-0.40332-1.3398-0.40332-1.0801 0-1.627 0.88867-0.54004 0.88184-0.54004 2.2969v0.14356z"/>
  <path id="path3553" d="m292.3 29.808h-0.81348v-7.3965h0.81348v7.3965zm0-9.5156h-0.81348v-1.1484h0.81348v1.1484z"/>
  <path id="path3555" d="m295.48 29.808h-0.81347v-10.664h0.81347v10.664z"/>
  <path id="path3557" d="m298.65 29.808h-0.81348v-7.3965h0.81348v7.3965zm0-9.5156h-0.81348v-1.1484h0.81348v1.1484z"/>
  <path id="path3559" d="m300.58 26.171q0-1.7705 0.75195-2.8301 0.75879-1.0664 2.1055-1.0664 0.78613 0 1.3604 0.34863 0.57422 0.3418 0.9502 0.9707l0.0957-1.1826h0.69043v7.3008q0 1.4287-0.79297 2.2559-0.78613 0.82715-2.1943 0.82715-0.5332 0-1.1348-0.12988-0.60156-0.12988-1.0527-0.35547l0.21192-0.69043q0.4375 0.21875 0.92285 0.32812 0.48535 0.11621 1.0391 0.11621 1.0801 0 1.627-0.62207 0.55371-0.62207 0.55371-1.7295v-0.92969q-0.37598 0.56055-0.9502 0.86816-0.57422 0.30078-1.3398 0.30078-1.333 0-2.0918-0.99121-0.75195-0.99121-0.75195-2.6455v-0.14356zm0.82031 0.14356q0 1.333 0.54688 2.1328 0.54687 0.79297 1.627 0.79297 0.79297 0 1.3193-0.3623 0.53321-0.3623 0.82032-0.99805v-3.4316q-0.2666-0.64258-0.78614-1.0527-0.51269-0.41016-1.3398-0.41016-1.0801 0-1.6338 0.88867-0.55371 0.88867-0.55371 2.2969v0.14356z"/>
  <path id="path3561" d="m311.47 29.951q-1.3877 0-2.3106-1.0254-0.91602-1.0254-0.91602-2.5977v-0.37598q0-1.5859 0.90918-2.6318 0.91602-1.0459 2.2148-1.0459 1.3604 0 2.1396 0.86133 0.77929 0.86133 0.77929 2.2969v0.69727h-5.2226v0.19824q0 1.251 0.66308 2.0918 0.66309 0.84082 1.7432 0.84082 0.76562 0 1.3057-0.21191 0.54004-0.21191 0.92285-0.6084l0.34863 0.56055q-0.41699 0.4375-1.0596 0.69726-0.63574 0.25293-1.5176 0.25293zm-0.10254-6.9795q-0.90918 0-1.5244 0.69726-0.61523 0.69043-0.71777 1.7363l0.0137 0.03418h4.334v-0.20508q0-0.96387-0.56739-1.6133-0.56738-0.64941-1.5381-0.64941z"/>
  <path id="path3563" d="m316.64 22.411 0.0752 1.292q0.35547-0.68359 0.95703-1.0527 0.6084-0.37598 1.4356-0.37598 1.2031 0 1.832 0.73828 0.62891 0.73145 0.62891 2.29v4.5049h-0.82032v-4.498q0-1.2715-0.47851-1.7979-0.47168-0.52637-1.3467-0.52637-0.86133 0-1.4082 0.45801-0.54003 0.45117-0.77929 1.2031v5.1611h-0.82031v-7.3965h0.7246z"/>
  <path id="path3565" d="m326.45 29.261q0.81347 0 1.4355-0.46484 0.62207-0.46484 0.62207-1.292h0.72461l0.0137 0.04102q0.0342 1.0254-0.82031 1.7158-0.85449 0.69043-1.9756 0.69043-1.5108 0-2.3379-1.0322-0.82031-1.0391-0.82031-2.666v-0.28711q0-1.6133 0.82715-2.6523 0.82715-1.0391 2.3242-1.0391 1.2168 0 2.0234 0.71777 0.81347 0.71777 0.78613 1.8867l-0.0137 0.04102h-0.73145q0-0.88867-0.60156-1.415-0.59473-0.5332-1.4629-0.5332-1.1894 0-1.7637 0.85449-0.56739 0.84766-0.56739 2.1396v0.28711q0 1.3125 0.56739 2.1602 0.56738 0.84766 1.7705 0.84766z"/>
  <path id="path3567" d="m333.73 29.951q-1.3877 0-2.3106-1.0254-0.91601-1.0254-0.91601-2.5977v-0.37598q0-1.5859 0.90918-2.6318 0.91601-1.0459 2.2148-1.0459 1.3604 0 2.1396 0.86133 0.77929 0.86133 0.77929 2.2969v0.69727h-5.2226v0.19824q0 1.251 0.66308 2.0918 0.66309 0.84082 1.7432 0.84082 0.76562 0 1.3057-0.21191 0.54004-0.21191 0.92285-0.6084l0.34864 0.56055q-0.417 0.4375-1.0596 0.69726-0.63575 0.25293-1.5176 0.25293zm-0.10254-6.9795q-0.90918 0-1.5244 0.69726-0.61524 0.69043-0.71778 1.7363l0.0137 0.03418h4.334v-0.20508q0-0.96387-0.56738-1.6133-0.56739-0.64941-1.5381-0.64941z"/>
  <path id="path3569" d="m346.27 29.808q-0.082-0.37598-0.11621-0.64941-0.0342-0.27344-0.0342-0.55371-0.41015 0.58106-1.0938 0.96387-0.68359 0.38281-1.5381 0.38281-1.0801 0-1.6816-0.57422-0.59473-0.57422-0.59473-1.5381 0-1.0254 0.88184-1.6406 0.88867-0.61523 2.3926-0.61523h1.6338v-0.91602q0-0.79297-0.51269-1.2441-0.50586-0.45117-1.4219-0.45117-0.85449 0-1.4219 0.43066-0.56055 0.43066-0.56055 1.0527l-0.75195-0.0068-0.0137-0.04102q-0.041-0.82715 0.75195-1.4766 0.7998-0.65625 2.0303-0.65625 1.2236 0 1.9688 0.62207 0.74512 0.62207 0.74512 1.7842v3.6367q0 0.38965 0.041 0.75879 0.0478 0.36914 0.15039 0.73144h-0.8545zm-2.6865-0.58106q0.88184 0 1.5586-0.41016 0.67676-0.41699 0.97754-1.0596v-1.5449h-1.6475q-1.1143 0-1.7842 0.47852-0.66308 0.47168-0.66308 1.1758 0 0.60156 0.41015 0.98438 0.417 0.37598 1.1484 0.37598z"/>
  <path id="path3571" d="m349.84 22.411 0.0752 1.292q0.35547-0.68359 0.95703-1.0527 0.6084-0.37598 1.4356-0.37598 1.2031 0 1.832 0.73828 0.62891 0.73145 0.62891 2.29v4.5049h-0.82031v-4.498q0-1.2715-0.47852-1.7979-0.47168-0.52637-1.3467-0.52637-0.86133 0-1.4082 0.45801-0.54004 0.45117-0.7793 1.2031v5.1611h-0.82031v-7.3965h0.72461z"/>
  <path id="path3573" d="m356.58 26.171q0-1.7705 0.74511-2.8301 0.75196-1.0664 2.0918-1.0664 0.77246 0 1.3398 0.32812 0.56738 0.32812 0.94335 0.92969v-4.3887h0.81348v10.664h-0.72461l-0.0684-1.0732q-0.36914 0.58789-0.95019 0.90234-0.58106 0.31445-1.3672 0.31445-1.3262 0-2.0781-0.98438-0.74511-0.99121-0.74511-2.6523v-0.14356zm0.82031 0.14356q0 1.3398 0.5332 2.1328 0.54004 0.79297 1.6201 0.79297 0.79297 0 1.3193-0.35547 0.5332-0.35547 0.82714-0.98438v-3.4727q-0.28027-0.64258-0.79296-1.0391-0.5127-0.40332-1.3398-0.40332-1.0801 0-1.627 0.88867-0.54004 0.88184-0.54004 2.2969v0.14356z"/>
  <path id="path3575" d="m367.66 26q0-1.6338 0.8955-2.6797 0.89551-1.0459 2.3721-1.0459 1.4834 0 2.3789 1.0459 0.89551 1.0459 0.89551 2.6797v0.22559q0 1.6406-0.89551 2.6865-0.88867 1.0391-2.3652 1.0391-1.4902 0-2.3858-1.0391-0.8955-1.0459-0.8955-2.6865v-0.22559zm0.82031 0.22559q0 1.2852 0.64941 2.1602 0.64942 0.875 1.8115 0.875 1.1416 0 1.791-0.875 0.65625-0.875 0.65625-2.1602v-0.22559q0-1.2646-0.65625-2.1465-0.65625-0.88184-1.8047-0.88184t-1.7978 0.88184q-0.65 0.881-0.65 2.146v0.22559z"/>
  <path id="path3577" d="m381.86 26.314q0 1.6611-0.75195 2.6523-0.75195 0.98438-2.0713 0.98438-0.77929 0-1.3672-0.29394-0.58105-0.29395-0.95019-0.84082v3.835h-0.82031v-10.24h0.69043l0.10254 1.1484q0.36914-0.61523 0.95019-0.9502 0.58789-0.33496 1.3809-0.33496 1.333 0 2.085 1.0664 0.75195 1.0596 0.75195 2.8301v0.14356zm-0.82031-0.14356q0-1.4082-0.56054-2.2969-0.56055-0.88867-1.6406-0.88867-0.82715 0-1.3467 0.39648-0.51269 0.38965-0.77246 1.0186v3.5547q0.28027 0.6084 0.80664 0.95703 0.5332 0.34863 1.3262 0.34863 1.0732 0 1.627-0.80664 0.56054-0.80664 0.56054-2.1396v-0.14356z"/>
  <path id="path3579" d="m386.48 29.951q-1.3877 0-2.3105-1.0254-0.92-1.026-0.92-2.598v-0.37598q0-1.5859 0.90918-2.6318 0.91602-1.0459 2.2148-1.0459 1.3604 0 2.1396 0.86133 0.7793 0.86133 0.7793 2.2969v0.69727h-5.2227v0.19824q0 1.251 0.66309 2.0918 0.66308 0.84082 1.7432 0.84082 0.76563 0 1.3057-0.21191 0.54004-0.21191 0.92285-0.6084l0.34863 0.56055q-0.41699 0.4375-1.0596 0.69726-0.63574 0.25293-1.5176 0.25293zm-0.10254-6.9795q-0.90918 0-1.5244 0.69726-0.61524 0.69043-0.71777 1.7363l0.0137 0.03418h4.334v-0.20508q0-0.96387-0.56738-1.6133-0.56738-0.64941-1.5381-0.64941z"/>
  <path id="path3581" d="m391.64 22.411 0.0752 1.292q0.35547-0.68359 0.95703-1.0527 0.6084-0.37598 1.4355-0.37598 1.2031 0 1.832 0.73828 0.6289 0.73145 0.6289 2.29v4.5049h-0.82031v-4.498q0-1.2715-0.47852-1.7979-0.47168-0.52637-1.3467-0.52637-0.86132 0-1.4082 0.45801-0.54004 0.45117-0.7793 1.2031v5.1611h-0.82031v-7.3965h0.72461z"/>
  <path id="path3583" d="m402.82 22.411 0.0752 1.2236q0.35547-0.64941 0.94336-1.0049 0.59473-0.35547 1.415-0.35547 0.84766 0 1.415 0.41016 0.57422 0.41016 0.82031 1.251 0.33497-0.7793 0.9502-1.2168 0.62207-0.44434 1.5107-0.44434 1.1826 0 1.8252 0.78613 0.64258 0.78613 0.64258 2.4336v4.3135h-0.82032v-4.3271q0-1.3672-0.48535-1.9277-0.47851-0.56738-1.3398-0.56738-0.9502 0-1.4697 0.59473-0.51953 0.59473-0.64258 1.5244 0 0.04785 0 0.13672 0.007 0.08887 0.007 0.12988v4.4365h-0.82715v-4.3271q0-1.3398-0.49219-1.9141-0.48535-0.58105-1.3398-0.58105-0.86817 0-1.3809 0.44434-0.50586 0.4375-0.71094 1.1826v5.1953h-0.82715v-7.3965h0.73145z"/>
  <path id="path3585" d="m415.46 29.808h-0.81348v-7.3965h0.81348v7.3965zm0-9.5156h-0.81348v-1.1484h0.81348v1.1484z"/>
  <path id="path3587" d="m418.44 22.411 0.0752 1.292q0.35547-0.68359 0.95703-1.0527 0.6084-0.37598 1.4356-0.37598 1.2031 0 1.832 0.73828 0.62891 0.73145 0.62891 2.29v4.5049h-0.82032v-4.498q0-1.2715-0.47851-1.7979-0.47168-0.52637-1.3467-0.52637-0.86133 0-1.4082 0.45801-0.54004 0.45117-0.7793 1.2031v5.1611h-0.82031v-7.3965h0.72461z"/>
  <path id="path3589" d="m425.19 26.171q0-1.7705 0.74511-2.8301 0.75196-1.0664 2.0918-1.0664 0.77246 0 1.3398 0.32812 0.56739 0.32812 0.94336 0.92969v-4.3887h0.81348v10.664h-0.72461l-0.0684-1.0732q-0.36914 0.58789-0.95019 0.90234-0.58106 0.31445-1.3672 0.31445-1.3262 0-2.0781-0.98438-0.74511-0.99121-0.74511-2.6523v-0.14356zm0.82031 0.14356q0 1.3398 0.5332 2.1328 0.54004 0.79297 1.6201 0.79297 0.79297 0 1.3193-0.35547 0.5332-0.35547 0.82714-0.98438v-3.4727q-0.28027-0.64258-0.79297-1.0391-0.51269-0.40332-1.3398-0.40332-1.0801 0-1.627 0.88867-0.54004 0.88184-0.54004 2.2969v0.14356z"/>
  <path id="path3591" d="m434.3 29.808h-0.93652v-1.1211h0.93652v1.1211z"/>
  <path id="path3593" d="m6.4326 46.032h-4.5596l-1.0254 2.7754h-0.84766l3.7803-9.9531h0.77246l3.7529 9.9531h-0.84766l-1.0254-2.7754zm-4.2861-0.73145h4.0195l-1.9824-5.3867h-0.041016l-1.9961 5.3867z"/>
  <path id="path3595" d="m10.527 48.808h-0.81348v-10.664h0.81348v10.664z"/>
  <path id="path3597" d="m14.376 46.408 0.28027 1.3193h0.04102l0.34863-1.3193 1.5723-4.9971h0.7041l1.5723 4.9971 0.35547 1.3535h0.04102l0.30762-1.3535 1.3467-4.9971h0.84766l-2.1533 7.3965h-0.69726l-1.6406-5.0586-0.32129-1.2783h-0.04102l-0.32812 1.2783-1.6133 5.0586h-0.7041l-2.1465-7.3965h0.84766l1.3809 4.9971z"/>
  <path id="path3599" d="m28.075 48.808q-0.08203-0.37598-0.11621-0.64941-0.03418-0.27344-0.03418-0.55371-0.41016 0.58106-1.0938 0.96387-0.68359 0.38281-1.5381 0.38281-1.0801 0-1.6816-0.57422-0.59473-0.57422-0.59473-1.5381 0-1.0254 0.88184-1.6406 0.88867-0.61523 2.3926-0.61523h1.6338v-0.91602q0-0.79297-0.5127-1.2441-0.50586-0.45117-1.4219-0.45117-0.85449 0-1.4219 0.43066-0.56055 0.43066-0.56055 1.0527l-0.75195-0.0068-0.01367-0.04102q-0.04102-0.82715 0.75195-1.4766 0.7998-0.65625 2.0303-0.65625 1.2236 0 1.9688 0.62207 0.74512 0.62207 0.74512 1.7842v3.6367q0 0.38965 0.04102 0.75879 0.04785 0.36914 0.15039 0.73144h-0.85449zm-2.6865-0.58106q0.88184 0 1.5586-0.41016 0.67676-0.41699 0.97754-1.0596v-1.5449h-1.6475q-1.1143 0-1.7842 0.47852-0.66309 0.47168-0.66309 1.1758 0 0.60156 0.41016 0.98438 0.41699 0.37598 1.1484 0.37598z"/>
  <path id="path3601" d="m32.901 46.805 0.25977 0.88184h0.04102l2.2354-6.2754h0.91602l-3.2129 8.5791q-0.28711 0.75195-0.74512 1.2783-0.45801 0.52637-1.3398 0.52637-0.14356 0-0.34863-0.03418-0.20508-0.02734-0.30078-0.06152l0.0957-0.68359q0.08203 0.01367 0.25977 0.02734 0.18457 0.02051 0.2666 0.02051 0.5332 0 0.85449-0.38281 0.32129-0.37598 0.54688-0.9707l0.38965-0.99805-2.8574-7.3008h0.90918l2.0303 5.3936z"/>
  <path id="path3603" d="m42.096 46.928q0-0.51953-0.43066-0.90918-0.42383-0.38965-1.5381-0.63574-1.3262-0.28711-1.9619-0.75879-0.62891-0.47168-0.62891-1.333 0-0.84766 0.71094-1.4287 0.71777-0.58789 1.8936-0.58789 1.251 0 1.9824 0.62207 0.73144 0.61524 0.69726 1.5449l-0.01367 0.04102h-0.75879q0-0.6084-0.51953-1.0596-0.5127-0.45117-1.3877-0.45117-0.89551 0-1.3467 0.38965-0.44434 0.38281-0.44434 0.90234 0 0.5127 0.38281 0.84766 0.38965 0.33496 1.5449 0.58789 1.3193 0.29394 1.9756 0.80664 0.65625 0.50586 0.65625 1.3809 0 0.92285-0.75195 1.4971-0.74512 0.56738-1.9756 0.56738-1.3467 0-2.1191-0.64258-0.76562-0.64258-0.72461-1.5312l0.01367-0.04102h0.75195q0.04785 0.7998 0.64941 1.1621 0.6084 0.3623 1.4287 0.3623 0.88867 0 1.4014-0.38965 0.5127-0.38965 0.5127-0.94336z"/>
  <path id="path3605" d="m48.815 48.808v-6.7266h-1.2236v-0.66992h1.2236v-1.0801q0-1.1143 0.55371-1.7227 0.561-0.608 1.566-0.608 0.22559 0 0.45801 0.03418t0.47168 0.0957l-0.10254 0.67676q-0.16406-0.04102-0.3418-0.06152-0.1709-0.02734-0.40332-0.02734-0.66992 0-1.0254 0.42383-0.35547 0.42383-0.35547 1.1895v1.0801h1.7637v0.66992h-1.7637v6.7266h-0.82031z"/>
  <path id="path3607" d="m52.356 45q0-1.6338 0.89551-2.6797t2.3721-1.0459q1.4834 0 2.3789 1.0459 0.896 1.046 0.896 2.68v0.22559q0 1.6406-0.89551 2.6865-0.88867 1.0391-2.3652 1.0391-1.4902 0-2.3857-1.0391-0.89551-1.0459-0.89551-2.6865v-0.22559zm0.82031 0.22559q0 1.2852 0.64941 2.1602t1.8115 0.875q1.1416 0 1.791-0.875 0.65625-0.875 0.65625-2.1602v-0.22559q0-1.2646-0.65625-2.1465-0.65625-0.88184-1.8047-0.88184t-1.7979 0.88184q-0.648 0.881-0.648 2.146v0.22559z"/>
  <path id="path3609" d="m61.523 48.808h-0.81348v-10.664h0.81348v10.664z"/>
  <path id="path3611" d="m64.695 48.808h-0.81348v-10.664h0.81348v10.664z"/>
  <path id="path3613" d="m66.493 45q0-1.6338 0.89551-2.6797t2.3721-1.0459q1.4834 0 2.3789 1.0459 0.895 1.046 0.895 2.68v0.22559q0 1.6406-0.89551 2.6865-0.88867 1.0391-2.3652 1.0391-1.4902 0-2.3857-1.0391-0.89551-1.0459-0.89551-2.6865v-0.22559zm0.82031 0.22559q0 1.2852 0.64941 2.1602t1.8115 0.875q1.1416 0 1.791-0.875 0.65625-0.875 0.65625-2.1602v-0.22559q0-1.2646-0.65625-2.1465-0.65625-0.88184-1.8047-0.88184t-1.7979 0.88184q-0.649 0.881-0.649 2.146v0.22559z"/>
  <path id="path3615" d="m76.337 46.408 0.28027 1.3193h0.04102l0.34863-1.3193 1.5723-4.9971h0.7041l1.5723 4.9971 0.35547 1.3535h0.04102l0.30762-1.3535 1.3467-4.9971h0.84766l-2.1533 7.3965h-0.69727l-1.6406-5.0586-0.32129-1.2783h-0.04102l-0.32812 1.2783-1.6133 5.0586h-0.7041l-2.1465-7.3965h0.84766l1.3809 4.9971z"/>
  <path id="path3617" d="m89.783 46.928q0-0.51953-0.43066-0.90918-0.42383-0.38965-1.5381-0.63574-1.3262-0.28711-1.9619-0.75879-0.62891-0.47168-0.62891-1.333 0-0.84766 0.71094-1.4287 0.71777-0.58789 1.8936-0.58789 1.251 0 1.9824 0.62207 0.73144 0.61524 0.69726 1.5449l-0.01367 0.04102h-0.75879q0-0.6084-0.51953-1.0596-0.5127-0.45117-1.3877-0.45117-0.89551 0-1.3467 0.38965-0.44434 0.38281-0.44434 0.90234 0 0.5127 0.38281 0.84766 0.38965 0.33496 1.5449 0.58789 1.3193 0.29394 1.9756 0.80664 0.65625 0.50586 0.65625 1.3809 0 0.92285-0.75195 1.4971-0.74512 0.56738-1.9756 0.56738-1.3467 0-2.1191-0.64258-0.76562-0.64258-0.72461-1.5312l0.01367-0.04102h0.75195q0.04785 0.7998 0.64941 1.1621 0.6084 0.3623 1.4287 0.3623 0.88867 0 1.4014-0.38965 0.5127-0.38965 0.5127-0.94336z"/>
  <path id="path3619" d="m98.649 48.261q0.81348 0 1.4355-0.46484 0.62207-0.46484 0.62207-1.292h0.72461l0.0137 0.04102q0.0342 1.0254-0.82031 1.7158-0.85449 0.69043-1.9756 0.69043-1.5107 0-2.3379-1.0322-0.82031-1.0391-0.82031-2.666v-0.28711q0-1.6133 0.82715-2.6523 0.82715-1.0391 2.3242-1.0391 1.2168 0 2.0234 0.71777 0.81347 0.71777 0.78613 1.8867l-0.0137 0.04102h-0.73145q0-0.88867-0.60156-1.415-0.59473-0.5332-1.4629-0.5332-1.1895 0-1.7637 0.85449-0.56738 0.84766-0.56738 2.1396v0.28711q0 1.3125 0.56738 2.1602 0.56738 0.84766 1.7705 0.84766z"/>
  <path id="path3621" d="m104.07 48.808h-0.81347v-10.664h0.81347v10.664z"/>
  <path id="path3623" d="m107.24 48.808h-0.81348v-7.3965h0.81348v7.3965zm0-9.5156h-0.81348v-1.1484h0.81348v1.1484z"/>
  <path id="path3625" d="m112.27 48.951q-1.3877 0-2.3106-1.0254-0.91601-1.0254-0.91601-2.5977v-0.37598q0-1.5859 0.90917-2.6318 0.91602-1.0459 2.2148-1.0459 1.3604 0 2.1396 0.86133 0.77929 0.86133 0.77929 2.2969v0.69727h-5.2226v0.19824q0 1.251 0.66308 2.0918 0.66309 0.84082 1.7432 0.84082 0.76562 0 1.3057-0.21191 0.54004-0.21191 0.92285-0.6084l0.34864 0.56055q-0.417 0.4375-1.0596 0.69726-0.63575 0.25293-1.5176 0.25293zm-0.1-6.979q-0.90918 0-1.5244 0.69726-0.61523 0.69043-0.71777 1.7363l0.0137 0.03418h4.334v-0.20508q0-0.96387-0.56739-1.6133-0.56738-0.64941-1.5381-0.64941z"/>
  <path id="path3627" d="m117.44 41.411 0.0752 1.292q0.35547-0.68359 0.95703-1.0527 0.6084-0.37598 1.4356-0.37598 1.2031 0 1.832 0.73828 0.62891 0.73145 0.62891 2.29v4.5049h-0.82032v-4.498q0-1.2715-0.47851-1.7979-0.47168-0.52637-1.3467-0.52637-0.86133 0-1.4082 0.45801-0.54004 0.45117-0.7793 1.2031v5.1611h-0.82031v-7.3965h0.72461z"/>
  <path id="path3629" d="m125.79 39.518v1.8936h1.627v0.66992h-1.627v4.8193q0 0.72461 0.25977 1.0322 0.2666 0.30078 0.7041 0.30078 0.19824 0 0.38281-0.01367 0.19141-0.02051 0.4375-0.06152l0.12305 0.6084q-0.20508 0.08887-0.49902 0.13672-0.29395 0.04785-0.5879 0.04785-0.77929 0-1.2168-0.49219-0.43067-0.49219-0.43067-1.5586v-4.8193h-1.2783v-0.66992h1.2783v-1.8936h0.82715z"/>
  <path id="path3631" d="m133.59 46.928q0-0.51953-0.43066-0.90918-0.42383-0.38965-1.5381-0.63574-1.3262-0.28711-1.9619-0.75879-0.62891-0.47168-0.62891-1.333 0-0.84766 0.71094-1.4287 0.71777-0.58789 1.8936-0.58789 1.251 0 1.9824 0.62207 0.73145 0.61524 0.69727 1.5449l-0.0137 0.04102h-0.75879q0-0.6084-0.51953-1.0596-0.5127-0.45117-1.3877-0.45117-0.89551 0-1.3467 0.38965-0.44433 0.38281-0.44433 0.90234 0 0.5127 0.38281 0.84766 0.38965 0.33496 1.5449 0.58789 1.3193 0.29394 1.9756 0.80664 0.65625 0.50586 0.65625 1.3809 0 0.92285-0.75196 1.4971-0.74511 0.56738-1.9756 0.56738-1.3467 0-2.1191-0.64258-0.76563-0.64258-0.72461-1.5312l0.0137-0.04102h0.75195q0.0479 0.7998 0.64942 1.1621 0.6084 0.3623 1.4287 0.3623 0.88867 0 1.4014-0.38965 0.51269-0.38965 0.51269-0.94336z"/>
  <path id="path3633" d="m137.08 39.367-0.75878 2.0986h-0.48536l0.43067-2.0781v-1.2441h0.81347v1.2236z"/>
  <path id="path3635" d="m143.12 48.808h-0.81348v-7.3965h0.81348v7.3965zm0-9.5156h-0.81348v-1.1484h0.81348v1.1484z"/>
  <path id="path3637" d="m146.1 41.411 0.0752 1.292q0.35547-0.68359 0.95703-1.0527 0.6084-0.37598 1.4356-0.37598 1.2031 0 1.832 0.73828 0.62891 0.73145 0.62891 2.29v4.5049h-0.82032v-4.498q0-1.2715-0.47851-1.7979-0.47168-0.52637-1.3467-0.52637-0.86133 0-1.4082 0.45801-0.54004 0.45117-0.7793 1.2031v5.1611h-0.82031v-7.3965h0.72461z"/>
  <path id="path3639" d="m157.6 46.928q0-0.51953-0.43066-0.90918-0.42383-0.38965-1.5381-0.63574-1.3262-0.28711-1.9619-0.75879-0.62891-0.47168-0.62891-1.333 0-0.84766 0.71094-1.4287 0.71777-0.58789 1.8936-0.58789 1.251 0 1.9824 0.62207 0.73144 0.61524 0.69726 1.5449l-0.0137 0.04102h-0.75879q0-0.6084-0.51953-1.0596-0.5127-0.45117-1.3877-0.45117-0.8955 0-1.3467 0.38965-0.44434 0.38281-0.44434 0.90234 0 0.5127 0.38281 0.84766 0.38965 0.33496 1.5449 0.58789 1.3193 0.29394 1.9756 0.80664 0.65625 0.50586 0.65625 1.3809 0 0.92285-0.75195 1.4971-0.74512 0.56738-1.9756 0.56738-1.3467 0-2.1191-0.64258-0.76563-0.64258-0.72461-1.5312l0.0137-0.04102h0.75196q0.0478 0.7998 0.64941 1.1621 0.6084 0.3623 1.4287 0.3623 0.88867 0 1.4014-0.38965 0.51269-0.38965 0.51269-0.94336z"/>
  <path id="path3641" d="m161.59 39.518v1.8936h1.627v0.66992h-1.627v4.8193q0 0.72461 0.25977 1.0322 0.2666 0.30078 0.7041 0.30078 0.19824 0 0.38281-0.01367 0.19141-0.02051 0.4375-0.06152l0.12305 0.6084q-0.20508 0.08887-0.49903 0.13672-0.29394 0.04785-0.58789 0.04785-0.77929 0-1.2168-0.49219-0.43067-0.49219-0.43067-1.5586v-4.8193h-1.2783v-0.66992h1.2783v-1.8936h0.82715z"/>
  <path id="path3643" d="m168.36 42.115-0.6084-0.04102q-0.77246 0-1.2715 0.4375-0.49219 0.43066-0.70411 1.1895v5.1064h-0.82031v-7.3965h0.71778l0.10253 1.2305v0.08203q0.32129-0.68359 0.86133-1.0664t1.2852-0.38281q0.15723 0 0.30078 0.02734 0.15039 0.02051 0.24609 0.04785l-0.10937 0.76562z"/>
  <path id="path3645" d="m174.56 47.598q-0.35546 0.64941-0.95703 1.0049-0.60156 0.34863-1.4219 0.34863-1.169 0-1.832-0.79297-0.66309-0.79297-0.66309-2.4609v-4.2861h0.82031v4.2998q0 1.3535 0.45801 1.9414 0.46484 0.58789 1.3125 0.58789 0.92969 0 1.4834-0.41699t0.77246-1.1484v-5.2637h0.82031v7.3965h-0.72461l-0.0684-1.21z"/>
  <path id="path3647" d="m180.24 48.261q0.81348 0 1.4356-0.46484 0.62207-0.46484 0.62207-1.292h0.72461l0.0137 0.04102q0.0342 1.0254-0.82031 1.7158-0.85449 0.69043-1.9756 0.69043-1.5107 0-2.3379-1.0322-0.82031-1.0391-0.82031-2.666v-0.28711q0-1.6133 0.82715-2.6523 0.82715-1.0391 2.3242-1.0391 1.2168 0 2.0234 0.71777 0.81347 0.71777 0.78613 1.8867l-0.0137 0.04102h-0.73145q0-0.88867-0.60156-1.415-0.59473-0.5332-1.4629-0.5332-1.1895 0-1.7637 0.85449-0.56739 0.84766-0.56739 2.1396v0.28711q0 1.3125 0.56739 2.1602 0.56738 0.84766 1.7705 0.84766z"/>
  <path id="path3649" d="m186.03 39.518v1.8936h1.627v0.66992h-1.627v4.8193q0 0.72461 0.25977 1.0322 0.2666 0.30078 0.7041 0.30078 0.19824 0 0.38281-0.01367 0.19141-0.02051 0.4375-0.06152l0.12305 0.6084q-0.20508 0.08887-0.49902 0.13672-0.29395 0.04785-0.58789 0.04785-0.7793 0-1.2168-0.49219-0.43067-0.49219-0.43067-1.5586v-4.8193h-1.2783v-0.66992h1.2783v-1.8936h0.82715z"/>
  <path id="path3651" d="m190.31 48.808h-0.81348v-7.3965h0.81348v7.3965zm0-9.5156h-0.81348v-1.1484h0.81348v1.1484z"/>
  <path id="path3653" d="m192.11 45q0-1.6338 0.89551-2.6797t2.3721-1.0459q1.4834 0 2.3789 1.0459t0.8955 2.6797v0.22559q0 1.6406-0.8955 2.6865-0.88868 1.0391-2.3652 1.0391-1.4902 0-2.3857-1.0391-0.89551-1.0459-0.89551-2.6865v-0.22559zm0.82031 0.22559q0 1.2852 0.64942 2.1602 0.64941 0.875 1.8115 0.875 1.1416 0 1.791-0.875 0.65625-0.875 0.65625-2.1602v-0.22559q0-1.2646-0.65625-2.1465-0.65625-0.88184-1.8047-0.88184t-1.7978 0.88184q-0.65 0.881-0.65 2.146v0.22559z"/>
  <path id="path3655" d="m201.09 41.411 0.0752 1.292q0.35547-0.68359 0.95703-1.0527 0.6084-0.37598 1.4356-0.37598 1.2031 0 1.832 0.73828 0.62891 0.73145 0.62891 2.29v4.5049h-0.82031v-4.498q0-1.2715-0.47852-1.7979-0.47168-0.52637-1.3467-0.52637-0.86133 0-1.4082 0.45801-0.54004 0.45117-0.7793 1.2031v5.1611h-0.82031v-7.3965h0.72461z"/>
  <path id="path3657" d="m212.58 46.928q0-0.51953-0.43066-0.90918-0.42383-0.38965-1.5381-0.63574-1.3262-0.28711-1.9619-0.75879-0.62891-0.47168-0.62891-1.333 0-0.84766 0.71094-1.4287 0.71777-0.58789 1.8936-0.58789 1.251 0 1.9824 0.62207 0.73144 0.61524 0.69726 1.5449l-0.0137 0.04102h-0.75879q0-0.6084-0.51953-1.0596-0.51269-0.45117-1.3877-0.45117-0.89551 0-1.3467 0.38965-0.44434 0.38281-0.44434 0.90234 0 0.5127 0.38281 0.84766 0.38965 0.33496 1.5449 0.58789 1.3193 0.29394 1.9756 0.80664 0.65625 0.50586 0.65625 1.3809 0 0.92285-0.75195 1.4971-0.74512 0.56738-1.9756 0.56738-1.3467 0-2.1191-0.64258-0.76562-0.64258-0.72461-1.5312l0.0137-0.04102h0.75196q0.0478 0.7998 0.64941 1.1621 0.6084 0.3623 1.4287 0.3623 0.88867 0 1.4014-0.38965 0.51269-0.38965 0.51269-0.94336z"/>
  <path id="path3659" d="m219.99 39.518v1.8936h1.627v0.66992h-1.627v4.8193q0 0.72461 0.25977 1.0322 0.2666 0.30078 0.7041 0.30078 0.19824 0 0.38281-0.01367 0.19141-0.02051 0.4375-0.06152l0.12305 0.6084q-0.20508 0.08887-0.49903 0.13672-0.29394 0.04785-0.58789 0.04785-0.77929 0-1.2168-0.49219-0.43067-0.49219-0.43067-1.5586v-4.8193h-1.2783v-0.66992h1.2783v-1.8936h0.82715z"/>
  <path id="path3661" d="m222.76 45q0-1.6338 0.8955-2.6797 0.89551-1.0459 2.3721-1.0459 1.4834 0 2.3789 1.0459 0.89551 1.0459 0.89551 2.6797v0.22559q0 1.6406-0.89551 2.6865-0.88867 1.0391-2.3652 1.0391-1.4902 0-2.3858-1.0391-0.8955-1.0459-0.8955-2.6865v-0.22559zm0.82031 0.22559q0 1.2852 0.64941 2.1602 0.64942 0.875 1.8115 0.875 1.1416 0 1.791-0.875 0.65625-0.875 0.65625-2.1602v-0.22559q0-1.2646-0.65625-2.1465-0.65625-0.88184-1.8047-0.88184t-1.7978 0.88184q-0.65 0.881-0.65 2.146v0.22559z"/>
  <path id="path3663" d="m239.11 48.808q-0.082-0.37598-0.11621-0.64941-0.0342-0.27344-0.0342-0.55371-0.41016 0.58106-1.0938 0.96387-0.6836 0.38281-1.5381 0.38281-1.0801 0-1.6816-0.57422-0.59473-0.57422-0.59473-1.5381 0-1.0254 0.88184-1.6406 0.88867-0.61523 2.3926-0.61523h1.6338v-0.91602q0-0.79297-0.5127-1.2441-0.50586-0.45117-1.4219-0.45117-0.8545 0-1.4219 0.43066-0.56055 0.43066-0.56055 1.0527l-0.75195-0.0068-0.0137-0.04102q-0.041-0.82715 0.75195-1.4766 0.79981-0.65625 2.0303-0.65625 1.2236 0 1.9688 0.62207 0.74511 0.62207 0.74511 1.7842v3.6367q0 0.38965 0.041 0.75879 0.0478 0.36914 0.15039 0.73144h-0.85449zm-2.6865-0.58106q0.88184 0 1.5586-0.41016 0.67676-0.41699 0.97754-1.0596v-1.5449h-1.6475q-1.1143 0-1.7842 0.47852-0.66309 0.47168-0.66309 1.1758 0 0.60156 0.41016 0.98438 0.41699 0.37598 1.1484 0.37598z"/>
  <path id="path3665" d="m246.65 39.518v1.8936h1.627v0.66992h-1.627v4.8193q0 0.72461 0.25976 1.0322 0.2666 0.30078 0.7041 0.30078 0.19825 0 0.38282-0.01367 0.1914-0.02051 0.4375-0.06152l0.12304 0.6084q-0.20507 0.08887-0.49902 0.13672t-0.58789 0.04785q-0.7793 0-1.2168-0.49219-0.43066-0.49219-0.43066-1.5586v-4.8193h-1.2783v-0.66992h1.2783v-1.8936h0.82715z"/>
  <path id="path3667" d="m250.79 48.685-0.72461 1.8867h-0.56055l0.47168-1.9072v-1.1416h0.81348v1.1621z"/>
  <path id="path3669" d="m259.52 42.115-0.6084-0.04102q-0.77246 0-1.2715 0.4375-0.49219 0.43066-0.7041 1.1895v5.1064h-0.82032v-7.3965h0.71778l0.10254 1.2305v0.08203q0.32129-0.68359 0.86132-1.0664 0.54004-0.38281 1.2852-0.38281 0.15723 0 0.30078 0.02734 0.15039 0.02051 0.2461 0.04785l-0.10938 0.76562z"/>
  <path id="path3671" d="m263.51 48.951q-1.3877 0-2.3106-1.0254-0.91601-1.0254-0.91601-2.5977v-0.37598q0-1.5859 0.90918-2.6318 0.91601-1.0459 2.2148-1.0459 1.3604 0 2.1396 0.86133 0.77929 0.86133 0.77929 2.2969v0.69727h-5.2226v0.19824q0 1.251 0.66308 2.0918 0.66309 0.84082 1.7432 0.84082 0.76562 0 1.3057-0.21191 0.54004-0.21191 0.92285-0.6084l0.34864 0.56055q-0.417 0.4375-1.0596 0.69726-0.63575 0.25293-1.5176 0.25293zm-0.10254-6.9795q-0.90918 0-1.5244 0.69726-0.61524 0.69043-0.71778 1.7363l0.0137 0.03418h4.334v-0.20508q0-0.96387-0.56738-1.6133-0.56739-0.64941-1.5381-0.64941z"/>
  <path id="path3673" d="m272.38 46.928q0-0.51953-0.43067-0.90918-0.42383-0.38965-1.5381-0.63574-1.3262-0.28711-1.9619-0.75879-0.6289-0.47168-0.6289-1.333 0-0.84766 0.71093-1.4287 0.71778-0.58789 1.8936-0.58789 1.251 0 1.9824 0.62207 0.73144 0.61524 0.69726 1.5449l-0.0137 0.04102h-0.75879q0-0.6084-0.51953-1.0596-0.51269-0.45117-1.3877-0.45117-0.89551 0-1.3467 0.38965-0.44434 0.38281-0.44434 0.90234 0 0.5127 0.38281 0.84766 0.38965 0.33496 1.5449 0.58789 1.3193 0.29394 1.9756 0.80664 0.65625 0.50586 0.65625 1.3809 0 0.92285-0.75195 1.4971-0.74512 0.56738-1.9756 0.56738-1.3467 0-2.1191-0.64258-0.76562-0.64258-0.72461-1.5312l0.0137-0.04102h0.75196q0.0478 0.7998 0.64941 1.1621 0.6084 0.3623 1.4287 0.3623 0.88867 0 1.4014-0.38965 0.5127-0.38965 0.5127-0.94336z"/>
  <path id="path3675" d="m279.94 47.598q-0.35547 0.64941-0.95703 1.0049-0.60157 0.34863-1.4219 0.34863-1.169 0-1.832-0.79297-0.66309-0.79297-0.66309-2.4609v-4.2861h0.82032v4.2998q0 1.3535 0.458 1.9414 0.46485 0.58789 1.3125 0.58789 0.92969 0 1.4834-0.41699t0.77246-1.1484v-5.2637h0.82032v7.3965h-0.72461l-0.0684-1.21z"/>
  <path id="path3677" d="m283.8 48.808h-0.81348v-10.664h0.81348v10.664z"/>
  <path id="path3679" d="m287.34 39.518v1.8936h1.627v0.66992h-1.627v4.8193q0 0.72461 0.25976 1.0322 0.2666 0.30078 0.7041 0.30078 0.19825 0 0.38282-0.01367 0.1914-0.02051 0.4375-0.06152l0.12304 0.6084q-0.20507 0.08887-0.49902 0.13672t-0.58789 0.04785q-0.7793 0-1.2168-0.49219-0.43066-0.49219-0.43066-1.5586v-4.8193h-1.2783v-0.66992h1.2783v-1.8936h0.82715z"/>
  <path id="path3681" d="m291.62 48.808h-0.81347v-7.3965h0.81347v7.3965zm0-9.5156h-0.81347v-1.1484h0.81347v1.1484z"/>
  <path id="path3683" d="m294.6 41.411 0.0752 1.292q0.35547-0.68359 0.95703-1.0527 0.6084-0.37598 1.4356-0.37598 1.2031 0 1.832 0.73828 0.6289 0.73145 0.6289 2.29v4.5049h-0.82031v-4.498q0-1.2715-0.47851-1.7979-0.47168-0.52637-1.3467-0.52637-0.86133 0-1.4082 0.45801-0.54004 0.45117-0.77929 1.2031v5.1611h-0.82032v-7.3965h0.72461z"/>
  <path id="path3685" d="m301.35 45.171q0-1.7705 0.75196-2.8301 0.75878-1.0664 2.1055-1.0664 0.78614 0 1.3604 0.34863 0.57421 0.3418 0.95019 0.9707l0.0957-1.1826h0.69043v7.3008q0 1.4287-0.79296 2.2559-0.78614 0.82715-2.1943 0.82715-0.5332 0-1.1348-0.12988-0.60156-0.12988-1.0527-0.35547l0.21191-0.69043q0.4375 0.21875 0.92286 0.32812 0.48535 0.11621 1.0391 0.11621 1.0801 0 1.627-0.62207 0.55371-0.62207 0.55371-1.7295v-0.92969q-0.37597 0.56055-0.95019 0.86816-0.57422 0.30078-1.3398 0.30078-1.333 0-2.0918-0.99121-0.75196-0.99121-0.75196-2.6455v-0.14356zm0.82032 0.14356q0 1.333 0.54687 2.1328 0.54688 0.79297 1.627 0.79297 0.79297 0 1.3193-0.3623 0.5332-0.3623 0.82031-0.99805v-3.4316q-0.2666-0.64258-0.78613-1.0527-0.5127-0.41016-1.3398-0.41016-1.0801 0-1.6338 0.88867-0.55371 0.88867-0.55371 2.2969v0.14356z"/>
  <path id="path3687" d="m313.8 48.808h-0.81347v-7.3965h0.81347v7.3965zm0-9.5156h-0.81347v-1.1484h0.81347v1.1484z"/>
  <path id="path3689" d="m316.78 41.411 0.0752 1.292q0.35547-0.68359 0.95703-1.0527 0.6084-0.37598 1.4356-0.37598 1.2031 0 1.832 0.73828 0.6289 0.73145 0.6289 2.29v4.5049h-0.82031v-4.498q0-1.2715-0.47851-1.7979-0.47168-0.52637-1.3467-0.52637-0.86133 0-1.4082 0.45801-0.54004 0.45117-0.77929 1.2031v5.1611h-0.82032v-7.3965h0.72461z"/>
  <path id="path3691" d="m328.08 42.676q0.36914-0.66309 0.98438-1.0322 0.61523-0.36914 1.4356-0.36914 1.1689 0 1.791 0.72461 0.62891 0.72461 0.62891 2.249v4.5596h-0.82031v-4.5732q0-1.2031-0.47852-1.7227-0.47168-0.52637-1.3057-0.52637-0.84082 0-1.4082 0.44434-0.56054 0.4375-0.82715 1.1689v5.209h-0.82031v-10.664h0.82031v4.5322z"/>
  <path id="path3693" d="m335.97 48.808h-0.81348v-7.3965h0.81348v7.3965zm0-9.5156h-0.81348v-1.1484h0.81348v1.1484z"/>
  <path id="path3695" d="m337.91 45.171q0-1.7705 0.75195-2.8301 0.75879-1.0664 2.1055-1.0664 0.78613 0 1.3604 0.34863 0.57422 0.3418 0.9502 0.9707l0.0957-1.1826h0.69043v7.3008q0 1.4287-0.79297 2.2559-0.78613 0.82715-2.1943 0.82715-0.5332 0-1.1348-0.12988-0.60156-0.12988-1.0527-0.35547l0.21192-0.69043q0.4375 0.21875 0.92285 0.32812 0.48535 0.11621 1.0391 0.11621 1.0801 0 1.627-0.62207 0.55372-0.62207 0.55372-1.7295v-0.92969q-0.37598 0.56055-0.9502 0.86816-0.57422 0.30078-1.3398 0.30078-1.333 0-2.0918-0.99121-0.75195-0.99121-0.75195-2.6455v-0.14356zm0.82031 0.14356q0 1.333 0.54687 2.1328 0.54688 0.79297 1.627 0.79297 0.79297 0 1.3193-0.3623 0.53321-0.3623 0.82032-0.99805v-3.4316q-0.26661-0.64258-0.78614-1.0527-0.51269-0.41016-1.3398-0.41016-1.0801 0-1.6338 0.88867-0.55371 0.88867-0.55371 2.2969v0.14356z"/>
  <path id="path3697" d="m346.84 42.676q0.36914-0.66309 0.98437-1.0322 0.61524-0.36914 1.4356-0.36914 1.1689 0 1.791 0.72461 0.62891 0.72461 0.62891 2.249v4.5596h-0.82031v-4.5732q0-1.2031-0.47852-1.7227-0.47168-0.52637-1.3057-0.52637-0.84082 0-1.4082 0.44434-0.56055 0.4375-0.82715 1.1689v5.209h-0.82032v-10.664h0.82032v4.5322z"/>
  <path id="path3699" d="m356.34 44.911h-3.2744v-0.69043h3.2744v0.69043z"/>
  <path id="path3701" d="m357.51 45.171q0-1.7705 0.74511-2.8301 0.75196-1.0664 2.0918-1.0664 0.75879 0 1.3262 0.32129 0.57422 0.31445 0.94336 0.90234l0.082-1.0869h0.71094v10.24h-0.81348v-3.8145q-0.37597 0.54004-0.94336 0.82715-0.56738 0.28711-1.3193 0.28711-1.3262 0-2.0781-0.98438-0.74511-0.99121-0.74511-2.6523v-0.14356zm0.82031 0.14356q0 1.3398 0.5332 2.1465 0.54004 0.7998 1.6201 0.7998 0.76562 0 1.2852-0.3418 0.52637-0.34863 0.82715-0.94336v-3.623q-0.28027-0.6084-0.7998-0.99121-0.5127-0.38965-1.2988-0.38965-1.0801 0-1.627 0.89551-0.54004 0.88867-0.54004 2.3037v0.14356z"/>
  <path id="path3703" d="m370.47 47.598q-0.35547 0.64941-0.95703 1.0049-0.60156 0.34863-1.4219 0.34863-1.169 0-1.832-0.79297-0.66309-0.79297-0.66309-2.4609v-4.2861h0.82031v4.2998q0 1.3535 0.45801 1.9414 0.46484 0.58789 1.3125 0.58789 0.92969 0 1.4834-0.41699t0.77246-1.1484v-5.2637h0.82031v7.3965h-0.72461l-0.0684-1.21z"/>
  <path id="path3705" d="m378.1 48.808q-0.082-0.37598-0.11621-0.64941-0.0342-0.27344-0.0342-0.55371-0.41016 0.58106-1.0938 0.96387-0.6836 0.38281-1.5381 0.38281-1.0801 0-1.6816-0.57422-0.59472-0.57422-0.59472-1.5381 0-1.0254 0.88183-1.6406 0.88867-0.61523 2.3926-0.61523h1.6338v-0.91602q0-0.79297-0.5127-1.2441-0.50586-0.45117-1.4219-0.45117-0.85449 0-1.4219 0.43066-0.56054 0.43066-0.56054 1.0527l-0.75196-0.0068-0.0137-0.04102q-0.041-0.82715 0.75195-1.4766 0.79981-0.65625 2.0303-0.65625 1.2236 0 1.9688 0.62207 0.74511 0.62207 0.74511 1.7842v3.6367q0 0.38965 0.041 0.75879 0.0478 0.36914 0.15039 0.73144h-0.85449zm-2.6865-0.58106q0.88183 0 1.5586-0.41016 0.67676-0.41699 0.97754-1.0596v-1.5449h-1.6475q-1.1143 0-1.7842 0.47852-0.66309 0.47168-0.66309 1.1758 0 0.60156 0.41016 0.98438 0.41699 0.37598 1.1484 0.37598z"/>
  <path id="path3707" d="m381.86 48.808h-0.81348v-10.664h0.81348v10.664z"/>
  <path id="path3709" d="m385.03 48.808h-0.81347v-7.3965h0.81347v7.3965zm0-9.5156h-0.81347v-1.1484h0.81347v1.1484z"/>
  <path id="path3711" d="m388.57 39.518v1.8936h1.627v0.66992h-1.627v4.8193q0 0.72461 0.25976 1.0322 0.26661 0.30078 0.70411 0.30078 0.19824 0 0.38281-0.01367 0.19141-0.02051 0.4375-0.06152l0.12305 0.6084q-0.20508 0.08887-0.49903 0.13672-0.29394 0.04785-0.58789 0.04785-0.7793 0-1.2168-0.49219-0.43066-0.49219-0.43066-1.5586v-4.8193h-1.2783v-0.66992h1.2783v-1.8936h0.82715z"/>
  <path id="path3713" d="m394.03 46.805 0.25977 0.88184h0.041l2.2354-6.2754h0.91601l-3.2129 8.5791q-0.28711 0.75195-0.74512 1.2783-0.458 0.52637-1.3398 0.52637-0.14355 0-0.34863-0.03418-0.20508-0.02734-0.30078-0.06152l0.0957-0.68359q0.082 0.01367 0.25976 0.02734 0.18458 0.02051 0.26661 0.02051 0.5332 0 0.85449-0.38281 0.32129-0.37598 0.54687-0.9707l0.38965-0.99805-2.8574-7.3008h0.90918l2.0303 5.3936z"/>
  <path id="path3715" d="m3.6025 67.261q0.81348 0 1.4355-0.46484 0.62207-0.46484 0.62207-1.292h0.72461l0.013672 0.04102q0.03418 1.0254-0.82031 1.7158-0.85449 0.69043-1.9756 0.69043-1.5107 0-2.3379-1.0322-0.82026-1.039-0.82026-2.666v-0.28711q0-1.6133 0.82715-2.6523 0.82715-1.0391 2.3242-1.0391 1.2168 0 2.0234 0.71777 0.81348 0.71777 0.78613 1.8867l-0.013672 0.04102h-0.73145q0-0.88867-0.60156-1.415-0.59473-0.5332-1.4629-0.5332-1.1895 0-1.7637 0.85449-0.56738 0.84766-0.56738 2.1396v0.28711q0 1.3125 0.56738 2.1602 0.56738 0.84766 1.7705 0.84766z"/>
  <path id="path3717" d="m12.954 66.598q-0.35547 0.64941-0.95703 1.0049-0.60156 0.34863-1.4219 0.34863-1.1689 0-1.832-0.79297-0.66309-0.79297-0.66309-2.4609v-4.2861h0.82031v4.2998q0 1.3535 0.45801 1.9414 0.46484 0.58789 1.3125 0.58789 0.92969 0 1.4834-0.41699t0.77246-1.1484v-5.2637h0.82031v7.3965h-0.72461l-0.06836-1.21z"/>
  <path id="path3719" d="m20.33 65.928q0-0.51953-0.43066-0.90918-0.42383-0.38965-1.5381-0.63574-1.3262-0.28711-1.9619-0.75879-0.62891-0.47168-0.62891-1.333 0-0.84766 0.71094-1.4287 0.71777-0.58789 1.8936-0.58789 1.251 0 1.9824 0.62207 0.73144 0.61524 0.69726 1.5449l-0.01367 0.04102h-0.75879q0-0.6084-0.51953-1.0596-0.513-0.451-1.388-0.451-0.89551 0-1.3467 0.38965-0.44434 0.38281-0.44434 0.90234 0 0.5127 0.38281 0.84766 0.38965 0.33496 1.5449 0.58789 1.3193 0.29394 1.9756 0.80664 0.65625 0.50586 0.65625 1.3809 0 0.92285-0.75195 1.4971-0.74512 0.56738-1.9756 0.56738-1.3467 0-2.1191-0.64258-0.76562-0.64258-0.72461-1.5312l0.01367-0.04102h0.75195q0.04785 0.7998 0.64941 1.1621 0.6084 0.3623 1.4287 0.3623 0.88867 0 1.4014-0.38965 0.5127-0.38965 0.5127-0.94336z"/>
  <path id="path3721" d="m24.322 58.518v1.8936h1.627v0.66992h-1.627v4.8193q0 0.72461 0.25976 1.0322 0.2666 0.30078 0.7041 0.30078 0.19824 0 0.38281-0.01367 0.19141-0.02051 0.4375-0.06152l0.12305 0.6084q-0.20508 0.08887-0.49902 0.13672-0.29395 0.04785-0.58789 0.04785-0.7793 0-1.2168-0.49219-0.43066-0.49219-0.43066-1.5586v-4.8193h-1.2783v-0.66992h1.2783v-1.8936h0.82715z"/>
  <path id="path3723" d="m27.091 64q0-1.6338 0.89551-2.6797t2.3721-1.0459q1.4834 0 2.3789 1.0459 0.895 1.046 0.895 2.68v0.22559q0 1.6406-0.89551 2.6865-0.88867 1.0391-2.3652 1.0391-1.4902 0-2.3857-1.0391-0.89551-1.0459-0.89551-2.6865v-0.22559zm0.82031 0.22559q0 1.2852 0.64941 2.1602t1.8115 0.875q1.1416 0 1.791-0.875 0.65625-0.875 0.65625-2.1602v-0.22559q0-1.2646-0.65625-2.1465-0.65625-0.88184-1.8047-0.88184t-1.7979 0.88184q-0.649 0.881-0.649 2.146v0.22559z"/>
  <path id="path3725" d="m36.032 60.411 0.0752 1.2236q0.35547-0.64941 0.94336-1.0049 0.59473-0.35547 1.415-0.35547 0.84766 0 1.415 0.41016 0.57422 0.41016 0.82031 1.251 0.33496-0.7793 0.9502-1.2168 0.62207-0.44434 1.5107-0.44434 1.1826 0 1.8252 0.78613 0.64258 0.78613 0.64258 2.4336v4.3135h-0.82031v-4.3271q0-1.3672-0.48535-1.9277-0.47852-0.56738-1.3398-0.56738-0.9502 0-1.4697 0.59473-0.51953 0.59473-0.64258 1.5244 0 0.04785 0 0.13672 0.0068 0.08887 0.0068 0.12988v4.4365h-0.82715v-4.3271q0-1.3398-0.49219-1.9141-0.48535-0.58105-1.3398-0.58105-0.86816 0-1.3809 0.44434-0.50586 0.4375-0.71094 1.1826v5.1953h-0.82715v-7.3965h0.73145z"/>
  <path id="path3727" d="m48.672 67.808h-0.81348v-7.3965h0.81348v7.3965zm0-9.5156h-0.81348v-1.1484h0.81348v1.1484z"/>
  <path id="path3729" d="m51.475 67.117h4.8057v0.69043h-5.8174v-0.60156l4.457-6.0908h-4.3203v-0.7041h5.3525v0.6084l-4.4775 6.0977z"/>
  <path id="path3731" d="m60.457 67.951q-1.3877 0-2.3105-1.0254-0.91602-1.0254-0.91602-2.5977v-0.37598q0-1.5859 0.90918-2.6318 0.91602-1.0459 2.2148-1.0459 1.3604 0 2.1396 0.86133 0.7793 0.86133 0.7793 2.2969v0.69727h-5.2227v0.19824q0 1.251 0.66309 2.0918 0.66309 0.84082 1.7432 0.84082 0.76562 0 1.3057-0.21191 0.54004-0.21191 0.92285-0.6084l0.34863 0.56055q-0.41699 0.4375-1.0596 0.69726-0.63574 0.25293-1.5176 0.25293zm-0.103-6.979q-0.90918 0-1.5244 0.69726-0.61523 0.69043-0.71777 1.7363l0.01367 0.03418h4.334v-0.20508q0-0.96387-0.56738-1.6133-0.56738-0.64941-1.5381-0.64941z"/>
  <path id="path3733" d="m64.579 64.171q0-1.7705 0.74512-2.8301 0.75195-1.0664 2.0918-1.0664 0.77246 0 1.3398 0.32812 0.56738 0.32812 0.94336 0.92969v-4.3887h0.81348v10.664h-0.72461l-0.06836-1.0732q-0.36914 0.58789-0.9502 0.90234-0.58105 0.31445-1.3672 0.31445-1.3262 0-2.0781-0.98438-0.74512-0.99121-0.74512-2.6523v-0.14356zm0.82031 0.14356q0 1.3398 0.5332 2.1328 0.54004 0.79297 1.6201 0.79297 0.79297 0 1.3193-0.35547 0.5332-0.35547 0.82715-0.98438v-3.4727q-0.28027-0.64258-0.79297-1.0391-0.5127-0.40332-1.3398-0.40332-1.0801 0-1.627 0.88867-0.54004 0.88184-0.54004 2.2969v0.14356z"/>
  <path id="path3735" d="m82.065 64.314q0 1.6611-0.75195 2.6523-0.75195 0.98438-2.0713 0.98438-0.7793 0-1.3672-0.29394-0.58106-0.29395-0.9502-0.84082v3.835h-0.82031v-10.24h0.69043l0.10254 1.1484q0.36914-0.61523 0.9502-0.9502 0.58789-0.33496 1.3809-0.33496 1.333 0 2.085 1.0664 0.75195 1.0596 0.75195 2.8301v0.14356zm-0.82031-0.14356q0-1.4082-0.56055-2.2969-0.56055-0.88867-1.6406-0.88867-0.82715 0-1.3467 0.39648-0.5127 0.38965-0.77246 1.0186v3.5547q0.28027 0.6084 0.80664 0.95703 0.5332 0.34863 1.3262 0.34863 1.0732 0 1.627-0.80664 0.56055-0.80664 0.56055-2.1396v-0.14356z"/>
  <path id="path3737" d="m88.587 67.808q-0.08203-0.37598-0.11621-0.64941-0.03418-0.27344-0.03418-0.55371-0.41016 0.58106-1.0938 0.96387-0.68359 0.38281-1.5381 0.38281-1.0801 0-1.6816-0.57422-0.59473-0.57422-0.59473-1.5381 0-1.0254 0.88184-1.6406 0.88867-0.61523 2.3926-0.61523h1.6338v-0.91602q0-0.79297-0.5127-1.2441-0.50586-0.45117-1.4219-0.45117-0.85449 0-1.4219 0.43066-0.56055 0.43066-0.56055 1.0527l-0.75195-0.0068-0.01367-0.04102q-0.04102-0.82715 0.75195-1.4766 0.7998-0.65625 2.0303-0.65625 1.2236 0 1.9688 0.62207 0.745 0.622 0.745 1.784v3.6367q0 0.38965 0.04102 0.75879 0.04785 0.36914 0.15039 0.73144h-0.85449zm-2.6865-0.58106q0.88184 0 1.5586-0.41016 0.67676-0.41699 0.97754-1.0596v-1.5449h-1.6475q-1.1143 0-1.7842 0.47852-0.66309 0.47168-0.66309 1.1758 0 0.60156 0.41016 0.98438 0.41699 0.37598 1.1484 0.37598z"/>
  <path id="path3739" d="m97.378 64.314q0 1.6611-0.75195 2.6523-0.75195 0.98438-2.0713 0.98438-0.7793 0-1.3672-0.29394-0.58106-0.29395-0.9502-0.84082v3.835h-0.82031v-10.24h0.69043l0.10254 1.1484q0.36914-0.61523 0.9502-0.9502 0.58789-0.33496 1.3809-0.33496 1.333 0 2.085 1.0664 0.75195 1.0596 0.75195 2.8301v0.14356zm-0.82031-0.14356q0-1.4082-0.56055-2.2969-0.56055-0.88867-1.6406-0.88867-0.82715 0-1.3467 0.39648-0.5127 0.38965-0.77246 1.0186v3.5547q0.28027 0.6084 0.80664 0.95703 0.5332 0.34863 1.3262 0.34863 1.0732 0 1.627-0.80664 0.56055-0.80664 0.56055-2.1396v-0.14356z"/>
  <path id="path3741" d="m101.99 67.951q-1.3877 0-2.3105-1.0254-0.91602-1.0254-0.91602-2.5977v-0.37598q0-1.5859 0.90918-2.6318 0.91602-1.0459 2.2148-1.0459 1.3604 0 2.1396 0.86133 0.77929 0.86133 0.77929 2.2969v0.69727h-5.2227v0.19824q0 1.251 0.66308 2.0918 0.66309 0.84082 1.7432 0.84082 0.76562 0 1.3057-0.21191 0.54004-0.21191 0.92285-0.6084l0.34864 0.56055q-0.417 0.4375-1.0596 0.69726-0.63575 0.25293-1.5176 0.25293zm-0.10254-6.9795q-0.90918 0-1.5244 0.69726-0.61523 0.69043-0.71777 1.7363l0.01367 0.03418h4.334v-0.20508q0-0.96387-0.56739-1.6133-0.56738-0.64941-1.5381-0.64941z"/>
  <path id="path3743" d="m109.84 61.115-0.60839-0.04102q-0.77247 0-1.2715 0.4375-0.49219 0.43066-0.7041 1.1895v5.1064h-0.82031v-7.3965h0.71777l0.10254 1.2305v0.08203q0.32129-0.68359 0.86133-1.0664t1.2852-0.38281q0.15723 0 0.30079 0.02734 0.15039 0.02051 0.24609 0.04785l-0.10938 0.76562z"/>
  <path id="path3745" d="m115.62 65.928q0-0.51953-0.43067-0.90918-0.42383-0.38965-1.5381-0.63574-1.3262-0.28711-1.9619-0.75879-0.6289-0.47168-0.6289-1.333 0-0.84766 0.71093-1.4287 0.71778-0.58789 1.8936-0.58789 1.251 0 1.9824 0.62207 0.73145 0.61524 0.69727 1.5449l-0.0137 0.04102h-0.75878q0-0.6084-0.51954-1.0596-0.51269-0.45117-1.3877-0.45117-0.89551 0-1.3467 0.38965-0.44434 0.38281-0.44434 0.90234 0 0.5127 0.38282 0.84766 0.38964 0.33496 1.5449 0.58789 1.3193 0.29394 1.9756 0.80664 0.65625 0.50586 0.65625 1.3809 0 0.92285-0.75195 1.4971-0.74512 0.56738-1.9756 0.56738-1.3467 0-2.1191-0.64258-0.76562-0.64258-0.72461-1.5312l0.0137-0.04102h0.75195q0.0478 0.7998 0.64941 1.1621 0.6084 0.3623 1.4287 0.3623 0.88868 0 1.4014-0.38965 0.5127-0.38965 0.5127-0.94336z"/>
  <path id="path3747" d="m119.33 67.808h-0.93653v-1.1211h0.93653v1.1211z"/>
 </g>
</svg>
