<svg xmlns="http://www.w3.org/2000/svg" width="380" height="180" viewBox="0 0 380 180.00001"><path fill="#383840" d="M11.54 14.42h-1.2V7.6H2.2v6.82H1V.2h1.2v6.4h8.13V.2h1.2v14.22zm5.06 0h-1.2V.2h1.2v14.22zm14.12-1.7q-.62.9-1.96 1.4-1.33.5-2.98.5-1.67 0-2.97-.8-1.3-.8-2-2.25-.7-1.47-.7-3.36V6.4q0-2.97 1.5-4.67Q23.1 0 25.6 0q2.2 0 3.53 1.14 1.34 1.1 1.6 3.08h-1.2q-.27-1.56-1.3-2.36-1-.8-2.62-.8-2 0-3.14 1.4t-1.16 4v1.68q0 1.62.54 2.87.55 1.25 1.58 1.94 1.04.68 2.38.68 1.55 0 2.67-.5.72-.3 1.07-.73V8.7H25.7V7.66h5.02v5.06zm13.95 1.7h-1.2V7.6h-8.14v6.82h-1.2V.2h1.2v6.4h8.13V.2h1.2v14.22zm9.7-5.8v5.8h-1.2V.2H58q2.2 0 3.5 1.13 1.28 1.14 1.28 3.12 0 2-1.24 3.1-1.23 1.08-3.57 1.08h-3.6zm0-1H58q1.75 0 2.66-.8.92-.85.92-2.3 0-1.5-.92-2.37-.9-.88-2.58-.9h-3.72V7.6zm16.4.88h-4.13v5.92h-1.2V.2h4.6q2.28 0 3.56 1.1t1.28 3.1q0 1.36-.8 2.4t-2.15 1.45l3.56 6.04v.1h-1.3l-3.43-5.9zm-4.13-1.02h3.68q1.52 0 2.43-.86.92-.86.92-2.23 0-1.5-.96-2.36-.92-.83-2.65-.83h-3.4v6.26zm12.98 6.94h-1.2V.2h1.2v14.22zm14.36-6.34q0 1.97-.7 3.45-.66 1.48-1.92 2.28-1.26.84-2.9.84-2.5 0-4.04-1.78-1.53-1.8-1.53-4.82V6.56q0-1.94.65-3.44.7-1.5 1.96-2.3 1.27-.8 2.9-.8t2.9.78q1.26.8 1.94 2.23.7 1.45.7 3.35v1.7zm-1.2-1.54q0-2.57-1.17-4.02-1.13-1.46-3.15-1.46-2 0-3.17 1.47Q84.1 3.98 84.1 6.6v1.48q0 2.53 1.16 4.02 1.18 1.47 3.2 1.47 2.03 0 3.17-1.45 1.14-1.47 1.14-4.08v-1.5zm9.55 1.96H98.2v5.92H97V.2h4.6q2.28 0 3.56 1.1t1.28 3.1q0 1.36-.8 2.4t-2.15 1.45l3.53 6.04v.1h-1.28l-3.44-5.9zM98.2 7.48h3.68q1.5 0 2.43-.86.95-.86.95-2.23 0-1.5-.96-2.36-.96-.83-2.7-.83h-3.4v6.26zm12.98 6.94h-1.2V.2h1.2v14.22zm13.22-13.2h-4.86v13.2h-1.2V1.23h-4.87V.2h10.94v1.03zm6.64 6.74L135.38.2h1.4l-5.15 8.87v5.35h-1.2V9.07L125.3.2h1.43l4.3 7.76zm23.2.12q0 1.97-.67 3.45-.68 1.48-1.94 2.28-1.26.84-2.9.84-2.5 0-4.03-1.78-1.53-1.8-1.53-4.82V6.56q0-1.94.68-3.44.7-1.5 1.95-2.3 1.26-.8 2.9-.8t2.9.78q1.25.8 1.94 2.23t.7 3.35v1.7zm-1.2-1.54q0-2.57-1.15-4.02-1.2-1.46-3.2-1.46t-3.18 1.47q-1.17 1.45-1.17 4.07v1.48q0 2.53 1.17 4.02 1.17 1.47 3.18 1.47 2.05 0 3.2-1.45 1.14-1.47 1.14-4.08v-1.5zm9.56 1.96h-4.12v5.92h-1.2V.2h4.6q2.28 0 3.56 1.1t1.28 3.1q0 1.36-.8 2.4-.8 1.05-2.15 1.45l3.56 6.04v.1h-1.28l-3.45-5.9zm-4.12-1.02h3.68q1.5 0 2.43-.86.9-.86.9-2.23 0-1.5-.97-2.36-.95-.83-2.68-.83h-3.4v6.26zM170 14.42V.2h3.96q1.75 0 3.14.8 1.4.8 2.16 2.28.78 1.48.78 3.38v1.3q0 1.9-.77 3.38-.78 1.48-2.18 2.28-1.4.8-3.2.8H170zm1.2-13.2v12.2h2.7q2.23 0 3.6-1.5 1.35-1.5 1.35-4.03V6.6q0-2.45-1.34-3.93T174 1.23h-2.8zm19.73 6.38h-6.65v5.8h7.65v1.02h-8.85V.2h8.8v1.03h-7.6V6.6h6.65v1zm8.83.9h-4.13v5.92h-1.2V.2h4.6q2.28 0 3.56 1.1t1.25 3.1q0 1.36-.8 2.4t-2.15 1.45l3.57 6.04v.1h-1.28l-3.46-5.9zm-4.13-1.02h3.68q1.54 0 2.46-.86.92-.86.92-2.23 0-1.5-.96-2.36-.94-.83-2.67-.83h-3.4v6.26z"/><path fill="#929292" d="M9.9 55.43q-.23 2.02-1.46 3.1-1.22 1.07-3.26 1.07-1.43 0-2.53-.72-1.1-.7-1.68-2-.6-1.32-.6-3v-1.66q0-1.7.6-3.02t1.7-2.03q1.13-.72 2.6-.72 2.04 0 3.23 1.1 1.2 1.12 1.4 3.08H8.8q-.4-3.26-3.54-3.26-1.74 0-2.78 1.3-1.03 1.3-1.03 3.6v1.56q0 2.22 1 3.53 1 1.32 2.73 1.32 1.7 0 2.55-.8.87-.82 1.07-2.45h1.1zm3.43-3.9q.52-.86 1.33-1.33.8-.47 1.77-.47 1.53 0 2.27.87.75.86.76 2.58v6.24H18.4v-6.25q0-1.27-.53-1.9-.53-.62-1.7-.62-.97 0-1.73.6-.75.62-1.1 1.66v6.54H12.3v-13.5h1.02v5.6zm8.27 3q0-1.38.5-2.48.55-1.1 1.52-1.7.97-.62 2.2-.62 1.9 0 3.08 1.34 1.18 1.33 1.18 3.52v.2q0 1.4-.54 2.5-.53 1.1-1.5 1.7-.96.6-2.2.6-1.9 0-3.08-1.35-1.17-1.34-1.17-3.54v-.2zm1.04.3q0 1.7.88 2.8.9 1.1 2.32 1.1t2.3-1.1q.9-1.1.9-2.9v-.2q0-1.1-.4-2-.42-.9-1.15-1.4-.76-.5-1.7-.5-1.4 0-2.3 1.1-.88 1.1-.88 2.9v.2zm9.04-.3q0-1.38.52-2.48.54-1.1 1.5-1.7.98-.62 2.2-.62 1.9 0 3.1 1.34 1.17 1.33 1.17 3.52v.2q0 1.4-.54 2.5-.53 1.1-1.5 1.7-.96.6-2.2.6-1.9 0-3.08-1.35-1.17-1.34-1.17-3.54v-.2zm1.05.3q0 1.7.88 2.8.9 1.1 2.35 1.1 1.42 0 2.3-1.1.9-1.1.9-2.9v-.2q0-1.1-.4-2-.42-.9-1.15-1.4-.74-.5-1.68-.5-1.4 0-2.28 1.1-.9 1.1-.9 2.9v.2zM48.03 57q0-.78-.62-1.25-.6-.48-1.86-.74-1.27-.24-1.97-.6t-1.04-.84q-.32-.5-.32-1.2 0-1.14.95-1.87.94-.75 2.4-.75 1.6 0 2.56.8.97.78.97 2.04H48q0-.84-.7-1.4-.7-.55-1.77-.55-1.04 0-1.67.47-.63.46-.63 1.2 0 .7.52 1.1.53.4 1.9.7 1.4.35 2.08.7.7.38 1.03.9.34.5.34 1.26 0 1.2-.98 1.93-.97.7-2.53.7-1.7 0-2.7-.8-1.06-.8-1.06-2.02h1.06q.07.92.78 1.44.7.5 1.9.5 1.1 0 1.76-.47.68-.48.68-1.22zm4.6 2.42h-1.06v-9.5h1.06v9.5zM51.4 47.16q0-.3.18-.5.2-.2.53-.2t.56.2q.2.2.2.5t-.2.5q-.2.2-.53.2t-.52-.2-.2-.5zm5.1 2.74l.03 1.64q.54-.88 1.34-1.34.8-.47 1.76-.47 1.53 0 2.28.87.78.86.8 2.58v6.24h-1.06v-6.25q0-1.27-.54-1.9-.54-.62-1.7-.62-1 0-1.74.6-.75.62-1.1 1.66v6.54H55.5v-9.5h1zm8.45 4.68q0-2.24 1-3.54.98-1.3 2.67-1.3 1.95 0 2.96 1.54l.05-1.37h1v9.35q0 1.83-1.04 2.9t-2.8 1.08q-1 0-1.9-.44-.9-.45-1.4-1.2l.56-.62q1.1 1.37 2.65 1.37 1.33 0 2.07-.78.73-.78.75-2.16v-1.2q-1 1.43-2.94 1.43-1.65 0-2.66-1.32t-1-3.55v-.14zm1.06.18q0 1.82.76 2.88.73 1.04 2.06 1.04 1.95 0 2.76-1.74v-4.42q-.37-.9-1.06-1.4-.7-.47-1.68-.47-1.33 0-2.07 1.04-.77 1-.77 3.04zm14.8-3.24q.52-.85 1.33-1.32.8-.47 1.76-.47 1.5 0 2.25.87.75.86.75 2.58v6.24h-1.03v-6.25q0-1.27-.55-1.9-.52-.62-1.7-.62-.97 0-1.72.6-.74.62-1.1 1.66v6.54h-1.05v-13.5h1.05v5.6zm10 7.9h-1.05v-9.5h1.06v9.5zm-1.23-12.26q0-.3.2-.5t.52-.2.5.2q.2.2.2.5t-.2.5q-.2.2-.53.2t-.54-.2-.2-.5zm3.68 7.42q0-2.24 1-3.54.98-1.3 2.68-1.3 1.94 0 2.95 1.54l.05-1.37h1v9.35q0 1.83-1.04 2.9t-2.8 1.08q-1 0-1.9-.44-.9-.45-1.4-1.2l.56-.62q1.1 1.37 2.65 1.37 1.33 0 2.07-.78.73-.78.75-2.16v-1.2q-1 1.43-2.94 1.43-1.65 0-2.66-1.32t-1-3.55v-.14zm1.07.18q0 1.82.72 2.88.73 1.04 2.06 1.04 1.94 0 2.75-1.74v-4.42q-.37-.9-1.06-1.4-.7-.47-1.7-.47-1.33 0-2.07 1.04-.73 1-.73 3.04zm10.38-3.24q.53-.85 1.34-1.32.8-.47 1.76-.47 1.53 0 2.28.87.75.86.76 2.58v6.24h-1.05v-6.25q-.04-1.27-.58-1.9-.52-.62-1.7-.62-.97 0-1.72.6-.74.62-1.1 1.66v6.54h-1.05v-13.5h1.05v5.6zm20.88 3.24q0 2.23-1 3.54-.97 1.3-2.62 1.3-1.95 0-3-1.38v4.86h-1.04V49.9h.98l.05 1.36q1.03-1.53 2.98-1.53 1.7 0 2.67 1.3.98 1.3.98 3.58v.18zm-1.06-.18q0-1.82-.74-2.88t-2.1-1.05q-.95 0-1.65.46-.7.5-1.06 1.4v4.55q.38.82 1.08 1.25.7.42 1.66.42 1.36 0 2.1-1.05.74-1.06.74-3.07zm7.78-3.78q-.32-.05-.7-.05-1 0-1.67.55-.68.54-.97 1.6v6.52h-1.05v-9.5h1.06l.02 1.5q.84-1.7 2.68-1.7.44 0 .7.13l-.03.96zm2.84 8.62h-1.06v-9.5h1.06v9.5zm-1.24-12.26q0-.3.2-.5t.52-.2q.33 0 .53.2t.2.5-.2.5q-.2.2-.53.2t-.53-.2-.2-.5zm3.53 7.36q0-1.37.53-2.47t1.5-1.7q.97-.62 2.2-.62 1.9 0 3.08 1.34 1.18 1.33 1.18 3.52v.2q0 1.4-.54 2.5-.52 1.1-1.5 1.7-.96.6-2.2.6-1.9 0-3.07-1.35-1.15-1.34-1.15-3.54v-.2zm1.05.3q0 1.7.88 2.8.9 1.1 2.32 1.1 1.43 0 2.3-1.1.9-1.1.9-2.9v-.2q0-1.1-.4-2-.42-.9-1.14-1.4-.73-.5-1.67-.5-1.4 0-2.3 1.12-.9 1.1-.9 2.88v.2zm14.02-4.02q-.34-.05-.72-.05-1 0-1.67.55-.65.54-.94 1.6v6.52h-1.05v-9.5h1.03l.02 1.5q.84-1.7 2.68-1.7.44 0 .7.13l-.03.96zm2.82 8.62h-1.06v-9.5h1.06v9.5zm-1.24-12.26q0-.3.2-.5t.52-.2q.33 0 .53.2t.2.5-.2.5q-.2.2-.53.2t-.53-.2-.2-.5zm5.74.32v2.43h1.97v.9h-2v6.33q0 .8.3 1.2.3.37.94.37.26 0 .85-.1l.04.86q-.4.15-1.12.15-1.08 0-1.57-.6-.5-.64-.5-1.86V50.8H157v-.87h1.75V47.5h1.06zM167 57.9l2.78-8h1.13l-4.03 11.14-.2.5q-.8 1.72-2.43 1.72-.38 0-.8-.12l-.02-.87.56.05q.77 0 1.25-.4.5-.36.8-1.3l.5-1.28-3.6-9.43h1.16l2.94 8zm9.34-3.38q0-1.37.53-2.47t1.5-1.7q.97-.62 2.2-.62 1.9 0 3.08 1.34 1.18 1.33 1.18 3.52v.2q0 1.4-.54 2.5t-1.5 1.7q-1 .6-2.2.6-1.9 0-3.1-1.35-1.18-1.34-1.18-3.54v-.2zm1.05.3q0 1.7.85 2.8.9 1.1 2.32 1.1t2.3-1.1q.88-1.1.88-2.9v-.2q0-1.1-.4-2-.4-.9-1.13-1.4-.73-.5-1.67-.5-1.4 0-2.3 1.12-.9 1.1-.9 2.88v.2zm17.26-.06q0 2.23-1 3.54-.97 1.3-2.62 1.3-1.95 0-3-1.38v4.86H187V49.9h.98l.05 1.36q1.03-1.53 2.98-1.53 1.74 0 2.7 1.3.98 1.3.98 3.58v.18zm-1.06-.18q0-1.82-.74-2.88t-2.1-1.05q-.95 0-1.65.46-.66.5-1.03 1.4v4.55q.38.82 1.08 1.25.7.42 1.66.42 1.33 0 2.07-1.05.74-1.06.74-3.07zm5.03-7.1v2.43h1.97v.9h-1.97v6.33q0 .8.28 1.2.3.37 1 .37.25 0 .84-.1l.04.86q-.4.15-1.12.15-1.08 0-1.57-.6-.5-.64-.5-1.86V50.8h-1.75v-.87h1.74V47.5h1.05zm5.35 11.94h-1.06v-9.5h1.06v9.5zm-1.24-12.26q0-.3.2-.5t.52-.2q.33 0 .53.2t.2.5-.2.5q-.2.2-.56.2-.33 0-.53-.2t-.2-.5zm3.52 7.36q0-1.37.53-2.47.5-1.1 1.5-1.7.94-.62 2.2-.62 1.9 0 3.05 1.34 1.18 1.33 1.18 3.52v.2q0 1.4-.54 2.5-.5 1.1-1.5 1.7-.96.6-2.2.6-1.9 0-3.07-1.35-1.18-1.34-1.18-3.54v-.2zm1.05.3q0 1.7.9 2.8.9 1.1 2.3 1.1 1.46 0 2.34-1.1.88-1.1.88-2.9v-.2q0-1.1-.4-2-.4-.9-1.12-1.4-.73-.5-1.67-.5-1.4 0-2.3 1.12-.9 1.1-.9 2.88v.2zm10.63-4.92l.03 1.64q.54-.88 1.34-1.34.8-.47 1.77-.47 1.53 0 2.27.87.75.86.76 2.58v6.24h-1.05v-6.25q0-1.27-.54-1.9-.5-.62-1.7-.62-.94 0-1.7.6-.75.62-1.1 1.66v6.54h-1.05v-9.5h1zm14.23 0l.03 1.56q.5-.86 1.3-1.3.8-.43 1.75-.43 2.25 0 2.86 1.85.5-.9 1.37-1.36.84-.5 1.87-.5 3.06 0 3.12 3.35v6.35h-1.06v-6.27q0-1.27-.55-1.9-.53-.6-1.76-.6-1.15.02-1.9.74-.8.7-.9 1.7v6.3h-1.06v-6.35q0-1.22-.58-1.82-.56-.6-1.74-.6-1 0-1.7.57t-1.06 1.7v6.5h-1.05v-9.5h1zm18.7 9.7q-1.2 0-2.2-.6-.98-.6-1.53-1.66-.54-1.08-.54-2.4v-.38q0-1.37.5-2.47.53-1.1 1.5-1.75.93-.64 2.04-.64 1.73 0 2.74 1.2 1 1.18 1 3.23v.6h-6.8v.2q0 1.6.94 2.7.94 1.06 2.34 1.06.84 0 1.48-.3.65-.3 1.18-1l.66.5q-1.17 1.7-3.37 1.7zm-.2-8.97q-1.2 0-2 .87t-1 2.34h5.7v-.12q-.03-1.37-.77-2.23-.77-.9-1.96-.9zm11.84 8.8q-.17-.46-.2-1.34-.57.7-1.43 1.1-.85.4-1.8.4-1.38 0-2.23-.8-.85-.75-.85-1.92 0-1.4 1.13-2.2 1.16-.8 3.22-.8h1.9v-1.1q0-1-.62-1.6-.63-.6-1.83-.6-1.1 0-1.8.57-.73.57-.73 1.36h-1.06q0-1.13 1.08-1.96 1.05-.84 2.6-.84 1.58 0 2.5.8.92.8.94 2.22v4.5q0 1.38.3 2.06v.12h-1.12zm-3.32-.77q1.06 0 1.9-.5.82-.52 1.2-1.37v-2.1h-1.88q-1.58 0-2.46.56-.9.55-.9 1.53 0 .8.6 1.33.6.52 1.54.52zm7.94-8.76l.03 1.64q.54-.88 1.34-1.34.8-.47 1.74-.47 1.53 0 2.27.87.76.86.77 2.58v6.24h-1.06v-6.25q0-1.27-.53-1.9-.53-.62-1.7-.62-.97 0-1.73.6-.75.62-1.1 1.66v6.54h-1.05v-9.5h1zM281.7 57q0-.78-.64-1.25-.63-.48-1.9-.74-1.26-.24-1.96-.6t-1.04-.84q-.33-.5-.33-1.2 0-1.14.94-1.87.94-.75 2.4-.75 1.6 0 2.55.8.97.78.97 2.04h-1.08q0-.84-.7-1.4-.7-.55-1.76-.55-1.04 0-1.67.47-.63.46-.63 1.2 0 .7.52 1.1.52.4 1.9.7 1.4.35 2.07.7.7.38 1.03.9.35.5.35 1.26 0 1.2-.97 1.93-.97.7-2.53.7-1.66 0-2.7-.8-1.03-.8-1.03-2.02h1.07q.04.92.75 1.44.72.5 1.9.5 1.1 0 1.77-.47.7-.48.7-1.22zm9.43-9.52v2.43h1.97v.9h-1.97v6.33q0 .8.28 1.2.3.37 1 .37.25 0 .84-.1l.04.86q-.4.15-1.12.15-1.08 0-1.57-.6-.5-.64-.5-1.86V50.8h-1.75v-.87h1.74V47.5h1.05zm5.2 4.04q.53-.85 1.34-1.32.8-.47 1.76-.47 1.53 0 2.28.87.78.86.78 2.58v6.24h-1.04v-6.25q0-1.27-.55-1.9-.53-.62-1.7-.62-.98 0-1.73.6-.75.62-1.1 1.66v6.54h-1.06v-13.5h1.05v5.6zm14.85 7.9q-.16-.45-.2-1.33-.56.7-1.42 1.1-.85.4-1.8.4-1.38 0-2.23-.8-.85-.75-.85-1.92 0-1.4 1.16-2.2 1.16-.8 3.22-.8h1.9v-1.1q0-1-.62-1.6-.63-.6-1.83-.6-1.1 0-1.8.57t-.7 1.36h-1.07q0-1.13 1.07-1.96 1.04-.84 2.6-.84 1.57 0 2.5.8.9.8.93 2.22v4.5q0 1.38.3 2.06v.12h-1.12zm-3.3-.76q1.05 0 1.88-.5.83-.52 1.2-1.37v-2.1h-1.87q-1.6 0-2.5.56-.9.55-.9 1.53 0 .8.6 1.33.6.52 1.55.52zm8.56-11.18v2.43h1.97v.9h-1.94v6.33q0 .8.28 1.2.3.37.96.37.25 0 .84-.1l.04.86q-.4.15-1.12.15-1.08 0-1.57-.6-.5-.64-.5-1.86V50.8h-1.76v-.87h1.74V47.5h1.05zm11.58 10.42l2.78-8h1.13l-4.06 11.14-.2.5q-.8 1.72-2.43 1.72-.38 0-.8-.12l-.02-.87.55.05q.77 0 1.25-.4.48-.36.8-1.3l.48-1.28-3.6-9.43h1.17l2.95 8zm4.8-3.38q0-1.37.54-2.47t1.5-1.7q.97-.62 2.2-.62 1.9 0 3.08 1.34 1.18 1.33 1.18 3.52v.2q0 1.4-.54 2.5-.52 1.1-1.5 1.7-.96.6-2.2.6-1.9 0-3.07-1.35-1.15-1.34-1.15-3.54v-.2zm1.06.3q0 1.7.88 2.8.9 1.1 2.32 1.1 1.43 0 2.3-1.1.9-1.1.9-2.9v-.2q0-1.1-.4-2-.42-.9-1.14-1.4-.73-.5-1.67-.5-1.4 0-2.3 1.12-.9 1.1-.9 2.88v.2zm15.72 3.4q-.94 1.38-3.02 1.38-1.52 0-2.3-.88-.8-.9-.82-2.62v-6.2h1.04v6.07q0 2.7 2.2 2.7 2.3 0 2.9-1.88v-6.9h1.05v9.5h-1.02l-.02-1.2zm8.17-7.42q-.33-.05-.7-.05-1 0-1.68.55-.7.54-1 1.6v6.52h-1.05v-9.5h1.03v1.5q.85-1.7 2.7-1.7.43 0 .7.13l-.04.96zM0 79.52q0-1.37.53-2.47t1.5-1.7q.98-.62 2.2-.62 1.9 0 3.08 1.34 1.2 1.33 1.2 3.52v.2q0 1.4-.53 2.5-.52 1.1-1.5 1.7-.96.6-2.2.6-1.9 0-3.07-1.35Q0 81.93 0 79.75v-.23zm1.05.3q0 1.7.88 2.8.9 1.1 2.32 1.1 1.43 0 2.3-1.1.9-1.1.9-2.9v-.2q0-1.1-.4-2-.4-.9-1.14-1.4-.7-.5-1.64-.5-1.4 0-2.3 1.12-.9 1.1-.9 2.88v.2zm14-4.02q-.32-.05-.7-.05-1 0-1.67.55-.67.54-.96 1.6v6.52h-1.05v-9.5h1.03l.02 1.5q.83-1.7 2.68-1.7.44 0 .7.13l-.04.96zm1.07 3.78q0-2.22.98-3.53 1-1.32 2.7-1.32 1.92 0 2.93 1.52v-5.33h1.04v13.5h-.98l-.07-1.27q-1 1.45-2.97 1.45-1.65 0-2.66-1.32-1-1.33-1-3.58v-.12zm1.06.18q0 1.82.73 2.88.76 1.04 2.1 1.04 1.93 0 2.75-1.7V77.5q-.82-1.85-2.74-1.85-1.33 0-2.07 1.04-.74 1-.74 3.04zm13.06 4.84q-1.2 0-2.2-.6-.97-.6-1.5-1.66-.56-1.08-.56-2.4v-.38q0-1.37.53-2.47.56-1.1 1.5-1.75.96-.64 2.07-.64 1.73 0 2.74 1.2 1 1.18 1 3.23v.6h-6.76v.2q0 1.6.92 2.7.93 1.06 2.34 1.06.82 0 1.46-.3.65-.3 1.18-1l.66.5q-1.15 1.7-3.36 1.7zm-.2-8.97q-1.18 0-2 .87-.8.87-.98 2.34h5.7v-.12q-.04-1.37-.78-2.23-.74-.9-1.93-.9zm10.23.17q-.33-.05-.7-.05-1 0-1.68.55-.7.54-1 1.6v6.52h-1.04v-9.5h1.02v1.5q.85-1.7 2.7-1.7.43 0 .7.13l-.04.96zm8.33 6.43l.15.82.2-.86 2.3-7.3h.9l2.25 7.2.25 1 .2-.9 1.95-7.3h1.1l-2.77 9.5h-.9l-2.44-7.53-.15-.52-.1.53-2.4 7.5h-.9l-2.77-9.5h1.07l2.02 7.3zm12.47 2.2H60v-9.5h1.07v9.5zm-1.24-12.27q0-.3.2-.5.18-.2.52-.2t.53.2q.2.2.2.5t-.2.5q-.2.2-.53.2t-.53-.2-.2-.5zm5.27 12.26h-1.05v-13.5h1.06v13.5zm4.05 0H68.1v-13.5h1.05v13.5zm6.68-4.9q0-1.37.53-2.47.54-1.1 1.5-1.7.98-.62 2.2-.62 1.9 0 3.08 1.34 1.18 1.33 1.18 3.52v.2q0 1.4-.53 2.5-.56 1.1-1.5 1.7-1 .6-2.2.6-1.9 0-3.1-1.35-1.2-1.34-1.2-3.54v-.2zm1.06.3q0 1.7.85 2.8.88 1.1 2.32 1.1 1.4 0 2.3-1.1.88-1.1.88-2.9v-.2q0-1.1-.4-2-.4-.9-1.14-1.4-.72-.5-1.66-.5-1.4 0-2.3 1.12-.88 1.1-.88 2.88v.2zm17.26-.06q0 2.23-1 3.54-.97 1.3-2.63 1.3-2 0-3-1.48l-.05 1.3h-1v-13.5h1.06v5.37q1-1.6 2.97-1.6 1.7 0 2.7 1.3 1 1.3 1 3.58v.15zm-1.06-.18q0-1.88-.73-2.9-.73-1.03-2.05-1.03-1 0-1.72.5-.7.5-1.06 1.45v4.3q.8 1.78 2.8 1.78 1.3 0 2.02-1.03.74-1.02.74-3.07zm5.02-7.1v2.43h1.97v.9h-2v6.33q0 .8.27 1.2.3.37.96.37.26 0 .85-.1l.05.86q-.42.15-1.13.15-1.08 0-1.57-.6-.5-.64-.5-1.86V75.8H95.3v-.87h1.76V72.5h1.05zm10.18 11.94q-.17-.45-.2-1.33-.57.7-1.43 1.1-.85.4-1.8.4-1.38 0-2.23-.8-.85-.75-.85-1.92 0-1.4 1.13-2.2 1.16-.8 3.22-.8h1.9v-1.1q0-1-.62-1.6-.63-.6-1.83-.6-1.1 0-1.8.57t-.73 1.36H102q0-1.13 1.07-1.96 1.05-.84 2.6-.84 1.58 0 2.5.8.92.8.94 2.22v4.5q0 1.38.3 2.06v.12h-1.1zm-3.32-.76q1.06 0 1.9-.5.82-.52 1.2-1.37v-2.1h-1.88q-1.58 0-2.46.56-.9.55-.9 1.53 0 .8.6 1.33.6.52 1.54.52zm8.12.76h-1.06v-9.5h1.06v9.5zm-1.24-12.26q0-.3.2-.5t.52-.2q.33 0 .53.2t.2.5-.2.5q-.2.2-.5.2-.33 0-.53-.2t-.2-.5zm5.1 2.74l.04 1.64q.54-.88 1.34-1.34.8-.47 1.77-.47 1.56 0 2.3.87.75.86.76 2.58v6.24h-1.05v-6.25q0-1.27-.54-1.9-.53-.62-1.7-.62-.97 0-1.73.6-.75.62-1.1 1.66v6.54h-1.05v-9.5h1zm14.32 1.62q.52-.85 1.33-1.32.8-.47 1.8-.47 1.52 0 2.27.87.75.86.76 2.58v6.24h-1.04v-6.25q0-1.27-.56-1.9-.5-.62-1.68-.62-.98 0-1.73.6-.76.62-1.12 1.66v6.54h-1.04v-13.5h1.05v5.6zm10.02 7.9h-1.07v-9.5h1.06v9.5zm-1.25-12.26q0-.3.2-.5t.52-.2.53.2q.2.2.2.5t-.2.5q-.2.2-.53.2t-.53-.2-.2-.5zm3.7 7.42q0-2.24.97-3.54 1-1.3 2.7-1.3 1.94 0 2.95 1.54l.05-1.37h.98v9.35q0 1.83-1.03 2.9t-2.78 1.08q-1 0-1.9-.44-.9-.45-1.44-1.2l.58-.62q1.12 1.37 2.66 1.37 1.33 0 2.06-.78.74-.78.77-2.16v-1.2q-1 1.43-2.94 1.43-1.68 0-2.68-1.32t-1-3.55v-.14zm1.05.18q0 1.82.73 2.88.73 1.04 2.06 1.04 1.9 0 2.72-1.74v-4.42q-.37-.9-1.06-1.4-.7-.47-1.67-.47-1.33 0-2.07 1.04-.74 1-.74 3.04zm10.4-3.24q.5-.85 1.32-1.32.8-.47 1.76-.47 1.53 0 2.28.87.75.86.76 2.58v6.24h-1.05v-6.25q0-1.27-.55-1.9-.52-.62-1.7-.62-.97 0-1.72.6-.75.62-1.1 1.66v6.54h-1.06v-13.5h1.05v5.6zm12.5 8.08q-1.2 0-2.2-.6-.96-.6-1.5-1.66-.55-1.08-.55-2.4v-.38q0-1.37.52-2.47.54-1.1 1.5-1.75.94-.64 2.05-.64 1.73 0 2.74 1.2 1.02 1.18 1.02 3.23v.6h-6.8v.2q0 1.6.93 2.7.97 1.06 2.37 1.06.85 0 1.5-.3.64-.3 1.17-1l.66.5q-1.18 1.7-3.38 1.7zm-.18-8.97q-1.2 0-2 .87-.82.87-1 2.34h5.7v-.12q-.03-1.37-.77-2.23-.74-.9-1.93-.9zm10.2.17q-.32-.05-.7-.05-1 0-1.67.55-.68.54-.97 1.6v6.52h-1.05v-9.5h1.03l.02 1.5q.84-1.7 2.68-1.7.44 0 .7.13l-.03.96zm13.7 3.96q0 2.23-1 3.54-.96 1.3-2.6 1.3-1.94 0-2.98-1.38v4.86h-1.05V74.9h.97l.05 1.36q1.04-1.53 3-1.53 1.7 0 2.66 1.3.98 1.3.98 3.58v.18zm-1.05-.18q0-1.82-.74-2.88t-2.1-1.05q-.95 0-1.65.46-.7.5-1.06 1.4v4.55q.38.82 1.08 1.25.7.42 1.66.42 1.33 0 2.07-1.05.74-1.06.74-3.07zm7.8-3.78q-.34-.05-.7-.05-1 0-1.7.55-.67.54-.96 1.6v6.52h-1.02v-9.5h1.03v1.5q.86-1.7 2.7-1.7.44 0 .7.13l-.03.96zm2.83 8.62h-1.07v-9.5H201v9.5zm-1.25-12.26q0-.3.2-.5t.52-.2q.33 0 .53.2t.2.5-.2.5q-.2.2-.53.2t-.53-.2-.2-.5zm3.52 7.36q0-1.37.53-2.47t1.5-1.7q.97-.62 2.2-.62 1.9 0 3.08 1.34 1.18 1.33 1.18 3.52v.2q0 1.4-.54 2.5-.52 1.1-1.5 1.7-.96.6-2.2.6-1.9 0-3.07-1.35-1.18-1.34-1.18-3.54v-.2zm1.05.3q0 1.7.88 2.8.9 1.1 2.32 1.1 1.43 0 2.3-1.1.9-1.1.9-2.9v-.2q0-1.1-.4-2-.42-.9-1.14-1.4-.73-.5-1.67-.5-1.4 0-2.3 1.12-.86 1.1-.86 2.88v.2zm14.02-4.02q-.33-.05-.7-.05-1 0-1.68.55-.68.54-.97 1.6v6.52h-1.08v-9.5h1.03l.02 1.5q.83-1.7 2.67-1.7.44 0 .7.13l-.03.96zm2.83 8.62h-1.06v-9.5h1.1v9.5zm-1.24-12.26q0-.3.2-.5t.52-.2.53.2q.2.2.2.5t-.2.5q-.2.2-.53.2t-.53-.2-.2-.5zm5.74.32v2.43h1.97v.9h-1.97v6.33q0 .8.28 1.2.3.37.96.37.3 0 .88-.1l.04.86q-.4.15-1.1.15-1.1 0-1.58-.6-.5-.64-.5-1.86V75.8h-1.73v-.87h1.74V72.5h1.07zm7.18 10.42l2.78-8h1.13l-4.06 11.14-.2.5q-.8 1.72-2.43 1.72-.38 0-.8-.12l-.02-.87.55.05q.77 0 1.25-.4.48-.36.8-1.3l.48-1.28-3.6-9.43h1.17l2.95 8zm9.35-3.38q0-1.37.52-2.47.53-1.1 1.5-1.7.97-.62 2.2-.62 1.9 0 3.08 1.34 1.18 1.33 1.18 3.52v.2q0 1.4-.54 2.5-.52 1.1-1.5 1.7-.96.6-2.2.6-1.9 0-3.07-1.35-1.18-1.34-1.18-3.54v-.2zm1.04.3q0 1.7.88 2.8.9 1.1 2.32 1.1 1.43 0 2.3-1.1.9-1.1.9-2.9v-.2q0-1.1-.4-2-.42-.9-1.14-1.4-.73-.5-1.67-.5-1.4 0-2.3 1.12-.9 1.1-.9 2.88v.2zm12.44 3.15l2.9-8.06h1.07l-3.54 9.54h-.82l-3.57-9.5h1.08L255.7 83zm9.27 1.63q-1.2 0-2.2-.6-.97-.6-1.52-1.66-.54-1.08-.54-2.4v-.38q0-1.37.5-2.47.53-1.1 1.5-1.75.93-.64 2.04-.64 1.73 0 2.74 1.2 1 1.18 1 3.23v.6h-6.8v.2q0 1.6.94 2.7.94 1.06 2.34 1.06.84 0 1.48-.3.65-.3 1.18-1l.66.5q-1.17 1.7-3.37 1.7zm-.2-8.97q-1.18 0-2 .87-.8.87-.98 2.34h5.7v-.12q-.04-1.37-.78-2.23-.77-.9-1.96-.9zm10.23.17q-.33-.05-.7-.05-1 0-1.68.55-.68.54-.97 1.6v6.52h-1.05v-9.5h1.03l.05 1.5q.84-1.7 2.68-1.7.45 0 .7.13l-.02.96zm5.46 3.72q0-1.37.53-2.47t1.5-1.7q.97-.62 2.2-.62 1.9 0 3.08 1.34 1.18 1.33 1.18 3.52v.2q0 1.4-.54 2.5t-1.5 1.7q-1 .6-2.2.6-1.9 0-3.1-1.35-1.18-1.34-1.18-3.54v-.2zm1.05.3q0 1.7.85 2.8.9 1.1 2.32 1.1t2.3-1.1q.88-1.1.88-2.9v-.2q0-1.1-.4-2-.4-.9-1.13-1.4-.73-.5-1.67-.5-1.4 0-2.3 1.12-.9 1.1-.9 2.88v.2zm11.25-7.34v2.43h1.97v.9h-1.97v6.33q0 .8.28 1.2.3.37.96.37.23 0 .82-.1l.04.86q-.4.15-1.12.15-1.08 0-1.57-.6-.5-.64-.5-1.86V75.8h-1.75v-.87h1.74V72.5h1.05zm5.2 4.04q.53-.85 1.34-1.32.8-.47 1.73-.47 1.53 0 2.28.87.76.86.77 2.58v6.24H303v-6.25q0-1.27-.54-1.9-.53-.62-1.7-.62-.98 0-1.73.6-.75.62-1.1 1.66v6.54h-1.06v-13.5h1.06v5.6zm12.52 8.08q-1.2 0-2.2-.6-.97-.6-1.52-1.66-.54-1.08-.54-2.4v-.38q0-1.37.55-2.47t1.5-1.75q.94-.64 2.05-.64 1.72 0 2.73 1.2 1.02 1.18 1.02 3.23v.6h-6.8v.2q0 1.6.93 2.7.94 1.06 2.34 1.06.86 0 1.5-.3.65-.3 1.18-1l.66.5q-1.17 1.7-3.37 1.7zm-.2-8.97q-1.18 0-2 .87-.8.87-.98 2.34h5.7v-.12q-.07-1.37-.8-2.23-.75-.9-1.94-.9zm10.23.17q-.33-.05-.7-.05-1 0-1.68.55-.68.54-.97 1.6v6.52h-1.05v-9.5h1.03l.02 1.5q.84-1.7 2.68-1.7.44 0 .7.13l-.03.96zm5.47 3.72q0-1.37.53-2.47t1.5-1.7q.97-.62 2.2-.62 1.9 0 3.08 1.34 1.18 1.33 1.18 3.52v.2q0 1.4-.54 2.5-.52 1.1-1.5 1.7-.96.6-2.2.6-1.9 0-3.07-1.35-1.18-1.34-1.18-3.54v-.2zm1.05.3q0 1.7.88 2.8.9 1.1 2.32 1.1 1.43 0 2.3-1.1.9-1.1.9-2.9v-.2q0-1.1-.4-2-.42-.9-1.14-1.4-.73-.5-1.67-.5-1.4 0-2.3 1.12-.86 1.1-.86 2.88v.2zm14-4.02q-.32-.05-.7-.05-1 0-1.67.55-.68.54-.97 1.6v6.52h-1.05v-9.5h1.03l.02 1.5q.84-1.7 2.68-1.7.44 0 .7.13l-.03.96zm1.08 3.78q0-2.22.97-3.53 1-1.32 2.7-1.32 1.92 0 2.93 1.52v-5.33h1.04v13.5h-.98l-.04-1.27q-1 1.45-2.97 1.45-1.65 0-2.66-1.32-1-1.33-1-3.58v-.12zm1.05.18q0 1.82.73 2.88.73 1.04 2.06 1.04 1.94 0 2.76-1.7V77.5q-.82-1.85-2.74-1.85-1.33 0-2.07 1.04-.77 1-.77 3.04zm13.05 4.84q-1.2 0-2.2-.6-.96-.6-1.5-1.66-.55-1.08-.55-2.4v-.38q0-1.37.52-2.47.54-1.1 1.5-1.75.94-.64 2.05-.64 1.73 0 2.74 1.2 1.02 1.18 1.02 3.23v.6h-6.8v.2q0 1.6.93 2.7.97 1.06 2.37 1.06.85 0 1.5-.3.64-.3 1.17-1l.66.5q-1.18 1.7-3.38 1.7zm-.18-8.97q-1.2 0-2 .87-.82.87-1 2.34h5.7v-.12q-.03-1.37-.77-2.23-.74-.9-1.93-.9zm10.22.17q-.33-.05-.7-.05-1 0-1.68.55-.68.54-.97 1.6v6.52h-1.08v-9.5h1.03l.02 1.5q.83-1.7 2.67-1.7.44 0 .7.13l-.03.96zm7.36 6.2q0-.78-.64-1.25-.63-.48-1.9-.74-1.26-.24-1.96-.6t-1.04-.84q-.33-.5-.33-1.2 0-1.14.94-1.87.94-.75 2.4-.75 1.6 0 2.55.8.97.78.97 2.04h-1.08q0-.84-.7-1.4-.7-.55-1.76-.55-1.04 0-1.67.47-.63.46-.63 1.2 0 .7.52 1.1.52.4 1.9.7 1.4.35 2.07.7.7.38 1.03.9.35.5.35 1.26 0 1.2-.97 1.93-.97.7-2.53.7-1.66 0-2.7-.8-1.03-.8-1.03-2.02h1.07q.04.92.75 1.44.72.5 1.9.5 1.1 0 1.77-.47.7-.48.7-1.22zm3.3 1.8q0-.32.2-.53.2-.22.55-.22.35 0 .55.22.2.2.2.52 0 .3-.2.5t-.55.2q-.36 0-.56-.2-.2-.2-.2-.5zM2.14 109.42H1.06v-12.8h1.08v12.8zM7 97.48v2.43h1.96v.9H7v6.33q0 .8.28 1.2.3.37.96.37.26 0 .85-.1v.86q-.4.15-1.1.15-1.08 0-1.58-.6t-.5-1.86v-6.35H4.2v-.87h1.74V97.5H7zm10.83 9.75l.16.82.2-.86 2.3-7.3h.86l2.26 7.2.25 1 .2-.9L26 99.9h1.1l-2.77 9.5h-.9L21 101.87l-.1-.52-.13.53-2.4 7.5h-.9l-2.76-9.5h1.1l2 7.3zm12.47 2.2h-1.05v-9.5h1.05v9.5zm-1.24-12.27q0-.3.2-.5t.53-.2.5.2q.2.2.2.5t-.2.5q-.2.2-.53.2t-.54-.2-.2-.5zm5.3 12.26H33.3v-13.5h1.05v13.5zm4.04 0h-1.06v-13.5h1.05v13.5zm14.9-4.66q0 2.22-.98 3.53-.98 1.3-2.64 1.3-2 0-3-1.5l-.05 1.3h-1V95.9h1.06v5.38q1-1.57 2.94-1.57 1.7 0 2.66 1.3 1 1.3 1 3.6v.15zm-1.05-.18q0-1.9-.73-2.9-.73-1.03-2.05-1.03-1.02 0-1.72.5t-1.06 1.45v4.3q.76 1.78 2.76 1.78 1.3 0 2.03-1.03.74-1.03.74-3.07zm7.07 5.02q-1.22 0-2.2-.6-.98-.6-1.52-1.66-.55-1.07-.55-2.4v-.38q0-1.37.53-2.47.54-1.1 1.5-1.75.94-.63 2.04-.63 1.74 0 2.75 1.2 1.02 1.16 1.02 3.2v.6h-6.8v.2q0 1.62.9 2.7.93 1.07 2.34 1.07.84 0 1.5-.3.64-.3 1.16-1l.67.5q-1.16 1.7-3.36 1.7zm-.2-8.96q-1.18 0-2 .87-.8.9-.98 2.36h5.7v-.1q-.04-1.38-.78-2.24-.74-.85-1.94-.85zm11.4 8.78h-1.05v-13.5h1.05v13.5zm4.05 0H73.5v-9.5h1.07v9.5zm-1.24-12.26q0-.3.2-.5.18-.2.52-.2t.53.2q.2.2.2.5t-.2.5q-.2.2-.53.2t-.53-.2-.2-.5zm9.8 9.84q0-.78-.64-1.26-.65-.47-1.9-.74-1.28-.27-1.98-.6-.7-.36-1.04-.86-.35-.5-.35-1.22 0-1.12.95-1.85.95-.74 2.4-.74 1.6 0 2.56.8.97.77.97 2.04h-1.05q0-.83-.7-1.4-.7-.54-1.76-.54-1 0-1.66.46-.62.43-.62 1.2 0 .7.52 1.1.53.36 1.9.7 1.4.3 2.08.7.7.35 1.03.9.33.5.33 1.23 0 1.2-.98 1.92-.96.72-2.53.72-1.67 0-2.7-.8-1.03-.82-1.03-2.05H78q.06.93.78 1.45.72.5 1.9.5 1.1 0 1.77-.48.68-.5.68-1.23zm5.04-9.52v2.43h1.97v.9h-1.97v6.33q0 .8.28 1.2.3.37.96.37.3 0 .88-.1l.05.86q-.4.15-1.12.15-1.07 0-1.56-.6-.48-.64-.48-1.86v-6.35H85.4v-.87h1.75V97.5h1.05zm7.85 12.12q-1.2 0-2.2-.6-.97-.6-1.52-1.66-.54-1.07-.54-2.4v-.38q0-1.37.53-2.47.5-1.1 1.45-1.75.95-.63 2.06-.63 1.74 0 2.75 1.2 1.02 1.16 1.02 3.2v.6h-6.8v.2q0 1.62.93 2.7.94 1.07 2.34 1.07.85 0 1.5-.3.64-.3 1.17-1l.68.5q-1.18 1.7-3.38 1.7zm-.2-8.96q-1.18 0-2 .87-.8.9-.98 2.36h5.7v-.1q-.04-1.38-.78-2.24-.74-.85-1.93-.85zm5.4 3.94q0-2.2 1-3.52 1-1.32 2.7-1.32 1.93 0 2.94 1.52v-5.34h1.04v13.5h-1l-.03-1.26q-1 1.44-2.97 1.44-1.66 0-2.67-1.32-1-1.33-1-3.58v-.12zm1.07.18q0 1.82.7 2.88.73 1.04 2.06 1.04 1.94 0 2.76-1.7v-4.47q-.82-1.83-2.74-1.83-1.34 0-2.08 1.05-.74 1.04-.74 3.07zm19.77 4.66q-.16-.45-.2-1.33-.56.7-1.42 1.1-.85.4-1.8.4-1.38 0-2.23-.8-.85-.75-.85-1.92 0-1.4 1.16-2.2 1.16-.8 3.22-.8h1.9v-1.1q0-1-.62-1.6-.63-.6-1.83-.6-1.1 0-1.82.57t-.72 1.36h-1.06q0-1.13 1.06-1.96 1.05-.84 2.6-.84 1.58 0 2.5.8.92.8.94 2.22v4.5q0 1.38.3 2.06v.12h-1.13zm-3.3-.76q1.05 0 1.88-.5.83-.52 1.2-1.37v-2.1H120q-1.58 0-2.46.56-.9.55-.9 1.53 0 .8.6 1.33.6.52 1.54.52zm8.57-11.18v2.43h1.97v.9h-1.94v6.33q0 .8.28 1.2.3.37.96.37.25 0 .84-.1l.04.86q-.4.15-1.12.15-1.08 0-1.57-.6-.5-.64-.5-1.86v-6.35h-1.76v-.87h1.74V97.5h1.05zm10.2 0v2.43h1.96v.9h-1.97v6.33q0 .8.28 1.2.3.37 1 .37.25 0 .84-.1l.04.86q-.4.15-1.12.15-1.08 0-1.57-.6-.5-.64-.5-1.86v-6.35h-1.75v-.87h1.74V97.5h1.05zm5.2 4.04q.52-.85 1.33-1.32.8-.46 1.76-.46 1.53 0 2.28.86.78.86.8 2.58v6.24h-1.06v-6.25q0-1.27-.55-1.9-.53-.62-1.7-.62-.98 0-1.73.62-.75.6-1.1 1.64v6.54h-1.06v-13.5h1.05v5.6zm12.52 8.08q-1.2 0-2.2-.6-.97-.6-1.52-1.66-.54-1.07-.54-2.4v-.38q0-1.37.52-2.47.54-1.1 1.5-1.75.94-.63 2.05-.63 1.73 0 2.74 1.2 1.05 1.16 1.05 3.2v.6h-6.8v.2q0 1.62.93 2.7.94 1.07 2.34 1.07.86 0 1.5-.3.65-.3 1.18-1l.66.5q-1.17 1.7-3.37 1.7zm-.2-8.96q-1.18 0-2 .87-.8.9-.98 2.36h5.7v-.1q-.04-1.38-.78-2.24-.74-.85-1.93-.85zm11.86-3.16v2.43h1.97v.9h-2v6.33q0 .8.3 1.2.3.37.94.37.26 0 .85-.1l.04.86q-.4.15-1.12.15-1.08 0-1.57-.6-.5-.64-.5-1.86v-6.35h-1.74v-.87h1.75V97.5h1.06zm3.4 7.04q0-1.37.54-2.47t1.5-1.7q.97-.62 2.2-.62 1.9 0 3.08 1.34 1.18 1.32 1.18 3.52v.2q0 1.4-.54 2.5-.52 1.1-1.5 1.7-.96.6-2.2.6-1.9 0-3.07-1.36-1.15-1.33-1.15-3.53v-.2zm1.06.3q0 1.7.88 2.8.9 1.08 2.32 1.08 1.43 0 2.3-1.1.9-1.08.9-2.88v-.2q0-1.1-.4-2-.42-.9-1.14-1.4-.73-.5-1.67-.5-1.4 0-2.3 1.1-.9 1.1-.9 2.9v.2zm17.27-.06q0 2.22-1 3.53-.97 1.3-2.62 1.3-1.95 0-3-1.4v4.85H181V99.9h.97l.05 1.35q1.03-1.52 2.98-1.52 1.7 0 2.67 1.3.98 1.3.98 3.58v.18zm-1.06-.18q0-1.82-.77-2.88-.75-1.05-2.1-1.05-.95 0-1.65.46-.7.5-1.07 1.4v4.55q.4.8 1.1 1.25.7.42 1.66.42 1.33 0 2.07-1.05.74-1.06.74-3.07zm7.2-.06q0-1.37.53-2.47t1.5-1.7q.97-.62 2.2-.62 1.9 0 3.08 1.34 1.2 1.32 1.2 3.52v.2q0 1.4-.53 2.5-.52 1.1-1.5 1.7-.96.6-2.2.6-1.9 0-3.07-1.36-1.2-1.33-1.2-3.53v-.2zm1.05.3q0 1.7.88 2.8.9 1.08 2.32 1.08 1.43 0 2.3-1.1.9-1.08.9-2.88v-.2q0-1.1-.4-2-.42-.9-1.14-1.4-.7-.5-1.64-.5-1.4 0-2.3 1.1-.9 1.1-.9 2.9v.2zm10.38 4.6v-8.65h-1.57v-.86h1.57V98.8q0-1.46.74-2.24.74-.78 2.07-.78.6 0 1.12.14l-.08.87q-.44-.1-.96-.1-.87 0-1.35.54-.5.56-.5 1.55v1.18h2.28v.87h-2.27v8.64h-1.05zm11.25-11.94v2.43h1.97v.9h-1.97v6.33q0 .8.28 1.2.3.37.96.37.26 0 .85-.1l.04.86q-.4.15-1.1.15-1.1 0-1.56-.6-.5-.64-.5-1.86v-6.35h-1.74v-.87h1.73V97.5h1.06zm5.22 4.04q.5-.85 1.32-1.32.8-.46 1.76-.46 1.53 0 2.28.86.75.86.76 2.58v6.24h-1.05v-6.25q0-1.27-.55-1.9-.52-.62-1.7-.62-.97 0-1.72.62-.75.6-1.1 1.64v6.54h-1.06v-13.5h1.05v5.6zm12.5 8.08q-1.2 0-2.2-.6-.96-.6-1.5-1.66-.55-1.07-.55-2.4v-.38q0-1.37.52-2.47.54-1.1 1.5-1.75.94-.63 2.05-.63 1.73 0 2.74 1.2 1.02 1.16 1.02 3.2v.6h-6.8v.2q0 1.62.93 2.7.97 1.07 2.37 1.07.85 0 1.5-.3.64-.3 1.17-1l.66.5q-1.18 1.7-3.38 1.7zm-.18-8.96q-1.2 0-2 .87-.82.9-1 2.36h5.7v-.1q-.03-1.38-.77-2.24-.74-.85-1.93-.85zm9.78 3.94q0-2.23 1-3.53 1-1.3 2.7-1.3 1.93 0 2.93 1.46l.05-1.3h.98v13.2h-1.05v-4.84q-1 1.36-2.9 1.36-1.67 0-2.67-1.3t-1-3.57v-.14zm1.07.18q0 1.85.74 2.9.78 1.05 2.1 1.05 1.9 0 2.73-1.6v-4.67q-.4-.84-1.1-1.3-.68-.47-1.6-.47-1.33 0-2.08 1.06-.75 1.04-.75 3.07zm15.53 3.46q-.94 1.38-3.02 1.38-1.52 0-2.3-.88-.8-.9-.82-2.62v-6.2h1.04v6.07q0 2.72 2.2 2.72 2.3 0 2.9-1.9v-6.9h1.05v9.5h-1.02l-.02-1.2zm7.45 1.38q-1.2 0-2.2-.6-.97-.6-1.52-1.66-.54-1.07-.54-2.4v-.38q0-1.37.5-2.47.53-1.1 1.5-1.75.93-.63 2.04-.63 1.73 0 2.74 1.2 1 1.16 1 3.2v.6h-6.8v.2q0 1.62.94 2.7.94 1.07 2.34 1.07.84 0 1.48-.3.65-.3 1.18-1l.66.5q-1.17 1.7-3.37 1.7zm-.2-8.96q-1.18 0-2 .87-.8.9-.98 2.36h5.7v-.1q-.04-1.38-.78-2.24-.77-.85-1.96-.85zm11.95 7.58q-.95 1.38-3.03 1.38-1.52 0-2.3-.88-.8-.9-.82-2.62v-6.2h1.04v6.07q0 2.72 2.2 2.72 2.26 0 2.86-1.9v-6.9h1.06v9.5h-1.02v-1.2zm7.44 1.38q-1.2 0-2.2-.6-.97-.6-1.52-1.66-.54-1.07-.54-2.4v-.38q0-1.37.52-2.47.54-1.1 1.5-1.75.94-.63 2.05-.63 1.73 0 2.74 1.2 1 1.16 1 3.2v.6h-6.8v.2q0 1.62.92 2.7.94 1.07 2.34 1.07.85 0 1.5-.3.64-.3 1.17-1l.66.5q-1.17 1.7-3.37 1.7zm-.2-8.96q-1.18 0-2 .87-.8.9-.98 2.36h5.7v-.1q-.04-1.38-.78-2.24-.74-.85-1.93-.85zm9.66 3.88q0-1.37.52-2.47.53-1.1 1.5-1.7.97-.62 2.2-.62 1.9 0 3.08 1.34 1.18 1.32 1.18 3.52v.2q0 1.4-.54 2.5-.52 1.1-1.5 1.7-.96.6-2.2.6-1.9 0-3.07-1.36-1.18-1.33-1.18-3.53v-.2zm1.04.3q0 1.7.88 2.8.9 1.08 2.32 1.08 1.43 0 2.3-1.1.9-1.08.9-2.88v-.2q0-1.1-.4-2-.42-.9-1.14-1.4-.73-.5-1.67-.5-1.4 0-2.3 1.1-.9 1.1-.9 2.9v.2zm10.38 4.6v-8.65h-1.57v-.86h1.57V98.8q0-1.46.74-2.24.74-.78 2.07-.78.6 0 1.12.14l-.08.87q-.44-.1-.96-.1-.84 0-1.32.54-.5.56-.5 1.55v1.18h2.28v.87H310v8.64h-1.06zm9.03-4.9q0-1.37.53-2.47t1.5-1.7q.97-.62 2.2-.62 1.9 0 3.08 1.34 1.18 1.32 1.18 3.52v.2q0 1.4-.54 2.5-.52 1.1-1.5 1.7-.96.6-2.2.6-1.9 0-3.07-1.36-1.18-1.33-1.18-3.53v-.2zm1.05.3q0 1.7.88 2.8.9 1.08 2.32 1.08 1.43 0 2.3-1.1.9-1.08.9-2.88v-.2q0-1.1-.4-2-.42-.9-1.14-1.4-.73-.5-1.67-.5-1.44 0-2.3 1.1-.9 1.1-.9 2.9v.2zm15.74 3.4q-.95 1.38-3.03 1.38-1.5 0-2.3-.88-.8-.9-.8-2.62v-6.2h1.05v6.07q0 2.72 2.2 2.72 2.3 0 2.9-1.9v-6.9h1.05v9.5h-1.03l-.02-1.2zm8.16-7.42q-.33-.05-.7-.05-1 0-1.68.55-.68.55-.97 1.6v6.52h-1.05v-9.5h1.03l.02 1.5q.84-1.68 2.68-1.68.44 0 .7.1l-.03.97zM6.58 134.42q-.16-.45-.2-1.33-.55.7-1.4 1.1-.87.4-1.82.4-1.38 0-2.23-.8-.84-.75-.84-1.92 0-1.4 1.12-2.2 1.16-.8 3.22-.8h1.9v-1.1q0-1-.62-1.6-.62-.6-1.83-.6-1.1 0-1.8.57t-.74 1.36H.32q0-1.13 1.05-1.96 1.06-.84 2.6-.84 1.58 0 2.5.8.92.8.95 2.22v4.5q0 1.38.3 2.06v.12H6.57zm-3.3-.76q1.05 0 1.88-.5.83-.52 1.2-1.37v-2.1H4.5q-1.58 0-2.47.56-.9.55-.9 1.53 0 .8.6 1.33.6.52 1.55.52zm9.75-.7l2.9-8.05H17l-3.54 9.54h-.86l-3.57-9.5h1.1l2.9 8.05zm11.55 1.46q-.16-.45-.2-1.33-.55.7-1.4 1.1-.87.4-1.82.4-1.38 0-2.23-.8-.84-.75-.84-1.92 0-1.4 1.12-2.2 1.16-.8 3.22-.8h1.9v-1.1q0-1-.62-1.6-.62-.6-1.83-.6-1.1 0-1.8.57t-.74 1.36H18.3q0-1.13 1.06-1.96 1.06-.84 2.6-.84 1.58 0 2.5.8.92.8.95 2.22v4.5q0 1.38.3 2.06v.12h-1.13zm-3.3-.76q1.05 0 1.88-.5.83-.52 1.2-1.37v-2.1H22.5q-1.58 0-2.47.56-.9.55-.9 1.53 0 .8.6 1.33.6.52 1.55.52zm8.12.76h-1.06v-9.5h1.05v9.5zm-1.25-12.26q0-.3.2-.5t.52-.2.53.2q.2.2.2.5t-.2.5q-.2.2-.53.2t-.52-.2q-.2-.2-.2-.5zm5.28 12.26h-1.05v-13.5h1.05v13.5zm8.87 0q-.16-.45-.2-1.33-.55.7-1.42 1.1-.85.4-1.8.4-1.38 0-2.23-.8-.84-.75-.84-1.92 0-1.4 1.18-2.2 1.16-.8 3.22-.8h1.9v-1.1q0-1-.63-1.6-.63-.6-1.83-.6-1.1 0-1.82.57t-.7 1.36h-1.06q0-1.13 1.05-1.96 1.06-.84 2.6-.84 1.6 0 2.5.8.93.8.96 2.22v4.5q0 1.38.3 2.06v.12H42.3zm-3.3-.76q1.05 0 1.88-.5.83-.52 1.2-1.37v-2.1H40.2q-1.55 0-2.44.56-.9.55-.9 1.53 0 .8.6 1.33.6.52 1.55.52zm14.6-3.9q0 2.22-1 3.53-.98 1.3-2.64 1.3-2 0-3-1.5l-.05 1.3h-.96v-13.5H47v5.37q1-1.57 2.96-1.57 1.7 0 2.66 1.3 1 1.3 1 3.58v.16zm-1.07-.18q0-1.9-.73-2.9-.73-1.03-2.05-1.03-1 0-1.72.5-.7.5-1.06 1.45v4.3q.8 1.78 2.8 1.78 1.3 0 2.02-1.03t.7-3.07zm4.57 4.84h-1.06v-13.5h1.05v13.5zm6.54.18q-1.2 0-2.2-.6-.97-.6-1.52-1.66-.54-1.07-.54-2.4v-.38q0-1.37.53-2.47.56-1.1 1.5-1.75.96-.63 2.07-.63 1.73 0 2.74 1.2 1 1.16 1 3.2v.6h-6.76v.2q0 1.62.92 2.7.93 1.07 2.34 1.07.82 0 1.46-.3.65-.3 1.18-1l.66.5q-1.15 1.7-3.36 1.7zm-.2-8.96q-1.18 0-2 .87-.8.9-.98 2.36h5.7v-.1q-.04-1.38-.78-2.24-.74-.85-1.93-.85zm9.66 3.88q0-1.37.52-2.47.53-1.1 1.5-1.7.98-.62 2.2-.62 1.9 0 3.08 1.34 1.18 1.32 1.18 3.52v.2q0 1.4-.54 2.5-.52 1.1-1.5 1.7-.96.6-2.2.6-1.9 0-3.07-1.36-1.18-1.33-1.18-3.53v-.2zm1.04.3q0 1.7.88 2.8.9 1.08 2.32 1.08 1.43 0 2.3-1.1.9-1.08.9-2.88v-.2q0-1.1-.4-2-.4-.9-1.14-1.4-.73-.5-1.67-.5-1.4 0-2.3 1.1-.9 1.1-.9 2.9v.2zm14-4.02q-.32-.05-.7-.05-1 0-1.67.55-.67.55-.96 1.6v6.52H83.8v-9.5h1.03v1.5q.85-1.68 2.7-1.68.44 0 .7.1l-.04.97zm1.06 3.78q0-2.2 1-3.52 1-1.32 2.68-1.32 1.93 0 2.94 1.52v-5.34h1.04v13.5h-.98l-.04-1.26q-1 1.44-2.97 1.44-1.65 0-2.66-1.32-1-1.33-1-3.58v-.12zm1.07.18q0 1.82.73 2.88.73 1.04 2.06 1.04 1.94 0 2.76-1.7v-4.47q-.82-1.83-2.74-1.83-1.33 0-2.07 1.05-.7 1.04-.7 3.07zm13.06 4.84q-1.2 0-2.2-.6-.97-.6-1.52-1.66-.5-1.07-.5-2.4v-.38q0-1.37.5-2.47.54-1.1 1.5-1.75.94-.63 2.05-.63 1.73 0 2.74 1.2 1 1.16 1 3.2v.6h-6.8v.2q0 1.62.94 2.7.94 1.07 2.34 1.07.85 0 1.5-.3.64-.3 1.17-1l.66.5q-1.16 1.7-3.36 1.7zm-.2-8.96q-1.18 0-2 .87-.8.9-.98 2.36h5.7v-.1q-.04-1.38-.78-2.24-.74-.85-1.93-.85zm10.23.16q-.33-.05-.7-.05-1 0-1.68.55-.68.55-.97 1.6v6.52H109v-9.5H110v1.5q.85-1.68 2.7-1.68.43 0 .7.1l-.04.97zm7.34 6.2q0-.78-.62-1.26-.63-.47-1.9-.74-1.26-.27-1.96-.6-.7-.36-1.04-.86-.33-.5-.33-1.22 0-1.12.94-1.85.9-.74 2.4-.74 1.6 0 2.52.8.97.77.97 2.04h-1.05q0-.83-.7-1.4-.7-.54-1.76-.54-1.05 0-1.68.46-.63.43-.63 1.2 0 .7.5 1.1.54.36 1.9.7 1.4.3 2.1.7.7.35 1.02.9.33.5.33 1.23 0 1.2-.97 1.92-1 .72-2.55.72-1.66 0-2.7-.8-1.03-.82-1.03-2.05h1.06q.05.93.76 1.45.72.5 1.9.5 1.1 0 1.77-.48.7-.5.7-1.23zm3.32 1.8q0-.32.2-.53.2-.22.55-.22.35 0 .55.22.2.2.2.52 0 .3-.2.5t-.55.2q-.36 0-.56-.2-.16-.2-.16-.5z"/><path fill="#69bdf9" d="M320.57 165.85q.1-.97-.46-1.68-.53-.72-1.95-1.3-1.43-.56-2.1-1.1-.7-.57-1.03-1.3-.3-.7-.23-1.67.12-1.62 1.22-2.62t2.82-1.17l.34-1.93h1l-.34 1.98q1.5.22 2.24 1.36.75 1.13.6 3h-1.16q.13-1.5-.5-2.4-.62-.9-1.86-.94-1.3-.02-2.2.74-.9.74-1.03 1.97-.15 1.57 1.28 2.42.38.2 1.48.66 1.1.44 1.68.87 1.58 1.16 1.42 3.07-.13 1.63-1.26 2.64t-2.93 1.15l-.33 1.84h-1l.33-1.86q-1.13-.1-1.92-.67-.8-.56-1.15-1.5-.35-.93-.25-2.1h1.17q-.12 1.5.6 2.4.75.86 2.13.9 1.37 0 2.34-.77.96-.77 1.1-2zm15.56-6.3q-1.1 1.4-2.56 2.18-1.45.76-3 .7-1.66-.03-2.86-.98t-1.73-2.55q-.54-1.6-.37-3.5.2-2.14 1.2-3.9 1-1.8 2.6-2.77 1.55-.98 3.44-.95 2.52.06 3.96 1.76t1.53 4.76q.04 1.64-.4 4.35-.9 5.28-3.76 8.07-2.85 2.8-7.24 2.87h-.72l.2-1.55h.6q3.6-.06 5.85-2.15 2.27-2.1 3.3-6.35zm-5.26 1.37q1.67.06 3.16-.95 1.5-1.03 2.38-2.8.2-1.8.2-2.52 0-2.5-.96-3.9-1-1.4-2.85-1.46-1.43-.06-2.6.73-1.16.78-1.93 2.2-.76 1.42-.94 3.06-.15 1.5.22 2.8.38 1.27 1.23 2.04.86.74 2.12.77zm9.38 7.45q.04-.5.4-.86.4-.34.9-.36.53 0 .87.36.33.35.3.9-.04.5-.42.83-.37.32-.88.34-.5 0-.86-.33-.34-.33-.3-.86zm19.25-8.8q-1.1 1.4-2.55 2.16-1.45.76-3 .7-1.66-.03-2.86-.98t-1.8-2.55q-.53-1.6-.36-3.5.22-2.14 1.22-3.9 1-1.8 2.58-2.77 1.56-.98 3.45-.95 2.52.06 3.96 1.76 1.45 1.7 1.54 4.76.06 1.64-.4 4.35-.9 5.28-3.74 8.07-2.85 2.8-7.24 2.87h-.7l.17-1.55h.56q3.6-.06 5.86-2.15 2.28-2.1 3.3-6.35zm-5.25 1.35q1.67.06 3.16-.95 1.5-1.03 2.4-2.8.2-1.8.2-2.52 0-2.5-1-3.9t-2.83-1.46q-1.42-.06-2.6.73-1.15.78-1.92 2.2-.76 1.42-.94 3.06-.16 1.5.2 2.8.4 1.27 1.24 2.04.86.74 2.12.77zm21.55-1.36q-1.1 1.4-2.56 2.17-1.45.76-3 .7-1.66-.03-2.86-.98t-1.76-2.55q-.54-1.6-.37-3.5.22-2.14 1.22-3.9 1-1.8 2.58-2.77 1.56-.98 3.45-.95 2.52.06 3.96 1.76 1.45 1.7 1.54 4.76.04 1.64-.4 4.35-.9 5.28-3.76 8.07-2.85 2.8-7.24 2.87h-.72l.18-1.55h.58q3.6-.06 5.86-2.15 2.27-2.1 3.3-6.35zm-5.26 1.36q1.67.06 3.16-.95 1.5-1.03 2.38-2.8.2-1.8.2-2.52 0-2.5-1-3.9-.98-1.4-2.84-1.46-1.42-.06-2.6.73-1.15.78-1.92 2.2-.76 1.42-.94 3.06-.16 1.5.2 2.8.4 1.27 1.24 2.04.86.74 2.12.77z"/></svg>