<svg xmlns="http://www.w3.org/2000/svg" width="380" height="180" viewBox="0 0 380 180.00001"><path fill="#383840" d="M2.73 8.63v5.8h-1.2V.2h4.85q2.2 0 3.5 1.13 1.28 1.14 1.28 3.12 0 2-1.24 3.1Q8.7 8.62 6.35 8.62H2.73zm0-1.02h3.65q1.74 0 2.66-.8.92-.83.92-2.3 0-1.5-.92-2.35-.9-.88-2.6-.9h-3.7V7.6zm12.32 5.8h7.02v1.02h-8.23V.2h1.2v13.2zm17.2-2.96H25.8l-1.46 3.98h-1.26L28.46.2h1.14l5.38 14.22h-1.25l-1.47-3.98zm-6.1-1.03h5.73l-2.86-7.7-2.85 7.74zm21.08 3.33q-.63.9-1.97 1.4-1.32.5-2.98.5-1.67 0-2.96-.82-1.3-.8-2.02-2.23-.7-1.47-.72-3.36V6.4q0-2.97 1.5-4.67 1.5-1.72 4-1.72 2.2 0 3.54 1.15 1.34 1.1 1.6 3.08h-1.2q-.27-1.56-1.28-2.36-1-.8-2.64-.8-2 0-3.16 1.4t-1.16 4v1.68q0 1.62.55 2.87.56 1.24 1.58 1.93 1.07.68 2.4.68 1.56 0 2.67-.5.72-.3 1.07-.73V8.7h-3.8V7.66h5v5.06zm4.87 1.7h-1.2V.2h1.2v14.22zm11.72-4h-6.46l-1.46 4h-1.26L60.02.2h1.14l5.38 14.22H65.3l-1.48-3.98zm-6.1-1.02h5.72L60.6 1.7l-2.88 7.7zm16.23-.9h-4.13v5.92h-1.2V.2h4.6q2.3 0 3.57 1.1t1.25 3.1q0 1.36-.8 2.4T75.1 8.25l3.56 6.04v.1H77.4l-3.45-5.9zm-4.13-1.02h3.7q1.5 0 2.42-.86.92-.86.92-2.23 0-1.5-.96-2.36-.96-.83-2.7-.83h-3.38v6.26zm12.98 6.94h-1.2V.2h1.2v14.22zm11.9-3.5q0-1.18-.83-1.86-.83-.7-3.04-1.3-2.2-.63-3.22-1.37-1.42-1.06-1.42-2.74 0-1.63 1.34-2.65 1.34-1 3.43-1 1.4 0 2.53.55 1.12.55 1.73 1.53.63.97.63 2.17h-1.2q0-1.45-1-2.33-1-.9-2.68-.9-1.63 0-2.6.74-.97.73-.97 1.9 0 1.08.87 1.77.87.68 2.8 1.2 1.9.52 2.9 1.1.97.55 1.47 1.33t.5 1.84q0 1.68-1.33 2.7-1.35 1.02-3.54 1.02-1.5 0-2.77-.54-1.26-.54-1.9-1.5-.66-.97-.66-2.22h1.2q0 1.5 1.14 2.37 1.12.87 3 .87 1.65 0 2.65-.73t1-1.95zM100.08.2l5.24 12.55L110.58.2h1.6v14.22H111v-6.2l.1-6.34-5.3 12.54h-.92L99.6 1.92l.1 6.27v6.2h-1.2V.2h1.58zM126 8.5h-4.14v5.92h-1.22V.2h4.62q2.28 0 3.56 1.1t1.28 3.1q0 1.36-.8 2.4t-2.15 1.45l3.55 6.04v.1h-1.28L126 8.5zm-4.14-1.02h3.68q1.5 0 2.43-.86.92-.86.92-2.23 0-1.5-1-2.36-.95-.83-2.7-.83h-3.37v6.26zm19.36.12h-6.65v5.8h7.64v1.02h-8.82V.2h8.8v1.03h-7.6V6.6h6.66v1zm4.72 1.03v5.8h-1.2V.2h4.84q2.22 0 3.5 1.13 1.28 1.14 1.28 3.12 0 2-1.24 3.1-1.23 1.08-3.57 1.08h-3.6zm0-1.02h3.64q1.75 0 2.66-.8.92-.83.92-2.3 0-1.5-.92-2.35-.9-.88-2.58-.9h-3.72V7.6zm21.6.48q0 1.97-.7 3.45-.65 1.48-1.9 2.28-1.27.84-2.9.84-2.5 0-4.04-1.78-1.54-1.8-1.54-4.82V6.56q0-1.94.7-3.44.68-1.5 1.94-2.3 1.26-.8 2.9-.8t2.9.78q1.25.8 1.93 2.23.7 1.45.72 3.35v1.7zm-1.2-1.54q0-2.57-1.16-4.02-1.16-1.46-3.18-1.46-1.98 0-3.17 1.47-1.17 1.45-1.17 4.07v1.48q0 2.53 1.17 4.02 1.18 1.47 3.2 1.47 2.03 0 3.17-1.45 1.14-1.47 1.14-4.08v-1.5zm9.56 1.96h-4.12v5.92h-1.22V.2h4.62q2.28 0 3.56 1.1t1.28 3.1q0 1.36-.8 2.4t-2.15 1.45l3.55 6.04v.1h-1.28l-3.44-5.9zm-4.12-1.02h3.68q1.5 0 2.43-.86.9-.86.9-2.23 0-1.5-.97-2.36-.96-.83-2.7-.83h-3.37v6.26zm20.38-6.25h-4.88v13.2h-1.2V1.23h-4.86V.2h10.94v1.03z"/><path fill="#929292" d="M8.26 55.83h-5.8l-1.33 3.6H0l4.84-12.8h1.03l4.84 12.8H9.6l-1.34-3.6zM2.8 54.9h5.1l-2.57-6.96L2.8 54.9zm10.74 4.52h-1.06v-13.5h1.05v13.5zm2.28-4.9q0-1.37.53-2.47t1.5-1.7q.98-.62 2.2-.62 1.9 0 3.08 1.34 1.18 1.33 1.18 3.52v.2q0 1.4-.5 2.5T22.3 59q-.97.6-2.2.6-1.9 0-3.08-1.35t-1.17-3.54v-.2zm1.05.3q0 1.7.88 2.8.9 1.1 2.32 1.1 1.43 0 2.3-1.1.9-1.1.9-2.9v-.2q0-1.1-.4-2-.4-.9-1.14-1.4-.73-.5-1.67-.5-1.4 0-2.3 1.12-.9 1.1-.9 2.88v.2zM27.5 49.9l.03 1.64q.53-.88 1.33-1.34.8-.47 1.77-.47 1.53 0 2.28.87.77.86.78 2.58v6.24h-1.04v-6.25q0-1.27-.55-1.9-.54-.62-1.7-.62-.98 0-1.74.6-.74.62-1.1 1.66v6.54H26.5v-9.5h1zm8.45 4.68q0-2.24.98-3.54 1-1.3 2.7-1.3 1.93 0 2.94 1.54l.06-1.37h.98v9.35q0 1.83-1 2.9t-2.8 1.08q-1 0-1.9-.44-.9-.45-1.4-1.2l.6-.62q1.1 1.37 2.65 1.37 1.3 0 2.05-.78.73-.78.76-2.16v-1.2q-1 1.43-2.95 1.43-1.63 0-2.63-1.32t-1-3.55v-.14zm1.06.18q0 1.82.76 2.88.73 1.04 2.06 1.04 1.95 0 2.76-1.74v-4.42q-.37-.9-1.07-1.4-.7-.47-1.67-.47-1.3 0-2.05 1.04-.74 1-.74 3.04zm16.02 2.47l.16.82.2-.86 2.3-7.3h.9l2.25 7.2.25 1 .2-.9 1.95-7.3h1.1l-2.78 9.5h-.9l-2.43-7.53-.12-.52-.1.53-2.4 7.5h-.9l-2.77-9.5H51l2.03 7.3zm12.48 2.2h-1.06v-9.5h1.06v9.5zm-1.24-12.27q0-.3.2-.5.18-.2.52-.2t.53.2q.2.2.2.5t-.2.5q-.2.2-.5.2t-.53-.2-.2-.5zm5.74.32v2.43h1.96v.9H70v6.33q0 .8.28 1.2.3.37.96.37.26 0 .85-.1v.86q-.4.15-1.1.15-1.08 0-1.58-.6t-.5-1.86V50.8H67.2v-.87h1.74V47.5H70zm5.2 4.04q.53-.85 1.34-1.32.8-.47 1.76-.47 1.53 0 2.28.87.75.86.75 2.58v6.24H80.3v-6.25q-.02-1.27-.56-1.9-.52-.62-1.7-.62-.97 0-1.72.6-.75.62-1.1 1.66v6.54h-1.06v-13.5h1.05v5.6zm16.25 6.38l2.78-8h1.13L91.3 61.05l-.2.5q-.8 1.72-2.43 1.72-.38 0-.8-.12v-.87l.53.05q.77 0 1.25-.4.48-.36.82-1.3l.46-1.28-3.58-9.43h1.15l2.95 8zm4.8-3.38q0-1.37.53-2.47.54-1.1 1.5-1.7.98-.62 2.2-.62 1.9 0 3.1 1.34 1.17 1.33 1.17 3.52v.2q0 1.4-.54 2.5-.5 1.1-1.46 1.7-.97.6-2.2.6-1.9 0-3.1-1.35-1.16-1.34-1.16-3.54v-.2zm1.06.3q0 1.7.9 2.8.9 1.1 2.3 1.1 1.45 0 2.3-1.1.9-1.1.9-2.9v-.2q0-1.1-.4-2-.4-.9-1.12-1.4-.73-.5-1.67-.5-1.4 0-2.3 1.12-.9 1.1-.9 2.88v.2zm15.75 3.4q-.95 1.38-3.04 1.38-1.5 0-2.3-.88-.8-.9-.8-2.62v-6.2h1.06v6.07q0 2.7 2.2 2.7 2.28 0 2.9-1.88v-6.9h1.04v9.5h-1.03v-1.2zm8.15-7.42q-.34-.05-.72-.05-.98 0-1.67.55-.64.54-.93 1.6v6.52h-1.05v-9.5h1.04l.02 1.5q.83-1.7 2.68-1.7.44 0 .7.13l-.03.96zm5.47 3.72q0-1.37.52-2.47t1.5-1.7q.95-.62 2.2-.62 1.9 0 3.06 1.34 1.18 1.33 1.18 3.52v.2q0 1.4-.54 2.5-.52 1.1-1.5 1.7-.95.6-2.2.6-1.9 0-3.07-1.35t-1.17-3.54v-.2zm1.05.3q0 1.7.88 2.8.9 1.1 2.32 1.1t2.3-1.1q.9-1.1.9-2.9v-.2q0-1.1-.4-2-.42-.9-1.15-1.4-.73-.5-1.67-.5-1.4 0-2.3 1.12-.88 1.1-.88 2.88v.2zm14.02-4.02q-.34-.05-.72-.05-.98 0-1.67.55-.67.54-.96 1.6v6.52h-1.08v-9.5h1.03l.02 1.5q.82-1.7 2.67-1.7.44 0 .7.13l-.03.96zm1.06 3.78q0-2.22.97-3.53 1-1.32 2.7-1.32 1.9 0 2.93 1.52v-5.33h1.04v13.5h-.98l-.05-1.27q-1 1.45-2.94 1.45-1.64 0-2.65-1.32-1-1.33-1-3.58v-.12zm1.05.18q0 1.82.73 2.88.73 1.04 2.06 1.04 1.94 0 2.76-1.7V52.5q-.82-1.85-2.75-1.85-1.32 0-2.06 1.04-.77 1-.77 3.04zm13.05 4.84q-1.2 0-2.2-.6-.97-.6-1.5-1.66-.56-1.08-.56-2.4v-.38q0-1.37.53-2.47.54-1.1 1.5-1.75.94-.64 2.04-.64 1.76 0 2.77 1.2 1.02 1.18 1.02 3.23v.6h-6.8v.2q0 1.6.9 2.7.95 1.06 2.36 1.06.84 0 1.5-.3.64-.3 1.16-1l.68.5q-1.16 1.7-3.36 1.7zm-.2-8.97q-1.17 0-2 .87-.8.87-.98 2.34h5.7v-.12q-.04-1.37-.77-2.23-.74-.9-1.94-.9zm10.24.17q-.34-.05-.72-.05-.98 0-1.67.55-.67.54-.96 1.6v6.52h-1.08v-9.5h1.03l.02 1.5q.82-1.7 2.67-1.7.44 0 .7.13l-.03.96zm.36 11l-.64-.45q.8-1.07.83-2.22v-1.36h1v1.1q0 1.82-1.23 2.94zm11.06-3.9l2.77-8h1.14l-4.06 11.14-.2.5q-.8 1.72-2.4 1.72-.4 0-.8-.12l-.02-.87.55.05q.78 0 1.25-.4.5-.36.82-1.3l.46-1.28-3.6-9.43h1.16l2.96 8zm4.8-3.38q0-1.37.53-2.47t1.5-1.7q.95-.62 2.2-.62 1.9 0 3.06 1.34 1.18 1.33 1.18 3.52v.2q0 1.4-.54 2.5-.52 1.1-1.5 1.7-.95.6-2.2.6-1.9 0-3.07-1.35t-1.17-3.54v-.2zm1.06.3q0 1.7.88 2.8.9 1.1 2.32 1.1t2.3-1.1q.9-1.1.9-2.9v-.2q0-1.1-.4-2-.42-.9-1.15-1.4-.73-.5-1.67-.5-1.4 0-2.3 1.12-.88 1.1-.88 2.88v.2zm15.73 3.4q-.95 1.38-3.04 1.38-1.5 0-2.3-.88-.8-.9-.8-2.62v-6.2h1.06v6.07q0 2.7 2.2 2.7 2.28 0 2.9-1.88v-6.9H201v9.5h-1.03v-1.2zm10.45-1l.14.83.22-.86 2.28-7.3h.9l2.26 7.2.24 1 .2-.9 1.96-7.3h1.08l-2.78 9.5h-.9l-2.44-7.53-.1-.52-.12.53-2.4 7.5h-.9l-2.76-9.5h1.08l2 7.3zm12.46 2.2h-1.06v-9.5h1.06v9.5zm-1.24-12.26q0-.3.2-.5.18-.2.52-.2.33 0 .52.2.2.2.2.5t-.2.5q-.2.2-.52.2-.34 0-.53-.2t-.16-.5zm5.28 12.26h-1.06v-13.5h1.06v13.5zm4.05 0h-1.06v-13.5h1.03v13.5zm11.65-8.62q-.34-.05-.72-.05-.98 0-1.67.55-.64.54-.93 1.6v6.52h-1.05v-9.5h1.04l.02 1.5q.83-1.7 2.68-1.7.44 0 .7.13l-.03.96zm5.16 8.8q-1.22 0-2.2-.6-.98-.6-1.52-1.66-.55-1.08-.55-2.4v-.38q0-1.37.5-2.47.54-1.1 1.5-1.75.94-.64 2.04-.64 1.73 0 2.74 1.2 1 1.18 1 3.23v.6h-6.77v.2q0 1.6.93 2.7.93 1.06 2.34 1.06.83 0 1.5-.3.63-.3 1.15-1l.66.5q-1.15 1.7-3.35 1.7zm-.2-8.97q-1.18 0-2 .87-.8.87-1 2.34h5.72v-.12q-.05-1.37-.78-2.23-.74-.9-1.94-.9zm9.34 8.07q1.1 0 1.84-.6.75-.63.8-1.62h1.02q-.04.87-.54 1.6-.5.7-1.34 1.1-.82.42-1.77.42-1.85 0-2.94-1.3-1.1-1.3-1.1-3.5v-.32q0-1.4.5-2.5t1.4-1.66q.93-.6 2.16-.6 1.57 0 2.58.95 1.02.93 1.1 2.45h-1.02q-.07-1.12-.8-1.8-.74-.7-1.85-.7-1.42 0-2.2 1.04-.8 1.03-.8 2.88v.3q0 1.83.8 2.85.8 1 2.22 1zm9.46.9q-1.22 0-2.2-.6-.98-.6-1.52-1.66-.55-1.08-.55-2.4v-.38q0-1.37.5-2.47.54-1.1 1.5-1.75.94-.64 2.04-.64 1.73 0 2.74 1.2 1 1.18 1 3.23v.6h-6.77v.2q0 1.6.93 2.7.93 1.06 2.34 1.06.83 0 1.5-.3.63-.3 1.15-1l.66.5q-1.15 1.7-3.35 1.7zm-.2-8.97q-1.18 0-2 .87-.8.87-1 2.34h5.72v-.12q-.05-1.37-.78-2.23-.74-.9-1.94-.9zm7 8.8h-1.05v-9.5h1.1v9.5zm-1.23-12.27q0-.3.2-.5.18-.2.52-.2t.52.2q.2.2.2.5t-.2.5q-.2.2-.52.2t-.53-.2-.2-.5zm7.07 10.8l2.88-8.05h1.08l-3.54 9.54h-.85l-3.57-9.5h1.08L279 58zm9.26 1.64q-1.22 0-2.2-.6-.98-.6-1.52-1.66-.55-1.08-.55-2.4v-.38q0-1.37.5-2.47.54-1.1 1.5-1.75.94-.64 2.04-.64 1.73 0 2.74 1.2 1 1.18 1 3.23v.6H285v.2q0 1.6.93 2.7.93 1.06 2.34 1.06.83 0 1.5-.3.63-.3 1.15-1l.66.5q-1.15 1.7-3.35 1.7zm-.2-8.97q-1.18 0-2 .87-.8.87-1 2.34h5.72v-.12q-.05-1.37-.78-2.23-.74-.9-1.94-.9zm16.24 8.8q-.17-.46-.22-1.34-.55.7-1.4 1.1-.86.4-1.82.4-1.37 0-2.23-.8-.84-.75-.84-1.92 0-1.4 1.12-2.2 1.16-.8 3.23-.8h1.9v-1.1q0-1-.63-1.6-.62-.6-1.83-.6-1.1 0-1.8.57t-.74 1.36H298q0-1.13 1.06-1.96 1.06-.84 2.6-.84 1.6 0 2.5.8.92.8.95 2.22v4.5q0 1.38.3 2.06v.12h-1.12zm-3.32-.77q1.06 0 1.88-.5.84-.52 1.22-1.37v-2.1h-1.9q-1.56 0-2.45.56-.88.55-.88 1.53 0 .8.58 1.33.6.52 1.55.52zm7.94-8.76l.03 1.64q.54-.88 1.34-1.34.8-.47 1.73-.47 1.53 0 2.28.87.76.86.77 2.58v6.24H314v-6.25q0-1.27-.53-1.9-.53-.62-1.7-.62-.98 0-1.73.6-.75.62-1.1 1.66v6.54h-1.06v-9.5h1zM.52 79.52q0-1.37.53-2.47.54-1.1 1.5-1.7.98-.62 2.2-.62 1.9 0 3.1 1.34Q9 77.4 9 79.6v.2q0 1.4-.54 2.5-.53 1.1-1.5 1.7-.96.6-2.2.6-1.9 0-3.08-1.33Q.53 81.93.53 79.74v-.22zm1.06.3q0 1.7.88 2.8.9 1.1 2.32 1.1t2.3-1.1q.9-1.1.9-2.9v-.2q0-1.1-.4-2-.42-.9-1.15-1.4-.73-.5-1.67-.5-1.4 0-2.3 1.12-.88 1.1-.88 2.88v.2zm10.37 4.6v-8.65h-1.57v-.86h1.57V73.8q0-1.46.74-2.24.72-.78 2.05-.78.6 0 1.1.14l-.07.87q-.45-.1-.97-.1-.86 0-1.34.54-.5.56-.5 1.55v1.18h2.28v.87H13v8.64h-1.05zm5.85 0v-8.65h-1.58v-.86h1.6v-.95q0-1.52.8-2.35.84-.85 2.34-.85 1.18 0 2.43.5l-.2.92q-1.08-.47-2.2-.47-2.16 0-2.16 2.25v.96h2.22v.9h-2.22v8.64H17.8zm6.16 0H22.9v-9.5h1.06v9.5zm6.4-.72q1.1 0 1.83-.6.72-.63.8-1.62h1q-.05.87-.55 1.6-.5.7-1.34 1.1-.8.42-1.76.42-1.88 0-2.97-1.3-1.1-1.3-1.1-3.5v-.32q0-1.4.5-2.5t1.4-1.66q.92-.6 2.15-.6 1.56 0 2.57.95 1 .93 1.1 2.45h-1q-.08-1.12-.8-1.8-.75-.7-1.86-.7-1.43 0-2.22 1.04-.78 1.03-.78 2.88v.3q0 1.83.78 2.85.8 1 2.23 1zm6.94.72h-1.05v-9.5h1.05v9.5zm-1.24-12.26q0-.3.2-.5t.52-.2.53.2q.2.2.2.5t-.2.5q-.16.2-.5.2t-.53-.2-.2-.5zm10.1 12.26q-.15-.45-.2-1.33-.55.7-1.4 1.1-.86.4-1.8.4-1.4 0-2.24-.8-.85-.75-.85-1.92 0-1.4 1.16-2.2 1.16-.8 3.22-.8h1.9v-1.1q0-1-.62-1.6-.63-.6-1.83-.6-1.1 0-1.82.57t-.72 1.36H39.9q0-1.13 1.06-1.96 1.05-.84 2.6-.84 1.58 0 2.5.8.92.8.94 2.22v4.5q0 1.38.3 2.06v.12h-1.13zm-3.3-.76q1.06 0 1.88-.5.84-.52 1.22-1.37v-2.1h-1.88q-1.58 0-2.46.56-.9.55-.9 1.53 0 .8.6 1.33.6.52 1.54.52zm8.12.76h-1.06v-13.5h1.06v13.5zm14.9-4.66q0 2.23-.98 3.54-1 1.3-2.64 1.3-1.95 0-3-1.38v4.86h-1.03V74.9h.97l.06 1.36q1.02-1.53 2.97-1.53 1.7 0 2.68 1.3 1 1.3 1 3.58v.18zm-1.05-.18q0-1.82-.75-2.88T62 75.65q-.97 0-1.66.46-.7.5-1.07 1.4v4.55q.38.82 1.08 1.25.7.42 1.66.42 1.36 0 2.1-1.05.75-1.06.75-3.07zm4.57 4.84h-1.06v-13.5h1.06v13.5zm8.87 0q-.16-.45-.2-1.33-.56.7-1.42 1.1-.85.4-1.8.4-1.38 0-2.24-.8-.8-.75-.8-1.92 0-1.4 1.14-2.2 1.16-.8 3.23-.8h1.9v-1.1q0-1-.63-1.6-.62-.6-1.83-.6-1.1 0-1.82.57t-.72 1.36H72q0-1.13 1.05-1.96 1.06-.84 2.6-.84 1.6 0 2.5.8.92.8.95 2.22v4.5q0 1.38.3 2.06v.12h-1.13zm-3.3-.76q1.05 0 1.87-.5.84-.52 1.22-1.37v-2.1h-1.9q-1.56 0-2.45.56-.85.55-.85 1.53 0 .8.58 1.33.6.52 1.56.52zm6.5-4.08q0-2.24 1-3.54.98-1.3 2.68-1.3 1.94 0 2.95 1.54l.05-1.37h1v9.35q0 1.83-1.04 2.9t-2.76 1.08q-1 0-1.9-.44-.9-.45-1.4-1.2l.58-.62q1.13 1.37 2.66 1.37 1.32 0 2.06-.78.75-.78.77-2.16v-1.2q-1 1.43-2.94 1.43-1.65 0-2.65-1.32t-1-3.55v-.14zm1.07.18q0 1.82.73 2.88.73 1.04 2.05 1.04 1.95 0 2.75-1.74v-4.42q-.36-.9-1.06-1.4-.66-.47-1.64-.47-1.33 0-2.06 1.04-.75 1-.75 3.04zm10.52 4.66H92v-9.5h1.06v9.5zm-1.24-12.26q0-.3.2-.5t.52-.2.53.2q.2.2.2.5t-.2.5q-.2.2-.53.2t-.53-.2-.16-.5zm10.1 12.26q-.15-.45-.2-1.33-.55.7-1.4 1.1-.84.4-1.8.4-1.37 0-2.23-.8-.85-.75-.85-1.92 0-1.4 1.15-2.2 1.15-.8 3.22-.8h1.92v-1.1q0-1-.64-1.6-.62-.6-1.83-.6-1.1 0-1.82.57t-.72 1.36H95.7q0-1.13 1.04-1.96 1.07-.84 2.6-.84 1.6 0 2.5.8.93.8.96 2.22v4.5q0 1.38.3 2.06v.12h-1.13zm-3.3-.76q1.06 0 1.88-.5.84-.52 1.22-1.37v-2.1h-1.9q-1.56 0-2.45.56-.9.55-.9 1.53 0 .8.6 1.33.6.52 1.55.52zm11.33-7.86q-.34-.05-.72-.05-.98 0-1.67.55-.67.54-.96 1.6v6.52h-1.05v-9.5h1.03l.02 1.5q.83-1.7 2.68-1.7.44 0 .7.13l-.03.96zm2.83 8.62h-1.06v-9.5h1.06v9.5zm-1.24-12.26q0-.3.2-.5.18-.2.52-.2.33 0 .52.2.2.2.2.5t-.2.5q-.2.2-.52.2-.34 0-.53-.2t-.2-.5zm9.8 9.84q0-.78-.63-1.25-.6-.48-1.86-.74-1.26-.24-1.97-.6-.7-.34-1.03-.84-.34-.5-.34-1.2 0-1.14.93-1.87.94-.75 2.4-.75 1.6 0 2.56.8.95.78.95 2.04h-1.06q0-.84-.7-1.4-.7-.55-1.78-.55-1.03 0-1.67.47-.62.46-.62 1.2 0 .7.52 1.1.52.4 1.9.7 1.4.35 2.08.7.7.38 1.03.9.33.5.33 1.26 0 1.2-.98 1.93-.97.7-2.54.7-1.68 0-2.7-.8-1.04-.8-1.04-2.02h1.05q.06.92.8 1.44.7.5 1.9.5 1.1 0 1.75-.47.68-.48.68-1.22zm4.36-7.1l.04 1.56q.53-.86 1.32-1.3.8-.43 1.76-.43 2.25 0 2.85 1.85.5-.9 1.37-1.36.85-.5 1.88-.5 3.06 0 3.12 3.35v6.35h-1.06v-6.27q0-1.27-.55-1.9-.54-.6-1.76-.6-1.13.02-1.92.74-.78.7-.87 1.7v6.3h-1.05v-6.35q0-1.22-.58-1.82-.56-.6-1.74-.6-.96 0-1.7.57-.7.57-1.03 1.7v6.5h-1.05v-9.5h1zm23.8.9q-.33-.05-.7-.05-1 0-1.68.55-.67.54-.96 1.6v6.52h-1.05v-9.5h1.06l.02 1.5q.83-1.7 2.68-1.7.44 0 .7.13l-.03.96zm5.16 8.8q-1.22 0-2.2-.6-.98-.6-1.52-1.66-.55-1.08-.55-2.4v-.38q0-1.37.5-2.47.54-1.1 1.5-1.75.94-.64 2.04-.64 1.73 0 2.74 1.2 1 1.18 1 3.23v.6h-6.77v.2q0 1.6.93 2.7.93 1.06 2.34 1.06.83 0 1.5-.3.63-.3 1.15-1l.66.5q-1.15 1.7-3.35 1.7zm-.2-8.97q-1.18 0-2 .87-.8.87-1 2.34h5.72v-.12q-.05-1.37-.78-2.23-.74-.9-1.94-.9zm13.5 4.13q0 2.23-1 3.54-.98 1.3-2.64 1.3-1.95 0-2.98-1.38v4.86h-1.05V74.9h.95l.05 1.36q1.04-1.53 3-1.53 1.7 0 2.66 1.3.98 1.3.98 3.58v.18zm-1.07-.18q0-1.82-.78-2.88t-2.08-1.05q-.97 0-1.66.46-.7.5-1.07 1.4v4.55q.38.82 1.1 1.25.7.42 1.66.42 1.33 0 2.06-1.05.75-1.06.75-3.07zm2.8-.06q0-1.37.52-2.47.54-1.1 1.5-1.7.98-.62 2.2-.62 1.9 0 3.1 1.34 1.17 1.33 1.17 3.52v.2q0 1.4-.57 2.5-.53 1.1-1.5 1.7-.96.6-2.2.6-1.9 0-3.08-1.35-1.17-1.34-1.17-3.54v-.2zm1.05.3q0 1.7.88 2.8.9 1.1 2.32 1.1t2.3-1.1q.9-1.1.9-2.9v-.2q0-1.1-.4-2-.42-.9-1.15-1.4-.73-.5-1.67-.5-1.4 0-2.3 1.12-.88 1.1-.88 2.88v.2zm14.02-4.02q-.34-.05-.72-.05-.98 0-1.67.55-.67.54-.96 1.6v6.52h-1.05v-9.5h1.03l.02 1.5q.83-1.7 2.68-1.7.44 0 .7.13l-.03.96zm3.73-3.32v2.43h1.97v.9h-1.96v6.33q0 .8.3 1.2.3.37.97.37.26 0 .85-.1l.05.86q-.4.15-1.12.15-1.08 0-1.58-.6t-.5-1.86V75.8h-1.74v-.87h1.76V72.5h1.05zm10.85 9.75l.15.82.22-.86 2.28-7.3h.9l2.26 7.2.24 1 .2-.9 1.96-7.3h1.08l-2.78 9.5h-.9l-2.44-7.53-.1-.52-.12.53-2.4 7.5h-.9l-2.76-9.5h1.08l2 7.3zm12.35-5.7q.5-.86 1.3-1.33.82-.47 1.78-.47 1.53 0 2.28.87.74.86.75 2.58v6.24h-1v-6.25q0-1.27-.56-1.9-.53-.62-1.7-.62-.97 0-1.73.6-.74.62-1.1 1.66v6.54h-1.05v-13.5h1.05v5.6zm10 7.9h-1.06v-9.5h1.06v9.5zm-1.24-12.27q0-.3.2-.5.18-.2.52-.2t.52.2q.2.2.2.5t-.2.5q-.2.2-.52.2t-.53-.2-.2-.5zm7.62 11.54q1.1 0 1.83-.6.78-.63.84-1.62h1q-.03.87-.53 1.6-.5.7-1.34 1.1-.82.42-1.77.42-1.9 0-2.98-1.3-1.07-1.3-1.07-3.5v-.32q0-1.4.5-2.5.48-1.07 1.4-1.66.92-.6 2.15-.6 1.56 0 2.57.95 1.02.93 1.1 2.45h-1.02q-.07-1.12-.8-1.8-.74-.7-1.85-.7-1.43 0-2.22 1.04-.78 1.03-.78 2.88v.3q0 1.83.78 2.85.8 1 2.23 1zm6.82-7.18q.5-.85 1.3-1.32.82-.47 1.78-.47 1.53 0 2.28.87.74.86.75 2.58v6.24h-1v-6.25q0-1.27-.55-1.9-.53-.62-1.7-.62-.97 0-1.73.6-.75.62-1.1 1.66v6.54h-1.06v-13.5h1.05v5.6zm16.73 7.18q1.1 0 1.83-.6.75-.63.8-1.62h1.02q-.04.87-.54 1.6-.5.7-1.34 1.1-.82.42-1.77.42-1.88 0-2.97-1.3-1.1-1.3-1.1-3.5v-.32q0-1.4.5-2.5t1.4-1.66q.93-.6 2.16-.6 1.56 0 2.57.95 1 .93 1.06 2.45h-1q-.08-1.12-.82-1.8-.73-.7-1.84-.7-1.42 0-2.2 1.04-.8 1.03-.8 2.88v.3q0 1.83.8 2.85.8 1 2.22 1zm5.2-4.18q0-1.37.5-2.47.55-1.1 1.5-1.7 1-.62 2.2-.62 1.9 0 3.1 1.34 1.18 1.33 1.18 3.52v.2q0 1.4-.5 2.5t-1.5 1.7q-.97.6-2.2.6-1.9 0-3.1-1.35-1.17-1.34-1.17-3.54v-.2zm1.04.3q0 1.7.88 2.8.9 1.1 2.32 1.1t2.3-1.1q.9-1.1.9-2.9v-.2q0-1.1-.4-2-.42-.9-1.15-1.4-.73-.5-1.67-.5-1.4 0-2.3 1.12-.88 1.1-.88 2.88v.2zm10.63-4.92l.02 1.64q.54-.88 1.34-1.34.8-.47 1.76-.47 1.53 0 2.28.87.75.86.76 2.58v6.24h-1.05v-6.25q0-1.27-.5-1.9-.54-.62-1.7-.62-1 0-1.74.6-.75.62-1.1 1.66v6.54h-1.06v-9.5h1zm9.5 9.52v-8.65h-1.6v-.86h1.6v-.95q0-1.52.82-2.35.83-.85 2.33-.85 1.18 0 2.43.5l-.18.92q-1.07-.47-2.18-.47-2.17 0-2.17 2.25v.96h2.22v.9h-2.22v8.64H278zm6.15 0h-1.06v-9.5h1.03v9.5zm7.28-8.62q-.34-.05-.72-.05-.95 0-1.64.55-.67.54-.96 1.6v6.52h-1.06v-9.5h1.03l.02 1.5q.8-1.7 2.66-1.7.44 0 .7.13l-.03.96zm2.6-.9l.04 1.56q.53-.86 1.32-1.3.76-.43 1.73-.43 2.25 0 2.85 1.85.5-.9 1.36-1.36.85-.5 1.88-.5 3.06 0 3.12 3.35v6.35h-1.06v-6.27q0-1.27-.54-1.9-.54-.6-1.76-.6-1.13.02-1.92.74-.78.7-.87 1.7v6.3h-1.04v-6.35q0-1.22-.58-1.82-.57-.6-1.75-.6-1 0-1.7.57-.72.57-1.06 1.7v6.5H293v-9.5h1zm20.7 7.1q0-.78-.63-1.25-.62-.48-1.9-.74-1.25-.24-1.96-.6-.7-.34-1.03-.84-.3-.5-.3-1.2 0-1.14.93-1.87.95-.75 2.42-.75 1.6 0 2.55.8.96.78.96 2.04h-1.06q0-.84-.7-1.4-.7-.55-1.76-.55-1.03 0-1.67.47-.62.46-.62 1.2 0 .7.52 1.1.52.4 1.9.7 1.4.35 2.08.7.7.38 1.03.9.33.5.33 1.26 0 1.2-.96 1.93-.97.7-2.54.7-1.67 0-2.7-.8-1.03-.8-1.03-2.02h1.05q.07.92.8 1.44.7.5 1.88.5 1.1 0 1.78-.47.68-.48.68-1.22zm12.54 2.42h-1.06V72.9l-3.45 1.28v-.98l4.36-1.62h.18v12.84zm12.8-5.32q0 2.7-1 4.1-1 1.4-2.9 1.4t-2.9-1.38q-1.03-1.38-1.06-4v-2.3q0-2.7 1-4.08t2.96-1.4q1.9 0 2.9 1.35 1 1.3 1.04 3.92v2.35zm-1.05-2.3q0-2.2-.72-3.33-.7-1.13-2.16-1.13-1.43 0-2.15 1.1-.75 1.1-.76 3.25v2.5q0 2.2.73 3.33.74 1.16 2.16 1.16 1.4 0 2.12-1.14.73-1.13.74-3.32V76.8zm11.04 2.3q0 2.7-1 4.1-1 1.4-2.92 1.4-1.9 0-2.9-1.38-1.02-1.38-1.05-4v-2.3q0-2.7 1-4.08t2.9-1.4q1.9 0 2.9 1.35 1 1.3 1.04 3.92v2.35zM349 76.8q0-2.2-.72-3.33-.7-1.13-2.16-1.13-1.43 0-2.15 1.1t-.73 3.25v2.5q0 2.2.73 3.33.75 1.16 2.17 1.16 1.4 0 2.12-1.14.73-1.13.74-3.32V76.8zm3.08-2.72q0-1.14.7-1.9.7-.74 1.8-.74t1.8.75q.7.72.7 1.92v.62q0 1.13-.7 1.88t-1.78.75q-1.08 0-1.8-.75t-.72-1.95v-.62zm.85.68q0 .82.45 1.35.45.55 1.22.55.75 0 1.18-.52.45-.53.45-1.37v-.65q0-.8-.45-1.33-.46-.54-1.2-.54-.73 0-1.2.53-.45.53-.45 1.4v.63zm5.6 6.52q0-1.14.7-1.9.7-.73 1.78-.73t1.8.74q.75.7.75 1.92v.63q0 1.14-.7 1.9-.72.73-1.8.73t-1.8-.74q-.7-.75-.7-1.95v-.64zm.83.7q0 .8.45 1.34.5.53 1.25.53t1.2-.53q.45-.53.45-1.4v-.64q0-.84-.47-1.35-.45-.52-1.2-.52-.74 0-1.2.55-.46.52-.46 1.4V82zm-4.43 1.38l-.66-.43 6.25-10 .66.42-6.25 10zM7.23 108.22q-.95 1.38-3.04 1.38-1.55 0-2.34-.88-.8-.9-.8-2.62v-6.2H2.1v6.07q0 2.72 2.2 2.72 2.28 0 2.9-1.9v-6.9h1.04v9.5h-1l-.02-1.2zM12 99.9l.02 1.64q.54-.88 1.34-1.34.8-.47 1.77-.47 1.52 0 2.27.87.75.86.76 2.58v6.24H17.1v-6.25q0-1.27-.53-1.9-.53-.62-1.7-.62-.97 0-1.73.6-.75.62-1.1 1.66v6.54H11v-9.5h1zm10.04 9.52H21v-9.5h1.04v9.5zM20.8 97.16q0-.3.2-.5t.52-.2.53.2q.2.2.2.5t-.2.5q-.2.2-.53.2t-.52-.2-.2-.5zm3.7 7.42q0-2.23.97-3.53 1-1.3 2.7-1.3 1.93 0 2.93 1.46l.06-1.3h.98v13.2H31.1v-4.84q-1.05 1.36-2.94 1.36-1.67 0-2.67-1.3t-1-3.57v-.14zm1.05.18q0 1.85.74 2.9.7 1.05 2.03 1.05 1.9 0 2.74-1.6v-4.67q-.4-.84-1.1-1.3-.7-.47-1.63-.47-1.33 0-2.07 1.06-.75 1.04-.75 3.07zm15.53 3.46q-.95 1.38-3.03 1.38-1.52 0-2.3-.88-.8-.9-.82-2.62v-6.2h1.04v6.07q0 2.72 2.2 2.72 2.3 0 2.9-1.9v-6.9h1.05v9.5H41.1l-.02-1.2zm7.44 1.38q-1.2 0-2.2-.6-.97-.6-1.5-1.66-.56-1.07-.56-2.4v-.38q0-1.37.53-2.47.5-1.1 1.45-1.75.95-.63 2.06-.63 1.74 0 2.75 1.2 1.02 1.16 1.02 3.2v.6h-6.8v.2q0 1.62.93 2.7.94 1.07 2.35 1.07.84 0 1.48-.3.65-.3 1.18-1l.68.5q-1.17 1.7-3.38 1.7zm-.2-8.96q-1.18 0-2 .87-.8.9-.98 2.36h5.7v-.1q-.04-1.38-.78-2.24-.73-.85-1.93-.85zm6.84-.74l.04 1.64q.53-.88 1.33-1.34.8-.47 1.77-.47 1.53 0 2.27.87.75.86.76 2.58v6.24h-1.05v-6.25q0-1.27-.54-1.9-.53-.62-1.7-.62-.97 0-1.73.6-.72.62-1.1 1.66v6.54H54.2v-9.5h1zm12.56 9.7q-1.2 0-2.2-.6-.97-.6-1.52-1.66-.54-1.07-.54-2.4v-.38q0-1.37.52-2.47.54-1.1 1.5-1.75.94-.63 2.05-.63 1.73 0 2.74 1.2 1.02 1.16 1.02 3.2v.6h-6.8v.2q0 1.62.9 2.7.94 1.07 2.34 1.07.85 0 1.5-.3.64-.3 1.17-1l.67.5q-1.18 1.7-3.38 1.7zm-.2-8.96q-1.18 0-2 .87-.8.9-.98 2.36h5.7v-.1q-.04-1.38-.78-2.24-.74-.85-1.93-.85zM79.05 107q0-.78-.63-1.26-.63-.47-1.9-.74-1.26-.27-1.96-.6-.7-.36-1.04-.86-.33-.5-.33-1.22 0-1.12.9-1.85.95-.74 2.4-.74 1.6 0 2.56.8.97.77.97 2.04H79q0-.83-.7-1.4-.7-.54-1.77-.54-1.03 0-1.67.46-.62.43-.62 1.2 0 .7.52 1.1.53.36 1.9.7 1.4.3 2.08.7.7.35 1.03.9.33.5.33 1.23 0 1.2-.97 1.92t-2.53.72q-1.67 0-2.7-.8-1.03-.82-1.03-2.05h1.05q.07.93.78 1.45.72.5 1.9.5 1.1 0 1.77-.48.68-.5.68-1.23zm9.1 0q0-.78-.63-1.26-.62-.47-1.9-.74-1.25-.27-1.96-.6-.7-.36-1.03-.86-.34-.5-.34-1.22 0-1.12.9-1.85.95-.74 2.4-.74 1.6 0 2.57.8.96.77.96 2.04H88.1q0-.83-.7-1.4-.7-.54-1.76-.54-1.04 0-1.67.46-.62.43-.62 1.2 0 .7.5 1.1.54.36 1.92.7 1.4.3 2.08.7.7.35 1.02.9.34.5.34 1.23 0 1.2-.95 1.92t-2.53.72q-1.65 0-2.7-.8-1-.82-1-2.05h1.04q.06.93.77 1.45.73.5 1.9.5 1.1 0 1.8-.48.66-.5.66-1.23zm7.23-2.48q0-1.37.53-2.47.56-1.1 1.5-1.7 1-.62 2.24-.62 1.9 0 3.07 1.34 1.18 1.32 1.18 3.52v.2q0 1.4-.54 2.5-.52 1.1-1.5 1.7-.96.6-2.2.6-1.9 0-3.07-1.36-1.18-1.33-1.18-3.53v-.2zm1.05.3q0 1.7.88 2.8.9 1.08 2.35 1.08 1.43 0 2.3-1.1.9-1.08.9-2.88v-.2q0-1.1-.4-2-.42-.9-1.14-1.4-.73-.5-1.67-.5-1.4 0-2.3 1.1-.9 1.1-.9 2.9v.2zm10.37 4.6v-8.65h-1.57v-.86h1.58V98.8q0-1.46.76-2.24.75-.78 2.08-.78.6 0 1.1.14l-.06.87q-.44-.1-.96-.1-.86 0-1.35.54-.48.56-.48 1.55v1.18h2.26v.87h-2.27v8.64h-1.06zm12.64-1.52l2.77-8h1.17l-4.06 11.14-.2.5q-.8 1.72-2.43 1.72-.38 0-.8-.12l-.02-.87.55.05q.75 0 1.22-.38.5-.38.82-1.3l.47-1.3-3.6-9.43h1.18l2.96 8zm4.8-3.38q0-1.37.53-2.47.54-1.1 1.5-1.7.98-.62 2.2-.62 1.9 0 3.1 1.34 1.17 1.32 1.17 3.52v.2q0 1.4-.54 2.5-.53 1.1-1.5 1.7-.96.6-2.2.6-1.9 0-3.08-1.36-1.17-1.33-1.17-3.53v-.2zm1.06.3q0 1.7.88 2.8.9 1.08 2.32 1.08t2.3-1.1q.9-1.08.9-2.88v-.2q0-1.1-.4-2-.42-.9-1.15-1.4-.73-.5-1.67-.5-1.4 0-2.3 1.1-.88 1.1-.88 2.9v.2zm15.73 3.4q-.95 1.38-3.04 1.38-1.55 0-2.34-.88-.8-.9-.8-2.62v-6.2h1.04v6.07q0 2.72 2.2 2.72 2.3 0 2.9-1.9v-6.9h1.05v9.5h-1.02v-1.2zm8.17-7.42q-.35-.05-.73-.05-.98 0-1.67.55-.67.55-.96 1.6v6.52h-1.05v-9.5h1l.02 1.5q.83-1.68 2.68-1.68.45 0 .7.1l-.02.97zm13.68 3.96q0 2.22-1 3.53-.97 1.3-2.63 1.3-1.95 0-2.98-1.4v4.85h-1.05V99.9h.98l.05 1.35q1.03-1.52 2.98-1.52 1.7 0 2.67 1.3.98 1.3.98 3.58v.18zm-1.06-.18q0-1.82-.75-2.88t-2.08-1.05q-1 0-1.7.46-.7.5-1.05 1.4v4.55q.37.8 1.08 1.25.7.42 1.66.42 1.33 0 2.06-1.05.75-1.06.75-3.07zm9.4 4.84q-.16-.45-.2-1.33-.56.7-1.42 1.1-.85.4-1.8.4-1.38 0-2.24-.8-.84-.75-.84-1.92 0-1.4 1.15-2.2 1.16-.8 3.23-.8h1.9v-1.1q0-1-.63-1.6-.62-.6-1.83-.6-1.1 0-1.82.57t-.72 1.36h-1.05q0-1.13 1.05-1.96 1.06-.84 2.6-.84 1.6 0 2.5.8.92.8.95 2.22v4.5q0 1.38.3 2.06v.12h-1.13zm-3.3-.76q1.05 0 1.87-.5.8-.52 1.2-1.37v-2.1h-1.9q-1.57 0-2.46.56-.88.55-.88 1.53 0 .8.58 1.33.6.52 1.55.52zm14.58-3.9q0 2.22-1 3.53-.97 1.3-2.63 1.3-1.95 0-2.98-1.4v4.85h-1.08V99.9h.98l.06 1.35q1.03-1.52 2.98-1.52 1.7 0 2.67 1.3 1 1.3 1 3.58v.18zm-1.06-.18q0-1.82-.75-2.88t-2.1-1.05q-.98 0-1.67.46-.7.5-1.06 1.4v4.55q.36.8 1.07 1.25.7.42 1.66.42 1.34 0 2.07-1.05.74-1.06.74-3.07zm7.08 5.02q-1.22 0-2.2-.6-.98-.6-1.52-1.66-.55-1.07-.55-2.4v-.38q0-1.37.53-2.47.54-1.1 1.5-1.75.94-.63 2.04-.63 1.73 0 2.74 1.2 1.02 1.16 1.02 3.2v.6h-6.78v.2q0 1.62.92 2.7.93 1.07 2.34 1.07.84 0 1.5-.3.64-.3 1.16-1l.66.5q-1.16 1.7-3.36 1.7zm-.2-8.96q-1.18 0-2 .87-.8.9-1 2.36h5.72v-.1q-.05-1.38-.78-2.24-.74-.85-1.94-.85zm10.23.16q-.34-.05-.72-.05-.98 0-1.67.55-.67.55-.96 1.6v6.52h-1.05v-9.5h1.03l.02 1.5q.83-1.68 2.68-1.68.44 0 .7.1l-.03.97zm.45 8q0-.32.2-.53.2-.22.55-.22.35 0 .56.22.2.2.2.52 0 .3-.2.5t-.53.2q-.35 0-.55-.2-.2-.2-.2-.5z"/><path fill="#69bdf9" d="M304.8 165.85q.1-.97-.45-1.68-.56-.72-2-1.3-1.4-.56-2.1-1.1-.68-.57-1-1.3-.33-.7-.25-1.67.12-1.62 1.23-2.62 1.1-1 2.83-1.17l.34-1.93h1l-.35 1.98q1.5.22 2.25 1.36.74 1.13.6 3h-1.17q.14-1.5-.48-2.4-.63-.9-1.87-.94-1.3-.02-2.2.74-.9.74-1.03 1.97-.17 1.57 1.26 2.42.4.2 1.5.66 1.1.44 1.67.87 1.58 1.16 1.43 3.07-.14 1.63-1.27 2.64t-2.92 1.15l-.3 1.84h-1l.33-1.86q-1.12-.1-1.9-.67-.8-.56-1.16-1.5-.37-.93-.26-2.1h1.17q-.12 1.5.6 2.4.75.86 2.13.9 1.36 0 2.32-.77.98-.77 1.1-2zm11.06 3.57h-1.76l3.34-19.16-6.02 2.14.3-1.73 7.45-2.65h.33l-3.65 21.4zm20-6.87h3.23l-.3 1.48h-3.2l-.96 5.4h-1.74l.95-5.4h-9.68l.1-.98 12.13-14.96h1.97l-2.5 14.43zm-9.3 0h7.55l2.14-12-.9 1.2-8.76 10.8zm14.22 5.82q.04-.5.4-.86.4-.34.9-.36.53 0 .86.36.34.35.3.9-.03.5-.4.83-.38.32-.9.34-.5 0-.86-.33-.33-.33-.3-.86zm19.26-8.8q-1.12 1.4-2.57 2.16-1.45.76-3 .7-1.66-.03-2.86-.98t-1.72-2.55q-.55-1.6-.37-3.5.2-2.14 1.2-3.9 1.03-1.8 2.6-2.77 1.56-.98 3.45-.95 2.52.06 3.96 1.76 1.46 1.7 1.54 4.76.05 1.64-.4 4.35-.9 5.28-3.76 8.07-2.84 2.8-7.23 2.87h-.72l.17-1.55h.57q3.6-.06 5.86-2.15 2.27-2.1 3.3-6.35zm-5.26 1.35q1.67.06 3.16-.95 1.5-1.03 2.37-2.8.24-1.8.24-2.52 0-2.5-1-3.9-.98-1.4-2.84-1.46-1.43-.06-2.6.73-1.16.78-1.93 2.2-.77 1.42-.94 3.06-.16 1.5.2 2.8.38 1.27 1.23 2.04.87.74 2.13.77zm21.55-1.36q-1.12 1.4-2.57 2.17-1.45.76-3 .7-1.66-.03-2.86-.98t-1.75-2.55q-.55-1.6-.37-3.5.22-2.14 1.2-3.9 1.03-1.8 2.6-2.77 1.56-.98 3.45-.95 2.52.06 3.96 1.76t1.5 4.76q.05 1.64-.4 4.35-.9 5.28-3.76 8.07-2.84 2.8-7.23 2.87h-.7l.17-1.55h.6q3.6-.06 5.85-2.15 2.27-2.1 3.3-6.35zm-5.26 1.36q1.67.06 3.16-.95 1.5-1.03 2.37-2.8.2-1.8.2-2.52 0-2.5-1-3.9-.97-1.4-2.83-1.46-1.42-.06-2.6.73-1.15.78-1.92 2.2-.77 1.42-.94 3.06-.13 1.5.2 2.8.4 1.27 1.26 2.04.87.74 2.13.77z"/></svg>