<svg xmlns="http://www.w3.org/2000/svg" width="380" height="180" viewBox="0 0 380 180.00001"><path fill="#383840" d="M9.63 10.92q0-1.18-.83-1.86-.83-.7-3.03-1.3-2.2-.63-3.23-1.37Q1.1 5.33 1.1 3.65 1.1 2.03 2.44 1t3.43-1Q7.3 0 8.4.56q1.13.55 1.74 1.53.62.95.62 2.15H9.54q0-1.45-1-2.33-1-.9-2.67-.9-1.63 0-2.6.74-.96.73-.96 1.9 0 1.08.9 1.77.87.68 2.78 1.2 1.9.52 2.9 1.1 1 .55 1.5 1.33.48.78.48 1.84 0 1.7-1.34 2.7Q8.2 14.63 6 14.63q-1.5 0-2.77-.54-1.24-.56-1.9-1.5-.64-1-.64-2.24h1.2q0 1.5 1.1 2.37 1.14.87 3 .87 1.66 0 2.67-.72 1-.74 1-1.95zM15 .2l5.26 12.55L25.52.2h1.6v14.22h-1.2v-6.2l.1-6.34-5.3 12.54h-.92l-5.28-12.5.1 6.27v6.2h-1.2V.2h1.6zm23.77 10.72q0-1.18-.83-1.86-.83-.7-3.03-1.3-2.2-.63-3.2-1.37-1.44-1.06-1.44-2.74 0-1.63 1.34-2.65T35 0q1.43 0 2.54.55 1.13.55 1.74 1.53.62.97.62 2.17h-1.2q0-1.45-1-2.33-1-.9-2.7-.9-1.62 0-2.58.74-.97.73-.97 1.9 0 1.08.87 1.77.87.68 2.78 1.2 1.92.52 2.9 1.1 1 .55 1.5 1.33.48.78.48 1.84 0 1.68-1.34 2.7-1.34 1.02-3.54 1.02-1.5 0-2.76-.54-1.25-.54-1.9-1.5-.65-.97-.65-2.22H31q0 1.5 1.1 2.37 1.14.87 3 .87 1.66 0 2.67-.73 1-.73 1-1.95zm10.13 3.5h-1.2V.2h1.2v14.22zm14.44 0h-1.2L53.97 2.25v12.17h-1.2V.2h1.2l8.18 12.18V.2h1.2v14.22zM74.8 7.78h-6.6v6.64H67V.2h8.8v1.03h-7.6v5.52h6.63v1.03zm13.93.3q0 1.97-.68 3.45-.67 1.48-1.93 2.28-1.26.84-2.9.84-2.5 0-4.04-1.78-1.53-1.8-1.53-4.82V6.56q0-1.94.68-3.44.7-1.5 1.96-2.3 1.23-.8 2.9-.8t2.86.78q1.26.8 1.94 2.23.7 1.45.7 3.35v1.7zm-1.2-1.54q0-2.57-1.16-4.02-1.16-1.46-3.18-1.46-2 0-3.2 1.47-1.17 1.45-1.17 4.07v1.48q0 2.53 1.17 4.02 1.2 1.47 3.2 1.47 2.04 0 3.18-1.45 1.13-1.47 1.13-4.08v-1.5zM97.1 8.5h-4.14v5.92h-1.2V.2h4.6q2.3 0 3.57 1.1t1.28 3.1q0 1.36-.8 2.4-.8 1.05-2.12 1.45l3.55 6.04v.1h-1.27L97.1 8.5zm-4.14-1.02h3.68q1.52 0 2.44-.86.9-.86.9-2.23 0-1.5-.94-2.36-.96-.83-2.7-.83h-3.38v6.26zM106.06.2l5.25 12.55L116.6.2h1.6v14.22H117v-6.2l.1-6.34-5.3 12.54h-.92l-5.28-12.5.1 6.27v6.2h-1.2V.2h1.6z"/><path fill="#929292" d="M5.16 53.6l3.9-6.98h1.26L5.7 54.6v4.82H4.6V54.6L0 46.62h1.28l3.88 6.98zm5.64.92q0-1.37.54-2.47.53-1.1 1.5-1.7.98-.62 2.2-.62 1.9 0 3.08 1.34 1.18 1.33 1.18 3.52v.2q0 1.4-.54 2.5-.52 1.1-1.5 1.7-.96.6-2.2.6-1.9 0-3.07-1.35-1.2-1.34-1.2-3.54v-.2zm1.06.3q0 1.7.88 2.8.9 1.1 2.32 1.1 1.43 0 2.3-1.1.9-1.1.9-2.9v-.2q0-1.1-.4-2-.4-.9-1.14-1.4-.73-.5-1.67-.5-1.4 0-2.3 1.12-.9 1.1-.9 2.88v.2zm15.74 3.4q-.95 1.38-3.03 1.38-1.52 0-2.32-.88-.8-.9-.8-2.62v-6.2h1.04v6.07q0 2.7 2.2 2.7 2.25 0 2.86-1.88v-6.9h1.06v9.5H27.6v-1.2zm10.43-1l.16.83.2-.86 2.26-7.3h.9l2.26 7.2.25 1 .2-.9 1.94-7.3h1.1l-2.77 9.5h-.9l-2.44-7.53-.1-.52-.14.53-2.4 7.5h-.9l-2.76-9.5H36l2 7.3zm12.47 2.2h-1.05v-9.5h1.05v9.5zm-1.24-12.26q0-.3.2-.5t.52-.2.53.2q.2.2.2.5t-.2.5q-.16.2-.5.2t-.52-.2-.2-.5zm5.3 12.26H53.5v-13.5h1.04v13.5zm4.04 0h-1.07v-13.5h1.06v13.5zm6.83-4.84q0-2.24.98-3.54 1-1.3 2.7-1.3 1.96 0 2.97 1.54l.06-1.37h1v9.35q0 1.83-1.04 2.9t-2.8 1.08q-1 0-1.9-.44-.9-.45-1.4-1.2l.6-.62q1.1 1.37 2.64 1.37 1.32 0 2.06-.78t.76-2.16v-1.2q-1 1.43-2.95 1.43-1.63 0-2.63-1.32t-1-3.55v-.14zm1.06.18q0 1.82.7 2.88.73 1.04 2.06 1.04 1.94 0 2.75-1.74v-4.42q-.36-.9-1.06-1.4-.7-.47-1.67-.47-1.33 0-2.07 1.04-.73 1-.73 3.04zM79.5 59.6q-1.22 0-2.2-.6-.98-.6-1.52-1.66-.55-1.08-.55-2.4v-.38q0-1.37.53-2.47.54-1.1 1.5-1.75.93-.64 2.04-.64 1.73 0 2.74 1.2 1.02 1.18 1.02 3.23v.6H76.3v.2q0 1.6.92 2.7.93 1.06 2.34 1.06.84 0 1.48-.3.65-.3 1.18-1l.66.5q-1.16 1.7-3.37 1.7zm-.2-8.97q-1.18 0-2 .87-.8.87-1 2.34h5.72v-.12q-.05-1.37-.78-2.23-.74-.9-1.94-.9zm7.46-3.15v2.43h1.97v.9h-1.97v6.33q0 .8.28 1.2.3.37.96.37.27 0 .85-.1l.05.86q-.4.15-1.13.15-1.1 0-1.6-.6-.5-.64-.5-1.86V50.8H84v-.87h1.75V47.5h1.05zm14.68 10.74q-.95 1.38-3.03 1.38-1.52 0-2.3-.88-.8-.9-.82-2.62v-6.2h1.07v6.07q0 2.7 2.2 2.7 2.3 0 2.9-1.88v-6.9h1.05v9.5h-1l-.03-1.2zm11.4-3.46q0 2.23-1 3.54-.96 1.3-2.6 1.3-1.96 0-3-1.38v4.86h-1.05V49.9h1l.06 1.36q1.03-1.53 2.98-1.53 1.7 0 2.67 1.3t.98 3.58v.18zm-1.05-.18q0-1.82-.7-2.88t-2.1-1.05q-.96 0-1.66.46-.7.5-1.06 1.4v4.55q.38.82 1.08 1.25.7.42 1.66.42 1.34 0 2.08-1.05.74-1.06.74-3.07zm3 0q0-2.22.97-3.53 1-1.32 2.7-1.32 1.92 0 2.93 1.52v-5.33h1.04v13.5h-.98l-.04-1.27q-1 1.45-2.97 1.45-1.65 0-2.66-1.32-1-1.33-1-3.58v-.12zm1.05.18q0 1.82.73 2.88.73 1.04 2.06 1.04 1.94 0 2.76-1.7V52.5q-.82-1.85-2.74-1.85-1.33 0-2.07 1.04-.77 1-.77 3.04zm15.38 4.66q-.16-.45-.2-1.33-.56.7-1.42 1.1-.82.4-1.8.4-1.35 0-2.2-.8-.85-.75-.85-1.92 0-1.4 1.16-2.2 1.16-.8 3.2-.8h1.93v-1.1q0-1-.63-1.6-.65-.6-1.85-.6-1.1 0-1.82.57T126 52.5h-1.04q0-1.13 1.06-1.96 1.06-.84 2.6-.84 1.6 0 2.5.8.93.8.95 2.22v4.5q0 1.38.3 2.06v.12h-1.13zm-3.3-.76q1.05 0 1.88-.5.86-.52 1.24-1.37v-2.1h-1.88q-1.58 0-2.46.56-.9.55-.9 1.53 0 .8.6 1.33.6.52 1.53.52zm8.57-11.18v2.43h1.97v.9h-1.97v6.33q0 .8.28 1.2.3.37.96.37.26 0 .85-.1v.86q-.4.15-1.1.15-1.08 0-1.57-.6-.5-.64-.5-1.86V50.8h-1.74v-.87h1.73V47.5h1.06zm7.84 12.12q-1.2 0-2.2-.6-.97-.6-1.52-1.66-.54-1.08-.54-2.4v-.38q0-1.37.52-2.47.54-1.1 1.5-1.75.94-.64 2.05-.64 1.73 0 2.74 1.2 1 1.18 1 3.23v.6h-6.8v.2q0 1.6.92 2.7.94 1.06 2.34 1.06.85 0 1.5-.3.64-.3 1.17-1l.66.5q-1.17 1.7-3.37 1.7zm-.2-8.97q-1.18 0-2 .87-.8.87-.98 2.34h5.7v-.12q-.04-1.37-.78-2.23-.74-.9-1.93-.9zM155.67 57q0-.78-.63-1.25-.63-.48-1.9-.74-1.26-.24-1.96-.6t-1.04-.84q-.33-.5-.33-1.2 0-1.14.97-1.87.94-.75 2.4-.75 1.6 0 2.55.8.98.78.98 2.04h-1.05q0-.84-.7-1.4-.7-.55-1.76-.55-1.05 0-1.68.47-.64.46-.64 1.2 0 .7.52 1.1.53.4 1.9.7 1.4.35 2.08.7.7.38 1.03.9.3.5.3 1.26 0 1.2-.95 1.93-.97.7-2.53.7-1.65 0-2.7-.8-1.02-.8-1.02-2.02h1.05q.06.92.77 1.44.72.5 1.9.5 1.1 0 1.77-.47.66-.48.66-1.22zm7.23-2.48q0-1.37.53-2.47t1.5-1.7q.97-.62 2.2-.62 1.9 0 3.08 1.34 1.2 1.33 1.2 3.52v.2q0 1.4-.53 2.5-.52 1.1-1.5 1.7-.96.6-2.2.6-1.9 0-3.07-1.35-1.2-1.34-1.2-3.54v-.2zm1.05.3q0 1.7.88 2.8.9 1.1 2.32 1.1 1.43 0 2.3-1.1.9-1.1.9-2.9v-.2q0-1.1-.4-2-.42-.9-1.14-1.4-.7-.5-1.64-.5-1.4 0-2.3 1.12-.9 1.1-.9 2.88v.2zm10.62-4.92l.03 1.64q.54-.88 1.34-1.34.8-.47 1.77-.47 1.56 0 2.3.87.75.86.76 2.58v6.24h-1.05v-6.25q0-1.27-.54-1.9-.53-.62-1.7-.62-.97 0-1.73.6-.75.62-1.1 1.66v6.54h-1.05v-9.5h1zm16.3 8l2.77-8h1.13l-4.06 11.14-.2.5q-.76 1.72-2.4 1.72-.4 0-.8-.12l-.02-.87.55.05q.78 0 1.26-.4.47-.36.8-1.3l.47-1.28-3.6-9.43h1.17l2.96 8zm4.8-3.38q0-1.37.52-2.47.5-1.1 1.5-1.7.94-.62 2.2-.62 1.9 0 3.05 1.34 1.18 1.33 1.18 3.52v.2q0 1.4-.54 2.5-.5 1.1-1.5 1.7-.96.6-2.2.6-1.9 0-3.07-1.35-1.18-1.34-1.18-3.54v-.2zm1.04.3q0 1.7.9 2.8.9 1.1 2.3 1.1 1.46 0 2.34-1.1.88-1.1.88-2.9v-.2q0-1.1-.4-2-.4-.9-1.12-1.4-.73-.5-1.67-.5-1.4 0-2.3 1.12-.9 1.1-.9 2.88v.2zm15.75 3.4q-.95 1.38-3.03 1.38-1.52 0-2.3-.88-.8-.9-.82-2.62v-6.2h1.04v6.07q0 2.7 2.2 2.7 2.3 0 2.9-1.88v-6.9h1.05v9.5h-1.05l-.02-1.2zm8.15-7.42q-.32-.05-.7-.05-1 0-1.67.55-.68.54-.97 1.6v6.52h-1.05v-9.5h1.06l.02 1.5q.84-1.7 2.68-1.7.44 0 .7.13l-.03.96zm5.47 3.72q0-1.37.53-2.47t1.5-1.7q.97-.62 2.2-.62 1.9 0 3.08 1.34 1.18 1.33 1.18 3.52v.2q0 1.4-.54 2.5-.52 1.1-1.5 1.7-.96.6-2.2.6-1.9 0-3.07-1.35-1.18-1.34-1.18-3.54v-.2zm1.05.3q0 1.7.88 2.8.9 1.1 2.32 1.1 1.43 0 2.3-1.1.9-1.1.9-2.9v-.2q0-1.1-.4-2-.42-.9-1.14-1.4-.73-.5-1.67-.5-1.4 0-2.3 1.12-.86 1.1-.86 2.88v.2zm14.02-4.02q-.33-.05-.7-.05-1 0-1.68.55-.68.54-.97 1.6v6.52h-1.08v-9.5h1.03l.02 1.5q.83-1.7 2.67-1.7.44 0 .7.13l-.03.96zm1.06 3.78q0-2.22.97-3.53 1-1.32 2.7-1.32 1.92 0 2.93 1.52v-5.33h1.04v13.5h-.98l-.04-1.27q-1 1.45-2.97 1.45-1.65 0-2.66-1.32-1-1.33-1-3.58v-.12zm1.05.18q0 1.82.73 2.88.73 1.04 2.06 1.04 1.94 0 2.76-1.7V52.5q-.82-1.85-2.74-1.85-1.33 0-2.07 1.04-.77 1-.77 3.04zm13.07 4.84q-1.2 0-2.2-.6-.97-.6-1.52-1.66-.54-1.08-.54-2.4v-.38q0-1.37.52-2.47.54-1.1 1.5-1.75.94-.64 2.05-.64 1.73 0 2.74 1.2 1.02 1.18 1.02 3.23v.6h-6.8v.2q0 1.6.9 2.7.94 1.06 2.34 1.06.85 0 1.5-.3.64-.3 1.17-1l.67.5q-1.18 1.7-3.38 1.7zm-.2-8.97q-1.18 0-2 .87-.8.87-.98 2.34h5.7v-.12q-.04-1.37-.78-2.23-.74-.9-1.93-.9zm10.22.17q-.33-.05-.7-.05-1 0-1.68.55-.68.54-.97 1.6v6.52h-1.08v-9.5h1.03l.02 1.5q.83-1.7 2.67-1.7.44 0 .7.13l-.03.96zm13.7 3.96q0 2.23-1 3.54-.97 1.3-2.62 1.3-1.95 0-3-1.38v4.86h-1.04V49.9h.98l.05 1.36q1.06-1.53 3-1.53 1.7 0 2.68 1.3.98 1.3.98 3.58v.18zm-1.06-.18q0-1.82-.74-2.88t-2.1-1.05q-.95 0-1.65.46-.7.5-1.1 1.4v4.55q.4.82 1.1 1.25.7.42 1.66.42 1.33 0 2.07-1.05.74-1.06.74-3.07zm7.8-3.78q-.34-.05-.7-.05-1 0-1.7.55-.7.54-1 1.6v6.52h-1.03v-9.5h1.03v1.5q.85-1.7 2.7-1.7.43 0 .7.13l-.04.96zm.9 3.72q0-1.37.52-2.47t1.5-1.7q.97-.62 2.2-.62 1.9 0 3.08 1.34 1.18 1.33 1.18 3.52v.2q0 1.4-.54 2.5-.52 1.1-1.5 1.7-.96.6-2.2.6-1.9 0-3.07-1.35-1.18-1.34-1.18-3.54v-.2zm1.04.3q0 1.7.88 2.8.9 1.1 2.32 1.1 1.43 0 2.3-1.1.9-1.1.9-2.9v-.2q0-1.1-.4-2-.42-.9-1.14-1.4-.73-.5-1.67-.5-1.4 0-2.3 1.12-.86 1.1-.86 2.88v.2zm9.18-.24q0-2.24 1-3.54 1-1.3 2.68-1.3 1.95 0 2.96 1.54l.05-1.37h.95v9.35q0 1.83-1.03 2.9t-2.78 1.08q-1 0-1.9-.44-.9-.45-1.4-1.2l.58-.62q1.1 1.37 2.65 1.37 1.3 0 2.05-.78.73-.78.76-2.16v-1.2q-1 1.43-2.94 1.43-1.66 0-2.66-1.32t-1-3.55v-.14zm1.07.18q0 1.82.73 2.88.73 1.04 2.06 1.04 1.94 0 2.75-1.74v-4.42q-.34-.9-1.03-1.4-.7-.47-1.67-.47-1.34 0-2.08 1.04-.73 1-.73 3.04zm13.75-3.96q-.33-.05-.7-.05-1 0-1.68.55-.68.54-.97 1.6v6.52h-1.05v-9.5h1.03l.02 1.5q.84-1.7 2.68-1.7.44 0 .7.13l-.03.96zm5.15 8.8q-1.2 0-2.2-.6-.97-.6-1.52-1.66-.54-1.08-.54-2.4v-.38q0-1.37.55-2.47t1.5-1.75q.94-.64 2.05-.64 1.72 0 2.73 1.2 1.02 1.18 1.02 3.23v.6h-6.8v.2q0 1.6.93 2.7.94 1.06 2.34 1.06.86 0 1.5-.3.65-.3 1.18-1l.66.5q-1.17 1.7-3.37 1.7zm-.2-8.97q-1.18 0-2 .87-.8.87-.98 2.34h5.7v-.12q-.07-1.37-.8-2.23-.75-.9-1.94-.9zM329.2 57q0-.78-.63-1.25-.63-.48-1.9-.74-1.26-.24-1.96-.6t-1-.84q-.34-.5-.34-1.2 0-1.14.94-1.87.93-.75 2.4-.75 1.6 0 2.54.8.97.78.97 2.04h-1.03q0-.84-.7-1.4-.7-.55-1.76-.55-1.04 0-1.67.47-.63.46-.63 1.2 0 .7.5 1.1.53.4 1.9.7 1.4.35 2.08.7.7.38 1.02.9.33.5.33 1.26 0 1.2-.97 1.93-.97.7-2.53.7-1.66 0-2.7-.8Q323 58 323 56.8h1.06q.06.92.77 1.44.72.5 1.9.5 1.1 0 1.77-.47.68-.48.68-1.22zm9.1 0q0-.78-.62-1.25-.63-.48-1.9-.74-1.26-.24-1.96-.6t-1.04-.84q-.33-.5-.33-1.2 0-1.14.94-1.87.9-.75 2.4-.75 1.6 0 2.52.8.97.78.97 2.04h-1.05q0-.84-.7-1.4-.7-.55-1.76-.55-1.05 0-1.68.47-.63.46-.63 1.2 0 .7.5 1.1.54.4 1.9.7 1.4.35 2.1.7.7.38 1.02.9.33.5.33 1.26 0 1.2-.97 1.93-1 .7-2.55.7-1.66 0-2.7-.8-1.03-.8-1.03-2.02h1.06q.05.92.76 1.44.72.5 1.9.5 1.1 0 1.77-.47.7-.48.7-1.22zm9.45-9.52v2.43h1.97v.9h-1.97v6.33q0 .8.28 1.2.3.37.96.37.23 0 .82-.1l.04.86q-.4.15-1.12.15-1.08 0-1.57-.6-.5-.64-.5-1.86V50.8h-1.75v-.87h1.74V47.5h1.05zm3.4 7.04q0-1.37.54-2.47.5-1.1 1.5-1.7.94-.62 2.2-.62 1.9 0 3.05 1.34 1.18 1.33 1.18 3.52v.2q0 1.4-.54 2.5-.5 1.1-1.5 1.7-.96.6-2.2.6-1.9 0-3.07-1.35-1.18-1.34-1.18-3.54v-.2zm1.06.3q0 1.7.9 2.8.9 1.1 2.3 1.1 1.46 0 2.34-1.1.88-1.1.88-2.9v-.2q0-1.1-.4-2-.4-.9-1.12-1.4-.73-.5-1.67-.5-1.4 0-2.3 1.12-.9 1.1-.9 2.88v.2zM4.18 82.9l2.78-8H8.1L4.02 86.05l-.22.5q-.77 1.72-2.4 1.72-.38 0-.8-.12l-.02-.87.54.05q.78 0 1.25-.4.5-.36.82-1.3l.44-1.28-3.6-9.43H1.2l2.96 8zm4.8-3.38q0-1.37.54-2.47.57-1.1 1.5-1.7 1-.62 2.24-.62 1.9 0 3.07 1.34 1.18 1.33 1.18 3.52v.2q0 1.4-.53 2.5t-1.5 1.7q-.96.6-2.2.6-1.9 0-3.08-1.35Q9 81.9 9 79.72v-.22zm1.07.3q0 1.7.88 2.8.88 1.1 2.32 1.1 1.42 0 2.3-1.1.9-1.1.9-2.9v-.2q0-1.1-.42-2-.4-.9-1.13-1.4-.76-.5-1.7-.5-1.4 0-2.3 1.12-.88 1.1-.88 2.88v.2zm15.73 3.4q-.95 1.38-3.03 1.38-1.52 0-2.3-.88-.8-.9-.82-2.62v-6.2h1.04v6.07q0 2.7 2.2 2.7 2.3 0 2.9-1.88v-6.9h1.05v9.5h-1v-1.2zm8.16-7.42q-.34-.05-.72-.05-.95 0-1.64.55-.67.54-.96 1.6v6.52h-1.06v-9.5h1.03l.02 1.5q.8-1.7 2.66-1.7.44 0 .7.13l-.03.96zm9.57 7.9q1.1 0 1.82-.6.75-.63.8-1.62h1.02q-.04.87-.54 1.6-.5.7-1.34 1.1-.82.42-1.77.42-1.9 0-3-1.3t-1.1-3.5v-.32q0-1.4.5-2.5t1.4-1.66q.93-.6 2.16-.6 1.56 0 2.57.95 1.02.93 1.1 2.45H46.1q-.06-1.12-.8-1.8-.72-.7-1.84-.7-1.42 0-2.22 1.04-.78 1.03-.78 2.88v.3q0 1.83.78 2.85.8 1 2.23 1zm9.44.9q-1.22 0-2.2-.6-.98-.6-1.52-1.66-.55-1.08-.55-2.4v-.38q0-1.37.53-2.47.54-1.1 1.5-1.75.94-.64 2.04-.64 1.73 0 2.74 1.2 1.02 1.18 1.02 3.23v.6h-6.78v.2q0 1.6.92 2.7.93 1.06 2.34 1.06.84 0 1.5-.3.64-.3 1.16-1l.66.5q-1.16 1.7-3.36 1.7zm-.2-8.97q-1.18 0-2 .87-.8.87-1 2.34h5.72v-.12q-.05-1.37-.78-2.23-.74-.9-1.94-.9zm7 8.8H58.7v-13.5h1.05v13.5zm4.06 0h-1.06v-13.5h1.05v13.5zm14.9-4.67q0 2.23-1 3.54-.97 1.3-2.62 1.3-1.96 0-3-1.38v4.86h-1.04V74.9h.98l.05 1.36q1.03-1.53 2.98-1.53 1.7 0 2.67 1.3.98 1.3.98 3.58v.18zm-1.06-.18q0-1.82-.74-2.88t-2.1-1.05q-.95 0-1.65.46-.7.5-1.06 1.4v4.55q.35.82 1.05 1.25.7.42 1.66.42 1.34 0 2.08-1.05.73-1.06.73-3.07zm4.44-3.06q.52-.85 1.33-1.32.84-.47 1.8-.47 1.52 0 2.27.87.75.86.76 2.58v6.24H87.2v-6.25q0-1.27-.55-1.9-.53-.62-1.7-.62-.98 0-1.73.6-.75.62-1.1 1.66v6.54h-1.05v-13.5h1.04v5.6zm8.25 3q0-1.37.53-2.47.54-1.1 1.5-1.7.98-.62 2.2-.62 1.9 0 3.1 1.34 1.16 1.33 1.16 3.52v.2q0 1.4-.53 2.5-.56 1.1-1.5 1.7-1 .6-2.2.6-1.9 0-3.1-1.35-1.2-1.34-1.2-3.54v-.2zm1.06.3q0 1.7.85 2.8.9 1.1 2.32 1.1 1.4 0 2.3-1.1.88-1.1.88-2.9v-.2q0-1.1-.4-2-.4-.9-1.14-1.4-.72-.5-1.66-.5-1.4 0-2.3 1.12-.88 1.1-.88 2.88v.2zM102 74.9l.04 1.64q.54-.88 1.34-1.34.8-.47 1.77-.47 1.53 0 2.27.87.75.86.76 2.58v6.24h-1.05v-6.25q0-1.27-.54-1.9-.56-.62-1.7-.62-1 0-1.76.6-.75.62-1.1 1.66v6.54H101v-9.5h1zm12.57 9.7q-1.2 0-2.2-.6-.97-.6-1.52-1.66-.54-1.08-.54-2.4v-.38q0-1.37.55-2.47t1.5-1.75q.94-.64 2.05-.64 1.72 0 2.73 1.2 1.02 1.18 1.02 3.23v.6h-6.8v.2q0 1.6.93 2.7.94 1.06 2.34 1.06.86 0 1.5-.3.65-.3 1.18-1l.66.5q-1.17 1.7-3.37 1.7zm-.2-8.97q-1.18 0-2 .87-.8.87-.98 2.34h5.7v-.12q-.07-1.37-.8-2.23-.75-.9-1.94-.9zm5.73 8.17q0-.32.2-.53.2-.22.55-.22.35 0 .55.22.2.2.2.52 0 .3-.2.5t-.55.2q-.36 0-.56-.2-.2-.2-.2-.5z"/><path fill="#69bdf9" d="M321.15 165.85q.1-.97-.46-1.68-.6-.72-2-1.3-1.44-.56-2.1-1.1-.7-.57-1.04-1.3-.32-.7-.24-1.67.13-1.62 1.23-2.62t2.83-1.17l.33-1.93h1l-.33 1.98q1.5.22 2.23 1.36.75 1.13.6 3h-1.16q.13-1.5-.5-2.4-.62-.9-1.86-.94-1.3-.02-2.2.74-.9.74-1.02 1.97-.18 1.57 1.25 2.42.38.2 1.48.66 1.1.44 1.68.87 1.58 1.16 1.42 3.07-.13 1.63-1.26 2.64t-2.92 1.15l-.32 1.84h-1l.33-1.86q-1.12-.1-1.9-.67-.8-.56-1.15-1.5-.36-.93-.26-2.1h1.2q-.15 1.5.6 2.4.72.86 2.1.9 1.37 0 2.34-.77.97-.77 1.1-2zm8.95-8.05l1.67.03q2.22 0 3.75-1.16 1.56-1.16 1.78-3.12.2-1.93-.8-3.07-.98-1.15-2.87-1.2-2.02-.03-3.42 1.17t-1.73 3.22h-1.7q.32-2.6 2.27-4.26 1.96-1.63 4.7-1.6 2.62.06 4.1 1.7 1.45 1.6 1.22 4.13-.13 1.6-1.25 2.88-1.1 1.3-3.04 2.08 1.6.57 2.4 1.9.83 1.3.7 3.06-.25 2.8-2.25 4.54-2 1.73-4.9 1.67-2.72-.05-4.4-1.73-1.62-1.7-1.42-4.33h1.73q-.16 1.95.98 3.24 1.16 1.3 3.2 1.35 2.2.05 3.67-1.23 1.46-1.28 1.67-3.43.2-1.87-.86-3t-3.22-1.25h-.3l-1.85-.04.23-1.5zm10.73 10.57q.04-.5.4-.86.4-.34.9-.36.53 0 .87.36.33.35.3.9-.04.5-.42.83-.37.32-.88.34-.5 0-.86-.33-.34-.33-.3-.86zm19.27-8.8q-1.12 1.4-2.57 2.16-1.45.76-3 .7-1.66-.03-2.86-.98t-1.76-2.55q-.5-1.6-.34-3.5.22-2.14 1.22-3.9 1-1.8 2.58-2.77 1.56-.98 3.45-.95 2.5.06 3.96 1.76 1.45 1.7 1.54 4.76.02 1.64-.43 4.35-.9 5.28-3.75 8.07-2.85 2.8-7.24 2.87h-.73l.18-1.55h.58q3.6-.06 5.88-2.15 2.26-2.1 3.3-6.35zm-5.27 1.35q1.67.06 3.16-.95 1.5-1.03 2.35-2.8.2-1.8.2-2.52 0-2.5-1-3.9-.98-1.4-2.84-1.46-1.4-.06-2.6.73-1.14.78-1.9 2.2-.76 1.42-.94 3.06-.16 1.5.2 2.8.4 1.27 1.24 2.04.88.74 2.14.77zm21.55-1.36q-1.1 1.4-2.56 2.17-1.45.76-3 .7-1.66-.03-2.86-.98t-1.76-2.55q-.54-1.6-.37-3.5.22-2.14 1.22-3.9 1-1.8 2.58-2.77 1.56-.98 3.45-.95 2.52.06 3.96 1.76 1.45 1.7 1.54 4.76.04 1.64-.4 4.35-.9 5.28-3.76 8.07-2.85 2.8-7.24 2.87h-.72l.18-1.55h.58q3.6-.06 5.86-2.15 2.27-2.1 3.3-6.35zm-5.26 1.36q1.67.06 3.16-.95 1.5-1.03 2.38-2.8.2-1.8.2-2.52 0-2.5-1-3.9-.98-1.4-2.84-1.46-1.42-.06-2.6.73-1.15.78-1.92 2.2-.76 1.42-.94 3.06-.16 1.5.2 2.8.4 1.27 1.24 2.04.86.74 2.12.77z"/></svg>