<svg xmlns="http://www.w3.org/2000/svg" width="380" height="180" viewBox="0 0 380 180.00001"><path fill="#383840" d="M6.57 14.42H5.4V1.62l-3.88 1.4v-1.1L6.37.16h.2v14.28zm9.47-5.78h-4.68v-1h4.68v1zm3.58 0v5.8h-1.2V.2h4.85q2.2 0 3.5 1.13 1.28 1.14 1.28 3.12 0 2-1.24 3.1-1.2 1.08-3.54 1.08h-3.62zm0-1.03h3.65q1.74 0 2.66-.8.92-.83.92-2.3 0-1.5-.92-2.35-.9-.88-2.6-.9h-3.7V7.6zm17.45 2.84h-6.45l-1.47 3.98H27.9L33.26.2h1.15l5.4 14.22h-1.25l-1.48-3.98zM31 9.4h5.7l-2.86-7.73L31 9.4zm21.05 3.33q-.63.9-1.97 1.4-1.33.5-2.98.5-1.67 0-2.97-.82-1.3-.8-2-2.23-.72-1.47-.73-3.36V6.4q0-2.97 1.5-4.67Q44.4 0 46.9 0q2.2 0 3.54 1.13 1.34 1.1 1.6 3.08h-1.2q-.27-1.54-1.28-2.34-1-.8-2.64-.8-2 0-3.16 1.4-1.16 1.42-1.16 4v1.68q0 1.62.55 2.87.55 1.24 1.58 1.93 1.03.68 2.37.68 1.56 0 2.67-.5.72-.3 1.07-.73V8.7h-3.82V7.66h5.02v5.06zM63.3 7.6h-6.65v5.8h7.65v1.02h-8.85V.2h8.8v1.03h-7.6V6.6h6.65v1zm16.45 3.32q0-1.18-.83-1.86-.83-.7-3.04-1.3-2.2-.63-3.22-1.37-1.45-1.06-1.45-2.74 0-1.63 1.37-2.65T76 0q1.4 0 2.52.55t1.74 1.53q.6.97.6 2.17h-1.2q0-1.45-1-2.33-1-.9-2.67-.9-1.66 0-2.6.74-1 .73-1 1.9 0 1.08.88 1.77.85.68 2.77 1.2 1.9.52 2.9 1.1.98.55 1.48 1.33t.5 1.84q0 1.68-1.35 2.7-1.32 1.02-3.52 1.02-1.5 0-2.77-.54-1.24-.54-1.9-1.5-.63-.97-.63-2.22h1.2q0 1.5 1.12 2.37 1.1.87 2.97.87 1.66 0 2.66-.73 1-.73 1-1.95zM93.33.2v9.7q0 1.44-.63 2.5-.63 1.07-1.77 1.65-1.13.57-2.6.57-2.25 0-3.6-1.23-1.36-1.26-1.4-3.4V.2h1.2v9.62q0 1.8 1 2.8 1.04.98 2.8.98t2.77-1q1.02-1 1.02-2.77V.2h1.2zm4.97 0l5.24 12.55L108.8.2h1.6v14.22h-1.2v-6.2l.1-6.34-5.3 12.54h-.92L97.8 1.92l.1 6.27v6.2h-1.2V.2h1.6zm17.3 0l5.24 12.55L126.1.2h1.6v14.22h-1.2v-6.2l.1-6.34-5.3 12.54h-.9l-5.3-12.5.1 6.27v6.2H114V.2h1.6zm23.58 10.24h-6.46l-1.46 3.98H130L135.38.2h1.15l5.38 14.22h-1.22l-1.48-3.98zm-6.1-1.03h5.72l-2.85-7.7-2.86 7.73zm16.24-.9h-4.13v5.92h-1.24V.2h4.62q2.26 0 3.54 1.1t1.28 3.1q0 1.36-.8 2.4t-2.15 1.45L154 14.3v.1h-1.27l-3.44-5.9zm-4.13-1.02h3.65q1.5 0 2.43-.86.9-.86.9-2.23 0-1.5-.95-2.36-.95-.83-2.68-.83h-3.4v6.26zm15.2.48L164.76.2h1.4L161 9.07v5.35h-1.2V9.07L154.68.2h1.42l4.3 7.76z"/><path fill="#929292" d="M5.16 53.6l3.9-6.98h1.26L5.7 54.6v4.82H4.6V54.6L0 46.62h1.28l3.88 6.98zm5.64.92q0-1.37.54-2.47.53-1.1 1.5-1.7.98-.62 2.2-.62 1.9 0 3.08 1.34 1.18 1.33 1.18 3.52v.2q0 1.4-.54 2.5-.52 1.1-1.5 1.7-.96.6-2.2.6-1.9 0-3.07-1.35-1.2-1.34-1.2-3.54v-.2zm1.06.3q0 1.7.88 2.8.9 1.1 2.32 1.1 1.43 0 2.3-1.1.9-1.1.9-2.9v-.2q0-1.1-.4-2-.4-.9-1.14-1.4-.73-.5-1.67-.5-1.4 0-2.3 1.12-.9 1.1-.9 2.88v.2zm15.74 3.4q-.95 1.38-3.03 1.38-1.52 0-2.32-.88-.8-.9-.8-2.62v-6.2h1.04v6.07q0 2.7 2.2 2.7 2.25 0 2.86-1.88v-6.9h1.06v9.5H27.6v-1.2zm10.43-1l.16.83.2-.86 2.26-7.3h.9l2.26 7.2.25 1 .2-.9 1.94-7.3h1.1l-2.77 9.5h-.9l-2.44-7.53-.1-.52-.14.53-2.4 7.5h-.9l-2.76-9.5H36l2 7.3zm12.47 2.2h-1.05v-9.5h1.05v9.5zm-1.24-12.26q0-.3.2-.5t.52-.2.53.2q.2.2.2.5t-.2.5q-.16.2-.5.2t-.52-.2-.2-.5zm5.3 12.26H53.5v-13.5h1.04v13.5zm4.04 0h-1.07v-13.5h1.06v13.5zm6.83-4.84q0-2.24.98-3.54 1-1.3 2.7-1.3 1.96 0 2.97 1.54l.06-1.37h1v9.35q0 1.83-1.04 2.9t-2.8 1.08q-1 0-1.9-.44-.9-.45-1.4-1.2l.6-.62q1.1 1.37 2.64 1.37 1.32 0 2.06-.78t.76-2.16v-1.2q-1 1.43-2.95 1.43-1.63 0-2.63-1.32t-1-3.55v-.14zm1.06.18q0 1.82.7 2.88.73 1.04 2.06 1.04 1.94 0 2.75-1.74v-4.42q-.36-.9-1.06-1.4-.7-.47-1.67-.47-1.33 0-2.07 1.04-.73 1-.73 3.04zM79.5 59.6q-1.22 0-2.2-.6-.98-.6-1.52-1.66-.55-1.08-.55-2.4v-.38q0-1.37.53-2.47.54-1.1 1.5-1.75.93-.64 2.04-.64 1.73 0 2.74 1.2 1.02 1.18 1.02 3.23v.6H76.3v.2q0 1.6.92 2.7.93 1.06 2.34 1.06.84 0 1.48-.3.65-.3 1.18-1l.66.5q-1.16 1.7-3.37 1.7zm-.2-8.97q-1.18 0-2 .87-.8.87-1 2.34h5.72v-.12q-.05-1.37-.78-2.23-.74-.9-1.94-.9zm7.46-3.15v2.43h1.97v.9h-1.97v6.33q0 .8.28 1.2.3.37.96.37.27 0 .85-.1l.05.86q-.4.15-1.13.15-1.1 0-1.6-.6-.5-.64-.5-1.86V50.8H84v-.87h1.75V47.5h1.05zm14.57 11.94q-.16-.45-.2-1.33-.56.7-1.42 1.1-.85.4-1.8.4-1.38 0-2.23-.8-.85-.75-.85-1.92 0-1.4 1.16-2.2 1.2-.8 3.25-.8h1.9v-1.1q0-1-.62-1.6-.62-.6-1.82-.6-1.1 0-1.8.57t-.73 1.36H95.1q0-1.13 1.06-1.96 1.05-.84 2.6-.84 1.58 0 2.5.8.92.8.94 2.22v4.5q0 1.38.3 2.06v.12h-1.13zm-3.3-.76q1.05 0 1.88-.5.83-.52 1.2-1.37v-2.1h-1.87q-1.58 0-2.46.56-.9.55-.9 1.53 0 .8.6 1.33.6.52 1.54.52zM115.07 57q0-.78-.63-1.25-.63-.48-1.9-.74-1.26-.24-1.96-.6t-1.04-.84q-.33-.5-.33-1.2 0-1.14.97-1.87.94-.75 2.4-.75 1.6 0 2.55.8.98.78.98 2.04h-1.05q0-.84-.7-1.4-.7-.55-1.76-.55-1.05 0-1.68.47-.64.46-.64 1.2 0 .7.52 1.1.53.4 1.9.7 1.4.35 2.08.7.7.38 1.03.9.3.5.3 1.26 0 1.2-.95 1.93-.97.7-2.53.7-1.65 0-2.7-.8-1.02-.8-1.02-2.02h1.05q.06.92.77 1.44.72.5 1.9.5 1.1 0 1.77-.47.66-.48.66-1.22zm4.45-5.48q.52-.85 1.33-1.32.8-.47 1.76-.47 1.56 0 2.3.87.76.86.77 2.58v6.24h-1.05v-6.25q0-1.27-.54-1.9-.52-.62-1.7-.62-.97 0-1.72.6-.75.62-1.1 1.66v6.54h-1.06v-13.5h1.05v5.6zm8.26 3q0-1.37.53-2.47.56-1.1 1.5-1.7 1-.62 2.24-.62 1.9 0 3.07 1.34 1.18 1.33 1.18 3.52v.2q0 1.4-.54 2.5-.52 1.1-1.5 1.7-.96.6-2.2.6-1.9 0-3.07-1.35-1.18-1.34-1.18-3.54v-.2zm1.05.3q0 1.7.88 2.8.9 1.1 2.35 1.1 1.43 0 2.3-1.1.9-1.1.9-2.9v-.2q0-1.1-.4-2-.42-.9-1.14-1.4-.73-.5-1.67-.5-1.4 0-2.3 1.12-.9 1.1-.9 2.88v.2zm14-4.02q-.32-.05-.7-.05-1 0-1.67.55-.68.54-.97 1.6v6.52h-1.08v-9.5h1.03l.02 1.5q.83-1.7 2.67-1.7.44 0 .7.13l-.03.96zm3.75-3.32v2.43h1.97v.9h-1.97v6.33q0 .8.28 1.2.3.37.96.37.26 0 .85-.1l.04.86q-.4.15-1.1.15-1.1 0-1.56-.6-.5-.64-.5-1.86V50.8h-1.74v-.87h1.73V47.5h1.06zm8 7.04q0-1.37.52-2.47t1.5-1.7q.97-.62 2.2-.62 1.9 0 3.08 1.34 1.18 1.33 1.18 3.52v.2q0 1.4-.54 2.5-.52 1.1-1.5 1.7-.96.6-2.2.6-1.9 0-3.07-1.35-1.18-1.34-1.18-3.54v-.2zm1.04.3q0 1.7.88 2.8.9 1.1 2.32 1.1 1.43 0 2.3-1.1.9-1.1.9-2.9v-.2q0-1.1-.4-2-.42-.9-1.14-1.4-.73-.5-1.67-.5-1.4 0-2.3 1.12-.86 1.1-.86 2.88v.2zm12.44 3.15l2.9-8.06h1.07l-3.55 9.54h-.85l-3.57-9.5h1.08l2.92 8.05zm9.26 1.63q-1.2 0-2.2-.6-.97-.6-1.52-1.66-.54-1.08-.54-2.4v-.38q0-1.37.52-2.47.54-1.1 1.5-1.75.94-.64 2.05-.64 1.73 0 2.74 1.2 1.02 1.18 1.02 3.23v.6h-6.8v.2q0 1.6.9 2.7.94 1.06 2.34 1.06.85 0 1.5-.3.64-.3 1.17-1l.67.5q-1.18 1.7-3.38 1.7zm-.2-8.97q-1.18 0-2 .87-.8.87-.98 2.34h5.7v-.12q-.04-1.37-.78-2.23-.74-.9-1.93-.9zm10.23.17q-.33-.05-.7-.05-1 0-1.68.55-.68.54-.97 1.6v6.52h-1.05v-9.5h1.03l.02 1.5q.84-1.7 2.68-1.7.44 0 .7.13l-.03.96zm4.8 7.17l2.9-8.06h1.06l-3.52 9.54h-.85l-3.56-9.5h1.08l2.92 8.05zm6.85 1.45h-1.06v-9.5H199v9.5zm-1.24-12.26q0-.3.2-.5t.52-.2q.33 0 .53.2t.2.5-.2.5q-.2.2-.5.2-.33 0-.53-.2t-.2-.5zm7.8 12.44q-1.2 0-2.2-.6-.98-.6-1.53-1.66-.54-1.08-.54-2.4v-.38q0-1.37.5-2.47.53-1.1 1.5-1.75.93-.64 2.04-.64 1.73 0 2.74 1.2 1 1.18 1 3.23v.6h-6.8v.2q0 1.6.94 2.7.94 1.06 2.34 1.06.84 0 1.48-.3.65-.3 1.18-1l.66.5q-1.17 1.7-3.37 1.7zm-.2-8.97q-1.2 0-2 .87t-1 2.34h5.7v-.12q-.03-1.37-.77-2.23-.77-.9-1.96-.9zm8.1 6.6l.16.82.2-.86 2.3-7.3h.9l2.25 7.2.24 1 .24-.9 1.95-7.3h1.1l-2.8 9.5h-.9l-2.44-7.53-.12-.52-.1.53-2.4 7.5h-.9l-2.77-9.5h1.08l2.02 7.3zm15.1-2.7q0-1.38.54-2.48t1.5-1.7q.97-.62 2.2-.62 1.9 0 3.08 1.34 1.18 1.33 1.18 3.52v.2q0 1.4-.54 2.5-.52 1.1-1.5 1.7-.96.6-2.2.6-1.9 0-3.07-1.35-1.18-1.34-1.18-3.54v-.2zm1.06.3q0 1.7.88 2.8.9 1.1 2.32 1.1 1.43 0 2.3-1.1.9-1.1.9-2.9v-.2q0-1.1-.4-2-.42-.9-1.14-1.4-.73-.5-1.67-.5-1.4 0-2.3 1.1-.86 1.1-.86 2.9v.2zm10.38 4.6v-8.66h-1.57v-.86H240V48.8q0-1.46.74-2.24.74-.78 2.07-.78.6 0 1.15.14l-.08.87q-.44-.1-.96-.1-.87 0-1.35.54-.5.56-.5 1.55v1.18h2.28v.87h-2.27v8.64H240zm11.25-11.95v2.43h1.97v.9h-1.97v6.33q0 .8.28 1.2.3.37.96.37.23 0 .82-.1l.04.86q-.4.15-1.12.15-1.08 0-1.57-.6-.5-.64-.5-1.86V50.8h-1.75v-.87h1.74V47.5h1.05zm5.2 4.04q.53-.85 1.34-1.32.8-.47 1.73-.47 1.53 0 2.28.87.76.86.77 2.58v6.24h-1.06v-6.25q0-1.27-.54-1.9-.53-.62-1.7-.62-.98 0-1.73.6-.75.62-1.1 1.66v6.54h-1.06v-13.5h1.06v5.6zm12.52 8.08q-1.2 0-2.2-.6-.97-.6-1.52-1.66-.54-1.08-.54-2.4v-.38q0-1.37.55-2.47t1.5-1.75q.94-.64 2.05-.64 1.72 0 2.73 1.2 1.02 1.18 1.02 3.23v.6h-6.8v.2q0 1.6.93 2.7.94 1.06 2.34 1.06.86 0 1.5-.3.65-.3 1.18-1l.66.5q-1.16 1.7-3.36 1.7zm-.2-8.97q-1.18 0-2 .87-.8.87-.98 2.34h5.7v-.12q-.07-1.37-.8-2.23-.75-.9-1.94-.9zm12.5 6.6l.17.82.2-.86 2.3-7.3h.9l2.25 7.2.2 1 .2-.9 1.97-7.3h1.08l-2.78 9.5h-.9l-2.44-7.53-.12-.52-.1.53-2.4 7.5h-.9l-2.76-9.5h1.08l2.02 7.3zm12.35-5.7q.52-.86 1.33-1.33.8-.47 1.76-.47 1.56 0 2.3.87.76.86.77 2.58v6.24h-1.05v-6.25q0-1.27-.54-1.9-.52-.62-1.7-.62-.97 0-1.72.6-.75.62-1.1 1.66v6.54h-1.06v-13.5h1.05v5.6zm8.25 3q0-1.38.53-2.48t1.5-1.7q.97-.62 2.2-.62 1.9 0 3.08 1.34 1.18 1.33 1.18 3.52v.2q0 1.4-.54 2.5-.52 1.1-1.5 1.7-.96.6-2.2.6-1.9 0-3.07-1.35-1.18-1.34-1.18-3.54v-.2zm1.05.3q0 1.7.88 2.8.9 1.1 2.32 1.1 1.43 0 2.3-1.1.9-1.1.9-2.9v-.2q0-1.1-.4-2-.42-.9-1.14-1.4-.73-.5-1.67-.5-1.4 0-2.3 1.1-.86 1.1-.86 2.9v.2zm10.8 4.6h-1.06v-13.5h1.06v13.5zm6.55.17q-1.2 0-2.2-.6-.97-.6-1.52-1.66-.54-1.08-.54-2.4v-.38q0-1.37.55-2.47t1.5-1.75q.94-.64 2.05-.64 1.72 0 2.73 1.2 1.02 1.18 1.02 3.23v.6h-6.8v.2q0 1.6.93 2.7.94 1.06 2.34 1.06.86 0 1.5-.3.65-.3 1.18-1l.66.5q-1.17 1.7-3.37 1.7zm-.2-8.97q-1.18 0-2 .87-.8.87-.98 2.34h5.7v-.12q-.07-1.37-.8-2.23-.75-.9-1.94-.9zm17.87 4.13q0 2.23-1 3.54-.97 1.3-2.62 1.3-1.95 0-3-1.38v4.86h-1.04V49.9h.98l.05 1.36q1.06-1.53 3-1.53 1.7 0 2.68 1.3.98 1.3.98 3.58v.18zm-1.06-.18q0-1.82-.74-2.88t-2.1-1.05q-.95 0-1.65.46-.7.5-1.1 1.4v4.55q.4.82 1.1 1.25.7.42 1.66.42 1.33 0 2.07-1.05.74-1.06.74-3.07zm9.4 4.84q-.16-.45-.2-1.33-.56.7-1.42 1.1-.85.4-1.8.4-1.38 0-2.23-.8-.85-.75-.85-1.92 0-1.4 1.16-2.2 1.16-.8 3.22-.8h1.9v-1.1q0-1-.62-1.6-.63-.6-1.83-.6-1.1 0-1.8.57t-.7 1.36H340q0-1.13 1.07-1.96 1.05-.84 2.6-.84 1.58 0 2.5.8.92.8.94 2.22v4.5q0 1.38.3 2.06v.12h-1.1zm-3.3-.76q1.05 0 1.88-.5.83-.52 1.2-1.37v-2.1h-1.87q-1.6 0-2.5.56-.9.55-.9 1.53 0 .8.6 1.33.6.52 1.55.52zm14.58-3.9q0 2.23-1 3.54-.97 1.3-2.62 1.3-1.95 0-3-1.38v4.86h-1.04V49.9h.98l.05 1.36q1.03-1.53 2.98-1.53 1.74 0 2.7 1.3.98 1.3.98 3.58v.18zm-1.06-.18q0-1.82-.74-2.88t-2.1-1.05q-.95 0-1.65.46-.66.5-1.03 1.4v4.55q.38.82 1.08 1.25.7.42 1.66.42 1.33 0 2.07-1.05.74-1.06.74-3.07zm7.08 5.02q-1.2 0-2.2-.6-.97-.6-1.52-1.66-.54-1.08-.54-2.4v-.38q0-1.37.52-2.47.54-1.1 1.5-1.75.94-.64 2.05-.64 1.7 0 2.7 1.2 1.03 1.18 1.03 3.23v.6h-6.8v.2q0 1.6.93 2.7.94 1.06 2.34 1.06.86 0 1.5-.3.65-.3 1.18-1l.65.5q-1.17 1.7-3.37 1.7zm-.2-8.97q-1.18 0-2 .87-.8.87-.98 2.34h5.7v-.12q-.04-1.37-.78-2.23-.74-.9-1.93-.9zm10.22.17q-.32-.05-.7-.05-1 0-1.67.55-.68.54-.97 1.6v6.52h-1.05v-9.5h1.06l.02 1.5q.84-1.7 2.68-1.7.44 0 .7.13l-.03.96zM2.34 84.42H1.28v-9.5h1.06v9.5zM1.1 72.16q0-.3.2-.5t.52-.2.53.2q.2.2.2.5t-.2.5q-.2.2-.53.2t-.53-.2-.2-.5zm5.1 2.74l.04 1.64q.54-.88 1.34-1.34.8-.47 1.76-.47 1.53 0 2.28.87.75.86.75 2.58v6.24h-1.04v-6.25q0-1.27-.55-1.9-.52-.62-1.7-.62-.97 0-1.72.6-.75.62-1.1 1.66v6.54H5.2v-9.5h1zm18 9.52h-1.05V72.9l-3.48 1.28v-.98l4.36-1.62h.17v12.84zm17.3-4.66q0 2.23-.98 3.54-1 1.3-2.64 1.3-1.95 0-3-1.38v4.86h-1.03V74.9h.97l.06 1.36q1.02-1.53 2.97-1.53 1.7 0 2.68 1.3.97 1.3.97 3.58v.18zm-1.05-.18q0-1.82-.75-2.88t-2.08-1.05q-.97 0-1.66.46-.7.5-1.07 1.4v4.55q.35.82 1.05 1.25.7.42 1.66.42 1.34 0 2.08-1.05.74-1.06.74-3.07zm9.4 4.84q-.17-.45-.2-1.33-.56.7-1.4 1.1-.88.4-1.83.4-1.38 0-2.23-.8-.87-.75-.87-1.92 0-1.4 1.15-2.2 1.15-.8 3.22-.8h1.9v-1.1q0-1-.63-1.6-.63-.6-1.84-.6-1.1 0-1.82.57t-.7 1.36h-1.06q0-1.13 1.05-1.96 1.05-.84 2.6-.84 1.57 0 2.5.8.9.8.94 2.22v4.5q0 1.38.3 2.06v.12H49.8zm-3.3-.76q1.04 0 1.87-.5.83-.52 1.2-1.37v-2.1h-1.87q-1.57 0-2.46.56-.9.55-.9 1.53 0 .8.6 1.33.6.52 1.52.52zm6.5-4.08q0-2.24 1-3.54.98-1.3 2.67-1.3 1.95 0 2.96 1.54l.05-1.37h1v9.35q0 1.83-1.04 2.9t-2.8 1.08q-1 0-1.9-.44-.9-.45-1.4-1.2l.56-.62q1.1 1.37 2.65 1.37 1.33 0 2.07-.78.73-.78.75-2.16v-1.2q-1 1.43-2.94 1.43-1.65 0-2.66-1.32t-1-3.55v-.14zm1.06.18q0 1.82.76 2.88.73 1.04 2.06 1.04 1.95 0 2.76-1.74v-4.42q-.37-.9-1.06-1.4-.7-.47-1.68-.47-1.33 0-2.07 1.04-.74 1-.74 3.04zm13.04 4.84q-1.2 0-2.2-.6-.97-.6-1.52-1.66-.54-1.08-.54-2.4v-.38q0-1.37.52-2.47.54-1.1 1.5-1.75.94-.64 2.05-.64 1.73 0 2.74 1.2 1 1.18 1 3.23v.6h-6.8v.2q0 1.6.93 2.7.93 1.06 2.33 1.06.85 0 1.5-.3.64-.3 1.17-1l.66.5q-1.16 1.7-3.37 1.7zm-.2-8.97q-1.18 0-2 .87-.8.87-.98 2.34h5.7v-.12q-.04-1.37-.78-2.23-.74-.9-1.93-.9zm10.1 3.62q0-1.9.5-3.72.47-1.8 1.42-3.3.95-1.5 2.04-2.15l.25.7q-.58.42-1.15 1.2-.57.8-1.02 1.9-.44 1.08-.73 2.45-.27 1.35-.27 3.07 0 1.84.4 3.53.44 1.7 1.17 3t1.6 1.94l-.25.68q-1.12-.67-2.07-2.16-.94-1.5-1.43-3.3-.47-1.8-.47-3.87zm13.7 5.17h-8v-.8l4.4-4.98q1.07-1.26 1.5-2.08.4-.8.4-1.6 0-1.2-.7-1.9-.7-.72-1.96-.72-1.3 0-2.1.83-.78.83-.78 2.14h-1.05q0-1.05.48-1.93.5-.9 1.4-1.4.9-.5 2.05-.5 1.76 0 2.74.92 1 .9 1 2.5 0 .9-.57 1.96Q89 77.9 87.6 79.5L84 83.53h6.73v.9zm2.7-6.56l.6-6.24h6.4v.98h-5.5l-.43 4.32q1.06-.7 2.44-.7 1.73 0 2.76 1.12 1.02 1.13 1.02 3 0 2.02-1 3.14T96.9 84.6q-1.67 0-2.7-.94t-1.2-2.6h1q.15 1.3.9 1.98.73.67 1.98.67 1.37 0 2.07-.84.7-.87.7-2.48 0-1.4-.78-2.3t-2.14-.88q-.74 0-1.3.2-.55.17-1.17.7l-.83-.23zm16.98 1.24q0 2.7-1 4.1-1 1.4-2.92 1.4-1.9 0-2.9-1.38-1.02-1.38-1.05-4v-2.3q0-2.7 1-4.08t2.93-1.4q1.9 0 2.9 1.35 1 1.3 1.04 3.92v2.35zm-1.06-2.3q0-2.2-.72-3.33-.7-1.13-2.16-1.13-1.42 0-2.14 1.1t-.74 3.25v2.5q0 2.2.74 3.33.74 1.16 2.16 1.16 1.4 0 2.13-1.14t.73-3.32V76.8zm10.16 5.43l.16.82.2-.86 2.3-7.3h.9l2.25 7.2.24 1 .2-.9 1.96-7.3h1.1l-2.8 9.5h-.9l-2.43-7.53-.12-.52-.1.53-2.4 7.5h-.9l-2.76-9.5h1.08l2.02 7.3zm10.72-2.7q0-1.38.53-2.48t1.5-1.7q.97-.62 2.2-.62 1.9 0 3.08 1.34 1.18 1.33 1.18 3.52v.2q0 1.4-.54 2.5t-1.5 1.7q-1 .6-2.2.6-1.9 0-3.1-1.35-1.18-1.34-1.18-3.54v-.2zm1.05.3q0 1.7.85 2.8.9 1.1 2.32 1.1t2.3-1.1q.88-1.1.88-2.9v-.2q0-1.1-.4-2-.4-.9-1.13-1.4-.73-.5-1.67-.5-1.4 0-2.3 1.1-.9 1.1-.9 2.9v.2zm14-4.03q-.33-.05-.7-.05-1 0-1.68.55-.68.54-.97 1.6v6.52h-1.05v-9.5h1.03l.02 1.5q.84-1.7 2.68-1.7.44 0 .7.13l-.03.96zm1.06 3.78q0-2.22.98-3.53 1-1.32 2.7-1.32 1.92 0 2.93 1.52v-5.33H154v13.5h-.97l-.04-1.27q-1.04 1.45-3 1.45-1.65 0-2.66-1.32-1-1.33-1-3.58v-.12zm1.06.18q0 1.82.73 2.88.73 1.04 2.06 1.04 1.97 0 2.8-1.7V77.5q-.83-1.85-2.75-1.85-1.33 0-2.07 1.04-.74 1-.74 3.04zM162.5 82q0-.78-.64-1.25-.63-.48-1.9-.74-1.26-.24-1.96-.6t-1.04-.84q-.33-.5-.33-1.2 0-1.14.94-1.87.94-.75 2.4-.75 1.6 0 2.55.8.97.78.97 2.04h-1.08q0-.84-.7-1.4-.7-.55-1.76-.55-1.04 0-1.67.47-.63.46-.63 1.2 0 .7.52 1.1.52.4 1.9.7 1.4.35 2.07.7.7.38 1.03.9.35.5.35 1.26 0 1.2-.97 1.93-.97.7-2.53.7-1.66 0-2.7-.8-1.03-.8-1.03-2.02h1.07q.04.92.75 1.44.72.5 1.9.5 1.1 0 1.77-.47.7-.48.7-1.22zm6.55-2.62q0 1.94-.48 3.73-.48 1.8-1.42 3.3-.94 1.5-2.07 2.17l-.26-.68q.86-.6 1.6-1.9.73-1.3 1.15-3 .42-1.74.42-3.75 0-1.82-.45-3.5-.42-1.7-1.17-3.03-.74-1.33-1.6-1.94l.27-.67q1.1.67 2.04 2.16.94 1.48 1.44 3.3.5 1.8.5 3.84zm10.8 5.22q-1.2 0-2.2-.6-.97-.6-1.52-1.66-.54-1.08-.54-2.4v-.38q0-1.37.5-2.47.53-1.1 1.5-1.75.93-.64 2.04-.64 1.73 0 2.74 1.2 1 1.18 1 3.23v.6h-6.8v.2q0 1.6.94 2.7.94 1.06 2.34 1.06.84 0 1.48-.3.65-.3 1.18-1l.66.5q-1.17 1.7-3.37 1.7zm-.2-8.97q-1.18 0-2 .87-.8.87-.98 2.34h5.7v-.12q-.04-1.37-.78-2.23-.77-.9-1.96-.9zm6.8-.73l.02 1.56q.53-.86 1.32-1.3.76-.43 1.73-.43 2.25 0 2.86 1.85.5-.9 1.36-1.36.85-.5 1.88-.5 3.06 0 3.12 3.35v6.35h-1.05v-6.27q0-1.27-.55-1.9-.53-.6-1.76-.6-1.14.02-1.9.74-.8.7-.9 1.7v6.3h-1.05v-6.35q0-1.22-.58-1.82-.56-.6-1.74-.6-1 0-1.7.57t-1.06 1.7v6.5h-1.05v-9.5h1zm22.65 4.86q0 2.23-1 3.54-.97 1.3-2.63 1.3-2 0-3-1.48l-.05 1.3h-.98v-13.5h1.04v5.37q1-1.6 2.98-1.6 1.68 0 2.66 1.3.98 1.3.98 3.58v.15zm-1.06-.18q0-1.88-.73-2.9-.7-1.03-2.02-1.03-1 0-1.72.5-.7.5-1.06 1.45v4.3q.8 1.78 2.8 1.78 1.3 0 2.02-1.03.74-1.02.74-3.07zm7.8-3.78q-.34-.05-.7-.05-1 0-1.7.55-.67.54-.96 1.6v6.52h-1.05v-9.5h1.03l.02 1.5q.84-1.7 2.68-1.7.44 0 .7.13l-.03.96zm7.3 8.62q-.17-.45-.2-1.33-.57.7-1.43 1.1-.82.4-1.8.4-1.35 0-2.2-.8-.85-.75-.85-1.92 0-1.4 1.16-2.2 1.16-.8 3.2-.8h1.93v-1.1q0-1-.63-1.6-.65-.6-1.85-.6-1.1 0-1.82.57t-.72 1.36h-1.04q0-1.13 1.06-1.96 1.06-.84 2.6-.84 1.6 0 2.5.8.93.8.95 2.22v4.5q0 1.38.3 2.06v.12h-1.13zm-3.3-.76q1.04 0 1.87-.5.86-.52 1.24-1.37v-2.1h-1.88q-1.58 0-2.46.56-.9.55-.9 1.53 0 .8.6 1.33.6.52 1.53.52zm10.43.04q1.1 0 1.84-.6.77-.63.8-1.62h1.05q-.05.87-.55 1.6-.5.7-1.35 1.1-.82.42-1.77.42-1.87 0-2.97-1.3t-1.1-3.5v-.32q0-1.4.5-2.5.5-1.07 1.4-1.66.95-.6 2.18-.6 1.56 0 2.58.95 1 .93 1.1 2.45h-1.03q-.06-1.12-.8-1.8-.72-.7-1.84-.7-1.43 0-2.2 1.04-.8 1.03-.8 2.88v.3q0 1.83.8 2.85.77 1 2.2 1zm6.95.72h-1.06v-9.5h1.06v9.5zm-1.24-12.26q0-.3.2-.5t.52-.2.53.2q.2.2.2.5t-.2.5q-.2.2-.53.2t-.53-.2-.2-.5zm5.1 2.74l.03 1.64q.57-.88 1.37-1.34.8-.47 1.77-.47 1.53 0 2.27.87.75.86.76 2.58v6.24h-1.05v-6.25q0-1.27-.53-1.9-.53-.62-1.7-.62-.97 0-1.73.6-.75.62-1.1 1.66v6.54h-1.05v-9.5h1zm8.46 4.68q0-2.24.98-3.54 1-1.3 2.7-1.3 1.94 0 2.95 1.54l.05-1.37h.98v9.35q0 1.83-1.03 2.9t-2.78 1.08q-1 0-1.9-.44-.9-.45-1.44-1.2l.58-.62q1.12 1.37 2.66 1.37 1.33 0 2.07-.78.73-.78.76-2.16v-1.2q-1 1.43-2.94 1.43-1.68 0-2.68-1.32t-1-3.55v-.14zm1.06.18q0 1.82.73 2.88.73 1.04 2.06 1.04 1.9 0 2.72-1.74v-4.42q-.37-.9-1.06-1.4-.7-.47-1.67-.47-1.33 0-2.07 1.04-.74 1-.74 3.04zm15.38-7.28v2.43h1.97v.9h-1.97v6.33q0 .8.28 1.2.3.37.96.37.26 0 .85-.1l.04.86q-.4.15-1.1.15-1.1 0-1.56-.6-.5-.64-.5-1.86V75.8h-1.74v-.87h1.73V72.5H266zm5.22 4.04q.5-.85 1.32-1.32.8-.47 1.76-.47 1.53 0 2.28.87.75.86.76 2.58v6.24h-1.05v-6.25q0-1.27-.55-1.9-.52-.62-1.7-.62-.97 0-1.72.6-.75.62-1.1 1.66v6.54h-1.06v-13.5h1.05v5.6zm12.5 8.08q-1.2 0-2.2-.6-.97-.6-1.52-1.66-.54-1.08-.54-2.4v-.38q0-1.37.52-2.47.54-1.1 1.5-1.75.94-.64 2.05-.64 1.76 0 2.77 1.2 1.02 1.18 1.02 3.23v.6h-6.8v.2q0 1.6.92 2.7.95 1.06 2.35 1.06.85 0 1.5-.3.64-.3 1.17-1l.67.5q-1.17 1.7-3.37 1.7zm-.2-8.97q-1.18 0-2 .87-.8.87-.98 2.34h5.7v-.12q-.04-1.37-.78-2.23-.74-.9-1.93-.9zm11.2-.73l.02 1.56q.53-.86 1.32-1.3.8-.43 1.76-.43 2.25 0 2.86 1.85.5-.9 1.36-1.36.85-.5 1.88-.5 3.06 0 3.12 3.35v6.35h-1.05v-6.27q0-1.27-.56-1.9-.5-.6-1.73-.6-1.13.02-1.9.74-.8.7-.88 1.7v6.3h-1.07v-6.35q0-1.22-.57-1.82-.56-.6-1.74-.6-1 0-1.7.57t-1.06 1.7v6.5h-1.05v-9.5h1zm14.4 4.62q0-1.37.54-2.47.53-1.1 1.5-1.7.97-.62 2.2-.62 1.9 0 3.08 1.34 1.18 1.33 1.18 3.52v.2q0 1.4-.54 2.5-.52 1.1-1.5 1.7-.96.6-2.2.6-1.9 0-3.07-1.35-1.2-1.34-1.2-3.54v-.2zm1.06.3q0 1.7.88 2.8.9 1.1 2.32 1.1 1.43 0 2.3-1.1.9-1.1.9-2.9v-.2q0-1.1-.4-2-.42-.9-1.14-1.4-.73-.5-1.67-.5-1.4 0-2.3 1.12-.9 1.1-.9 2.88v.2zM325.48 82q0-.78-.63-1.25-.63-.48-1.9-.74-1.26-.24-1.96-.6t-1.07-.84q-.33-.5-.33-1.2 0-1.14.95-1.87.94-.75 2.4-.75 1.6 0 2.55.8.98.78.98 2.04h-1.05q0-.84-.7-1.4-.7-.55-1.76-.55-1.04 0-1.67.47-.63.46-.63 1.2 0 .7.52 1.1.5.4 1.9.7 1.4.35 2.05.7.7.38 1.03.9.32.5.32 1.26 0 1.2-.97 1.93-.97.7-2.53.7-1.66 0-2.7-.8-1.03-.8-1.03-2.02h1.05q.06.92.77 1.44.7.5 1.9.5 1.1 0 1.76-.47.67-.48.67-1.22zm5.04-9.52v2.43h1.97v.9h-2v6.33q0 .8.3 1.2.3.37.94.37.26 0 .85-.1l.04.86q-.4.15-1.12.15-1.08 0-1.57-.6-.5-.64-.5-1.86V75.8h-1.74v-.87h1.75V72.5h1.06zM2.34 109.42H1.28v-9.5h1.06v9.5zM1.1 97.16q0-.3.2-.5t.52-.2.53.2q.2.2.2.5t-.2.5q-.2.2-.53.2t-.53-.2-.2-.5zm5.06 2.74l.04 1.56q.52-.86 1.3-1.3.8-.43 1.77-.43 2.25 0 2.86 1.85.5-.9 1.36-1.36.82-.5 1.85-.5 3.06 0 3.12 3.35v6.35H17.4v-6.27q0-1.27-.55-1.9-.53-.6-1.75-.6-1.13.02-1.9.74-.78.7-.87 1.7v6.3H11.3v-6.35q-.02-1.22-.6-1.82-.56-.6-1.74-.6-1 0-1.7.57t-1.05 1.7v6.5H5.18v-9.5h1zm22.64 4.86q0 2.22-.97 3.53-1 1.3-2.64 1.3-1.98 0-3-1.4v4.85h-1.07V99.9h.98l.06 1.35q1.03-1.52 2.98-1.52 1.7 0 2.67 1.3 1 1.3 1 3.58v.18zm-1.04-.18q0-1.82-.75-2.88t-2.05-1.05q-.97 0-1.67.46-.7.5-1.06 1.4v4.55q.4.8 1.1 1.25.7.42 1.65.42 1.33 0 2.07-1.05.76-1.06.76-3.07zm2.8-.06q0-1.37.54-2.47t1.5-1.7q.97-.62 2.2-.62 1.9 0 3.08 1.34 1.18 1.32 1.18 3.52v.2q0 1.4-.54 2.5-.53 1.1-1.5 1.7-.96.6-2.2.6-1.9 0-3.07-1.36-1.18-1.33-1.18-3.53v-.2zm1.06.3q0 1.7.88 2.8.9 1.08 2.32 1.08 1.43 0 2.3-1.1.9-1.08.9-2.88v-.2q0-1.1-.4-2-.42-.9-1.15-1.4-.73-.5-1.67-.5-1.4 0-2.3 1.1-.88 1.1-.88 2.9v.2zm14-4.02q-.32-.05-.7-.05-1 0-1.67.55-.68.55-.97 1.6v6.52h-1.04v-9.5h1.03v1.5q.85-1.68 2.7-1.68.43 0 .7.1l-.04.97zm3.76-3.32v2.43h1.97v.9h-1.97v6.33q0 .8.28 1.2.3.37.96.37.26 0 .85-.1l.04.86q-.4.15-1.1.15-1.1 0-1.6-.6-.46-.64-.46-1.86v-6.35H46.6v-.87h1.74V97.5h1.06zm10.17 11.94q-.16-.45-.2-1.33-.56.7-1.42 1.1-.85.4-1.8.4-1.38 0-2.24-.8-.87-.75-.87-1.92 0-1.4 1.15-2.2 1.15-.8 3.22-.8h1.9v-1.1q0-1-.63-1.6-.63-.6-1.84-.6-1.1 0-1.82.57t-.7 1.36h-1.06q0-1.13 1.05-1.96 1.05-.84 2.6-.84 1.6 0 2.5.8.9.8.94 2.22v4.5q0 1.38.3 2.06v.12H59.5zm-3.3-.76q1.05 0 1.87-.5.84-.52 1.22-1.37v-2.1h-1.9q-1.56 0-2.45.56-.9.55-.9 1.53 0 .8.6 1.33.6.52 1.52.52zm7.93-8.76l.03 1.64q.57-.88 1.37-1.34.8-.47 1.77-.47 1.52 0 2.27.87.75.86.76 2.58v6.24H69.3v-6.25q0-1.27-.54-1.9-.53-.62-1.7-.62-.97 0-1.73.6-.75.62-1.1 1.66v6.54h-1.05v-9.5h1zm10.52-2.42v2.43h1.96v.9H74.7v6.33q0 .8.27 1.2.3.37.96.37.26 0 .85-.1l.04.86q-.4.15-1.12.15-1.08 0-1.57-.6-.5-.64-.5-1.86v-6.35H71.9v-.87h1.73V97.5h1.06zm10.2 0l-.03 2.43h1.97v.9H84.9l-.02 6.33q0 .8.3 1.2.28.37.94.37.27 0 .86-.1l.04.86q-.4.15-1.12.15-1.1 0-1.58-.6-.5-.64-.5-1.86v-6.35H82.1v-.87h1.75V97.5h1.06zm5.2 4.04q.52-.85 1.32-1.32.8-.46 1.77-.46 1.5 0 2.25.86.74.86.75 2.58v6.24h-1.03v-6.25q0-1.27-.55-1.9-.53-.62-1.7-.62-.97 0-1.73.62-.76.6-1.1 1.64v6.54h-1.07v-13.5h1.05v5.6zm10 7.9h-1.05v-9.5h1.06v9.5zm-1.23-12.26q0-.3.2-.5.18-.2.52-.2t.5.2q.2.2.2.5t-.2.5q-.2.2-.53.2t-.54-.2-.2-.5zm5.1 2.74l.04 1.64q.57-.88 1.37-1.34.8-.47 1.77-.47 1.53 0 2.27.87.75.86.76 2.58v6.24h-1.05v-6.25q0-1.27-.53-1.9-.53-.62-1.7-.62-.97 0-1.73.6-.75.62-1.1 1.66v6.54H103v-9.5h1zm8.46 4.68q0-2.23.98-3.53 1-1.3 2.7-1.3 1.97 0 2.98 1.53l.05-1.37h1v9.35q0 1.84-1.04 2.9t-2.8 1.08q-1 0-1.9-.44-.9-.45-1.4-1.2l.58-.62q1.12 1.37 2.66 1.37 1.33 0 2.06-.78.73-.77.76-2.15v-1.2q-1 1.4-2.94 1.4-1.67 0-2.67-1.3t-1-3.57v-.14zm1.06.18q0 1.82.7 2.88.73 1.04 2.06 1.04 1.94 0 2.75-1.74v-4.42q-.36-.9-1.05-1.4-.7-.47-1.67-.47-1.34 0-2.08 1.05-.74 1.03-.74 3.06zm15.03 2.24q0-.78-.63-1.26-.63-.47-1.9-.74-1.26-.27-1.96-.6-.7-.36-1.04-.86-.33-.5-.33-1.22 0-1.12.94-1.85.97-.74 2.44-.74 1.6 0 2.54.8.97.77.97 2.04h-1.05q0-.83-.7-1.4-.7-.54-1.77-.54-1.04 0-1.67.46-.63.43-.63 1.2 0 .7.52 1.1.53.36 1.9.7 1.4.3 2.08.7.7.35 1.03.9.33.5.33 1.23 0 1.2-1 1.92-.95.72-2.5.72-1.67 0-2.7-.8-1.04-.82-1.04-2.05h1.06q.07.93.78 1.45.73.5 1.9.5 1.1 0 1.78-.48.68-.5.68-1.23zm8.77-7.1l.02 1.56q.53-.86 1.32-1.3.8-.43 1.76-.43 2.25 0 2.86 1.85.5-.9 1.36-1.36.85-.5 1.88-.5 3.06 0 3.12 3.35v6.35h-1.05v-6.27q0-1.27-.56-1.9-.5-.6-1.73-.6-1.13.02-1.9.74-.8.7-.88 1.7v6.3h-1.07v-6.35q0-1.22-.57-1.82-.56-.6-1.74-.6-1 0-1.7.57t-1.06 1.7v6.5h-1.05v-9.5h1zm18.68 9.7q-1.2 0-2.2-.6-.97-.6-1.52-1.66-.54-1.07-.54-2.4v-.38q0-1.37.52-2.47.54-1.1 1.5-1.75.94-.63 2.05-.63 1.7 0 2.7 1.2 1.03 1.16 1.03 3.2v.6h-6.8v.2q0 1.62.93 2.7.94 1.07 2.34 1.07.86 0 1.5-.3.65-.3 1.18-1l.65.5q-1.17 1.7-3.37 1.7zm-.2-8.96q-1.18 0-2 .87-.8.9-.98 2.36h5.7v-.1q-.04-1.38-.78-2.24-.74-.85-1.93-.85zm6.84-.74l.03 1.64q.54-.88 1.34-1.34.8-.47 1.74-.47 1.53 0 2.27.87.76.86.77 2.58v6.24h-1.06v-6.25q0-1.27-.53-1.9-.53-.62-1.7-.62-.97 0-1.73.6-.75.62-1.1 1.66v6.54h-1.05v-9.5h1zm10.5-2.42v2.43h1.98v.9h-1.97v6.33q0 .8.28 1.2.3.37 1 .37.25 0 .84-.1l.04.86q-.4.15-1.12.15-1.08 0-1.57-.6-.5-.64-.5-1.86v-6.35h-1.75v-.87h1.74V97.5h1.05zm5.35 11.94h-1.06v-9.5h1.1v9.5zm-1.24-12.26q0-.3.2-.5t.52-.2q.33 0 .53.2t.2.5-.2.5q-.2.2-.53.2t-.53-.2-.2-.5zm3.53 7.36q0-1.37.53-2.47.5-1.1 1.5-1.7.94-.62 2.2-.62 1.9 0 3.05 1.34 1.18 1.32 1.18 3.52v.2q0 1.4-.54 2.5-.5 1.1-1.5 1.7-.96.6-2.2.6-1.9 0-3.07-1.36-1.18-1.33-1.18-3.53v-.2zm1.05.3q0 1.7.9 2.8.9 1.08 2.3 1.08 1.46 0 2.34-1.1.88-1.08.88-2.88v-.2q0-1.1-.4-2-.4-.9-1.12-1.4-.73-.5-1.67-.5-1.4 0-2.3 1.1-.9 1.1-.9 2.9v.2zm10.63-4.92l.03 1.64q.54-.88 1.34-1.34.8-.47 1.77-.47 1.53 0 2.27.87.75.86.76 2.58v6.24h-1.05v-6.25q0-1.27-.54-1.9-.5-.62-1.7-.62-.94 0-1.7.6-.75.62-1.1 1.66v6.54h-1.05v-9.5h1zm12.57 9.7q-1.22 0-2.2-.6-.98-.6-1.53-1.66-.54-1.07-.54-2.4v-.38q0-1.37.52-2.47.54-1.1 1.5-1.75.94-.63 2.05-.63 1.73 0 2.74 1.2 1.02 1.16 1.02 3.2v.6h-6.8v.2q0 1.62.93 2.7.9 1.07 2.3 1.07.86 0 1.5-.3.65-.3 1.18-1l.65.5q-1.17 1.7-3.37 1.7zm-.2-8.96q-1.2 0-2 .87-.82.9-1 2.36h5.7v-.1q-.03-1.38-.77-2.24-.74-.85-1.93-.85zm5.4 3.94q0-2.2.98-3.52 1-1.32 2.7-1.32 1.92 0 2.93 1.52v-5.34h1.07v13.5h-.98l-.05-1.26q-1 1.44-2.97 1.44-1.65 0-2.66-1.32-1-1.33-1-3.58v-.12zm1.06.18q0 1.82.73 2.88.7 1.04 2.03 1.04 1.94 0 2.76-1.7v-4.47q-.8-1.83-2.74-1.83-1.33 0-2.07 1.05-.75 1.04-.75 3.07zm21.44 0q0 2.22-1 3.53-.98 1.3-2.64 1.3-2 0-3-1.5l-.05 1.3h-.96V95.9h1.05v5.38q1-1.57 2.96-1.57 1.7 0 2.66 1.3 1 1.3 1 3.6v.15zm-1.07-.18q0-1.9-.73-2.9-.72-1.03-2.05-1.03-1 0-1.72.5-.7.5-1.06 1.45v4.3q.8 1.78 2.8 1.78 1.3 0 2.03-1.03.73-1.03.73-3.07zm6.3 3.32l2.78-8h1.16l-4.06 11.14-.2.5q-.8 1.72-2.44 1.72-.38 0-.8-.12l-.02-.87.55.05q.75 0 1.23-.38t.8-1.3l.48-1.3-3.57-9.43H235l2.95 8zm12.94 0l2.78-8h1.13l-4.06 11.14-.2.5q-.8 1.72-2.43 1.72-.4 0-.84-.12v-.87l.54.05q.78 0 1.26-.38t.8-1.3l.48-1.3-3.6-9.43h1.17l2.97 8zm4.8-3.38q0-1.37.53-2.47t1.5-1.7q.97-.62 2.2-.62 1.9 0 3.08 1.34 1.18 1.32 1.18 3.52v.2q0 1.4-.54 2.5-.52 1.1-1.5 1.7-.96.6-2.2.6-1.9 0-3.07-1.36-1.18-1.33-1.18-3.53v-.2zm1.05.3q0 1.7.88 2.8.9 1.08 2.32 1.08 1.43 0 2.3-1.1.9-1.08.9-2.88v-.2q0-1.1-.4-2-.42-.9-1.14-1.4-.73-.5-1.67-.5-1.4 0-2.3 1.1-.86 1.1-.86 2.9v.2zm15.74 3.4q-.95 1.38-3.03 1.38-1.52 0-2.3-.88-.8-.9-.82-2.62v-6.2h1.07v6.07q0 2.72 2.2 2.72 2.3 0 2.9-1.9v-6.9h1.05v9.5h-1l-.03-1.2zm8.16-7.42q-.33-.05-.7-.05-1 0-1.68.55-.68.55-.97 1.6v6.52h-1.05v-9.5h1.03l.02 1.5q.84-1.68 2.68-1.68.44 0 .7.1l-.03.97zm8.32 6.43l.16.82.2-.86 2.3-7.3h.9l2.25 7.2.24 1 .2-.9 1.93-7.3h1.1l-2.78 9.5h-.9l-2.44-7.54-.1-.52-.12.53-2.4 7.52h-.9l-2.76-9.5h1.08l2 7.3zm15.7-6.43q-.34-.05-.7-.05-1 0-1.7.55-.67.55-.96 1.6v6.52h-1.05v-9.5h1.03l.02 1.5q.84-1.68 2.68-1.68.44 0 .7.1l-.03.97zm2.82 8.62h-1.06v-9.5h1.06v9.5zm-1.24-12.26q0-.3.2-.5t.52-.2q.33 0 .53.2t.2.5-.2.5q-.2.2-.53.2t-.53-.2-.16-.5zm5.74.32v2.43h1.97v.9h-1.97v6.33q0 .8.28 1.2.3.37.96.37.26 0 .85-.1l.04.86q-.44.15-1.15.15-1.08 0-1.57-.6-.5-.64-.5-1.86v-6.35h-1.75v-.87h1.74V97.5h1.05zm7.84 12.12q-1.2 0-2.2-.6-.96-.6-1.5-1.66-.55-1.07-.55-2.4v-.38q0-1.37.52-2.47.54-1.1 1.5-1.75.94-.63 2.05-.63 1.73 0 2.74 1.2 1.02 1.16 1.02 3.2v.6h-6.8v.2q0 1.62.93 2.7.97 1.07 2.37 1.07.85 0 1.5-.3.64-.3 1.17-1l.66.5q-1.18 1.7-3.38 1.7zm-.18-8.96q-1.2 0-2 .87-.82.9-1 2.36h5.7v-.1q-.03-1.38-.77-2.24-.74-.85-1.93-.85zm10.22.16q-.33-.05-.7-.05-1 0-1.68.55-.68.55-.97 1.6v6.52h-1.08v-9.5h1.03l.02 1.5q.83-1.68 2.67-1.68.44 0 .7.1l-.03.97zm.46 8q0-.32.2-.53.2-.22.55-.22.35 0 .55.22.2.2.2.52 0 .3-.2.5t-.55.2q-.36 0-.56-.2-.2-.2-.2-.5z"/><path fill="#69bdf9" d="M304.86 165.85q.1-.97-.46-1.68-.56-.72-1.98-1.3-1.43-.56-2.1-1.1-.7-.57-1.03-1.3-.35-.7-.27-1.67.13-1.62 1.23-2.62t2.83-1.17l.34-1.93h1l-.34 1.98q1.5.22 2.26 1.36.75 1.13.6 3h-1.16q.12-1.5-.5-2.4-.63-.9-1.87-.94-1.3-.02-2.2.74-.9.74-1.03 1.97-.17 1.57 1.26 2.42.37.2 1.47.66 1.1.44 1.68.87 1.6 1.16 1.45 3.07-.13 1.63-1.26 2.64t-2.93 1.15l-.32 1.84h-1l.33-1.86q-1.13-.1-1.92-.67-.8-.56-1.15-1.5-.36-.93-.26-2.1h1.17q-.12 1.5.6 2.4.75.86 2.13.9 1.37 0 2.34-.77.97-.77 1.1-2zm16.24 3.57h-13l.22-1.42 9.22-9.13q2.92-2.94 3.2-5.3.23-1.83-.73-3.03-.94-1.2-2.83-1.26-2.05-.06-3.55 1.3-1.47 1.35-1.85 3.65h-1.68q.34-2.84 2.32-4.66t4.8-1.8q2.66.07 4.1 1.65 1.47 1.57 1.22 4-.3 2.9-3.63 6.26l-8.4 8.26h10.84l-.26 1.5zm14.82-6.87h3.22l-.26 1.48h-3.2l-.96 5.4h-1.75l.94-5.4h-9.65l.12-.98 12.1-14.96h1.97l-2.5 14.43zm-9.3 0h7.54l2.1-12-.9 1.2-8.74 10.8zm14.2 5.82q.05-.5.4-.86.4-.34.9-.36.54 0 .88.36.33.35.3.9-.04.5-.42.83-.37.32-.88.34-.5 0-.86-.33-.34-.33-.3-.86zm19.28-8.8q-1.12 1.4-2.57 2.16-1.45.76-3 .7-1.66-.03-2.86-.98t-1.76-2.55q-.5-1.6-.34-3.5.22-2.14 1.22-3.9 1-1.8 2.58-2.77 1.56-.98 3.45-.95 2.5.06 3.96 1.76 1.45 1.7 1.54 4.76.02 1.64-.43 4.35-.9 5.28-3.75 8.07-2.85 2.8-7.24 2.87h-.73l.18-1.55h.58q3.6-.06 5.88-2.15 2.26-2.1 3.3-6.35zm-5.27 1.35q1.67.06 3.16-.95 1.5-1.03 2.35-2.8.2-1.8.2-2.52 0-2.5-1-3.9-.98-1.4-2.84-1.46-1.4-.06-2.6.73-1.14.78-1.9 2.2-.76 1.42-.94 3.06-.16 1.5.2 2.8.4 1.27 1.24 2.04.88.74 2.14.77zm21.55-1.36q-1.1 1.4-2.56 2.17-1.45.76-3 .7-1.66-.03-2.86-.98t-1.76-2.55q-.54-1.6-.37-3.5.22-2.14 1.22-3.9 1-1.8 2.58-2.77 1.56-.98 3.45-.95 2.52.06 3.96 1.76 1.45 1.7 1.54 4.76.04 1.64-.4 4.35-.9 5.28-3.76 8.07-2.85 2.8-7.24 2.87h-.72l.18-1.55h.58q3.6-.06 5.86-2.15 2.27-2.1 3.3-6.35zm-5.26 1.36q1.67.06 3.16-.95 1.5-1.03 2.38-2.8.2-1.8.2-2.52 0-2.5-1-3.9-.98-1.4-2.84-1.46-1.42-.06-2.6.73-1.15.78-1.92 2.2-.76 1.42-.94 3.06-.16 1.5.2 2.8.4 1.27 1.24 2.04.86.74 2.12.77z"/></svg>